<?xml version="1.0" encoding="utf-8"?>
<!-- Generator: Adobe Illustrator 26.0.0, SVG Export Plug-In . SVG Version: 6.00 Build 0)  -->
<svg version="1.1" id="Layer_1" xmlns="http://www.w3.org/2000/svg" xmlns:xlink="http://www.w3.org/1999/xlink" x="0px" y="0px"
	 viewBox="0 0 612 792" style="enable-background:new 0 0 612 792;" xml:space="preserve">
<style type="text/css">
	.st0{fill:#FEFEFE;}
	.st1{fill:#57C37D;}
	.st2{fill:#ABABAB;}
	.st3{fill:#9DBCA3;}
	.st4{fill:#D4D4D4;}
	.st5{fill:#9DAFA0;}
	.st6{fill:#D5D5D5;}
	.st7{fill:#B9C2BB;}
	.st8{fill:#62FE80;}
	.st9{fill:#8ABF94;}
	.st10{fill:#5DFE7C;}
	.st11{fill:#ACB6AE;}
	.st12{fill:#48A569;}
	.st13{fill:#4EFE70;}
	.st14{fill:#E2E2E2;}
	.st15{fill:#78C186;}
	.st16{fill:#040906;}
	.st17{fill:#060D08;}
	.st18{fill:#09130C;}
	.st19{fill:#040805;}
</style>
<g>
	<g>
		<path class="st0" d="M287.74,393.51c0-7.81,0.1-15.63-0.07-23.44c-0.05-2.15,0.41-2.58,2.56-2.56c12.63,0.13,25.26,0.13,37.88,0
			c2.14-0.02,2.57,0.41,2.56,2.56c-0.12,15.63-0.12,31.25,0,46.88c0.02,2.14-0.41,2.58-2.56,2.56c-12.63-0.13-25.26-0.13-37.88,0
			c-2.14,0.02-2.6-0.41-2.56-2.56C287.84,409.14,287.74,401.33,287.74,393.51z"/>
		<path class="st1" d="M308.69,418.33c-10.9-1.3-13.7-10.2-6.49-21.57c-4.59,0.8-6.44-2.46-8.51-5.38c0.07-1.49,1.21-1.33,2.15-1.32
			c9.88,0.1,19.78-0.43,29.65,0.4c-1.85,3.57-3.7,7.15-9.51,6.08c4.32,4.86,6.87,9.66,3.92,15.47c-1.89,3.73-4.76,6.26-9.26,6.27
			c-1.29-1.57-1.41-3.3-0.67-5.13c0.64-1.22,1.44-2.17,3.32-1.71c-1.8-1.3-2.96-2.86-4.07-4.47c-0.93-1.6-0.93-3.21-0.07-4.83
			c0.86-1.12,1.73-2.23,3.25-4.18c-2.09,1.14-1.84,2.49-2.54,3.25c-3.28,2.13-2.71,4.3-0.04,6.47c0.77,1.25,1.13,2.56,0.62,4.01
			c-0.22,0.4-0.46,0.8-0.71,1.18c-2.62,1.07-1.76,2.63-0.58,4.23C309.17,417.59,309.01,417.99,308.69,418.33z"/>
		<path class="st2" d="M325.49,390.45c-9.04,0.01-18.09,0-27.13,0.07c-1.58,0.01-3.32-0.55-4.67,0.86c0.76-2.05,5.3-3.71,6.62-2.38
			c1.13,1.14,2.5,0.55,3.74,0.56c7.11,0.11,14.23,0.11,21.34,0.16c0.11,0,0.3,0.18,0.3,0.28
			C325.69,390.15,325.56,390.3,325.49,390.45z"/>
		<path class="st3" d="M315.66,383.55c1.44-0.44,2.93-2.1,4.31,0.02c0.75,1.15,0.2,2.32-0.57,3.17c-1.26,1.4-2.7,1.98-4.02-0.04
			C315.3,385.63,314.89,384.54,315.66,383.55z"/>
		<path class="st4" d="M305.69,387.53c-4.42,1.61-3.65-1.73-3.89-4.09c1.32-0.88,2.29-0.22,3.18,0.74
			C305.73,385.19,304.64,386.59,305.69,387.53z"/>
		<path class="st5" d="M304.66,384.48c-0.96-0.35-1.91-0.69-2.87-1.04c0.04-1.21-0.37-2.76,1.58-2.81c1.95-0.04,2.26,1.34,2.21,2.92
			C305.42,384,305.11,384.31,304.66,384.48z"/>
		<path class="st6" d="M304.66,384.48c0.31-0.31,0.62-0.62,0.93-0.93c1.28-0.56,2.58-1.15,3.16,0.87c-0.53,0.74-0.9,1.77-2.15,1.12
			c-0.78,0.45-0.88,1.2-0.9,1.99C304.5,386.8,304.72,385.59,304.66,384.48z"/>
		<path class="st7" d="M315.66,383.55c0.41,1.09,1.49,2.25-0.28,3.15c-0.57,0.29-1.13,0.58-1.7,0.87c-1.33-1.64-1.44-3.3-0.1-4.99
			C314.27,382.9,314.97,383.22,315.66,383.55z"/>
		<path class="st8" d="M318.73,376.28c2.36-1.06,4.83-1.4,7.79-0.27C323.69,377.08,321.24,376.51,318.73,376.28z"/>
		<path class="st9" d="M309.53,385.32c-0.06-1.46,0.06-2.79,2.04-2.73c1.28,0.93,0.45,2.59,1.28,3.68c0.23,0.43,0.17,0.82-0.17,1.16
			c-1.01,0.06-2.02,0.12-3.03,0.19C309.05,386.88,309,386.11,309.53,385.32z"/>
		<path class="st10" d="M296.23,376.44c1.7-1.25,3.34-1.25,4.82,0.49C299.44,376.77,297.84,376.6,296.23,376.44z"/>
		<path class="st11" d="M309.53,385.32c0.04,0.76,0.08,1.53,0.12,2.29c-1.6,0.17-3.11,0.2-3.05-2.07c0.72-0.37,1.43-0.75,2.15-1.12
			C309.01,384.72,309.27,385.02,309.53,385.32z"/>
		<path class="st12" d="M308.69,418.33c-0.02-0.28-0.03-0.55-0.03-0.83c0.58-1.65-0.73-3.68,1.03-5.09l-0.07,0.06
			c0.43-0.33,0.79-0.29,1.08,0.19c-0.02,1.87-0.05,3.74-0.07,5.62C309.98,418.29,309.33,418.31,308.69,418.33z"/>
		<path class="st13" d="M308.18,375c-0.67-2.64-0.81-4.22-0.05-6.27C308.96,370.76,308.87,372.38,308.18,375z"/>
		<path class="st14" d="M312.56,386.36c-3.44-0.44-0.34-2.6-0.99-3.77c0.39,0,0.79-0.01,1.18-0.01
			C313.25,383.87,313.52,385.14,312.56,386.36z"/>
		<path class="st15" d="M312.56,386.36c0.06-1.26,0.13-2.52,0.19-3.78c0.28-0.06,0.55-0.06,0.83,0c0.03,1.66,0.07,3.33,0.1,4.99
			c-0.33-0.05-0.67-0.09-1-0.14C312.64,387.07,312.6,386.71,312.56,386.36z"/>
		<path class="st16" d="M309.65,401.47c0.01,2.01,0.02,4.01,0.03,6.02l0.07-0.06c-2.33-0.14-3.6-1.83-5.12-3.38
			c1.56-1.34,2.98-2.62,5.1-2.51L309.65,401.47z"/>
		<path class="st17" d="M309.73,401.54c0-1.81,0-3.62,0-5.55c2.1,0.26,3.2,1.77,4.56,2.92c-1.02,1.9-3.26,1.46-4.65,2.57
			C309.65,401.47,309.73,401.54,309.73,401.54z"/>
		<path class="st18" d="M310.7,412.66c-0.36-0.06-0.72-0.13-1.08-0.19c0.04-1.68,0.09-3.36,0.13-5.04c0,0-0.07,0.06-0.07,0.06
			c1.47,1.03,2.94,2.07,4.87,3.43C313.09,411.58,311.9,412.12,310.7,412.66z"/>
		<path class="st19" d="M309.68,412.41c-0.28,1.71,0.94,3.72-1.03,5.09c-1.24-1.02-2.47-2.03-4.26-3.5
			C306.5,413.37,308.09,412.89,309.68,412.41z"/>
	</g>
</g>
</svg>
