<?xml version="1.0" encoding="utf-8"?>
<!-- Generator: Adobe Illustrator 26.0.0, SVG Export Plug-In . SVG Version: 6.00 Build 0)  -->
<svg version="1.1" id="Capa_1" xmlns="http://www.w3.org/2000/svg" xmlns:xlink="http://www.w3.org/1999/xlink" x="0px" y="0px"
	 viewBox="0 0 1417.3 841.9" style="enable-background:new 0 0 1417.3 841.9;" xml:space="preserve">
<path d="M858.9,670.8c0,6.5,0,12.9,0,19.9c-6.6,0-13,0-19.7,0c0,20.1,0,39.7,0,59.7c-26.7,0-53.1,0-80,0c0-6.2,0-12.6,0-19.3
	c-6.9,0-13.3,0-20.1,0c0,6.4,0,12.7,0,19.3c-13.4,0-26.4,0-40,0c0-6.3,0-12.7,0-19.4c-6.8,0-13.1,0-19.9,0c0-6.7,0-13.1,0-20.3
	c-7.1,0-13.7,0-20.3,0l0.1,0.1c0-13.1,0-26.3,0-39.9c-40.1,0-79.7,0-119.7,0c0-6.9,0-13.2,0-20c6.3,0,12.6,0,19.3,0
	c0-6.7,0-13.1,0-20c-6.3,0-12.6,0-19.5,0c0-33.8,0-67,0-100.2l-0.1,0.1c13.2,0,26.5,0,40.2,0c0-7.1,0-13.4,0-20.1
	c13.7,0,26.8,0,39.9,0c0,6.7,0,13.4,0,20.2c-6.6,0-13.2,0-20.3,0c0,20.3,0,40,0,59.7c-6.8,0-13.1,0-19.8,0c0-13.3,0-26.3,0-39.4
	c-6.9,0-13.3,0-19.5,0c0,20.1,0,39.8,0,59.8c6.7,0,12.9,0,19.7,0c0,6.7,0,13.1,0,19.7c7,0,13.5,0,19.9,0c0,6.6,0,13.2,0,19.7
	c13.6,0,26.6,0,39.9,0c0-6.8,0-13.3,0-19.7c13.3,0,26.5,0,39.7,0c0-7,0-13.4,0-20.1c-6.7,0-12.9,0-19.2,0c0-13.4,0-26.5,0-39.9
	c20,0,39.6,0,59.3,0c0-6.8,0-13.1,0-20.1c-6.7,0-13.1,0-19.4,0c0-13.5,0-26.4,0-39.9c13.3,0,26.4,0,39.7,0c0-7,0-13.5,0-20
	c6.7,0,13.4,0,20.2,0c0,46.7,0,93.4,0,140.1c-6.6,0-13.2,0-20.3,0c0-7.1,0-13.4,0-19.7c-6.9,0-13.3,0-19.7,0c0,20.1,0,39.9,0,59.7
	c-6.6,0-13.2,0-20.3,0c0-7.1,0-13.5,0-19.8c-6.8,0-13.1,0-19.5,0c0,13.3,0,26.3,0,39.9c6.7,0,13,0,19.9,0c0,6.9,0,13.3,0,19.6
	c13.5,0,26.4,0,39.5,0c0-6.6,0-13,0-19.9c-6.7,0-13.1,0-19.8,0c0-7,0-13.5,0-19.9c13.3,0,26.5,0,40.3,0c0,13.8,0,26.9,0,39.8
	c6.8,0,13.1,0,19.9,0c0-13.3,0-26.4,0-39.8c7,0,13.5,0,20,0c0,13.2,0,26.5,0,39.7c6.9,0,13.3,0,19.9,0c0-13.5,0-26.6,0-39.7
	c13.4,0,26.8,0.1,40.1,0.1L858.9,670.8z"/>
<path d="M499.1,471c0-6.5,0-12.9,0-19.9c6.6,0,13,0,19.6,0c0-6.9,0-13.3,0-20c-6.5,0-12.7,0-19.3,0c0-6.7,0-13.1,0-20.2
	c13.2,0,26.5,0,39.7,0c0,13.3,0,26.5,0,40.3c7,0,13.4,0,20.1,0c0,6.8,0,13.1,0,19.4c6.8,0,13.1,0,20.1,0c0-13.4,0-26.4,0-39.8
	c6.8,0,13.1,0,19.4,0c0-6.8,0-13.1,0-19.8c-20.1,0-39.9,0-59.7,0c0-6.5,0-12.9,0-20c-20.1,0-39.9,0-59.8,0l0.2,0.1
	c-0.1-6.7-0.3-13.4-0.4-20.1l-0.1,0.2c13.2,0,26.4,0,40.3,0c0-7.2,0-13.8,0-20.3l-0.1,0.1c6.7,0,13.4,0,20.1,0l-0.1-0.1
	c0,6.6,0,13.2,0,19.7c7.1,0,13.4,0,20.1,0c0-6.8,0-13.3,0-19.7l-0.1,0.1c6.6,0,13.2,0,20.3,0c0,7,0,13.4,0,19.7c6.8,0,13.1,0,19.4,0
	c0-13.3,0-26.4,0-39.8c-13.5,0-26.6,0-39.7,0l0.1,0.1c0-6.7,0-13.4,0-20.1l-0.1,0.1c19.9,0,39.8,0,59.7,0c0-7.1,0-13.5,0-20.2
	c-6.6,0-12.9,0-19.7,0c0-6.7,0-13.1,0-19.5c-20.2,0-39.9,0-60,0c0,6.8,0,13.3,0,19.7l0.1-0.1c-6.7,0-13.4,0-20.1,0l0.1,0.1
	c0-6.5,0-12.9,0-19.9c-6.8,0-13.2,0-19.8,0c0-6.8,0-13.1,0-19.9c13,0,26,0,39.6,0c0-33.6,0-66.6,0-100.2c20.4,0,40.3,0,60.2,0
	l-0.1-0.1c0,33.2,0,66.5,0,100.2c7,0,13.4,0,20.3,0c0,6.9,0,13.3,0,20c6.8,0,13.1,0,19.9,0c0,6.7,0,13.1,0,19.4c6.9,0,13.3,0,20,0
	c0-6.7,0-12.9,0-19.7c6.7,0,13.1,0,19.7,0c0-7,0-13.5,0-19.9c6.6,0,13.2,0,20.2,0c0,7.1,0,13.4,0,20c7,0,13.4,0,19.9,0
	c0,6.7,0,13.4,0,20.2c-6.6,0-13.2,0-20.3,0c0,7,0,13.4,0,20.1c-13.5,0-26.4,0-39.4,0c0,13.4,0,26.5,0,39.7c6.8,0,13.3,0,19.7,0
	c0,6.7,0,13.4,0,20.1c-6.6,0-13.2,0-20,0c0,7.1,0,13.5,0,20c-6.6,0-13.2,0-20,0c0,7.1,0,13.5,0,20c-6.6,0-13.2,0-20.3,0
	c0,13.6,0,26.6,0,40.2c-6.9,0-13.3,0-20,0c0,13.4,0,26.4,0,39.8c-13.4,0-26.4,0-40,0c0,6.9,0,13.3,0,19.9c-7,0-13.5,0-19.9,0
	l0.1,0.1c0-13.3,0-26.5,0-40.1c-13.9,0-27,0-40.1,0L499.1,471z M578.8,171.2c-6.8,0-13.1,0-19.5,0c0,26.6,0,53,0,79.4
	c6.7,0,13.1,0,19.5,0C578.8,223.9,578.8,197.7,578.8,171.2z M638.7,350.7c0-6.7,0-13.1,0-19.4c-6.7,0-13.1,0-19.4,0
	c0,6.6,0,12.9,0,19.4C625.8,350.7,632,350.7,638.7,350.7z"/>
<path d="M878.9,531c6.5,0,12.9,0,19.9,0c0,6.6,0,13,0,19.7c6.8,0,13.1,0,19.9,0c0,6.7,0,13.1,0,20c20.2,0,39.9,0,60.2,0
	c0,7.1,0,13.7,0,20.3l0.1-0.1c-6.6,0-13.2,0-19.7,0c0,7.1,0,13.4,0,20.1c6.8,0,13.3,0,19.7,0l-0.1-0.1c0,6.5,0,12.9,0,20
	c-6.6,0-13,0-19.7,0c0,6.8,0,13.1,0,19.9c6.3,0,12.7,0,19.7,0c0,7.1,0,13.7,0,20.3l0.1-0.1c-6.6,0-13.2,0-19.7,0
	c0,7.1,0,13.4,0,20.1c6.8,0,13.3,0,19.7,0l-0.1-0.1c0,19.8,0,39.6,0,59.7c-6.5,0-12.9,0-19.8,0c0-13,0-26,0-39.7
	c-27.1,0-53.6,0-80.2,0l0.1,0.1c0-6.5,0-12.9,0-19.9c6.5,0,12.9,0,19.6,0c0-6.9,0-13.2,0-20.2c-13.3,0-26.5,0-39.8,0l0.1,0.1
	c0-19.9,0-39.8,0-60c-7.2,0-13.7,0-20.1,0c0-6.7,0-13.4,0-20.1c6.6,0,13.2,0,20.1,0c0-7.1,0-13.5,0-20l-0.1,0.1c6.6,0,13.2,0,20.1,0
	C878.9,557.2,878.9,544.1,878.9,531L878.9,531z M938.8,591.2c-20.1,0-39.8,0-59.4,0c0,20.1,0,39.8,0,59.4c20,0,39.6,0,59.4,0
	C938.8,630.8,938.8,611.2,938.8,591.2z"/>
<path d="M599.1,151c0-19.8,0-39.6,0-59.7c6.6,0,13,0,19.8,0c0,6.3,0,12.6,0,19.3c6.7,0,13.1,0,20.1,0c0-6.3,0-12.7,0-19.3
	c40.1,0,79.7,0,119.9,0c0,6.3,0,12.7,0,19.6c13.6,0,26.6,0,40.1,0c0,6.8,0,13.1,0,19.9c6.7,0,13.1,0,20.1,0c0,7.1,0,13.7,0,20.3
	l0.1-0.1c-6.6,0-13.2,0-20.2,0c0,13.7,0,26.8,0,40.1c-7,0-13.4,0-19.9,0c0-6.6,0-13.2,0-20.2c-6.9,0-13.3,0-20.1,0
	c0-13.5,0-26.6,0-39.8c-6.9,0-13.4,0-19.9,0c0-6.6,0-13.2,0-19.7c-20.3,0-40,0-59.9,0c0,13.5,0,26.6,0,39.7c-6.6,0-13.2,0-20.3,0
	c0-7.1,0-13.5,0-19.7c-6.9,0-13.3,0-19.7,0c0,20.2,0,39.9,0,59.7c-6.6,0-13.2,0-20.2,0c0-13.7,0-26.8,0-40.1
	C612,151,605.6,151,599.1,151L599.1,151z"/>
<path d="M379.2,230.6c0-46.5,0-92.8,0-139.4c46.4,0,92.8,0,139.5,0c0,46.4,0,92.7,0,139.4C472.3,230.6,426.1,230.6,379.2,230.6z
	 M399.4,111.1c0,33.5,0,66.5,0,99.4c33.4,0,66.4,0,99.4,0c0-33.3,0-66.2,0-99.4C465.5,111.1,432.6,111.1,399.4,111.1z"/>
<path d="M518.6,750.7c-46.6,0-92.8,0-139.4,0c0-46.5,0-92.7,0-139.4c46.3,0,92.6,0,139.4,0C518.6,657.5,518.6,703.9,518.6,750.7z
	 M399.4,631.1c0,33.5,0,66.5,0,99.4c33.4,0,66.4,0,99.4,0c0-33.3,0-66.2,0-99.4C465.5,631.1,432.6,631.1,399.4,631.1z"/>
<path d="M1038.7,230.7c-46.6,0-92.8,0-139.4,0c0-46.5,0-92.8,0-139.5c46.4,0,92.8,0,139.4,0C1038.7,137.6,1038.7,183.9,1038.7,230.7
	z M919.4,111.1c0,33.4,0,66.5,0,99.4c33.4,0,66.4,0,99.4,0c0-33.3,0-66.2,0-99.4C985.5,111.1,952.6,111.1,919.4,111.1z"/>
<path d="M878.9,410.8c0,13.1,0,26.2,0,39.9c20,0,39.7,0,60,0c0,13.8,0,27,0,40.2l0.1-0.1c-6.7,0-13.3,0-20-0.1c0-6.6,0-13.1,0-19.5
	c-7.2,0-13.6,0-19.8,0c0,6.6,0,12.9,0,19.3c6.8,0,13.4,0,20,0c-0.1,6.8-0.2,13.6-0.3,20.3l0.1-0.1c-13.4,0-26.8,0-40.1,0l0.1,0.1
	c0-6.6,0-13.1,0-20.2c-7,0-13.4,0-20.3,0c0-6.9,0-13.3,0-19.8c-7,0-13.4,0-19.9,0c0-13.4,0-26.8,0-40.1c6.6,0,13.2,0,20,0
	c0-7.1,0-13.5,0-20C865.5,410.7,872.2,410.8,878.9,410.8L878.9,410.8z"/>
<path d="M399.1,330.9c0-6.5,0-12.9,0-20c-6.8,0-13.2,0-19.8,0c0-20.1,0-39.7,0-59.7c6.3,0,12.7,0,19.7,0c0,13,0,26.1,0,39.4
	c6.8,0,13.1,0,19.9,0c0-6.4,0-12.8,0-19.5c6.8,0,13.1,0,19.9,0c0,6.2,0,12.6,0,19.8c7.1,0,13.7,0,20.3,0l-0.1-0.1c0,6.5,0,12.9,0,20
	c6.8,0,13.2,0,19.9,0c0,20.5,0,40.4,0,60.4l0.1-0.2c-6.4,0-12.9,0-19.8,0c0-13.5,0-26.6,0-40.2c-20.4,0-40.3,0-60.1,0V330.9z"/>
<path d="M399.1,490.8c-6.5,0-12.9,0-19.7,0c0-26.6,0-53,0-79.6c6.4,0,12.6,0,19.5,0c0,6.3,0,12.7,0,19.4c13.6,0,26.6,0,40,0
	c0-6.4,0-12.6,0-19.5c-6.3,0-12.7,0-19.4,0c0-6.9,0-13.3,0-20c20.1,0,40,0,60,0l-0.2-0.1c0,6.5,0,12.9,0,19.7c-6.8,0-13.1,0-19.9,0
	c0,20.1,0,39.8,0,59.8c-6.9,0-13.3,0-20.1,0c0-6.3,0-12.6,0-19.3c-13.4,0-26.5,0-40.3,0c0,13.2,0,26.4,0,39.7L399.1,490.8z"/>
<path d="M858.9,251c39.9,0,79.7,0,119.9,0c0,6.7,0,12.9,0,19.7c6.7,0,13.1,0,20,0c0,7.1,0,13.7,0,20.3l0.1-0.1c-6.5,0-12.9,0-19.9,0
	c0,6.8,0,13.1,0,19.8c-6.8,0-13,0-19.8,0c0-12.9,0-25.9,0-39.3c-20.2,0-39.9,0-60.1,0c0,12.9,0,25.9,0,39.5c-7.1,0-13.7,0-20.3,0
	l0.1,0.1c0-13.3,0-26.5,0-40c-7.2,0-13.7,0-20.1,0c0-6.7,0.1-13.4,0.1-20.1V251z"/>
<path d="M858.9,111c6.5,0,12.9,0,19.7,0c0,39.9,0,79.6,0,119.8c-6.6,0-13.1,0-19.7,0l0.1,0.1c0-13.2,0-26.5,0-40.2
	c-13.7,0-26.8,0-40,0c0-13.6,0-26.8,0-39.9l-0.1,0.1c13.1,0,26.3,0,40.2,0c0-13.6,0-26.9,0-40.1L858.9,111z"/>
<path d="M419.1,570.9c0-6.5,0-12.9,0-19.9c13.2,0,26.2,0,39.8,0c0-13.5,0-26.5,0-40.1c7.1,0,13.6,0,20.2,0l-0.1-0.1
	c0,6.6,0,13.2,0,20.1c13.9,0,27,0,40.1,0l-0.1-0.1c0,6.5,0,12.9,0,19.9c-13.2,0-26.3,0-39.8,0c0,6.9,0,13.3,0,20.1
	c-20.4,0-40.3,0-60.2,0L419.1,570.9z"/>
<path d="M939.1,410.8c-6.5,0-12.9,0-19.9,0c0,6.8,0,13.2,0,19.8c-6.8,0-13.1,0-19.9,0c0-6.3,0-12.7,0-19.8c-7.1,0-13.7,0-20.3,0
	l0.1,0.1c0-13.4-0.1-26.8-0.1-40.1c13.4,0,26.8,0.1,40.1,0.1l-0.1-0.1c0,6.6,0,13.2,0,20.1c7.2,0,13.7,0,20.1,0l-0.1-0.1
	c0,6.7,0,13.4,0,20.1L939.1,410.8z"/>
<path d="M958.8,431.2c13.1,0,26.3,0,40,0c0-6.8,0-13.2,0-19.9c6.9,0,13.3,0,20,0c0,13,0,25.9,0,39.4c-12.9,0-26,0-39.6,0
	c0,6.9,0,13.3,0,20c-6.8,0-13.1,0-20.2,0c0-13.1,0-26.4,0-39.6C958.9,431,958.8,431.2,958.8,431.2z"/>
<path d="M878.9,510.8c0,6.7,0,13.4,0,20.2l0.1-0.1c-6.6,0-13.2,0-20.1,0c0,13.9,0,27,0,40.1l0.1-0.1c-6.7,0-13.4,0.1-20.1,0.1
	c0-13.3,0-26.5,0-40c-7.1,0-13.5,0-20,0c0-6.7,0-13.4,0-20.2c20,0,40.1,0.1,60.1,0.1L878.9,510.8z"/>
<path d="M1019.3,591.1c0-6.6,0-13.2,0-20.1c-7,0-13.3,0-19.9,0c0-20,0-39.7,0-60.2c6.4,0,12.9,0,19.5,0l-0.2-0.1
	c0,13.2,0,26.5,0,40.1c7,0,13.2,0,19.9,0c0,13.4,0,26.4,0,40.3c-6.4,0-12.9,0-19.5,0C1019.1,591,1019.3,591.1,1019.3,591.1z"/>
<path d="M559.1,730.9c0-6.5,0-12.9,0-19.9c6.6,0,13,0,19.8,0c0-6.8,0-13.1,0-19.7c6.7,0,13.1,0,19.8,0c0,19.6,0,39.4,0,59.3
	c-6.4,0-12.6,0-19.4,0c0-6.3,0-12.7,0-19.8c-7.1,0-13.7,0-20.3,0L559.1,730.9z"/>
<path d="M398.9,490.9c13.1,0,26.3,0,39.7,0c0,6.6,0,13,0,19.8c-6.3,0-12.6,0-19.4,0c0,6.7,0,13.1,0,19.9c-13.6,0-26.6,0-40,0
	c0-6.3,0-12.6,0-19.4c6.3,0,12.7,0,19.8,0c0-7.1,0-13.7,0-20.3C399.1,490.8,398.9,490.9,398.9,490.9z"/>
<path d="M978.9,591c13.4,0.1,26.9,0.1,40.3,0.2l-0.2-0.1c0,13.1,0,26.2,0,39.6c-6.8,0-13.1,0-19.9,0c0-6.3,0-12.7,0-19.8
	c-7.1,0-13.7,0-20.3,0l0.1,0.1C978.9,604.3,978.9,597.6,978.9,591L978.9,591z"/>
<path d="M658.9,710.8c0,6.5,0,12.9,0,19.9c-6.6,0-13,0-19.7,0c0,6.8,0,13.1,0,19.7c-6.7,0-13.1,0-19.9,0c0-12.9,0-25.9,0-39.5
	c13.2,0,26.5,0,39.7,0C659.1,710.9,658.9,710.8,658.9,710.8z"/>
<path d="M398.9,330.8c0,19.8,0,39.6,0,59.7c-6.5,0-12.9,0-19.6,0c0-19.6,0-39.3,0-59.6c6.6,0,13.2,0,19.7,0
	C399.1,330.9,398.9,330.8,398.9,330.8z"/>
<path d="M479.1,511c0-13.1,0-26.3,0-40c6.8,0,13.4,0,20,0l-0.1-0.1c0,6.6,0,13.2,0,20.2c7.1,0,13.4,0,20,0c0,7,0,13.4,0,19.9
	l0.1-0.1c-13.4,0-26.8,0-40.1,0L479.1,511z"/>
<path d="M978.9,370.8c0,6.5,0,12.9,0,20c-13.5,0-26.7,0-40,0l0.1,0.1c0-6.7,0-13.4,0-20.1l-0.1,0.1c13.4,0,26.8,0,40.1,0
	L978.9,370.8z"/>
<path d="M459.1,291c0-13.1,0-26.2,0-39.7c6.5,0,12.9,0,19.6,0c0,13,0,26,0,39.6c-6.6,0-13.2,0-19.7,0
	C458.9,290.8,459.1,291,459.1,291z"/>
<path d="M418.9,570.8c0,6.5,0,12.9,0,19.7c-13.2,0-26.2,0-39.6,0c0-6.3,0-12.7,0-19.6c13.3,0,26.5,0,39.7,0
	C419.1,570.9,418.9,570.8,418.9,570.8z"/>
<path d="M939.1,351c0-6.5,0-12.9,0-19.7c13.2,0,26.3,0,39.8,0c0,6.6,0,13.1,0,19.7l0.1-0.1c-13.4,0-26.8,0-40.1,0L939.1,351z"/>
<path d="M878.9,331c13.1,0,26.3,0,40,0c0,6.8,0,13.4,0,20l0.1-0.1c-13.4,0-26.8,0.1-40.1,0.1c0-6.7,0.1-13.4,0.1-20.1L878.9,331z"/>
<path d="M539.3,91.1c13.1,0,26,0,39.3,0c0,6.3,0,12.7,0,19.4c-13,0-26,0-39.3,0C539.3,104.1,539.3,97.7,539.3,91.1z"/>
<path d="M938.9,491c13.1,0,26.2,0,39.7,0c0,6.6,0,12.9,0,19.9c-13.2,0-26.5,0-39.7,0l0.1,0.1c0-6.7,0-13.4,0-20.1L938.9,491z"/>
<path d="M878.9,710.8c0,13.1,0,26.2,0,39.7c-6.5,0-12.9,0-19.6,0c0-13,0-26,0-39.6c6.6,0,13.2,0,19.7,0
	C879.1,710.9,878.9,710.8,878.9,710.8z"/>
<path d="M938.9,410.9c6.4,0,12.9,0,19.9,0c0,6.8,0,13.5,0,20.2l0.1-0.2c-6.4,0-12.9,0-19.9,0c0-7.1,0-13.6,0-20.2
	C939.1,410.8,938.9,410.9,938.9,410.9z"/>
<path d="M978.9,351c6.5,0,12.9,0,20,0c0,6.8,0,13.4,0,20l0.1-0.1c-6.7,0-13.4,0-20.1,0l0.1,0.1c0-6.7,0-13.4,0-20.1L978.9,351z"/>
<path d="M539.1,351c0-6.5,0-12.9,0-20c6.8,0,13.4,0,20,0l-0.1-0.1c0,6.7,0,13.4,0,20.1l0.1-0.1c-6.7,0-13.4,0-20.1,0L539.1,351z"/>
<path d="M859.1,110.8c-6.5,0-12.9,0-19.7,0c0-6.5,0-12.9,0-19.6c6.3,0,12.7,0,19.6,0c0,6.6,0,13.2,0,19.7
	C858.9,111,859.1,110.8,859.1,110.8z"/>
<path d="M1019.1,490.8c-6.4,0-12.9,0-19.7,0c0-6.5,0-12.9,0-19.6c6.3,0,12.7,0,19.6,0c0,6.6,0,13.2,0,19.7L1019.1,490.8z"/>
<path d="M1018.9,490.9c6.4,0,12.9,0,19.7,0c0,6.5,0,12.8,0,19.7c-6.5,0-13.2,0-19.9,0l0.2,0.1c0.1-6.7,0.1-13.3,0.2-20
	C1019.1,490.8,1018.9,490.9,1018.9,490.9z"/>
<path d="M539.1,530.8c-6.7,0-13.4,0-20.2,0l0.1,0.1c0-6.7,0-13.4,0-20.1l-0.1,0.1c6.7,0,13.4,0,20.1,0l-0.1-0.1c0,6.7,0,13.4,0,20.1
	L539.1,530.8z"/>
<path d="M858.9,230.8c0,6.7,0,13.4,0,20.2l0.1-0.1c-6.7,0-13.4,0.1-20.1,0.1c0-6.7,0-13.4,0-20.2c6.7,0,13.4,0.1,20.1,0.1
	L858.9,230.8z"/>
<path d="M938.9,510.8c0,6.5,0,12.9,0,19.7c-6.6,0-12.9,0-19.9,0c0-6.6,0-13.1,0-19.7l-0.1,0.1c6.7,0,13.4,0,20.1,0L938.9,510.8z"/>
<path d="M1038.8,251.1c0,6.6,0,12.8,0,19.4c-6.5,0-12.9,0-19.5,0c0-6.4,0-12.8,0-19.4C1025.7,251.1,1032,251.1,1038.8,251.1z"/>
<path d="M959.2,550.5c0-6.5,0-12.8,0-19.3c6.6,0,12.9,0,19.6,0c0,6.4,0,12.7,0,19.3C972.4,550.5,966.1,550.5,959.2,550.5z"/>
<path d="M518.7,590.7c-6.5,0-12.7,0-19.3,0c0-6.4,0-12.7,0-19.4c6.3,0,12.7,0,19.3,0C518.7,577.7,518.7,584,518.7,590.7z"/>
<path d="M518.9,290.8c0,6.5,0,12.9,0,19.7c-6.5,0-12.9,0-19.6,0c0-6.3,0-12.7,0-19.6c6.6,0,13.2,0,19.7,0
	C519.1,290.9,518.9,290.8,518.9,290.8z"/>
<path d="M559.1,310.8c-6.5,0-12.9,0-20,0c0-6.8,0-13.4,0-20l-0.1,0.1c6.6,0,13.2,0,20,0c0,7.1,0,13.5,0,20L559.1,310.8z"/>
<path d="M998.9,290.9c6.5,0,12.9,0,20,0c0,6.8,0,13.4,0,20l0.1-0.1c-6.5,0-12.9,0-20,0c0-6.8,0-13.4,0-20
	C999.1,290.8,998.9,290.9,998.9,290.9z"/>
<path d="M878.9,310.8c0,6.7,0,13.4,0,20.2l0.1-0.1c-6.7,0-13.4,0.1-20.1,0.1c0-6.7,0-13.4,0-20.2c6.7,0,13.4,0.1,20.1,0.1
	L878.9,310.8z"/>
<path d="M918.9,351c6.7,0,13.4,0,20.2,0l-0.1-0.1c0,6.7,0,13.4,0,20.1l0.1-0.1c-6.7,0-13.4,0-20.1,0l0.1,0.1c0-6.7,0-13.4,0-20.1
	L918.9,351z"/>
<path d="M1018.9,310.9c6.5,0,12.9,0,19.7,0c0,6.5,0,12.9,0,19.6c-6.3,0-12.7,0-19.6,0c0-6.6,0-13.2,0-19.7
	C1019.1,310.8,1018.9,310.9,1018.9,310.9z"/>
<path d="M998.9,370.9c6.5,0,12.9,0,19.7,0c0,6.5,0,12.9,0,19.6c-6.3,0-12.7,0-19.6,0c0-6.6,0-13.2,0-19.7
	C999.1,370.8,998.9,370.9,998.9,370.9z"/>
<path d="M519.1,350.8c-6.5,0-12.9,0-19.7,0c0-6.5,0-12.9,0-19.6c6.3,0,12.7,0,19.6,0c0,6.6,0,13.2,0,19.8
	C518.9,351,519.1,350.8,519.1,350.8z"/>
<path d="M978.9,671c6.5,0,12.9,0,19.7,0c0,6.6,0,12.9,0,19.9c-6.6,0-13.1,0-19.7,0l0.1,0.1C979,684.3,979,677.6,978.9,671L978.9,671
	z"/>
<path d="M558.9,730.8c0,6.5,0,12.9,0,19.7c-6.5,0-12.9,0-19.6,0c0-6.3,0-12.7,0-19.6c6.6,0,13.2,0,19.7,0
	C559.1,730.9,558.9,730.8,558.9,730.8z"/>
<path d="M918.7,750.7c-6.5,0-12.8,0-19.4,0c0-6.4,0-12.8,0-19.5c6.4,0,12.7,0,19.4,0C918.7,737.6,918.7,743.8,918.7,750.7z"/>
<path d="M1038.7,750.7c-6.5,0-12.7,0-19.3,0c0-6.4,0-12.7,0-19.4c6.3,0,12.7,0,19.3,0C1038.7,737.7,1038.7,744,1038.7,750.7z"/>
<path d="M718.9,430.8c0,13.1,0,26.2,0,39.9c6.7,0,13.1,0,20.1,0c0,7.1,0,13.7,0,20.3c-13.1,0-26.2,0-39.9,0c0-6.7,0-13.1,0-20
	c-7.1,0-13.7,0-20.3,0c0-13.4,0.1-26.8,0.1-40.1l-0.1,0.1c13.4,0,26.8,0,40.1,0L718.9,430.8z"/>
<path d="M618.9,530.8c6.5,0,12.9,0,20,0c0-6.8,0-13.4,0-20c6.5,0,12.9,0,19.7,0c0,13.4,0,26.4,0,39.9c-6.3,0-12.6,0-19.4,0
	c0,13.4,0,26.4,0,39.8c-6.9,0-13.3,0-20.4,0C618.9,570.6,618.9,550.7,618.9,530.8z"/>
<path d="M639.1,631c-13.4,0-26.8,0-40.1,0c0-6.5,0-12.9,0-19.7c13.4,0,26.4,0,40.1,0C639.1,617.8,639.1,624.4,639.1,631z"/>
<path d="M638.9,491c0-6.5,0-12.9,0-20.1c13.6,0,26.9,0,40.1,0c0,6.5,0,12.9,0,20.1C665.4,491,652.2,491,638.9,491z"/>
<path d="M639.1,511c-6.7,0-13.4,0-20.1,0c0-6.5,0-12.9,0-20.1c7,0,13.5,0,20.1,0C639.1,497.5,639.1,504.2,639.1,511z"/>
<path d="M638.9,410.8c6.5,0,12.9,0,20,0c0-6.8,0-13.4,0-20c6.5,0,12.9,0,20,0c0-6.8,0-13.4,0-20c6.5,0,12.9,0,19.9,0
	c0,6.7,0,13.1,0,19.8c13.5,0,26.5,0,40.3,0c0-6.6,0-13.2,0-19.7L739,371c6.6,0,13.2,0,20,0c0,13.7,0,26.9,0,40l0.1-0.1
	c-6.6,0-13.2,0-20.1,0c0,7.2,0,13.7,0,20.1l0.1-0.1c-6.7,0-13.4,0-20.1,0l0.1,0.1c0-6.6,0-13.2,0-19.7c-13.7,0-26.8,0-40.1,0
	c0,6.8,0,13.3,0,19.7l0.1-0.1c-6.5,0-12.9,0-19.9,0c0,6.7,0,13.1,0,19.7c-6.9,0-13.3,0-20.3,0C638.9,437.3,638.9,424,638.9,410.8z"
	/>
<path d="M819.1,511c-6.7,0-13.4,0-20.1,0c0-6.5,0-12.9,0-20c-13.5,0-26.7,0-40,0c0-6.5,0-12.9,0-19.9c6.7,0,13.1,0,20,0
	c0-6.9,0-13.3,0-19.9c13.5,0,26.4,0,39.8,0c0,6.3,0,12.7,0,19.7c7.1,0,13.7,0,20.3,0c0,6.5,0,12.9,0,19.9c-6.7,0-13.1,0-20,0
	C819.1,497.8,819.1,504.4,819.1,511z"/>
<path d="M819.1,671c-6.7,0-13.4,0-20.1,0c0-6.5,0-12.9,0-19.9c-13.2,0-26.3,0-40,0c0-7.1,0-13.7,0-20.2c6.5,0,12.9,0,19.9,0
	c0-6.6,0-13,0-20c20.4,0,40.3,0,60.2,0c0,6.5,0,12.9,0,19.9c-6.7,0-13.1,0-20,0C819.1,644.5,819.1,657.7,819.1,671z"/>
<path d="M798.9,530.8c6.7,0,13.4,0,20.1,0c0,13.1,0,26.3,0,40c6.8,0,13.4,0,20,0c0,6.7,0,13.4,0,20.1c-19.8,0-39.5,0-59.7,0
	c0-6.6,0-13,0-19.9c6.3,0,12.6,0,19.5,0C798.9,557.3,798.9,544.1,798.9,530.8z"/>
<path d="M799.1,510.8c0,6.7,0,13.4,0,20.1c-6.5,0-12.9,0-19.7,0c0-6.7,0-13.1,0-20.1C785.9,510.8,792.5,510.8,799.1,510.8z"/>
<path d="M838.9,410.8c0,6.7,0.1,13.4,0.1,20.1c-26.7,0-53.4-0.1-80.1-0.1l0.1,0.1c0-6.7,0-13.4,0-20.1l-0.1,0.1c6.6,0,13.2,0,20.2,0
	c0-20.4,0-40.1,0-60c7,0,13.4,0,19.9,0l-0.1-0.1c0,13.3,0,26.5,0,40.1c7.2,0,13.7,0,20.1,0l-0.1-0.1c0,6.6,0,13.2,0,20.1
	c7.2,0,13.7,0,20.1,0L838.9,410.8z"/>
<path d="M758.9,430.8c0,6.5,0,12.9,0,19.7c-6.6,0-12.9,0-19.9,0c0-6.6,0-13.1,0-19.7l-0.1,0.1c6.7,0,13.4,0,20.1,0L758.9,430.8z"/>
<path d="M638.9,190.8c20,0,40.1,0.1,60.1,0.1l-0.1-0.1c0,6.7,0,13.4,0,20.1l0.1-0.1c-6.5,0-12.9,0-20,0c0,13.6,0,26.9,0,40.1
	c-6.5,0-12.9,0-19.9,0c0-13.4,0-26.4,0-40.2c-7.1,0-13.7,0-20.2,0l0.1,0.1C639,204.2,639,197.5,638.9,190.8z"/>
<path d="M638.9,210.8c0,6.5,0,12.9,0,19.7c-6.5,0-12.9,0-19.6,0c0-6.3,0-12.7,0-19.6c6.6,0,13.2,0,19.8,0
	C639.1,210.9,638.9,210.8,638.9,210.8z"/>
<path d="M718.9,290.8c6.7,0,13.4,0.1,20.1,0.1l-0.1-0.1c0,13.3,0,26.5,0,40c7.2,0,13.7,0,20.1,0c0,6.6,0,13.2,0,20.2
	c-7.1,0-13.4,0-20.1,0c0,7,0,13.4,0,19.9l0.1-0.1c-6.5,0-12.9,0-19.9,0c0-6.6,0-13,0-19.9c-13.8,0-27,0-40.2,0c0-6.5,0-12.9,0-19.9
	c13.4,0,26.4,0,40,0C718.9,317.3,718.9,304.1,718.9,290.8z"/>
<path d="M859.1,311c-13.1,0-26.3,0-40.1,0c0,13.5,0,26.7,0,40l0.1-0.1c-6.7,0-13.4,0-20.1,0l0.1,0.1c0-13.3,0-26.5,0-40
	c-7.2,0-13.7,0-20.1,0c0-13.3,0-26.5,0-40.1c-7.1,0-13.5,0-20,0l0.1,0.1c0-6.6,0-13.2,0-19.7c-7.1,0-13.4,0-20.1,0
	c0,6.8,0,13.3,0,19.7l0.1-0.1c-6.7,0-13.4,0.1-20.1,0.1c0-13.4,0.1-26.8,0.1-40.1L719,231c6.6,0,13.2,0,19.7,0c0-7.1,0-13.4,0-20.1
	c-6.8,0-13.3,0-19.7,0l0.1,0.1c0-6.7,0-13.4,0-20.1L719,191c20,0,40.1-0.1,60.1-0.1c0,6.7,0,13.4,0,20.1c-6.6,0-13.1,0-19.8,0
	c0,6.9,0,13.3,0,19.6c6.7,0,13.1,0,19.6,0c0-6.8,0-13.3,0-19.7c6.5,0,12.9,0,19.9,0c0,6.7,0,13.1,0,20c7.1,0,13.7,0,20.2,0
	c0,6.5,0,12.9,0,20c6.8,0,13.4,0,20,0c0,6.7,0,13.4,0,20.1c-13.2,0-26.5,0-39.7,0c0,6.9,0,13.3,0,19.6c13.4,0,26.4,0,39.6,0
	c0-6.8,0-13.3,0-19.7c6.7,0,13.4,0,20.1,0C859.1,284.2,859.1,297.6,859.1,311z"/>
<path d="M719.1,230.8c-6.5,0-12.9,0-20,0c0-6.8,0-13.4,0-20l-0.1,0.1c6.7,0,13.4,0,20.1,0l-0.1-0.1c0,6.7,0,13.4,0,20.1L719.1,230.8
	z"/>
<path d="M739.1,291c0-6.7,0-13.4,0-20.2l-0.1,0.1c6.7,0,13.4,0,20.1,0l-0.1-0.1c0,6.6,0,13.2,0,20c-7.1,0-13.5,0-20,0L739.1,291z"/>
<path d="M918.6,630.7c-6.5,0-12.7,0-19.3,0c0-6.5,0-12.9,0-19.5c6.4,0,12.6,0,19.3,0C918.6,617.4,918.6,623.8,918.6,630.7z"/>
<path d="M839.1,231c-6.7,0-13.4,0-20.1,0c0-6.5,0-12.9,0-19.7c6.7,0,13.1,0,20.1,0C839.1,217.8,839.1,224.4,839.1,231z"/>
<path d="M678.9,150.8c13.4,0,26.8,0,40.1,0c0,13.4-0.1,26.8-0.1,40.1l0.1-0.1c-6.7,0-13.4,0-20.1,0l0.1,0.1c0-6.5,0-12.9,0-19.9
	c-6.7,0-13.1,0-20.1,0C678.9,164,678.9,157.4,678.9,150.8z"/>
<path d="M718.9,151c0-6.5,0-12.9,0-20.1c7,0,13.5,0,20.1,0c0,6.5,0,12.9,0,20.1C732.1,151,725.5,151,718.9,151z"/>
<path d="M419.2,190.5c0-19.9,0-39.5,0-59.4c19.8,0,39.4,0,59.4,0c0,19.6,0,39.3,0,59.4C459,190.5,439.3,190.5,419.2,190.5z"/>
<path d="M419.4,651.1c20,0,39.5,0,59.4,0c0,19.8,0,39.4,0,59.4c-19.6,0-39.3,0-59.4,0C419.4,690.9,419.4,671.2,419.4,651.1z"/>
<path d="M939.4,131.1c19.9,0,39.5,0,59.4,0c0,19.8,0,39.4,0,59.4c-19.6,0-39.3,0-59.4,0C939.4,170.9,939.4,151.2,939.4,131.1z"/>
<path d="M818.9,351c6.5,0,12.9,0,19.9,0c0-6.7,0-13.1,0-20.1c7.1,0,13.7,0,20.2,0c0,6.5,0,12.9,0,20c6.8,0,13.4,0,20,0
	c0,6.7,0,13.4,0,20.1c-6.5,0-12.9,0-20,0c0,13.5,0,26.7,0,40c-6.7,0-13.4-0.1-20.1-0.1l0.1,0.1c0-6.6,0-13.2,0-20.1
	c-7.2,0-13.7,0-20.1,0l0.1,0.1c0-13.4,0-26.8,0-40.1L818.9,351z"/>
<path d="M758.9,331c0-6.5,0-12.9,0-20.1c7,0,13.5,0,20.1,0c0,6.5,0,12.9,0,20.1C772.1,331,765.5,331,758.9,331z"/>
</svg>
