<?xml version="1.0" encoding="utf-8"?>
<!-- Generator: Adobe Illustrator 26.0.0, SVG Export Plug-In . SVG Version: 6.00 Build 0)  -->
<svg version="1.1" id="Capa_1" xmlns="http://www.w3.org/2000/svg" xmlns:xlink="http://www.w3.org/1999/xlink" x="0px" y="0px"
	 viewBox="0 0 1417.3 841.9" style="enable-background:new 0 0 1417.3 841.9;" xml:space="preserve">
<path d="M673.9,639c7.5,0,14.9,0,22.7,0c0-23.1,0-45.8,0-69c-15.1,0-30.1,0-45.5,0c0-15.5,0-30.4,0-45.7c-15.4,0-30.4,0-46.2,0
	c0,7.5,0,15.1,0,22.7l0.1-0.1c-7.7,0-15.4,0-23.1,0l0.1,0.1c0-15.4-0.1-30.8-0.1-46.1c15.2,0,30.5,0,45.7,0c0-7.9,0-15.3,0-22.9
	c-15.5,0-30.6,0-45.7,0c0-15.4,0-30.8,0-46.1c7.6,0,15.2,0,23.3,0c0,8.1,0,15.5,0,23.4c15.6,0,30.6,0,46,0c0,7.8,0,15,0,22.4
	c15.4,0,30.4,0,46,0c0-7.7,0-15.1,0-22.8c8,0,15.5,0,22.9,0c0,15.4,0,30.8,0,46.2c-15.3,0-30.5,0-45.7,0c0,15.6,0,30.7,0,45.7
	c7.7,0,14.9,0,22.7,0c0-7.7,0-15,0-22.8c8,0,15.5,0,23,0c0,7.6,0,15.2,0,22.7c23.3,0,46,0,68.7,0c0-7.7,0-14.9,0-22.7
	c-7.7,0-15,0-22.8,0c0-8,0-15.5,0-23c15.2,0,30.5,0,45.7,0c0-8,0-15.3,0-23.1c-7.6,0-14.9,0-22.3,0c0-7.7,0-15.1,0-23
	c7.7,0,15.1,0,22.3,0c0-15.6,0-30.6,0-45.5c-7.7,0-14.9,0-22.7,0c0,7.7,0,15.1,0,22.8c-15.7,0-30.8,0-45.9,0c0-15.3,0-30.5,0-46.1
	c-8.1,0-15.5,0-23,0l0.1,0.1c0-7.6,0-15.2,0-23.3c8,0,15.4,0,22.7,0c0-7.8,0-15.1,0-22.9c-7.6,0-15,0-22.4,0c0-7.9,0-15.3,0-23.2
	c7.7,0,15.1,0,22.8,0c0-7.8,0-15.1,0-22.9c7.7,0,15.1,0,22.9,0c0-8,0-15.5,0-22.9l-0.1,0.1c7.6,0,15.2,0,23.2,0c0,7.9,0,15.3,0,22.5
	c7.9,0,15.3,0,22.9,0c0-15.5,0-30.6,0-45.7l-0.1,0.1c7.6,0,15.2,0,23.1,0c0-15.9,0-31,0-46.1l-0.1,0.1c7.5,0,14.9,0,23,0
	c0,23.2,0,46.1,0,69l0.1-0.1c-7.6,0-15.2,0-23.1,0c0,15.9,0,31,0,46.1l0.1-0.1c-22.9,0-45.8,0-68.8,0c0,8,0,15.4,0,23.2
	c15.3,0,30.4,0,45.8,0c0,8,0,15.4,0,22.9c-15.2,0-30.5,0-45.7,0c0,7.9,0,15.3,0,22.6c15.4,0,30.4,0,45.6,0c0-7.8,0-15.3,0-22.7
	c7.6,0,15.2,0,23.3,0c0,15.8,0,30.8,0,45.8c15.5,0,30.4,0,45.5,0c0-15.3,0-30.3,0-45.9c-7.7,0-15,0-22.6,0c0-8,0-15.5,0-22.9
	l-0.1,0.1c15.1,0,30.3,0,45.9,0c0-15.4,0-30.4,0-46c7.9,0,15.3,0,23,0c0-7.8,0-15.1,0-22.7c7.7,0,15.1,0,23,0c0,22.9,0,45.8,0,68.7
	l0.1-0.1c-7.5,0-14.9,0-22.7,0c0,15.5,0,30.5,0,45.8c30.4,0,60.6,0,91.4,0c0-15,0-30,0-45.4c7.9,0,15.3,0,23,0c0,38,0,75.9,0,114.3
	c-7.3,0-14.7,0-22.6,0c0-14.9,0-30,0-45.3c-7.8,0-15.1,0-22.9,0c0,14.9,0,30,0,45.6c-8.1,0-15.7,0-23.3,0l0.1,0.1
	c0-15.2,0-30.5,0-45.7c-8.1,0-15.4,0-23.1,0c0,15.5,0,30.6,0,45.7l0.1-0.1c-15.3,0-30.5,0-46.2,0c0-8,0-15.5,0-23
	c7.6,0,15.1,0,22.8,0c0-7.9,0-15.3,0-22.6c-7.7,0-15.1,0-22.6,0c0,7.8,0,15.3,0,22.7c-22.9,0-45.8,0-68.7,0c0,7.9,0,15.3,0,23
	c15.3,0,30.2,0,45.3,0c0,7.7,0,15.1,0,23c-15.3,0-30.4,0-45.8,0c0,23.3,0,46.1,0,68.9l0.1-0.1c-7.6,0-15.2,0-23.3,0
	c0,8.1,0,15.5,0,23.4c-30.9,0-61.3,0-91.5,0c0,15.4,0,30.4,0,45.8c7.7,0,15,0,22.7,0c0,8,0,15.5,0,22.9l0.1-0.1
	c-7.5,0-14.9,0-22.9,0c0,7.7,0,15.1,0,23c-15.8,0-31,0-46.2,0l0.1,0.1c0-7.7,0-15.4,0-23.1L673.9,639z"/>
<path d="M972.9,500.8c0,7.5,0,14.9,0,23c7.8,0,15.2,0,22.9,0c0,7.8,0,15.1,0,22.9c7.7,0,15.1,0,22.8,0c0,7.9,0,15.3,0,23.1
	c-15,0-30,0-45.4,0c0,15.4,0,30.5,0,46c-7.9,0-15.3,0-23,0c0,7.8,0,15.1,0,22.9c7.3,0,14.7,0,22.4,0c0,7.9,0,15.3,0,23
	c-30.4,0-60.6,0-91.6,0c0,15.6,0,30.8,0,46.1l0.1-0.2c-15.2,0-30.5,0-46,0c0-7.4,0-14.7,0-22.5c7.3,0,14.7,0,22.4,0
	c0-7.9,0-15.3,0-23.3c-23,0-45.8,0-68.7,0l0.1,0.1c0-7.6,0-15.2,0-23.1c-8.2,0-15.7,0-23.1,0l0.1,0.1c0-15.2,0-30.5,0-46.2
	c23.3,0,46,0,69,0c0-15.6,0-30.8,0-45.9l-0.1,0.1c15.2,0,30.5,0,46.3,0c0-8.1,0-15.5,0-22.8c7.8,0,15.1,0,22.9,0c0,7.6,0,15,0,22.4
	c15.6,0,30.6,0,45.5,0c0-7.7,0-15.1,0-22.9c-7.7,0-14.9,0-22.3,0c0-15.4,0-30.4,0-45.7c7.8,0,15.3,0,22.7,0l-0.1-0.1
	c0,7.6,0,15.2,0,23.1C958,500.9,965.5,500.9,972.9,500.8L972.9,500.8z M926.8,570.2c-23.1,0-45.8,0-68.4,0c0,23.1,0,45.8,0,68.4
	c23,0,45.6,0,68.4,0C926.8,615.8,926.8,593.2,926.8,570.2z"/>
<path d="M375.2,247.5c0-53.6,0-106.9,0-160.4c53.5,0,106.7,0,160.4,0c0,53.3,0,106.7,0,160.4C482.4,247.5,429,247.5,375.2,247.5z
	 M512.8,110.2c-38.4,0-76.5,0-114.4,0c0,38.4,0,76.4,0,114.4c38.3,0,76.2,0,114.4,0C512.8,186.4,512.8,148.5,512.8,110.2z"/>
<path d="M1041.6,247.7c-53.6,0-106.8,0-160.4,0c0-53.5,0-106.7,0-160.4c53.3,0,106.6,0,160.4,0
	C1041.6,140.5,1041.6,193.9,1041.6,247.7z M904.4,110.1c0,38.5,0,76.5,0,114.4c38.4,0,76.4,0,114.4,0c0-38.3,0-76.2,0-114.4
	C980.5,110.1,942.6,110.1,904.4,110.1z"/>
<path d="M535.8,593.3c0,53.6,0,106.8,0,160.4c-53.5,0-106.7,0-160.4,0c0-53.3,0-106.6,0-160.4C428.6,593.3,482,593.3,535.8,593.3z
	 M512.8,616.2c-38.4,0-76.5,0-114.4,0c0,38.4,0,76.4,0,114.4c38.3,0,76.2,0,114.4,0C512.8,692.4,512.8,654.5,512.8,616.2z"/>
<path d="M444.1,340c0-7.5,0-14.9,0-23.2c-15.6,0-30.9,0-46.1,0l0.1,0.1c0-7.7,0-15.4,0-23.1l-0.1,0.1c15.1,0,30.2,0,45.9,0
	c0-7.7,0-15.1,0-23.2c46.4,0,92.2,0,138.1,0l-0.2-0.1c0,7.5,0,14.9,0,22.9c-7.2,0-14.6,0-22.4,0c0,7.9,0,15.3,0,23.2
	c7.3,0,14.7,0,22.6,0c0,23.4,0,46.3,0,69.2l0.1-0.1c-7.6,0-15.2,0-23,0c0,8.2,0,15.7,0,23.1c-7.7,0-15.4,0-23.1,0
	c0-7.6,0-15.2,0-23.3c-7.9,0-15.3,0-22.5,0c0-7.9,0-15.3,0-23c7.7,0,14.9,0,22.3,0c0-7.7,0-15.1,0-23c-15.3,0-30.4,0-45.8,0
	c0-8,0-15.4,0-22.9c15.2,0,30.5,0,45.7,0c0-7.9,0-15.3,0-22.6c-15.4,0-30.4,0-45.6,0c0,7.8,0,15.3,0,22.7c-7.6,0-15.2,0-23.2,0
	c0,7.9,0,15.3,0,22.8c-8,0-15.4,0-22.9,0L444.1,340z"/>
<path d="M673.9,248c7.7,0,15.4,0,23.1,0l-0.1-0.1c0,45.9,0,91.8,0,138.1c8.2,0,15.7,0,23.1,0l-0.1-0.1c0,7.6,0,15.2,0,23.3
	c-8,0-15.4,0-23.1,0c0,7.8,0,15.1,0,22.4c-23.1,0-45.8,0-68.4,0c0-7.7,0-15.1,0-22.8c7.7,0,14.9,0,22.3,0c0-7.8,0-15.1,0-22.9
	c-15.5,0-30.6,0-45.7,0l0.1,0.1c0-15.1,0-30.3,0-46c7.6,0,15,0,22.7,0c0-7.8,0-15.1,0-22.9c-7.3,0-14.7,0-22.4,0
	c0-7.9,0-15.3,0-23.1c7.4,0,14.6,0,22.5,0c0-7.7,0-15.1,0-22.8c7.9,0,15.3,0,23.1,0c0,30.4,0,60.7,0,91.3c7.7,0,15.1,0,23.2,0
	c0-38.2,0-76.4,0-114.7L673.9,248z"/>
<path d="M788.7,155.7c0.1,7.8,0.2,15.5,0.4,23.3c-7.6,0-15.1,0-22.8,0c0,7.9,0,15.3,0,22.6c7.7,0,15.1,0,22.6,0c0-7.8,0-15.3,0-22.7
	c15.1,0,30.3,0,46,0c0,8,0,15.6,0,23.2l0.1-0.1c-7.6,0-15.2,0-23.1,0c0,15.9,0,31,0,46.1l0.1-0.1c-7.6,0-15.2,0-23.2,0
	c0-7.9,0-15.3,0-22.5c-7.9,0-15.3,0-22.9,0c0,15.5,0,30.6,0,45.7l0.1-0.1c-15.3,0-30.5,0-46,0c0-8.1,0-15.5,0-23l-0.1,0.1
	c7.6,0,15.2,0,22.7,0c0-8.1,0-15.4,0-23.1c-7.8,0-15.3,0-22.7,0l0.1,0.1c0-7.5,0-14.9,0-22.9c-7.8,0-15.1,0-22.8,0
	c0-7.8,0-15.1,0-22.9c14.9,0,30,0,45.4,0c0-7.9,0-15.3,0-23.2c-7.4,0-14.8,0-22.4,0c0-7.8,0-15.1,0-22.9c7.4,0,14.8,0,22.5,0
	c0-7.9,0-15.3,0-23c-7.4,0-14.7,0-22.3,0c0-7.7,0-15.1,0-22.8c15,0,30.1,0,45.5,0c0,22.7,0,45.3,0,68.6c7.9,0,15.5,0,23.1,0
	C788.9,155.8,788.7,155.7,788.7,155.7z"/>
<path d="M513.1,547c-7.5,0-14.9,0-23,0c0-15.7,0-30.9,0-46.2l-0.1,0.1c23,0,46.1-0.1,69.1-0.1c0,15.3,0,30.5,0,46.1
	c8.1,0,15.5,0,23,0l-0.1-0.1c0,7.6,0,15.2,0,22.7c8.1,0,15.4,0,23.1,0c0-7.8,0-15.3,0-22.7l-0.1,0.1c7.5,0,14.9,0,22.7,0
	c0,15.3,0,30.4,0,45.8c-7.4,0-14.7,0-22.5,0c0,7.7,0,15.1,0,23.1c-7.9,0-15.3,0-23.1,0c0,23.1,0,45.8,0,68.7c-7.8,0-15.1,0-22.9,0
	c0-38,0-75.9,0-114.4c-15.4,0-30.5,0-46.3,0c0-8.1,0-15.7,0-23.3c7.6,0,15.1,0,22.7,0c0-7.9,0-15.3,0-22.6c-7.7,0-15.1,0-22.6,0
	C513.1,532.1,513.1,539.5,513.1,547z"/>
<path d="M582.1,225c0-7.7,0-15.4,0-23.1L582,202c7.6,0,15.2,0,22.7,0c0-8.1,0-15.4,0-23.1c-7.8,0-15.3,0-22.7,0l0.1,0.1
	c0-7.5,0-14.9,0-23c-7.8,0-15.2,0-22.8,0c0-23.1,0-45.7,0-68.7c15,0,30,0,45.7,0c0,7.5,0,15.1,0,22.7l0.1-0.1c-7.6,0-15.2,0-22.7,0
	c0,8.1,0,15.4,0,23.1c7.8,0,15.3,0,22.7,0l-0.1-0.1c0,7.6,0,15.2,0,23.1c8.2,0,15.7,0,23.1,0l-0.1-0.1c0,30.5,0,60.9,0,92
	c-7.8,0-15.4,0-23,0l0.1,0.1c0-7.6,0-15.2,0-23.1c-8.2,0-15.7,0-23.1,0L582.1,225z"/>
<path d="M444,523.8c0,8,0,15.2,0,22.9c7.6,0,14.9,0,22.7,0c0,7.9,0,15.3,0,23c-30.4,0-60.8,0-91.4,0c0-38.1,0-76,0-114.3
	c7.3,0,14.7,0,22.6,0c0,15,0,30,0,45.4c7.8,0,15.1,0,22.9,0c0,7.7,0,15.1,0,23.1C428.7,523.8,436.1,523.8,444,523.8z"/>
<path d="M467.1,408.8c-7.5,0-14.9,0-22.9,0c0,7.8,0,15.1,0,22.8c-7.8,0-15.1,0-22.9,0c0-7.3,0-14.6,0-22.4c-7.9,0-15.3,0-23,0
	c0,7.3,0,14.6,0,22.2c-7.7,0-15.1,0-22.9,0c0-22.5,0-45.2,0-68.5c15.2,0,30.5,0,45.7,0l-0.1-0.1c0,7.6,0,15.2,0,22.7
	c8.1,0,15.4,0,23.1,0c0-7.8,0-15.3,0-22.7l-0.1,0.1c15.2,0,30.4,0,45.8,0c0,7.9,0,15.2,0,23.1c-7.7,0-15.1,0-22.8,0
	c0,8,0,15.4,0,22.9L467.1,408.8z"/>
<path d="M673.9,661.8c0,15.1,0,30.3,0,46c7.7,0,15.1,0,22.8,0c0,7.8,0,15.1,0,22.9c-7.3,0-14.7,0-22.6,0c0,7.9,0,15.3,0,23
	c-38.5,0-76.4,0-114.7,0c0-7.3,0-14.7,0-22.6c22.6,0,45.3,0,68.4,0c0-7.8,0-15.1,0-22.9c7.7,0,15.1,0,23.3,0c0-15.8,0-31.1,0-46.3
	L651,662c7.7,0,15.4,0,23.1,0L673.9,661.8z"/>
<path d="M490.1,500.8c-7.5,0-14.9,0-22.9,0c0-7.6,0-15,0-22.9c-15.6,0-30.6,0-45.9,0c0-7.8,0-15,0-22.8c15,0,30.1,0,45.8,0
	c0-15.8,0-31,0-46.3l-0.1,0.1c7.6,0,15.2,0,23.2,0c0,7.9,0,15.3,0,22.9c8,0,15.4,0,22.9,0c0,7.6,0,15.2,0,23c8.1,0,15.5,0,23,0
	c0,7.6,0,15.2,0,23.2c-15.7,0-30.8,0-46.1,0c0,8,0,15.4,0,22.9L490.1,500.8z"/>
<path d="M949.9,708c7.5,0,14.9,0,23,0c0-7.8,0-15.2,0-22.9c7.8,0,15.1,0,22.9,0c0-7.7,0-15.1,0-22.8c7.9,0,15.3,0,23.1,0
	c0,7.4,0,14.7,0,22.5c7.7,0,15.1,0,22.8,0c0,15.6,0,30.6,0,45.9c-7.5,0-14.7,0-22.6,0c0-7.4,0-14.8,0-22.5c-7.8,0-15.1,0-22.9,0
	c0,7.3,0,14.7,0,22.6c-15.8,0-31.1,0-46.3,0l0.1,0.1c0-7.7,0-15.4,0-23.1L949.9,708z"/>
<path d="M973.3,340.1c0-22.8,0-45.6,0-68.8c22.6,0,45.3,0,68.4,0c0,7.2,0,14.6,0,22.4c-7.3,0-14.6,0-22.4,0c0,7.7,0,15.1,0,23.1
	c-7.9,0-15.3,0-23.1,0c0,7.8,0,15.1,0,23.2c-7.9,0-15.5,0-23.1,0L973.3,340.1z"/>
<path d="M927.1,730.8c-7.5,0-14.9,0-22.9,0c0,7.7,0,15.1,0,22.8c-7.9,0-15.3,0-22.9,0c0-15.5,0-30.7,0-46l-0.1,0.2
	c7.5,0,14.9,0,22.7,0c0-7.6,0-14.8,0-22.5c15.4,0,30.5,0,46.1,0c0,7.5,0,15.1,0,22.7l0.1-0.1c-7.6,0-15.2,0-23.1,0
	c0,8.2,0,15.7,0,23.1L927.1,730.8z"/>
<path d="M811.9,110c7.5,0,14.9,0,22.9,0c0,7.6,0,15,0,22.9c7.9,0,15.3,0,22.9,0c0,7.8,0,15,0,22.8c-23,0-46,0-69,0l0.2,0.1
	c0-7.4,0-14.9,0-22.8c7.8,0,15.2,0,23.2,0c0-8.1,0-15.6,0-23.2L811.9,110z"/>
<path d="M651.1,661.8c-7.5,0-14.9,0-23,0c0,7.8,0,15.1,0,22.8c-7.8,0-15.1,0-22.7,0c0-15,0-30,0-45.7c15.2,0,30.4,0,45.7,0l-0.1-0.1
	C651,646.5,651,654.2,651.1,661.8L651.1,661.8z"/>
<path d="M604.9,110c15.4,0,30.8,0,46.1,0l-0.1-0.1c0,15.1,0,30.3,0,46c-7.8,0-15.4,0-23,0l0.1,0.1c0-7.6,0-15.2,0-23.1
	c-8.2,0-15.7,0-23.1,0l0.1,0.1C605,125.3,605,117.6,604.9,110L604.9,110z"/>
<path d="M789.2,753.6c0-7.7,0-14.9,0-22.4c22.8,0,45.4,0,68.4,0c0,7.3,0,14.7,0,22.4C835,753.6,812.3,753.6,789.2,753.6z"/>
<path d="M857.9,271c7.5,0,14.9,0,22.7,0c0,15.2,0,30.3,0,45.9c-7.6,0-15.1,0-22.7,0l0.1,0.1c0-15.4,0-30.8,0-46.1L857.9,271z"/>
<path d="M972.9,478c15.1,0,30.3,0,46,0c0,7.8,0,15.4,0,23l0.1-0.1c-15.4,0-30.8,0-46.1,0l0.1,0.1c0-7.7,0-15.4,0-23.1L972.9,478z"/>
<path d="M742.9,708c7.5,0,14.9,0,22.7,0c0,15.2,0,30.2,0,45.6c-7.3,0-14.7,0-22.6,0c0-15.3,0-30.5,0-45.7L742.9,708z"/>
<path d="M812.1,109.8c-7.5,0-14.9,0-22.7,0c0-7.5,0-14.9,0-22.6c7.3,0,14.7,0,22.6,0c0,7.6,0,15.2,0,22.7
	C811.9,110,812.1,109.8,812.1,109.8z"/>
<path d="M582.1,201.8c-7.5,0-14.9,0-22.7,0c0-7.6,0-14.9,0-22.9c7.6,0,15.1,0,22.7,0l-0.1-0.1c0,7.7,0,15.4,0,23.1L582.1,201.8z"/>
<path d="M972.9,454.8c0,7.7,0,15.4,0,23.2l0.1-0.1c-7.7,0-15.4,0-23.1,0l0.1,0.1c0-7.7,0-15.4,0-23.1l-0.1,0.1c7.7,0,15.4,0,23.1,0
	L972.9,454.8z"/>
<path d="M582.1,247.8c-7.5,0-14.9,0-22.7,0c0-7.6,0-14.9,0-22.9c7.6,0,15.1,0,22.7,0l-0.1-0.1c0,7.7,0,15.4,0,23.1L582.1,247.8z"/>
<path d="M674.1,247.8c-7.5,0-14.9,0-22.7,0c0-7.5,0-14.9,0-22.6c7.3,0,14.7,0,22.6,0c0,7.6,0,15.2,0,22.7
	C673.9,248,674.1,247.8,674.1,247.8z"/>
<path d="M697.1,248c0-7.5,0-14.9,0-23c7.8,0,15.4,0,23,0l-0.1-0.1c0,7.7,0,15.4,0,23.1l0.1-0.1c-7.7,0-15.4,0-23.1,0L697.1,248z"/>
<path d="M1018.9,500.9c7.5,0,14.9,0,22.7,0c0,7.5,0,14.9,0,22.6c-7.3,0-14.7,0-22.6,0c0-7.6,0-15.2,0-22.7
	C1019.1,500.8,1018.9,500.9,1018.9,500.9z"/>
<path d="M604.9,247.8c0,7.4,0,14.9,0,22.9c-7.8,0-15.5,0-23.2,0l0.2,0.1c0.1-7.7,0.1-15.3,0.2-23l-0.1,0.1c7.7,0,15.4,0,23.1,0
	L604.9,247.8z"/>
<path d="M398.1,293.8c-7.5,0-14.9,0-22.7,0c0-7.5,0-14.9,0-22.6c7.3,0,14.7,0,22.6,0c0,7.6,0,15.2,0,22.7
	C397.9,294,398.1,293.8,398.1,293.8z"/>
<path d="M397.9,316.8c0,7.5,0,14.9,0,22.7c-7.5,0-14.9,0-22.6,0c0-7.3,0-14.7,0-22.6c7.6,0,15.2,0,22.7,0
	C398.1,316.9,397.9,316.8,397.9,316.8z"/>
<path d="M421.1,363c0-7.5,0-14.9,0-23c7.8,0,15.4,0,23,0l-0.1-0.1c0,7.7,0,15.4,0,23.1l0.1-0.1c-7.7,0-15.4,0-23.1,0L421.1,363z"/>
<path d="M949.9,339.9c7.8,0.1,15.6,0.1,23.4,0.2l-0.2-0.1c0,7.4,0,14.9,0,22.6c-7.8,0-15.2,0-23.1,0c0-7.6,0-15.2,0-22.8
	C950.1,339.8,949.9,339.9,949.9,339.9z"/>
<path d="M651.1,639c0-7.5,0-14.9,0-22.7c7.6,0,14.9,0,22.9,0c0,7.6,0,15.1,0,22.7l0.1-0.1C666.4,638.9,658.7,638.9,651.1,639
	L651.1,639z"/>
<path d="M766.1,661.8c-7.5,0-14.9,0-23,0c0-7.8,0-15.4,0-23l-0.1,0.1c7.7,0,15.4,0,23.1,0l-0.1-0.1C766,646.5,766,654.2,766.1,661.8
	L766.1,661.8z"/>
<path d="M581.9,386c7.7,0,15.4,0,23.2,0l-0.1-0.1c0,7.6,0,15.2,0,23.1c-8.1,0-15.5,0-23,0c0-7.7,0.1-15.4,0.1-23.1L581.9,386z"/>
<path d="M788.9,661.8c0,7.7,0,15.4,0,23.1l0.1-0.1c-7.5,0-14.9,0-23,0c0-7.8,0-15.4,0-23l-0.1,0.1
	C773.6,661.9,781.3,661.9,788.9,661.8C789.1,662,788.9,661.8,788.9,661.8z"/>
<path d="M743.1,707.8c-7.5,0-14.9,0-22.7,0c0-7.5,0-14.9,0-22.6c7.3,0,14.7,0,22.6,0c0,7.6,0,15.2,0,22.7
	C742.9,708,743.1,707.8,743.1,707.8z"/>
<path d="M788.9,684.9c7.5,0,14.9,0,22.7,0c0,7.5,0,14.9,0,22.6c-7.3,0-14.7,0-22.6,0c0-7.6,0-15.2,0-22.7
	C789.1,684.8,788.9,684.9,788.9,684.9z"/>
<path d="M857.9,316.8c0,7.7,0,15.4,0,23.2l0.1-0.1c-7.6,0-15.2,0-23,0c0-8.1,0-15.5,0-23l-0.1,0.1c7.7,0,15.4,0,23.1,0L857.9,316.8z
	"/>
<path d="M651.1,110c0-7.5,0-14.9,0-22.7c7.5,0,14.9,0,22.6,0c0,7.3,0,14.7,0,22.6c-7.6,0-15.2,0-22.7,0
	C650.9,109.8,651.1,110,651.1,110z"/>
<path d="M949.9,730.8c0,7.5,0,14.9,0,22.7c-7.6,0-14.9,0-22.9,0c0-7.6,0-15.1,0-22.7l-0.1,0.1C934.6,730.9,942.3,730.9,949.9,730.8
	L949.9,730.8z"/>
<path d="M743.1,455c-7.7,0-15.4,0-23.1,0c0-7.5,0-14.9,0-23.1c8,0,15.5,0,23.1,0C743.1,439.5,743.1,447.2,743.1,455z"/>
<circle cx="570.5" cy="420.4" r="16.4"/>
<path d="M742.9,501c0-15.4,0-30.8,0-46.1c7.5,0,14.9,0,23.1,0c0,15.6,0,30.9,0,46.1C758.4,501,750.6,501,742.9,501z"/>
<path d="M535.9,455c0-7.7,0-15.4,0-23.1c7.7,0,15.4,0,23.1,0c0,7.5,0,14.9,0,23.1C551.1,455,543.5,455,535.9,455z"/>
<path d="M582.1,477.8c0,7.7,0,15.4,0,23.1c-7.7,0-15.4,0-23.1,0c0-7.5,0-14.9,0-23.1C566.9,477.8,574.5,477.8,582.1,477.8z"/>
<path d="M719.9,500.8c7.7,0,15.4,0,23.1,0c0,7.5,0,14.9,0,23.1c-8,0-15.5,0-23.1,0C719.9,516.2,719.9,508.5,719.9,500.8z"/>
<path d="M903.8,593.3c0,7.5,0,14.8,0,22.3c-7.6,0-14.9,0-22.6,0c0-7.4,0-14.7,0-22.3C888.6,593.3,895.9,593.3,903.8,593.3z"/>
<path d="M421.4,133.1c22.9,0,45.5,0,68.4,0c0,22.8,0,45.4,0,68.4c-22.6,0-45.3,0-68.4,0C421.4,178.9,421.4,156.2,421.4,133.1z"/>
<path d="M995.8,133.2c0,22.9,0,45.5,0,68.4c-22.8,0-45.4,0-68.4,0c0-22.6,0-45.3,0-68.4C950,133.2,972.7,133.2,995.8,133.2z"/>
<path d="M421.2,707.5c0-22.9,0-45.5,0-68.4c22.8,0,45.4,0,68.4,0c0,22.6,0,45.3,0,68.4C467,707.5,444.3,707.5,421.2,707.5z"/>
<path d="M536.1,432c-7.7,0-15.4,0-23.1,0c0-7.5,0-14.9,0-23.1c8,0,15.5,0,23.1,0C536.1,416.5,536.1,424.2,536.1,432z"/>
</svg>
