<?xml version="1.0" encoding="utf-8"?>
<!-- Generator: Adobe Illustrator 26.0.0, SVG Export Plug-In . SVG Version: 6.00 Build 0)  -->
<svg version="1.1" id="Layer_1" xmlns="http://www.w3.org/2000/svg" xmlns:xlink="http://www.w3.org/1999/xlink" x="0px" y="0px"
	 viewBox="0 0 612 792" style="enable-background:new 0 0 612 792;" xml:space="preserve">
<style type="text/css">
	.st0{fill:#23A84B;}
	.st1{fill:#F4E8CD;}
	.st2{fill:#252E68;}
	.st3{fill:#F79F20;}
	.st4{fill:#2B335D;}
</style>
<path class="st0" d="M301.29,634.96c-0.2-0.45-0.68-0.36-1.02-0.45c-5.02-1.25-7.75-4.48-7.96-9.65c-0.19-4.71-0.25-9.43,0.01-14.14
	c0.42-7.51,5.88-10.43,12.44-9.79c3.35,0.33,6.14,1.78,7.88,4.84c0.86,1.52,1.25,3.24,1.29,4.92c0.12,5.1,0.39,10.22-0.17,15.31
	c-0.5,4.56-3.27,7.51-7.75,8.47c-0.43,0.09-0.97,0.01-1.28,0.48C303.58,634.96,302.43,634.96,301.29,634.96z M299.33,617.78
	c0.2,2.6-0.17,5.3,0.33,7.97c0.38,2.03,1.51,2.91,3.61,2.83c2.05-0.07,3.08-0.99,3.32-3.02c0.55-4.66,0.21-9.34,0.22-14.01
	c0-0.65-0.14-1.32-0.28-1.96c-0.4-1.83-1.46-2.64-3.39-2.66c-1.97-0.02-3.09,0.84-3.47,2.72
	C299.13,612.32,299.48,615.02,299.33,617.78z"/>
<path class="st0" d="M412.24,634.96c-0.63-0.44-1.39-0.41-2.09-0.61c-4.05-1.15-6.6-3.82-7.06-7.97c-0.63-5.7-0.73-11.46,0.04-17.15
	c0.71-5.22,4.51-8.27,9.91-8.38c3.46-0.07,6.66,0.65,9.09,3.39c1.69,1.91,2.26,4.24,2.39,6.7c0.27,5.07,0.42,10.14-0.16,15.19
	c-0.56,4.82-3.52,7.61-8.67,8.54c-0.27,0.05-0.64-0.12-0.79,0.29C414,634.96,413.12,634.96,412.24,634.96z M417.28,616.37
	c0-1.94,0.05-3.87-0.01-5.81c-0.06-1.9-0.85-3.05-2.34-3.38c-2.94-0.65-4.49,0.16-4.84,3.24c-0.39,3.47-0.13,6.95-0.2,10.42
	c-0.04,1.76,0.02,3.51,0.44,5.24s1.42,2.49,3.35,2.49c1.87,0.01,3.07-0.8,3.36-2.49C417.6,622.88,417.42,619.62,417.28,616.37z"/>
<path class="st0" d="M474.47,634.96c-0.05-0.2-0.21-0.25-0.39-0.28c-4.58-0.81-6.71-4.02-7.81-8.13c-1.18-4.44-1.08-8.97-0.81-13.52
	c0.17-2.77,0.83-5.35,2.18-7.74c1.85-3.3,5.87-4.99,9.6-4.35c4.4,0.76,6.71,3.61,7.79,7.6c1.58,5.83,1.57,11.75,0.25,17.64
	c-0.64,2.87-1.95,5.35-4.38,7.17c-1.15,0.86-2.61,0.89-3.79,1.62C476.23,634.96,475.35,634.96,474.47,634.96z M479.23,617.66
	c0-2.16,0.03-4.32-0.01-6.48c-0.02-1.16-0.36-2.26-0.84-3.31c-0.48-1.06-1.38-1.6-2.52-1.66c-1.14-0.06-2.06,0.4-2.66,1.4
	c-0.48,0.8-0.78,1.67-0.88,2.6c-0.5,4.44-0.32,8.9-0.18,13.34c0.05,1.48,0.22,2.98,1.01,4.33c1.09,1.87,3.69,2.04,4.96,0.27
	c0.5-0.7,0.71-1.51,0.87-2.33C479.5,623.13,479.34,620.39,479.23,617.66z"/>
<path class="st0" d="M498.03,634.96c-0.08-0.26-0.31-0.28-0.52-0.33c-4.11-0.92-6.28-3.84-7.26-7.59
	c-1.64-6.28-1.69-12.65,0.14-18.91c1.82-6.18,7.25-8.85,13.02-6.55c2.82,1.12,4.42,3.43,5.23,6.25c2.04,7.16,2.13,14.33-0.57,21.35
	c-1.21,3.15-3.64,5.11-7.12,5.55c-0.1,0.01-0.18,0.15-0.28,0.23C499.8,634.96,498.92,634.96,498.03,634.96z M503.27,616.95
	c0-0.76,0.03-1.25,0-1.73c-0.17-2.48,0.08-5.03-1.07-7.38c-0.96-1.95-3.53-2.25-4.89-0.56c-0.75,0.93-1,2.06-1.14,3.18
	c-0.53,4.34-0.28,8.71-0.19,13.06c0.03,1.3,0.25,2.63,0.78,3.86c0.56,1.29,1.49,2.06,2.94,2.01c1.34-0.05,2.2-0.74,2.63-2.02
	c0.18-0.54,0.4-1.06,0.51-1.63C503.4,622.74,503.21,619.7,503.27,616.95z"/>
<path class="st0" d="M386.55,634.96c-0.35-0.48-0.93-0.42-1.41-0.54c-3.25-0.74-5.75-2.57-7.72-5.2c-0.45-0.61-0.48-1.06,0.21-1.51
	c0.99-0.65,1.93-1.37,2.9-2.06c1.72-1.22,1.72-1.21,2.95,0.43c1.07,1.43,2.47,2.37,4.24,2.69c2.8,0.51,5.06-1.16,4.93-3.64
	c-0.06-1.05-0.47-1.94-1.34-2.6c-2.18-1.66-4.87-2.24-7.26-3.45c-2.74-1.39-5.12-3.05-6.06-6.2c-1.75-5.86,2.05-11.5,8.17-12.05
	c3.23-0.29,6.33,0.06,9.08,1.98c1.17,0.81,2.11,1.85,2.95,3c0.33,0.45,0.29,0.78-0.17,1.1c-1.25,0.9-2.5,1.8-3.73,2.73
	c-0.63,0.47-0.94,0.07-1.3-0.35c-1.18-1.38-2.6-2.36-4.45-2.62c-2.28-0.32-4.08,0.72-4.23,2.51c-0.12,1.41,0.55,2.44,1.68,3.22
	c1.84,1.26,3.97,1.89,5.97,2.79c2.71,1.23,5.33,2.51,6.7,5.44c2.72,5.82-0.71,12.64-6.99,13.79c-0.57,0.11-1.2,0.09-1.66,0.54
	C388.85,634.96,387.7,634.96,386.55,634.96z"/>
<path class="st0" d="M42.04,634.96c-1.01-0.25-2.04-0.44-3.02-0.77c-4.24-1.42-6.5-4.51-6.76-9.1c-0.29-4.89-0.32-9.79,0.03-14.67
	c0.51-7.07,5.62-10.04,12.19-9.51c3.13,0.25,5.72,1.58,7.71,4.05c1.42,1.76,1.69,3.82,1.65,5.97c-0.01,0.54-0.26,0.79-0.82,0.78
	c-1.81-0.02-3.62-0.02-5.43-0.01c-0.55,0-0.8-0.2-0.83-0.76c-0.01-0.3-0.12-0.6-0.18-0.9c-0.55-2.78-3.55-4.05-5.93-2.47
	c-1.03,0.68-1.18,1.88-1.24,2.94c-0.26,4.75-0.34,9.52-0.02,14.27c0.17,2.53,1.2,3.65,3.32,3.79c2.25,0.14,3.5-0.9,3.87-3.21
	c0.4-2.51,0.4-2.51,2.94-2.52c1.06,0,2.12,0.06,3.18,0c0.88-0.05,1.12,0.3,1.16,1.14c0.28,5.44-2.63,9.27-7.99,10.52
	c-0.48,0.11-1.05,0.03-1.44,0.46C43.63,634.96,42.84,634.96,42.04,634.96z"/>
<path class="st0" d="M257.59,634.96c-1.35-0.55-2.79-0.81-4.1-1.5c-2.91-1.52-4.52-3.99-4.85-7.12c-0.57-5.39-0.57-10.83-0.07-16.23
	c0.53-5.76,4.12-8.99,9.92-9.27c3.85-0.18,7.21,0.88,9.77,3.94c1.51,1.8,1.91,3.9,1.76,6.17c-0.04,0.58-0.33,0.76-0.85,0.75
	c-1.76-0.01-3.53-0.05-5.29-0.03c-1.02,0.01-0.9-0.72-1-1.36c-0.43-2.79-2.75-4.08-5.38-3.06c-1.22,0.47-1.67,1.46-1.76,2.56
	c-0.43,5.32-0.51,10.65,0.04,15.96c0.19,1.87,1.31,2.71,3.24,2.79c1.98,0.08,3.16-0.73,3.65-2.52c0.1-0.38,0.18-0.77,0.21-1.16
	c0.17-2.04,0.16-2.04,2.28-2.04c1.28,0,2.56,0.03,3.84-0.02c0.8-0.03,1.01,0.25,1.06,1.05c0.42,6-3.21,9.92-8.87,10.82
	c-0.25,0.04-0.54-0.05-0.69,0.26C259.53,634.96,258.56,634.96,257.59,634.96z"/>
<path class="st0" d="M204.1,634.96c-0.46-0.49-1.11-0.4-1.68-0.56c-4.26-1.21-6.79-3.95-7.26-8.25c-0.57-5.18-0.45-10.39-0.13-15.59
	c0.47-7.61,6.47-10.37,12.61-9.6c3.25,0.41,5.92,1.84,7.77,4.66c1.07,1.64,1.23,3.44,1.18,5.31c-0.01,0.58-0.31,0.76-0.84,0.75
	c-1.81-0.02-3.62-0.03-5.43-0.01c-0.52,0-0.68-0.23-0.74-0.7c-0.05-0.44-0.14-0.87-0.27-1.29c-0.74-2.4-3.04-3.43-5.36-2.42
	c-1.11,0.48-1.57,1.47-1.66,2.53c-0.42,5.32-0.53,10.65,0.04,15.97c0.2,1.88,1.3,2.71,3.24,2.81c1.91,0.11,3.17-0.74,3.66-2.53
	c0.19-0.72,0.32-1.47,0.33-2.21c0.01-0.84,0.38-1.02,1.14-1c1.59,0.04,3.18,0.05,4.76-0.01c0.86-0.03,1.09,0.24,1.15,1.11
	c0.44,6.33-3.76,10.12-9.05,10.75c-0.21,0.03-0.45,0-0.55,0.26C206.04,634.96,205.07,634.96,204.1,634.96z"/>
<path class="st1" d="M31.71,494.12c0.08,0,0.17,0.02,0.25,0.04c-0.02,0.08,0,0.14,0.05,0.2c-0.05,7.45-0.12,14.9-0.13,22.34
	c-0.02,19.84-0.01,39.69,0,59.53c0,2.38,0.07,4.76,0.11,7.14c-0.01,0.33-0.01,0.67-0.02,1c-0.09,0.01-0.17,0.02-0.26,0.02
	C31.71,554.3,31.71,524.21,31.71,494.12z"/>
<path class="st2" d="M387.34,370.95c2.36-1.67,4.73-3.32,7.07-5.01c3.13-2.26,6.23-4.56,9.34-6.84c1.29,0.23,1.9-0.44,2.12-1.61
	l-0.01,0.01c0.42,0.01,0.86,0.04,0.73-0.61c0.66,0.12,1.2,0.1,0.99-0.82l0.04-0.03c0.2,0.07,0.29-0.01,0.29-0.21
	c0.45,0.09,0.95,0.24,0.7-0.56l0.08-0.06c0.19,0.07,0.26,0.01,0.18-0.18l0.08-0.08c0.81,0.16,1.28-0.12,1.25-1l0.06-0.05
	c0.58,0.12,0.76-0.25,0.85-0.71l-0.02,0.01c1.41,0.08,1.67-0.17,1.46-1.35c0.01-0.06,0.05-0.1,0.11-0.12
	c0.66,0.27,1.23,0.04,1.61-0.45c0.63-0.82,1.34-1.53,2.19-2.13c0.46-0.33,0.9-0.73,0.83-1.4l0.02-0.02
	c1.56,0.27,1.76-1.39,2.73-1.98c0.36-0.22,1.12-0.54,0.82-1.32l0.05,0.09l-0.03-0.09c0.2,0.04,0.29-0.05,0.28-0.25l0.09,0.03
	l-0.09-0.03c0.44-0.11,1.15,0.7,1.26-0.02c0.16-1.01,0.74-1.54,1.43-2.09c0.39-0.31,0.66-0.69,0.58-1.22l0,0
	c0.09-0.07,0.18-0.14,0.28-0.21l0.03-0.03c0.23-0.04,0.42-0.11,0.4-0.39l-0.02,0.02c1.61-0.47,2.25-2.06,3.44-3.01
	c0.2-0.16,0.04-0.5-0.11-0.72c0.02-0.04,0.05-0.08,0.1-0.09c1.18,0.06,1.48-0.65,1.44-1.65l-0.01,0.01
	c0.75,0.04,1.53-0.05,1.73-0.87c0.34-1.38,1.64-2.02,2.34-3.15c1.23-1.99,2.78-3.86,4.22-5.76c0.71-0.94,1.6-1.83,2-2.9
	c0.66-1.72,1.76-3.21,2.28-5.01c0.62-2.13,1.89-4.07,2.42-6.21c0.66-2.68,1.28-5.43,0.88-8.25c-0.22-1.6,0.12-3.24-0.66-4.83
	c-0.3-0.62-0.7-1.24-0.96-1.91c-0.89-2.31-1.87-4.54-3.87-6.21c-3.21-2.69-6.5-5.19-10.67-6.23c-0.26-0.02-0.52-0.04-0.78-0.07
	c0.1-0.65-0.81-0.63-0.84-1.23c0.95-0.08,1.81,0.05,2.73,0.29c1.09,0.29,2.2,0.99,3.42,0.45c3.45,0.58,6.68,1.84,9.89,3.15
	c4.84,1.97,9.2,4.68,12.71,8.58c3.34,3.71,5.35,8.07,5.99,13.08c0.96,7.58-1.19,14.49-4.35,21.19c-3.81,8.09-9.04,15.22-14.81,22.01
	c-3.96,4.67-8.17,9.11-12.61,13.31c-8.12,7.67-16.67,14.84-25.63,21.52c-9.27,6.92-18.82,13.4-28.62,19.55
	c-5.81,3.64-11.71,7.14-17.68,10.52c-4.96,2.82-9.96,5.55-15.02,8.2c-6.71,3.52-13.54,6.82-20.34,10.16
	c-3.27,1.61-6.69,2.9-9.96,4.49c-4.59,2.24-9.3,4.19-14,6.14c-9.82,4.08-19.72,7.95-29.77,11.45c-14.98,5.23-30.14,9.87-45.57,13.61
	c-9.93,2.41-19.92,4.49-30.02,6.06c-6.38,0.99-12.77,1.78-19.2,2.4c-8.44,0.81-16.9,1.03-25.36,0.68
	c-9.59-0.39-19.08-1.64-28.16-4.97c-2.67-0.98-5.31-2.04-7.68-3.65c-0.07-0.17-0.18-0.24-0.36-0.16l-0.07-0.05
	c0.47-0.46,0.4-0.83-0.18-1.12c-0.82-0.42-1.65-0.8-2.6-0.82l0.01,0.01c-0.03-0.57-0.23-0.92-0.89-0.67l-0.03-0.02
	c-0.1-1.34-1.38-2-2.13-2.56c-1.81-1.36-2.38-3.47-3.76-5.06c-2.13-2.45-2.61-5.82-3.08-8.93c-0.4-2.68-0.46-5.49,0.24-8.22
	c0.15-0.59,0.1-1.23,0.28-1.81c1.02-3.31,1.95-6.64,3.4-9.8c0.56-1.21,1.25-2.37,1.74-3.59c0.48-1.23,1.81-2.15,1.43-3.7l0.06-0.06
	c0.4,0.22,0.65,0.07,0.86-0.3c1.43-2.54,2.99-4.98,4.9-7.19c0.39-0.44,0.52-1.01,0.45-1.6l0,0c0.41,0.01,0.56-0.33,0.83-0.55
	c0.87-0.71,1.23-1.92,2.35-2.37c0.04,0.02,0.08,0.04,0.11,0.06c-0.04-0.02-0.07-0.04-0.11-0.06c1.13-1.87,2.57-3.45,4.15-4.98
	c1.59-1.54,2.79-3.47,4.64-4.78c0.07-0.05,0.12-0.14,0.13-0.22c0.13-0.85,0.76-1.3,1.35-1.84c0.46-0.42,0.94-0.94,0.84-1.69
	l-0.01,0.01c0.81,0.08,1.36-0.2,1.85-0.91c0.46-0.65,1.12-1.22,1.8-1.65c0.9-0.57,1.26-1.31,1.22-2.33l0.07-0.05
	c1.16,0.68,1.23,0.62,1.43-1.18c0.08-0.08,0.16-0.16,0.23-0.23c0.93-0.56,2.54-0.32,2.43-2.09l0.01-0.01
	c1.61,0.2,2.07-1.33,3.06-2.06c0.2-0.15,0.05-0.49-0.11-0.72c0.02-0.06,0.06-0.09,0.12-0.11c1.24,1.23,1.53-0.59,2.33-0.71
	c0.29-0.04,0.36-0.12,0.4-0.36c0.29-1.73,1.83-2.38,3.09-2.83c1.37-0.5,1.45-1.85,2.4-2.52c0.03-0.02-0.08-0.23-0.12-0.35l0.08-0.09
	c0.76,0.25,1.37,0.17,1.65-0.7c0.09-0.27,0.32-0.49,0.57-0.49c1.03-0.03,1.51-0.88,2.23-1.39c0.99-0.69,1.61-1.84,2.82-2.24
	c0.04,0.02,0.07,0.04,0.11,0.06c-0.04-0.02-0.07-0.04-0.11-0.06c0.32-0.75,1.13-0.86,1.68-1.3c0.3-0.24,0.86-0.44,0.21-0.91
	c0.01-0.07,0.05-0.12,0.12-0.14c0.82,0.48,1.34-0.09,1.82-0.58c1.48-1.51,3.6-2.07,5.06-3.76c1.37-1.59,3.84-2.04,5.23-3.84
	c0.12-0.16,0.37-0.22,0.56-0.32c1.1-0.56,2.41-0.72,3.12-1.96c0.21-0.37,0.78-0.78,1.36-0.69c1.08,0.17,1.69-0.57,2.14-1.26
	c0.49-0.76,1.25-1.27,1.9-1.61c2.46-1.27,4.42-3.32,7.01-4.35c0.48-0.19,1.2-0.54,0.81-1.38c0.01-0.08,0.06-0.12,0.14-0.13
	c0.77,0.84,1.5,0.24,2.08-0.19c2.8-2.07,5.72-3.93,8.73-5.68c0.8-0.46,1.96-0.69,2.26-1.84l0,0c0.78-0.2,1.57-0.36,2.28-0.75
	c3.3-1.8,6.65-3.51,9.88-5.43c1.12-0.67,2.44-0.91,3.42-1.69c0.94-0.74,1.99-1.22,3-1.79c1.67-0.94,3.51-1.66,5.13-2.6
	c1.6-0.93,3.54-1.09,4.94-2.49c0.68-0.69,1.78-1.32,2.72-1.48c1.68-0.29,3.11-1.29,4.33-2.07c1.39-0.89,2.97-1.2,4.36-1.95
	c2.15-1.17,4.4-2.29,6.72-3.19c0.39-0.15,0.71-0.52,0.88-0.95l-0.01,0.01c0.63,0.2,1.15,0.18,1.82-0.18c1.69-0.9,3.38-1.84,5.27-2.3
	c0.64-0.16,1.13-0.47,1.13-1.23l0,0c0.59-0.01,1.14,0.27,1.78-0.06c1.79-0.91,3.62-1.75,5.46-2.53c1.51-0.64,3.07-1.16,4.6-1.75
	c0.67-0.26,0.9-0.03,0.87,0.63c-7.69,3.64-15.41,7.23-22.94,11.19c-16.84,8.85-33.15,18.56-48.48,29.86
	c-9.38,6.92-18.36,14.31-26.52,22.64c-6.52,6.66-12.47,13.78-16.74,22.15c-2.28,4.46-3.96,9.13-4.11,14.18
	c-0.18,6.04,1.92,11.18,6.52,15.22c4.98,4.37,11,6.47,17.32,7.88c9.46,2.11,19.06,2.24,28.66,1.78c13-0.63,25.83-2.66,38.56-5.41
	c22.9-4.94,45.09-12.14,66.81-20.87c13.66-5.49,27.03-11.6,40.12-18.32c8.64-4.44,17.1-9.19,25.42-14.22
	c0.41-0.25,0.85-0.46,1.27-0.68c0.11-0.08,0.21-0.15,0.32-0.23l0.03-0.01c1.46,0.06,2.53-0.98,3.68-1.57
	c1.48-0.75,2.72-2.01,4.39-2.53c0.28-0.09,0.67-0.19,0.79-0.41c0.66-1.24,1.82-1.84,3-2.42
	C387.52,371.57,387.51,371.32,387.34,370.95z"/>
<path class="st3" d="M427.06,300.87c0.07,0.23,0.14,0.46,0.21,0.69c-0.14,0.22-0.12,0.43,0.06,0.61c0.03,0.18,0.05,0.35,0.08,0.53
	c-0.05,0.17,0.02,0.24,0.19,0.21c0.09,0.02,0.19,0.03,0.28,0.05c0.07,0.12,0.14,0.13,0.2,0c0.18-0.05,0.36-0.11,0.53-0.16
	c0.52,0.12,0.98,0.01,1.39-0.33c2.29-0.57,4.57-1.14,6.86-1.71c0.22,0.11,0.45,0.21,0.67,0.32c-0.04,0.37-0.09,0.74-0.13,1.11
	c-0.07,0.18-0.14,0.37-0.21,0.55c-0.87,3.8-2.18,7.44-3.78,10.99c-0.39,0.86-0.92,1.62-1.32,2.47c-0.63,1.31-2,1.68-3.35,1.83
	c-0.48,0.05-0.94,0.12-1.39,0.28c-0.1-0.09-0.19-0.09-0.26,0.04c-0.27,0.06-0.53,0.12-0.8,0.17c-0.22-0.11-0.4-0.07-0.55,0.12
	c-0.17,0.05-0.34,0.1-0.51,0.15c-0.29-0.13-0.57-0.13-0.82,0.09c-0.17,0.04-0.34,0.09-0.51,0.13c-0.3-0.11-0.53,0-0.72,0.25
	c-1.35,0.98-1.86,2.57-2.81,3.84c-1.99,2.65-3.98,5.29-6.3,7.67c-0.43,0.27-0.89,0.73-0.64,1.13c0.24,0.38,0.91,0.39,1.43,0.19
	c0.62,0,1.23,0,1.85-0.01c0.53,0.24,1.06,0.29,1.6,0.01c0.58,0.02,1.17,0.03,1.75,0.05c0.03,0.24,0.06,0.49,0.09,0.73
	c-2.56,2.2-4.8,4.72-7.24,7.03c-4.26,4.01-8.7,7.81-13.31,11.41c-0.94,0.73-1.94,1.39-2.79,2.22c-1.31,1.3-2.89,1.33-4.55,1.23
	c-1.76-0.11-3.53-0.15-5.28-0.32c-1.46-0.15-2.41,0.81-3.43,1.5c-6.33,4.33-12.87,8.32-19.56,12.06c-1.84,1.03-1.89,1.2-0.39,2.7
	c0.62,0.62,1.18,1.32,1.86,1.88c0.98,0.8,0.55,1.27-0.29,1.72c-4.16,2.22-8.31,4.44-12.47,6.67c-5.48,2.93-10.98,5.8-16.62,8.4
	c-4.12,1.9-8.24,3.79-12.38,5.66c-1.75,0.79-1.76,0.77-2.84-0.81c-0.74-1.09-1.48-2.18-2.23-3.27c-0.53-0.76-1.14-1.07-2.14-0.69
	c-6,2.3-12.02,4.51-18.14,6.49c-2.97,0.96-5.96,1.9-8.96,2.76c-0.93,0.27-1.56,0.73-2.04,1.52c-1.86,3.04-3.75,6.07-5.59,9.12
	c-0.27,0.45-0.55,0.67-1.07,0.83c-5.37,1.71-10.81,3.21-16.27,4.59c-5.04,1.27-10.15,2.25-15.25,3.27
	c-3.32,0.66-6.68,1.16-10.02,1.73c-0.38,0.07-0.85,0.28-1.09-0.13c-0.24-0.4,0.18-0.71,0.4-1.03c2.04-2.98,4.07-5.97,6.11-8.95
	c0.19-0.28,0.53-0.6,0.24-0.93c-0.28-0.31-0.75-0.25-1.13-0.18c-3.4,0.62-6.84,0.73-10.27,0.91c-2.69,0.14-5.38,0.15-8.07,0.12
	c-1.39-0.02-2.49,0.38-3.63,1.22c-4.55,3.34-9.19,6.54-13.8,9.79c-0.29,0.2-0.61,0.34-0.99,0.31c-6.45-0.57-12.74-1.86-18.62-4.67
	c-2.7-1.29-2.68-1.39-0.27-3.09c3.38-2.39,6.79-4.74,10.18-7.11c1.3-0.91,1.26-1.18-0.14-1.93c-2.11-1.13-4.07-2.47-5.68-4.25
	c-0.75-0.82-1.46-0.87-2.46-0.4c-3.73,1.78-7.5,3.49-11.25,5.23c-0.75,0.35-1.22,0.26-1.43-0.67c-0.98-4.43-0.56-8.77,0.87-13.03
	c0.41-1.23,1.72-1.43,2.73-1.88c2.62-1.16,5.27-2.24,7.9-3.35c0.48-0.2,0.78-0.58,0.92-1.07c0.82-2.91,2.26-5.54,3.66-8.2
	c0.14-0.26,0.46-0.54,0.25-0.83c-0.24-0.32-0.64-0.16-0.98-0.08c-2.26,0.54-4.52,1.08-7.03,1.68c0.71-1.49,1.65-2.46,2.49-3.47
	c3.56-4.25,7.27-8.37,11.25-12.23c1.02-0.99,2.16-1.65,3.53-1.94c0.26-0.05,0.51-0.16,0.77-0.2c3.1-0.51,5.74-1.69,8.07-4
	c2.84-2.81,6.12-5.16,9.21-7.72c0.26-0.22,0.72-0.41,0.61-0.79c-0.14-0.48-0.67-0.27-1.03-0.34c-0.13-0.02-0.27,0.01-0.4-0.01
	c-0.66-0.1-1.69,0.4-1.9-0.31c-0.2-0.67,0.88-0.97,1.42-1.35c5.82-4.13,11.79-8.03,17.85-11.8c1.21-0.75,2.38-1.58,3.59-2.32
	c0.77-0.47,1.58-1,2.54-0.85c3.13,0.49,5.57-0.94,8.11-2.52c3.53-2.2,7.26-4.09,10.91-6.1c0.15-0.08,0.34-0.07,0.51-0.11
	c0.22,0.03,0.46,0.03,0.55,0.29c-2.29,1.35-4.63,2.63-6.87,4.06c-3.94,2.52-7.91,5-11.69,7.77c-2.86,2.1-5.75,4.16-8.45,6.47
	c-1.85,1.59-3.82,3.04-5.58,4.73c-0.16,0.01-0.25,0.09-0.27,0.25c-0.09,0.09-0.17,0.19-0.26,0.28c-0.29,0.05-0.5,0.2-0.63,0.46
	c-0.41,0.39-0.81,0.78-1.22,1.17c-0.07,0.07-0.15,0.15-0.22,0.22c-0.46,0.44-0.91,0.88-1.37,1.33c-0.31,0.04-0.47,0.22-0.54,0.51
	c-0.48,0.37-1.02,0.68-1.31,1.25l-0.07-0.01l0.04,0.06c-0.08,0.1-0.16,0.2-0.23,0.31c-0.08,0.09-0.16,0.17-0.24,0.26
	c-0.1,0.09-0.2,0.18-0.29,0.26c-0.3,0.04-0.49,0.21-0.53,0.52c-3.72,3.85-7.14,7.91-9.7,12.65c-1.54,2.87-3.02,5.73-3.26,9.05
	c-0.26,0.32-0.24,0.68-0.13,1.04c-0.22,0.88-0.21,1.77-0.11,2.66c0.03,0.14,0.05,0.28,0.08,0.42c0.03,0.21,0.05,0.42,0.08,0.63
	c-0.16,0.59,0.04,1.12,0.29,1.64c0.2,2.09,1.49,3.65,2.62,5.28c0.19,0.35,0.4,0.7,0.85,0.77c0.09,0.09,0.18,0.17,0.27,0.26
	c0.2,0.51,0.51,0.89,1.08,1.01l0.05,0.03c0.07,0.07,0.14,0.14,0.2,0.2c3.68,2.84,7.94,4.36,12.41,5.28c2.51,0.52,5.07,0.9,7.66,0.92
	c0.57,0.19,1.13,0.22,1.7,0.02c3.92,0.4,7.84,0.31,11.77,0c0.74,0.18,1.47,0.22,2.2-0.05c0.54-0.05,1.07-0.1,1.61-0.15
	c0.54,0.13,1.07,0.08,1.59-0.11c0.63,0.13,1.21-0.17,1.82-0.23c0.29,0.18,0.55,0.14,0.81-0.06c0.44-0.05,0.89-0.1,1.33-0.16
	c0.46,0.13,0.9,0.17,1.31-0.15c0.28-0.05,0.56-0.09,0.84-0.14c0.45,0.17,0.88,0.13,1.29-0.1c0.34-0.06,0.69-0.11,1.03-0.17
	c0.45,0.16,0.88,0.15,1.24-0.23c0.3-0.02,0.6-0.04,0.9-0.07c0.2,0.15,0.38,0.1,0.53-0.08c0.18-0.04,0.37-0.07,0.55-0.11
	c0.29,0.12,0.55,0.04,0.8-0.1c2.02-0.38,4.05-0.76,6.07-1.14c0.45-0.01,0.92,0.06,1.32-0.25c0.17-0.05,0.34-0.09,0.51-0.14
	c0.29,0.13,0.52,0.02,0.73-0.19c0.29-0.04,0.59-0.08,0.88-0.12c0.51,0.16,0.93-0.06,1.34-0.31c0.34-0.07,0.67-0.15,1.01-0.22
	c0.11-0.01,0.22-0.02,0.33-0.03c12.23-2.79,24.23-6.34,35.99-10.69c5.43-2.01,10.77-4.23,16.16-6.36c0.21,0.05,0.36-0.01,0.46-0.21
	l0.05-0.03c0.29-0.02,0.53-0.13,0.69-0.38c0.21-0.07,0.42-0.14,0.63-0.21c0.41,0.03,0.75-0.13,1.01-0.44
	c2.14-0.98,4.28-1.96,6.42-2.94c0.12-0.05,0.23-0.1,0.35-0.16c0.14-0.05,0.28-0.09,0.43-0.14c0.48-0.06,0.9-0.24,1.2-0.63
	c0.24-0.11,0.47-0.21,0.71-0.32l0.07,0.05l0.02-0.09c0.32-0.15,0.73-0.16,0.93-0.52c0.11-0.07,0.23-0.14,0.34-0.21
	c2.71-1.01,5.21-2.48,7.79-3.75c6.95-3.43,13.64-7.34,20.22-11.42c4.73-2.93,9.41-5.93,13.88-9.22c4.44-3.27,8.81-6.66,12.89-10.39
	c0.58-0.53,1.2-1.01,1.81-1.52c0.32-0.04,0.5-0.2,0.52-0.53c0.7-0.64,1.39-1.29,2.09-1.93c0.08-0.15,0.16-0.3,0.24-0.45
	c0.86-0.92,1.97-1.58,2.72-2.62c0.31-0.06,0.46-0.26,0.51-0.56c0.65-0.36,0.83-1.12,1.32-1.61c0.08-0.08,0.16-0.17,0.25-0.25
	c4.11-4.66,7.63-9.7,9.76-15.6c0.33-0.92,0.74-1.86,0.62-2.89c0.5-0.23,0.5-0.65,0.44-1.1c0.03-0.61,0.06-1.22,0.09-1.84
	c0.25-0.71,0.24-1.42-0.02-2.13c-0.06-0.43-0.13-0.86-0.19-1.29c0.16-0.38,0.03-0.69-0.25-0.95c0.01-0.07-0.03-0.12-0.1-0.13
	c-0.08-0.1-0.15-0.21-0.23-0.31c-0.78-2.53-1.01-2.98-4.54-6.78c2.52,0.93,4.59,2.22,6.58,3.64l-0.02,0.09l0.09-0.02
	c0.06,0.06,0.13,0.12,0.19,0.18l-0.02,0.06l0.03-0.05c0.47,0.44,0.94,0.87,1.41,1.31c0.08,0.07,0.16,0.15,0.24,0.22
	c1.64,1.65,2.58,3.68,3.23,5.87C426.93,300.68,427,300.78,427.06,300.87z"/>
<path class="st2" d="M91.02,501.81c1.34,2.17,2.68,4.35,4.01,6.52c0.11,0.18,0.16,0.39,0.24,0.59c0.06,0.57-0.31,1.4,0.8,1.34
	l-0.01-0.01c-0.09,0.67,0.19,1.26,0.41,1.86c0.19,0.51,0.47,0.37,0.76,0.09l0.06,0.09c-0.4,1.03,0.39,1.7,0.77,2.49
	c0.2,0.42,0.38,0.96,1.04,0.57c0.05,0.03,0.07,0.07,0.07,0.13c-0.11,0.16-0.05,0.26,0.12,0.32l-0.02-0.02
	c-0.07,0.44-0.05,0.87,0.18,1.28c1.33,2.31,2.66,4.62,3.99,6.93c0.22,0.38,0.46,0.65,0.94,0.43l0.03,0.05
	c-0.38,0.71,0.15,0.92,0.64,1.15c3.17,5.37,6.33,10.74,9.5,16.11c0.88,1.49,1.75,2.98,2.94,4.39c0-0.46,0-0.92,0-1.38
	c-0.02-16.41-0.03-32.82-0.09-49.23c0-1.2,0.27-1.54,1.51-1.52c5.91,0.07,11.83,0.05,17.74,0.01c0.94-0.01,1.28,0.18,1.28,1.22
	c-0.03,29.34-0.03,58.68,0,88.01c0,0.92-0.23,1.19-1.17,1.18c-5.25-0.04-10.5-0.05-15.75,0c-0.97,0.01-1.47-0.31-1.94-1.13
	c-7.31-12.64-14.64-25.26-21.97-37.88c-0.64-1.1-1.39-2.13-1.85-3.33c-0.28-1.04-0.23-2.27-1.58-2.69v0.01
	c0.11-0.4-0.28-0.83,0.13-1.24c0.26-0.26,0.07-0.65-0.24-0.75c-0.95-0.32-1.32-1.23-1.65-1.95c-1.63-3.6-4.04-6.75-5.81-10.27
	c-0.35-0.7-1.08-1.29-1.87-1.49c-0.57-0.14-0.25,0.71-0.67,0.95c-0.32,0.18-0.08,0.54-0.05,0.84c0.13,1.26,0.64,2.45,0.64,3.75
	c-0.03,14.38,0.05,28.75-0.07,43.13c-0.03,3.2-0.27,6.4,0.04,9.59c0.05,0.48-0.03,0.95-0.13,1.44c-0.15,0.72-0.43,1.01-1.22,1
	c-5.56-0.04-11.12-0.03-16.67-0.01c-0.69,0-0.94-0.19-1.07-0.94c-0.6-3.32-0.48-6.66-0.5-9.99c0-0.51,0.2-1.07-0.24-1.51
	c0-2.74,0-5.48,0-8.21c0.41-0.4,0.24-0.91,0.24-1.38c-0.01-2.94,0-5.87-0.2-8.82c-0.18-2.71,0.02-5.43,0.16-8.15
	c0.19-3.55,0.09-7.13,0.02-10.69c-0.03-1.78-0.26-3.56-0.4-5.35c0-0.55,0-1.1,0-1.64c0.02-0.02,0.07-0.05,0.06-0.06
	c-0.01-0.05-0.04-0.1-0.07-0.15c0-2.05-0.01-4.09-0.01-6.14c0.3-0.44,0.16-0.94,0.16-1.41c0.01-7.79,0-15.59,0.01-23.38
	c0-1.72,0.47-2.17,2.15-2.17c5.55,0,11.1,0,16.65,0c1.27,0,2.51,0.49,3.79,0.18l-0.01,0.07c0,0,0.01-0.08,0.01-0.07
	c0.07,0.38-0.52,1.19,0.59,0.92l0.07,0.11c-0.27,1.23,0.49,2.56,1.7,2.98l-0.01-0.01C89.23,500.25,89.9,501.46,91.02,501.81z"/>
<path class="st2" d="M256.27,586.6c-0.6,0.24-1.23,0.14-1.85,0.1c-0.28-0.64-0.55-0.62-0.81,0.01c-0.52-0.02-1.05-0.04-1.57-0.06
	c0.02-0.52-0.27-0.63-0.74-0.68c-2.09-0.24-4.18-0.3-6.27-0.62c-2.22-0.34-4.3-0.96-6.38-1.68c-1.37-0.47-2.49-1.67-4.12-1.38
	l0.01,0.01c-0.26-0.99-1.18-0.83-1.87-1.08c-5.98-3.64-9.71-8.92-11.34-15.68c-0.94-3.9-1.19-7.89-1.37-11.89
	c-0.37-8.37-0.26-16.75-0.15-25.12c0.08-5.66,0.26-11.34,1.8-16.85c0.53-1.89,1.17-3.75,2.29-5.41c1.15-0.44,1.33-1.65,1.98-2.49
	c0,0-0.18-0.14-0.27-0.22c0-0.11,0.05-0.16,0.15-0.16c1.63-0.76,2.89-1.99,3.92-3.39c0.34-0.47,1.29-0.62,0.99-1.51l0.05-0.05
	c0.44,0.21,0.6,0.02,0.61-0.41l-0.01,0.02c0.26,0.02,0.49,0.01,0.46-0.35l0.02-0.01c0.18,0.07,0.29-0.01,0.34-0.18l-0.02,0.01
	c0.65-0.27,1.93,0.4,1.73-1.15c0.03-0.04,0.07-0.06,0.12-0.05c1.03,0.92,1.05-0.13,1.33-0.68l-0.02,0.01
	c1.09,0.3,1.78-0.33,2.43-1.05l-0.02,0.02c1.94,0.16,3.71-0.67,5.46-1.21c2.77-0.85,5.65-0.49,8.41-1.22
	c0.56-0.15,1.35,0.38,2.1,0.32c1.41-0.11,2.92-0.49,4.23-0.16c2.55,0.64,5.22,0.25,7.71,1.22c1.74,0.68,3.63,0.98,5.32,1.75
	c0.78,0.35,1.45,0.72,2.31,0.63l-0.01-0.01c0.55,1.69,2.23,1.55,3.46,2.13l-0.02-0.01c0.03,0.58,0.36,0.76,0.9,0.65l0.07,0.06
	c-0.34,0.57,0.15,0.71,0.47,1.02c1.83,1.79,3.76,3.49,4.91,5.89c0.31,0.64,0.43,1.77,1.63,1.67c1.78,3.1,2.45,6.54,2.83,10.01
	c1.2,10.88,0.8,21.81,0.7,32.73c-0.05,5.52-0.26,11.07-1.74,16.46c-0.96,3.51-2.51,6.72-5.02,9.42c-1.37,0.43-2.34,1.34-3.08,2.54
	c-0.06,0.1,0.07,0.31,0.11,0.47c-0.02,0.05-0.06,0.08-0.11,0.1c-0.59-0.43-0.94,0.02-1.36,0.33c-1.68,1.24-3.3,2.61-5.43,3.05
	c-0.65,0.14-0.97,0.54-0.99,1.19l0.01-0.01c-1.39-0.06-2.87-0.62-3.97,0.79c-0.07,0.09-0.25,0.08-0.36,0.15
	c-1.83,1.04-3.99,0.4-5.87,1.16C259.07,586.25,257.49,585.58,256.27,586.6z M260.15,568.16c0.12-0.06,0.24-0.12,0.35-0.18
	c0.11-0.22,0.31-0.24,0.52-0.27c0.91,0.29,1.5-0.17,2.06-0.82c1.49-1.74,1.8-4,2.63-6.02c0.22-0.55,0.61-1.65-0.46-2.16
	c0.02-0.18,0.04-0.35,0.05-0.53c0.08-0.2,0.18-0.39,0.22-0.6c0.94-4.24,0.56-8.57,0.72-12.85c0.23-6.1,0.29-12.23-0.21-18.33
	c-0.17-2.02-0.07-4.01-0.07-6.01c0-2.68-0.94-5.28-1.97-7.77c-0.25-0.6-0.66-1.56-1.75-1.15l-0.02-0.02
	c0.03-0.2-0.03-0.27-0.23-0.19l-0.09-0.07c0.01-1.22-0.94-1.72-1.82-1.85c-2.48-0.38-4.94-1.09-7.48-0.89
	c-1.47,0.12-2.92,0.55-4.39,0.75c-0.98,0.13-3.47,1.89-3.85,2.83c-0.51,1.25-1.23,2.43-1.57,3.72c-0.41,1.56-0.66,3.2-0.3,4.84
	c-0.01,0.18-0.02,0.36-0.03,0.54c-0.47,0.08-0.48,0.43-0.49,0.79c-0.08,2.39-0.24,4.78-0.25,7.17c-0.03,6.69-0.02,13.39,0,20.08
	c0,1.05,0.35,2.12,0.19,3.13c-0.23,1.47-0.19,3-0.08,4.39c0.19,2.43,0.31,4.99,1.5,7.25c0.53,1.02,0.57,2.48,2.14,2.69
	c0.07,0.07,0.15,0.14,0.22,0.21c0.47,1.22,0.98,2.32,2.62,2.23c0.72-0.04,1.47,0.19,2.18,0.4c3.15,0.93,6.2,0.02,9.27-0.5
	C260.19,568.89,260.54,568.67,260.15,568.16v0.07V568.16z"/>
<path class="st2" d="M450.6,582.54c0,0.17,0,0.35,0,0.52c-0.37,0.35-0.52,0.78-0.52,1.27c-0.16,0-0.33,0-0.49,0
	c0-0.56-0.23-0.85-0.81-0.69c-1.02,0.28-2.07,0.19-3.1,0.19c-20.51,0.03-41.02,0.02-61.54,0.02c-0.43,0-0.93,0.14-1.28-0.17
	c-0.6-0.53-1.21-0.29-1.69,0.05c-0.78,0.55-0.9,0.11-0.96-0.51c-0.03-0.35-0.01-0.71-0.01-1.06c0-28.4,0-56.8-0.01-85.2
	c0-0.51,0.19-1.06-0.23-1.52c-0.15-1.24,0.59-1.45,1.61-1.44c6.18,0.03,12.35,0.03,18.53,0.03c16.28,0,32.55,0,48.83-0.03
	c1.12,0,1.5,0.22,1.48,1.44c-0.08,4.67-0.02,9.35-0.03,14.02c-0.01,2.06,0.32,1.86-1.79,1.86c-15,0-30,0.01-44.99-0.02
	c-1.1,0-1.5,0.17-1.47,1.41c0.11,4.93,0.1,9.87,0.13,14.8c0.07,0.09,0.14,0.17,0.21,0.26c0.36,0.55,0.7,1.09,1.43,0.4
	c0.28-0.27,0.67-0.16,1.02-0.16c8.94,0,17.89,0.01,26.83,0.01c0.45,0,0.78,0.15,0.86,0.64c0.1,0.65,0.27,1.3,0.27,1.95
	c0.01,4.18,0,8.35-0.04,12.53c-0.01,0.64-0.37,1.24-1.1,1.25c-1.23,0.03-2.43,0.32-3.67,0.31c-6.49-0.05-12.97,0-19.46-0.03
	c-1.8-0.01-3.6,0.19-5.4-0.22c-0.88-0.2-1.47,0.17-1.68,1.19c-0.16,0.78,0.16,1.46,0.15,2.2c-0.04,5.51-0.02,11.03-0.02,16.54
	c0,0.35-0.02,0.71-0.08,1.05c-0.26,1.47,0.39,2.24,1.89,2.28c1.1,0.03,2.16-0.29,3.28-0.29c12,0.03,24.01,0.05,36.01,0
	c2.21-0.01,4.39,0.35,6.59,0.29c0.62-0.02,1.05,0.21,1.03,0.9c-0.12,4.22,0.3,8.46-0.23,12.67
	C450.07,581.79,450.07,582.27,450.6,582.54z"/>
<path class="st2" d="M495.65,494.19c7.27,0.29,14.56,0.69,21.22,3.99c4.47,2.21,8.3,5.27,10.56,9.92c0.09,2.35,1.78,4.13,2.1,6.54
	c0.44,3.26,1.59,6.41,1.1,9.8c-0.11,0.75-0.55,1.43-0.5,2.17c0.2,2.78-1.24,5.09-2.07,7.57c-0.29,0.87-1.01,1.64-0.69,2.67
	c-0.01,0.07-0.05,0.11-0.12,0.13c-0.31-0.41-0.61-0.96-0.99-0.04c-0.09,0.22-0.29,0.41-0.43,0.61l-0.06-0.11l-0.05,0.05l0.11,0.06
	c0,0.53,0.01,1.07,0.01,1.6l0.01-0.01c-0.09,0.1-0.19,0.2-0.28,0.3c-2.2,3.17-5.24,5.38-8.63,7.05c-4.37,2.15-9.11,3.01-13.94,3.5
	c-6.67,0.68-13.36,0.68-20.05,0.81c-0.61,1.17-0.53,2.54-0.44,3.7c0.18,2.25,0.12,4.49,0.13,6.73c0.04,6.88,0.02,13.77,0.01,20.65
	c0,0.54,0.2,1.28-0.59,1.42c-1.18,0.21-2.29,0.65-3.56,0.63c-4.98-0.1-9.97-0.04-14.96-0.04c-2.16,0-2.15,0-2.17-2.12
	c-0.01-0.57-0.16-1.13-0.16-1.7c-0.01-27.66-0.01-55.33-0.01-82.99c0-0.58,0.05-1.13,0.24-1.69c0.17-0.5,0.48-0.82,0.96-0.69
	c1.27,0.33,2.52-0.06,3.78-0.05c8.61,0.05,17.21,0.04,25.82,0C493.23,494.62,494.44,494.34,495.65,494.19z M505.93,531.42
	c0.09-0.1,0.18-0.2,0.28-0.3l-0.02,0.02c0.63,0.06,1.35,0.12,1.59-0.58c0.44-1.32,0.73-2.68,1.11-4.02
	c0.49-1.71-0.27-3.46,0.23-5.18c0.15-0.52-0.05-1.12-0.12-1.69c-0.23-1.88-0.84-3.62-1.61-5.33c-0.06-0.14,0.24-0.45-0.17-0.43
	c-0.2,0.01-0.39,0.18-0.58,0.28c-0.05-0.03-0.08-0.07-0.08-0.12c0.22-0.96-0.03-1.54-1.15-1.4l0.01,0.01
	c-0.22-0.8-0.12-1.44-1.44-1.78c-3-0.77-5.87-2.01-9.06-1.92c-1.71,0.05-3.4-0.51-5.11-0.29c-1.87,0.24-3.71,0.48-5.56-0.09
	c-0.54-0.17-1.01,0.12-1.28,0.63c0,8.71-0.01,17.42-0.01,26.13c0.41,0.61,1.03,0.53,1.65,0.57c2.5,0.16,4.98-0.36,7.48-0.28
	c1.23,0.04,2.41,0.28,3.7,0.08c2.62-0.4,5.29-0.6,7.62-1.96c0.75-0.44,1.9-0.64,2.03-1.84l-0.01,0.01c0.38,0.01,0.56-0.17,0.53-0.55
	C505.95,531.4,505.93,531.42,505.93,531.42z"/>
<path class="st0" d="M361.13,338.6c1.45,0.77,2.7,1.85,4.25,2.52c0.92,0.39,0.99,1.51,0.53,2.49c-0.71,1.5-1.47,2.97-2.42,4.33
	c-0.38,0.55-0.58,1.09-0.55,1.79c0.05,1.19-0.92,2.01-2,1.63c-0.7-0.25-1.43-0.21-2.11-0.5c-0.88-0.38-0.99,0.16-0.87,0.81
	c0.05,0.28,0.3,0.52,0.45,0.79c0.71,1.25,0.4,2.12-1.06,2.92c-0.92,0.5-1.88,0.1-2.57-0.91c-0.38-0.55-0.58-1.18-0.73-1.76
	c-0.44-1.62-1.8-1.81-3.04-2.13c-0.61-0.16-1.38-0.19-1.96,0.05c-1.83,0.74-3.64,0.63-5.5,0.25c-1.45-0.3-2.82,0.32-4.22,0.52
	c-1.69,0.23-3.33,0.74-5.05,0.07c-0.63-0.25-1.29,0.22-1.78,0.62c-0.63,0.51-1.13,0.49-1.76,0.03c-1.16-0.85-2.3-1.27-3.79-0.5
	c-0.92,0.48-2.06,0.7-3.17,0.68c-0.09,0-0.17-0.01-0.26-0.01c-0.36-0.09-0.72-0.13-1.07,0.03c-0.16-0.05-0.24,0.02-0.29,0.17
	c-0.08,0.09-0.16,0.19-0.24,0.28c-0.06,0.09-0.12,0.18-0.18,0.27c-1.09,1.36-1.42,3.22-2.83,4.37c-0.93,0.76-1.92,1.06-3.17,0.95
	c-1.19-0.1-2.34-0.31-3.57,0.63c-2.71,2.05-3.57,0.72-4.45-2.23c-0.08-0.27-0.03-0.57-0.14-0.87c-0.3-0.88-0.57-1.93-1.54-2.06
	c-0.87-0.11-1.55,0.62-1.96,1.47c-0.1,0.21-0.37,0.46-0.59,0.49c-1.83,0.24-3.13,1.4-4.42,2.52c-0.78,0.68-1.41,0.58-2.07,0.01
	c-0.72-0.61-1.56-0.87-2.2-0.2c-0.64,0.66-0.66,1.58-0.02,2.4c0.48,0.62,0.43,1.23,0.06,1.94c-1.54,2.96-3.25,5.82-5.03,8.63
	c-0.21,0.33-0.46,0.72-0.78,0.88c-1.52,0.74-1.55,2.19-1.8,3.54c-0.12,0.63-0.08,1.37-0.92,1.56c-0.88,0.2-1.2-0.53-1.46-1.06
	c-0.69-1.46-1.52-2.42-3.37-2.14c-1.03,0.16-1.39-0.53-1.04-1.57c0.65-1.91,0.13-3.39-1.52-4.59c-0.88-0.64-1.44-1.37-0.96-2.55
	c0.31-0.75-0.24-1.44-0.49-2.08c-0.24-0.62-0.15-0.93,0.25-1.36c1.55-1.69,1.49-2.2-0.2-3.62c-1.16-0.98-2.18-2.14-3.68-2.66
	c-0.22-0.07-0.55-0.4-0.51-0.54c0.31-1.3-0.81-1.68-1.45-2.39c-0.24-0.26-0.75-0.51-0.53-0.92c0.22-0.43,0.5-0.96,1.17-0.88
	c3.19,0.39,4.19-1.95,5.3-4.2c0.29-0.59,0.24-1.02-0.01-1.57c-0.4-0.9-0.68-1.85-1.06-2.76c-0.2-0.48-0.45-0.91-1.13-0.82
	c-0.54,0.07-1.05-0.09-1.22-0.7c-0.19-0.66,0.2-1.1,0.68-1.43c1.27-0.87,2.65-1.61,3.39-3.09c0.16-0.31,0.34-0.58,0.37-0.94
	c0.1-1.05,0.08-2-1.09-2.53c-0.38-0.17-0.66-0.58-1.02-0.83c-1.94-1.35-2.01-1.5-0.3-3.17c0.89-0.87,0.89-1.67,0.4-2.64
	c-0.47-0.92-0.91-1.86-1.45-2.74c-0.7-1.16-0.72-2.29-0.05-3.43c0.47-0.81,0.38-1.49-0.38-2.05c-0.72-0.53-0.56-0.97,0.01-1.54
	c0.92-0.92,2.1-1.55,2.7-2.86c0.39-0.85,1.45-1.01,2.4-0.69c1.35,0.45,2.68,0.94,4.02,1.42c0.17,0.05,0.33,0.1,0.5,0.15
	c0.18,0.04,0.36,0.07,0.55,0.11c0.47,0.13,0.93,0.18,1.41,0.06c0.11,0.01,0.22,0.01,0.32,0.02c0.31,0.21,0.58,0.2,0.83-0.1
	l0.06-0.03c0.16,0.03,0.23-0.06,0.24-0.21l0.02-0.03c0.16-0.17,0.32-0.33,0.47-0.5c0.6-0.84,1.61-0.36,2.37-0.73
	c0.34-0.16,0.76-0.12,0.88-0.59c0.07-0.09,0.14-0.17,0.2-0.26c0.2-0.21,0.39-0.42,0.59-0.63c0.1-0.05,0.2-0.1,0.3-0.14
	c0.24,0,0.48-0.01,0.71-0.01c0.05,0.15,0.14,0.21,0.3,0.17c0.09,0.02,0.19,0.04,0.28,0.07c0.07,0.03,0.15,0.06,0.22,0.08
	c0.17,0.16,0.36,0.14,0.56,0.09c0.54,0.08,1.07,0.02,1.59-0.16c1.97,0.07,3.31,1.49,4.77,2.46c1.75,1.17,3.4,0.7,5.13,0.56
	c0.26-0.02,0.52-0.09,0.75-0.21c1.39-0.69,2.5-0.41,3.39,0.88c0.49,0.71,1.08,1.35,1.6,2.03c0.76,1,1.64,1.33,2.96,1.09
	c1.85-0.34,3.4-1.4,5.2-1.82c2.24-0.53,3.27,0.17,3.45,2.44c0.22,2.89,1.4,5.27,3.61,7.2c1.29,1.12,2.54,0.55,3.71,0.1
	c1.38-0.53,2.76-0.95,4.2-1.26c0.52-0.11,0.97-0.15,1.5,0.01c1.33,0.4,2.41-0.49,3.59-0.84c0.07-0.02,0.15-0.18,0.19-0.17
	c1.1,0.38,2.2,0.78,3.29,1.18c0.04,0.01,0.06,0.19,0.02,0.25c-0.54,0.91-1.22,1.71-1.62,2.74c-0.16,0.43-1.26,0.8-2.08,0.78
	c-1.04-0.02-2.04,0.13-3.04,0.46c-0.93,0.3-1.83-0.31-2.76-0.37c-0.89-0.05-1.82-0.33-2.63,0.3c-0.46,0.32-0.34,0.65-0.02,0.98
	c0.07,0.1,0.15,0.19,0.22,0.29l-0.02,0.03l0.02-0.04c0.32,0.33,0.61,0.7,1.11,0.78c0.08,0.05,0.17,0.09,0.25,0.14
	c0.62,0.22,1.25,0.23,1.87,0c0.17,0.04,0.3-0.01,0.38-0.17c0.46-0.19,0.83-0.21,1.34,0.05c1.27,0.64,2.53,1.37,3.98,1.54
	c0.78,0.09,1.59,0.18,2.33-0.18c0.86-0.42,1.56-0.26,2.26,0.33c0.53,0.44,1.2,0.69,1.79,0.17c1.37-1.2,2.87-0.7,4.27-0.26
	c2.04,0.65,3.8,1.93,5.68,2.94c0.36,0.19,0.56,0.66,0.84,0.99c0.02,0.09,0.08,0.14,0.17,0.15l0.05,0.1
	c-0.03,0.16,0.05,0.24,0.2,0.25l0.02,0.02c0.08,0.09,0.16,0.17,0.24,0.26c0.4,0.88,1.22,0.4,1.84,0.55c0.1,0.06,0.2,0.12,0.29,0.17
	l0.09,0.06C360.98,338.52,361.04,338.58,361.13,338.6z"/>
<path class="st2" d="M168.83,582.54c0,0.17,0,0.34,0,0.51c-1.75,0.56-3.52,0.89-5.39,0.84c-3.84-0.1-7.67-0.04-11.51-0.02
	c-0.98,0-1.94-0.23-2.91-0.27c-0.63-0.03-1.14-0.34-1.53,0.38c-0.47-0.5-0.31-1.01-0.31-1.47c-0.01-28.4-0.01-56.8,0-85.2
	c0-0.61-0.02-1.22,0.2-1.82c0.18-0.49,0.53-0.87,0.93-0.76c1.03,0.27,1.99-0.1,2.99-0.1c18.79,0.03,37.58,0.02,56.37,0.02
	c0.84,0,1.75,0.32,2.47,0.15c1.62-0.39,1.67,0.38,1.68,1.58c0.04,4.71-0.16,9.43,0.1,14.14c0.04,0.75-0.92,1.3-1.08,1.19
	c-0.84-0.59-1.62-0.07-2.4-0.07c-11.87-0.03-23.73-0.02-35.6-0.02c-0.43,0-0.88,0.08-1.29-0.17c-1.19-0.75-1.83-0.05-2.37,0.91
	c-0.31,0.13-0.29,0.41-0.29,0.67c0.02,4.89,0.04,9.79,0.06,14.68c0.58,1.45,1.75,0.91,2.66,0.65c1.18-0.34,2.44-0.6,3.51-0.23
	c1.62,0.56,3.22,0.4,4.83,0.42c2.95,0.04,5.91,0.06,8.87,0c2.68-0.05,5.37,0.27,8.04-0.24c0.93-0.18,1.23,0.27,1.19,1.18
	c-0.17,4.53,0.16,9.06-0.2,13.6c-0.13,1.57-0.75,1.64-1.89,1.63c-7.41-0.01-14.82-0.02-22.23,0.01c-1.15,0-2.28-0.13-3.39-0.37
	c-1.45-0.31-2.48,0.62-2.13,2.02c0.15,0.62,0.18,1.21,0.18,1.83c0,9.48,0.02,18.96-0.02,28.44c0,1.15,0.51,2.27,0.24,3.4
	C168.36,580.91,168.54,581.72,168.83,582.54z"/>
<path class="st2" d="M322.46,547.82c0-11.69-0.02-23.38,0.03-35.07c0-1.17-0.28-1.46-1.45-1.45c-7.59,0.06-15.18,0.01-22.77,0.06
	c-1.08,0.01-1.41-0.27-1.4-1.39c0.07-4.72,0.04-9.44,0.04-14.16c0-1.8-0.02-1.8,1.73-1.8c11.52,0.01,23.03,0.02,34.55,0.02
	c11.74,0,23.47-0.01,35.21-0.01c1.73,0,1.73,0,1.73,1.79c0,4.72-0.03,9.44,0.03,14.16c0.01,1.08-0.26,1.4-1.37,1.39
	c-7.59-0.05-15.18-0.01-22.77-0.05c-1.06-0.01-1.4,0.19-1.4,1.33c0.04,23.02,0.03,46.05,0.03,69.07c0,2.67,0,2.68-2.73,2.68
	c-6.04,0-12.09-0.03-18.13,0.03c-1.13,0.01-1.36-0.34-1.36-1.4C322.47,571.28,322.46,559.55,322.46,547.82L322.46,547.82z"/>
<path class="st2" d="M32,583.37c-0.04-2.38-0.11-4.76-0.11-7.14c-0.01-19.84-0.02-39.69,0-59.53c0.01-7.45,0.08-14.9,0.13-22.34
	c0.61-0.08,1.29,0.68,1.83-0.17c5.11,0,10.22,0,15.34,0c0.25,0.75,0.89,0.45,1.35,0.44c4.21-0.06,3.42,0.37,3.42,3.48
	c0.01,27.77,0.01,55.55,0.01,83.32c0,1.93-0.5,2.43-2.51,2.43c-5.47,0-10.94-0.01-16.4,0.01C33.99,583.87,32.95,583.91,32,583.37z"
	/>
<path class="st0" d="M335.18,620.9c0-0.93,0-1.66,0-2.38c-0.03-5.2-0.04-10.41-0.12-15.61c-0.02-1.05,0.3-1.38,1.34-1.31
	c1.23,0.09,2.47,0.07,3.7,0.02c0.86-0.04,1.18,0.23,1.14,1.12c-0.06,1.59-0.02,3.17-0.02,4.76c0,8.34-0.02,16.67,0.01,25.01
	c0,1.07-0.28,1.58-1.4,1.41c-0.22-0.03-0.44,0-0.66-0.01c-3.88,0-3.84-0.02-5.64-3.54c-2.89-5.64-5.83-11.25-8.76-16.87
	c-0.12-0.23-0.29-0.44-0.54-0.82c-0.32,0.84-0.22,1.58-0.22,2.28c0,5.87,0,11.73,0.07,17.6c0.01,1.1-0.27,1.48-1.38,1.38
	c-1.14-0.1-2.3-0.08-3.44,0c-1.03,0.08-1.36-0.27-1.35-1.32c0.06-3.62,0.04-7.23,0.04-10.85c0-6.31,0.02-12.61-0.02-18.92
	c-0.01-1,0.29-1.3,1.27-1.25c1.8,0.09,3.88-0.47,5.34,0.25c1.42,0.7,1.76,2.92,2.59,4.46c2.37,4.37,4.65,8.79,6.98,13.19
	C334.35,619.93,334.52,620.44,335.18,620.9z"/>
<path class="st0" d="M83.63,617.76c0-4.94,0.03-9.88-0.03-14.81c-0.01-1.12,0.33-1.38,1.4-1.35c4.58,0.12,9.16-0.17,13.73,0.5
	c4.1,0.6,7.12,3.77,7.4,7.9c0.19,2.76-0.2,5.34-2.12,7.53c-0.75,0.86-1.67,1.47-2.66,1.89c-1.01,0.42-0.95,0.92-0.54,1.73
	c1.94,3.75,3.85,7.51,5.76,11.28c0.73,1.43,0.68,1.49-0.9,1.49c-1.41,0-2.84-0.14-4.23,0.02c-1.57,0.19-2.24-0.54-2.83-1.84
	c-1.55-3.45-3.23-6.84-4.86-10.25c-0.24-0.5-0.4-1.04-1.13-1.14c-1.6-0.22-1.86-0.05-1.86,1.56c-0.01,3.44-0.06,6.88,0.03,10.31
	c0.03,1.17-0.37,1.42-1.41,1.36c-1.45-0.08-2.91-0.09-4.36,0c-1.09,0.07-1.43-0.24-1.42-1.37
	C83.66,627.63,83.63,622.69,83.63,617.76z M90.77,611.26c0.01,0,0.02,0,0.03,0c0,1.19,0.01,2.37-0.01,3.56
	c-0.01,0.63,0.26,0.85,0.87,0.83c1.44-0.04,2.88,0.01,4.32-0.25c2.01-0.36,2.95-1.36,3.06-3.46c0.14-2.75-0.64-4.03-2.72-4.55
	c-1.38-0.34-2.8-0.21-4.19-0.33c-1.14-0.1-1.46,0.37-1.37,1.43C90.82,609.41,90.77,610.34,90.77,611.26z"/>
<path class="st0" d="M57.64,617.7c0-4.98,0.02-9.97-0.02-14.95c-0.01-0.94,0.27-1.16,1.19-1.16c6.44,0.04,12.88,0.04,19.32,0
	c0.95-0.01,1.36,0.17,1.27,1.22c-0.1,1.27-0.11,2.56-0.03,3.83c0.07,1.04-0.39,1.28-1.31,1.27c-4.06-0.03-8.12,0.02-12.17-0.05
	c-0.97-0.02-1.25,0.3-1.23,1.19c0.03,1.14,0.01,2.29,0,3.44c-0.01,0.92,0.32,1.31,1.33,1.27c2.47-0.08,4.94,0.01,7.41-0.04
	c0.99-0.02,1.34,0.3,1.28,1.29c-0.07,1.19-0.04,2.38,0.02,3.57c0.05,0.95-0.24,1.33-1.26,1.31c-2.51-0.07-5.03,0.01-7.54-0.04
	c-0.91-0.02-1.26,0.28-1.24,1.2c0.04,1.85,0.02,3.7-0.01,5.55c-0.02,0.89,0.32,1.22,1.24,1.21c4.32-0.04,8.65,0.03,12.97-0.04
	c1.21-0.02,1.54,0.38,1.45,1.51c-0.08,1.14-0.07,2.29-0.01,3.44c0.04,0.9-0.26,1.22-1.2,1.21c-6.79-0.03-13.58-0.03-20.38,0.01
	c-0.89,0-1.11-0.3-1.1-1.15C57.65,627.75,57.64,622.72,57.64,617.7z"/>
<path class="st0" d="M231.86,601.63c1.01,0,2.04,0.07,3.04-0.02c0.9-0.08,1.2,0.31,1.43,1.1c2.21,7.78,4.46,15.54,6.7,23.31
	c0.66,2.28,1.29,4.56,1.99,6.83c0.27,0.87-0.03,1.11-0.84,1.1c-1.63-0.03-3.26-0.05-4.89-0.02c-0.66,0.01-0.91-0.28-1.06-0.89
	c-0.37-1.54-0.85-3.05-1.23-4.58c-0.16-0.67-0.45-0.95-1.17-0.94c-2.69,0.04-5.38,0.04-8.07,0.01c-0.8-0.01-1.03,0.31-1.18,1.05
	c-0.3,1.5-0.73,2.98-1.09,4.47c-0.16,0.66-0.53,0.92-1.23,0.9c-1.59-0.05-3.18-0.06-4.76-0.01c-0.92,0.03-1.09-0.24-0.83-1.12
	c1.99-6.83,3.93-13.68,5.9-20.52c0.91-3.16,1.9-6.31,2.74-9.49c0.26-0.99,0.73-1.24,1.64-1.18c0.97,0.06,1.94,0.01,2.91,0.01
	C231.86,601.62,231.86,601.62,231.86,601.63z M231.98,607.65c-0.24,0.46-0.32,0.56-0.35,0.68c-1.05,4.25-2.1,8.5-3.14,12.76
	c-0.17,0.71,0.16,0.94,0.84,0.93c1.67-0.02,3.34-0.02,5.01,0.03c0.83,0.03,0.95-0.27,0.77-1.01c-0.39-1.57-0.7-3.16-1.07-4.74
	C233.39,613.53,232.72,610.78,231.98,607.65z"/>
<path class="st0" d="M453.8,600.97c0.34,0.04,0.69,0.08,1.03,0.12c0.1,0.04,0.2,0.08,0.29,0.12c0.11,0.04,0.22,0.07,0.32,0.11
	c0.07,0.06,0.14,0.11,0.21,0.17c3.12,1.06,5.02,3.31,6.07,6.34c0.25,0.74,0.43,1.5,0.64,2.25c0.06,0.26,0.11,0.52,0.17,0.78
	c0.02,0.44,0.04,0.89,0.06,1.33c-0.01,0.97-0.01,1.94-0.02,2.91c-0.54,6.97-3.16,13.15-7.09,18.85c-0.24,0.35-0.47,0.45-0.85,0.45
	c-2.12-0.01-4.23,0-6.35-0.02c-0.28,0-0.69,0.11-0.82-0.24c-0.12-0.32,0.21-0.55,0.42-0.76c3.11-3.25,5.3-7.1,7.25-11.11
	c0.21-0.43,0.41-0.87,0.21-1.45c-1.32,0.32-2.57,0.83-3.94,0.95c-4.14,0.38-7.16-1.3-8.99-5.04c-1.91-3.91-1.25-10.19,1.86-13.19
	c2-1.93,4.47-2.53,7.11-2.72c0.61-0.05,1.23-0.01,1.85-0.02C453.41,601,453.59,601.03,453.8,600.97z M447.99,611.53
	c0,0.53-0.04,1.06,0.01,1.58c0.17,1.92,1.65,3.65,3.25,3.85c2.14,0.26,3.59-0.61,4.32-2.78c0.63-1.88,0.57-3.81-0.09-5.7
	c-0.54-1.54-1.92-2.59-3.44-2.63c-1.55-0.04-2.94,0.92-3.59,2.44C448,609.34,447.91,610.42,447.99,611.53z"/>
<path class="st0" d="M164.6,601.61c3.13,0,6.26,0.03,9.39-0.02c0.89-0.01,1.28,0.21,1.22,1.17c-0.08,1.32-0.1,2.65-0.02,3.96
	c0.06,0.99-0.35,1.2-1.22,1.19c-3.75-0.04-7.5,0.02-11.24-0.07c-1.26-0.03-1.77,0.29-1.62,1.61c0.12,1.05,0.07,2.11,0.03,3.17
	c-0.03,0.86,0.3,1.14,1.16,1.13c2.38-0.05,4.76,0.01,7.14-0.03c0.91-0.01,1.26,0.29,1.21,1.23c-0.06,1.28-0.06,2.56,0.02,3.83
	c0.06,0.92-0.31,1.12-1.14,1.11c-2.38-0.04-4.76,0.03-7.14-0.05c-1.03-0.03-1.26,0.35-1.25,1.29c0.04,3.79-0.01,7.58,0.04,11.37
	c0.02,1.07-0.29,1.5-1.41,1.43c-1.45-0.09-2.91-0.11-4.36-0.01c-1.13,0.07-1.4-0.34-1.39-1.41c0.04-7.63,0.03-15.26,0.03-22.88
	c0-2.34,0.03-4.67-0.03-7.01c-0.02-0.83,0.24-1.04,1.05-1.03C158.25,601.64,161.42,601.61,164.6,601.61z"/>
<path class="st0" d="M123.74,620.96c0,3.92-0.03,7.85,0.02,11.77c0.01,0.92-0.26,1.24-1.2,1.19c-1.54-0.07-3.09-0.09-4.63,0
	c-1.09,0.06-1.29-0.38-1.29-1.36c0.03-7.67-0.02-15.35,0.04-23.02c0.01-1.34-0.34-1.76-1.68-1.66c-1.76,0.12-3.53,0-5.29,0.03
	c-0.86,0.02-1.3-0.19-1.24-1.18c0.09-1.41,0.05-2.82,0.01-4.23c-0.02-0.68,0.2-0.91,0.9-0.91c7.19,0.02,14.38,0.02,21.57,0
	c0.81,0,0.96,0.34,0.94,1.03c-0.03,1.37-0.04,2.73,0,4.1c0.03,0.86-0.29,1.18-1.15,1.16c-1.94-0.03-3.88,0.04-5.82-0.02
	c-0.92-0.03-1.24,0.25-1.23,1.19c0.04,3.97,0.02,7.94,0.02,11.9C123.72,620.96,123.73,620.96,123.74,620.96z"/>
<path class="st0" d="M525.07,615.12c0,4.06,0.04,8.11-0.02,12.17c-0.02,1.14,0.41,1.46,1.47,1.4c1.23-0.07,2.47-0.01,3.7-0.05
	c0.81-0.02,1.22,0.21,1.13,1.14c-0.1,1.05-0.08,2.11-0.03,3.17c0.03,0.65-0.11,0.96-0.85,0.96c-5.69-0.02-11.38-0.01-17.06,0.01
	c-0.68,0-0.96-0.24-0.95-0.92c0.02-1.1,0.01-2.2-0.03-3.31c-0.02-0.8,0.33-1.1,1.11-1.07c1.32,0.04,2.65,0,3.97,0.04
	c0.82,0.02,1.14-0.23,1.13-1.13c-0.04-6.48-0.03-12.96,0.02-19.44c0.01-0.93-0.24-1.26-1.18-1.22c-1.45,0.06-2.91-0.02-4.36,0.02
	c-0.81,0.02-1.1-0.29-1.07-1.09c0.04-1.14,0.02-2.29-0.01-3.44c-0.01-0.56,0.2-0.78,0.77-0.77c3.79,0.02,7.58,0.04,11.38,0
	c1-0.01,0.88,0.61,0.88,1.22C525.06,606.92,525.06,611.02,525.07,615.12L525.07,615.12z"/>
<path class="st0" d="M181.86,617.69c0-3.97-0.03-7.94,0.02-11.9c0.01-1.03-0.28-1.47-1.33-1.33c-0.26,0.03-0.53-0.01-0.79-0.01
	c-1.48-0.02-2.1-0.98-1.58-2.39c0.17-0.46,0.52-0.42,0.86-0.42c4.28-0.01,8.55,0.01,12.83-0.01c0.9,0,0.9,0.56,0.81,1.14
	c-0.1,0.62,0.51,1.64-0.82,1.66c-0.66,0.01-1.32,0.05-1.98,0.03c-0.68-0.02-0.89,0.27-0.89,0.95c0.02,8.2,0.02,16.4,0,24.6
	c0,0.81,0.27,1.13,1.07,1.02c0.3-0.04,0.62-0.02,0.92-0.02c1.76,0,1.72,0,1.75,1.79c0.01,0.81-0.15,1.16-1.07,1.15
	c-4.1-0.05-8.2-0.06-12.3,0.02c-1.21,0.02-1.23-0.58-1.2-1.45c0.03-0.8-0.16-1.54,1.14-1.53c2.57,0.01,2.57-0.06,2.57-2.69
	C181.85,624.74,181.85,621.22,181.86,617.69C181.85,617.69,181.85,617.69,181.86,617.69z"/>
<path class="st0" d="M370.98,617.61c0,4.01,0.02,8.03-0.02,12.04c-0.01,1.04,0.35,1.48,1.39,1.33c0.3-0.04,0.62,0.02,0.92-0.02
	c1.18-0.17,1.47,0.34,1.46,1.48c-0.01,1.1-0.2,1.53-1.43,1.5c-3.97-0.09-7.94-0.09-11.91-0.01c-1.28,0.03-1.16-0.69-1.19-1.49
	c-0.04-0.89,0.02-1.49,1.23-1.48c2.44,0.02,2.43-0.05,2.43-2.55c-0.01-7.28,0.01-14.55-0.01-21.83c-0.01-2.25,0.39-2.18-2.11-2.12
	c-1.22,0.03-1.63-0.38-1.57-1.58c0.04-0.9,0.19-1.32,1.25-1.31c4.06,0.07,8.12,0.06,12.17,0.01c0.91-0.01,1.2,0.33,1.09,1.15
	c-0.09,0.69,0.38,1.61-0.99,1.69c-2.72,0.15-2.71,0.21-2.71,3C370.98,610.82,370.98,614.22,370.98,617.61z"/>
<path class="st0" d="M284.9,617.78c0,3.97,0.03,7.93-0.02,11.9c-0.01,1.01,0.24,1.5,1.32,1.32c0.26-0.04,0.53-0.01,0.79-0.01
	c1.49,0.01,2.14,1.06,1.59,2.49c-0.17,0.44-0.52,0.43-0.86,0.43c-4.23,0.01-8.46-0.01-12.7,0.01c-1.11,0-0.89-0.78-0.85-1.38
	c0.05-0.59-0.47-1.55,0.79-1.54c0.09,0,0.18,0,0.26,0c2.53-0.11,2.55-0.11,2.55-2.59c0.02-7.27,0.02-14.54,0.02-21.82
	c0-2.11-0.02-2.11-2.13-2.16c-1.38-0.03-2.08-1.26-1.45-2.5c0.19-0.37,0.49-0.32,0.79-0.32c4.23-0.01,8.46,0.01,12.7-0.01
	c0.96-0.01,0.94,0.6,0.9,1.23s0.34,1.52-0.8,1.6c-0.53,0.03-1.06,0.05-1.58-0.02c-1.08-0.15-1.36,0.32-1.35,1.34
	C284.91,609.76,284.89,613.77,284.9,617.78C284.89,617.78,284.89,617.78,284.9,617.78z"/>
<path class="st0" d="M146.13,617.7c0,4.01,0.03,8.02-0.02,12.03c-0.01,0.99,0.29,1.39,1.27,1.26c0.22-0.03,0.44-0.01,0.66-0.01
	c1.75,0,2.27,0.7,1.82,2.41c-0.12,0.47-0.42,0.5-0.79,0.5c-4.28,0-8.55-0.01-12.83,0.02c-0.92,0.01-0.89-0.6-0.8-1.15
	c0.1-0.63-0.54-1.61,0.72-1.76c0.44-0.05,0.9-0.1,1.32-0.01c1.38,0.26,1.61-0.45,1.6-1.62c-0.04-7.76-0.03-15.52-0.05-23.27
	c0-1.69-0.01-1.69-1.79-1.66c-1.87,0.03-1.95-0.1-1.83-1.91c0.05-0.78,0.39-0.94,1.08-0.93c4.1,0.02,8.2,0.05,12.3-0.01
	c1.24-0.02,1.04,0.71,1.06,1.45c0.02,0.82,0,1.44-1.15,1.41c-2.57-0.06-2.57,0-2.58,2.53C146.12,610.56,146.13,614.13,146.13,617.7
	L146.13,617.7z"/>
<path class="st4" d="M169.16,512.33c0.54-0.96,1.18-1.66,2.37-0.91c0.41,0.26,0.86,0.17,1.29,0.17c11.87,0,23.73-0.01,35.6,0.02
	c0.78,0,1.57-0.51,2.4,0.07c0.16,0.11,1.12-0.44,1.08-1.19c-0.26-4.71-0.06-9.43-0.1-14.14c-0.01-1.2-0.05-1.97-1.68-1.58
	c-0.71,0.17-1.63-0.15-2.47-0.15c-18.79,0-37.58,0.01-56.37-0.02c-1,0-1.96,0.37-2.99,0.1c-0.41-0.11-0.76,0.28-0.93,0.76
	c-0.22,0.61-0.2,1.21-0.2,1.82c0,28.4,0,56.8,0,85.2c0,0.46-0.16,0.97,0.31,1.47c0.39-0.72,0.9-0.41,1.53-0.38
	c0.98,0.05,1.93,0.28,2.91,0.27c3.84-0.01,7.68-0.08,11.51,0.02c1.87,0.05,3.64-0.27,5.39-0.84c0.23,1.08-0.25,1.36-1.29,1.35
	c-6.57-0.03-13.15-0.04-19.72,0.01c-1.02,0.01-1.22-0.31-1.22-1.27c0.03-29.34,0.03-58.67-0.02-88.01c0-1.36,0.73-1.14,1.47-1.14
	c12.31,0,24.62,0.02,36.93,0.02c8.74,0,17.47,0.01,26.21-0.03c1.08-0.01,1.42,0.24,1.4,1.38c-0.07,5.29-0.05,10.59-0.02,15.88
	c0.01,0.83-0.15,1.15-1.06,1.15c-13.99-0.03-27.98-0.02-41.96-0.03C169.43,512.37,169.29,512.34,169.16,512.33z"/>
<path class="st4" d="M495.65,494.19c-1.21,0.15-2.42,0.42-3.63,0.43c-8.61,0.04-17.21,0.04-25.82,0c-1.26-0.01-2.51,0.38-3.78,0.05
	c-0.48-0.13-0.79,0.19-0.96,0.69c-0.19,0.56-0.24,1.11-0.24,1.69c0,27.66,0,55.33,0.01,82.99c0,0.57,0.15,1.13,0.16,1.7
	c0.02,2.12,0.01,2.12,2.17,2.12c4.99,0,9.98-0.06,14.96,0.04c1.27,0.03,2.38-0.42,3.56-0.63c0.79-0.14,0.59-0.88,0.59-1.42
	c0.01-6.88,0.03-13.77-0.01-20.65c-0.01-2.24,0.05-4.48-0.13-6.73c-0.09-1.15-0.17-2.52,0.44-3.7c0,10.71-0.03,21.43,0.01,32.14
	c0,1.2-0.3,1.51-1.5,1.5c-6.48-0.06-12.96-0.06-19.45-0.01c-1.13,0.01-1.35-0.32-1.35-1.4c0.03-29.23,0.02-58.46,0.03-87.69
	c0-0.46-0.16-0.99,0.31-1.35c4.96,0.02,9.93,0.05,14.9,0.05c3.03,0,6.06-0.04,9.09-0.06c0.3,0.01,0.6,0.01,0.9,0.02
	c1.11,0.13,2.23,0.15,3.35,0.05C491.39,494.09,493.52,494.14,495.65,494.19z"/>
<path class="st4" d="M450.6,582.54c-0.54-0.28-0.53-0.76-0.47-1.26c0.53-4.22,0.1-8.45,0.23-12.67c0.02-0.69-0.4-0.92-1.03-0.9
	c-2.2,0.06-4.38-0.3-6.59-0.29c-12,0.05-24.01,0.04-36.01,0c-1.11,0-2.17,0.32-3.28,0.29c-1.5-0.04-2.15-0.82-1.89-2.28
	c0.06-0.34,0.08-0.7,0.08-1.05c0-5.52-0.02-11.03,0.02-16.54c0.01-0.74-0.32-1.42-0.15-2.2c0.21-1.02,0.8-1.39,1.68-1.19
	c1.8,0.41,3.6,0.21,5.4,0.22c6.49,0.03,12.97-0.01,19.46,0.03c1.24,0.01,2.44-0.29,3.67-0.31c0.72-0.02,1.09-0.62,1.1-1.25
	c0.05-4.18,0.06-8.35,0.04-12.53c0-0.65-0.17-1.3-0.27-1.95c-0.08-0.48-0.41-0.64-0.86-0.64c-8.94,0-17.89-0.01-26.83-0.01
	c-0.35,0-0.74-0.11-1.02,0.16c-0.72,0.69-1.07,0.15-1.43-0.4c0.44-0.02,0.88-0.04,1.32-0.04c9.78-0.01,19.57-0.02,29.35-0.02
	c0.28,0.29,0.21,0.66,0.21,1c0.01,5.1,0.01,10.2,0.01,15.29c0,0.34,0.08,0.71-0.21,0.99c-10.06-0.01-20.13-0.02-30.19-0.02
	c-0.24,0-0.53-0.11-0.7,0.19c-0.03,7.05-0.05,14.09-0.09,21.14c0,0.53,0.18,0.68,0.69,0.65c0.7-0.04,1.41-0.01,2.11-0.01
	c14.67,0,29.35,0.01,44.02-0.03c1.23,0,1.75,0.18,1.71,1.63C450.56,573.21,450.62,577.88,450.6,582.54z"/>
<path class="st4" d="M32,583.37c0.96,0.54,2,0.51,3.05,0.5c5.47-0.02,10.94-0.01,16.4-0.01c2.01,0,2.51-0.5,2.51-2.43
	c0-27.77,0-55.55-0.01-83.32c0-3.11,0.79-3.55-3.42-3.48c-0.47,0.01-1.1,0.3-1.35-0.44c1.41-0.02,2.82-0.02,4.23-0.08
	c0.67-0.03,0.99,0.18,0.96,0.88c-0.03,0.62-0.01,1.23-0.01,1.85c0.01,28.74,0.01,57.48,0.03,86.21c0,0.82,0.05,1.38-1.12,1.37
	c-7.1-0.06-14.2-0.04-21.29-0.05C31.98,584.03,31.99,583.7,32,583.37z"/>
<path class="st4" d="M379.97,495.44c0.41,0.46,0.23,1.01,0.23,1.52c0.01,28.4,0.01,56.8,0.01,85.2c0,0.35-0.02,0.71,0.01,1.06
	c0.06,0.62,0.18,1.06,0.96,0.51c0.48-0.34,1.09-0.58,1.69-0.05c0.36,0.31,0.85,0.17,1.28,0.17c20.51,0,41.02,0.01,61.54-0.02
	c1.02,0,2.08,0.09,3.1-0.19c0.58-0.16,0.82,0.14,0.81,0.69c-0.84,0.02-1.67,0.05-2.51,0.05c-21.93,0-43.87,0-65.8,0.01
	c-0.89,0-1.4,0-1.4-1.2c0.04-28.99,0.04-57.98,0.04-86.96C379.92,495.97,379.95,495.71,379.97,495.44z"/>
<path class="st4" d="M168.83,582.54c-0.29-0.82-0.47-1.63-0.25-2.53c0.28-1.13-0.24-2.25-0.24-3.4c0.04-9.48,0.02-18.96,0.02-28.44
	c0-0.61-0.03-1.21-0.18-1.83c-0.35-1.39,0.69-2.32,2.13-2.02c1.12,0.24,2.24,0.37,3.39,0.37c7.41-0.03,14.82-0.02,22.23-0.01
	c1.14,0,1.77-0.07,1.89-1.63c0.36-4.54,0.03-9.07,0.2-13.6c0.03-0.91-0.26-1.36-1.19-1.18c-2.67,0.51-5.36,0.19-8.04,0.24
	c-2.95,0.06-5.91,0.04-8.87,0c-1.61-0.02-3.21,0.14-4.83-0.42c-1.07-0.37-2.32-0.11-3.51,0.23c-0.91,0.26-2.08,0.8-2.66-0.65
	c9.4,0.01,18.8,0.04,28.19-0.01c1.16-0.01,1.46,0.28,1.44,1.44c-0.07,4.81-0.07,9.62,0,14.42c0.02,1.13-0.22,1.48-1.43,1.47
	c-8.91-0.06-17.83,0-26.74-0.07c-1.34-0.01-1.55,0.4-1.55,1.61c0.05,11.47,0.03,22.94,0.03,34.41
	C168.88,581.49,168.84,582.01,168.83,582.54z"/>
<path class="st4" d="M64.3,571.95c0.43,0.45,0.23,1.01,0.24,1.51c0.03,3.34-0.1,6.68,0.5,9.99c0.14,0.75,0.38,0.94,1.07,0.94
	c5.56-0.02,11.12-0.03,16.67,0.01c0.79,0.01,1.07-0.29,1.22-1c0.1-0.48,0.18-0.96,0.13-1.44c-0.32-3.2-0.07-6.39-0.04-9.59
	c0.12-14.38,0.04-28.75,0.07-43.13c0-1.3-0.51-2.49-0.64-3.75c-0.03-0.3-0.27-0.66,0.05-0.84c0.41-0.24,0.1-1.09,0.67-0.95
	c0.79,0.2,1.52,0.78,1.87,1.49c1.77,3.52,4.18,6.67,5.81,10.27c0.32,0.71,0.7,1.62,1.65,1.95c0.31,0.11,0.5,0.49,0.24,0.75
	c-0.41,0.42-0.02,0.84-0.13,1.24c-2.63-4.47-5.25-8.94-7.88-13.4c-0.34-0.58-0.7-1.16-1.04-1.74c-0.11,0.02-0.22,0.05-0.33,0.07
	c0,0.54,0,1.09,0,1.63c0.05,19,0.07,38,0.17,57c0.01,1.38-0.37,1.66-1.69,1.65c-5.78-0.08-11.55-0.06-17.33-0.01
	c-1.12,0.01-1.38-0.32-1.36-1.4C64.31,579.45,64.29,575.7,64.3,571.95z"/>
<path class="st4" d="M268.97,313.56c0.04-0.66-0.2-0.89-0.87-0.63c-1.53,0.6-3.09,1.11-4.6,1.75c-1.85,0.79-3.67,1.63-5.46,2.53
	c-0.64,0.33-1.19,0.05-1.78,0.06c2.21-1.22,4.58-2.06,6.9-3.02c5.7-2.35,11.42-4.69,17.19-6.87c8.39-3.17,16.84-6.19,25.38-8.93
	c0.7-0.22,1.39-0.59,2.32-0.42c-2.84,0.99-5.59,1.82-8.24,2.91c-3.1,1.27-6.27,2.37-9.37,3.65c-3.64,1.5-7.31,2.96-10.96,4.46
	c-1.92,0.78-3.82,1.59-5.73,2.39c0.1-0.24,0.28-0.56-0.08-0.65c-0.53-0.13-0.92,0.19-1.4,0.65c0.6,0,1.04,0,1.47,0
	c-0.58,0.45-1.25,0.7-1.97,0.83c-0.53-0.09,0.23-0.8-0.38-0.82c-0.81-0.03-1.42,0.37-2.02,0.92c0.91,0.77,1.61-0.41,2.4-0.08
	C270.89,312.85,269.94,313.22,268.97,313.56z"/>
<path class="st4" d="M429.71,283.41c4.16,1.04,7.46,3.54,10.67,6.23c1.99,1.67,2.98,3.9,3.87,6.21c0.26,0.67,0.65,1.3,0.96,1.91
	c0.79,1.6,0.44,3.23,0.66,4.83c0.4,2.82-0.22,5.57-0.88,8.25c-0.53,2.14-1.8,4.08-2.42,6.21c-0.53,1.81-1.62,3.29-2.28,5.01
	c-0.41,1.07-1.29,1.96-2,2.9c-1.44,1.9-2.99,3.77-4.22,5.76c-0.7,1.14-2.01,1.77-2.34,3.15c-0.2,0.82-0.99,0.91-1.73,0.87
	c3.82-4.56,7.53-9.22,10.36-14.46c2.14-3.96,4.06-8.1,4.76-12.62c0.66-4.28,0.47-8.52-1.53-12.47c-2.16-4.25-5.54-7.32-9.76-9.5
	c-1.32-0.68-2.6-1.45-4.03-1.9C429.72,283.77,429.73,283.54,429.71,283.41z"/>
<path class="st4" d="M248.05,320.96c-0.17,0.43-0.49,0.8-0.88,0.95c-2.32,0.9-4.57,2.02-6.72,3.19c-1.39,0.76-2.97,1.06-4.36,1.95
	c-1.22,0.78-2.65,1.78-4.33,2.07c-0.94,0.16-2.04,0.79-2.72,1.48c-1.39,1.41-3.34,1.56-4.94,2.49c-1.62,0.94-3.46,1.66-5.13,2.6
	c-1,0.57-2.06,1.05-3,1.79c-0.98,0.77-2.3,1.02-3.42,1.69c-3.23,1.92-6.58,3.63-9.88,5.43c-0.72,0.39-1.51,0.55-2.28,0.75
	c1.41-1.21,3.12-1.96,4.71-2.84c9.24-5.12,18.56-10.12,28.09-14.69c4.54-2.18,9.1-4.33,13.66-6.48
	C247.23,321.15,247.65,321.08,248.05,320.96z"/>
<path class="st4" d="M108.07,423.85c0.38,1.55-0.95,2.47-1.43,3.7c-0.48,1.22-1.18,2.38-1.74,3.59c-1.46,3.16-2.39,6.49-3.4,9.8
	c-0.18,0.58-0.13,1.22-0.28,1.81c-0.7,2.72-0.65,5.54-0.24,8.22c0.47,3.11,0.95,6.48,3.08,8.93c1.38,1.59,1.95,3.7,3.76,5.06
	c0.75,0.56,2.04,1.22,2.13,2.56c-1-0.46-1.83-1.16-2.56-1.94c-3.47-3.74-5.82-8.02-6.81-13.12c-1.18-6.05,0.15-11.73,2.02-17.36
	C103.91,431.11,105.93,427.44,108.07,423.85z"/>
<path class="st4" d="M187.19,353.17c0.39,0.84-0.33,1.18-0.81,1.38c-2.6,1.04-4.56,3.08-7.01,4.35c-0.65,0.34-1.4,0.84-1.9,1.61
	c-0.45,0.69-1.06,1.43-2.14,1.26c-0.58-0.09-1.14,0.32-1.36,0.69c-0.72,1.24-2.03,1.41-3.12,1.96c-0.19,0.1-0.44,0.16-0.56,0.32
	c-1.39,1.8-3.85,2.24-5.23,3.84c-1.46,1.69-3.58,2.25-5.06,3.76c-0.48,0.49-1.01,1.06-1.82,0.58c3.52-2.81,7.18-5.41,10.89-7.94
	c5.33-3.64,10.75-7.13,16.15-10.67C185.85,353.88,186.53,353.54,187.19,353.17z"/>
<path class="st4" d="M273.25,495.95c-0.86,0.09-1.53-0.28-2.31-0.63c-1.69-0.76-3.59-1.07-5.32-1.75c-2.49-0.97-5.17-0.58-7.71-1.22
	c-1.31-0.33-2.82,0.05-4.23,0.16c-0.76,0.06-1.55-0.47-2.1-0.32c-2.76,0.73-5.64,0.37-8.41,1.22c-1.75,0.54-3.52,1.37-5.46,1.21
	c2.61-1.31,5.45-1.82,8.28-2.34c3.83-0.7,7.71-0.74,11.57-0.49C263.04,492.13,268.37,493.22,273.25,495.95z"/>
<path class="st4" d="M86.88,494.57c-1.28,0.31-2.53-0.18-3.79-0.18c-5.55,0-11.1,0-16.65,0c-1.68,0-2.15,0.46-2.15,2.17
	c-0.01,7.79,0,15.59-0.01,23.38c0,0.47,0.14,0.97-0.16,1.41c-0.03-1.23-0.08-2.46-0.08-3.69c-0.01-7.48,0-14.96-0.04-22.44
	c-0.01-1,0.29-1.26,1.26-1.25c6.78,0.05,13.56,0.03,20.34,0.06C86.06,494.04,86.71,493.77,86.88,494.57z"/>
<path class="st4" d="M128.63,398.27c0.1,0.75-0.38,1.28-0.84,1.69c-0.59,0.53-1.21,0.98-1.35,1.84c-0.01,0.08-0.07,0.17-0.13,0.22
	c-1.85,1.31-3.06,3.24-4.64,4.78c-1.58,1.53-3.02,3.11-4.15,4.98l0,0c-1.12,0.45-1.47,1.66-2.35,2.37
	c-0.27,0.22-0.43,0.55-0.83,0.55c1.03-1.93,2.53-3.53,3.91-5.19c3.05-3.65,6.23-7.19,9.59-10.55
	C128.09,398.71,128.36,398.5,128.63,398.27z"/>
<path class="st4" d="M527.38,536.84c-0.32-1.03,0.4-1.8,0.69-2.67c0.82-2.49,2.26-4.79,2.07-7.57c-0.05-0.74,0.39-1.42,0.5-2.17
	c0.49-3.39-0.66-6.54-1.1-9.8c-0.33-2.4-2.01-4.18-2.1-6.54c1.3,1.38,1.75,3.19,2.29,4.89c1.02,3.26,1.55,6.64,1.38,10.06
	C530.86,527.9,530.01,532.62,527.38,536.84z"/>
<path class="st4" d="M434.24,282.86c-1.22,0.54-2.33-0.16-3.42-0.45c-0.92-0.25-1.78-0.37-2.73-0.29c0.04,0.6,0.94,0.58,0.84,1.23
	c-3.86-1.13-7.69-2.38-11.68-3.14c2.15,0.18,4.32,0.27,6.46,0.57c3.39,0.47,6.78,1.03,10.12,1.82
	C434.01,282.64,434.17,282.67,434.24,282.86z"/>
<path class="st4" d="M64.13,529.36c0.14,1.78,0.36,3.56,0.4,5.35c0.06,3.56,0.16,7.13-0.02,10.69c-0.14,2.72-0.34,5.45-0.16,8.15
	c0.19,2.94,0.18,5.88,0.2,8.82c0,0.46,0.18,0.98-0.24,1.38c-0.04-5.02-0.09-10.05-0.11-15.07
	C64.16,542.23,64.15,535.79,64.13,529.36z"/>
<path class="st4" d="M200.4,345.34c-0.3,1.15-1.46,1.37-2.26,1.84c-3.01,1.75-5.93,3.61-8.73,5.68c-0.58,0.43-1.31,1.04-2.08,0.19
	c4.08-2.63,8.28-5.07,12.47-7.51C200.01,345.41,200.19,345.37,200.4,345.34z"/>
<path class="st4" d="M234.53,582.29c1.63-0.29,2.75,0.91,4.12,1.38c2.08,0.71,4.16,1.34,6.38,1.68c2.09,0.32,4.19,0.38,6.27,0.62
	c0.47,0.05,0.76,0.16,0.74,0.68c-5.61-0.18-11.05-1.19-16.16-3.59C235.41,582.84,234.97,582.55,234.53,582.29z"/>
<path class="st4" d="M387.34,370.95c0.17,0.36,0.18,0.62-0.27,0.84c-1.17,0.57-2.33,1.17-3,2.42c-0.12,0.22-0.51,0.32-0.79,0.41
	c-1.67,0.52-2.91,1.77-4.39,2.53c-1.15,0.59-2.22,1.62-3.68,1.57C379.25,376.13,383.3,373.54,387.34,370.95z"/>
<path class="st4" d="M256.27,586.6c1.22-1.01,2.8-0.35,4.13-0.88c1.88-0.75,4.04-0.12,5.87-1.16c0.11-0.06,0.29-0.06,0.36-0.15
	c1.1-1.41,2.58-0.86,3.97-0.79c-3.04,1.49-6.33,2.09-9.63,2.63C259.41,586.5,257.84,586.57,256.27,586.6z"/>
<path class="st4" d="M148.82,380.17c0.04,0.12,0.15,0.33,0.12,0.35c-0.95,0.67-1.03,2.02-2.4,2.52c-1.26,0.46-2.8,1.1-3.09,2.83
	c-0.04,0.23-0.11,0.31-0.4,0.36c-0.8,0.12-1.09,1.94-2.33,0.71c1.86-1.87,4-3.4,5.98-5.12
	C147.37,381.23,148.11,380.72,148.82,380.17z"/>
<path class="st1" d="M433.14,527.7c-9.78,0.01-19.57,0.01-29.35,0.02c-0.44,0-0.88,0.03-1.32,0.04c-0.07-0.09-0.14-0.17-0.21-0.26
	c10.01-0.01,20.01-0.02,30.02-0.03C432.58,527.48,432.9,527.43,433.14,527.7z"/>
<path class="st1" d="M402.25,545.17c0.17-0.3,0.46-0.19,0.7-0.19c10.06,0,20.13,0.01,30.19,0.02c-0.2,0.22-0.47,0.21-0.73,0.21
	C422.36,545.19,412.3,545.18,402.25,545.17z"/>
<path class="st4" d="M158.06,373.04c0.65,0.47,0.09,0.67-0.21,0.91c-0.55,0.45-1.36,0.55-1.68,1.3l0,0
	c-1.21,0.4-1.83,1.55-2.82,2.24c-0.72,0.5-1.2,1.36-2.23,1.39c-0.26,0.01-0.49,0.22-0.57,0.49c-0.28,0.87-0.89,0.95-1.65,0.7
	C151.9,377.66,154.84,375.17,158.06,373.04z"/>
<path class="st4" d="M284.66,507.33c-1.2,0.1-1.32-1.03-1.63-1.67c-1.15-2.4-3.08-4.1-4.91-5.89c-0.31-0.3-0.81-0.45-0.47-1.02
	C280.68,501.04,283.11,503.82,284.66,507.33z"/>
<path class="st4" d="M114.33,414.7c0.07,0.6-0.07,1.16-0.45,1.6c-1.91,2.21-3.47,4.65-4.9,7.19c-0.2,0.36-0.46,0.51-0.86,0.3
	C109.96,420.59,111.9,417.48,114.33,414.7z"/>
<path class="st1" d="M485,493.97c-3.03,0.02-6.06,0.06-9.09,0.06c-4.97,0-9.93-0.03-14.9-0.05c0.25-0.05,0.51-0.14,0.76-0.14
	c7.49-0.01,14.97,0,22.46,0C484.49,493.85,484.74,493.93,485,493.97z"/>
<path class="st4" d="M104.4,524.41c-0.48,0.22-0.73-0.05-0.94-0.43c-1.33-2.31-2.66-4.62-3.99-6.93c-0.23-0.4-0.25-0.83-0.18-1.28
	C101.12,518.58,102.74,521.5,104.4,524.41z"/>
<path class="st4" d="M270.58,583.63c0.02-0.65,0.34-1.06,0.99-1.19c2.13-0.45,3.75-1.81,5.43-3.05c0.43-0.31,0.77-0.76,1.36-0.33
	C276.05,581.05,273.5,582.65,270.58,583.63z"/>
<path class="st4" d="M256.27,317.27c-0.01,0.75-0.49,1.07-1.13,1.23c-1.89,0.46-3.59,1.4-5.27,2.3c-0.67,0.36-1.19,0.38-1.82,0.18
	C250.69,319.53,253.45,318.35,256.27,317.27z"/>
<path class="st4" d="M133.49,393.39c0.05,1.01-0.32,1.76-1.22,2.33c-0.68,0.43-1.35,1-1.8,1.65c-0.49,0.71-1.04,0.99-1.85,0.91
	C130.24,396.65,131.87,395.02,133.49,393.39z"/>
<path class="st4" d="M230.68,498.5c0.29,0.89-0.65,1.04-0.99,1.51c-1.03,1.41-2.29,2.64-3.92,3.39
	C227.12,501.48,228.74,499.83,230.68,498.5z"/>
<path class="st4" d="M417.29,347.75c0.07,0.67-0.37,1.07-0.83,1.4c-0.85,0.59-1.56,1.3-2.19,2.13c-0.38,0.5-0.96,0.72-1.61,0.45
	C414.12,350.31,415.54,348.84,417.29,347.75z"/>
<path class="st1" d="M263.7,322.31c-0.1-0.26-0.34-0.26-0.55-0.29c1.54-1.13,3.27-1.92,5.08-2.54
	C266.85,320.64,265.3,321.52,263.7,322.31z"/>
<path class="st4" d="M428.45,336.48c0.16,0.23,0.31,0.57,0.11,0.72c-1.19,0.95-1.83,2.54-3.44,3.01
	C426,338.77,427.23,337.63,428.45,336.48z"/>
<path class="st4" d="M420.85,344.43c0.3,0.78-0.46,1.1-0.82,1.32c-0.96,0.6-1.17,2.25-2.73,1.98
	C418.29,346.42,419.5,345.35,420.85,344.43z"/>
<path class="st4" d="M278.47,578.96c-0.04-0.16-0.17-0.37-0.11-0.47c0.73-1.19,1.71-2.11,3.08-2.54
	C280.65,577.16,279.61,578.1,278.47,578.96z"/>
<path class="st4" d="M140.6,387.05c0.16,0.23,0.31,0.57,0.11,0.72c-0.99,0.73-1.45,2.26-3.06,2.06
	C138.43,388.68,139.52,387.87,140.6,387.05z"/>
<path class="st4" d="M424.42,340.84c0.07,0.54-0.2,0.91-0.58,1.22c-0.69,0.55-1.27,1.07-1.43,2.09c-0.11,0.72-0.82-0.09-1.26,0.02
	C422.11,342.94,423.24,341.86,424.42,340.84z"/>
<path class="st4" d="M110.86,468.2c0.95,0.02,1.78,0.41,2.6,0.82c0.58,0.29,0.65,0.66,0.18,1.12
	C112.65,469.57,111.64,469.04,110.86,468.2z"/>
<path class="st4" d="M99.11,515.35c-0.66,0.39-0.84-0.16-1.04-0.57c-0.38-0.79-1.16-1.46-0.77-2.49
	C97.9,513.31,98.5,514.33,99.11,515.35z"/>
<path class="st4" d="M89.23,498.58c-1.22-0.42-1.97-1.75-1.7-2.98C88.19,496.53,88.79,497.51,89.23,498.58z"/>
<path class="st4" d="M91.02,501.81c-1.12-0.35-1.79-1.56-1.8-3.24C89.96,499.57,90.67,500.59,91.02,501.81z"/>
<path class="st4" d="M276.7,498.06c-1.23-0.58-2.91-0.44-3.46-2.13C274.54,496.4,275.62,497.24,276.7,498.06z"/>
<path class="st4" d="M525.84,537.53c0.15-0.2,0.34-0.38,0.43-0.61c0.38-0.92,0.68-0.37,0.99,0.04c-0.28,0.85-0.87,1.49-1.41,2.17
	C525.85,538.6,525.84,538.07,525.84,537.53z"/>
<path class="st4" d="M137.65,389.83c0.11,1.77-1.5,1.53-2.43,2.09C135.95,391.14,136.6,390.25,137.65,389.83z"/>
<path class="st4" d="M405.87,357.49c-0.22,1.17-0.83,1.84-2.12,1.61C404.37,358.45,405.1,357.95,405.87,357.49z"/>
<path class="st4" d="M225.61,503.56c0.09,0.08,0.27,0.22,0.27,0.22c-0.65,0.84-0.83,2.06-1.98,2.49
	C224.31,505.27,224.93,504.4,225.61,503.56z"/>
<path class="st4" d="M412.54,351.84c0.22,1.18-0.05,1.43-1.46,1.35C411.36,352.52,411.9,352.13,412.54,351.84z"/>
<path class="st4" d="M93.68,539.39c1.34,0.42,1.3,1.65,1.58,2.69C94.62,541.24,94.08,540.36,93.68,539.39z"/>
<path class="st4" d="M134.99,392.16c-0.2,1.8-0.27,1.86-1.43,1.18C134.03,392.95,134.51,392.55,134.99,392.16z"/>
<path class="st4" d="M97.24,512.2c-0.29,0.28-0.57,0.42-0.76-0.09c-0.22-0.6-0.5-1.19-0.41-1.86
	C96.46,510.9,96.85,511.55,97.24,512.2z"/>
<path class="st4" d="M429.98,334.74c0.04,1-0.26,1.71-1.44,1.65C429.06,335.88,429.27,335.09,429.98,334.74z"/>
<path class="st1" d="M414.89,332.1c-0.52,0.2-1.19,0.19-1.43-0.19c-0.25-0.39,0.21-0.86,0.64-1.13
	C413.89,331.5,414.38,331.8,414.89,332.1z"/>
<path class="st4" d="M233.86,496.37c0.2,1.55-1.08,0.88-1.73,1.15C232.6,496.98,233.25,496.7,233.86,496.37z"/>
<path class="st4" d="M237.72,494.6c-0.65,0.72-1.34,1.35-2.43,1.05C236.05,495.19,236.84,494.8,237.72,494.6z"/>
<path class="st1" d="M420.45,298.74c0.26,0.71,0.27,1.42,0.02,2.13C420.32,300.16,420.02,299.45,420.45,298.74z"/>
<path class="st1" d="M489.25,494.04c-1.12,0.1-2.24,0.08-3.35-0.05C487.02,493.78,488.14,493.73,489.25,494.04z"/>
<path class="st1" d="M252.03,394.05c-0.73,0.27-1.46,0.22-2.2,0.05C250.57,394.17,251.29,393.48,252.03,394.05z"/>
<path class="st1" d="M418.33,332.11c-0.53,0.27-1.07,0.23-1.6-0.01C417.27,331.72,417.8,331.72,418.33,332.11z"/>
<path class="st4" d="M232.67,581.23c0.69,0.25,1.61,0.08,1.87,1.08C233.84,582.08,233.23,581.69,232.67,581.23z"/>
<path class="st4" d="M410.2,353.94c0.02,0.88-0.44,1.16-1.25,1C409.36,354.61,409.78,354.28,410.2,353.94z"/>
<path class="st1" d="M462.6,615.1c0.01-0.97,0.01-1.94,0.02-2.91C462.95,613.16,462.95,614.13,462.6,615.1z"/>
<path class="st1" d="M216.04,387.64c-0.57-0.12-0.88-0.5-1.08-1.01C215.57,386.71,215.9,387.08,216.04,387.64z"/>
<path class="st4" d="M96.07,510.26c-1.11,0.05-0.74-0.77-0.8-1.34C95.64,509.31,95.93,509.74,96.07,510.26z"/>
<path class="st4" d="M33.84,494.18c-0.54,0.85-1.22,0.09-1.83,0.17c-0.05-0.06-0.07-0.12-0.05-0.2
	C32.59,494.17,33.22,494.18,33.84,494.18z"/>
<path class="st4" d="M235.3,495.63c-0.28,0.55-0.3,1.6-1.33,0.68C234.42,496.09,234.86,495.86,235.3,495.63z"/>
<path class="st1" d="M260.5,393.2c-0.41,0.32-0.85,0.28-1.31,0.15C259.59,393,260.01,392.82,260.5,393.2z"/>
<path class="st4" d="M407.58,356.07c0.21,0.93-0.33,0.95-0.99,0.82C406.92,356.62,407.25,356.34,407.58,356.07z"/>
<path class="st1" d="M278.51,390.06c-0.41,0.25-0.83,0.47-1.34,0.31C277.57,390.06,277.96,389.71,278.51,390.06z"/>
<path class="st1" d="M430.01,302.47c-0.41,0.33-0.87,0.45-1.39,0.33C428.98,302.24,429.53,302.48,430.01,302.47z"/>
<path class="st1" d="M343.24,367.65c-0.3,0.39-0.72,0.57-1.2,0.63C342.26,367.72,342.7,367.59,343.24,367.65z"/>
<path class="st1" d="M262.62,392.96c-0.41,0.24-0.84,0.27-1.29,0.1C261.76,392.95,262.15,392.5,262.62,392.96z"/>
<path class="st1" d="M211.23,380.32c-0.26-0.52-0.45-1.05-0.29-1.64C211.45,379.15,211.23,379.75,211.23,380.32z"/>
<path class="st1" d="M264.89,392.56c-0.36,0.38-0.78,0.38-1.24,0.23C263.99,392.3,264.45,392.47,264.89,392.56z"/>
<path class="st4" d="M450.08,584.34c0-0.5,0.16-0.93,0.52-1.27C450.53,583.53,451.12,584.27,450.08,584.34z"/>
<path class="st1" d="M275.06,390.82c-0.4,0.3-0.87,0.24-1.32,0.25C274.16,390.84,274.55,390.52,275.06,390.82z"/>
<path class="st1" d="M286.55,314.41c-0.48,0.12-0.94,0.07-1.41-0.06C285.62,313.97,286.07,314.43,286.55,314.41z"/>
<path class="st4" d="M109.98,467.54c0.65-0.25,0.86,0.1,0.89,0.67C110.49,468.09,110.21,467.85,109.98,467.54z"/>
<path class="st1" d="M420.37,302.71c0.06,0.45,0.06,0.87-0.44,1.1C419.82,303.34,419.93,302.96,420.37,302.71z"/>
<path class="st4" d="M87.46,495.49c-1.1,0.27-0.51-0.53-0.59-0.92C87.19,494.8,87.33,495.14,87.46,495.49z"/>
<path class="st4" d="M105.06,525.62c-0.49-0.23-1.02-0.44-0.64-1.15C104.64,524.85,104.85,525.23,105.06,525.62z"/>
<path class="st1" d="M210.89,374.97c-0.11-0.37-0.13-0.72,0.13-1.04C211.41,374.33,211,374.63,210.89,374.97z"/>
<path class="st1" d="M296.53,311.46c-0.52,0.17-1.05,0.23-1.59,0.16C295.44,311.29,295.99,311.44,296.53,311.46z"/>
<path class="st4" d="M253.61,586.71c0.27-0.63,0.54-0.65,0.81-0.01C254.15,586.7,253.88,586.71,253.61,586.71z"/>
<path class="st1" d="M424.42,318.89c0.25-0.22,0.53-0.23,0.82-0.09C425.01,319.17,424.74,319.23,424.42,318.89z"/>
<path class="st4" d="M277.58,498.69c-0.54,0.12-0.86-0.06-0.9-0.65C277.06,498.15,277.33,498.41,277.58,498.69z"/>
<path class="st1" d="M214.7,386.37c-0.45-0.07-0.65-0.42-0.85-0.77C214.27,385.71,214.65,385.85,214.7,386.37z"/>
<path class="st1" d="M238.07,394.09c-0.57,0.2-1.14,0.17-1.7-0.02C236.93,394.08,237.5,394.08,238.07,394.09z"/>
<path class="st1" d="M255.23,393.79c-0.52,0.19-1.05,0.24-1.59,0.11C254.15,393.64,254.7,393.76,255.23,393.79z"/>
<path class="st1" d="M257.86,393.51c-0.26,0.2-0.52,0.25-0.81,0.06C257.29,393.2,257.56,393.18,257.86,393.51z"/>
<path class="st4" d="M408.61,355.27c0.25,0.79-0.25,0.65-0.7,0.56C408.14,355.64,408.37,355.45,408.61,355.27z"/>
<path class="st1" d="M313.32,296.16c-0.2,0.3-0.44,0.37-0.7,0.34c-0.03,0-0.1-0.16-0.08-0.2
	C312.7,296.02,312.95,296.07,313.32,296.16z"/>
<path class="st1" d="M334.84,371.51c-0.26,0.32-0.6,0.47-1.01,0.44C334,371.43,334.46,371.55,334.84,371.51z"/>
<path class="st1" d="M420.17,332.89c-0.03-0.24-0.06-0.49-0.09-0.73c0.21-0.03,0.47-0.09,0.52,0.19
	C420.66,332.66,420.43,332.8,420.17,332.89z"/>
<path class="st1" d="M437.55,301.08c-0.22-0.11-0.45-0.21-0.67-0.32C437.25,300.53,437.6,300.39,437.55,301.08z"/>
<path class="st1" d="M420,296.5c0.28,0.26,0.41,0.57,0.25,0.95C419.83,297.22,419.92,296.86,420,296.5z"/>
<path class="st4" d="M406.59,356.89c0.13,0.65-0.31,0.62-0.73,0.61C406.01,357.19,406.28,357.01,406.59,356.89z"/>
<path class="st4" d="M411.11,353.18c-0.09,0.46-0.27,0.83-0.85,0.71C410.54,353.66,410.83,353.42,411.11,353.18z"/>
<path class="st4" d="M231.34,498.04c-0.01,0.43-0.17,0.63-0.61,0.41C230.94,498.31,231.14,498.17,231.34,498.04z"/>
<path class="st1" d="M423.2,319.27c0.18-0.25,0.41-0.35,0.72-0.25C423.77,319.37,423.52,319.41,423.2,319.27z"/>
<path class="st1" d="M333.2,372.16c-0.16,0.25-0.4,0.36-0.69,0.38C332.59,372.15,332.84,372.05,333.2,372.16z"/>
<path class="st1" d="M402.43,329.71c-0.02,0.33-0.21,0.49-0.52,0.53C401.91,329.9,402.09,329.73,402.43,329.71z"/>
<path class="st1" d="M425.75,318.65c0.15-0.19,0.34-0.23,0.55-0.12C426.17,318.79,426.01,318.95,425.75,318.65z"/>
<path class="st1" d="M437.2,302.74c0.07-0.18,0.14-0.37,0.21-0.55C437.77,302.53,437.53,302.65,437.2,302.74z"/>
<path class="st1" d="M229.96,346.34c0.13-0.26,0.34-0.41,0.63-0.46C230.55,346.28,230.33,346.41,229.96,346.34z"/>
<path class="st1" d="M276.3,390.49c-0.21,0.21-0.43,0.32-0.73,0.19C275.74,390.35,275.99,390.32,276.3,390.49z"/>
<path class="st1" d="M331.74,330.24c-0.33-0.33-0.44-0.66,0.02-0.98C331.75,329.59,331.74,329.91,331.74,330.24z"/>
<path class="st1" d="M223.97,352.22c0.04-0.31,0.22-0.48,0.53-0.52C224.48,352.04,224.31,352.22,223.97,352.22z"/>
<path class="st1" d="M407.99,324.15c-0.05,0.3-0.21,0.5-0.51,0.56C407.47,324.36,407.64,324.17,407.99,324.15z"/>
<path class="st1" d="M266.32,392.41c-0.15,0.18-0.33,0.23-0.53,0.08C265.93,392.23,266.1,392.16,266.32,392.41z"/>
<path class="st1" d="M226.61,349.57c0.06-0.29,0.23-0.48,0.54-0.51C227.13,349.4,226.95,349.57,226.61,349.57z"/>
<path class="st1" d="M287.7,314.32c-0.24,0.31-0.52,0.31-0.83,0.1C287.15,314.39,287.42,314.36,287.7,314.32z"/>
<path class="st1" d="M267.67,392.2c-0.25,0.15-0.51,0.22-0.8,0.1C267.12,392.12,267.4,392.15,267.67,392.2z"/>
<path class="st1" d="M288.5,313.56c-0.16,0.17-0.32,0.33-0.47,0.5C288.01,313.73,288.15,313.55,288.5,313.56z"/>
<path class="st1" d="M462.55,610.86c-0.06-0.26-0.11-0.52-0.17-0.78C462.63,610.3,462.59,610.58,462.55,610.86z"/>
<path class="st1" d="M332.46,372.57c-0.1,0.2-0.25,0.26-0.46,0.21C332.15,372.71,332.3,372.64,332.46,372.57z"/>
<path class="st4" d="M425.14,340.2c0.02,0.28-0.18,0.35-0.4,0.39C424.87,340.46,425,340.33,425.14,340.2z"/>
<path class="st1" d="M335.57,331.28c-0.08,0.16-0.21,0.21-0.38,0.17C335.32,331.39,335.45,331.34,335.57,331.28z"/>
<path class="st1" d="M453.8,600.97c-0.21,0.05-0.4,0.02-0.55-0.15C453.47,600.78,453.66,600.79,453.8,600.97z"/>
<path class="st1" d="M315.68,295.44c-0.04,0.02-0.07,0.05-0.11,0.05c-0.03,0-0.06-0.04-0.09-0.07
	C315.55,295.43,315.62,295.43,315.68,295.44z"/>
<path class="st1" d="M314.89,295.71c-0.03,0.02-0.06,0.04-0.09,0.06c-0.03-0.05-0.05-0.09-0.08-0.14c0.04-0.01,0.08-0.02,0.11-0.01
	C314.86,295.63,314.87,295.68,314.89,295.71z"/>
<path class="st1" d="M314.05,295.88c0.03,0.03,0.05,0.05,0.08,0.08c-0.06,0.03-0.12,0.06-0.19,0.08c-0.02,0-0.05-0.05-0.07-0.08
	C313.92,295.94,313.99,295.91,314.05,295.88z"/>
<path class="st1" d="M404.76,327.33c-0.08,0.15-0.16,0.3-0.24,0.45C404.52,327.58,404.55,327.41,404.76,327.33z"/>
<path class="st1" d="M427.34,302.18c-0.18-0.19-0.21-0.39-0.06-0.61C427.3,301.77,427.32,301.97,427.34,302.18z"/>
<path class="st1" d="M284.59,314.24c-0.17-0.05-0.33-0.1-0.5-0.15C284.28,314.05,284.46,314.07,284.59,314.24z"/>
<path class="st4" d="M231.79,497.7c0.03,0.36-0.2,0.37-0.46,0.35C231.39,497.82,231.6,497.77,231.79,497.7z"/>
<path class="st4" d="M424.7,340.63c-0.09,0.07-0.18,0.14-0.28,0.21C424.52,340.77,424.61,340.7,424.7,340.63z"/>
<polygon class="st1" points="225.26,350.87 225.22,350.81 225.3,350.83 "/>
<path class="st4" d="M525.58,539.42c0.09-0.1,0.19-0.2,0.28-0.3C525.76,539.23,525.67,539.33,525.58,539.42z"/>
<path class="st1" d="M361.13,338.6c-0.1-0.02-0.15-0.08-0.15-0.18C361.07,338.45,361.12,338.51,361.13,338.6z"/>
<path class="st1" d="M360.89,338.37c-0.1-0.06-0.2-0.12-0.29-0.17C360.69,338.25,360.79,338.31,360.89,338.37z"/>
<path class="st1" d="M358.75,337.64c-0.08-0.09-0.16-0.17-0.24-0.26C358.59,337.47,358.67,337.55,358.75,337.64z"/>
<path class="st1" d="M358.5,337.36c-0.15-0.02-0.23-0.09-0.2-0.25C358.36,337.19,358.43,337.28,358.5,337.36z"/>
<path class="st1" d="M358.25,337.01c-0.1,0-0.15-0.05-0.17-0.15C358.16,336.88,358.22,336.92,358.25,337.01z"/>
<path class="st4" d="M113.7,470.19c0.18-0.08,0.29-0.01,0.36,0.16C113.94,470.29,113.82,470.24,113.7,470.19z"/>
<path class="st4" d="M232.15,497.51c-0.05,0.18-0.16,0.25-0.34,0.18C231.92,497.63,232.03,497.57,232.15,497.51z"/>
<path class="st1" d="M409.56,322.29c-0.08,0.08-0.16,0.17-0.25,0.25C409.4,322.46,409.48,322.38,409.56,322.29z"/>
<polygon class="st1" points="421.79,292.99 421.7,293 421.71,292.92 "/>
<path class="st4" d="M64.13,527.5c0.02,0.05,0.05,0.1,0.07,0.15c0,0.01-0.04,0.04-0.06,0.06C64.07,527.64,64.07,527.57,64.13,527.5z
	"/>
<path class="st4" d="M375.18,378.72c-0.11,0.08-0.21,0.15-0.32,0.23C374.91,378.8,375,378.7,375.18,378.72z"/>
<path class="st1" d="M333.32,331.45c-0.08-0.05-0.17-0.09-0.25-0.14C333.15,331.35,333.24,331.4,333.32,331.45z"/>
<path class="st1" d="M427.1,318.35c0.07-0.12,0.16-0.13,0.26-0.04C427.28,318.33,427.19,318.34,427.1,318.35z"/>
<path class="st1" d="M288,314.08c-0.01,0.15-0.08,0.23-0.24,0.21C287.84,314.22,287.92,314.15,288,314.08z"/>
<path class="st1" d="M210.86,378.05c-0.03-0.14-0.05-0.28-0.08-0.42C210.91,377.74,210.94,377.88,210.86,378.05z"/>
<path class="st1" d="M291.96,311.99c-0.07,0.09-0.14,0.17-0.2,0.26C291.83,312.16,291.89,312.07,291.96,311.99z"/>
<path class="st1" d="M345.32,366.55c-0.11,0.07-0.23,0.14-0.34,0.21C345.02,366.59,345.14,366.52,345.32,366.55z"/>
<path class="st1" d="M228.52,347.73c0.07-0.07,0.15-0.15,0.22-0.22C228.67,347.58,228.59,347.66,228.52,347.73z"/>
<path class="st1" d="M294.38,311.53c-0.07-0.03-0.15-0.06-0.22-0.08C294.25,311.42,294.32,311.45,294.38,311.53z"/>
<polygon class="st1" points="331.95,330.52 331.94,330.56 331.96,330.53 "/>
<path class="st1" d="M455.13,601.21c-0.1-0.04-0.19-0.08-0.29-0.12C454.93,601.13,455.03,601.17,455.13,601.21z"/>
<path class="st1" d="M455.67,601.49c-0.07-0.06-0.14-0.11-0.21-0.17C455.52,601.38,455.6,601.43,455.67,601.49z"/>
<path class="st1" d="M293.87,311.38c-0.16,0.04-0.25-0.03-0.3-0.17C293.67,311.26,293.77,311.32,293.87,311.38z"/>
<path class="st1" d="M292.86,311.21c-0.1,0.05-0.2,0.1-0.3,0.14C292.65,311.31,292.76,311.26,292.86,311.21z"/>
<path class="st1" d="M428.09,302.96c-0.07,0.13-0.13,0.13-0.2,0C427.96,302.93,428.02,302.93,428.09,302.96z"/>
<path class="st1" d="M427.61,302.91c-0.18,0.03-0.24-0.04-0.19-0.21C427.48,302.77,427.54,302.84,427.61,302.91z"/>
<path class="st1" d="M341.61,368.41c-0.12,0.05-0.23,0.1-0.35,0.16C341.38,368.52,341.5,368.46,341.61,368.41z"/>
<path class="st1" d="M427.06,300.87c-0.06-0.1-0.13-0.19-0.19-0.29C426.93,300.68,427,300.78,427.06,300.87z"/>
<polygon class="st1" points="344.04,367.28 344.02,367.37 343.95,367.33 "/>
<path class="st1" d="M419.67,296.05c0.08,0.1,0.15,0.21,0.23,0.31C419.74,296.32,419.66,296.22,419.67,296.05z"/>
<path class="st1" d="M279.85,389.82c-0.11,0.01-0.22,0.02-0.33,0.03C279.63,389.84,279.74,389.83,279.85,389.82z"/>
<path class="st1" d="M423.64,294.71c-0.08-0.07-0.16-0.15-0.24-0.22C423.48,294.57,423.56,294.64,423.64,294.71z"/>
<polygon class="st1" points="421.99,293.18 421.96,293.23 421.98,293.17 "/>
<path class="st4" d="M407.91,355.82c0,0.2-0.09,0.28-0.29,0.21C407.72,355.96,407.81,355.89,407.91,355.82z"/>
<path class="st4" d="M99.3,515.8c-0.17-0.06-0.23-0.15-0.12-0.32C99.22,515.59,99.26,515.69,99.3,515.8z"/>
<path class="st4" d="M408.87,355.03c0.07,0.19,0.01,0.25-0.18,0.18C408.75,355.15,408.81,355.09,408.87,355.03z"/>
<path class="st1" d="M224.79,351.44c0.08-0.09,0.16-0.17,0.24-0.26C224.95,351.26,224.87,351.35,224.79,351.44z"/>
<path class="st1" d="M216.3,387.87c-0.07-0.07-0.14-0.14-0.2-0.2C216.16,387.73,216.23,387.8,216.3,387.87z"/>
<path class="st1" d="M230.85,345.6c0.02-0.16,0.1-0.25,0.27-0.25C231.03,345.43,230.94,345.52,230.85,345.6z"/>
<path class="st1" d="M321.75,353.01c0.06-0.09,0.12-0.18,0.18-0.27C321.87,352.83,321.81,352.92,321.75,353.01z"/>
<path class="st1" d="M323.53,352.26c0.09,0,0.17,0.01,0.26,0.01C323.7,352.41,323.61,352.4,323.53,352.26z"/>
<path class="st1" d="M322.18,352.46c0.04-0.14,0.13-0.22,0.29-0.17C322.37,352.35,322.27,352.41,322.18,352.46z"/>
<path class="st4" d="M421.15,344.18c0.01,0.2-0.09,0.28-0.28,0.25C420.96,344.34,421.05,344.26,421.15,344.18z"/>
<path class="st4" d="M117.51,411.78c0.04,0.02,0.07,0.04,0.11,0.06C117.59,411.83,117.55,411.81,117.51,411.78
	C117.51,411.79,117.51,411.78,117.51,411.78z"/>
<path class="st4" d="M156.17,375.25c0.04,0.02,0.07,0.04,0.11,0.06C156.24,375.29,156.21,375.27,156.17,375.25L156.17,375.25z"/>
<path class="st4" d="M265.31,558.18c0.37-5.37,0.21-10.74,0.23-16.11c0.02-5.73,0.01-11.46,0-17.19c0-2.82-0.34-5.62-0.87-8.38
	c-0.36-1.87-1.09-3.61-2.43-5.03c1.1-0.41,1.51,0.56,1.75,1.15c1.03,2.49,1.97,5.09,1.97,7.77c0,2-0.09,4,0.07,6.01
	c0.51,6.1,0.44,12.23,0.21,18.33c-0.16,4.28,0.22,8.61-0.72,12.85C265.49,557.79,265.39,557.98,265.31,558.18z"/>
<path class="st4" d="M242.46,521.12c-0.27,5.84-0.21,11.69-0.2,17.54c0.02,5.98-0.2,11.97,0.27,17.94c0.28,3.53,0.57,7.1,2.94,10.04
	c-1.57-0.21-1.61-1.68-2.14-2.69c-1.19-2.26-1.31-4.82-1.5-7.25c-0.11-1.39-0.15-2.92,0.08-4.39c0.16-1.01-0.19-2.08-0.19-3.13
	c-0.02-6.69-0.03-13.39,0-20.08c0.01-2.39,0.17-4.78,0.25-7.17C241.98,521.54,241.99,521.19,242.46,521.12z"/>
<path class="st4" d="M261.91,511.19c-5.29-3.1-10.59-3.03-15.9-0.07c-0.04-0.04-0.09-0.08-0.13-0.12c0.04,0.04,0.08,0.09,0.12,0.13
	c-2.33,2.19-2.78,5.13-3.23,8.06c-0.07,0.47,0.01,0.97-0.28,1.4c-0.36-1.64-0.11-3.28,0.3-4.84c0.34-1.29,1.06-2.47,1.57-3.72
	c0.38-0.93,2.87-2.7,3.85-2.83c1.47-0.19,2.92-0.63,4.39-0.75c2.54-0.2,5,0.51,7.48,0.89C260.97,509.47,261.92,509.97,261.91,511.19
	z"/>
<path class="st4" d="M245.7,566.84c4.57,3.13,9.45,2.87,14.45,1.32c0.39,0.51,0.05,0.74-0.37,0.81c-3.07,0.52-6.11,1.43-9.27,0.5
	c-0.71-0.21-1.46-0.43-2.18-0.4C246.68,569.16,246.16,568.06,245.7,566.84z"/>
<path class="st4" d="M261.02,567.71c2.79-1.89,3.51-4.82,3.97-7.88c0.06-0.38,0-0.79,0.26-1.12c1.07,0.51,0.68,1.61,0.46,2.16
	c-0.83,2.02-1.15,4.28-2.63,6.02C262.52,567.54,261.94,568,261.02,567.71z"/>
<path class="st4" d="M260.15,568.16c0.12-0.06,0.24-0.12,0.35-0.18C260.39,568.04,260.27,568.1,260.15,568.16z"/>
<path class="st4" d="M262.22,511.44c-0.08-0.06-0.15-0.12-0.23-0.19C262.19,511.17,262.25,511.25,262.22,511.44z"/>
<path class="st4" d="M505.43,512.69c-2.87-2.18-6.26-2.82-9.71-3.18c-4.24-0.45-8.5-0.34-12.76-0.26c0.28-0.52,0.74-0.8,1.28-0.63
	c1.85,0.57,3.7,0.34,5.56,0.09c1.71-0.22,3.4,0.34,5.11,0.29c3.19-0.09,6.06,1.15,9.06,1.92
	C505.3,511.25,505.21,511.89,505.43,512.69z"/>
<path class="st4" d="M482.95,535.38c5.79,0.03,11.59,0.38,17.3-1.01c1.9-0.46,3.61-1.28,5.19-2.42c-0.14,1.2-1.28,1.4-2.03,1.84
	c-2.33,1.37-4.99,1.56-7.62,1.96c-1.3,0.2-2.48-0.05-3.7-0.08c-2.5-0.07-4.98,0.45-7.48,0.28
	C483.98,535.91,483.35,535.99,482.95,535.38z"/>
<path class="st4" d="M506.19,531.14c3.24-5.56,3.24-11.22,0.46-16.95c0.19-0.1,0.38-0.27,0.58-0.28c0.4-0.02,0.11,0.29,0.17,0.43
	c0.76,1.71,1.38,3.45,1.61,5.33c0.07,0.57,0.27,1.17,0.12,1.69c-0.5,1.72,0.26,3.48-0.23,5.18c-0.38,1.34-0.67,2.71-1.11,4.02
	C507.54,531.26,506.82,531.2,506.19,531.14z"/>
<path class="st4" d="M506.56,514.07c-0.38-0.47-0.77-0.93-1.15-1.4C506.54,512.53,506.78,513.11,506.56,514.07z"/>
<path class="st4" d="M505.42,531.96c0.18-0.18,0.35-0.37,0.53-0.55C505.99,531.79,505.8,531.96,505.42,531.96z"/>
<polygon class="st4" points="525.84,537.53 525.73,537.47 525.78,537.43 "/>
<path class="st4" d="M505.93,531.42c0.09-0.1,0.18-0.2,0.28-0.3C506.12,531.22,506.03,531.32,505.93,531.42z"/>
<path class="st2" d="M271.75,312.29c-0.79-0.33-1.49,0.85-2.4,0.08c0.6-0.55,1.22-0.95,2.02-0.92c0.61,0.02-0.15,0.73,0.38,0.82
	C271.76,312.27,271.75,312.29,271.75,312.29z"/>
<path class="st2" d="M273.73,311.44c-0.43,0-0.86,0-1.47,0c0.48-0.46,0.87-0.78,1.4-0.65C274.02,310.88,273.84,311.2,273.73,311.44
	C273.74,311.43,273.73,311.44,273.73,311.44z"/>
<path class="st2" d="M245.99,511.12c-0.04-0.04-0.08-0.09-0.12-0.13C245.92,511.03,245.96,511.07,245.99,511.12
	C246,511.11,245.99,511.12,245.99,511.12z"/>
</svg>
