<svg xmlns="http://www.w3.org/2000/svg" viewBox="0 0 499.65 354.76"><defs><style>.cls-1{fill:#23a84b;}.cls-2{fill:#f4e8cd;}.cls-3{fill:#252e68;}.cls-4{fill:#f79f20;}.cls-5{fill:#2b335d;}</style></defs><g id="Capa_2" data-name="Capa 2"><g id="Layer_1" data-name="Layer 1"><path class="cls-1" d="M269.58,354.75c-.2-.45-.68-.36-1-.45-5-1.25-7.75-4.48-8-9.65-.19-4.71-.25-9.43,0-14.14.42-7.51,5.88-10.43,12.44-9.79a9.59,9.59,0,0,1,7.88,4.84,10.5,10.5,0,0,1,1.29,4.92,115,115,0,0,1-.17,15.31,9.19,9.19,0,0,1-7.75,8.47c-.43.09-1,0-1.28.48Zm-2-17.18c.2,2.6-.17,5.3.33,8,.38,2,1.51,2.91,3.61,2.83a3,3,0,0,0,3.32-3c.55-4.66.21-9.34.22-14a9.36,9.36,0,0,0-.28-2,3.53,3.53,0,0,0-6.86.06C267.42,332.11,267.77,334.81,267.62,337.57Z"/><path class="cls-1" d="M380.53,354.75a6.37,6.37,0,0,0-2.09-.61c-4.05-1.15-6.6-3.82-7.06-8a70.29,70.29,0,0,1,0-17.15c.71-5.22,4.51-8.27,9.91-8.38,3.46-.07,6.66.65,9.09,3.39a10.51,10.51,0,0,1,2.39,6.7,90.64,90.64,0,0,1-.16,15.19c-.56,4.82-3.52,7.61-8.67,8.54-.27.05-.64-.12-.79.29Zm5-18.59c0-1.94.05-3.87,0-5.81s-.85-3.05-2.34-3.38c-2.94-.65-4.49.16-4.84,3.24-.39,3.47-.13,7-.2,10.42a20.08,20.08,0,0,0,.44,5.24c.42,1.73,1.42,2.49,3.35,2.49s3.07-.8,3.36-2.49A45,45,0,0,0,385.57,336.16Z"/><path class="cls-1" d="M442.76,354.75c-.05-.2-.21-.25-.39-.28-4.58-.81-6.71-4-7.81-8.13-1.18-4.44-1.08-9-.81-13.52a17.63,17.63,0,0,1,2.18-7.74,9.3,9.3,0,0,1,9.6-4.35c4.4.76,6.71,3.61,7.79,7.6a36.31,36.31,0,0,1,.25,17.64,11.73,11.73,0,0,1-4.38,7.17c-1.15.86-2.61.89-3.79,1.62Zm4.76-17.3c0-2.16,0-4.32,0-6.48a8.31,8.31,0,0,0-.84-3.31,3,3,0,0,0-5.18-.26,6.33,6.33,0,0,0-.88,2.6,92.83,92.83,0,0,0-.18,13.34,8.92,8.92,0,0,0,1,4.33,2.94,2.94,0,0,0,5,.27,5.79,5.79,0,0,0,.87-2.33A35.33,35.33,0,0,0,447.52,337.45Z"/><path class="cls-1" d="M466.32,354.75c-.08-.26-.31-.28-.52-.33-4.11-.92-6.28-3.84-7.26-7.59a35,35,0,0,1,.14-18.91c1.82-6.18,7.25-8.85,13-6.55a8.9,8.9,0,0,1,5.23,6.25c2,7.16,2.13,14.33-.57,21.35a8.35,8.35,0,0,1-7.12,5.55c-.1,0-.18.15-.28.23Zm5.24-18c0-.76,0-1.25,0-1.73-.17-2.48.08-5-1.07-7.38a2.89,2.89,0,0,0-4.89-.56,6.08,6.08,0,0,0-1.14,3.18,91.82,91.82,0,0,0-.19,13.06,10.35,10.35,0,0,0,.78,3.86,2.93,2.93,0,0,0,2.94,2,2.68,2.68,0,0,0,2.63-2,12.85,12.85,0,0,0,.51-1.63A53.05,53.05,0,0,0,471.56,336.74Z"/><path class="cls-1" d="M354.84,354.75c-.35-.48-.93-.42-1.41-.54a13.08,13.08,0,0,1-7.72-5.2c-.45-.61-.48-1.06.21-1.51,1-.65,1.93-1.37,2.9-2.06,1.72-1.22,1.72-1.21,2.95.43a6.65,6.65,0,0,0,4.24,2.69c2.8.51,5.06-1.16,4.93-3.64a3.34,3.34,0,0,0-1.34-2.6c-2.18-1.66-4.87-2.24-7.26-3.45-2.74-1.39-5.12-3.05-6.06-6.2a9.22,9.22,0,0,1,8.17-12.05c3.23-.29,6.33.06,9.08,2a12.55,12.55,0,0,1,3,3,.67.67,0,0,1-.17,1.1c-1.25.9-2.5,1.8-3.73,2.73-.63.47-.94.07-1.3-.35a7.06,7.06,0,0,0-4.45-2.62c-2.28-.32-4.08.72-4.23,2.51a3.4,3.4,0,0,0,1.68,3.22,36.82,36.82,0,0,0,6,2.79c2.71,1.23,5.33,2.51,6.7,5.44a9.76,9.76,0,0,1-7,13.79,2.91,2.91,0,0,0-1.66.54Z"/><path class="cls-1" d="M10.33,354.75c-1-.25-2-.44-3-.77-4.24-1.42-6.5-4.51-6.76-9.1a112.21,112.21,0,0,1,0-14.67c.51-7.07,5.62-10,12.19-9.51a10.6,10.6,0,0,1,7.71,4.05,8.75,8.75,0,0,1,1.65,6c0,.54-.26.79-.82.78-1.81,0-3.62,0-5.43,0-.55,0-.8-.2-.83-.76a5.74,5.74,0,0,0-.18-.9,3.8,3.8,0,0,0-5.93-2.47A3.45,3.45,0,0,0,7.7,330.3a117.14,117.14,0,0,0,0,14.27c.17,2.53,1.2,3.65,3.32,3.79s3.5-.9,3.87-3.21c.4-2.51.4-2.51,2.94-2.52,1.06,0,2.12.06,3.18,0,.88-.05,1.12.3,1.16,1.14.28,5.44-2.63,9.27-8,10.52-.48.11-1.05,0-1.44.46Z"/><path class="cls-1" d="M225.88,354.75c-1.35-.55-2.79-.81-4.1-1.5a8.71,8.71,0,0,1-4.85-7.12,82.26,82.26,0,0,1-.07-16.23c.53-5.76,4.12-9,9.92-9.27,3.85-.18,7.21.88,9.77,3.94a8.28,8.28,0,0,1,1.76,6.17c0,.58-.33.76-.85.75-1.76,0-3.53-.05-5.29,0-1,0-.9-.72-1-1.36a3.73,3.73,0,0,0-5.38-3.06A2.74,2.74,0,0,0,224,329.6a86.82,86.82,0,0,0,0,16c.19,1.87,1.31,2.71,3.24,2.79a3.19,3.19,0,0,0,3.65-2.52,6.57,6.57,0,0,0,.21-1.16c.17-2,.16-2,2.28-2,1.28,0,2.56,0,3.84,0,.8,0,1,.25,1.06,1.05.42,6-3.21,9.92-8.87,10.82-.25,0-.54-.05-.69.26Z"/><path class="cls-1" d="M172.39,354.75c-.46-.49-1.11-.4-1.68-.56-4.26-1.21-6.79-3.95-7.26-8.25a91.19,91.19,0,0,1-.13-15.59c.47-7.61,6.47-10.37,12.61-9.6a10.34,10.34,0,0,1,7.77,4.66,8.84,8.84,0,0,1,1.18,5.31c0,.58-.31.76-.84.75-1.81,0-3.62,0-5.43,0-.52,0-.68-.23-.74-.7a7,7,0,0,0-.27-1.29,3.77,3.77,0,0,0-5.36-2.42,2.83,2.83,0,0,0-1.66,2.53,86.06,86.06,0,0,0,0,16c.2,1.88,1.3,2.71,3.24,2.81a3.23,3.23,0,0,0,3.66-2.53,9.23,9.23,0,0,0,.33-2.21c0-.84.38-1,1.14-1,1.59,0,3.18.05,4.76,0,.86,0,1.09.24,1.15,1.11.44,6.33-3.76,10.12-9.05,10.75-.21,0-.45,0-.55.26C174.33,354.75,173.36,354.75,172.39,354.75Z"/><path class="cls-2" d="M0,213.91a1.09,1.09,0,0,1,.25,0,.21.21,0,0,0,0,.2c0,7.45-.12,14.9-.13,22.34q0,29.76,0,59.53c0,2.38.07,4.76.11,7.14,0,.33,0,.67,0,1l-.26,0Z"/><path class="cls-3" d="M355.63,90.74c2.36-1.67,4.73-3.32,7.07-5,3.13-2.26,6.23-4.56,9.34-6.84,1.29.23,1.9-.44,2.12-1.61h0c.42,0,.86,0,.73-.61.66.12,1.2.1,1-.82l0,0c.2.07.29,0,.29-.21.45.09.95.24.7-.56L377,75c.19.07.26,0,.18-.18l.08-.08c.81.16,1.28-.12,1.25-1l.06,0c.58.12.76-.25.85-.71h0c1.41.08,1.67-.17,1.46-1.35a.15.15,0,0,1,.11-.12,1.3,1.3,0,0,0,1.61-.45,10.06,10.06,0,0,1,2.19-2.13,1.52,1.52,0,0,0,.83-1.4l0,0c1.56.27,1.76-1.39,2.73-2,.36-.22,1.12-.54.82-1.32l.05.09,0-.09c.2,0,.29,0,.28-.25l.09,0-.09,0c.44-.11,1.15.7,1.26,0a3.2,3.2,0,0,1,1.43-2.09,1.27,1.27,0,0,0,.58-1.22h0l.28-.21,0,0c.23,0,.42-.11.4-.39l0,0c1.61-.47,2.25-2.06,3.44-3,.2-.16,0-.5-.11-.72a.15.15,0,0,1,.1-.09c1.18.06,1.48-.65,1.44-1.65h0c.75,0,1.53,0,1.73-.87.34-1.38,1.64-2,2.34-3.15,1.23-2,2.78-3.86,4.22-5.76a12.63,12.63,0,0,0,2-2.9c.66-1.72,1.76-3.21,2.28-5,.62-2.13,1.89-4.07,2.42-6.21a21.67,21.67,0,0,0,.88-8.25c-.22-1.6.12-3.24-.66-4.83-.3-.62-.7-1.24-1-1.91-.89-2.31-1.87-4.54-3.87-6.21-3.21-2.69-6.5-5.19-10.67-6.23l-.78-.07c.1-.65-.81-.63-.84-1.23a7.88,7.88,0,0,1,2.73.29c1.09.29,2.2,1,3.42.45a46.88,46.88,0,0,1,9.89,3.15,33.88,33.88,0,0,1,12.71,8.58,23.59,23.59,0,0,1,6,13.08c1,7.58-1.19,14.49-4.35,21.19-3.81,8.09-9,15.22-14.81,22A167,167,0,0,1,399.33,84a287.79,287.79,0,0,1-25.63,21.52c-9.27,6.92-18.82,13.4-28.62,19.55q-8.71,5.46-17.68,10.52-7.44,4.23-15,8.2c-6.71,3.52-13.54,6.82-20.34,10.16-3.27,1.61-6.69,2.9-10,4.49-4.59,2.24-9.3,4.19-14,6.14-9.82,4.08-19.72,7.95-29.77,11.45-15,5.23-30.14,9.87-45.57,13.61-9.93,2.41-19.92,4.49-30,6.06q-9.57,1.49-19.2,2.4a185.14,185.14,0,0,1-25.36.68c-9.59-.39-19.08-1.64-28.16-5a34.67,34.67,0,0,1-7.68-3.65c-.07-.17-.18-.24-.36-.16l-.07-.05c.47-.46.4-.83-.18-1.12a6,6,0,0,0-2.6-.82h0c0-.57-.23-.92-.89-.67l0,0c-.1-1.34-1.38-2-2.13-2.56-1.81-1.36-2.38-3.47-3.76-5.06-2.13-2.45-2.61-5.82-3.08-8.93a20.73,20.73,0,0,1,.24-8.22c.15-.59.1-1.23.28-1.81a78.84,78.84,0,0,1,3.4-9.8c.56-1.21,1.25-2.37,1.74-3.59s1.81-2.15,1.43-3.7l.06-.06c.4.22.65.07.86-.3a43.43,43.43,0,0,1,4.9-7.19,2,2,0,0,0,.45-1.6h0c.41,0,.56-.33.83-.55.87-.71,1.23-1.92,2.35-2.37l.11.06-.11-.06a25,25,0,0,1,4.15-5c1.59-1.54,2.79-3.47,4.64-4.78a.34.34,0,0,0,.13-.22c.13-.85.76-1.3,1.35-1.84a2,2,0,0,0,.84-1.69h0a1.83,1.83,0,0,0,1.85-.91,6.45,6.45,0,0,1,1.8-1.65,2.41,2.41,0,0,0,1.22-2.33l.07,0c1.16.68,1.23.62,1.43-1.18l.23-.23c.93-.56,2.54-.32,2.43-2.09h0c1.61.2,2.07-1.33,3.06-2.06.2-.15,0-.49-.11-.72a.17.17,0,0,1,.12-.11c1.24,1.23,1.53-.59,2.33-.71.29,0,.36-.12.4-.36.29-1.73,1.83-2.38,3.09-2.83s1.45-1.85,2.4-2.52c0,0-.08-.23-.12-.35l.08-.09c.76.25,1.37.17,1.65-.7a.67.67,0,0,1,.57-.49c1,0,1.51-.88,2.23-1.39,1-.69,1.61-1.84,2.82-2.24l.11.06-.11-.06c.32-.75,1.13-.86,1.68-1.3.3-.24.86-.44.21-.91a.16.16,0,0,1,.12-.14c.82.48,1.34-.09,1.82-.58,1.48-1.51,3.6-2.07,5.06-3.76s3.84-2,5.23-3.84c.12-.16.37-.22.56-.32,1.1-.56,2.41-.72,3.12-2a1.45,1.45,0,0,1,1.36-.69,2.14,2.14,0,0,0,2.14-1.26,5,5,0,0,1,1.9-1.61c2.46-1.27,4.42-3.32,7-4.35.48-.19,1.2-.54.81-1.38a.14.14,0,0,1,.14-.13c.77.84,1.5.24,2.08-.19A94.54,94.54,0,0,1,166.4,67c.8-.46,2-.69,2.26-1.84h0a9.53,9.53,0,0,0,2.28-.75c3.3-1.8,6.65-3.51,9.88-5.43,1.12-.67,2.44-.91,3.42-1.69a22.4,22.4,0,0,1,3-1.79c1.67-.94,3.51-1.66,5.13-2.6s3.54-1.09,4.94-2.49A5.53,5.53,0,0,1,200,48.9a12.1,12.1,0,0,0,4.33-2.07c1.39-.89,3-1.2,4.36-1.95a58.28,58.28,0,0,1,6.72-3.19,1.65,1.65,0,0,0,.88-.95h0a2.12,2.12,0,0,0,1.82-.18,22.9,22.9,0,0,1,5.27-2.3c.64-.16,1.13-.47,1.13-1.23h0c.59,0,1.14.27,1.78-.06,1.79-.91,3.62-1.75,5.46-2.53,1.51-.64,3.07-1.16,4.6-1.75.67-.26.9,0,.87.63-7.69,3.64-15.41,7.23-22.94,11.19a376,376,0,0,0-48.48,29.86A217.72,217.72,0,0,0,139.3,97c-6.52,6.66-12.47,13.78-16.74,22.15a33.29,33.29,0,0,0-4.11,14.18A18.61,18.61,0,0,0,125,148.57c5,4.37,11,6.47,17.32,7.88,9.46,2.11,19.06,2.24,28.66,1.78a236.9,236.9,0,0,0,38.56-5.41A412.15,412.15,0,0,0,276.32,132q20.49-8.23,40.12-18.32,13-6.66,25.42-14.22c.41-.25.85-.46,1.27-.68l.32-.23h0c1.46.06,2.53-1,3.68-1.57,1.48-.75,2.72-2,4.39-2.53.28-.09.67-.19.79-.41a6.05,6.05,0,0,1,3-2.42C355.81,91.36,355.8,91.11,355.63,90.74Z"/><path class="cls-4" d="M395.35,20.66l.21.69a.45.45,0,0,0,.06.61c0,.18.05.35.08.53s0,.24.19.21l.28.05c.07.12.14.13.2,0l.53-.16a1.53,1.53,0,0,0,1.39-.33l6.86-1.71.67.32c0,.37-.09.74-.13,1.11l-.21.55a58.49,58.49,0,0,1-3.78,11c-.39.86-.92,1.62-1.32,2.47-.63,1.31-2,1.68-3.35,1.83a5.91,5.91,0,0,0-1.39.28c-.1-.09-.19-.09-.26,0l-.8.17a.4.4,0,0,0-.55.12l-.51.15a.71.71,0,0,0-.82.09l-.51.13a.59.59,0,0,0-.72.25c-1.35,1-1.86,2.57-2.81,3.84a77.1,77.1,0,0,1-6.3,7.67c-.43.27-.89.73-.64,1.13s.91.39,1.43.19H385a1.74,1.74,0,0,0,1.6,0l1.75,0,.09.73c-2.56,2.2-4.8,4.72-7.24,7q-6.39,6-13.31,11.41a31.58,31.58,0,0,0-2.79,2.22c-1.31,1.3-2.89,1.33-4.55,1.23s-3.53-.15-5.28-.32c-1.46-.15-2.41.81-3.43,1.5-6.33,4.33-12.87,8.32-19.56,12.06-1.84,1-1.89,1.2-.39,2.7.62.62,1.18,1.32,1.86,1.88,1,.8.55,1.27-.29,1.72L321,100.76c-5.48,2.93-11,5.8-16.62,8.4Q298.19,112,292,114.82c-1.75.79-1.76.77-2.84-.81l-2.23-3.27a1.6,1.6,0,0,0-2.14-.69c-6,2.3-12,4.51-18.14,6.49-3,1-6,1.9-9,2.76a3.27,3.27,0,0,0-2,1.52c-1.86,3-3.75,6.07-5.59,9.12a1.67,1.67,0,0,1-1.07.83c-5.37,1.71-10.81,3.21-16.27,4.59-5,1.27-10.15,2.25-15.25,3.27-3.32.66-6.68,1.16-10,1.73-.38.07-.85.28-1.09-.13s.18-.71.4-1l6.11-8.95c.19-.28.53-.6.24-.93a1.19,1.19,0,0,0-1.13-.18,80.44,80.44,0,0,1-10.27.91c-2.69.14-5.38.15-8.07.12a5.63,5.63,0,0,0-3.63,1.22c-4.55,3.34-9.19,6.54-13.8,9.79a1.5,1.5,0,0,1-1,.31,53.58,53.58,0,0,1-18.62-4.67c-2.7-1.29-2.68-1.39-.27-3.09,3.38-2.39,6.79-4.74,10.18-7.11,1.3-.91,1.26-1.18-.14-1.93a20.61,20.61,0,0,1-5.68-4.25,1.82,1.82,0,0,0-2.46-.4c-3.73,1.78-7.5,3.49-11.25,5.23-.75.35-1.22.26-1.43-.67a24,24,0,0,1,.87-13c.41-1.23,1.72-1.43,2.73-1.88,2.62-1.16,5.27-2.24,7.9-3.35a1.57,1.57,0,0,0,.92-1.07,42.68,42.68,0,0,1,3.66-8.2c.14-.26.46-.54.25-.83s-.64-.16-1-.08l-7,1.68a15.8,15.8,0,0,1,2.49-3.47A160.7,160.7,0,0,1,167.6,82.14a7.06,7.06,0,0,1,3.53-1.94c.26,0,.51-.16.77-.2A14.2,14.2,0,0,0,180,76c2.84-2.81,6.12-5.16,9.21-7.72.26-.22.72-.41.61-.79s-.67-.27-1-.34c-.13,0-.27,0-.4,0-.66-.1-1.69.4-1.9-.31s.88-1,1.42-1.35c5.82-4.13,11.79-8,17.85-11.8,1.21-.75,2.38-1.58,3.59-2.32a3.81,3.81,0,0,1,2.54-.85C215,51,217.43,49.57,220,48c3.53-2.2,7.26-4.09,10.91-6.1a2.1,2.1,0,0,1,.51-.11c.22,0,.46,0,.55.29-2.29,1.35-4.63,2.63-6.87,4.06-3.94,2.52-7.91,5-11.69,7.77-2.86,2.1-5.75,4.16-8.45,6.47-1.85,1.59-3.82,3-5.58,4.73a.26.26,0,0,0-.27.25l-.26.28a.82.82,0,0,0-.63.46L197,67.26l-.22.22-1.37,1.33a.6.6,0,0,0-.54.51,4,4,0,0,0-1.31,1.25h-.07l0,.06a3.55,3.55,0,0,0-.23.31l-.24.26-.29.26a.56.56,0,0,0-.53.52,58.21,58.21,0,0,0-9.7,12.65c-1.54,2.87-3,5.73-3.26,9a1.05,1.05,0,0,0-.13,1,7.44,7.44,0,0,0-.11,2.66c0,.14.05.28.08.42s0,.42.08.63a2.3,2.3,0,0,0,.29,1.64c.2,2.09,1.49,3.65,2.62,5.28.19.35.4.7.85.77l.27.26a1.46,1.46,0,0,0,1.08,1l.05,0,.2.2a29.59,29.59,0,0,0,12.41,5.28,39.31,39.31,0,0,0,7.66.92,2.54,2.54,0,0,0,1.7,0,65.17,65.17,0,0,0,11.77,0,3.67,3.67,0,0,0,2.2,0l1.61-.15a2.7,2.7,0,0,0,1.59-.11,5.91,5.91,0,0,0,1.82-.23.65.65,0,0,0,.81-.06l1.33-.16a1.36,1.36,0,0,0,1.31-.15l.84-.14a1.46,1.46,0,0,0,1.29-.1l1-.17a1.07,1.07,0,0,0,1.24-.23l.9-.07a.35.35,0,0,0,.53-.08l.55-.11a.87.87,0,0,0,.8-.1l6.07-1.14a2,2,0,0,0,1.32-.25l.51-.14a.61.61,0,0,0,.73-.19l.88-.12a1.57,1.57,0,0,0,1.34-.31l1-.22.33,0a288.69,288.69,0,0,0,36-10.69c5.43-2,10.77-4.23,16.16-6.36a.36.36,0,0,0,.46-.21l0,0a.83.83,0,0,0,.69-.38l.63-.21a1.16,1.16,0,0,0,1-.44l6.42-2.94.35-.16.43-.14a1.7,1.7,0,0,0,1.2-.63l.71-.32.07,0,0-.09c.32-.15.73-.16.93-.52l.34-.21a85.78,85.78,0,0,0,7.79-3.75c6.95-3.43,13.64-7.34,20.22-11.42,4.73-2.93,9.41-5.93,13.88-9.22a156.54,156.54,0,0,0,12.89-10.39c.58-.53,1.2-1,1.81-1.52a.52.52,0,0,0,.52-.53l2.09-1.93L373,47a29.24,29.24,0,0,0,2.72-2.62.61.61,0,0,0,.51-.56c.65-.36.83-1.12,1.32-1.61l.25-.25a48.75,48.75,0,0,0,9.76-15.6,6.38,6.38,0,0,0,.62-2.89c.5-.23.5-.65.44-1.1l.09-1.84a3.06,3.06,0,0,0,0-2.13c-.06-.43-.13-.86-.19-1.29a.79.79,0,0,0-.25-.95.11.11,0,0,0-.1-.13l-.23-.31c-.78-2.53-1-3-4.54-6.78A27.62,27.62,0,0,1,390,12.61l0,.09.09,0,.19.18,0,.06,0-.05,1.41,1.31.24.22a13.48,13.48,0,0,1,3.23,5.87A3.08,3.08,0,0,0,395.35,20.66Z"/><path class="cls-3" d="M59.31,221.6l4,6.52a3.83,3.83,0,0,1,.24.59c.06.57-.31,1.4.8,1.34h0a3.86,3.86,0,0,0,.41,1.86c.19.51.47.37.76.09l.06.09c-.4,1,.39,1.7.77,2.49.2.42.38,1,1,.57a.14.14,0,0,1,.07.13c-.11.16,0,.26.12.32l0,0a1.91,1.91,0,0,0,.18,1.28l4,6.93c.22.38.46.65.94.43l0,0c-.38.71.15.92.64,1.15l9.5,16.11a30.85,30.85,0,0,0,2.94,4.39v-1.38q0-24.61-.09-49.23c0-1.2.27-1.54,1.51-1.52,5.91.07,11.83.05,17.74,0,.94,0,1.28.18,1.28,1.22q0,44,0,88c0,.92-.23,1.19-1.17,1.18-5.25,0-10.5-.05-15.75,0a1.92,1.92,0,0,1-1.94-1.13q-11-19-22-37.88a23.53,23.53,0,0,1-1.85-3.33c-.28-1-.23-2.27-1.58-2.69h0c.11-.4-.28-.83.13-1.24a.46.46,0,0,0-.24-.75,3.11,3.11,0,0,1-1.65-1.95c-1.63-3.6-4-6.75-5.81-10.27a3,3,0,0,0-1.87-1.49c-.57-.14-.25.71-.67,1s-.08.54-.05.84a35.79,35.79,0,0,1,.64,3.75c0,14.38.05,28.75-.07,43.13a90.22,90.22,0,0,0,0,9.59,4.72,4.72,0,0,1-.13,1.44c-.15.72-.43,1-1.22,1-5.56,0-11.12,0-16.67,0-.69,0-.94-.19-1.07-.94a57.63,57.63,0,0,1-.5-10c0-.51.2-1.07-.24-1.51v-8.21c.41-.4.24-.91.24-1.38,0-2.94,0-5.87-.2-8.82a69.33,69.33,0,0,1,.16-8.15c.19-3.55.09-7.13,0-10.69,0-1.78-.26-3.56-.4-5.35v-1.64s.07-.05.06-.06a.51.51,0,0,0-.07-.15c0-2.05,0-4.09,0-6.14a2.28,2.28,0,0,0,.16-1.41c0-7.79,0-15.59,0-23.38,0-1.72.47-2.17,2.15-2.17H51.35c1.27,0,2.51.49,3.79.18v.07s0-.08,0-.07c.07.38-.52,1.19.59.92l.07.11a2.64,2.64,0,0,0,1.7,3h0C57.52,220,58.19,221.25,59.31,221.6Z"/><path class="cls-3" d="M224.56,306.39a4.13,4.13,0,0,1-1.85.1c-.28-.64-.55-.62-.81,0l-1.57-.06c0-.52-.27-.63-.74-.68-2.09-.24-4.18-.3-6.27-.62a36.07,36.07,0,0,1-6.38-1.68c-1.37-.47-2.49-1.67-4.12-1.38h0c-.26-1-1.18-.83-1.87-1.08a24.32,24.32,0,0,1-11.34-15.68,62.44,62.44,0,0,1-1.37-11.89c-.37-8.37-.26-16.75-.15-25.12.08-5.66.26-11.34,1.8-16.85a18.29,18.29,0,0,1,2.29-5.41c1.15-.44,1.33-1.65,2-2.49l-.27-.22c0-.11,0-.16.15-.16A10.38,10.38,0,0,0,198,219.8c.34-.47,1.29-.62,1-1.51l0,0c.44.21.6,0,.61-.41v0c.26,0,.49,0,.46-.35h0c.18.07.29,0,.34-.18h0c.65-.27,1.93.4,1.73-1.15a.11.11,0,0,1,.12,0c1,.92,1.05-.13,1.33-.68h0c1.09.3,1.78-.33,2.43-1l0,0c1.94.16,3.71-.67,5.46-1.21,2.77-.85,5.65-.49,8.41-1.22.56-.15,1.35.38,2.1.32,1.41-.11,2.92-.49,4.23-.16,2.55.64,5.22.25,7.71,1.22,1.74.68,3.63,1,5.32,1.75a4.37,4.37,0,0,0,2.31.63h0c.55,1.69,2.23,1.55,3.46,2.13h0c0,.58.36.76.9.65l.07.06c-.34.57.15.71.47,1,1.83,1.79,3.76,3.49,4.91,5.89.31.64.43,1.77,1.63,1.67a25.18,25.18,0,0,1,2.83,10c1.2,10.88.8,21.81.7,32.73,0,5.52-.26,11.07-1.74,16.46a22,22,0,0,1-5,9.42,5.53,5.53,0,0,0-3.08,2.54c-.06.1.07.31.11.47a.18.18,0,0,1-.11.1c-.59-.43-.94,0-1.36.33-1.68,1.24-3.3,2.61-5.43,3.05a1.14,1.14,0,0,0-1,1.19h0c-1.39-.06-2.87-.62-4,.79-.07.09-.25.08-.36.15-1.83,1-4,.4-5.87,1.16C227.36,306,225.78,305.37,224.56,306.39ZM228.44,288l.35-.18c.11-.22.31-.24.52-.27a1.82,1.82,0,0,0,2.06-.82c1.49-1.74,1.8-4,2.63-6,.22-.55.61-1.65-.46-2.16,0-.18,0-.35.05-.53a3.33,3.33,0,0,0,.22-.6c.94-4.24.56-8.57.72-12.85a153.59,153.59,0,0,0-.21-18.33c-.17-2-.07-4-.07-6a20.69,20.69,0,0,0-2-7.77c-.25-.6-.66-1.56-1.75-1.15l0,0c0-.2,0-.27-.23-.19l-.09-.07a1.86,1.86,0,0,0-1.82-1.85c-2.48-.38-4.94-1.09-7.48-.89-1.47.12-2.92.55-4.39.75a7.74,7.74,0,0,0-3.85,2.83,31.59,31.59,0,0,0-1.57,3.72,10.28,10.28,0,0,0-.3,4.84l0,.54c-.47.08-.48.43-.49.79-.08,2.39-.24,4.78-.25,7.17q0,10,0,20.08a20.87,20.87,0,0,1,.19,3.13,19,19,0,0,0-.08,4.39c.19,2.43.31,5,1.5,7.25.53,1,.57,2.48,2.14,2.69l.22.21c.47,1.22,1,2.32,2.62,2.23a6.66,6.66,0,0,1,2.18.4c3.15.93,6.2,0,9.27-.5.43-.08.78-.3.39-.81v0Z"/><path class="cls-3" d="M418.89,302.33v.52a1.66,1.66,0,0,0-.52,1.27h-.49c0-.56-.23-.85-.81-.69a11.53,11.53,0,0,1-3.1.19q-30.77,0-61.54,0c-.43,0-.93.14-1.28-.17a1.25,1.25,0,0,0-1.69,0c-.78.55-.9.11-1-.51,0-.35,0-.71,0-1.06q0-42.6,0-85.2c0-.51.19-1.06-.23-1.52-.15-1.24.59-1.45,1.61-1.44q9.27,0,18.53,0,24.42,0,48.83,0c1.12,0,1.5.22,1.48,1.44-.08,4.67,0,9.35,0,14,0,2.06.32,1.86-1.79,1.86q-22.5,0-45,0c-1.1,0-1.5.17-1.47,1.41.11,4.93.1,9.87.13,14.8l.21.26c.36.55.7,1.09,1.43.4.28-.27.67-.16,1-.16H400c.45,0,.78.15.86.64a13.06,13.06,0,0,1,.27,2q0,6.27,0,12.53a1.15,1.15,0,0,1-1.1,1.25c-1.23,0-2.43.32-3.67.31-6.49-.05-13,0-19.46,0a24.44,24.44,0,0,1-5.4-.22c-.88-.2-1.47.17-1.68,1.19a10.66,10.66,0,0,0,.15,2.2c0,5.51,0,11,0,16.54a6.11,6.11,0,0,1-.08,1.05c-.26,1.47.39,2.24,1.89,2.28,1.1,0,2.16-.29,3.28-.29q18,0,36,0c2.21,0,4.39.35,6.59.29.62,0,1.05.21,1,.9-.12,4.22.3,8.46-.23,12.67C418.36,301.58,418.36,302.06,418.89,302.33Z"/><path class="cls-3" d="M463.94,214c7.27.29,14.56.69,21.22,4,4.47,2.21,8.3,5.27,10.56,9.92.09,2.35,1.78,4.13,2.1,6.54.44,3.26,1.59,6.41,1.1,9.8a10.78,10.78,0,0,0-.5,2.17c.2,2.78-1.24,5.09-2.07,7.57-.29.87-1,1.64-.69,2.67a.15.15,0,0,1-.12.13c-.31-.41-.61-1-1,0a3.55,3.55,0,0,1-.43.61l-.06-.11-.05,0,.11.06c0,.53,0,1.07,0,1.6h0l-.28.3a22,22,0,0,1-8.63,7,40.31,40.31,0,0,1-13.94,3.5c-6.67.68-13.36.68-20.05.81a6.8,6.8,0,0,0-.44,3.7c.18,2.25.12,4.49.13,6.73,0,6.88,0,13.77,0,20.65,0,.54.2,1.28-.59,1.42a18,18,0,0,1-3.56.63c-5-.1-10,0-15,0-2.16,0-2.15,0-2.17-2.12,0-.57-.16-1.13-.16-1.7q0-41.49,0-83a5.12,5.12,0,0,1,.24-1.69c.17-.5.48-.82,1-.69,1.27.33,2.52-.06,3.78-.05q12.91.08,25.82,0C461.52,214.41,462.73,214.13,463.94,214Zm10.28,37.23.28-.3,0,0c.63.06,1.35.12,1.59-.58.44-1.32.73-2.68,1.11-4,.49-1.71-.27-3.46.23-5.18a4.47,4.47,0,0,0-.12-1.69,18.36,18.36,0,0,0-1.61-5.33c-.06-.14.24-.45-.17-.43a1.63,1.63,0,0,0-.58.28.14.14,0,0,1-.08-.12c.22-1,0-1.54-1.15-1.4h0c-.22-.8-.12-1.44-1.44-1.78-3-.77-5.87-2-9.06-1.92-1.71,0-3.4-.51-5.11-.29a12.87,12.87,0,0,1-5.56-.09,1.07,1.07,0,0,0-1.28.63q0,13.06,0,26.13c.41.61,1,.53,1.65.57,2.5.16,5-.36,7.48-.28a19,19,0,0,0,3.7.08c2.62-.4,5.29-.6,7.62-2,.75-.44,1.9-.64,2-1.84h0c.38,0,.56-.17.53-.55Z"/><path class="cls-1" d="M329.42,58.39c1.45.77,2.7,1.85,4.25,2.52.92.39,1,1.51.53,2.49a29.58,29.58,0,0,1-2.42,4.33,2.76,2.76,0,0,0-.55,1.79,1.51,1.51,0,0,1-2,1.63c-.7-.25-1.43-.21-2.11-.5-.88-.38-1,.16-.87.81a3,3,0,0,0,.45.79c.71,1.25.4,2.12-1.06,2.92a1.93,1.93,0,0,1-2.57-.91,5.44,5.44,0,0,1-.73-1.76c-.44-1.62-1.8-1.81-3-2.13a3.27,3.27,0,0,0-2,0,9.23,9.23,0,0,1-5.5.25c-1.45-.3-2.82.32-4.22.52-1.69.23-3.33.74-5.05.07-.63-.25-1.29.22-1.78.62a1.25,1.25,0,0,1-1.76,0,3.26,3.26,0,0,0-3.79-.5,6.72,6.72,0,0,1-3.17.68h-.26a1.57,1.57,0,0,0-1.07,0c-.16,0-.24,0-.29.17l-.24.28-.18.27c-1.09,1.36-1.42,3.22-2.83,4.37a4.12,4.12,0,0,1-3.17,1c-1.19-.1-2.34-.31-3.57.63-2.71,2-3.57.72-4.45-2.23-.08-.27,0-.57-.14-.87-.3-.88-.57-1.93-1.54-2.06s-1.55.62-2,1.47a1,1,0,0,1-.59.49c-1.83.24-3.13,1.4-4.42,2.52a1.38,1.38,0,0,1-2.07,0c-.72-.61-1.56-.87-2.2-.2a1.74,1.74,0,0,0,0,2.4,1.63,1.63,0,0,1,.06,1.94c-1.54,3-3.25,5.82-5,8.63a2.4,2.4,0,0,1-.78.88c-1.52.74-1.55,2.19-1.8,3.54-.12.63-.08,1.37-.92,1.56s-1.2-.53-1.46-1.06c-.69-1.46-1.52-2.42-3.37-2.14-1,.16-1.39-.53-1-1.57a3.69,3.69,0,0,0-1.52-4.59c-.88-.64-1.44-1.37-1-2.55.31-.75-.24-1.44-.49-2.08a1.08,1.08,0,0,1,.25-1.36c1.55-1.69,1.49-2.2-.2-3.62a12.12,12.12,0,0,0-3.68-2.66c-.22-.07-.55-.4-.51-.54.31-1.3-.81-1.68-1.45-2.39-.24-.26-.75-.51-.53-.92s.5-1,1.17-.88c3.19.39,4.19-2,5.3-4.2a1.62,1.62,0,0,0,0-1.57c-.4-.9-.68-1.85-1.06-2.76-.2-.48-.45-.91-1.13-.82a1,1,0,0,1-1.22-.7,1.26,1.26,0,0,1,.68-1.43c1.27-.87,2.65-1.61,3.39-3.09a2.47,2.47,0,0,0,.37-.94c.1-1.05.08-2-1.09-2.53-.38-.17-.66-.58-1-.83-1.94-1.35-2-1.5-.3-3.17a2,2,0,0,0,.4-2.64c-.47-.92-.91-1.86-1.45-2.74a3.12,3.12,0,0,1,0-3.43,1.39,1.39,0,0,0-.38-2c-.72-.53-.56-1,0-1.54.92-.92,2.1-1.55,2.7-2.86a1.86,1.86,0,0,1,2.4-.69c1.35.45,2.68.94,4,1.42l.5.15.55.11a2.7,2.7,0,0,0,1.41.06l.32,0a.55.55,0,0,0,.83-.1l.06,0c.16,0,.23-.06.24-.21l0,0c.16-.17.32-.33.47-.5.6-.84,1.61-.36,2.37-.73.34-.16.76-.12.88-.59.07-.09.14-.17.2-.26l.59-.63.3-.14h.71a.22.22,0,0,0,.3.17l.28.07.22.08a.55.55,0,0,0,.56.09,3.31,3.31,0,0,0,1.59-.16c2,.07,3.31,1.49,4.77,2.46,1.75,1.17,3.4.7,5.13.56a2,2,0,0,0,.75-.21,2.39,2.39,0,0,1,3.39.88c.49.71,1.08,1.35,1.6,2a2.7,2.7,0,0,0,3,1.09c1.85-.34,3.4-1.4,5.2-1.82,2.24-.53,3.27.17,3.45,2.44a10.2,10.2,0,0,0,3.61,7.2c1.29,1.12,2.54.55,3.71.1a28.16,28.16,0,0,1,4.2-1.26,2.83,2.83,0,0,1,1.5,0c1.33.4,2.41-.49,3.59-.84.07,0,.15-.18.19-.17,1.1.38,2.2.78,3.29,1.18,0,0,.06.19,0,.25a18.63,18.63,0,0,0-1.62,2.74c-.16.43-1.26.8-2.08.78a9,9,0,0,0-3,.46c-.93.3-1.83-.31-2.76-.37s-1.82-.33-2.63.3c-.46.32-.34.65,0,1l.22.29,0,0,0,0a2,2,0,0,0,1.11.78l.25.14a2.67,2.67,0,0,0,1.87,0,.3.3,0,0,0,.38-.17,1.42,1.42,0,0,1,1.34,0,12.16,12.16,0,0,0,4,1.54,4.11,4.11,0,0,0,2.33-.18,1.89,1.89,0,0,1,2.26.33,1.3,1.3,0,0,0,1.79.17c1.37-1.2,2.87-.7,4.27-.26a34.75,34.75,0,0,1,5.68,2.94c.36.19.56.66.84,1a.18.18,0,0,0,.17.15l0,.1c0,.16.05.24.2.25l0,0,.24.26c.4.88,1.22.4,1.84.55l.29.17.09.06A.52.52,0,0,0,329.42,58.39Z"/><path class="cls-3" d="M137.12,302.33v.51a16.08,16.08,0,0,1-5.39.84c-3.84-.1-7.67,0-11.51,0-1,0-1.94-.23-2.91-.27-.63,0-1.14-.34-1.53.38-.47-.5-.31-1-.31-1.47q0-42.6,0-85.2a5.13,5.13,0,0,1,.2-1.82c.18-.49.53-.87.93-.76a11.07,11.07,0,0,0,3-.1q28.18,0,56.37,0a12.58,12.58,0,0,0,2.47.15c1.62-.39,1.67.38,1.68,1.58,0,4.71-.16,9.43.1,14.14,0,.75-.92,1.3-1.08,1.19-.84-.59-1.62-.07-2.4-.07q-17.8,0-35.6,0a2.3,2.3,0,0,1-1.29-.17c-1.19-.75-1.83-.05-2.37.91-.31.13-.29.41-.29.67l.06,14.68c.58,1.45,1.75.91,2.66.65a6,6,0,0,1,3.51-.23,14.69,14.69,0,0,0,4.83.42c2.95,0,5.91.06,8.87,0,2.68-.05,5.37.27,8-.24.93-.18,1.23.27,1.19,1.18-.17,4.53.16,9.06-.2,13.6-.13,1.57-.75,1.64-1.89,1.63-7.41,0-14.82,0-22.23,0a16,16,0,0,1-3.39-.37c-1.45-.31-2.48.62-2.13,2a7.58,7.58,0,0,1,.18,1.83c0,9.48,0,19,0,28.44,0,1.15.51,2.27.24,3.4A4,4,0,0,0,137.12,302.33Z"/><path class="cls-3" d="M290.75,267.61c0-11.69,0-23.38,0-35.07,0-1.17-.28-1.46-1.45-1.45-7.59.06-15.18,0-22.77.06-1.08,0-1.41-.27-1.4-1.39.07-4.72,0-9.44,0-14.16,0-1.8,0-1.8,1.73-1.8l34.55,0h35.21c1.73,0,1.73,0,1.73,1.79,0,4.72,0,9.44,0,14.16,0,1.08-.26,1.4-1.37,1.39-7.59-.05-15.18,0-22.77-.05-1.06,0-1.4.19-1.4,1.33q.06,34.53,0,69.07c0,2.67,0,2.68-2.73,2.68-6,0-12.09,0-18.13,0-1.13,0-1.36-.34-1.36-1.4,0-11.74,0-23.47,0-35.2Z"/><path class="cls-3" d="M.29,303.16c0-2.38-.11-4.76-.11-7.14q0-29.76,0-59.53c0-7.45.08-14.9.13-22.34.61-.08,1.29.68,1.83-.17H17.48c.25.75.89.45,1.35.44,4.21-.06,3.42.37,3.42,3.48q0,41.65,0,83.32c0,1.93-.5,2.43-2.51,2.43-5.47,0-10.94,0-16.4,0A5.91,5.91,0,0,1,.29,303.16Z"/><path class="cls-1" d="M303.47,340.69v-2.38c0-5.2,0-10.41-.12-15.61,0-1.05.3-1.38,1.34-1.31a32.62,32.62,0,0,0,3.7,0c.86,0,1.18.23,1.14,1.12-.06,1.59,0,3.17,0,4.76,0,8.34,0,16.67,0,25,0,1.07-.28,1.58-1.4,1.41-.22,0-.44,0-.66,0-3.88,0-3.84,0-5.64-3.54-2.89-5.64-5.83-11.25-8.76-16.87-.12-.23-.29-.44-.54-.82a5.77,5.77,0,0,0-.22,2.28c0,5.87,0,11.73.07,17.6,0,1.1-.27,1.48-1.38,1.38a22,22,0,0,0-3.44,0c-1,.08-1.36-.27-1.35-1.32.06-3.62,0-7.23,0-10.85,0-6.31,0-12.61,0-18.92,0-1,.29-1.3,1.27-1.25,1.8.09,3.88-.47,5.34.25s1.76,2.92,2.59,4.46c2.37,4.37,4.65,8.79,7,13.19A3.3,3.3,0,0,0,303.47,340.69Z"/><path class="cls-1" d="M51.92,337.55c0-4.94,0-9.88,0-14.81,0-1.12.33-1.38,1.4-1.35,4.58.12,9.16-.17,13.73.5a8.48,8.48,0,0,1,7.4,7.9c.19,2.76-.2,5.34-2.12,7.53a7.22,7.22,0,0,1-2.66,1.89c-1,.42-1,.92-.54,1.73,1.94,3.75,3.85,7.51,5.76,11.28.73,1.43.68,1.49-.9,1.49a37.29,37.29,0,0,0-4.23,0c-1.57.19-2.24-.54-2.83-1.84-1.55-3.45-3.23-6.84-4.86-10.25-.24-.5-.4-1-1.13-1.14-1.6-.22-1.86-.05-1.86,1.56,0,3.44-.06,6.88,0,10.31,0,1.17-.37,1.42-1.41,1.36a37.31,37.31,0,0,0-4.36,0c-1.09.07-1.43-.24-1.42-1.37C52,347.42,51.92,342.48,51.92,337.55Zm7.14-6.5h0c0,1.19,0,2.37,0,3.56,0,.63.26.85.87.83a28.46,28.46,0,0,0,4.32-.25,3.24,3.24,0,0,0,3.06-3.46c.14-2.75-.64-4-2.72-4.55a26.79,26.79,0,0,0-4.19-.33c-1.14-.1-1.46.37-1.37,1.43S59.06,330.13,59.06,331.05Z"/><path class="cls-1" d="M25.93,337.49c0-5,0-10,0-14.95,0-.94.27-1.16,1.19-1.16q9.66.06,19.32,0c.95,0,1.36.17,1.27,1.22a27.2,27.2,0,0,0,0,3.83c.07,1-.39,1.28-1.31,1.27-4.06,0-8.12,0-12.17-.05-1,0-1.25.3-1.23,1.19,0,1.14,0,2.29,0,3.44,0,.92.32,1.31,1.33,1.27,2.47-.08,4.94,0,7.41,0,1,0,1.34.3,1.28,1.29a32.71,32.71,0,0,0,0,3.57c0,.95-.24,1.33-1.26,1.31-2.51-.07-5,0-7.54,0-.91,0-1.26.28-1.24,1.2,0,1.85,0,3.7,0,5.55,0,.89.32,1.22,1.24,1.21,4.32,0,8.65,0,13,0,1.21,0,1.54.38,1.45,1.51a28.2,28.2,0,0,0,0,3.44c0,.9-.26,1.22-1.2,1.21q-10.19,0-20.38,0c-.89,0-1.11-.3-1.1-1.15C25.94,347.54,25.93,342.51,25.93,337.49Z"/><path class="cls-1" d="M200.15,321.42c1,0,2,.07,3,0s1.2.31,1.43,1.1c2.21,7.78,4.46,15.54,6.7,23.31.66,2.28,1.29,4.56,2,6.83.27.87,0,1.11-.84,1.1-1.63,0-3.26-.05-4.89,0-.66,0-.91-.28-1.06-.89-.37-1.54-.85-3.05-1.23-4.58a1,1,0,0,0-1.17-.94q-4,.06-8.07,0c-.8,0-1,.31-1.18,1.05-.3,1.5-.73,3-1.09,4.47a1.05,1.05,0,0,1-1.23.9c-1.59-.05-3.18-.06-4.76,0-.92,0-1.09-.24-.83-1.12,2-6.83,3.93-13.68,5.9-20.52.91-3.16,1.9-6.31,2.74-9.49a1.33,1.33,0,0,1,1.64-1.18c1,.06,1.94,0,2.91,0Zm.12,6a5.32,5.32,0,0,0-.35.68q-1.57,6.38-3.14,12.76c-.17.71.16.94.84.93,1.67,0,3.34,0,5,0,.83,0,1-.27.77-1-.39-1.57-.7-3.16-1.07-4.74C201.68,333.32,201,330.57,200.27,327.44Z"/><path class="cls-1" d="M422.09,320.76l1,.12.29.12.32.11.21.17a9.52,9.52,0,0,1,6.07,6.34c.25.74.43,1.5.64,2.25.06.26.11.52.17.78l.06,1.33c0,1,0,1.94,0,2.91a38,38,0,0,1-7.09,18.85.89.89,0,0,1-.85.45c-2.12,0-4.23,0-6.35,0-.28,0-.69.11-.82-.24s.21-.55.42-.76a42.56,42.56,0,0,0,7.25-11.11,1.75,1.75,0,0,0,.21-1.45,26.6,26.6,0,0,1-3.94.95,8.38,8.38,0,0,1-9-5c-1.91-3.91-1.25-10.19,1.86-13.19a10.77,10.77,0,0,1,7.11-2.72c.61-.05,1.23,0,1.85,0A.5.5,0,0,0,422.09,320.76Zm-5.81,10.56c0,.53,0,1.06,0,1.58a4.24,4.24,0,0,0,3.25,3.85,3.66,3.66,0,0,0,4.32-2.78,8.64,8.64,0,0,0-.09-5.7,3.71,3.71,0,0,0-7-.19A6.8,6.8,0,0,0,416.28,331.32Z"/><path class="cls-1" d="M132.89,321.4c3.13,0,6.26,0,9.39,0,.89,0,1.28.21,1.22,1.17a32.71,32.71,0,0,0,0,4c.06,1-.35,1.2-1.22,1.19-3.75,0-7.5,0-11.24-.07-1.26,0-1.77.29-1.62,1.61a21,21,0,0,1,0,3.17c0,.86.3,1.14,1.16,1.13,2.38-.05,4.76,0,7.14,0,.91,0,1.26.29,1.21,1.23a34.94,34.94,0,0,0,0,3.83c.06.92-.31,1.12-1.14,1.11-2.38,0-4.76,0-7.14-.05-1,0-1.26.35-1.25,1.29,0,3.79,0,7.58,0,11.37,0,1.07-.29,1.5-1.41,1.43a33.39,33.39,0,0,0-4.36,0c-1.13.07-1.4-.34-1.39-1.41,0-7.63,0-15.26,0-22.88,0-2.34,0-4.67,0-7,0-.83.24-1,1-1C126.54,321.43,129.71,321.4,132.89,321.4Z"/><path class="cls-1" d="M92,340.75c0,3.92,0,7.85,0,11.77,0,.92-.26,1.24-1.2,1.19a44.69,44.69,0,0,0-4.63,0c-1.09.06-1.29-.38-1.29-1.36,0-7.67,0-15.35,0-23,0-1.34-.34-1.76-1.68-1.66-1.76.12-3.53,0-5.29,0-.86,0-1.3-.19-1.24-1.18.09-1.41,0-2.82,0-4.23,0-.68.2-.91.9-.91q10.78,0,21.57,0c.81,0,1,.34.94,1,0,1.37,0,2.73,0,4.1,0,.86-.29,1.18-1.15,1.16-1.94,0-3.88,0-5.82,0-.92,0-1.24.25-1.23,1.19,0,4,0,7.94,0,11.9Z"/><path class="cls-1" d="M493.36,334.91c0,4.06,0,8.11,0,12.17,0,1.14.41,1.46,1.47,1.4,1.23-.07,2.47,0,3.7-.05.81,0,1.22.21,1.13,1.14a22.35,22.35,0,0,0,0,3.17c0,.65-.11,1-.85,1q-8.53,0-17.06,0c-.68,0-1-.24-.95-.92,0-1.1,0-2.2,0-3.31,0-.8.33-1.1,1.11-1.07,1.32,0,2.65,0,4,0,.82,0,1.14-.23,1.13-1.13q-.06-9.72,0-19.44c0-.93-.24-1.26-1.18-1.22-1.45.06-2.91,0-4.36,0-.81,0-1.1-.29-1.07-1.09,0-1.14,0-2.29,0-3.44,0-.56.2-.78.77-.77,3.79,0,7.58,0,11.38,0,1,0,.88.61.88,1.22q0,6.16,0,12.31Z"/><path class="cls-1" d="M150.15,337.48c0-4,0-7.94,0-11.9,0-1-.28-1.47-1.33-1.33a6.94,6.94,0,0,1-.79,0c-1.48,0-2.1-1-1.58-2.39.17-.46.52-.42.86-.42,4.28,0,8.55,0,12.83,0,.9,0,.9.56.81,1.14s.51,1.64-.82,1.66c-.66,0-1.32,0-2,0s-.89.27-.89.95q0,12.3,0,24.6c0,.81.27,1.13,1.07,1a7.07,7.07,0,0,1,.92,0c1.76,0,1.72,0,1.75,1.79,0,.81-.15,1.16-1.07,1.15-4.1-.05-8.2-.06-12.3,0-1.21,0-1.23-.58-1.2-1.45s-.16-1.54,1.14-1.53c2.57,0,2.57-.06,2.57-2.69,0-3.56,0-7.08,0-10.61Z"/><path class="cls-1" d="M339.27,337.4c0,4,0,8,0,12,0,1,.35,1.48,1.39,1.33.3,0,.62,0,.92,0,1.18-.17,1.47.34,1.46,1.48s-.2,1.53-1.43,1.5q-6-.14-11.91,0c-1.28,0-1.16-.69-1.19-1.49s0-1.49,1.23-1.48c2.44,0,2.43-.05,2.43-2.55,0-7.28,0-14.55,0-21.83,0-2.25.39-2.18-2.11-2.12-1.22,0-1.63-.38-1.57-1.58,0-.9.19-1.32,1.25-1.31,4.06.07,8.12.06,12.17,0,.91,0,1.2.33,1.09,1.15s.38,1.61-1,1.69c-2.72.15-2.71.21-2.71,3Z"/><path class="cls-1" d="M253.19,337.57c0,4,0,7.93,0,11.9,0,1,.24,1.5,1.32,1.32a5.21,5.21,0,0,1,.79,0c1.49,0,2.14,1.06,1.59,2.49-.17.44-.52.43-.86.43-4.23,0-8.46,0-12.7,0-1.11,0-.89-.78-.85-1.38s-.47-1.55.79-1.54h.26c2.53-.11,2.55-.11,2.55-2.59q0-10.9,0-21.82c0-2.11,0-2.11-2.13-2.16a1.63,1.63,0,0,1-1.45-2.5c.19-.37.49-.32.79-.32,4.23,0,8.46,0,12.7,0,1,0,.94.6.9,1.23s.34,1.52-.8,1.6a8.33,8.33,0,0,1-1.58,0c-1.08-.15-1.36.32-1.35,1.34,0,4,0,8,0,12Z"/><path class="cls-1" d="M114.42,337.49c0,4,0,8,0,12,0,1,.29,1.39,1.27,1.26a4.85,4.85,0,0,1,.66,0c1.75,0,2.27.7,1.82,2.41-.12.47-.42.5-.79.5-4.28,0-8.55,0-12.83,0-.92,0-.89-.6-.8-1.15s-.54-1.61.72-1.76a4.18,4.18,0,0,1,1.32,0c1.38.26,1.61-.45,1.6-1.62,0-7.76,0-15.52-.05-23.27,0-1.69,0-1.69-1.79-1.66s-2-.1-1.83-1.91c0-.78.39-.94,1.08-.93,4.1,0,8.2.05,12.3,0,1.24,0,1,.71,1.06,1.45s0,1.44-1.15,1.41c-2.57-.06-2.57,0-2.58,2.53,0,3.58,0,7.15,0,10.72Z"/><path class="cls-5" d="M137.45,232.12c.54-1,1.18-1.66,2.37-.91a2.22,2.22,0,0,0,1.29.17q17.8,0,35.6,0c.78,0,1.57-.51,2.4.07.16.11,1.12-.44,1.08-1.19-.26-4.71-.06-9.43-.1-14.14,0-1.2-.05-2-1.68-1.58a12.62,12.62,0,0,1-2.47-.15q-28.18,0-56.37,0a11.07,11.07,0,0,1-3,.1c-.41-.11-.76.28-.93.76a5.15,5.15,0,0,0-.2,1.82v85.2c0,.46-.16,1,.31,1.47.39-.72.9-.41,1.53-.38,1,.05,1.93.28,2.91.27,3.84,0,7.68-.08,11.51,0a15.84,15.84,0,0,0,5.39-.84c.23,1.08-.25,1.36-1.29,1.35-6.57,0-13.15,0-19.72,0-1,0-1.22-.31-1.22-1.27q0-44,0-88c0-1.36.73-1.14,1.47-1.14l36.93,0c8.74,0,17.47,0,26.21,0,1.08,0,1.42.24,1.4,1.38-.07,5.29-.05,10.59,0,15.88,0,.83-.15,1.15-1.06,1.15q-21,0-42,0A.92.92,0,0,1,137.45,232.12Z"/><path class="cls-5" d="M463.94,214a32.06,32.06,0,0,1-3.63.43q-12.92.06-25.82,0c-1.26,0-2.51.38-3.78.05-.48-.13-.79.19-1,.69a5.12,5.12,0,0,0-.24,1.69q0,41.49,0,83c0,.57.15,1.13.16,1.7,0,2.12,0,2.12,2.17,2.12,5,0,10-.06,15,0a17.33,17.33,0,0,0,3.56-.63c.79-.14.59-.88.59-1.42,0-6.88,0-13.77,0-20.65,0-2.24.05-4.48-.13-6.73a6.82,6.82,0,0,1,.44-3.7c0,10.71,0,21.43,0,32.14,0,1.2-.3,1.51-1.5,1.5q-9.72-.09-19.45,0c-1.13,0-1.35-.32-1.35-1.4q0-43.85,0-87.69c0-.46-.16-1,.31-1.35,5,0,9.93.05,14.9.05,3,0,6.06,0,9.09-.06l.9,0a16.3,16.3,0,0,0,3.35.05C459.68,213.88,461.81,213.93,463.94,214Z"/><path class="cls-5" d="M418.89,302.33c-.54-.28-.53-.76-.47-1.26.53-4.22.1-8.45.23-12.67,0-.69-.4-.92-1-.9-2.2.06-4.38-.3-6.59-.29q-18,.07-36,0c-1.11,0-2.17.32-3.28.29-1.5,0-2.15-.82-1.89-2.28a6.11,6.11,0,0,0,.08-1.05c0-5.52,0-11,0-16.54a10,10,0,0,1-.15-2.2c.21-1,.8-1.39,1.68-1.19a24.44,24.44,0,0,0,5.4.22c6.49,0,13,0,19.46,0,1.24,0,2.44-.29,3.67-.31a1.16,1.16,0,0,0,1.1-1.25q.08-6.27,0-12.53a13.06,13.06,0,0,0-.27-2c-.08-.48-.41-.64-.86-.64H373.19c-.35,0-.74-.11-1,.16-.72.69-1.07.15-1.43-.4.44,0,.88,0,1.32,0l29.35,0c.28.29.21.66.21,1q0,7.65,0,15.29c0,.34.08.71-.21,1l-30.19,0c-.24,0-.53-.11-.7.19q0,10.57-.09,21.14c0,.53.18.68.69.65.7,0,1.41,0,2.11,0q22,0,44,0c1.23,0,1.75.18,1.71,1.63C418.85,293,418.91,297.67,418.89,302.33Z"/><path class="cls-5" d="M.29,303.16a5.82,5.82,0,0,0,3.05.5c5.47,0,10.94,0,16.4,0,2,0,2.51-.5,2.51-2.43q0-41.66,0-83.32c0-3.11.79-3.55-3.42-3.48-.47,0-1.1.3-1.35-.44,1.41,0,2.82,0,4.23-.08.67,0,1,.18,1,.88s0,1.23,0,1.85q0,43.11,0,86.21c0,.82.05,1.38-1.12,1.37-7.1-.06-14.2,0-21.29,0C.27,303.82.28,303.49.29,303.16Z"/><path class="cls-5" d="M348.26,215.23c.41.46.23,1,.23,1.52q0,42.6,0,85.2c0,.35,0,.71,0,1.06.06.62.18,1.06,1,.51a1.25,1.25,0,0,1,1.69,0c.36.31.85.17,1.28.17q30.76,0,61.54,0a11.56,11.56,0,0,0,3.1-.19c.58-.16.82.14.81.69-.84,0-1.67.05-2.51.05h-65.8c-.89,0-1.4,0-1.4-1.2q.06-43.49,0-87A7.09,7.09,0,0,1,348.26,215.23Z"/><path class="cls-5" d="M137.12,302.33a4.28,4.28,0,0,1-.25-2.53c.28-1.13-.24-2.25-.24-3.4,0-9.48,0-19,0-28.44a7.63,7.63,0,0,0-.18-1.83c-.35-1.39.69-2.32,2.13-2a16.07,16.07,0,0,0,3.39.37c7.41,0,14.82,0,22.23,0,1.14,0,1.77-.07,1.89-1.63.36-4.54,0-9.07.2-13.6,0-.91-.26-1.36-1.19-1.18-2.67.51-5.36.19-8,.24-3,.06-5.91,0-8.87,0a14.69,14.69,0,0,1-4.83-.42,6,6,0,0,0-3.51.23c-.91.26-2.08.8-2.66-.65,9.4,0,18.8,0,28.19,0,1.16,0,1.46.28,1.44,1.44q-.1,7.22,0,14.42c0,1.13-.22,1.48-1.43,1.47-8.91-.06-17.83,0-26.74-.07-1.34,0-1.55.4-1.55,1.61,0,11.47,0,22.94,0,34.41C137.17,301.28,137.13,301.8,137.12,302.33Z"/><path class="cls-5" d="M32.59,291.74c.43.45.23,1,.24,1.51a58.54,58.54,0,0,0,.5,10c.14.75.38.94,1.07.94,5.56,0,11.12,0,16.67,0,.79,0,1.07-.29,1.22-1a4.69,4.69,0,0,0,.13-1.44,87.66,87.66,0,0,1,0-9.59c.12-14.38,0-28.75.07-43.13a35.79,35.79,0,0,0-.64-3.75c0-.3-.27-.66,0-.84s.1-1.09.67-.95A3,3,0,0,1,54.4,245c1.77,3.52,4.18,6.67,5.81,10.27a3.13,3.13,0,0,0,1.65,1.95.46.46,0,0,1,.24.75c-.41.42,0,.84-.13,1.24q-3.94-6.7-7.88-13.4c-.34-.58-.7-1.16-1-1.74l-.33.07v1.63c.05,19,.07,38,.17,57,0,1.38-.37,1.66-1.69,1.65-5.78-.08-11.55-.06-17.33,0-1.12,0-1.38-.32-1.36-1.4C32.6,299.24,32.58,295.49,32.59,291.74Z"/><path class="cls-5" d="M237.26,33.35c0-.66-.2-.89-.87-.63-1.53.6-3.09,1.11-4.6,1.75Q229,35.66,226.33,37c-.64.33-1.19,0-1.78.06a67,67,0,0,1,6.9-3c5.7-2.35,11.42-4.69,17.19-6.87C257,24,265.48,21,274,18.24a4.43,4.43,0,0,1,2.32-.42c-2.84,1-5.59,1.82-8.24,2.91-3.1,1.27-6.27,2.37-9.37,3.65-3.64,1.5-7.31,3-11,4.46-1.92.78-3.82,1.59-5.73,2.39.1-.24.28-.56-.08-.65-.53-.13-.92.19-1.4.65H242a4.43,4.43,0,0,1-2,.83c-.53-.09.23-.8-.38-.82a2.79,2.79,0,0,0-2,.92c.91.77,1.61-.41,2.4-.08A13.31,13.31,0,0,1,237.26,33.35Z"/><path class="cls-5" d="M398,3.2c4.16,1,7.46,3.54,10.67,6.23a14.27,14.27,0,0,1,3.87,6.21,21.28,21.28,0,0,0,1,1.91c.79,1.6.44,3.23.66,4.83a21.67,21.67,0,0,1-.88,8.25c-.53,2.14-1.8,4.08-2.42,6.21-.53,1.81-1.62,3.29-2.28,5a13,13,0,0,1-2,2.9c-1.44,1.9-3,3.77-4.22,5.76-.7,1.14-2,1.77-2.34,3.15-.2.82-1,.91-1.73.87a88.06,88.06,0,0,0,10.36-14.46,39.54,39.54,0,0,0,4.76-12.62c.66-4.28.47-8.52-1.53-12.47a21.72,21.72,0,0,0-9.76-9.5,26,26,0,0,0-4-1.9C398,3.56,398,3.33,398,3.2Z"/><path class="cls-5" d="M216.34,40.75a1.65,1.65,0,0,1-.88,1,58.28,58.28,0,0,0-6.72,3.19c-1.39.76-3,1.06-4.36,2a12.1,12.1,0,0,1-4.33,2.07,5.53,5.53,0,0,0-2.72,1.48c-1.39,1.41-3.34,1.56-4.94,2.49s-3.46,1.66-5.13,2.6a23,23,0,0,0-3,1.79c-1,.77-2.3,1-3.42,1.69-3.23,1.92-6.58,3.63-9.88,5.43a9.83,9.83,0,0,1-2.28.75,26.92,26.92,0,0,1,4.71-2.84c9.24-5.12,18.56-10.12,28.09-14.69q6.81-3.27,13.66-6.48A7.27,7.27,0,0,1,216.34,40.75Z"/><path class="cls-5" d="M76.36,143.64c.38,1.55-1,2.47-1.43,3.7s-1.18,2.38-1.74,3.59a75.71,75.71,0,0,0-3.4,9.8c-.18.58-.13,1.22-.28,1.81a20.55,20.55,0,0,0-.24,8.22c.47,3.11,1,6.48,3.08,8.93,1.38,1.59,2,3.7,3.76,5.06.75.56,2,1.22,2.13,2.56a8.3,8.3,0,0,1-2.56-1.94,26.29,26.29,0,0,1-6.81-13.12c-1.18-6.05.15-11.73,2-17.36A56.79,56.79,0,0,1,76.36,143.64Z"/><path class="cls-5" d="M155.48,73c.39.84-.33,1.18-.81,1.38-2.6,1-4.56,3.08-7,4.35a4.93,4.93,0,0,0-1.9,1.61,2.14,2.14,0,0,1-2.14,1.26,1.46,1.46,0,0,0-1.36.69c-.72,1.24-2,1.41-3.12,2-.19.1-.44.16-.56.32-1.39,1.8-3.85,2.24-5.23,3.84s-3.58,2.25-5.06,3.76c-.48.49-1,1.06-1.82.58,3.52-2.81,7.18-5.41,10.89-7.94,5.33-3.64,10.75-7.13,16.15-10.67C154.14,73.67,154.82,73.33,155.48,73Z"/><path class="cls-5" d="M241.54,215.74a4.37,4.37,0,0,1-2.31-.63c-1.69-.76-3.59-1.07-5.32-1.75-2.49-1-5.17-.58-7.71-1.22-1.31-.33-2.82.05-4.23.16-.76.06-1.55-.47-2.1-.32-2.76.73-5.64.37-8.41,1.22-1.75.54-3.52,1.37-5.46,1.21a30.25,30.25,0,0,1,8.28-2.34,47.21,47.21,0,0,1,11.57-.49A36.11,36.11,0,0,1,241.54,215.74Z"/><path class="cls-5" d="M55.17,214.36c-1.28.31-2.53-.18-3.79-.18H34.73c-1.68,0-2.15.46-2.15,2.17,0,7.79,0,15.59,0,23.38a2.28,2.28,0,0,1-.16,1.41c0-1.23-.08-2.46-.08-3.69,0-7.48,0-15,0-22.44,0-1,.29-1.26,1.26-1.25,6.78.05,13.56,0,20.34.06C54.35,213.83,55,213.56,55.17,214.36Z"/><path class="cls-5" d="M96.92,118.06a1.94,1.94,0,0,1-.84,1.69,3.22,3.22,0,0,0-1.35,1.84.38.38,0,0,1-.13.22c-1.85,1.31-3.06,3.24-4.64,4.78a25,25,0,0,0-4.15,5h0c-1.12.45-1.47,1.66-2.35,2.37-.27.22-.43.55-.83.55a31.93,31.93,0,0,1,3.91-5.19c3-3.65,6.23-7.19,9.59-10.55C96.38,118.5,96.65,118.29,96.92,118.06Z"/><path class="cls-5" d="M495.67,256.63c-.32-1,.4-1.8.69-2.67.82-2.49,2.26-4.79,2.07-7.57a10.78,10.78,0,0,1,.5-2.17c.49-3.39-.66-6.54-1.1-9.8-.33-2.4-2-4.18-2.1-6.54,1.3,1.38,1.75,3.19,2.29,4.89a28.85,28.85,0,0,1,1.38,10.06C499.15,247.69,498.3,252.41,495.67,256.63Z"/><path class="cls-5" d="M402.53,2.65c-1.22.54-2.33-.16-3.42-.45a7.64,7.64,0,0,0-2.73-.29c0,.6.94.58.84,1.23C393.36,2,389.53.76,385.54,0c2.15.18,4.32.27,6.46.57,3.39.47,6.78,1,10.12,1.82C402.3,2.43,402.46,2.46,402.53,2.65Z"/><path class="cls-5" d="M32.42,249.15c.14,1.78.36,3.56.4,5.35.06,3.56.16,7.13,0,10.69a69.37,69.37,0,0,0-.16,8.15c.19,2.94.18,5.88.2,8.82,0,.46.18,1-.24,1.38,0-5-.09-10.05-.11-15.07C32.45,262,32.44,255.58,32.42,249.15Z"/><path class="cls-5" d="M168.69,65.13c-.3,1.15-1.46,1.37-2.26,1.84a94.54,94.54,0,0,0-8.73,5.68c-.58.43-1.31,1-2.08.19,4.08-2.63,8.28-5.07,12.47-7.51A1.42,1.42,0,0,1,168.69,65.13Z"/><path class="cls-5" d="M202.82,302.08c1.63-.29,2.75.91,4.12,1.38a37,37,0,0,0,6.38,1.68c2.09.32,4.19.38,6.27.62.47.05.76.16.74.68a40.57,40.57,0,0,1-16.16-3.59C203.7,302.63,203.26,302.34,202.82,302.08Z"/><path class="cls-5" d="M355.63,90.74c.17.36.18.62-.27.84a6,6,0,0,0-3,2.42c-.12.22-.51.32-.79.41-1.67.52-2.91,1.77-4.39,2.53-1.15.59-2.22,1.62-3.68,1.57Z"/><path class="cls-5" d="M224.56,306.39c1.22-1,2.8-.35,4.13-.88,1.88-.75,4-.12,5.87-1.16.11-.06.29-.06.36-.15,1.1-1.41,2.58-.86,4-.79a38.3,38.3,0,0,1-14.33,3Z"/><path class="cls-5" d="M117.11,100c0,.12.15.33.12.35-1,.67-1,2-2.4,2.52s-2.8,1.1-3.09,2.83c0,.23-.11.31-.4.36-.8.12-1.09,1.94-2.33.71,1.86-1.87,4-3.4,6-5.12C115.66,101,116.4,100.51,117.11,100Z"/><path class="cls-2" d="M401.43,247.49l-29.35,0c-.44,0-.88,0-1.32,0l-.21-.26,30,0C400.87,247.27,401.19,247.22,401.43,247.49Z"/><path class="cls-2" d="M370.54,265c.17-.3.46-.19.7-.19l30.19,0a.89.89,0,0,1-.73.21Z"/><path class="cls-5" d="M126.35,92.83c.65.47.09.67-.21.91-.55.45-1.36.55-1.68,1.3h0c-1.21.4-1.83,1.55-2.82,2.24-.72.5-1.2,1.36-2.23,1.39a.66.66,0,0,0-.57.49c-.28.87-.89,1-1.65.7C120.19,97.45,123.13,95,126.35,92.83Z"/><path class="cls-5" d="M253,227.12c-1.2.1-1.32-1-1.63-1.67-1.15-2.4-3.08-4.1-4.91-5.89-.31-.3-.81-.45-.47-1A21.69,21.69,0,0,1,253,227.12Z"/><path class="cls-5" d="M82.62,134.49a2,2,0,0,1-.45,1.6,43.43,43.43,0,0,0-4.9,7.19c-.2.36-.46.51-.86.3A55.93,55.93,0,0,1,82.62,134.49Z"/><path class="cls-2" d="M453.29,213.76c-3,0-6.06.06-9.09.06-5,0-9.93,0-14.9,0a4.06,4.06,0,0,1,.76-.14h22.46A6.88,6.88,0,0,1,453.29,213.76Z"/><path class="cls-5" d="M72.69,244.2c-.48.22-.73,0-.94-.43l-4-6.93a1.89,1.89,0,0,1-.18-1.28C69.41,238.37,71,241.29,72.69,244.2Z"/><path class="cls-5" d="M238.87,303.42a1.13,1.13,0,0,1,1-1.19c2.13-.45,3.75-1.81,5.43-3.05.43-.31.77-.76,1.36-.33A23.22,23.22,0,0,1,238.87,303.42Z"/><path class="cls-5" d="M224.56,37.06c0,.75-.49,1.07-1.13,1.23a22.71,22.71,0,0,0-5.27,2.3,2.12,2.12,0,0,1-1.82.18A66,66,0,0,1,224.56,37.06Z"/><path class="cls-5" d="M101.78,113.18a2.4,2.4,0,0,1-1.22,2.33,6.32,6.32,0,0,0-1.8,1.65,1.83,1.83,0,0,1-1.85.91Z"/><path class="cls-5" d="M199,218.29c.29.89-.65,1-1,1.51a10.21,10.21,0,0,1-3.92,3.39A19.38,19.38,0,0,1,199,218.29Z"/><path class="cls-5" d="M385.58,67.54a1.52,1.52,0,0,1-.83,1.4,9.62,9.62,0,0,0-2.19,2.13,1.3,1.3,0,0,1-1.61.45A28.37,28.37,0,0,1,385.58,67.54Z"/><path class="cls-2" d="M232,42.1c-.1-.26-.34-.26-.55-.29a18.75,18.75,0,0,1,5.08-2.54A22.18,22.18,0,0,1,232,42.1Z"/><path class="cls-5" d="M396.74,56.27c.16.23.31.57.11.72-1.19.95-1.83,2.54-3.44,3A18.74,18.74,0,0,1,396.74,56.27Z"/><path class="cls-5" d="M389.14,64.22c.3.78-.46,1.1-.82,1.32-1,.6-1.17,2.25-2.73,2A14.85,14.85,0,0,1,389.14,64.22Z"/><path class="cls-5" d="M246.76,298.75c0-.16-.17-.37-.11-.47a5.53,5.53,0,0,1,3.08-2.54A12.13,12.13,0,0,1,246.76,298.75Z"/><path class="cls-5" d="M108.89,106.84c.16.23.31.57.11.72-1,.73-1.45,2.26-3.06,2.06A12.37,12.37,0,0,1,108.89,106.84Z"/><path class="cls-5" d="M392.71,60.63a1.3,1.3,0,0,1-.58,1.22,3.17,3.17,0,0,0-1.43,2.09c-.11.72-.82-.09-1.26,0A23.93,23.93,0,0,1,392.71,60.63Z"/><path class="cls-5" d="M79.15,188a6.1,6.1,0,0,1,2.6.82c.58.29.65.66.18,1.12A11.28,11.28,0,0,1,79.15,188Z"/><path class="cls-5" d="M67.4,235.14c-.66.39-.84-.16-1-.57-.38-.79-1.16-1.46-.77-2.49C66.19,233.1,66.79,234.12,67.4,235.14Z"/><path class="cls-5" d="M57.52,218.37a2.63,2.63,0,0,1-1.7-3A15.11,15.11,0,0,1,57.52,218.37Z"/><path class="cls-5" d="M59.31,221.6c-1.12-.35-1.79-1.56-1.8-3.24A10.31,10.31,0,0,1,59.31,221.6Z"/><path class="cls-5" d="M245,217.85c-1.23-.58-2.91-.44-3.46-2.13A13.39,13.39,0,0,1,245,217.85Z"/><path class="cls-5" d="M494.13,257.32a2.81,2.81,0,0,0,.43-.61c.38-.92.68-.37,1,0a7.24,7.24,0,0,1-1.41,2.17C494.14,258.39,494.13,257.86,494.13,257.32Z"/><path class="cls-5" d="M105.94,109.62c.11,1.77-1.5,1.53-2.43,2.09A7.2,7.2,0,0,1,105.94,109.62Z"/><path class="cls-5" d="M374.16,77.28c-.22,1.17-.83,1.84-2.12,1.61A9.81,9.81,0,0,1,374.16,77.28Z"/><path class="cls-5" d="M193.9,223.35l.27.22c-.65.84-.83,2.06-2,2.49A11,11,0,0,1,193.9,223.35Z"/><path class="cls-5" d="M380.83,71.63c.22,1.18-.05,1.43-1.46,1.35A2.62,2.62,0,0,1,380.83,71.63Z"/><path class="cls-5" d="M62,259.18c1.34.42,1.3,1.65,1.58,2.69A11.94,11.94,0,0,1,62,259.18Z"/><path class="cls-5" d="M103.28,112c-.2,1.8-.27,1.86-1.43,1.18Z"/><path class="cls-5" d="M65.53,232c-.29.28-.57.42-.76-.09a3.86,3.86,0,0,1-.41-1.86Z"/><path class="cls-5" d="M398.27,54.53c0,1-.26,1.71-1.44,1.65C397.35,55.67,397.56,54.88,398.27,54.53Z"/><path class="cls-2" d="M383.18,51.89c-.52.2-1.19.19-1.43-.19s.21-.86.64-1.13C382.18,51.29,382.67,51.59,383.18,51.89Z"/><path class="cls-5" d="M202.15,216.16c.2,1.55-1.08.88-1.73,1.15A5.75,5.75,0,0,1,202.15,216.16Z"/><path class="cls-5" d="M206,214.39c-.65.72-1.34,1.35-2.43,1.05A8.21,8.21,0,0,1,206,214.39Z"/><path class="cls-2" d="M388.74,18.53a3.06,3.06,0,0,1,0,2.13C388.61,20,388.31,19.24,388.74,18.53Z"/><path class="cls-2" d="M457.54,213.83a16.3,16.3,0,0,1-3.35-.05A7.29,7.29,0,0,1,457.54,213.83Z"/><path class="cls-2" d="M220.32,113.84a3.75,3.75,0,0,1-2.2,0C218.86,114,219.58,113.27,220.32,113.84Z"/><path class="cls-2" d="M386.62,51.9a1.77,1.77,0,0,1-1.6,0A1.25,1.25,0,0,1,386.62,51.9Z"/><path class="cls-5" d="M201,301c.69.25,1.61.08,1.87,1.08A5.83,5.83,0,0,1,201,301Z"/><path class="cls-5" d="M378.49,73.73c0,.88-.44,1.16-1.25,1Z"/><path class="cls-2" d="M430.89,334.89c0-1,0-1.94,0-2.91A4.28,4.28,0,0,1,430.89,334.89Z"/><path class="cls-2" d="M184.33,107.43a1.46,1.46,0,0,1-1.08-1A1.21,1.21,0,0,1,184.33,107.43Z"/><path class="cls-5" d="M64.36,230.05c-1.11,0-.74-.77-.8-1.34A3.12,3.12,0,0,1,64.36,230.05Z"/><path class="cls-5" d="M2.13,214c-.54.85-1.22.09-1.83.17a.21.21,0,0,1,0-.2Z"/><path class="cls-5" d="M203.59,215.42c-.28.55-.3,1.6-1.33.68C202.71,215.88,203.15,215.65,203.59,215.42Z"/><path class="cls-2" d="M228.79,113a1.36,1.36,0,0,1-1.31.15A.93.93,0,0,1,228.79,113Z"/><path class="cls-5" d="M375.87,75.86c.21.93-.33,1-1,.82Z"/><path class="cls-2" d="M246.8,109.85a1.57,1.57,0,0,1-1.34.31C245.86,109.85,246.25,109.5,246.8,109.85Z"/><path class="cls-2" d="M398.3,22.26a1.56,1.56,0,0,1-1.39.33C397.27,22,397.82,22.27,398.3,22.26Z"/><path class="cls-2" d="M311.53,87.44a1.7,1.7,0,0,1-1.2.63A1,1,0,0,1,311.53,87.44Z"/><path class="cls-2" d="M230.91,112.75a1.43,1.43,0,0,1-1.29.1C230.05,112.74,230.44,112.29,230.91,112.75Z"/><path class="cls-2" d="M179.52,100.11a2.25,2.25,0,0,1-.29-1.64C179.74,98.94,179.52,99.54,179.52,100.11Z"/><path class="cls-2" d="M233.18,112.35a1.08,1.08,0,0,1-1.24.23C232.28,112.09,232.74,112.26,233.18,112.35Z"/><path class="cls-5" d="M418.37,304.13a1.67,1.67,0,0,1,.52-1.27C418.82,303.32,419.41,304.06,418.37,304.13Z"/><path class="cls-2" d="M243.35,110.61a2.1,2.1,0,0,1-1.32.25C242.45,110.63,242.84,110.31,243.35,110.61Z"/><path class="cls-2" d="M254.84,34.2a2.7,2.7,0,0,1-1.41-.06C253.91,33.76,254.36,34.22,254.84,34.2Z"/><path class="cls-5" d="M78.27,187.33c.65-.25.86.1.89.67A1.75,1.75,0,0,1,78.27,187.33Z"/><path class="cls-2" d="M388.66,22.5c.06.45.06.87-.44,1.1A.9.9,0,0,1,388.66,22.5Z"/><path class="cls-5" d="M55.75,215.28c-1.1.27-.51-.53-.59-.92A1.81,1.81,0,0,1,55.75,215.28Z"/><path class="cls-5" d="M73.35,245.41c-.49-.23-1-.44-.64-1.15C72.93,244.64,73.14,245,73.35,245.41Z"/><path class="cls-2" d="M179.18,94.76a1.05,1.05,0,0,1,.13-1C179.7,94.12,179.29,94.42,179.18,94.76Z"/><path class="cls-2" d="M264.82,31.25a3.58,3.58,0,0,1-1.59.16A2.48,2.48,0,0,1,264.82,31.25Z"/><path class="cls-5" d="M221.9,306.5c.27-.63.54-.65.81,0Z"/><path class="cls-2" d="M392.71,38.68a.69.69,0,0,1,.82-.09C393.3,39,393,39,392.71,38.68Z"/><path class="cls-5" d="M245.87,218.48c-.54.12-.86-.06-.9-.65A2,2,0,0,1,245.87,218.48Z"/><path class="cls-2" d="M183,106.16c-.45-.07-.65-.42-.85-.77C182.56,105.5,182.94,105.64,183,106.16Z"/><path class="cls-2" d="M206.36,113.88a2.54,2.54,0,0,1-1.7,0Z"/><path class="cls-2" d="M223.52,113.58a2.7,2.7,0,0,1-1.59.11A3,3,0,0,1,223.52,113.58Z"/><path class="cls-2" d="M226.15,113.3a.64.64,0,0,1-.81.06Q225.7,112.81,226.15,113.3Z"/><path class="cls-5" d="M376.9,75.06c.25.79-.25.65-.7.56C376.43,75.43,376.66,75.24,376.9,75.06Z"/><path class="cls-2" d="M281.61,16a.68.68,0,0,1-.7.34s-.1-.16-.08-.2C281,15.81,281.24,15.86,281.61,16Z"/><path class="cls-2" d="M303.13,91.3a1.13,1.13,0,0,1-1,.44C302.29,91.22,302.75,91.34,303.13,91.3Z"/><path class="cls-2" d="M388.46,52.68l-.09-.73c.21,0,.47-.09.52.19S388.72,52.59,388.46,52.68Z"/><path class="cls-2" d="M405.84,20.87l-.67-.32C405.54,20.32,405.89,20.18,405.84,20.87Z"/><path class="cls-2" d="M388.29,16.29a.79.79,0,0,1,.25.95C388.12,17,388.21,16.65,388.29,16.29Z"/><path class="cls-5" d="M374.88,76.68c.13.65-.31.62-.73.61A1.26,1.26,0,0,1,374.88,76.68Z"/><path class="cls-5" d="M379.4,73c-.09.46-.27.83-.85.71Z"/><path class="cls-5" d="M199.63,217.83c0,.43-.17.63-.61.41Z"/><path class="cls-2" d="M391.49,39.06a.59.59,0,0,1,.72-.25C392.06,39.16,391.81,39.2,391.49,39.06Z"/><path class="cls-2" d="M301.49,92a.83.83,0,0,1-.69.38C300.88,91.94,301.13,91.84,301.49,92Z"/><path class="cls-2" d="M370.72,49.5a.52.52,0,0,1-.52.53A.48.48,0,0,1,370.72,49.5Z"/><path class="cls-2" d="M394,38.44a.4.4,0,0,1,.55-.12C394.46,38.58,394.3,38.74,394,38.44Z"/><path class="cls-2" d="M405.49,22.53l.21-.55C406.06,22.32,405.82,22.44,405.49,22.53Z"/><path class="cls-2" d="M198.25,66.13a.82.82,0,0,1,.63-.46C198.84,66.07,198.62,66.2,198.25,66.13Z"/><path class="cls-2" d="M244.59,110.28a.61.61,0,0,1-.73.19C244,110.14,244.28,110.11,244.59,110.28Z"/><path class="cls-2" d="M300,50c-.33-.33-.44-.66,0-1C300,49.38,300,49.7,300,50Z"/><path class="cls-2" d="M192.26,72a.55.55,0,0,1,.53-.52A.48.48,0,0,1,192.26,72Z"/><path class="cls-2" d="M376.28,43.94a.62.62,0,0,1-.51.56A.48.48,0,0,1,376.28,43.94Z"/><path class="cls-2" d="M234.61,112.2a.35.35,0,0,1-.53.08C234.22,112,234.39,112,234.61,112.2Z"/><path class="cls-2" d="M194.9,69.36a.58.58,0,0,1,.54-.51A.48.48,0,0,1,194.9,69.36Z"/><path class="cls-2" d="M256,34.11a.54.54,0,0,1-.83.1Z"/><path class="cls-2" d="M236,112a.85.85,0,0,1-.8.1A1,1,0,0,1,236,112Z"/><path class="cls-2" d="M256.79,33.35c-.16.17-.32.33-.47.5C256.3,33.52,256.44,33.34,256.79,33.35Z"/><path class="cls-2" d="M430.84,330.65c-.06-.26-.11-.52-.17-.78A.77.77,0,0,1,430.84,330.65Z"/><path class="cls-2" d="M300.75,92.36a.36.36,0,0,1-.46.21Z"/><path class="cls-5" d="M393.43,60c0,.28-.18.35-.4.39Z"/><path class="cls-2" d="M303.86,51.07a.3.3,0,0,1-.38.17Z"/><path class="cls-2" d="M422.09,320.76a.52.52,0,0,1-.55-.15A.51.51,0,0,1,422.09,320.76Z"/><path class="cls-2" d="M284,15.23s-.07,0-.11,0-.06,0-.09-.07Z"/><path class="cls-2" d="M283.18,15.5l-.09.06-.08-.14a.22.22,0,0,1,.11,0S283.16,15.47,283.18,15.5Z"/><path class="cls-2" d="M282.34,15.67l.08.08-.19.08s-.05-.05-.07-.08Z"/><path class="cls-2" d="M373.05,47.12l-.24.45C372.81,47.37,372.84,47.2,373.05,47.12Z"/><path class="cls-2" d="M395.63,22a.44.44,0,0,1-.06-.61Z"/><path class="cls-2" d="M252.88,34l-.5-.15A.46.46,0,0,1,252.88,34Z"/><path class="cls-5" d="M200.08,217.49c0,.36-.2.37-.46.35C199.68,217.61,199.89,217.56,200.08,217.49Z"/><path class="cls-5" d="M393,60.42l-.28.21Z"/><polygon class="cls-2" points="193.55 70.66 193.51 70.6 193.59 70.62 193.55 70.66"/><path class="cls-5" d="M493.87,259.21l.28-.3Z"/><path class="cls-2" d="M329.42,58.39a.17.17,0,0,1-.15-.18A.2.2,0,0,1,329.42,58.39Z"/><path class="cls-2" d="M329.18,58.16l-.29-.17Z"/><path class="cls-2" d="M327,57.43l-.24-.26Z"/><path class="cls-2" d="M326.79,57.15c-.15,0-.23-.09-.2-.25Z"/><path class="cls-2" d="M326.54,56.8a.16.16,0,0,1-.17-.15A.22.22,0,0,1,326.54,56.8Z"/><path class="cls-5" d="M82,190c.18-.08.29,0,.36.16Z"/><path class="cls-5" d="M200.44,217.3c-.05.18-.16.25-.34.18Z"/><path class="cls-2" d="M377.85,42.08l-.25.25Z"/><polygon class="cls-2" points="390.08 12.78 389.99 12.79 390 12.71 390.08 12.78"/><path class="cls-5" d="M32.42,247.29l.07.15-.06.06A.14.14,0,0,1,32.42,247.29Z"/><path class="cls-5" d="M343.47,98.51l-.32.23A.28.28,0,0,1,343.47,98.51Z"/><path class="cls-2" d="M301.61,51.24l-.25-.14Z"/><path class="cls-2" d="M395.39,38.14a.15.15,0,0,1,.26,0Z"/><path class="cls-2" d="M256.29,33.87c0,.15-.08.23-.24.21Z"/><path class="cls-2" d="M179.15,97.84c0-.14-.05-.28-.08-.42A.32.32,0,0,1,179.15,97.84Z"/><path class="cls-2" d="M260.25,31.78c-.07.09-.14.17-.2.26C260.12,32,260.18,31.86,260.25,31.78Z"/><path class="cls-2" d="M313.61,86.34l-.34.21A.26.26,0,0,1,313.61,86.34Z"/><path class="cls-2" d="M196.81,67.52l.22-.22Z"/><path class="cls-2" d="M262.67,31.32l-.22-.08A.18.18,0,0,1,262.67,31.32Z"/><polygon class="cls-2" points="300.24 50.31 300.23 50.35 300.25 50.32 300.24 50.31"/><path class="cls-2" d="M423.42,321l-.29-.12Z"/><path class="cls-2" d="M424,321.28l-.21-.17C423.81,321.17,423.89,321.22,424,321.28Z"/><path class="cls-2" d="M262.16,31.17a.23.23,0,0,1-.3-.17Z"/><path class="cls-2" d="M261.15,31l-.3.14Z"/><path class="cls-2" d="M396.38,22.75c-.07.13-.13.13-.2,0A.23.23,0,0,1,396.38,22.75Z"/><path class="cls-2" d="M395.9,22.7c-.18,0-.24,0-.19-.21Z"/><path class="cls-2" d="M309.9,88.2l-.35.16Z"/><path class="cls-2" d="M395.35,20.66l-.19-.29Z"/><polygon class="cls-2" points="312.33 87.07 312.31 87.16 312.24 87.12 312.33 87.07"/><path class="cls-2" d="M388,15.84l.23.31A.27.27,0,0,1,388,15.84Z"/><path class="cls-2" d="M248.14,109.61l-.33,0Z"/><path class="cls-2" d="M391.93,14.5l-.24-.22Z"/><polygon class="cls-2" points="390.28 12.97 390.25 13.02 390.27 12.96 390.28 12.97"/><path class="cls-5" d="M376.2,75.61c0,.2-.09.28-.29.21Z"/><path class="cls-5" d="M67.59,235.59c-.17-.06-.23-.15-.12-.32Z"/><path class="cls-5" d="M377.16,74.82q.1.29-.18.18Z"/><path class="cls-2" d="M193.08,71.23l.24-.26Z"/><path class="cls-2" d="M184.59,107.66l-.2-.2Z"/><path class="cls-2" d="M199.14,65.39a.25.25,0,0,1,.27-.25Z"/><path class="cls-2" d="M290,72.8l.18-.27Z"/><path class="cls-2" d="M291.82,72.05h.26C292,72.2,291.9,72.19,291.82,72.05Z"/><path class="cls-2" d="M290.47,72.25a.21.21,0,0,1,.29-.17Z"/><path class="cls-5" d="M389.44,64c0,.2-.09.28-.28.25Z"/><path class="cls-5" d="M85.8,131.57l.11.06-.11-.06Z"/><path class="cls-5" d="M124.46,95l.11.06-.11-.06Z"/><path class="cls-5" d="M233.6,278c.37-5.37.21-10.74.23-16.11,0-5.73,0-11.46,0-17.19a44.46,44.46,0,0,0-.87-8.38,9.85,9.85,0,0,0-2.43-5c1.1-.41,1.51.56,1.75,1.15a20.69,20.69,0,0,1,2,7.77c0,2-.09,4,.07,6a151.51,151.51,0,0,1,.21,18.33c-.16,4.28.22,8.61-.72,12.85A2.68,2.68,0,0,1,233.6,278Z"/><path class="cls-5" d="M210.75,240.91c-.27,5.84-.21,11.69-.2,17.54s-.2,12,.27,17.94c.28,3.53.57,7.1,2.94,10-1.57-.21-1.61-1.68-2.14-2.69-1.19-2.26-1.31-4.82-1.5-7.25a19,19,0,0,1,.08-4.39A20.87,20.87,0,0,0,210,269q0-10,0-20.08c0-2.39.17-4.78.25-7.17C210.27,241.33,210.28,241,210.75,240.91Z"/><path class="cls-5" d="M230.2,231c-5.29-3.1-10.59-3-15.9-.07l-.13-.12.12.13c-2.33,2.19-2.78,5.13-3.23,8.06a3.08,3.08,0,0,1-.28,1.4,10.28,10.28,0,0,1,.3-4.84,31.59,31.59,0,0,1,1.57-3.72A7.8,7.8,0,0,1,216.5,229c1.47-.19,2.92-.63,4.39-.75,2.54-.2,5,.51,7.48.89A1.87,1.87,0,0,1,230.2,231Z"/><path class="cls-5" d="M214,286.63c4.57,3.13,9.45,2.87,14.45,1.32.39.51.05.74-.37.81-3.07.52-6.11,1.43-9.27.5a6.93,6.93,0,0,0-2.18-.4C215,289,214.45,287.85,214,286.63Z"/><path class="cls-5" d="M229.31,287.5c2.79-1.89,3.51-4.82,4-7.88a2.18,2.18,0,0,1,.26-1.12c1.07.51.68,1.61.46,2.16-.83,2-1.15,4.28-2.63,6A1.82,1.82,0,0,1,229.31,287.5Z"/><path class="cls-5" d="M228.44,288l.35-.18Z"/><path class="cls-5" d="M230.51,231.23l-.23-.19C230.48,231,230.54,231,230.51,231.23Z"/><path class="cls-5" d="M473.72,232.48c-2.87-2.18-6.26-2.82-9.71-3.18a102.49,102.49,0,0,0-12.76-.26,1.06,1.06,0,0,1,1.28-.63,12.72,12.72,0,0,0,5.56.09c1.71-.22,3.4.34,5.11.29,3.19-.09,6.06,1.15,9.06,1.92C473.59,231,473.5,231.68,473.72,232.48Z"/><path class="cls-5" d="M451.24,255.17c5.79,0,11.59.38,17.3-1a14.69,14.69,0,0,0,5.19-2.42c-.14,1.2-1.28,1.4-2,1.84-2.33,1.37-5,1.56-7.62,2a19.75,19.75,0,0,1-3.7-.08c-2.5-.07-5,.45-7.48.28C452.27,255.7,451.64,255.78,451.24,255.17Z"/><path class="cls-5" d="M474.48,250.93c3.24-5.56,3.24-11.22.46-17a1.63,1.63,0,0,1,.58-.28c.4,0,.11.29.17.43a18.67,18.67,0,0,1,1.61,5.33,4.47,4.47,0,0,1,.12,1.69c-.5,1.72.26,3.48-.23,5.18-.38,1.34-.67,2.71-1.11,4C475.83,251.05,475.11,251,474.48,250.93Z"/><path class="cls-5" d="M474.85,233.86l-1.15-1.4C474.83,232.32,475.07,232.9,474.85,233.86Z"/><path class="cls-5" d="M473.71,251.75l.53-.55C474.28,251.58,474.09,251.75,473.71,251.75Z"/><polygon class="cls-5" points="494.13 257.32 494.02 257.26 494.07 257.22 494.13 257.32"/><path class="cls-5" d="M474.22,251.21l.28-.3Z"/><path class="cls-3" d="M240,32.08c-.79-.33-1.49.85-2.4.08a2.8,2.8,0,0,1,2-.92c.61,0-.15.73.38.82C240.05,32.06,240,32.08,240,32.08Z"/><path class="cls-3" d="M242,31.23h-1.47c.48-.46.87-.78,1.4-.65.36.09.18.41.07.65Z"/><path class="cls-3" d="M214.28,230.91l-.12-.13a.49.49,0,0,1,.12.13Z"/></g></g></svg>