<?xml version="1.0" encoding="utf-8"?>
<!-- Generator: Adobe Illustrator 26.0.0, SVG Export Plug-In . SVG Version: 6.00 Build 0)  -->
<svg version="1.1" id="Capa_1" xmlns="http://www.w3.org/2000/svg" xmlns:xlink="http://www.w3.org/1999/xlink" x="0px" y="0px"
	 viewBox="0 0 1417.3 841.9" style="enable-background:new 0 0 1417.3 841.9;" xml:space="preserve">
<path d="M738.9,131c19.8,0,39.6,0,59.7,0c0,6.6,0,12.9,0,19.9c-6.4,0-12.8,0-19.5,0c0,6.8,0,13.1,0,19.9c-6.7,0-13.1,0-20.2,0
	c0,20.4,0,40.3,0,60.3l0.1-0.1c-6.7,0-13.3,0-20-0.1c0-6.6,0-13.1,0-19.5c-7.2,0-13.6,0-19.8,0c0,6.6,0,12.9,0,19.3
	c6.8,0,13.4,0,20,0c0,6.7,0,13.4,0,20.3c7,0,13.4,0,19.8,0l-0.1-0.1c0,6.5,0,12.9,0,19.7c13.4,0,26.5,0,39.9,0c0-6.4,0-12.6,0-19.3
	c6.7,0,13.1,0,20.1,0c0,6.3,0,12.7,0,19.5c13.5,0,26.4,0,39.9,0c0,13.4,0,26.5,0,39.8c13.6,0,26.6,0,40.1,0c0-19.7,0-39.3,0-59.3
	c6.7,0,13.1,0,20.1,0c0,6.4,0,12.8,0,19.5c6.8,0,13.1,0,19.9,0c0,6.7,0,13.1,0,19.8c6.9,0,13.3,0,20.1,0c0-13.1,0-26.1,0-39.3
	c6.7,0,13.1,0,19.9,0c0,6.3,0,12.6,0,19.2c6.7,0,13.1,0,20.1,0c0-6.3,0-12.6,0-19.3c13.5,0,26.4,0,39.7,0c0,32.9,0,66,0,99.6
	c-6.3,0-12.7,0-19.4,0c0,6.8,0,13.1,0,19.9c-13.4,0-26.5,0-40.3,0c0,7.1,0,13.7,0,20.3l0.1-0.1c-6.7,0-13.4,0-20.1,0l0.1,0.1
	c0-13.3,0-26.5,0-40.1c-7.2,0-13.7,0-20.1,0l0.1,0.1c-0.1-6.7-0.1-13.4-0.2-20.1c6.6,0,13.1,0,19.8,0c0-6.9,0-13.3,0-19.6
	c-6.7,0-13.1,0-19.6,0c0,6.8,0,13.3,0,19.7c-19.9,0-39.7,0-59.7,0c0,6.8,0,13.2,0,20.1c6.7,0,13.1,0,19.6,0c0,7,0,13.4,0,19.9
	l0.1-0.1c-6.6,0-13.2,0-20.1,0c0,7.2,0,13.7,0,20.1l0.1-0.1c-6.6,0-13.2,0-20.3,0c0-13.7,0-26.7,0-40.1c-13.5,0-26.4,0-39.4,0
	c0-6.8,0-13.1,0-20.1c6.7,0,13.1,0,19.4,0c0-13.5,0-26.4,0-39.4c-26.7,0-53,0-79.7,0c0,6.8,0,13.3,0,19.7c-6.7,0-13.4,0-20.1,0
	c0-6.6,0-13.1,0-19.8c-6.9,0-13.3,0-19.6,0c0,6.7,0,13.1,0,19.6c6.8,0,13.3,0,19.7,0c0,6.6,0,13.1,0,20.2c-7.1,0-13.5,0-20.2,0
	c0,7,0,13.4,0,19.9l0.1-0.1c-13.3,0-26.5,0-39.7,0c0,13.8,0,26.8,0,40.3c6.7,0,12.9,0,19.3,0c0,6.8,0,13.1,0,20.1
	c-6.7,0-13.1,0-19.4,0c0,6.8,0,13.1,0,19.9c6.7,0,13,0,19.3,0c0,13.6,0,26.6,0,40.1c-6.7,0-12.9,0-19.7,0c0,6.8,0,13.1,0,19.9
	c-7,0-13.5,0-20,0c0-13.2,0-26.5,0-39.7c-6.9,0-13.3,0-19.9,0c0,13.5,0,26.6,0,39.7c-6.7,0-13.4,0-20.2,0c0-6.6,0-13.2,0-20
	c-7.1,0-13.5,0-20,0c0-6.7,0-13.4,0-20.1c6.6,0,13.2,0,20,0c0-13.7,0-26.9,0-40c13.2,0,26.4,0,39.7,0c0-6.9,0-13.2,0-20.1
	c-6.7,0-13.1,0-19.7,0c0-7,0-13.4,0-19.9c6.6,0,13.2,0,20.2,0c0-13.6,0-26.6,0-40.2c13.5,0,26.6,0,39.7,0c0-20.3,0-40.1,0-59.8
	c6.6,0,13.1,0,19.8,0c0-6.9,0-13.3,0-19.6c-6.7,0-13.1,0-19.6,0c0,6.8,0,13.3,0,19.7c-13.4-0.1-26.7-0.1-40.1-0.2l0.1,0.1
	c0-19.9,0-39.8,0-60.1c-7.2,0-13.7,0-20.1,0l0.1,0.1c0-6.6,0-13.2,0-20.1c-13.9,0-27,0-40.2,0l0.1,0.1c0-6.5,0-12.9,0-19.9
	c6.6,0,12.9,0,20,0c0-7.1,0-13.7,0-20.2l-0.1,0.1c6.7,0,13.4,0,20.1,0l-0.1-0.1c0,6.6,0,13.2,0,20.3c7.1,0,13.5,0,20.3,0
	c0,6.8,0,13.1,0,19.4c13.4,0,26.5,0,39.9,0c0-6.8,0-13.3,0-19.7l-0.1,0.1c6.5,0,12.9,0,19.9,0c0,6.6,0,12.9,0,19.6
	c6.9,0,13.3,0,20.3,0c0-20,0-39.9,0-59.8L738.9,131z M1018.6,331c0-13.8,0-26.8,0-39.9c-13.3,0-26.2,0-39.3,0c0,20,0,39.7,0,59.4
	c6.7,0,13.1,0,19.8,0c0-6.6,0-12.9,0-19.5C1005.7,331,1012,331,1018.6,331z M679.2,230.6c6.8,0,13.1,0,19.4,0c0-6.7,0-13,0-19.4
	c-6.7,0-13.1,0-19.4,0C679.2,217.9,679.2,224.1,679.2,230.6z"/>
<path d="M938.9,490.8c0,19.8,0,39.6,0,60c-6.6,0-13,0-19.7,0c0,6.8,0,13.1,0,19.9c19.6,0,39.4,0,59.4,0c0,13.6,0,26.6,0,40.1
	c-6.4,0-12.6,0-19.3,0c0,6.7,0,13.1,0,20.1c19.7,0,39.4,0,59.4,0c0,6.8,0,13.1,0,19.9c-6.3,0-12.7,0-19.4,0c0,6.9,0,13.3,0,20.1
	c13.1,0,26,0,39.3,0c0,6.7,0,13.1,0,20.1c-13,0-26.1,0-39.5,0c0,6.8,0,13.1,0,19.9c-6.7,0-13.1,0-19.8,0c0,6.8,0,13.1,0,19.9
	c6.2,0,12.6,0,19.4,0c0,6.9,0,13.3,0,20c-19.6,0-39.2,0-59.4,0c0-6.2,0-12.6,0-19.6c-7.1,0-13.7,0-20.3,0c0-6.6,0-13.1,0-19.7
	c-6.9,0-13.3,0-19.6,0c0,6.7,0,13.1,0,19.6c6.8,0,13.3,0,19.7,0c0,6.5,0,12.9,0,19.7c-13.4,0-26.5,0-39.9,0c0-6.4,0-12.6,0-19.3
	c-6.7,0-13.1,0-20.1,0c0,6.3,0,12.7,0,19.3c-6.8,0-13.1,0-19.9,0c0-6.3,0-12.7,0-19.8c-7.1,0-13.7,0-20.3,0l0.1,0.1
	c0-6.7,0-13.4,0-20.1l-0.1,0.1c6.6,0,13.2,0,19.7,0c0-7.1,0-13.4,0-20.1c-6.8,0-13.3,0-19.7,0l0.1,0.1c0-13.3,0-26.5,0-40.3
	c7,0,13.4,0,20.1,0c0-13.5,0-26.4,0-39.9c6.8,0,13.2,0,19.9,0c0-13.5,0-26.4,0-39.9c13.4,0,26.5,0,39.5,0c0-6.9,0-13.3,0-19.7
	c-20,0-39.6,0-59.7,0c0,13.3,0,26.4,0,39.7c-7,0-13.5,0-20,0l0.1,0.1c0-20,0-40.1,0-60.1l-0.1,0.1c6.6,0,13.2,0,20,0
	c0-7.2,0-13.7,0-20.1c6.6,0,13.2,0,20.3,0c0,7.1,0,13.5,0,19.8c13.5,0,26.4,0,39.8,0c0-6.6,0-13,0-19.9c6.9,0,13.3,0,20,0
	c0-7,0-13.5,0-19.9l-0.1,0.1c6.7,0,13.4,0,20.1,0L938.9,490.8z M879.1,650.6c20.1,0,39.8,0,59.6,0c0-20,0-39.7,0-59.3
	c-20.1,0-39.8,0-59.6,0C879.1,611.1,879.1,630.6,879.1,650.6z M939.3,670.8c0,13.7,0,26.8,0,39.8c6.7,0,13.1,0,19.8,0
	c0-6.6,0-12.9,0-19.7c6.7,0,13.1,0,19.5,0c0-13.6,0-26.6,0-39.6c-6.7,0-13.1,0-19.8,0c0,6.6,0,12.9,0,19.5
	C952.3,670.8,946,670.8,939.3,670.8z M918.6,690.8c0-6.5,0-13,0-19.6c-13.2,0-26.2,0-39.2,0c0,6.7,0,13.1,0,19.6
	C892.6,690.8,905.4,690.8,918.6,690.8z"/>
<path d="M619.1,651c0-6.7,0-13.4,0-20.1L619,631c6.6,0,13.2,0,20.3,0c0-7.1,0-13.5,0-20.2c6.8,0,13.1,0,19.9,0c0-6.7,0-13.1,0-20
	c13.6,0,26.6,0,39.9,0c0-7,0-13.5,0-19.9c13.4-0.1,26.9-0.1,40.3-0.2c0,6.7,0,13.4,0,20.6c-7.3,0-13.7,0-20.2,0c0,6.9,0,13.4,0,19.8
	c-13.3,0-26.5,0-40.3,0c0,7,0,13.4,0,20.1c-6.8,0-13.1,0-19.4,0c0,13.4,0,26.5,0,39.7c6.8,0,13.3,0,19.7,0c0,6.6,0,13.1,0,19.8
	c6.9,0,13.3,0,19.6,0c0-6.7,0-13.1,0-19.6c-6.8,0-13.3,0-19.7,0c0-6.6,0-13.2,0-20.3c7.1,0,13.5,0,20.3,0c0-6.8,0-13.1,0-19.9
	c6.7,0,13.1,0,19.7,0c0-7,0-13.5,0-19.9c13.3,0,26.5,0,40,0c0-13.7,0-26.9,0-40c6.6,0,13.1,0,19.7,0c0-6.9,0-13.3,0-19.6
	c-6.7,0-13.1,0-19.6,0c0,6.8,0,13.3,0,19.7c-6.7-0.1-13.3-0.1-20-0.2c-0.1-13.3-0.1-26.6-0.2-40c13.3,0,26.5,0,40,0
	c0-7.1,0-13.5,0-20c13.4,0,26.8,0,40.1,0c0,6.7-0.1,13.4-0.1,20.1l0.1-0.1c-6.6,0-13.2,0-20,0c0,20.5,0,40.3,0,60.1
	c-6.6,0-13.1,0-19.7,0c0,6.9,0,13.3,0,19.6c6.7,0,13.1,0,19.6,0c0-6.8,0-13.3,0-19.7c6.7,0.1,13.4,0.1,20.1,0.2L819,591
	c0,13.3,0,26.5,0,40.3c-7,0-13.4,0-20.1,0c0,6.8,0,13.1,0,19.9c-13.4,0-26.5,0-39.7,0c0,7,0,13.5,0,20c-6.6,0-13.1,0-20.2,0
	c0,6.9,0,13.3,0,20.1c-6.9,0-13.3,0-19.9,0c0,7,0,13.4,0,19.9l0.1-0.1c-19.8,0-39.5,0-59.9,0c0-6.5,0-12.9,0-20
	c-7.1,0-13.7,0-20.3,0l0.1,0.1c0-13.3,0-26.5,0-40.1c-7.2,0-13.7,0-20.1,0L619.1,651z"/>
<path d="M538.9,250.9c0-13.1,0-26.2,0-39.7c6.7,0,13,0,19.9,0c0,6.3,0,12.6,0,19.7c7.1,0,13.7,0,20.2,0l-0.1-0.1
	c0,6.6,0,13.2,0,20.3c13.8,0,26.8,0,39.8,0c0,6.8,0,13.1,0,19.9c-6.7,0-13,0-20,0c0,13.6,0,26.6,0,40.1c-6.8,0-13.1,0-19.9,0
	c0,20.1,0,39.8,0,59.9c-7,0-13.5,0-20,0c0-6.6,0-13.1,0-20.2c-6.9,0-13.3,0-20.1,0c0-6.9,0-13.3,0-19.9c-7,0-13.4,0-19.9,0l0.1,0.1
	c0-6.6,0-13.2,0-20.2c-7.1,0-13.4,0-20.2,0c0-7,0-13.4,0-19.9c6.6,0,13.1,0,19.7,0c0-6.9,0-13.3,0-19.6c-6.7,0-13.1,0-19.6,0
	c0,6.8,0,13.3,0,19.7c-6.6,0-13.1,0-20.2,0c0,6.9,0,13.3,0,20.1c-6.9,0-13.2,0-19.9,0c0,7,0,13.4,0,19.9l0.1-0.1
	c-13.2,0-26.5,0-40.2,0c0,7,0,13.4,0,20c-7,0-13.5,0-19.9,0l0.1,0.1c0-13.1,0-26.3,0-40c6.6,0,13,0,19.7,0c0-20.1,0-39.7,0-59.7
	c13.4,0,26.5,0,40.1,0c0,6.3,0,12.7,0,19.3c6.8,0,13.1,0,19.9,0c0-6.3,0-12.7,0-19.8C499,250.8,518.9,250.8,538.9,250.9
	c-0.1,19.8-0.1,39.7-0.1,59.6c7,0,13.4,0,20.1,0c0-6.7,0-12.9,0-19.7c6.8,0,13.1,0,19.4,0c0-6.9,0-13.3,0-20.1c-6.7,0-12.9,0-19.7,0
	c0-6.8,0-13.1,0-19.8C551.9,250.9,545.4,250.9,538.9,250.9z"/>
<path d="M518.8,91.3c0,46.5,0,92.8,0,139.3c-46.6,0-92.9,0-139.6,0c0-46.4,0-92.7,0-139.3C425.6,91.3,471.9,91.3,518.8,91.3z
	 M399.4,111.1c0,33.5,0,66.5,0,99.4c33.4,0,66.4,0,99.4,0c0-33.3,0-66.2,0-99.4C465.5,111.1,432.6,111.1,399.4,111.1z"/>
<path d="M899.2,230.5c0-46.6,0-92.9,0-139.4c46.5,0,92.7,0,139.4,0c0,46.3,0,92.7,0,139.4C992.4,230.5,946,230.5,899.2,230.5z
	 M1018.8,111.3c-33.5,0-66.5,0-99.4,0c0,33.4,0,66.4,0,99.4c33.3,0,66.2,0,99.4,0C1018.8,177.4,1018.8,144.5,1018.8,111.3z"/>
<path d="M518.7,750.7c-46.6,0-92.9,0-139.4,0c0-46.5,0-92.7,0-139.4c46.3,0,92.7,0,139.4,0C518.7,657.5,518.7,703.9,518.7,750.7z
	 M399.3,631.1c0,33.5,0,66.4,0,99.4c33.3,0,66.4,0,99.3,0c0-33.4,0-66.4,0-99.4C465.3,631.1,432.4,631.1,399.3,631.1z"/>
<path d="M479.3,511.1c0-13.1,0-26.3,0-40c-6.8,0-13.2,0-19.9,0c0-13.6,0-26.6,0-40c6.4,0,12.8,0,19.5,0c0,6.4,0,12.7,0,19.3
	c13.4,0,26.4,0,40.2,0c0-6.5,0-13.1,0-19.7l-0.1,0.1c6.7,0,13.4-0.1,20.1-0.1c0,6.6,0,13.2,0,20c7.1,0,13.5,0,20,0
	c0,13.4,0,26.8,0,40.1c-6.6,0-13.2,0-19.7,0c0,6.9,0,13.3,0,19.9c6.8,0,13.3,0,19.7,0c0,6.6,0,13.2,0,20.3c6.9,0,13.3,0,19.9,0
	c0,13.6,0,26.8,0,39.9l0.1-0.1c-6.7,0-13.4,0-20.1,0l0.1,0.1c0-6.5,0-12.9,0-19.9c-20,0-39.7,0-59.7,0c0-6.9,0-13.2,0-20.1
	c6.4,0,12.8,0,19.4,0c0-6.8,0-13,0-19.9c-13.2,0-26.4,0-39.6,0C479.1,511,479.3,511.1,479.3,511.1z M518.7,490.6
	c0-6.7,0-13.1,0-19.4c-6.7,0-13.1,0-19.4,0c0,6.6,0,12.9,0,19.4C505.7,490.6,512,490.6,518.7,490.6z"/>
<path d="M959.1,490.8c-6.7,0-13.4,0-20.1,0l0.1,0.1c0-6.6,0-13.2,0-19.7c-7.1,0-13.4,0-20.1,0c0,6.8,0,13.3,0,19.7l0.1-0.1
	c-19.9,0-39.8,0-59.7,0c0-7,0-13.4,0-20.1c6.7,0,12.9,0,19.7,0c0-6.8,0-13.1,0-20.1c6.9,0,13.3,0,19.6,0c0-6.8,0-13.1,0-19.9
	c-6.7,0-13,0-19.7,0c0-13.7,0-26.8,0-39.9l-0.1,0.1c6.6,0,13.2,0,20.1,0c0-7.2,0-13.7,0-20.1l-0.1,0.1c6.6,0,13.2,0,20.2,0
	c0-7.1,0-13.4,0-20c7,0,13.4,0,19.9,0l-0.1-0.1c0.1,13.4,0.1,26.7,0.2,40.1c-6.6,0-13.2,0-19.7,0c0,20.3,0,40,0,59.6
	c6.7,0,13.1,0,19.6,0c0-20.2,0-39.9,0-59.7c6.7,0.1,13.4,0.1,20.1,0.2l-0.1-0.1c0,13.3,0,26.5,0,40.1c7.2,0,13.7,0,20.1,0l-0.1-0.1
	c0,6.7,0,13.4,0,20.1l0.1-0.1c-6.5,0-12.9,0-20.2,0c0,13.6,0,26.9,0,40.1L959.1,490.8z"/>
<path d="M499.1,410.8c-6.5,0-12.9,0-20,0c0-6.6,0-13,0-19.7c-13.5,0-26.4,0-39.9,0c0,26.3,0,52.7,0,79.4c-6.9,0-13.3,0-20,0
	c0-19.7,0-39.3,0-59.4c-6.7,0-13.1,0-20.1,0c0-6.9,0-13.3,0-20.1c-6.8,0-13.1,0-19.7,0c0-13.4,0-26.5,0-40.1c6.5,0,13.1,0,19.7,0
	l-0.1-0.1c0,6.6,0,13.2,0,19.7c27.1,0,53.5,0,79.8,0c0-6.7,0-12.9,0-19.7c-6.6,0-13,0-19.7,0c0-7,0-13.5,0-20l-0.1,0.1
	c20,0,40.1,0,60.1,0l-0.1-0.1c0,6.6,0,13.2,0,20.3c-7,0-13.4,0-19.7,0c0,6.8,0,13.1,0,19.9c6.7,0,13,0,19.8,0c0,7,0,13.5,0,20
	c-6.6,0-13.2,0-20.1,0c0,7.1,0,13.5,0,20L499.1,410.8z"/>
<path d="M958.9,490.9c13.1,0,26.3,0,39.9,0c0,13.3,0,26.3,0,39.7c6.8,0,13.1,0,19.9,0c0-12.9,0-26,0-39.4c6.9,0,13.3,0,20,0
	c0,33.1,0,66.1,0,99.4c-13.1,0-26,0-39.3,0c0-6.4,0-12.7,0-19.7c6.4,0,12.7,0,19.4,0c0-6.8,0-13.1,0-19.9c-19.7,0-39.4,0-59.7,0
	c0-20.4,0-40.4,0-60.3C959.1,490.8,958.9,490.9,958.9,490.9z"/>
<path d="M818.9,111c6.5,0,12.9,0,20,0c0-6.8,0-13.2,0-19.8c6.8,0,13.1,0,19.9,0c0,6.4,0,12.7,0,19.7c6.9,0,13.3,0,19.9,0
	c0,6.8,0,13.1,0,19.9c-13.1,0-26.1,0-39.5,0c0,6.8,0,13.1,0,19.9c6.2,0,12.6,0,19.6,0c0,7.1,0,13.7,0,20.3l0.1-0.1
	c-13.4,0-26.8,0-40.1,0l0.1,0.1c0-20,0-40.1,0-60.1V111z"/>
<path d="M619.1,150.8c-13.1,0-26.3,0-39.7,0c0-6.6,0-13,0-19.8c6.3,0,12.6,0,19.3,0c0-6.7,0-13.1,0-20.1c-6.3,0-12.7,0-19.3,0
	c0-6.8,0-13.1,0-19.7c19.6,0,39.4,0,59.7,0c0,13.2,0,26.4,0,39.7l0.1-0.1c-6.6,0-13.2,0-20.1,0C619.1,138,619.1,144.5,619.1,150.8
	L619.1,150.8z"/>
<path d="M858.9,171c6.5,0,12.9,0,19.7,0c0,26.6,0,52.9,0,79.6c-12.9,0-26,0-39.6,0c0-6.5,0-13.1,0-19.7l-0.1,0.1
	c6.6,0,13.2,0,20.1,0c0-20.5,0-40.3,0-60.1L858.9,171z"/>
<path d="M619.1,630.8c-13.1,0-26.3,0-40,0c0-6.8,0-13.4,0-20l-0.1,0.1c6.6,0,13.2,0,19.7,0c0-7.1,0-13.4,0-20.1
	c-6.8,0-13.3,0-19.7,0l0.1,0.1c0-6.7,0-13.4,0-20.1l-0.1,0.1c13.4,0,26.8-0.1,40.1-0.1C619.1,590.8,619,610.9,619.1,630.8
	L619.1,630.8z"/>
<path d="M559.2,650.6c-6.5,0-13,0-19.8,0c0-26.3,0-52.7,0-79.7c6.5,0,13.1,0,19.7,0l-0.1-0.1c0,6.6,0,13.2,0,20.1
	c7.2,0,13.7,0,20.1,0l-0.1-0.1c0,6.7,0,13.4,0,20.1l0.1-0.1c-6.5,0-12.9,0-20,0c0,13.5,0,26.7,0,39.9
	C559.1,650.8,559.2,650.6,559.2,650.6z"/>
<path d="M458.8,511.2c6.8,0,13.7,0,20.5,0l-0.2-0.1c0,19.8,0,39.5,0,59.9c-6.9,0-13.3,0-20,0c0,6.8,0,13.1,0,19.7
	c-6.7,0-13.1,0-19.8,0c0-13,0-26.1,0-39.5c6.4,0,12.7,0,19.6,0c0-13.6,0-26.8,0-40C458.9,511,458.8,511.2,458.8,511.2z"/>
<path d="M998.9,431c13.1,0,26.2,0,39.7,0c0,6.6,0,12.9,0,19.9c-6.4,0-12.8,0-19.5,0c0,6.8,0,13.1,0,19.7c-13.4,0-26.4,0-40.1,0
	c0-6.5,0-13.1,0-19.7l-0.1,0.1c6.6,0,13.2,0,20.1,0c0-7.2,0-13.7,0-20.1L998.9,431z"/>
<path d="M638.9,690.8c0,6.5,0,12.9,0,19.7c-13.2,0-26.3,0-39.6,0c0-19.7,0-39.3,0-59.6c6.6,0,13.2,0,19.8,0l-0.1-0.1
	c0,13.3,0,26.5,0,40.1c7.2,0,13.7,0,20.1,0L638.9,690.8z"/>
<path d="M558.9,670.8c0,6.5,0,12.9,0,19.9c6.7,0,13.1,0,20,0c0,13.8,0,27,0,40.2l0.1-0.1c-6.7,0-13.4,0-20.1,0l0.1,0.1
	c0-6.5,0-12.9,0-19.9c-6.7,0-13.1,0-19.8,0c0-13.5,0-26.5,0-40.1c6.6,0,13.2,0,19.7,0V670.8z"/>
<path d="M759.1,730.8c-6.5,0-12.9,0-19.9,0c0,6.7,0,13.1,0,19.8c-13.6,0-26.6,0-39.9,0c0-6.4,0-12.7,0-19.5c6.3,0,12.7,0,19.8,0
	c0-7.1,0-13.7,0-20.3l-0.1,0.1c13.3,0,26.5,0,40,0c0,7.1,0,13.5,0,20L759.1,730.8z"/>
<path d="M739.1,130.8c-13.1,0-26.3,0-39.7,0c0-13.3,0-26.3,0-39.7c6.3,0,12.6,0,19.4,0c0,6.3,0,12.7,0,19.8c7.1,0,13.7,0,20.3,0
	l-0.1-0.1c0,6.7,0,13.4,0,20.1C738.9,131,739.1,130.8,739.1,130.8z"/>
<path d="M638.9,131c6.5,0,12.9,0,19.9,0c0-6.7,0-13.1,0-19.7c6.9,0,13.3,0,20.1,0c0,13.3,0,26.5,0,39.7l0.1-0.1
	c-13.4,0-26.8,0-40.1,0l0.1,0.1c0-6.7,0-13.4,0-20.1L638.9,131z"/>
<path d="M799.1,730.8c-6.7,0-13.4,0-20.1,0l0.1,0.1c0-13.4-0.1-26.8-0.1-40.1c13.4,0,26.8,0.1,40.1,0.1l-0.1-0.1
	c0,6.7,0,13.4,0,20.1l0.1-0.1c-6.6,0-13.2,0-20.1,0C799,718,799,724.5,799.1,730.8L799.1,730.8z"/>
<path d="M739.1,111c0-6.5,0-12.9,0-19.7c13.2,0,26.2,0,39.6,0c0,6.3,0,12.7,0,19.6c-13.3,0-26.5,0-39.7,0
	C738.9,110.8,739.1,111,739.1,111z"/>
<path d="M799.3,211.1c0-13.2,0-26.4,0-40.2c6.7,0,13.2,0,19.8,0l-0.1-0.1c0,13.4,0,26.8,0,40.1l0.1-0.1c-6.6,0.1-13.3,0.1-19.9,0.2
	C799.1,211,799.3,211.1,799.3,211.1z"/>
<path d="M579.1,231c0-13.1,0-26.3,0-40c6.8,0,13.4,0,20,0l-0.1-0.1c0,13.3,0,26.5,0,40c-7.1,0-13.5,0-20,0L579.1,231z"/>
<path d="M539.4,91.1c6.6,0,12.9,0,19.4,0c0,13.1,0,26.1,0,39.4c-6.3,0-12.6,0-19.4,0C539.4,117.6,539.4,104.6,539.4,91.1z"/>
<path d="M978.9,391c6.5,0,12.9,0,20,0c0,13.5,0,26.8,0,40l0.1-0.1c-6.7,0-13.4,0-20.1,0l0.1,0.1c0-13.4,0-26.8,0-40.1L978.9,391z"/>
<path d="M658.8,731.2c0,6.6,0,12.9,0,19.4c-13.1,0-26.1,0-39.4,0c0-6.3,0-12.6,0-19.4C632.3,731.2,645.3,731.2,658.8,731.2z"/>
<path d="M439.1,510.9c0-6.5,0-12.9,0-19.7c6.6,0,13,0,19.7,0c0,6.7,0,13.3,0,19.9l0.1-0.2c-6.7-0.1-13.3-0.1-20-0.2
	C438.9,510.8,439.1,510.9,439.1,510.9z"/>
<path d="M398.6,450.7c-6.5,0-12.8,0-19.3,0c0-6.6,0-12.9,0-19.6c6.5,0,12.7,0,19.3,0C398.6,437.5,398.6,443.8,398.6,450.7z"/>
<path d="M398.6,530.7c-6.5,0-12.7,0-19.3,0c0-6.5,0-12.9,0-19.6c6.4,0,12.6,0,19.3,0C398.6,517.4,398.6,523.8,398.6,530.7z"/>
<path d="M438.9,510.8c0,6.5,0,12.9,0,19.7c-6.5,0-12.9,0-19.6,0c0-6.3,0-12.7,0-19.6c6.6,0,13.2,0,19.7,0
	C439.1,510.9,438.9,510.8,438.9,510.8z"/>
<path d="M399.1,570.9c0-6.4,0-12.9,0-19.7c6.5,0,12.9,0,19.6,0c0,6.3,0,12.7,0,19.6c-6.6,0-13.2,0-19.7,0L399.1,570.9z"/>
<path d="M519.1,430.8c-6.5,0-12.9,0-20,0c0-6.8,0-13.4,0-20l-0.1,0.1c6.7,0,13.4-0.1,20.1-0.1c0,6.7-0.1,13.4-0.1,20.1L519.1,430.8z
	"/>
<path d="M819.1,110.8c-6.5,0-12.9,0-19.7,0c0-6.5,0-12.9,0-19.6c6.3,0,12.7,0,19.6,0c0,6.6,0,13.2,0,19.8
	C818.9,111,819.1,110.8,819.1,110.8z"/>
<path d="M398.9,570.8c0,6.5,0,12.9,0,19.7c-6.5,0-12.9,0-19.6,0c0-6.3,0-12.7,0-19.6c6.6,0,13.2,0,19.7,0
	C399.1,570.9,398.9,570.8,398.9,570.8z"/>
<path d="M518.7,590.6c-6.7,0-12.9,0-19.4,0c0-6.5,0-12.7,0-19.4c6.3,0,12.7,0,19.4,0C518.7,577.6,518.7,583.9,518.7,590.6z"/>
<path d="M558.7,170.8c-6.6,0-12.8,0-19.3,0c0-6.5,0-12.8,0-19.6c6.3,0,12.6,0,19.3,0C558.7,157.6,558.7,164,558.7,170.8z"/>
<path d="M678.9,151c6.5,0,12.9,0,20,0c0,6.8,0,13.4,0,20l0.1-0.1c-6.6,0-13.2,0-20,0c0-7.1,0-13.5,0-20L678.9,151z"/>
<path d="M779.3,231.1c0-6.6,0-13.2,0-20c6.8,0,13.4,0,20,0l-0.2-0.1c0,6.4,0,12.8,0,20c-6.9,0-13.5,0-20,0L779.3,231.1z"/>
<path d="M839.1,230.8c-6.5,0-12.9,0-20,0c0-6.8,0-13.4,0-20l-0.1,0.1c6.6,0,13.2,0,20,0c0,7.1,0,13.5,0,20L839.1,230.8z"/>
<path d="M559.1,671c0.1-6.8,0.1-13.6,0.2-20.4l-0.1,0.2c6.4,0,12.9,0,19.6,0c0,6.8,0,13.2,0,20.1c-6.6,0-13.2,0-19.8,0
	C558.9,670.8,559.1,671,559.1,671z"/>
<path d="M758.9,231c6.8,0.1,13.6,0.1,20.3,0.2l-0.2-0.1c0,6.4,0,12.9,0,19.8c-7.1,0-13.6,0-20.2,0l0.1,0.1c0-6.7,0-13.4,0-20.1
	L758.9,231z"/>
<path d="M379.4,471.1c6.6,0,12.9,0,19.4,0c0,6.5,0,12.7,0,19.4c-6.3,0-12.6,0-19.4,0C379.4,484.3,379.4,477.9,379.4,471.1z"/>
<path d="M379.2,270.6c0-6.7,0-12.9,0-19.4c6.5,0,12.7,0,19.4,0c0,6.3,0,12.7,0,19.4C392.3,270.6,386,270.6,379.2,270.6z"/>
<path d="M1038.8,711.3c0,6.5,0,12.7,0,19.3c-6.5,0-12.9,0-19.6,0c0-6.4,0-12.7,0-19.3C1025.5,711.3,1031.9,711.3,1038.8,711.3z"/>
<path d="M558.9,730.8c0,6.5,0,12.9,0,19.7c-6.5,0-12.9,0-19.6,0c0-6.3,0-12.7,0-19.6c6.6,0,13.2,0,19.7,0
	C559.1,730.9,558.9,730.8,558.9,730.8z"/>
<path d="M578.9,730.9c6.5,0,12.9,0,19.7,0c0,6.5,0,12.9,0,19.6c-6.3,0-12.7,0-19.6,0c0-6.6,0-13.2,0-19.7
	C579.1,730.8,578.9,730.9,578.9,730.9z"/>
<path d="M778.9,730.8c0,6.5,0,12.9,0,19.7c-6.6,0-12.9,0-19.9,0c0-6.6,0-13.1,0-19.7l-0.1,0.1C765.6,730.9,772.3,730.9,778.9,730.8
	L778.9,730.8z"/>
<path d="M818.9,730.8c0,6.5,0,12.9,0,19.7c-6.6,0-12.9,0-19.9,0c0-6.6,0-13.1,0-19.7l-0.1,0.1C805.6,730.9,812.3,730.9,818.9,730.8
	L818.9,730.8z"/>
<path d="M778.9,330.8c6.5,0,12.9,0,19.9,0c0,13.4,0,26.4,0,40c13.5,0,26.6,0,40.2,0c0,20.4,0,40.3,0,60.2c-13.1,0-26.3,0-40,0
	c0,6.6,0,13,0,19.7c-6.8,0-13.1,0-19.7,0c0-13,0-26.1,0-39.7c6.4,0,12.8,0,19.4,0c0-6.8,0-13.1,0-19.9c-13.1,0-26.1,0-39.5,0
	c0-6.8,0-13.1,0-19.9c6.2,0,12.6,0,19.6,0C778.9,357.3,778.9,344.1,778.9,330.8z"/>
<path d="M618.9,571c0-20,0-40.1,0-60.1c6.7,0,13.4,0,20.1,0c0,6.5,0,12.9,0,19.7c13.3,0,26.3,0,39.9,0c0-6.4,0-12.8,0-19.5
	c6.8,0,13.1,0,19.9,0c0-6.7,0-13.1,0-20.2c7.1,0,13.7,0,20.3,0c0,6.5,0,12.9,0,19.9c6.6,0,12.9,0,20,0c0,7.1,0,13.7,0,20.2
	c-13.1,0-26.3,0-40,0c0,13.5,0,26.7,0,40c-13.1,0-26.3,0-39.9,0c0-6.7,0-13.1,0-19.8c-6.8,0-13.1,0-19.9,0c0,6.3,0,12.7,0,19.8
	C632.1,571,625.5,571,618.9,571z"/>
<path d="M779.1,511c-6.5,0-12.9,0-19.9,0c0-6.7,0-13.1,0-20c-13.8,0-27,0-40.2,0c0-6.5,0-12.9,0-19.9c6.7,0,13.1,0,19.9,0
	c0-6.8,0-13.1,0-19.7c6.7,0,13.1,0,20,0c0,6.2,0,12.6,0,19.5c13.6,0,26.6,0,39.9,0c0,6.8,0,13,0,19.8c-6.3,0-12.7,0-19.7,0
	C779.1,497.8,779.1,504.4,779.1,511z"/>
<path d="M839.1,511c-6.7,0-13.4,0-20.1,0c0-19.8,0-39.6,0-60.1c7,0,13.5,0,20.1,0C839.1,470.9,839.1,490.9,839.1,511z"/>
<path d="M718.9,350.9c6.5,0,12.9,0,19.7,0c0,13.2,0,26.2,0,39.6c-6.3,0-12.7,0-19.6,0c0-13.3,0-26.5,0-39.7
	C719.1,350.8,718.9,350.9,718.9,350.9z"/>
<path d="M638.9,511c0-6.7,0-13.4,0-20.1c6.7,0,13.4,0,20.1,0c0,6.5,0,12.9,0,20.1C652.1,511,645.5,511,638.9,511z"/>
<path d="M838.9,430.8c6.5,0,12.9,0,19.7,0c0,6.7,0,13.1,0,20.1c-6.6,0-13.1,0-19.7,0C838.9,444.2,838.9,437.5,838.9,430.8z"/>
<path d="M739.2,430.6c0-6.5,0-12.8,0-19.4c6.4,0,12.8,0,19.5,0c0,6.4,0,12.7,0,19.4C752.3,430.6,746,430.6,739.2,430.6z"/>
<path d="M758.9,310.8c6.5,0,12.9,0,20.1,0c0,7,0,13.5,0,20.1c-6.5,0-12.9,0-20.1,0C758.9,324,758.9,317.4,758.9,310.8z"/>
<path d="M518.9,411c0-6.7,0-13.4,0-20.1c6.5,0,12.9,0,19.9,0c0-6.6,0-12.9,0-20c7.1,0,13.7,0,20.2,0c0,13.1,0,26.2,0,39.7
	c6.6,0,12.9,0,19.9,0c0-6.4,0-12.8,0-19.5c6.8,0,13.1,0,19.9,0c0-6.7,0-13.1,0-20.2c7.1,0,13.7,0,20.3,0c0,13.4,0,26.8,0,40.1
	c-6.5,0-12.9,0-20,0c0,13.5,0,26.7,0,40c-13.4,0-26.8,0-40.1,0c0-6.5,0-12.9,0-20c-6.8,0-13.4,0-20,0c0-6.5,0-12.9,0-20
	C532.1,411,525.5,411,518.9,411z"/>
<path d="M658.9,270.8c0,13.1,0,26.3,0,39.7c-13.2,0-26.3,0-39.6,0c0-6.4,0-12.8,0-19.5c6.4,0,12.7,0,19.5,0c0-6.7,0-13.1,0-20.1
	c7.1,0,13.7,0,20.3,0C659.1,270.9,658.9,270.8,658.9,270.8z"/>
<path d="M639.1,371c-6.7,0-13.4,0-20.1,0c0-6.5,0-12.9,0-20c-6.6,0-13,0-19.7,0c0-6.8,0-13.1,0-19.7c13,0,26,0,39.8,0
	C639.1,344.5,639.1,357.7,639.1,371z"/>
<path d="M638.9,210.8c0,6.5,0,12.9,0,19.7c-6.5,0-12.9,0-19.6,0c0-6.3,0-12.7,0-19.6c6.6,0,13.2,0,19.8,0
	C639.1,210.9,638.9,210.8,638.9,210.8z"/>
<path d="M558.9,511c0-6.7,0-13.4,0-20.1c6.5,0,12.9,0,19.9,0c0-6.6,0-12.9,0-20c7.1,0,13.7,0,20.2,0c0,6.5,0,12.9,0,20
	c6.8,0,13.4,0,20,0c0,6.7,0,13.4,0,20.1C599,511,579,511,558.9,511z"/>
<path d="M779.1,691c-6.5,0-12.9,0-20.1,0c0-7,0-13.5,0-20.1c6.5,0,12.9,0,20.1,0C779.1,677.8,779.1,684.4,779.1,691z"/>
<path d="M899.3,611c6.6,0,12.7,0,19.3,0c0,6.4,0,12.8,0,19.5c-6.2,0-12.6,0-19.3,0C899.3,624.2,899.3,617.8,899.3,611z"/>
<path d="M419.1,190.5c0-19.9,0-39.4,0-59.2c19.8,0,39.5,0,59.6,0c0,19.6,0,39.3,0,59.2C458.8,190.5,439,190.5,419.1,190.5z"/>
<path d="M939.2,190.6c0-19.8,0-39.4,0-59.4c19.7,0,39.4,0,59.5,0c0,19.7,0,39.4,0,59.4C979,190.6,959.4,190.6,939.2,190.6z"/>
<path d="M419.4,651.1c19.9,0,39.5,0,59.4,0c0,19.8,0,39.4,0,59.4c-19.6,0-39.3,0-59.4,0C419.4,690.9,419.4,671.2,419.4,651.1z"/>
</svg>
