<?xml version="1.0" encoding="utf-8"?>
<!-- Generator: Adobe Illustrator 26.0.0, SVG Export Plug-In . SVG Version: 6.00 Build 0)  -->
<svg version="1.1" id="Capa_1" xmlns="http://www.w3.org/2000/svg" xmlns:xlink="http://www.w3.org/1999/xlink" x="0px" y="0px"
	 viewBox="0 0 1417.3 841.9" style="enable-background:new 0 0 1417.3 841.9;" xml:space="preserve">
<path d="M838.9,731c0,6.4,0,12.9,0,19.6c-26.7,0-53.1,0-79.8,0c0-6.5,0-12.8,0-19.4c-6.7,0-13.1,0-20,0c0,6.4,0,12.8,0,19.4
	c-6.8,0-13.1,0-19.9,0c0-6.4,0-12.7,0-19.8c-20.4,0-40.4,0-60.3,0l0.1,0.1c0-6.6,0-13.2,0-20.1c-13.9,0-27,0-40.1,0l0.1,0.1
	c0-6.5,0-12.9,0-19.9c6.6,0,13,0,19.6,0c0-6.8,0-13.1,0-19.9c-12.9,0-26,0-39.4,0c0-6.9,0-13.3,0-20.2c13,0,26.1,0,39.4,0
	c0-6.8,0-13,0-19.9c-6.3,0-12.7,0-19.7,0c0-7.1,0-13.7,0-20.3l-0.1,0.1c19.9,0,39.8,0,60.2,0c0-13.9,0-27,0-40.1l-0.1,0.1
	c6.6,0,13.2,0,20.3,0c0,7,0,13.3,0,19.7c6.8,0,13.1,0,19.5,0c0-13.3,0-26.3,0-39.9c-6.7,0-13.1,0-19.6,0c0-13.7,0-26.8,0-39.9
	l-0.1,0.1c13.4-0.1,26.7-0.1,40.1-0.2c0,6.6,0,13.2,0,20.3c7,0,13.4,0,20.1,0c0,6.8,0,13.1,0,19.9c6.7,0,13.1,0,20.1,0
	c0,6.9,0,13.3,0,19.6c6.8,0,13.1,0,19.9,0c0-6.6,0-13,0-19.8c7,0,13.5,0,19.9,0c0,6.6,0,13.1,0,19.8c6.9,0,13.3,0,19.6,0
	c0-6.7,0-13.1,0-19.6c-6.8,0-13.3,0-19.7,0c0-6.7,0-13.4,0-20.1c6.6,0,13.2,0,20,0c0-7.1,0-13.5,0-20c20,0,40.1,0.1,60.1,0.1
	l-0.1-0.1c0,13.3,0,26.5,0,40.3c7.1,0,13.5,0,20.2,0c0,6.8,0,13.1,0,19.4c6.8,0,13.1,0,19.7,0c0-13.5,0-26.6,0-39.7
	c13.4,0,26.8,0.1,40.1,0.1l-0.1-0.1c0,6.6,0,13.2,0,20.3c-6.9,0-13.3,0-19.6,0c0,20.2,0,39.9,0,59.9c6.8,0,13.3,0,19.7,0l-0.1-0.1
	c0,6.5,0,12.9,0,19.9c-6.6,0-13,0-19.6,0c0,6.8,0,13.1,0,19.9c6.3,0,12.7,0,19.6,0c0,7.1,0,13.7,0,20.3l0.1-0.1
	c-6.5,0-12.9,0-19.9,0c0,13.4,0,26.5,0,39.9c-13.5,0-26.4,0-39.9,0c0,6.7,0,13.1,0,20.1c-13.6,0-26.6,0-40.1,0c0,6.8,0,13.1,0,19.7
	c-6.7,0-13.1,0-20.1,0c0-6.3,0-12.7,0-19.3c-7.1,0-13.7,0-20.3,0c0-6.6,0-13.2,0-20.4c13.8,0,26.8,0,40.4,0c0-6.9,0-13.3,0-20.1
	c6.8,0,13.1,0,19.5,0c0-6.8,0-13.1,0-19.8c-13.5,0-26.6,0-39.7,0c0-19.9,0-39.8,0-60c-7.1,0-13.5,0-20,0c0-6.6,0-13.2,0-19.7
	c-27,0-53.3,0-80,0c0,13.3,0,26.2,0,39.3c-6.7,0-13.1,0-20,0c0-6.7,0-13.1,0-19.3c-13.6,0-26.6,0-39.6,0c0,6.7,0,12.9,0,19.7
	c6.7,0,13,0,19.8,0c0,13.7,0,26.8,0,39.9c-13.2,0-26.5,0-40.3,0c0-7.1,0-13.4,0-19.8c-6.8,0-13.1,0-19.5,0c0,13.3,0,26.3,0,39.9
	c13.3,0,26.4,0,39.9,0c0,6.9,0,13.3,0,19.6c13.5,0,26.4,0,39.5,0c0-6.6,0-13,0-19.9c-6.7,0-13.1,0-19.8,0c0-7,0-13.5,0-19.9
	c13.4,0,26.8,0,40.1,0c0,13.3,0,26.5,0,40.3c7,0,13.4,0,20.1,0c0,6.8,0,13.1,0,19.4c6.8,0,13.1,0,19.7,0c0-13.5,0-26.6,0-39.7
	c6.7,0,13.4,0,20.2,0c0,13.2,0,26.5,0,40.2C826,731,832.5,731,838.9,731z M938.8,591.2c-20.1,0-39.8,0-59.4,0c0,20.1,0,39.8,0,59.4
	c20,0,39.6,0,59.4,0C938.8,630.8,938.8,611.2,938.8,591.2z"/>
<path d="M478.9,291c13.1,0,26.3,0,39.7,0c0-6.8,0-13.2,0-19.9c-6.4,0-12.7,0-19.3,0c0-6.7,0-13.1,0-20.1c13,0,26.1,0,39.5,0
	c0-33.5,0-66.4,0-99.9c13.4,0,26.5,0,39.8,0c0-13.6,0-26.6,0-40.1c-13.1,0-26.1,0-39.3,0c0-6.7,0-13.1,0-19.8c19.6,0,39.2,0,59.4,0
	c0,6.2,0,12.6,0,19.8c7.1,0,13.7,0,20.3,0l-0.1-0.1c0,13.2,0,26.5,0,40.3c7.1,0,13.5,0,20.2,0c0,6.8,0,13.1,0,19.9
	c6.7,0,13.1,0,20,0c0,6.9,0,13.3,0,20c13.7,0,26.8,0,39.9,0l-0.1-0.1c0,6.7,0.1,13.4,0.1,20.1c-6.6,0-13.2,0-20.1,0
	c0,13.7,0,26.9,0,40l0.1-0.1c-6.6,0-13.2,0-20.2,0c0-13.6,0-26.6,0-39.9c-7,0-13.4,0-19.9,0c0-6.6,0-13.2,0-19.7
	c-6.9,0-13.3,0-19.9,0c0,6.8,0,13.3,0,19.7c-6.6,0-13.2,0-20,0c0,7.1,0,13.5,0,20c-6.7,0-13.4,0-20.1,0c0-6.6,0-13.1,0-19.7
	c-6.9,0-13.3,0-19.6,0c0,6.7,0,13.1,0,19.6c6.8,0,13.3,0,19.7,0c0,13.4,0,26.8,0,40.1c-6.6,0-13.2,0-20.3,0c0,6.9,0,13.3,0,20
	c-6.8,0-13.1,0-19.5,0c0,6.7,0,13.1,0,20c6.7,0,13,0,19.9,0c0,6.9,0,13.3,0,19.6c6.8,0,13.1,0,19.8,0c0-6.6,0-13,0-19.9
	c6.9,0,13.3,0,19.9,0c0-7,0-13.5,0-19.9c6.7,0,13.4,0,20.1,0c0,19.9,0,39.8,0,60.1c7.1,0,13.5,0,20,0l-0.1-0.1c0,6.6,0,13.2,0,20.2
	c-6.9,0-13.3,0-20,0c0,7,0,13.4,0,19.9l0.1-0.1c-13.2,0-26.5,0-39.8,0c0,13.7,0,26.7,0,40.2c6.7,0,13.1,0,19.6,0c0,7,0,13.4,0,19.9
	l0.1-0.1c-26.7,0-53.4,0.1-80.1,0.1c0-6.7,0-13.4,0-20.2c13.3,0,26.5,0,40,0c0-20.4,0-40.2,0-60c13.2,0,26.5,0,39.7,0
	c0-6.9,0-13.3,0-19.6c-13.4,0-26.4,0-39.6,0c0,6.8,0,13.3,0,19.7c-6.7,0-13.4,0-20.1,0c0-6.6,0-13.2,0-20.1c-13.7,0-26.9,0-40,0
	l0.1,0.1c0-6.6,0-13.2,0-20.2c6.9,0,13.3,0,19.5,0c0-6.9,0-13.3,0-19.9c-13.5,0-26.6,0-39.7,0l0.1,0.1c0-6.7,0-13.4,0-20.1
	L478.9,291z"/>
<path d="M898.9,310.8c0,6.7,0,13.4,0,20.1l0.1-0.1c-6.6,0-13.2,0-20.1,0c0,7.2,0,13.7,0,20.1l0.1-0.1c-6.6,0-13.2,0-20.1,0
	c0,20.5,0,40.3,0,60.1l0.1-0.1c-6.6,0-13.2,0-20.1,0c0,7.2,0,13.7,0,20.1l0.1-0.1c-26.7,0-53.4,0.1-80.1,0.1c0-6.6,0-13.2,0-19.7
	c-6.9,0-13.3,0-19.9,0c0,6.8,0,13.3,0,19.7c-6.6,0-13.2,0-20.3,0c0-7.1,0-13.5,0-19.8c-20.1,0-39.7,0-59.9,0c0,20,0,39.7,0,60
	c-6.9,0-13.3,0-20.1,0c0,6.8,0,13.1,0,19.4c-13.4,0-26.5,0-39.8,0c0-13.5,0-26.6,0-39.7l-0.1,0.1c6.6,0,13.2,0,20.1,0
	c0-20.5,0-40.3,0-60.1l-0.1,0.1c13.3,0,26.5,0,40.1,0c0-13.9,0-27,0-40.1l-0.1,0.1c6.7,0,13.4-0.1,20.1-0.1c0,6.6,0,13.2,0,20.3
	c6.9,0,13.3,0,20.2,0c0,6.9,0,13.3,0,19.6c13.4,0,26.4,0,39.4,0c0-6.6,0-13,0-19.9c-6.7,0-13.1,0-19.8,0c0-7,0-13.5,0-19.9
	c19.9,0,39.8,0,59.8,0c0-6.8,0-13.2,0-20.1c-6.7,0-13.1,0-19.6,0c0-7,0-13.4,0-19.9l-0.1,0.1c13.3,0,26.5,0,40.1,0
	c0-7.2,0-13.7,0-20.1l-0.1,0.1c6.6,0,13.2,0,20.3,0c0,20.3,0,40,0,59.5c6.9,0,13.3,0,20,0c0-6.7,0-12.9,0-19.7c6.7,0,13.1,0,19.9,0
	c0-7,0-13.5,0-19.9l-0.1,0.1c13.4,0,26.8,0,40.1,0L898.9,310.8z M799.1,390.9c13.4,0,26.4,0,39.6,0c0-6.9,0-13.3,0-19.6
	c-26.7,0-53,0-79.3,0c0,6.7,0,13.1,0,19.8c6.6,0,12.9,0,19.7,0c0,6.7,0,13.1,0,19.5c6.9,0,13.3,0,20,0
	C799.1,403.9,799.1,397.6,799.1,390.9z"/>
<path d="M619.1,610.8c-6.7,0.1-13.4,0.1-20.1,0.2c0-13.2,0-26.5,0-39.7c-6.9,0-13.3,0-19.6,0c0,13.4,0,26.4,0,39.6
	c6.8,0,13.3,0,19.7,0c0,6.5,0,12.9,0,20c-6.8,0-13.2,0-19.9,0c0,20.1,0,39.7,0,59.7c-6.7,0-13.1,0-20.1,0c0-6.3,0-12.7,0-19.5
	c-6.8,0-13.1,0-19.7,0c0-6.7,0-13.1,0-20.1c6.4,0,12.8,0,19.4,0c0-6.8,0-13.1,0-19.9c-6.4,0-12.8,0-19.5,0c0-13.5,0-26.4,0-39.9
	c-53.4,0-106.5,0-159.9,0c0-6.9,0-13.3,0-20.1c12.9,0,25.9,0,39.2,0c0-13.4,0-26.5,0-40.1c-12.9,0-26,0-39.3,0c0-6.8,0-13.1,0-19.9
	c19.6,0,39.3,0,59.4,0c0-6.9,0-13.3,0-20.1c-6.3,0-12.6,0-19.3,0c0-13.4,0-26.5,0-40.1c13.2,0,26.4,0,39.7,0l-0.1-0.1
	c0,6.6,0,13.2,0,20c7.2,0,13.7,0,20.1,0c0,13.2,0,26.5,0,40.2c-7,0-13.4,0-19.7,0c0,6.9,0,13.3,0,19.8c20.2,0,39.9,0,59.7,0
	c0,6.6,0,13.2,0,20.3c-27.1,0-53.5,0-79.8,0c0,6.8,0,13.1,0,19.5c33.3,0,66.3,0,99.9,0c0-6.7,0-13.1,0-19.8c27,0,53.5,0,79.9,0
	c0,6.6,0,13.2,0,20.3c7,0,13.4,0,19.6,0c0,6.8,0,13.1,0,19.9c-6.7,0-13,0-19.8,0c0,7,0,13.5,0,20C618.9,611,619.1,610.8,619.1,610.8
	z"/>
<path d="M818.9,230.8c0,6.5,0,12.9,0,19.9c6.7,0,13.1,0,20,0c0,7.1,0,13.7,0,20.2l0.1-0.1c-13.3,0-26.5,0-40.1,0
	c0,7.2,0,13.7,0,20.1l0.1-0.1c-6.6,0-13.2,0-20.3,0c0-13.6,0-26.7,0-39.7c-13.5,0-26.4,0-39.5,0c0,6.6,0,13,0,19.9
	c6.7,0,13.1,0,19.6,0c0,13.7,0,26.8,0,39.9l0.1-0.1c-6.6,0-13.2,0-20.3,0c0-7,0-13.4,0-19.7c-13.5,0-26.4,0-39.8,0
	c0,6.6,0,13,0,19.9c-13.6,0-26.6,0-40,0c0,13.7,0,26.8,0,39.9l0.1-0.1c-6.7,0-13.4,0-20.1,0l0.1,0.1c0-20-0.1-40.1-0.1-60.1
	c13.3,0,26.5,0,40.1,0c0-13.7,0-26.9,0-40l-0.1,0.1c6.6,0,13.2,0,20.2,0c0,6.9,0,13.3,0,19.5c6.9,0,13.3,0,19.8,0
	c0-13.5,0-26.6,0-39.7c6.6,0,13.2,0,19.7,0c0-6.9,0-13.3,0-19.9c-6.8,0-13.3,0-19.7,0c0-6.7,0.1-13.4,0.1-20.1l-0.1,0.1
	c13.4,0,26.8,0,40.1,0l-0.1-0.1c0,13.2,0,26.5,0,39.7c7.1,0,13.4,0,20.1,0c0-13.5,0-26.6,0-39.7l-0.1,0.1c6.7,0,13.4,0,20.1,0
	l-0.1-0.1c0,13.1,0,26.3,0,40.2C805.8,230.9,812.3,230.9,818.9,230.8L818.9,230.8z"/>
<path d="M379.2,230.5c0-46.6,0-92.9,0-139.4c46.5,0,92.7,0,139.4,0c0,46.3,0,92.7,0,139.4C472.4,230.5,426,230.5,379.2,230.5z
	 M399.4,111.1c0,33.5,0,66.5,0,99.4c33.4,0,66.4,0,99.4,0c0-33.3,0-66.2,0-99.4C465.5,111.1,432.6,111.1,399.4,111.1z"/>
<path d="M619.1,111c0-6.5,0-12.9,0-19.7c33.3,0,66.3,0,99.6,0c0,6.3,0,12.6,0,19.4c-12.9,0-26,0-39.4,0c0,6.9,0,13.3,0,20.1
	c6.3,0,12.6,0,19.4,0c0,6.7,0,13.1,0,19.9c6.9,0,13.3,0,20.1,0c0-6.3,0-12.6,0-19.4c6.7,0,13.1,0,20.1,0c0-13.6,0-26.6,0-40
	c6.8,0,13.1,0,19.9,0c0,6.3,0,12.7,0,19.8c13.8,0,27,0,40.3,0L799,111c0,6.5,0,12.9,0,19.9c6.7,0,13.1,0,20,0c0,7.1,0,13.7,0,20.2
	l0.1-0.1c-13.3,0-26.5,0-40.1,0c0,13.9,0,27,0,40.1l0.1-0.1c-6.7,0-13.4,0-20.1,0l0.1,0.1c0-13.3,0-26.5,0-39.7
	c-7.1,0-13.5,0-20.2,0c0,6.7,0,12.9,0,19.7c-6.8,0-13.1,0-19.9,0c0,7,0,13.5,0,20l0.1-0.1c-6.7,0-13.4,0-20.1,0l0.1,0.1
	c0-6.6,0-13.2,0-20.3c-7.1,0-13.5,0-20.2,0c0-6.8,0-13.1,0-19.9c-6.7,0-13.1,0-20.1,0c0-6.9,0-13.3,0-20.1c-6.8,0-13.1,0-19.9,0
	c0-6.7,0-13.1,0-19.9c-7,0-13.5,0-20,0L619.1,111z"/>
<path d="M899.2,230.5c0-46.6,0-92.8,0-139.4c46.5,0,92.7,0,139.4,0c0,46.3,0,92.6,0,139.4C992.4,230.5,946,230.5,899.2,230.5z
	 M919.3,111.1c0,33.4,0,66.4,0,99.4c33.4,0,66.4,0,99.4,0c0-33.3,0-66.2,0-99.4C985.6,111.1,952.7,111.1,919.3,111.1z"/>
<path d="M518.6,750.7c-46.6,0-92.9,0-139.4,0c0-46.5,0-92.7,0-139.4c46.3,0,92.7,0,139.4,0C518.6,657.5,518.6,703.9,518.6,750.7z
	 M498.7,730.7c0-33.4,0-66.5,0-99.4c-33.4,0-66.4,0-99.4,0c0,33.3,0,66.2,0,99.4C432.4,730.7,465.4,730.7,498.7,730.7z"/>
<path d="M399.1,310.9c0-13.4,0-26.7,0-40.1l-0.1,0.1c6.5,0,12.9,0,19.9,0c0,6.6,0,13,0,19.7c6.8,0,13.1,0,19.9,0
	c0-6.3,0-12.7,0-19.6c6.9,0,13.3,0,20.1,0c0-6.8,0-13.1,0-19.7c6.7,0,13.1,0,20.1,0c0,13.2,0,26.4,0,39.7l0.1-0.1
	c-6.6,0-13.2,0-19.7,0c0,7.1,0,13.4,0,20.1c6.8,0,13.3,0,19.7,0l-0.1-0.1c0,6.6,0,13.2,0,20.3c-13.6,0-26.7,0-39.7,0
	c0,13.5,0,26.4,0,39.5c6.6,0,13,0,19.9,0c0-6.7,0-13.1,0-19.6c13.7,0,26.8,0,39.9,0L499,351c0,6.7,0.1,13.4,0.1,20.1
	c-6.6,0-13.2,0-20,0c0,7.1,0,13.5,0,20c-6.6,0-13.2,0-20.1,0c0,13.7,0,26.9,0,40l0.1-0.1c-6.5,0-12.9,0-19.9,0c0-6.6,0-13,0-19.6
	c-6.8,0-13.1,0-19.9,0c0,6.3,0,12.7,0,19.6c-7.1,0-13.7,0-20.3,0l0.1,0.1c0-13.1,0-26.2,0-39.9c6.5,0,12.9,0,19.6,0
	c0-26.9,0-53.2,0-80.3c-6.6,0-13.2,0-19.7,0L399.1,310.9z"/>
<path d="M978.9,511c6.5,0,12.9,0,19.7,0c0-20.1,0-39.8,0-59.8c-6.3,0-12.6,0-19.4,0c0,6.3,0,12.7,0,19.4c-6.9,0-13.3,0-20.1,0
	c0-13,0-25.9,0-39.4c-6.7,0-13.1,0-19.9,0c0-6.9,0-13.3,0-20c13,0,25.9,0,39.4,0c0,6.2,0,12.6,0,19.4c6.9,0,13.3,0,20.1,0
	c0-6.3,0-12.6,0-19.2c6.7,0,13.1,0,20,0c0,46.2,0,92.6,0,139.5c6.9,0,13.3,0,19.9,0c0,13.5,0,26.4,0,39.9c-6.3,0-12.7,0-19.8,0
	c0,13.8,0,27,0,40.3l0.1-0.1c-6.5,0-12.9,0-19.9,0c0-6.6,0-12.9,0-20c-7.1,0-13.7,0-20.2,0l0.1,0.1c0-6.6,0-13.2,0-20.3
	c6.9,0,13.3,0,19.6,0c0-20.2,0-39.9,0-59.9c-6.8,0-13.3,0-19.7,0l0.1,0.1c0-6.7,0-13.4,0-20.1L978.9,511z"/>
<path d="M878.9,410.8c0,13.1,0,26.2,0,39.9c20,0,39.7,0,60,0c0,13.8,0,27,0,40.2l0.1-0.1c-6.6,0-13.2,0-20,0c0,7.2,0,13.7,0,20.1
	c-6.7,0-13.4-0.1-20.1-0.1l0.1,0.1c0-13.2,0-26.5,0-39.7c-7.1,0-13.4,0-20.3,0c0,6.7,0,13.1,0,19.4c-6.8,0-13.1,0-19.8,0
	c0-6.6,0-13,0-19.9c-6.9,0-13.3,0-19.8,0c0-13.6,0-26.8,0-39.9l-0.1,0.1c6.6,0,13.2,0,20.1,0c0-7.2,0-13.7,0-20.1l-0.1,0.1
	c6.7,0,13.4,0,20.1,0L878.9,410.8z"/>
<path d="M858.9,111c6.5,0,12.9,0,19.7,0c0,40,0,79.7,0,119.6c-6.4,0-12.6,0-19.4,0c0-13,0-26,0-39.8c-20.5,0-40.4,0-60.3,0l0.1,0.1
	c0-6.6,0-13.2,0-20.2c6.9,0,13.3,0,20,0c0-7,0-13.4,0-19.9l-0.1,0.1c6.7,0,13.4-0.1,20.1-0.1c0,6.6,0,13.1,0,19.7
	c6.9,0,13.3,0,19.6,0c0-6.7,0-13.1,0-19.6c-6.8,0-13.3,0-19.7,0c0-6.5,0-12.9,0-19.9c6.7,0,13.1,0,20.2,0c0-7.1,0-13.7,0-20.2
	L858.9,111z"/>
<path d="M859.1,271c0-6.5,0-12.9,0-19.7c39.9,0,79.5,0,119.7,0c0,6.3,0,12.7,0,19.7c13.8,0,27,0,40.2,0l-0.1-0.1
	c0,6.5,0,12.9,0,19.9c-13.2,0-26.3,0-39.9,0c0,6.9,0,13.3,0,19.9c-6.8,0-13,0-19.8,0c0-13,0-26,0-39.4c-20.2,0-39.9,0-60.3,0
	c0,6.6,0,13.1,0,19.7l0.1-0.1c-6.6,0-13.2,0-20.2,0c0-6.9,0-13.3,0-20c-7,0-13.4,0-19.9,0L859.1,271z"/>
<path d="M958.9,370.8c0,6.5,0,12.9,0,19.9c-13.3,0-26.3,0-39.9,0c0,13.6,0,26.6,0,39.9c-6.8,0-13,0-19.8,0c0-6.3,0-12.7,0-19.8
	c-7.1,0-13.7,0-20.3,0l0.1,0.1c0-20,0-40.1,0-60.1l-0.1,0.1c6.7,0,13.4,0,20.1,0l-0.1-0.1c0,6.6,0,13.2,0,19.7c7.1,0,13.4,0,20.1,0
	c0-6.8,0-13.3,0-19.7l-0.1,0.1c6.7,0,13.4,0,20.1,0l-0.1-0.1c0,6.6,0,13.2,0,20.1c7.2,0,13.7,0,20.1,0L958.9,370.8z"/>
<path d="M619.1,730.8c-6.5,0-12.9,0-19.9,0c0,6.7,0,13.1,0,19.8c-20.2,0-39.9,0-59.9,0c0-6.4,0-12.7,0-19.5c6.3,0,12.7,0,19.6,0
	c0-6.9,0-13.3,0-20.2c20.4,0,40.3,0,60.2,0l-0.1-0.1c0,6.7,0,13.4,0,20.1L619.1,730.8z"/>
<path d="M939.1,351c0-6.5,0-12.9,0-19.7c13.2,0,26.2,0,39.6,0c0,13,0,26,0,39.6c-6.6,0-13.2,0-19.7,0l0.1,0.1c0-6.6,0-13.2,0-20.1
	c-7.2,0-13.7,0-20.1,0L939.1,351z"/>
<path d="M398.9,310.8c0,19.8,0,39.6,0,59.7c-6.5,0-12.9,0-19.6,0c0-19.6,0-39.3,0-59.6c6.6,0,13.2,0,19.7,0
	C399.1,310.9,398.9,310.8,398.9,310.8z"/>
<path d="M938.9,491c13.1,0,26.3,0,40,0c0,6.8,0,13.4,0,20l0.1-0.1c-13.4,0-26.8,0.1-40.1,0.1c0-6.7,0.1-13.4,0.1-20.1L938.9,491z"/>
<path d="M838.9,271c6.7,0,13.4,0,20.2,0l-0.1-0.1c0,13.4,0,26.8,0,40.1l0.1-0.1c-6.6,0-13.2,0-20,0c0-13.7,0-26.9,0-40L838.9,271z"
	/>
<path d="M1018.9,630.9c6.5,0,12.9,0,19.7,0c0,13.2,0,26.2,0,39.6c-6.3,0-12.7,0-19.6,0c0-13.3,0-26.5,0-39.7
	C1019.1,630.8,1018.9,630.9,1018.9,630.9z"/>
<path d="M658.9,730.8c0,6.5,0,12.9,0,19.7c-13.2,0-26.3,0-39.9,0c0-6.6,0-13.1,0-19.7l-0.1,0.1C632.3,730.9,645.7,730.9,658.9,730.8
	L658.9,730.8z"/>
<path d="M398.9,430.8c0,6.5,0,12.9,0,19.7c-6.5,0-12.9,0-19.6,0c0-6.3,0-12.7,0-19.6c6.6,0,13.2,0,19.8,0
	C399.1,430.9,398.9,430.8,398.9,430.8z"/>
<path d="M459.1,451c0-6.7,0-13.4,0-20.2l-0.1,0.1c6.7,0,13.4-0.1,20.1-0.1c0,6.7,0,13.4,0,20.1c-6.7,0-13.4-0.1-20.1-0.1L459.1,451z
	"/>
<path d="M799.1,111c0-6.5,0-12.9,0-19.7c6.5,0,12.9,0,19.6,0c0,6.3,0,12.7,0,19.6c-6.6,0-13.2,0-19.7,0
	C798.9,110.8,799.1,111,799.1,111z"/>
<path d="M859.1,110.8c-6.5,0-12.9,0-19.7,0c0-6.5,0-12.9,0-19.6c6.3,0,12.7,0,19.6,0c0,6.6,0,13.2,0,19.7
	C858.9,111,859.1,110.8,859.1,110.8z"/>
<path d="M898.9,331c6.5,0,12.9,0,20,0c0,6.8,0,13.4,0,20l0.1-0.1c-6.7,0-13.4,0-20.1,0l0.1,0.1c0-6.7,0-13.4,0-20.1L898.9,331z"/>
<path d="M1038.6,350.7c-6.6,0-12.8,0-19.4,0c0-6.5,0-12.7,0-19.4c6.2,0,12.6,0,19.4,0C1038.6,337.5,1038.6,343.9,1038.6,350.7z"/>
<path d="M898.9,291c6.5,0,12.9,0,19.7,0c0,6.6,0,12.9,0,19.9c-6.6,0-13.1,0-19.7,0l0.1,0.1c0-6.7,0-13.4,0-20.1L898.9,291z"/>
<path d="M819.1,231c0-6.5,0-12.9,0-19.7c6.5,0,12.9,0,19.6,0c0,6.3,0,12.7,0,19.6c-6.6,0-13.2,0-19.8,0
	C818.9,230.8,819.1,231,819.1,231z"/>
<path d="M1018.8,371.2c0,6.5,0,12.8,0,19.4c-6.4,0-12.8,0-19.5,0c0-6.4,0-12.7,0-19.4C1005.7,371.2,1011.9,371.2,1018.8,371.2z"/>
<path d="M978.9,670.9c6.5,0,12.9,0,19.7,0c0,6.5,0,12.9,0,19.6c-6.3,0-12.7,0-19.6,0c0-6.6,0-13.2,0-19.7
	C979.1,670.8,978.9,670.9,978.9,670.9z"/>
<path d="M1019.1,271c0-6.5,0-12.9,0-19.7c6.5,0,12.9,0,19.6,0c0,6.3,0,12.7,0,19.6c-6.6,0-13.2,0-19.8,0
	C1018.9,270.8,1019.1,271,1019.1,271z"/>
<path d="M399.1,270.8c-6.5,0-12.9,0-19.7,0c0-6.5,0-12.9,0-19.6c6.3,0,12.7,0,19.6,0c0,6.6,0,13.2,0,19.7
	C398.9,271,399.1,270.8,399.1,270.8z"/>
<path d="M959.1,750.6c0-6.6,0-12.7,0-19.3c6.4,0,12.8,0,19.5,0c0,6.2,0,12.6,0,19.3C972.3,750.6,965.9,750.6,959.1,750.6z"/>
<path d="M1019.2,750.5c0-6.6,0-12.8,0-19.4c6.5,0,12.7,0,19.4,0c0,6.2,0,12.6,0,19.4C1032.4,750.5,1026,750.5,1019.2,750.5z"/>
<path d="M739.1,450.8c0,6.5,0,12.9,0,19.9c6.6,0,12.9,0,19.6,0c0,13.5,0,26.5,0,40.3c-6.6,0-13.2,0-19.8,0c0-6.5,0-12.9,0-20
	c-6.6,0-13,0-19.8,0c0-6.8,0-13.1,0-19.9c-13.4,0-26.5,0-39.8,0c0-13.6,0-26.6,0-40c6.4,0,12.6,0,19.4,0c0,6.3,0,12.7,0,19.7
	C712.6,450.8,725.8,450.8,739.1,450.8z"/>
<path d="M579.1,511c-13.1,0-26.2,0-39.9,0c0,6.5,0,12.9,0,20c-7.1,0-13.7,0-20.3,0c0-6.5,0-12.9,0-19.9c-6.6,0-13,0-19.6,0
	c0-6.9,0-13.3,0-20c19.8,0,39.3,0,59.4,0c0-6.7,0-13.1,0-19.8c6.9,0,13.3,0,20.3,0C579.1,484.5,579.1,497.7,579.1,511z"/>
<path d="M478.9,471c0-6.7,0-13.4,0-20.1c13.4,0,26.8,0,40.1,0c0,6.5,0,12.9,0,20.1C505.4,471,492.2,471,478.9,471z"/>
<path d="M619.1,531c-13.1,0-26.3,0-40.1,0c0-7,0-13.5,0-20.1c13.1,0,26.3,0,40.1,0C619.1,517.8,619.1,524.4,619.1,531z"/>
<path d="M679.1,570.8c-6.5,0-12.9,0-19.7,0c0-13.2,0-26.2,0-39.6c6.3,0,12.7,0,19.6,0c0,13.3,0,26.5,0,39.7
	C678.9,571,679.1,570.8,679.1,570.8z"/>
<path d="M738.9,430.8c6.7,0,13.4,0,20.1,0c0,6.5,0,12.9,0,20.1c-7,0-13.5,0-20.1,0C738.9,444.2,738.9,437.5,738.9,430.8z"/>
<path d="M699.1,510.8c-6.5,0-12.9,0-19.7,0c0-6.5,0-12.9,0-19.6c6.3,0,12.7,0,19.6,0c0,6.6,0,13.2,0,19.8
	C698.9,511,699.1,510.8,699.1,510.8z"/>
<path d="M618.9,551c0-6.7,0-13.4,0-20.1c6.5,0,12.9,0,19.7,0c0,6.7,0,13.1,0,20.1C632.1,551,625.5,551,618.9,551z"/>
<path d="M839.1,511c-6.5,0-12.9,0-20,0c0,6.8,0,13.4,0,20c-13.1,0-26.2,0-39.7,0c0-6.7,0-13,0-19.9c6.3,0,12.7,0,19.7,0
	c0-13.7,0-27,0-40.2L799,471c6.4,0,12.9,0,19.9,0c0,6.5,0,12.9,0,19.8c6.9,0,13.2,0,20.3,0C839.1,497.8,839.1,504.4,839.1,511z"/>
<path d="M799.1,470.8c-6.5,0-12.9,0-19.7,0c0-6.5,0-12.9,0-19.6c6.3,0,12.7,0,19.6,0c0,6.6,0,13.2,0,19.8
	C798.9,471,799.1,470.8,799.1,470.8z"/>
<path d="M819.1,671c-6.7,0-13.4-0.1-20.1-0.1l0.1,0.1c0-6.6,0-13.2,0-20.1c-7.2,0-13.7,0-20.1,0l0.1,0.1c0-6.5,0-12.9,0-19.9
	c6.5,0,12.9,0,19.8,0c0-6.9,0-13.3,0-20.3c13.7,0,27,0,40.2,0c0,6.5,0,12.9,0,19.9c-6.7,0-13.1,0-20,0
	C819.1,644.5,819.1,657.7,819.1,671z"/>
<path d="M779.1,670.8c-6.7,0-13.4,0.1-20.1,0.1c0-6.5,0-12.9,0-20c7,0,13.6,0,20.1,0l-0.1-0.1C779,657.5,779,664.2,779.1,670.8
	L779.1,670.8z"/>
<path d="M899.2,630.6c0-6.4,0-12.7,0-19.3c6.3,0,12.7,0,19.4,0c0,6.3,0,12.7,0,19.3C912.2,630.6,905.9,630.6,899.2,630.6z"/>
<path d="M818.9,691c0-6.7,0-13.4,0-20.1c13.4,0,26.8,0,40.1,0c0,6.5,0,12.9,0,20.1C845.4,691,832.2,691,818.9,691z"/>
<path d="M918.9,510.8c6.7,0,13.4,0,20.1,0c0,6.7,0,13.4,0,20.1c-6.5,0-12.9,0-20.1,0C918.9,524,918.9,517.4,918.9,510.8z"/>
<path d="M798.9,670.8c0,6.7,0.1,13.4,0.1,20.1c-6.5,0-12.9,0-20,0c0-7,0-13.6,0-20.1l-0.1,0.1C785.6,670.9,792.3,670.9,798.9,670.8
	L798.9,670.8z"/>
<path d="M618.9,210.8c6.7,0,13.4,0,20.1,0c0,6.5,0,12.9,0,20.1c-7,0-13.5,0-20.1,0C618.9,224.2,618.9,217.5,618.9,210.8z"/>
<path d="M598.9,230.8c6.7,0,13.4,0,20.1,0c0,6.5,0,12.9,0,19.7c-6.7,0-13.1,0-20.1,0C598.9,244,598.9,237.4,598.9,230.8z"/>
<path d="M639.1,291c-6.7,0-13.4,0-20.1,0c0-6.5,0-12.9,0-19.7c6.7,0,13.1,0,20.1,0C639.1,277.8,639.1,284.4,639.1,291z"/>
<path d="M599.1,291c-6.5,0-12.9,0-20.1,0c0-7,0-13.5,0-20.1c6.5,0,12.9,0,20.1,0C599.1,277.8,599.1,284.4,599.1,291z"/>
<path d="M719.1,210.8c0,6.7,0,13.4,0,20.1c-6.5,0-12.9,0-20.1,0c0-7,0-13.5,0-20.1C705.6,210.8,712.4,210.8,719.1,210.8z"/>
<path d="M478.9,390.8c6.7,0,13.4,0.1,20.1,0.1l-0.1-0.1c0,6.6,0,13.2,0,20.1c7.2,0,13.7,0,20.1,0l-0.1-0.1c0,6.7,0.1,13.4,0.1,20.1
	c-13.4,0-26.8,0-40.1,0C478.9,417.6,478.9,404.2,478.9,390.8z"/>
<path d="M499.1,391c0-6.7-0.1-13.4-0.1-20.1c13.4,0,26.8,0,40.1,0c0,13.1,0,26.3,0,40c-7,0-13.6,0-20.1,0l0.1,0.1
	c0-6.6,0-13.2,0-20.1c-7.2,0-13.7,0-20.1,0L499.1,391z"/>
<path d="M719.1,351c-13.4,0-26.8,0-40.1,0c0-6.5,0-12.9,0-19.7c13.4,0,26.4,0,40.1,0C719.1,337.8,719.1,344.4,719.1,351z"/>
<path d="M419.2,190.5c0-19.9,0-39.5,0-59.4c19.8,0,39.4,0,59.4,0c0,19.6,0,39.3,0,59.4C459,190.5,439.3,190.5,419.2,190.5z"/>
<path d="M998.6,190.7c-19.9,0-39.5,0-59.4,0c0-19.8,0-39.4,0-59.4c19.6,0,39.3,0,59.4,0C998.6,150.9,998.6,170.6,998.6,190.7z"/>
<path d="M478.8,651.2c0,20,0,39.6,0,59.4c-19.8,0-39.4,0-59.4,0c0-19.6,0-39.3,0-59.4C439,651.2,458.7,651.2,478.8,651.2z"/>
</svg>
