<?xml version="1.0" encoding="utf-8"?>
<!-- Generator: Adobe Illustrator 26.0.0, SVG Export Plug-In . SVG Version: 6.00 Build 0)  -->
<svg version="1.1" id="Capa_1" xmlns="http://www.w3.org/2000/svg" xmlns:xlink="http://www.w3.org/1999/xlink" x="0px" y="0px"
	 viewBox="0 0 595.3 841.9" style="enable-background:new 0 0 595.3 841.9;" xml:space="preserve">
<style type="text/css">
	.st0{fill:#45648C;}
	.st1{fill:#486A99;}
	.st2{fill:#5E80AC;}
	.st3{fill:#3F6496;}
	.st4{fill:#3D6088;}
	.st5{fill:#496C9A;}
	.st6{fill:#406AA1;}
	.st7{fill:#4A6090;}
	.st8{fill:#3E5F89;}
	.st9{fill:#70809D;}
	.st10{fill:#7A8A9A;}
	.st11{fill:#97A0A7;}
	.st12{fill:#B2B9BE;}
	.st13{fill:#42638D;}
	.st14{fill:#45668F;}
	.st15{fill:#325681;}
	.st16{fill:#48668D;}
	.st17{fill:#466590;}
	.st18{fill:#D3C34B;}
	.st19{fill:#A2B2C7;}
	.st20{fill:#466A97;}
	.st21{fill:#DAC33F;}
	.st22{fill:#DAC83F;}
	.st23{fill:#496A96;}
	.st24{fill:#3E6491;}
	.st25{fill:#4C6F9B;}
	.st26{fill:#38629E;}
	.st27{fill:#4B6790;}
	.st28{fill:#3C5F8D;}
	.st29{fill:#5D7DA1;}
	.st30{fill:#A2B4CA;}
	.st31{fill:#728DB3;}
	.st32{fill:#ADB7C1;}
	.st33{fill:#D3C340;}
	.st34{fill:#D8C341;}
	.st35{fill:#CEC438;}
	.st36{fill:#D5C74A;}
	.st37{fill:#667C99;}
	.st38{fill:#7E8BA5;}
	.st39{fill:#A8B0B8;}
	.st40{fill:#41628F;}
	.st41{fill:#476A9A;}
	.st42{fill:#4C709F;}
	.st43{fill:#E8E8E9;}
	.st44{fill:#486B9A;}
	.st45{fill:#4B6F9E;}
	.st46{fill:#466A96;}
	.st47{fill:#466C9B;}
	.st48{fill:#E3E3E3;}
	.st49{fill:#496B9A;}
	.st50{fill:#436A9B;}
	.st51{fill:#426995;}
	.st52{fill:#466793;}
	.st53{fill:#A1ADB6;}
	.st54{fill:#7B8A9C;}
	.st55{fill:#40628E;}
	.st56{fill:#41638E;}
	.st57{fill:#D6C74E;}
	.st58{fill:#476893;}
	.st59{fill:#416493;}
	.st60{fill:#436390;}
	.st61{fill:#476890;}
	.st62{fill:#3E598A;}
	.st63{fill:#355684;}
	.st64{fill:#3E5E83;}
	.st65{fill:#2E5889;}
	.st66{fill:#3D5B83;}
	.st67{fill:#426795;}
	.st68{fill:#456693;}
	.st69{fill:#4B6E9D;}
	.st70{fill:#DEC449;}
	.st71{fill:#D4C83C;}
	.st72{fill:#D6C948;}
	.st73{fill:#3F5F89;}
	.st74{fill:#4B6C97;}
	.st75{fill:#335687;}
	.st76{fill:#DCC239;}
	.st77{fill:#456793;}
	.st78{fill:#45648D;}
	.st79{fill:#44638F;}
	.st80{fill:#677D9C;}
	.st81{fill:#3F5E84;}
	.st82{fill:#3C6594;}
	.st83{fill:#456794;}
	.st84{fill:#41648F;}
	.st85{fill:#3E699E;}
	.st86{fill:#40638D;}
	.st87{fill:#4E6E9D;}
	.st88{fill:#42679F;}
	.st89{fill:#496899;}
	.st90{fill:#4F709B;}
	.st91{fill:#46699A;}
	.st92{fill:#4E709E;}
	.st93{fill:#46648B;}
	.st94{fill:#4B688F;}
	.st95{fill:#3E6595;}
	.st96{fill:#395A8A;}
	.st97{fill:#3C5883;}
	.st98{fill:#406899;}
	.st99{fill:#446692;}
	.st100{fill:#436798;}
	.st101{fill:#496A97;}
	.st102{fill:#466791;}
	.st103{fill:#476188;}
	.st104{fill:#436492;}
	.st105{fill:#446693;}
	.st106{fill:#3B5D87;}
	.st107{fill:#385B8C;}
	.st108{fill:#44628B;}
	.st109{fill:#3E6588;}
	.st110{fill:#415D87;}
	.st111{fill:#3E6499;}
	.st112{fill:#3A6490;}
	.st113{fill:#406488;}
	.st114{fill:#486994;}
	.st115{fill:#3F5D81;}
	.st116{fill:#446896;}
	.st117{fill:#40699A;}
	.st118{fill:#456790;}
	.st119{fill:#476793;}
	.st120{fill:#3E6999;}
	.st121{fill:#416898;}
	.st122{fill:#436290;}
	.st123{fill:#4A6C97;}
	.st124{fill:#466387;}
	.st125{fill:#3D5C89;}
	.st126{fill:#647FA0;}
	.st127{fill:#456897;}
	.st128{fill:#466798;}
	.st129{fill:#3C638F;}
	.st130{fill:#416092;}
	.st131{fill:#415C83;}
	.st132{fill:#476C99;}
	.st133{fill:#486296;}
	.st134{fill:#345689;}
	.st135{fill:#4F6F97;}
</style>
<path class="st0" d="M171.3,372.1c-0.1,0.2-0.2,0.5-0.3,0.7c-3.2,0.2-6.2,0.7-9.2,2c-1.2,0.4-1.8-0.1-2.3-1.1
	c-0.2-0.8,0-1.5,0.5-2.1c0.6-0.5,1.3-0.8,2-1c1.7-0.5,3.4-0.8,5.2-0.5C168.7,370.6,170.3,370.7,171.3,372.1z"/>
<path class="st1" d="M422,368.2c-0.7,0-1.4-0.1-2.1-0.1c-0.7-0.8-1.7-0.4-2.5-0.9c-1.8-0.3-3.7-1.2-5.6-0.1c-1,0.2-2,0.2-3,0
	c-2.2-0.8-4.6-0.5-6.9-0.6c-1.5,0-3.1,0.1-4.5-0.8c-1.1-0.9-0.6-1.7,0.3-2.3c1.3-0.7,2.6-1.4,3.8-2.2c2.2-0.8,4.4-0.7,6.6-0.3
	c1.6,0.8,3.4,1.3,5.2,1c1.7,0.1,3.3,0.8,5.1,0.7c3.3,0.6,6.8,0.8,9.5,3.2c2.6,1.8,6.6,0.1,8.7,3.3c-0.1,0.9-0.8,1.3-1.6,1.5
	c-1.5,0.7-2.7-0.1-3.9-0.7C428.1,369.4,424.9,369.7,422,368.2z"/>
<path class="st2" d="M449.9,374c-0.7,0.1-1.3,0.1-2,0.2c-1.5-1.1-3.2-1.2-5-1.1c-0.6-1.4-2.4-0.8-3.3-1.8c0.4-1.1,1.6-0.5,2.2-1
	c2,0.6,4.1,1.1,6.1,1.7C448.6,372.6,449.3,373.3,449.9,374z"/>
<path class="st3" d="M441.9,370.2c-0.7,0.3-1.5,0.7-2.2,1c-1.5-0.2-3.1-0.4-4.6-0.5c0.5-0.5,1.1-1,1.6-1.5
	C438.6,368.6,440.1,370,441.9,370.2z"/>
<path class="st4" d="M421.2,386c-0.1,0.3-0.2,0.7-0.3,1c-1.3,0-2.6,0-3.9-0.1c-0.6-0.7-2.1,0-2.3-1.4c0.9-1.4,2-1.1,3.2-0.5
	c0.7-0.1,1.3-0.1,2-0.2C420.4,385.2,420.8,385.6,421.2,386z"/>
<path class="st5" d="M405.1,418.8c0.3,0.7,0.7,1.4,1,2.2c0,5.6,0,11.3,0,16.9c-0.3,0.3-0.7,0.4-1.2,0.3c-0.4-0.3-0.6-0.6-0.9-1
	c-0.6-1.4-1.1-2.9-1-4.4c0-0.4,0.1-0.9,0.2-1.3c0.6-2.3,0.5-4.7,0.2-7c-0.1-1.5-0.1-3,0.2-4.5C403.9,419.3,404.4,418.9,405.1,418.8z
	"/>
<path class="st6" d="M405,437.9c0.4,0,0.7,0,1.1-0.1c1.2,0.3,2.9-0.7,3.6,0.7c0.6,1.2-0.8,1.9-1.7,2.6c-1.5-0.8-2.5,1.5-4,0.8
	C402.8,440.3,403.4,439,405,437.9z"/>
<path class="st7" d="M166.9,359.1c-1.3,3.8-4.3,2.1-6.7,2.1c-1,0.4-1.3-0.1-1-1C161.8,360,164.2,358.6,166.9,359.1z"/>
<path class="st8" d="M175.3,359.2c-2.4,0.9-4.9,1.5-7.3-0.1c0.7-0.4,1.4-0.7,2-1.1c0.3,0,0.7-0.1,1-0.1c0.6-0.3,1.3-0.5,2-0.2
	C173.6,358.4,174.8,358.4,175.3,359.2z"/>
<path class="st9" d="M159.2,360.2c0.3,0.3,0.7,0.7,1,1c-1.9,1.3-4,0.8-6,0.9c-1.1,0.6-1.1,0-1-0.9
	C155.1,360.9,157.2,360.5,159.2,360.2z"/>
<path class="st10" d="M153.1,361.2c0.3,0.3,0.7,0.6,1,0.9c-1.9,1.4-4,0.9-6.1,0.8c-0.2-0.2-0.3-0.4-0.2-0.5c0.1-0.1,0.2-0.2,0.3-0.2
	C149.8,361.9,151.5,361.6,153.1,361.2z"/>
<path class="st11" d="M148.1,362.2c0,0.2,0,0.5-0.1,0.7c-0.3,0.4-0.7,0.7-1,1.1c-1.2,1-2.6,1.3-4.2,1.1c-0.4-0.7-0.4-1.4,0.3-2
	c0.3,0,0.6-0.1,0.9-0.2c0.9-0.6,2-0.5,3-0.9C147.4,362.2,147.8,362.2,148.1,362.2z"/>
<path class="st12" d="M143.2,363.1c0,0.5,0,1.1,0,1.6c-0.6,1-1.3,0.8-2.1,0.3c-3.1-0.7,0.4-1.3,0-2
	C141.8,363.1,142.5,363.1,143.2,363.1z"/>
<path class="st13" d="M179.1,359c-0.3,0-0.7,0-1,0c-0.6-0.7-0.6-1.4-0.1-2.1c0.9-0.6,2-0.2,3-0.3c1.7-0.2,3.5,0.5,5.1-0.5
	c0.9-0.1,1.8-0.1,2.6-0.2c1.7-0.8,3.6,0.1,5.3-0.8c1.5-0.1,3.1-0.2,4.6-0.3c4.1-1,8.3,0.4,12.4-0.8c5-0.4,10-0.3,15.1,0
	c3.3,1.1,6.9-0.3,10.2,0.8c2.6,0.1,5.1,0.2,7.7,0.3c5.7,1.5,11.4,3.1,17,4.6c4.5,1.2,9.1,2.2,13.1,5c1.1,2-0.2,2.9-1.8,3.6
	c-3.2,0.3-5.7-1.4-8.3-2.9c-0.2-1.8-0.2-1.8-4.3-1.2c-2.7-0.2-5.2-0.9-7.7-1.8c-0.9-0.3-1.7-0.7-2.6-1c-1.6-0.2-3.2-0.2-4.8-0.4
	c-0.5-0.1-0.9-0.2-1.4-0.3c-1.8-0.6-3.7-0.3-5.5-0.5c-0.7,0-1.5-0.2-2.2-0.4c-2.7-1-5.6-0.2-8.4-0.8c-0.6-0.1-1.1-0.2-1.6-0.4
	c-8.7-0.6-17.4-0.1-26.1-0.3c-2.8,0.1-5.6-0.4-8.3,0.6c-1.4,0.3-2.8,0.4-4.1,0C184.4,358.5,181.8,358.1,179.1,359z"/>
<path class="st14" d="M211,354.1c-4,1.9-8.3,0.6-12.4,0.8c0.2-0.2,0.3-0.5,0.5-0.7C203.1,354.1,207,354.1,211,354.1z"/>
<path class="st15" d="M176.1,357.9c0.7-0.2,1.3-0.5,2-0.7c0,0.6,0,1.2,0,1.8c-0.9,0.1-1.8,0.2-2.7,0.2c-0.8-0.4-1.5-0.7-2.3-1.1
	c0.3-0.4,0.6-0.5,1-0.3C174.7,357.8,175.4,357.8,176.1,357.9z"/>
<path class="st16" d="M180.7,356.9c0.2-0.3,0.4-0.5,0.5-0.8c1.6,0,3.2,0,4.8,0C184.4,357.7,182.5,356.9,180.7,356.9z"/>
<path class="st16" d="M194,355.2c-1.6,1.5-3.5,0.7-5.3,0.8C190.3,354.9,192.2,355.1,194,355.2z"/>
<path class="st17" d="M283,368.1c6,4,12,8,18,12c2.3,0.4,3.4,1.9,3.6,4.1c-0.2,1-0.7,1.8-1.7,2.3c-2.2,0.6-3.8-0.8-5.4-1.9
	c-5.6-4.2-11.5-7.9-17.5-11.5c-1.3-0.8-2.7-1.5-4.1-2.2c-1.1-0.6-2.3-1.2-3.3-2c-0.3-0.3-0.5-0.7-0.5-1.2c0.9-0.8,2.1-1.5,2-3
	C277.5,364.6,280.2,366.7,283,368.1z"/>
<path class="st18" d="M286.7,360c-0.5,1.3-1.7,1.7-2.7,2.4c-0.3-0.8-0.7-1.6-1-2.4c0.4-0.3,0.7-0.6,1.1-1
	C285.3,358.4,286.1,359.1,286.7,360z"/>
<path class="st19" d="M452,375c-0.9,0-1.6-0.3-2.1-1c0.7-0.2,1.4-0.4,2.1-0.7C452,373.9,452,374.5,452,375z"/>
<path class="st14" d="M236.3,354.9c-3.4-0.2-6.9,1-10.2-0.8c1.3-0.1,2.6-0.2,4-0.2c1.7,0.1,3.3,0.1,5,0.2
	C235.5,354.4,235.9,354.7,236.3,354.9z"/>
<path class="st20" d="M398.3,351.9c3.9,0.6,7.8,1.2,11.7,1.8c2.9,1,6.3,0.5,9,2.5c0.3,1.6-1,2-2.1,2.5c-0.7,0.2-1.4,0.1-2.1-0.2
	c-1.6-1.1-3.5-1.2-5.3-1.1c-1.3,0-2.5-0.1-3.8-0.4c-2.6-0.9-5.4-0.5-8.1-0.6c-3.9-0.1-7.9,0.2-11.8-0.2c-3.8-1.2-7.6-1-11.4-0.5
	c-0.7,0.3-1.3,0.6-2,0.8c-0.5,0.1-0.9,0.1-1.4,0.1c-1.9-0.5-3.5-0.1-5,1.1c-1.8,0.8-3.5,1.6-5.4,2.3c-3,0.6-6.1,0.6-9.2,1.3
	c-1.3,0.1-2.5,0.1-3.7-0.5c-1.4-1.4-0.9-3.1-0.7-4.7c4.3-2.7,9.2-3.1,14-4.1c2,1.6,3.1-0.6,4.6-1c0.7-0.4,1.3-0.6,2.1-0.7
	c0.5,0,1,0,1.6,0.1c6.5-0.2,13,1,19.5,0.1c1.1,0,2.2-0.1,3.3,0.2C394,351.9,396.3,351.2,398.3,351.9z"/>
<path class="st21" d="M332.1,345c1.9,0,3.2,1.4,4.9,2c0.4,0.6,0.8,1.1,1.2,1.7c0.6,2.3-1,3-2.8,3.4c-3.7-0.2-7-1.6-9.9-3.7
	c-1.5-2.3-0.1-3.3,1.9-3.7C328.9,344.5,330.6,344.2,332.1,345z"/>
<path class="st22" d="M334.7,351.2c1.7-0.1,2.9-0.9,3.5-2.5c3.2,1.6,5.7,3.9,7,7.3c-0.2,0.2-0.3,0.3-0.5,0.5
	c-0.4,0.2-0.9,0.2-1.3,0.2c-1.6-0.4-2.6-1.6-3.8-2.6c-0.9-1-2.2-0.9-3.4-1.1c-0.4-0.1-0.8-0.3-1.2-0.5
	C334.7,352,334.6,351.6,334.7,351.2z"/>
<path class="st23" d="M347,356.1c2.1,1.3,2.9,2.6,0,3.9c-2.9-0.1-2.8-1.7-1.9-3.7c0,0,0.1-0.4,0.1-0.4
	C345.8,356,346.4,356.1,347,356.1z"/>
<path class="st24" d="M366,352.1c-1.7-0.1-3.3,5.2-5,0c0.2-0.2,0.5-0.2,0.8-0.1C363.2,351,364.6,350.7,366,352.1z"/>
<path class="st25" d="M366,352.1c-1.4,0-2.8-0.1-4.2-0.1c0.2-0.2,0.3-0.5,0.5-0.8c0.3-0.5,0.7-0.8,1.2-0.9c1.3-0.2,2.6-0.1,3.6,0.9
	C366.7,351.5,366.3,351.8,366,352.1z"/>
<path class="st26" d="M417,357.6c0.7-0.5,1.3-1,2-1.5c2.1-0.1,4.3-0.5,6.3,0.8c-0.8,1.4-2.2,2-3.6,2.6
	C419.8,359.6,418,359.7,417,357.6z"/>
<path class="st27" d="M426.9,357.2c1.4,0.2,2.7,0.5,4.1,0.7c0,0-0.1,0.3-0.1,0.3c0.3,1.7-1,2.1-2.1,2.6c-1.8,0.3-3.5-0.2-4.9-1.5
	C423.5,356.5,426.1,358.1,426.9,357.2z"/>
<path class="st28" d="M426.9,357.2c-1,0.5-2,1-3,1.5c-0.6,0.8-1.3,0.8-2,0.1c0.3-2,1.9-1.7,3.3-1.9
	C425.8,357,426.4,357.1,426.9,357.2z"/>
<path class="st29" d="M428.9,359.7c0.7-0.5,1.3-1,2-1.6c1.7,0.4,3.3,0.7,5,1.1c0.5,1.9-1.4,0.9-1.9,1.6l-0.5,0.2l-0.5,0
	C431.7,360.4,429.8,361.7,428.9,359.7z"/>
<path class="st30" d="M442,363c-1.3-0.3-2.7-0.7-4-1c-0.5-1.8,1.4-1.1,1.9-1.8c1.1,0.2,2.1,0.4,3.2,0.6c0,0,0,0.2,0,0.2
	C443.6,362.1,442.8,362.6,442,363z"/>
<path class="st31" d="M439.8,360.2c-0.6,0.6-1.3,1.2-1.9,1.8c-1.3-0.4-2.6-0.7-4-1.1c0.6-0.5,1.3-1.1,1.9-1.6
	C437.2,359.5,438.5,359.9,439.8,360.2z"/>
<path class="st32" d="M442,363c0.3-0.7,0.7-1.3,1-2c1.4,0.3,2.8,0.5,3.7,2.1C445,364.9,443.5,363.6,442,363z"/>
<path class="st33" d="M286.7,360c-0.9-0.3-1.7-0.6-2.6-0.9c-0.1-2,1.2-3.3,2-4.9c0.7-1.6,2-2.8,3.2-4c2.7-1.7,5.3-3.3,8-5
	c0.9-0.4,1.9-0.8,2.8-1.1c2.2-1.2,4.7-1.2,7.1-1.9c1.6,0,3.3,0,4.9,0c0.2,0.2,0.3,0.5,0.3,0.7c-0.1,0.3-0.1,0.4-0.2,0.4
	c-0.4-0.5,0.2,0.5-0.4,0.2c-0.4-0.2-0.5,0-0.3,0c2-0.3,4-0.7,6,0c1,0.8,2.5,1.3,1.3,3c-2.8,2.2-5.9-0.4-8.7,0.5
	C301.4,349.9,293.7,354.3,286.7,360z"/>
<path class="st34" d="M319,346c-0.7-0.7-1.3-1.3-2-2c1-1.4,2.6-0.8,3.8-1.3c0.5-0.1,0.9-0.2,1.4-0.2c1.7,0.1,3.4-0.3,5,0.4
	c0.6,0.3,1.2,0.6,1.8,0.8c1,0.4,2.4-0.1,3.1,1.2c-2.3,0.4-5.3-0.7-6.1,2.8c-1,1.4-2.2,0.7-3.3,0.3C321.5,347.4,319.9,347.4,319,346z
	"/>
<path class="st25" d="M392,351.2c0.7-0.1,1.3-0.2,2-0.3c1.4,0.3,2.9,0.7,4.3,1C396.2,351.9,394,352.7,392,351.2z"/>
<path class="st35" d="M312,343.1c0-0.3,0-0.6,0-0.9c3,0,6,0,9-0.1c0.4,0.2,0.5,0.4,0.4,0.7c-0.1,0.2-0.2,0.3-0.3,0.3l0,0
	C318,343.8,315,343.8,312,343.1z"/>
<path class="st36" d="M321,343.1c0-0.3,0-0.7,0-1c2.1,0,4.3-0.4,6.2,0.9C325.2,343,323.1,343,321,343.1z"/>
<path class="st25" d="M386.9,350.3c0.1,0.2,0.2,0.5,0.3,0.7c-4.8,1.2-9.7,0.4-14.6,0.5c-0.7-0.3-0.8-0.7-0.3-1.3
	c3.6,0,7.1-0.1,10.7-0.1C384.3,350.1,385.6,350.2,386.9,350.3z"/>
<path class="st37" d="M154.1,375.1c0,0.3,0,0.7-0.1,1c-0.7,1.1-1.8,0.9-2.8,1c-1,0.5-1.2-0.1-1-0.9
	C151.4,375.4,152.7,374.9,154.1,375.1z"/>
<path class="st38" d="M150.2,376.2c0.3,0.3,0.7,0.6,1,0.9c-1.3,1.2-2.8,1-4.6,0.7C147.7,376.4,148.9,376.2,150.2,376.2z"/>
<path class="st39" d="M141.1,379c0.7-0.3,1.3-0.7,2-1c0.6,0.4,1.7,0.9,0.9,1.6C143.2,380.4,141.9,380.1,141.1,379z"/>
<path class="st40" d="M167,371c5-1.4,10-2.9,14.9-4.3c0.7-0.7,1.4-1.3,2.4-1.6c2.3-0.5,4.6-1.3,7-1.4c0.5,0,0.9-0.1,1.4-0.1
	c2.3-0.1,4.5-0.5,6.5-1.7c3.8-0.3,7.5-1.5,11.3-1.4c5.6,0.1,11.3,0,16.9,0c7.1,0.5,14.1,1.4,21,3c2.9,0.3,5.5,1.5,8.2,2.3
	c2,0.8,4,1.5,6,2.1c1,0.4,2.1,0.8,3.1,1.1c1.6,0.6,3.2,1.1,4.7,1.8c0.4,0.2,0.8,0.4,1.1,0.6c1.3,0.8,2.6,1.2,4,1.7
	c1.5,0.6,3.1,1.3,3.6,3.1c-0.2,0.2-0.2,0.5,0,0.7c0.1-0.3,0.3-0.5,0.7-0.5c1.5,0,2.6,0.5,3.3,1.8c-0.2,2.6-1.9,3.5-4.1,3.9
	c-1.6,0.1-3.1-0.4-4.6-0.7c-6.8-2.5-12.8-6.8-20-8.4c-5.4-1.6-10.9-3.3-16.6-3.9c-3.3-1.2-6.9-0.4-10.3-0.8
	c-0.5-0.1-1.1-0.2-1.6-0.3c-5.5-1.1-10.9,0.6-16.4,0.6c-7.3-0.4-14.5,1.7-21.7,1.9c-1.7-0.5-3.5-0.6-5.2,0.2
	c-0.9,0.4-1.9,0.4-2.8,0.4c-2.9,0.3-5.9,0.7-8.8,1C169.8,371.9,168.2,372.5,167,371z"/>
<path class="st41" d="M403.1,379.6c2,0.7,3.9,1.3,5.9,2c3,1.1,6,2.2,9,3.3c-1,0.1-2.2-0.2-3,0.9c-6.7-1.3-13.6-2.1-20-4.7
	c-5.2-1-10.5-0.7-15.8-1.1c-1.6-0.1-3.3-0.7-3.3-2.4c0-1.6,1.7-1.7,3-1.9c2.6-0.2,5.3,0.3,7.8-0.7c1-0.3,2.1-0.3,3.2-0.3
	C394.6,375.7,399.6,375.7,403.1,379.6z"/>
<path class="st42" d="M413,367l-0.4-0.2l-0.4,0.1c-0.5,0-0.7-0.3-0.5-0.7c2.1,0.1,4.4-0.9,6.3,0.9c-1,0.7-2,0.6-3,0.1
	C414.3,367.1,413.7,367,413,367z"/>
<path class="st43" d="M415,367.2c1,0,2-0.1,3-0.1c0.6,0.3,1.3,0.7,1.9,1C418.2,367.8,416.4,368.6,415,367.2z"/>
<path class="st44" d="M397,364.9c-4.3,0-8.7,0-13,0c0-1.8,1.4-1.8,2.6-2.2c2.2-0.3,4.5,0.3,6.7-0.6c0.5-0.5,0.9-0.9,1.4-1.3
	c1.2-0.6,2.5-0.4,3.8-0.6c1.2,0.1,2.2,0.5,2.5,1.8C401.7,365.9,397.4,362.7,397,364.9z"/>
<path class="st45" d="M402.3,365.9c-0.2-0.3-0.4-0.5-0.6-0.7c2.4,0.1,5-0.9,7.3,0.8C406.7,365.9,404.5,365.9,402.3,365.9z"/>
<path class="st45" d="M412.6,362.2c0.2,0.3,0.3,0.5,0.5,0.8c-1.4,0-3.1,1.5-4.1-0.8c0.3-0.1,0.7-0.2,1-0.3
	C410.9,362,411.8,362.1,412.6,362.2z"/>
<path class="st46" d="M379,377c-0.8,0.1-2-0.3-2.2,0.6c-0.2,1,0.9,1,1.8,1.1c4.9,0.8,10.1-1.2,14.9,1.4c0.6,0.3,1.1,0.7,1.6,1.1
	c-0.4,1-1.3,0.8-2.1,0.9c-1.3-1.1-2.9-0.2-4.4-0.6c-1.9-1.3-4-0.8-6.1-0.9c-6.8-1.1-13.1,2.1-19.7,2.5c-6.3,1.5-12.5,3.2-18.4,6
	c-1.5,0.7-3,1.2-4.7,1.3c-2.3-0.2-3.7-1.2-3.4-3.7c3.6-5.1,9.7-5.9,14.6-8.6c3.9-1.7,8.1-2.6,12.3-3.2c1.4,0,2.8-0.1,4.2-0.1
	c3.8,0,7.5-0.2,11.2,1C379.2,375.9,379.3,376.4,379,377z"/>
<path class="st47" d="M385.8,416c1-2.3,3.8-1.5,5.2-3c5.6-0.3,11.4-0.9,14.1,5.8c-0.4,0.4-0.7,0.8-1.1,1.2c-1.5-0.3-1.9,1.6-3.2,1.6
	c-0.5,0-0.9-0.1-1.3-0.2c-2.8-1.8-5.7-2-8.8-0.7c-1.4,0.6-3,1.3-4.7,0.4C384.4,419.4,384.6,417.7,385.8,416z"/>
<path class="st48" d="M388.9,380.8c1.3,0.6,2.9,0,4,1.2c-0.6,0-1.3,0-1.9,0c-1.3-0.5-3.4,2.3-4-1
	C387.6,380.4,388.2,380.5,388.9,380.8z"/>
<path class="st49" d="M385.2,438.6c-0.4-6.5,1.3-9.2,7.3-11.3c2.5-0.9,5-1.7,7.5-2.5c0.7,0.1,1.3,0.5,1.7,1c0.7,1.2,0.7,2.2-0.6,2.9
	c-0.4,0.2-0.9,0.4-1.3,0.5c-1,0.2-1.9,0.4-2.8,0.9c-1.9,1-4.1,2-3.9,4.5c0.2,3,2.9,1.8,4.6,2.3c0.5,0.1,0.9,0.3,1.3,0.6
	c0.3,0.4,0.6,0.8,0.7,1.3c0.1,0.8-0.2,1.4-0.7,2c-1,0.1-2,0.2-3,0.4c-0.3,0.2-0.7,0.4-1.1,0.6c-1.4,0.4-2.9-0.1-4.2,0.6
	c-0.6,0.3-1.1,0.5-1.8,0.2C387.7,441.3,386.4,439.9,385.2,438.6z"/>
<path class="st5" d="M399,440.8c0-0.6,0-1.2,0-1.8c1.8-1.5,3.8-2,6-1c0,0,0,0,0,0c-0.3,1.4-0.7,2.7-1,4.1
	C402.3,441.6,400.7,441.2,399,440.8z"/>
<path class="st50" d="M401,428c1-0.7,0.1-1.3,0-2c-0.2-1.7-0.2-3.3,0-5c0.9-0.6,1.5-2.1,3-1c0.9,1.3,0.9,2.7,0,4
	c0.8,2.7,0.8,5.3,0,8c0,0.3,0,0.7,0,1c-0.9,1.2-1.5,3.4-3.7,1.4C399.3,432.1,399.3,429.9,401,428z"/>
<path class="st47" d="M401,434.9c1-0.7,1.9-1.3,2.9-2c0.3,1.7,0.7,3.3,1,5c-1.9,1.2-3.9,1-6,1c0-0.5-0.1-0.9-0.1-1.4
	c-0.1-0.7,0.1-1.3,0.5-1.8C399.8,435.3,400.3,434.9,401,434.9z"/>
<path class="st51" d="M404,431.9c0-2.7,0-5.3,0-8C405.5,426.6,405.5,429.3,404,431.9z"/>
<path class="st16" d="M186.7,358.9c-0.5,0-1.1,0-1.6,0.1c-2,0-4,0-6,0c2.6-1.8,5.5-0.6,8.2-0.8C187.3,358.6,187.1,358.9,186.7,358.9
	z"/>
<path class="st52" d="M264,364.9c-1.7,0.2-2.7-1.1-4-1.8C261,364.5,265,359.4,264,364.9z"/>
<path class="st16" d="M193.1,358.2c-0.7-0.1-1.3-0.2-2-0.3c2.6-1.8,5.4-0.6,8.2-0.8c-0.1,0.2-0.2,0.5-0.3,0.8
	C197,358,195,358.1,193.1,358.2z"/>
<path class="st53" d="M188.1,390.1c-0.3-0.3-0.7-0.7-1-1c1.7-0.3,3.4-0.6,5.1-0.9c0.4,0.2,0.7,0.5,0.9,0.9
	C191.7,390.5,189.8,389.8,188.1,390.1z"/>
<path class="st54" d="M193.1,389.1c-0.3-0.3-0.6-0.6-0.9-0.9c0.8-0.2,1.5-0.3,1.9-1.1l0,0c1,0,2,0,3,0.1c0.3,0.4,0.5,0.8,0.4,1.3
	c-0.5,1.1-1.3,1.2-2.4,0.7c-0.4,0-0.7,0-1.1,0.1C193.7,389.1,193.4,389.1,193.1,389.1z"/>
<path class="st55" d="M237.8,436.9c-0.8,3-3.9,3.3-5.8,4.9c-2.7,0.1-5.3,0.8-8,0c-2.5-1-3.6-0.4-3.6,2.5c-0.1,3.9,0.8,7.8-0.3,11.6
	c-1.3,0-2.7,0-4,0c-1.1-11.1-0.3-22.1-0.4-33.2c0-2.6-0.7-5.3,0.8-7.8c4.3-1.2,8.6-2.7,12.8,0.1c0.2,0.5,0.3,1,0.3,1.5
	c-1.9,3.2-5.8,0.2-7.9,2.7c-0.6,4.3-0.2,8.5,0.2,12.7c0.2,0.4,0.3,0.8,0.4,1.2c0.1,0.4,0.2,0.8,0.4,1.2c0.6,1.5,1.9,1.1,3.1,1.2
	c3.6-0.1,6.5-1.7,7.6-5.2c1.3-4.2,0-7.8-3.3-10.7c-1-1.3,0.3-2.8-0.3-4.1c0-0.5,0.3-0.9,0.7-1.2c0.7-0.3,1.4-0.4,2.2-0.4
	c2.9,0.6,5.4,1.8,7.4,4c3.2,5.4,3.8,11,0.8,16.7C240.2,436,237.3,434.1,237.8,436.9z"/>
<path class="st56" d="M217,415c-1.1,1.8-1,3.8-1,5.8c0,11.7,0,23.5,0,35.2c-0.3-0.5-0.9-1-0.9-1.6c0-13.8,0.1-27.5,0.2-41.3
	c2.2,0,4.5-0.1,6.7-0.1c1.8-0.8,3.7-1.7,5.7-0.6c0.5,0.3,0.7,0.8,0.6,1.4C224.7,415.5,220.7,413.5,217,415z"/>
<path class="st56" d="M220,455.9c-0.1-3.9-0.3-7.8-0.3-11.7c0-2.9,0.8-5.3,4.2-2.4c-2.5-0.3-2.9,1-3,3.2
	C220.7,448.6,222.3,452.5,220,455.9z"/>
<path class="st57" d="M323,347.1c-3.7,0-7.3,0.1-11,0.1c-0.7-0.1-1.3-0.1-2-0.2c2.8-1.9,6-0.6,9-1C320.4,346.2,322,345.7,323,347.1z
	"/>
<path class="st58" d="M307,392c-0.2-2.7-3.1-3.6-4-5.8c0.4-0.8,0.8-1.6,1.2-2.4c0.2,0,0.4,0,0.5,0.1c2.5,1.7,5,4.8,7.6,4.9
	c2.9,0,3.4-4.8,5.9-6.6c2.2-0.1,2.9,1.7,4,3c0.2,2.8-2.4,4.1-3.5,6.3c-1.3,1.5-2.4,3.2-3.1,5.1c-1.1,2-2.7,2.4-4.4,0.9
	C309.4,395.8,307.4,394.5,307,392z"/>
<path class="st59" d="M271.3,422c0.2-3.7,2.7-5.6,5.6-7.1c0.4-0.3,0.8-0.4,1.2-0.2c1.2,0.4,1.9,1.2,2.3,2.3c0.2,0.9-0.1,1.8-0.4,2.7
	c-0.7,1.6-1.5,3.2-2,4.9c-0.3,1.1,0.3,1.8,1.2,2.4c0.7,0.6,1.4,1.1,1,2.2c-2.8,1.1-1.2,2.7-0.4,4.2c0.5,1,1.3,1.7,2.2,2.3
	c2.9,1.4,5.8,1.5,8.7-0.2c0.8-0.5,1.7-0.9,2.6-0.8c2.7,1.4,1.3,3.5,0.9,5.5c0,0.3,0,0.5-0.1,0.8c-1.4,0.7-2.8,1.4-4.5,1.6
	c-0.4,0-0.9,0-1.3-0.1c-2.2-0.4-4.3,0.1-6.5-0.1c-0.2,0-0.4,0-0.6-0.1c-0.7-0.1-1.4-0.2-2-0.3c-1-0.6-2.6-0.3-3.1-1.8
	c-0.6-0.4-1.2-0.8-1.8-1.2c0.3-2.9-3.3-4.1-3-7C271.7,428.6,271.6,425.3,271.3,422z"/>
<path class="st60" d="M253.9,439.9c0,0.3,0,0.7,0,1c-1.2,1.1-2.6,1.2-4,0.3c-0.9-2.2-0.1-4.6-0.4-6.6c-0.1-0.9-1,0.2-0.4-0.2
	c0.2-0.1,0.3,0,0.3,0.4c0.2,1.4,0.3,2.9-0.1,4.3c-0.4,1.3-1.2,1.3-2,0.3c-1.4-8-0.6-16.1-0.5-24.2c0-1,0.6-1.9,1.4-2.6
	c2.2-1.2,4.4-1.5,6.2,0.8c0.2,0.8,0.2,1.6-0.7,2.1c-3.1,1.6-0.4,1.6,0.6,2.1c0.6,0.4,1.1,0.9,1.2,1.7c0,0.7-0.1,1.4-0.4,2.1
	c-0.1,1-0.2,2-1.1,2.7c-1.2,2.7-0.3,5.5-0.6,8.3C253.7,434.8,253.1,437.4,253.9,439.9z"/>
<path class="st61" d="M268.3,418c-0.2,0.2-0.4,0.5-0.4,0.8c-2.5,3.8-4.2-0.1-6.2-0.7c0-0.6,1.4-0.3,0.9-1.3
	c-0.7-0.4-0.6,0.8-1.1,0.6c-1.1,0-2.2,0-3.4,0c-0.9,0-1.3-0.4-1.6-1.2c-0.1-1.2,0.4-1.9,1.4-2.3c3.8-2.3,7.1,0.2,10.6,1.1
	C270.4,416.2,269.1,417.1,268.3,418z"/>
<path class="st62" d="M271.3,422c1.2,3.3,1.3,6.6-0.1,9.8c-0.8-2.9-0.5-5.9-0.4-8.9C271,422.6,271.1,422.3,271.3,422z"/>
<path class="st63" d="M253,431.9c0.1-2.6,0.1-5.2,0.2-7.8c0-0.1,0.2-0.2,0.4-0.2c0.2,0,0.3,0.1,0.5,0.2c-0.1,2.6-0.1,5.3-0.2,7.9
	C253.6,432.4,253.3,432.4,253,431.9z"/>
<path class="st64" d="M257,415.9c0.3,0.4,0.7,0.7,1,1.1c0.6,0.4,0.6,0.9,0.1,1.4c-1,1-2,2-3,3c-0.1-0.8-0.1-1.7-0.2-2.5
	c-0.9-1.3-0.4-2.2,0.7-3.1C256.1,415.6,256.6,415.6,257,415.9z"/>
<path class="st65" d="M253,431.9c0.3,0,0.6,0,0.8,0c0,2.6,0,5.3,0,7.9C252.2,437.4,253.4,434.6,253,431.9z"/>
<path class="st66" d="M258.2,418.3c0-0.5-0.1-0.9-0.1-1.4c1.3,0,2.7,0,4,0c0.3-0.5,0.7-0.5,1,0c0.7,1.5-0.8,0.7-1.2,1.1
	C260.6,418.2,259.4,418.3,258.2,418.3z"/>
<path class="st67" d="M293.3,434.1c0.9,0,1.7,0,2.6,0c0.2,0.2,0.4,0.3,0.6,0.5c1.1,2.3,0.5,4-1.6,5.4l-0.5,0c0,0-0.4,0.1-0.4,0.1
	c-1.7-1.5,0.5-3.6-0.8-5.1c-0.4-0.2-0.5-0.5-0.3-0.6C293.1,434.1,293.2,434.1,293.3,434.1z"/>
<path class="st68" d="M351.4,360.2c-4.6,2.8-10.2,3.9-14.1,8c-1.5-0.1-2.7-0.6-2.9-2.3c0-0.5,0.1-0.9,0.4-1.3c0.5-0.7,1-1.5,1.4-2.3
	l-0.2-0.4c0.3-0.3,0.6-0.5,1-0.6c0.7-0.3,1.3-0.8,1.8-1.4c0.6-0.8,1.3-1.5,2.1-2.2c0.9-0.9,2.2-0.9,3.4-1.4c0.3,0.1,0.7,0.2,1,0.3
	c0.8,1.1-0.3,3.2,1.9,3.7C348.5,360.1,349.9,360.1,351.4,360.2z"/>
<path class="st24" d="M371.7,350.9c5.2,0,10.3,0,15.5,0.1c0.6,0,1.2,0.1,1.8,0.1c-7,1.7-14,1.5-21,0.1
	C369.2,350.2,370.5,350.5,371.7,350.9z"/>
<path class="st24" d="M385,355c-1.9,0.1-3.8,0.1-5.7,0.2c-2.1,0.5-4.2,0.7-6.3-0.1C377,353.4,381,353.5,385,355z"/>
<path class="st25" d="M406,355.9c-2.6,0-5.1,0-7.7,0c-0.2-0.3-0.4-0.5-0.6-0.7C400.4,355.3,403.3,354.2,406,355.9z"/>
<path class="st25" d="M373,355c2.1,0,4.2,0.1,6.3,0.1c-2.3,1.1-4.8,0.8-7.3,0.8C372.3,355.6,372.7,355.3,373,355z"/>
<path class="st24" d="M371,356c-1.7,0.3-3.3,0.6-5,0.9C367.2,354,369,354.7,371,356z"/>
<path class="st69" d="M410,357.2c-0.1-0.3-0.2-0.7-0.3-1c1.9,0.2,4.3-1.3,5.4,1.7C413.4,357.2,411.8,356.4,410,357.2z"/>
<path class="st70" d="M334.5,347.7c0-0.1,0.3,0.4,0.6,1c-0.4,0.1-0.9,0.3-1.3,0.2c-0.4-0.1-0.9-0.5-1-0.9
	C332.7,347.3,333.3,347.4,334.5,347.7z"/>
<path class="st71" d="M344.1,356.1c-0.6,1.2-1.6,1.9-3,2c-1.6-0.2-2.4-1.3-2.6-2.8c0.1-1,0.5-1.8,1.4-2.2
	C341.4,354.1,342.7,355.1,344.1,356.1z"/>
<path class="st72" d="M340,353c0,0.8-0.2,1.5-0.9,2c-1.2,0.6-1.5-0.4-1.9-1.1l0,0c-0.7-0.4-1.6-0.7-1.2-1.8
	C337.3,352.1,339.1,350.7,340,353z"/>
<path class="st73" d="M307,456c-1.3-0.1-2.7-0.1-4-0.2c-0.7-0.8-0.4-1.7-0.2-2.6c0.7-8.4,1.1-16.9,0.2-25.4
	c-0.4-3.3,0.1-6.6,0.8-9.9c0.2-0.9,0.6-2,1.9-1.8c0.9,0.2,1.2,1.1,1.4,1.9c0.4,1.6,0.3,3.3,0.3,5c0,10.1,0.1,20.3-0.2,30.4
	C307.5,454.3,307.7,455.1,307,456z"/>
<path class="st74" d="M303.1,453.9c0,0.6,0,1.3-0.1,1.9c0,0-0.5,0.1-0.5,0.1s-0.5,0-0.5,0c0-13.9,0-27.8,0-41.7
	c0.6-0.5,1.1-0.4,1.5,0.2c0.5,0.8,0.4,1.8,0.4,2.7C302.8,429.3,305.3,441.7,303.1,453.9z"/>
<path class="st75" d="M308,441.9c0.1,2,0.1,4,0.2,6c-0.8,2.6,1,5.6-1.2,8c0-0.7,0-1.4,0-2C306.8,449.9,305,445.7,308,441.9z"/>
<path class="st76" d="M312,343.1c3,0,6,0,9,0c-1.1,1.4-2.6,0.9-4,1c-2.6,0-5.2,0-7.9,0C309.8,342.4,311.1,343.3,312,343.1z"/>
<path class="st77" d="M288.1,386c-3.1-1.6-6.1-3.3-9.2-4.9c1.9-0.1,3.1-1.3,4.1-2.8c3,1.2,5.8,2.7,8.4,4.6
	C290.8,384.5,290.4,386.2,288.1,386z"/>
<path class="st77" d="M279.1,376.9c0.2,0.8,0.7,1.8,0.4,2.2c-0.5,0.5-1.1-0.2-1.4-0.8C277.3,377.1,278.4,377.1,279.1,376.9
	C279.1,377,279.1,376.9,279.1,376.9z"/>
<path class="st78" d="M187.2,369.1c-1.6,1.1-3.4,0.9-5.2,0.9C183.5,368.4,185.5,369.2,187.2,369.1z"/>
<path class="st79" d="M255,381c3,0.4,6,0.8,8.9,1.2c-1.9,3.8-6.2,2.3-9.1,3.9c-1.4,0.3-2.8,0.3-4.1,0.3c-3.1-0.1-6.2,0.2-9.3-0.2
	c-2.7-1-5.4-0.9-8.1,0c-4.3,0.2-8.6,0.7-12.9-0.3c-2.5-0.6-5-0.7-7.5,0c-1,0.4-2.3-0.1-3,1.1c-0.9,0.6-1.8,0.6-2.8,0.5
	c-1-0.5-1.5-1.2-1.2-2.4c0.7-0.1,1.3-0.3,2-0.4c5.4-0.9,10.7-1.7,16.1-2.6c1.4-1.6,3.6,0.6,5.1-1c1.6,0,3.3,0,4.9-0.1
	C241.1,381,248,381,255,381z"/>
<path class="st80" d="M197.1,388.2c0-0.4,0-0.7,0-1.1c1.4-0.3,2.8-0.6,4.1-0.9c0.6,0.5,1.6,0.1,2.1,0.8c0.1,0.4,0,0.7-0.3,1l0,0
	C201.1,389.3,199.1,389.8,197.1,388.2z"/>
<path class="st81" d="M203.3,387.2c-0.7-0.3-1.4-0.6-2.1-1c1.6-0.4,3.2-0.7,4.9-1.1c0.3,0.6,0.6,1.1,1,1.7
	C205.9,388.3,204.6,387.8,203.3,387.2z"/>
<path class="st82" d="M385.3,375.9c0.6,0,1.1,0.1,1.7,0.1c-2.5,1.9-5.3,0.6-8,1c0-0.3,0-0.7,0-1
	C381.1,375.2,383.2,375.4,385.3,375.9z"/>
<path class="st41" d="M373.9,374.9c1,0,2,0,3.1,0c0.3,0,0.7,0,1,0c2.4,0.6,5-0.3,7.3,1c-2.1,0-4.2,0.1-6.3,0.1
	c-4.1,0-8.1-0.1-12.2-0.1C368.8,373.1,371.5,374.9,373.9,374.9z"/>
<path class="st83" d="M349.9,374c-0.6,0.4-1.3,0.7-1.9,1.1c-0.9,0.7-1.7,1.4-3,1.1c-0.3,0-0.7,0.1-1,0.1c-0.9,1.1-1.5,2.4-3.3,2.3
	c-2.1-0.4-4.2-0.8-5.9-2.3c-0.5-1.9,1.3-1.6,2.2-2.1c0.6-0.1,1.1-0.2,1.7-0.3l0,0c7.3-5.2,15.2-9.3,24.2-10.9c1-0.3,2-0.6,3-0.8
	c0.7-0.5,1.7-0.8,1.9,0.3c0.4,1.3-1.2,1.3-1.8,1.8c1.4-0.4,2.9-1.7,4.1,0.3c0,1.5-1.6,1.5-2.2,2.4c-4,1.4-8.4,1.7-12,4.2
	C354.5,373,352.2,373.5,349.9,374z"/>
<path class="st1" d="M370,365c-1.9-2.3-4,1-6.1-0.4c1.1-0.7,2.2-1.3,3.3-1.9c0,0-0.1-0.4-0.2-0.4c-0.3-0.1-0.6-0.2-0.9-0.3
	c0.8-1,2-0.6,3-1.1c1.7-0.9,3.7,0,5.4-0.7c6.9-1.1,13.7-1,20.5,0.8c0,0.6,0,1.3,0,1.9c-2.5,1.3-5.5-0.4-8,1c-1.1,0-2.2-0.1-3,0.9
	c-3.7,0.3-7.4,0.7-11.1,1C372.1,365.1,370.8,366,370,365z"/>
<path class="st84" d="M370,365c1.1,0,2.2-0.1,3,0.9c-1.7,0.3-3.3,0.6-5,1C368.1,365.6,368.8,365.1,370,365z"/>
<path class="st45" d="M395,361.1c-7.1-0.1-14.2-0.1-21.3-0.2c-0.1-0.4,0-0.6,0.4-0.7l-0.1,0c1.6-1.1,3.6-0.3,5.2-1.1
	c4.3-1.2,8.5,0.4,12.7,0.9c1.9,0.1,3.8,0.2,5.8,0.3c0.1,0.3,0.1,0.7,0.2,1C396.9,362.6,396,361.3,395,361.1z"/>
<path class="st85" d="M387,364c2.5-2,5.3-0.6,8-1C392.5,365,389.7,363.6,387,364z"/>
<path class="st86" d="M371.1,417c-0.1-0.8-0.3-1.8,0.9-2c2.1-0.1,3.9-1.4,6.1-1.1c1.7-0.1,3.2,0.3,4,2c-1.3,2.9-3.7,2.9-6.3,2.2
	c-0.8,0-1.7,0.1-2.5,0.1C372.2,418.6,371.5,418,371.1,417z"/>
<path class="st87" d="M382.9,416c-0.6,1.3-1.1,2.6-1.7,4c-2.6,1.6-3.5-1.5-5.4-1.9c2.1-0.7,4.2-1.4,6.3-2.2
	C382.4,415.9,382.7,415.9,382.9,416z"/>
<path class="st87" d="M378.2,413.9c-2,0.6-3.5,3.7-6.1,1.1c0.7-0.7,1.4-1.3,2.1-2C375.5,413.1,377.1,412.1,378.2,413.9z"/>
<path class="st41" d="M383.3,380.9c-0.2-0.3-0.4-0.5-0.6-0.7c2.1,0.1,4.3-0.7,6.2,0.7c-0.6,0.1-1.3,0.2-1.9,0.3
	C385.8,381,384.5,380.9,383.3,380.9z"/>
<path class="st88" d="M334,388c1.1-0.5,1.5-2,3-2c-0.2,2.3,1,3.2,3.2,3.1c-0.4,1-1.2,1-2,1c-1.3,0.7-2.6,1.2-4.1,0.3
	C333.4,389.6,333.4,388.8,334,388z"/>
<path class="st89" d="M361.2,379.4c-1.1,0.8-2.1,1.4-3.5,1C358.5,378.9,359.7,378.8,361.2,379.4z"/>
<path class="st90" d="M401,421c1.1,1.7,1.1,3.3,0,5c-0.4-0.4-0.7-0.8-1.1-1.2c0.1-1.3,0.1-2.6,0.2-3.9C400.4,421,400.7,421,401,421z
	"/>
<path class="st91" d="M371.1,417c0.7,0.4,1.5,0.7,2.2,1.1c-2.4,1.2-4.1,3-4.3,5.9c-0.4,0.3-0.6,0.7-0.8,1.1c-1,1.9,1.7,5.2-2.3,5.9
	c-1.9-1.9-0.6-5-2.7-6.8c-0.3-0.7-0.6-1.5-0.7-2.3c0.5-3-1.1-6.1,0.9-8.9c1.4,0,2.8,0,4.2,0c0.4,0.1,0.6,0.4,0.6,0.8
	c-0.3,1.2-0.6,2.3,0.4,3.3c0.8,0.2,1.6,0.4,2.2-0.4L371.1,417z"/>
<path class="st92" d="M400.2,435.9c-0.1-2.6-0.2-5.3-0.3-7.9c0.4,0,0.8,0,1.2,0c0,2.3,0,4.6,0,7
	C400.7,435.3,400.5,435.6,400.2,435.9z"/>
<path class="st93" d="M395.1,441c-1.4,1.9-3.3,1.2-5.1,0.8C391.6,440.4,393.4,441.1,395.1,441z"/>
<path class="st94" d="M213.1,385.9c2.3-1.7,4.8-0.7,7.3-0.8c0.1,0.4,0,0.6-0.4,0.8c0,0,0,0,0,0C217.6,385.9,215.3,385.9,213.1,385.9
	z"/>
<path class="st95" d="M239.1,435c0,0.3-0.1,0.6-0.1,0.8c-0.4,0.4-0.8,0.7-1.2,1.1c-1.1-0.2-1.9-0.7-1.1-1.9
	C237.4,434,238.3,433.9,239.1,435z"/>
<path class="st56" d="M230.1,418.8c-9-0.4-9-0.4-9,8.6c0,1.8-0.1,3.6-0.2,5.5c-1.5-4.9-0.9-9.9-0.8-14.9c2.9-1.5,6.1,0.5,9-1l0,0
	c0.4-0.3,0.4-1,1-1C231.5,416.9,230.4,417.9,230.1,418.8z"/>
<path class="st96" d="M230,416c-0.3,0.3-0.7,0.7-1,1c-0.6-2.9-3-1.9-4.7-2c-2.4-0.1-4.8,0-7.3,0c3.6-2.2,7.5-0.2,11.2-1.1
	c1-0.5,1.7-0.4,1.8,0.9C230.1,415.2,230.1,415.6,230,416z"/>
<path class="st97" d="M229,417c-2.8,1.9-6,0.5-9,1C222.8,415.2,226.1,417.9,229,417z"/>
<path class="st98" d="M238.6,420.5c-0.8,0.9-1,1.2-1.2,1.5c-0.3-0.5-0.7-1-0.9-1.6c-0.1-0.2,0.3-0.7,0.4-0.7
	C237.4,419.9,237.9,420.2,238.6,420.5z"/>
<path class="st99" d="M321.9,385.1c-2.1,0-2.6-1.9-3.8-3c0.9-1.7,1.8-3.4,2.7-5c1.2-2.2,3.3-3.5,5.1-5.1c1.8,1.8,4.2-1.4,6,0.8
	c0.8,1.4-0.3,2-1,2.8c-1.1,1-2.2,2-3.3,3.1c-1,1-2.1,2-3,3.1c-0.9,0.9-1.3,2.1-2.2,3.1C322.3,384.9,322.1,385,321.9,385.1z"/>
<path class="st100" d="M331.9,373c-1.3,0.1-2.7-0.1-3.9,0.3c-0.8,0.2-0.1,2.8-2,1.8c-1.2-0.7,0.3-2.1,0-3.2c1.6-1.7,3.2-3.3,4.8-5
	c1.8,0.2,2.3-2.3,4.2-1.9c-0.1,1.6,1.5,2.1,2.2,3.1c0,0-0.1,0-0.1,0c-1.8,1-3.5,2-4.3,4C332.6,372.6,332.3,372.8,331.9,373z"/>
<path class="st68" d="M335,365c-1.1,1.3-1.6,3.9-4.2,1.9c0.8-1.3,1.9-2.3,3.3-2.9C334.9,363.8,335.3,364.1,335,365L335,365z"/>
<path class="st101" d="M335,365c-0.3-0.3-0.6-0.6-1-1c0.4-0.9,1.1-1.5,2.1-1.8C336.9,363.6,336.4,364.5,335,365z"/>
<path class="st83" d="M328.9,386.8c-5.3,5.4-10.6,10.8-15.8,16.3c-0.7,0.7-1.2,0.9-2.1,0.8c-1.5-0.7-2.9-1.7-4.4-2.4
	c-1.1-1-2.3-2-3.3-3c-1.1-1.7-2.6-2.7-4.6-3.2c-0.6-0.2-1.2-0.6-1.6-1.2c-0.1-0.7-0.2-1.3-0.3-2c0.4-1.8,1.9-2.7,3-3.9
	c2.6,0.8,4,3.6,7,3.8c1.6,1.4,3.3,2.6,4.6,4.2c1.4,1.6,2.4,1,3.4-0.2c1.1-1.6,1.9-3.3,3-5c0.1-2.8,3.1-3.7,3.9-5.9
	c0,0,0.2-0.1,0.2-0.1c0.8-0.9,1.7-1.7,3.1-1.5C326.5,384.5,327.6,385.8,328.9,386.8z"/>
<path class="st102" d="M300,388.1c0.3,2.3-1.3,3.1-3,3.9c-0.6-0.4-1.3-0.8-1.9-1.2c1.2-2.3-1.2-2.8-2.2-4.6c0-0.2-0.2,0.9,0.4,0.6
	c0.2-0.1,0.2,0.1,0.2,0.4c0.1,0.7,0,1.2-0.5,1.7c-2.2-0.2-3.3-2-4.9-3.1c1.2-0.9,1.6-2.7,3.2-3.1C294.8,383.7,296.9,386.7,300,388.1
	z"/>
<path class="st103" d="M318,391c0.2,2.4-1,3.9-3,5C314.8,393.6,316,392,318,391z"/>
<path class="st104" d="M305,407c-6.4-5.6-14-9.3-21.9-12.3c-6.5-1.8-11.9-6.5-18.9-6.8c-2.5-1.4-5.5-1.2-8.1-2
	c-0.4-0.2-0.8-0.5-1-0.9c2.6-2.1,6.1-1.2,8.9-2.8c0.9,0,1.8,0,2.7,0c10.1,3.7,20.6,6.7,29.9,12.4c0.1,0.1,0.5-0.4,0.7-0.5
	c0.5,0,1.1,0,1.6,0c1.7,1.5,3.8,2.5,5.4,4.1c1.2,0.8,2.8,1.2,2.8,3.1c1.9,0.6,2.9,2.1,4,3.6l-0.1,0.4c1.3,3.8,0.8,4.4-2.9,3.8
	C307,408.3,306,407.6,305,407z"/>
<path class="st105" d="M281,412.8c5.8-0.5,10.8,0.8,14,6.2c1.4,1,1.6,2.4,1.5,3.9c-1.3,1.5-0.1,4.1-2.2,5.4c-0.7,0.3-1.4,0.3-2.2,0
	c-1.1-0.7-1.4-1.9-1.9-3c-1.1-1.9-1-4.5-3.5-5.4c-1.9-1-3.8-0.5-5.7-0.2c-0.7,0-1.3-0.1-1.9-0.6c0.3-0.7,0.7-1.4,1-2.1
	c0-1.3-1.3-1.3-2-2c-0.4,0-0.8,0-1.1-0.1C278,413.6,279.6,413.4,281,412.8z"/>
<path class="st106" d="M277.1,424.9c4.5-0.1,9-0.1,13.6-0.2c1.3,0.8,1.3,2.1,1.3,3.4c-0.4,0.2-0.8,0.3-1.2,0.1
	c-0.4-0.2-0.8-0.4-1.2-0.6c-3.5-0.6-7-0.1-10.5-0.5c-0.4,0.2-0.8,0.4-1.1,0.7C277,427,276,426.3,277.1,424.9z"/>
<path class="st107" d="M291,427c0,0.4,0,0.8,0,1.1c-1.7,0.8-3.6-0.1-5.3,0.8c-1.9-0.1-3.9-0.2-5.8-0.2c-0.6-0.3-1.3-0.5-1.9-0.8
	c0-0.3,0-0.6,0-0.8C282.4,426.2,286.7,426.2,291,427z"/>
<path class="st108" d="M282,435.9c0.2,0.2,0.4,0.2,0.6,0.1c2.4,0.4,4.7,0.8,7-0.2c0.5-0.2,0.9-0.2,1.3,0.2c-2.9,2.7-7,2.7-10,0
	C281.3,435.7,281.6,435.6,282,435.9z"/>
<path class="st109" d="M273,430.6c0-1.4,0-2.9,0-4.3c0-0.4,0.3-0.8,0.5-1.6C274.3,426.9,274.1,428.8,273,430.6z"/>
<path class="st110" d="M288,441.8c-2.3,0.5-4.7,0.5-7,0C283.3,440.5,285.7,440.4,288,441.8z"/>
<path class="st111" d="M278,415c1.1,0,2.5-0.3,3.1,0.9c0.4,0.9-0.5,0.9-1.1,1C279.4,416.3,278.7,415.6,278,415z"/>
<path class="st112" d="M253.9,415c0,1,0,2,0,3c-2.3,1-3.6-0.5-3.4-2.3C250.8,413.2,252.8,415.8,253.9,415z"/>
<path class="st113" d="M248,440.9c0.1-0.3,0.1-0.7,0.2-1c1.7-2,0.2-4.5,1.8-6.6c0,2.6,0,5.1,0,7.7
	C249.4,440.9,248.7,440.9,248,440.9z"/>
<path class="st114" d="M263,416.9c-0.3,0-0.7,0-1,0c0.2-0.8-0.5-2.1,1.1-2.3c0.3,0,0.7,0.1,0.9,0.4
	C264.7,416.2,263.1,416.2,263,416.9z"/>
<path class="st115" d="M295,429c-0.3-0.3-0.7-0.6-1-0.9c0.6-1.7,1.2-3.4,1.8-5.1c0.1,0.6,0.2,1.3,0.4,1.9c0.2,1.3,0.8,2.7-0.3,3.9
	C295.6,429.3,295.3,429.3,295,429z"/>
<path class="st68" d="M334,371.1c-0.7,0.3-1.3,0.7-2,1c0.7-2.7,2.6-3.6,5.1-4C336.1,369.1,335,370.1,334,371.1z"/>
<path class="st101" d="M336.7,361.9c0.8-0.6,1.6-1.2,2.3-1.8C340.2,363.3,338.5,362.6,336.7,361.9z"/>
<path class="st116" d="M357.2,438.9c-0.1,0.5-0.2,1.1-0.3,1.6c-2.6,2.9-5.6,2.7-8.9,1.4c-0.3-0.3-0.6-0.7-1-1
	c-0.4-1.4-0.9-2.9-1.2-4.3c-0.2-0.9-0.2-1.7-0.2-2.6c0-0.9,0-1.7-0.1-2.6c-1.8-2.3-3.5,0.7-5.3,0.1c-1-0.1-1.8-0.5-2.4-1.3
	c-0.5-1.2,0.6-1.6,1.1-2.3c1.3-0.6,2.6-1.3,3.9-1.7c3.4-1,4.7-2.9,3.1-6.3c-1.7-3.2-5.2-1-7.4-2.5c-0.8-0.8-1.4-1.6-0.8-2.8
	c4.4-2.8,8.6-1.6,12.8,0.6c1.1,2.2,2.6,4.2,2.5,6.8c0.4,0.7,0.3,1.4,0.2,2.1c-0.5,2.8-0.4,5.6-0.1,8.4c0.2,1.2,0.7,2.4,1.4,3.4
	c0.4,0.4,0.9,0.7,1.4,1c0.4,0.4,0.8,0.7,1.2,1.1C357.2,438.3,357.2,438.6,357.2,438.9z"/>
<path class="st117" d="M308,441.9c-2,3.9-0.5,8-1,12c-1.6-1.5-1-3.4-1-5.2c-0.1-10.6,0-21.1-0.3-31.7c-1.1,4.8-1.7,9.4-1,14.4
	c1,7.4,1.1,15.1-1.6,22.4c0-12.7,0-25.3,0-38c0.9-2.1,2.8-2,4.7-1.9c0.5,0.1,1,0.3,1.4,0.6c0.7,0.8,0.8,1.8,0.7,2.9
	c-0.1,0.7-0.4,1.4-0.6,2.1c-0.1,0.5-0.3,0.9-0.5,1.4c-0.6,4-0.5,8,0,12c0.4,1.2,0.7,2.5,1.9,3.1c1.9,0.7,3.8,0.8,5.6-0.3
	c1.2-0.7,2.5-1.3,4-1.2c1.6,0.7,3.3,1.3,2.8,3.6c-1.4,1.8-2.8,3.4-5.1,3.9c0,0,0-0.4,0-0.4c-2.1-0.4-4.2-0.1-6.3-0.2
	C310.5,442.2,308.9,439.7,308,441.9L308,441.9z"/>
<path class="st118" d="M309,417.9c0-1,0-2,0-3c0.2-1,1.2-1.2,1.7-2c-0.1-1.8-2.2-2.3-2.6-3.9c3,0.3,3.1-1.6,2.9-3.8
	c1.8,1.2,3.3-0.2,5-0.3c1,0.4,1.1,1.3,1.2,2.2c-0.1,0.7,0.1,1.5-0.3,1.9c-3,4.2-3,4.2,1.2,5.9c-0.2,0.2-0.5,0.5-0.7,0.6
	c0.3-0.2,0.5-0.4,0.7-0.7c3.1,0,5.4,1.4,7,4c-0.2,2,0.2,4.2-1.9,5.7c-0.5,0.1-0.9,0-1.3-0.1c-1-0.7-1.6-1.6-1.3-2.9
	c0.3-0.3,0.4-0.7,0.9-0.8c-0.4,0-0.5,0.5-0.9,0.6c-1.7,0.2-3.1-0.7-4.6-1.3C313.8,418.7,310.8,420.3,309,417.9z"/>
<path class="st119" d="M317.2,407.1c-0.9-0.5-1.2-1.3-1.2-2.2c4.3-7.5,10.7-12.6,18.1-16.8c0,0.7,0,1.3,0,2c0.5,1.5-0.9,2.5-1.1,3.8
	C327.7,398.2,322.4,402.6,317.2,407.1z"/>
<path class="st120" d="M323,424c1.2-1.5,0.3-3.8,2.1-5.1c0.9,0.3,1.2,0.9,1.1,1.8c2.3,4.3,1.4,8.9,0.9,13.4c-1,1.6-2.3,3.1-3.9,4.1
	c-1-1.1-2.1-2.1-3.1-3.2c-0.1-0.2-0.2-0.4-0.3-0.6c-0.1-1.7,1-3,1.5-4.5C322,427.9,321.2,425.5,323,424z"/>
<path class="st121" d="M338,429.9c0.7,0.2,1.3,0.5,2,0.7c0.1,1.4-0.7,2.5-1.1,3.7c-0.5,1.4-0.2,2.5,1.4,2.8c2.2,0.4,4.3-1.2,6.5-0.5
	c0.5,1.4,1.9,2.8,0.2,4.3c-0.4,0.1-0.7,0.1-1.1,0.2c-3.5,1.7-7.1,3.1-10.7,0.1c-1.2-2.6-0.9-5.4-0.8-8.2
	C334.6,430.9,335.1,429,338,429.9z"/>
<path class="st58" d="M338,429.9c-1.8,0.2-2.5,0.8-2.3,2.9c0.3,2.7,0.2,5.6,0.2,8.3c-3.5-0.7-4-3.3-3.9-6.2c1-3.6,2.9-6.3,6.9-7.1
	C338.6,428.5,338.3,429.2,338,429.9z"/>
<path class="st52" d="M337.8,414.6c0.4,0.8,0.8,1.6,1.2,2.4c0,0.7,1.3,0.7,0.9,1.6c-2.2,1-4.4,2-6.6,3c-1.1-2.7,0-4.7,1.7-6.6
	C336,414.9,336.9,414.7,337.8,414.6z"/>
<path class="st114" d="M333,393.8c-3.2-2.2,0.6-2.6,1.1-3.8c1.4,0,2.8,0,4.1,0.1c-0.4,0.6-0.8,1.3-1.2,1.9
	C335.7,392.6,334.3,393.2,333,393.8z"/>
<path class="st122" d="M339.9,418.6c-0.1-0.6-1.8-0.4-0.9-1.6c2.4,0.9,6.4-2.2,7,2.9C344.3,418.1,341.9,419.5,339.9,418.6z"/>
<path class="st123" d="M327,434c-0.2-4.5,0.3-9-0.9-13.4C329.6,424.9,328.4,429.5,327,434z"/>
<path class="st73" d="M303,414.1c1.9-0.4,3.8-0.9,5.4,0.8c-1.8,0.1-3.7,0.1-5.3,1C303.1,415.3,303,414.7,303,414.1z"/>
<path class="st74" d="M308,441.9c0-0.9-0.5-2.3-0.1-2.6c1.8-1.3,1.3,2.2,3,1.6c0.4,0.2,0.5,0.4,0.4,0.6c-0.1,0.2-0.2,0.3-0.3,0.3
	c-0.3,0.1-0.7,0.2-1,0.2C309.3,442,308.7,442,308,441.9z"/>
<path class="st124" d="M311,441.8c0-0.3,0-0.6,0-0.9c2.3,0.3,4.8-0.6,7,0.7C315.7,442.3,313.4,442.4,311,441.8z"/>
<path class="st125" d="M255,381c-7,1.6-14,1.5-21,0c0.6-0.1,1.2-0.1,1.8-0.2c6.1-0.6,12.2-0.6,18.3,0
	C254.5,380.8,254.8,380.9,255,381z"/>
<path class="st119" d="M293,389.1c0.1-1.6-1.2-2.6-1.9-4.1c6,2.9,6.7,3.9,4,5.9C294,390.7,293.4,390,293,389.1z"/>
<path class="st126" d="M251.2,385.9c-0.1-0.3-0.2-0.5-0.4-0.8c1.4,0,2.8-0.1,4.2-0.1c0.3,0.3,0.7,0.6,1,0.9
	C254.4,385.9,252.8,385.9,251.2,385.9z"/>
<path class="st127" d="M332,377.1c1.1-0.2,2.4,0.4,3.1-1.1c2.2,0.2,4.3,0.5,6,2.2c-4.1,2.9-8.1,5.7-12.2,8.5c-1.7-0.3-3.2-1-3.9-2.8
	c-0.4-0.3-0.5-0.7-0.4-1.1c0.5-1.2,1.7-1.9,2.5-2.9C328.5,378.5,329.7,376.9,332,377.1z"/>
<path class="st127" d="M338.8,373.8c0.9,0.3,2.1-0.1,2.6,1c0.3,0.6-0.2,0.9-0.8,0.9C339.3,375.8,339.1,374.7,338.8,373.8
	c0,0,0.1,0.2,0.1,0.2L338.8,373.8z"/>
<path class="st128" d="M368,439.9c0,0.3,0,0.7-0.1,1c-1.1,0.7-2.3,0.7-3.4-0.1c-1.9-5.6-1-11.3-0.5-16.9c3.7,1.5,1.3,4.7,2,7
	C368.8,433.5,366.5,437.1,368,439.9z"/>
<path class="st129" d="M364,424c0.4,5.6-1,11.4,1,17c-0.6,0.6-1.3,0.6-1.9,0c0-6-0.1-12-0.1-18C363.3,423.3,363.7,423.6,364,424z"/>
<path class="st130" d="M368,439.9c-1.9-2.7-0.5-6.2-2-9c2.3-1.8-0.6-5.4,2.5-6.9C368.3,429.3,368.1,434.6,368,439.9z"/>
<path class="st131" d="M367.7,414c0.2,1.6,0.4,3.3,0.5,4.9C366.6,417.4,366,415.8,367.7,414z"/>
<path class="st132" d="M363.1,440.9c0.6,0,1.3,0,1.9,0c1,0,2,0,3,0c0.1,0.3,0.1,0.6,0,0.9c-1.6,0-3.2,0-4.9,0
	C363,441.6,363,441.2,363.1,440.9z"/>
<path class="st105" d="M291,427c-4.3,0-8.7,0-13,0C282.4,425.3,286.7,425.3,291,427z"/>
<path class="st133" d="M352.8,424c0,3,0,5.9,0,8.9C351.5,429.9,351.5,427,352.8,424z"/>
<path class="st134" d="M308.2,423.9c-0.1,3.3-0.2,6.6-0.3,10c-1.3-4.6-1.3-9.3,0-13.9C309,421.2,308.5,422.6,308.2,423.9z"/>
<path class="st135" d="M314,418.9c-1.7,0-3.3,0-5,0c-0.3,0.6-0.6,0.7-1,0.1c0.3-0.4,0.7-0.8,1-1.1c2.6,0.5,5.5-0.8,8,1
	C316,419.8,315,419.8,314,418.9z"/>
<path class="st74" d="M316,436.8c0.3,0,0.7,0,1,0c-2.3,1.8-4.6,1.7-7,0.1c0,0,0-0.4,0-0.4c1.6-0.1,3-1.2,4.6-0.5
	C315.1,436.2,315.6,436.5,316,436.8z"/>
<path class="st123" d="M322.1,430.9c0-2.3,0-4.6,0-7c0.3,0,0.6,0,0.9,0C322.7,426.3,323.8,428.8,322.1,430.9z"/>
<path class="st120" d="M320.8,421.2c0.5-1-1-2.2,0.5-3c0.3-0.1,1.1,0.2,1.2,0.5C323,420.1,321.7,420.5,320.8,421.2
	C320.8,421.2,320.8,421.2,320.8,421.2z"/>
<path class="st120" d="M318.1,414.9c-0.2,1-0.4,2-1.7,1.9c-0.5,0-1-0.4-0.8-0.9C316.1,414.7,317.2,415.1,318.1,414.9
	C318.1,414.9,318.1,414.9,318.1,414.9z"/>
<path class="st58" d="M337.9,434c0.6,1.3,1.2,2.7,1.9,4C336.8,437.8,336.5,436.3,337.9,434z"/>
</svg>
