<svg xmlns="http://www.w3.org/2000/svg" viewBox="0 0 312.25 113.97"><defs><style>.cls-1{fill:#45648c;}.cls-2{fill:#486a99;}.cls-3{fill:#5e80ac;}.cls-4{fill:#3f6496;}.cls-5{fill:#3d6088;}.cls-6{fill:#496c9a;}.cls-7{fill:#406aa1;}.cls-8{fill:#4a6090;}.cls-9{fill:#3e5f89;}.cls-10{fill:#70809d;}.cls-11{fill:#7a8a9a;}.cls-12{fill:#97a0a7;}.cls-13{fill:#b2b9be;}.cls-14{fill:#42638d;}.cls-15{fill:#45668f;}.cls-16{fill:#325681;}.cls-17{fill:#48668d;}.cls-18{fill:#466590;}.cls-19{fill:#d3c34b;}.cls-20{fill:#a2b2c7;}.cls-21{fill:#466a97;}.cls-22{fill:#dac33f;}.cls-23{fill:#dac83f;}.cls-24{fill:#496a96;}.cls-25{fill:#3e6491;}.cls-26{fill:#4c6f9b;}.cls-27{fill:#38629e;}.cls-28{fill:#4b6790;}.cls-29{fill:#3c5f8d;}.cls-30{fill:#5d7da1;}.cls-31{fill:#a2b4ca;}.cls-32{fill:#728db3;}.cls-33{fill:#adb7c1;}.cls-34{fill:#d3c340;}.cls-35{fill:#d8c341;}.cls-36{fill:#cec438;}.cls-37{fill:#d5c74a;}.cls-38{fill:#667c99;}.cls-39{fill:#7e8ba5;}.cls-40{fill:#a8b0b8;}.cls-41{fill:#41628f;}.cls-42{fill:#476a9a;}.cls-43{fill:#4c709f;}.cls-44{fill:#e8e8e9;}.cls-45{fill:#486b9a;}.cls-46{fill:#4b6f9e;}.cls-47{fill:#466a96;}.cls-48{fill:#466c9b;}.cls-49{fill:#e3e3e3;}.cls-50{fill:#496b9a;}.cls-51{fill:#436a9b;}.cls-52{fill:#426995;}.cls-53{fill:#466793;}.cls-54{fill:#a1adb6;}.cls-55{fill:#7b8a9c;}.cls-56{fill:#40628e;}.cls-57{fill:#41638e;}.cls-58{fill:#d6c74e;}.cls-59{fill:#476893;}.cls-60{fill:#416493;}.cls-61{fill:#436390;}.cls-62{fill:#476890;}.cls-63{fill:#3e598a;}.cls-64{fill:#355684;}.cls-65{fill:#3e5e83;}.cls-66{fill:#2e5889;}.cls-67{fill:#3d5b83;}.cls-68{fill:#426795;}.cls-69{fill:#456693;}.cls-70{fill:#4b6e9d;}.cls-71{fill:#dec449;}.cls-72{fill:#d4c83c;}.cls-73{fill:#d6c948;}.cls-74{fill:#3f5f89;}.cls-75{fill:#4b6c97;}.cls-76{fill:#335687;}.cls-77{fill:#dcc239;}.cls-78{fill:#456793;}.cls-79{fill:#45648d;}.cls-80{fill:#44638f;}.cls-81{fill:#677d9c;}.cls-82{fill:#3f5e84;}.cls-83{fill:#3c6594;}.cls-84{fill:#456794;}.cls-85{fill:#41648f;}.cls-86{fill:#3e699e;}.cls-87{fill:#40638d;}.cls-88{fill:#4e6e9d;}.cls-89{fill:#42679f;}.cls-90{fill:#496899;}.cls-91{fill:#4f709b;}.cls-92{fill:#46699a;}.cls-93{fill:#4e709e;}.cls-94{fill:#46648b;}.cls-95{fill:#4b688f;}.cls-96{fill:#3e6595;}.cls-97{fill:#395a8a;}.cls-98{fill:#3c5883;}.cls-99{fill:#406899;}.cls-100{fill:#446692;}.cls-101{fill:#436798;}.cls-102{fill:#496a97;}.cls-103{fill:#466791;}.cls-104{fill:#476188;}.cls-105{fill:#436492;}.cls-106{fill:#446693;}.cls-107{fill:#3b5d87;}.cls-108{fill:#385b8c;}.cls-109{fill:#44628b;}.cls-110{fill:#3e6588;}.cls-111{fill:#415d87;}.cls-112{fill:#3e6499;}.cls-113{fill:#3a6490;}.cls-114{fill:#406488;}.cls-115{fill:#486994;}.cls-116{fill:#3f5d81;}.cls-117{fill:#446896;}.cls-118{fill:#40699a;}.cls-119{fill:#456790;}.cls-120{fill:#476793;}.cls-121{fill:#3e6999;}.cls-122{fill:#416898;}.cls-123{fill:#436290;}.cls-124{fill:#4a6c97;}.cls-125{fill:#466387;}.cls-126{fill:#3d5c89;}.cls-127{fill:#647fa0;}.cls-128{fill:#456897;}.cls-129{fill:#466798;}.cls-130{fill:#3c638f;}.cls-131{fill:#416092;}.cls-132{fill:#415c83;}.cls-133{fill:#476c99;}.cls-134{fill:#486296;}.cls-135{fill:#345689;}.cls-136{fill:#4f6f97;}</style></defs><g id="Capa_2" data-name="Capa 2"><g id="Capa_1-2" data-name="Capa 1"><path class="cls-1" d="M31.47,30.12a2.54,2.54,0,0,0-.27.69,27,27,0,0,0-9.17,2c-1.15.41-1.84-.13-2.31-1.13a2.35,2.35,0,0,1,.51-2.08,5.38,5.38,0,0,1,2-1,11.6,11.6,0,0,1,5.23-.48C28.89,28.63,30.53,28.66,31.47,30.12Z"/><path class="cls-2" d="M282.24,26.22l-2.13-.15c-.66-.8-1.72-.45-2.52-.86-1.84-.35-3.67-1.19-5.55-.13a6.65,6.65,0,0,1-3,0c-2.24-.84-4.58-.49-6.88-.57-1.54,0-3.11.08-4.51-.77-1.09-.93-.6-1.75.35-2.26a41.46,41.46,0,0,0,3.77-2.18,11.66,11.66,0,0,1,6.62-.26,8.19,8.19,0,0,0,5.25,1c1.71.08,3.33.81,5.07.72,3.33.58,6.78.84,9.51,3.19,2.62,1.82,6.59.11,8.67,3.33a1.85,1.85,0,0,1-1.6,1.51c-1.49.75-2.69-.06-3.92-.73C288.32,27.41,285.1,27.71,282.24,26.22Z"/><path class="cls-3" d="M310.14,32l-1.95.2a7.72,7.72,0,0,0-5-1.12c-.64-1.41-2.43-.79-3.27-1.84.39-1.07,1.56-.45,2.19-1l6.09,1.66Z"/><path class="cls-4" d="M302.11,28.22l-2.19,1-4.64-.53,1.6-1.51C298.79,26.66,300.34,28,302.11,28.22Z"/><path class="cls-5" d="M281.46,44c-.09.33-.18.66-.26,1L277.34,45c-.63-.73-2.15,0-2.35-1.44.89-1.44,2-1.15,3.24-.5l2-.16Z"/><path class="cls-6" d="M265.29,76.8l1,2.17q0,8.46,0,16.92a1.25,1.25,0,0,1-1.18.29,3.24,3.24,0,0,1-.86-1,9.92,9.92,0,0,1-1-4.44,7.15,7.15,0,0,1,.19-1.3,17,17,0,0,0,.15-7,16.63,16.63,0,0,1,.22-4.51A2,2,0,0,1,265.29,76.8Z"/><path class="cls-7" d="M265.21,96l1.12-.06c1.22.27,2.93-.65,3.61.73.6,1.23-.81,1.93-1.73,2.6-1.54-.78-2.47,1.52-4,.79C263,98.29,263.67,97,265.21,96Z"/><path class="cls-8" d="M27.17,17.09c-1.28,3.76-4.26,2.14-6.74,2.13-1,.38-1.26-.09-1.05-1C22,18,24.45,16.64,27.17,17.09Z"/><path class="cls-9" d="M35.54,17.19c-2.45.88-4.89,1.51-7.29-.14l2-1.09,1-.12a2.51,2.51,0,0,1,2-.21C33.86,16.44,35,16.43,35.54,17.19Z"/><path class="cls-10" d="M19.38,18.21l1.05,1c-1.86,1.31-4,.78-6,.92-1.06.57-1.13-.05-1-.87Z"/><path class="cls-11" d="M13.37,19.26l1,.87c-1.88,1.38-4,.88-6.1.84-.23-.19-.3-.36-.2-.51s.19-.21.28-.21Z"/><path class="cls-12" d="M8.37,20.25c0,.24,0,.48-.08.72l-1,1.12a4.92,4.92,0,0,1-4.19,1.05,1.46,1.46,0,0,1,.26-2A7.5,7.5,0,0,0,4.31,21c.9-.61,2-.53,3-.86Z"/><path class="cls-13" d="M3.38,21.14l0,1.64c-.59,1-1.33.82-2.12.29-3.13-.66.43-1.34,0-2Z"/><path class="cls-14" d="M39.3,17h-1a1.64,1.64,0,0,1-.1-2.12c1-.63,2-.18,3-.28,1.7-.21,3.48.47,5.11-.46l2.64-.17c1.7-.81,3.65.12,5.34-.75l4.61-.27c4.09-1,8.32.38,12.39-.78a94.65,94.65,0,0,1,15.06,0c3.34,1.1,6.88-.29,10.22.8l7.69.26,17,4.59c4.53,1.23,9.15,2.24,13.09,5,1.06,2-.15,2.89-1.77,3.58-3.21.29-5.75-1.4-8.35-2.89-.16-1.82-.16-1.82-4.25-1.16a26.66,26.66,0,0,1-7.68-1.82c-.88-.29-1.69-.75-2.59-1-1.57-.23-3.17-.15-4.75-.43a9.06,9.06,0,0,1-1.35-.3c-1.8-.64-3.68-.31-5.53-.48A12.51,12.51,0,0,1,95.88,18c-2.73-1-5.63-.25-8.41-.77a8.07,8.07,0,0,1-1.6-.44c-8.69-.61-17.39-.1-26.08-.26-2.78.11-5.61-.39-8.33.6a8.82,8.82,0,0,1-4.15,0C44.65,16.53,42,16.08,39.3,17Z"/><path class="cls-15" d="M71.24,12.13c-4,1.93-8.25.57-12.38.78a3.25,3.25,0,0,0,.45-.74Z"/><path class="cls-16" d="M36.27,15.88l2-.71V17l-2.72.23-2.26-1.12a.83.83,0,0,1,1-.33Z"/><path class="cls-17" d="M40.88,14.91a5.28,5.28,0,0,0,.53-.8h4.85C44.66,15.67,42.71,14.89,40.88,14.91Z"/><path class="cls-17" d="M54.24,13.18c-1.61,1.46-3.53.72-5.34.75C50.57,12.91,52.41,13.09,54.24,13.18Z"/><path class="cls-18" d="M143.23,26.06l18,12a4.21,4.21,0,0,1,3.65,4.09,3,3,0,0,1-1.66,2.32c-2.24.62-3.84-.77-5.4-1.93a192.46,192.46,0,0,0-17.52-11.47c-1.32-.81-2.7-1.51-4.09-2.19a19.87,19.87,0,0,1-3.34-2,1.88,1.88,0,0,1-.54-1.15c.92-.82,2.1-1.46,2-3C137.76,22.65,140.37,24.7,143.23,26.06Z"/><path class="cls-19" d="M146.93,18c-.46,1.28-1.74,1.65-2.69,2.4-.34-.79-.69-1.58-1-2.37l1.12-1C145.56,16.37,146.27,17.11,146.93,18Z"/><path class="cls-20" d="M312.24,33a2.37,2.37,0,0,1-2.08-1l2.09-.68Z"/><path class="cls-15" d="M96.52,13c-3.41-.21-6.93,1-10.22-.8l4-.23,5,.22Z"/><path class="cls-21" d="M258.56,9.94l11.65,1.77c2.93,1,6.3.47,9,2.47.25,1.62-1,2-2.08,2.52a3.83,3.83,0,0,1-2.12-.16,8.28,8.28,0,0,0-5.33-1.11,19.3,19.3,0,0,1-3.79-.35c-2.64-.9-5.36-.52-8.05-.58-3.95-.08-7.9.17-11.84-.19a26.22,26.22,0,0,0-11.42-.52,12.54,12.54,0,0,1-2,.79,5.5,5.5,0,0,1-1.4.13,5.35,5.35,0,0,0-5,1.13,47.74,47.74,0,0,1-5.38,2.25c-3,.57-6.13.64-9.15,1.26a7.46,7.46,0,0,1-3.68-.5c-1.35-1.4-.86-3.07-.66-4.7,4.27-2.72,9.22-3.07,14-4.06,2,1.59,3.1-.64,4.63-1a5.66,5.66,0,0,1,2.08-.72,4.55,4.55,0,0,1,1.56.13c6.49-.21,13,.95,19.45.08a16.23,16.23,0,0,1,3.27.15C254.18,9.9,256.5,9.24,258.56,9.94Z"/><path class="cls-22" d="M192.35,3c1.92,0,3.24,1.38,4.89,2l1.18,1.65c.56,2.32-1,3-2.75,3.45a18.68,18.68,0,0,1-9.95-3.75c-1.46-2.3-.13-3.33,1.9-3.65C189.17,2.47,190.83,2.2,192.35,3Z"/><path class="cls-23" d="M194.93,9.19a3.81,3.81,0,0,0,3.49-2.52,13.68,13.68,0,0,1,7,7.32l-.5.48a3.1,3.1,0,0,1-1.35.15C202,14.2,201,13,199.8,12c-1-1-2.22-.93-3.43-1.09a3.16,3.16,0,0,1-1.16-.54A1.33,1.33,0,0,1,194.93,9.19Z"/><path class="cls-24" d="M207.23,14.15c2.06,1.3,2.94,2.6,0,3.89-2.89-.06-2.77-1.65-1.86-3.65l.09-.4Z"/><path class="cls-25" d="M226.2,10.08c-1.66-.14-3.3,5.23-5,0A.82.82,0,0,1,222,10C223.45,9,224.85,8.73,226.2,10.08Z"/><path class="cls-26" d="M226.2,10.08,222,10a3.81,3.81,0,0,0,.46-.78,2.28,2.28,0,0,1,1.18-.94,3.8,3.8,0,0,1,3.55.92Z"/><path class="cls-27" d="M277.22,15.65l2-1.47c2.13-.07,4.3-.54,6.26.76a6.75,6.75,0,0,1-3.56,2.62C280.06,17.58,278.17,17.75,277.22,15.65Z"/><path class="cls-28" d="M287.15,15.21l4.1.68-.14.28c.31,1.7-1,2.07-2.13,2.56a5.55,5.55,0,0,1-4.86-1.46C283.74,14.55,286.31,16.15,287.15,15.21Z"/><path class="cls-29" d="M287.15,15.21l-3,1.53c-.64.83-1.3.81-2,.06.32-2,1.91-1.69,3.25-1.86Z"/><path class="cls-30" d="M289.16,17.73l1.95-1.56,5,1.08c.53,1.88-1.39.93-1.89,1.62l-.46.17-.5,0C292,18.37,290,19.75,289.16,17.73Z"/><path class="cls-31" d="M302.21,21l-4-1.05c-.51-1.81,1.36-1.08,1.9-1.77l3.18.63,0,.21C303.79,20.15,303,20.59,302.21,21Z"/><path class="cls-32" d="M300.07,18.19,298.17,20l-4-1.09,1.89-1.62Z"/><path class="cls-33" d="M302.21,21l1-2c1.4.27,2.84.47,3.69,2.1C305.25,22.94,303.73,21.6,302.21,21Z"/><path class="cls-34" d="M146.93,18l-2.61-.94c-.13-2,1.24-3.32,2-4.93a16.31,16.31,0,0,1,3.18-4l8-5L160.26,2C162.46.76,165,.78,167.35.12h4.89a.83.83,0,0,1,.26.74c-.05.26-.11.39-.15.36-.39-.54.21.51-.38.21-.43-.23-.45,0-.29,0,2-.28,4-.73,6,0,1,.77,2.45,1.34,1.34,3-2.8,2.23-5.87-.41-8.74.49A73.45,73.45,0,0,0,146.93,18Z"/><path class="cls-35" d="M179.23,4l-2-2c1-1.39,2.61-.75,3.85-1.31a5.54,5.54,0,0,1,1.4-.18c1.66.14,3.37-.34,5,.4l1.77.83c1,.43,2.42-.07,3.12,1.21-2.27.42-5.27-.74-6.12,2.8-1,1.35-2.16.68-3.31.35C181.7,5.45,180.11,5.36,179.23,4Z"/><path class="cls-26" d="M252.24,9.17l2-.28,4.33,1C256.43,9.86,254.18,10.75,252.24,9.17Z"/><path class="cls-36" d="M172.24,1.07V.13l9-.06c.35.22.47.44.35.66s-.23.34-.35.34h0A17.67,17.67,0,0,1,172.24,1.07Z"/><path class="cls-37" d="M181.23,1.07v-1c2.12,0,4.29-.38,6.23.91Z"/><path class="cls-26" d="M247.15,8.26a4.08,4.08,0,0,0,.26.69c-4.83,1.25-9.75.37-14.62.53-.75-.3-.84-.74-.29-1.32l10.71-.09Z"/><path class="cls-38" d="M14.36,33.16c0,.33,0,.67-.07,1-.69,1.06-1.81.92-2.84,1-1,.46-1.2-.06-1-.93A5.37,5.37,0,0,1,14.36,33.16Z"/><path class="cls-39" d="M10.4,34.25l1,.93c-1.34,1.17-2.82,1-4.57.65A3.76,3.76,0,0,1,10.4,34.25Z"/><path class="cls-40" d="M1.36,37.05l2-1c.6.42,1.72.93.89,1.64A2,2,0,0,1,1.36,37.05Z"/><path class="cls-41" d="M27.26,29l14.93-4.31a5.17,5.17,0,0,1,2.39-1.6c2.33-.49,4.59-1.34,7-1.42.45-.05.91-.06,1.37-.07a14.5,14.5,0,0,0,6.5-1.65c3.8-.32,7.5-1.49,11.35-1.38,5.64.08,11.27,0,16.9,0a130.5,130.5,0,0,1,21,3c2.86.33,5.5,1.45,8.21,2.3q3,1.17,6,2.1c1,.37,2.07.76,3.11,1.12,1.57.62,3.2,1.1,4.74,1.8a10.63,10.63,0,0,1,1.12.56,19.53,19.53,0,0,0,4,1.67c1.55.65,3.07,1.33,3.61,3.07a.47.47,0,0,0,0,.66.61.61,0,0,1,.66-.48,3.4,3.4,0,0,1,3.35,1.83c-.21,2.55-1.88,3.52-4.14,3.88a16.48,16.48,0,0,1-4.57-.74c-6.77-2.52-12.81-6.83-20-8.36-5.45-1.64-10.89-3.3-16.59-3.9-3.34-1.17-6.85-.36-10.25-.83a7.93,7.93,0,0,1-1.59-.35c-5.51-1.1-10.91.59-16.37.62-7.35-.44-14.47,1.65-21.75,1.89a7.16,7.16,0,0,0-5.19.2,7.92,7.92,0,0,1-2.82.43l-8.82,1.05C30,29.87,28.37,30.47,27.26,29Z"/><path class="cls-42" d="M263.3,37.65l5.91,2,9,3.34c-1,.09-2.18-.16-3,.85-6.72-1.29-13.56-2.13-20-4.69-5.22-1.05-10.53-.7-15.8-1.14-1.58-.13-3.27-.65-3.27-2.4,0-1.57,1.72-1.75,3-2,2.6-.24,5.26.28,7.79-.67a11.36,11.36,0,0,1,3.18-.28C254.84,33.68,259.82,33.67,263.3,37.65Z"/><path class="cls-43" d="M273.2,25l-.35-.17-.39.08c-.49,0-.66-.27-.52-.74,2.12.07,4.37-.87,6.26.85a2.66,2.66,0,0,1-3,.15Z"/><path class="cls-44" d="M275.24,25.17l3-.15,1.91,1.05C278.47,25.84,276.65,26.59,275.24,25.17Z"/><path class="cls-45" d="M257.24,22.94h-13c0-1.78,1.39-1.81,2.56-2.17,2.21-.34,4.51.34,6.67-.61a11.64,11.64,0,0,1,1.42-1.29,12,12,0,0,1,3.82-.57c1.21.09,2.19.49,2.49,1.82C262,24,257.65,20.72,257.24,22.94Z"/><path class="cls-46" d="M262.5,23.89a7,7,0,0,0-.58-.74c2.43.12,5-.88,7.25.76Z"/><path class="cls-46" d="M272.85,20.23q.24.39.51.75c-1.44,0-3.14,1.46-4.13-.8l1-.3Z"/><path class="cls-47" d="M239.22,35c-.78.08-2-.26-2.16.62s.93,1,1.77,1.1c4.92.8,10.11-1.2,14.86,1.37a18.3,18.3,0,0,1,1.59,1.06c-.41,1-1.32.81-2.12.86-1.34-1.06-2.94-.21-4.37-.59-1.89-1.32-4-.85-6.13-.93-6.81-1-13.09,2.06-19.71,2.47-6.28,1.51-12.53,3.15-18.38,6a11.23,11.23,0,0,1-4.71,1.25c-2.26-.2-3.7-1.16-3.37-3.71,3.56-5.1,9.66-5.9,14.62-8.64a49.3,49.3,0,0,1,12.29-3.23c1.4,0,2.79,0,4.19-.06,3.76,0,7.54-.18,11.19,1A1,1,0,0,1,239.22,35Z"/><path class="cls-48" d="M246,74c1-2.33,3.76-1.45,5.19-3,5.61-.28,11.36-.91,14.06,5.81L264.21,78c-1.51-.31-1.91,1.57-3.23,1.64a3.84,3.84,0,0,1-1.34-.22,8.65,8.65,0,0,0-8.77-.66c-1.45.65-3,1.34-4.66.41C244.66,77.46,244.79,75.73,246,74Z"/><path class="cls-49" d="M249.14,38.81c1.3.56,2.93,0,4,1.22l-1.94,0c-1.29-.52-3.41,2.27-4-1A1.49,1.49,0,0,1,249.14,38.81Z"/><path class="cls-50" d="M245.38,96.61c-.37-6.49,1.31-9.16,7.25-11.32,2.47-.9,5-1.65,7.51-2.47a2.52,2.52,0,0,1,1.75,1c.74,1.18.73,2.2-.61,2.94a6.86,6.86,0,0,1-1.31.48,11.3,11.3,0,0,0-2.79.87c-1.86,1-4.08,2-3.91,4.5.2,2.95,2.92,1.83,4.62,2.33a5.16,5.16,0,0,1,1.34.59,2.73,2.73,0,0,1,.7,1.25,2.4,2.4,0,0,1-.72,2l-3,.36a6.43,6.43,0,0,1-1.08.62c-1.39.37-2.9-.14-4.24.6a2,2,0,0,1-1.77.25C247.87,99.28,246.63,97.94,245.38,96.61Z"/><path class="cls-6" d="M259.21,98.79c0-.62,0-1.23,0-1.84a5.24,5.24,0,0,1,6-1h0c-.34,1.35-.67,2.71-1,4.06Z"/><path class="cls-51" d="M261.23,86c1-.68.11-1.33,0-2a19.92,19.92,0,0,1,0-5c.9-.64,1.53-2.06,3-1a3.36,3.36,0,0,1,0,4,13.8,13.8,0,0,1,0,8c0,.34,0,.68,0,1-.95,1.21-1.53,3.36-3.7,1.44C259.55,90.11,259.5,87.94,261.23,86Z"/><path class="cls-48" d="M261.26,92.94l2.92-2c.34,1.67.68,3.33,1,5-1.86,1.16-3.93,1-6,1l-.15-1.37a2.36,2.36,0,0,1,.5-1.81A2.25,2.25,0,0,1,261.26,92.94Z"/><path class="cls-52" d="M264.22,89.93q0-4,0-8A7.54,7.54,0,0,1,264.22,89.93Z"/><path class="cls-17" d="M46.92,16.92,45.27,17l-6,0c2.59-1.77,5.47-.63,8.21-.79A.61.61,0,0,1,46.92,16.92Z"/><path class="cls-53" d="M124.26,22.89c-1.72.21-2.75-1.07-4-1.85C121.18,22.54,125.18,17.4,124.26,22.89Z"/><path class="cls-17" d="M53.27,16.25l-2-.29c2.57-1.77,5.44-.6,8.16-.82a6.26,6.26,0,0,0-.32.75Z"/><path class="cls-54" d="M48.32,48.09l-1-1,5.08-.92a1.74,1.74,0,0,1,.92.93C51.89,48.55,50,47.85,48.32,48.09Z"/><path class="cls-55" d="M53.33,47.08l-.92-.93C53.17,46,54,45.87,54.32,45l0,0,3,.06a1.59,1.59,0,0,1,.42,1.31c-.52,1.11-1.35,1.22-2.37.74l-1.06.06A3,3,0,0,0,53.33,47.08Z"/><path class="cls-56" d="M98.07,95c-.81,3-3.89,3.26-5.84,4.89-2.67.11-5.34.76-8,0-2.51-1-3.58-.37-3.63,2.49-.07,3.88.8,7.79-.34,11.64h-4c-1.12-11-.26-22.13-.45-33.19,0-2.59-.73-5.32.8-7.77,4.29-1.23,8.58-2.66,12.83.09a3.35,3.35,0,0,1,.27,1.53c-1.87,3.17-5.83.19-7.93,2.68A55.21,55.21,0,0,0,82,90c.15.4.26.81.37,1.22s.24.79.35,1.18c.62,1.46,1.94,1.08,3.09,1.15,3.65-.13,6.52-1.67,7.65-5.18,1.33-4.15,0-7.78-3.26-10.67-1-1.29.28-2.76-.33-4.08a1.5,1.5,0,0,1,.68-1.2,4.08,4.08,0,0,1,2.2-.36,13.61,13.61,0,0,1,7.45,4c3.22,5.43,3.8,11,.81,16.72C100.44,94.05,97.47,92.09,98.07,95Z"/><path class="cls-57" d="M77.26,73c-1.09,1.8-1,3.78-1,5.77q0,17.61,0,35.2c-.32-.52-.92-1-.92-1.56q.06-20.64.22-41.27l6.68-.1c1.83-.79,3.66-1.67,5.68-.57a1.39,1.39,0,0,1,.58,1.41C84.89,73.5,80.9,71.48,77.26,73Z"/><path class="cls-57" d="M80.26,114c-.11-3.91-.35-7.83-.28-11.74,0-2.88.76-5.28,4.25-2.39-2.49-.35-2.86,1-3,3.15C80.9,106.63,82.54,110.47,80.26,114Z"/><path class="cls-58" d="M183.24,5.08l-11,.09-2-.16c2.82-1.9,6-.55,9-1C180.62,4.19,182.18,3.67,183.24,5.08Z"/><path class="cls-59" d="M167.19,50c-.25-2.69-3.1-3.59-4-5.83l1.2-2.44c.17,0,.37,0,.49.08,2.53,1.73,5,4.84,7.57,4.86,2.88,0,3.37-4.77,5.93-6.59,2.2-.15,2.91,1.69,4,3,.19,2.83-2.42,4.1-3.46,6.26a15.23,15.23,0,0,0-3.09,5.06c-1.14,2-2.68,2.37-4.44.87S167.66,52.47,167.19,50Z"/><path class="cls-60" d="M131.48,80c.16-3.73,2.71-5.57,5.65-7.11a1.33,1.33,0,0,1,1.23-.24,3.57,3.57,0,0,1,2.3,2.32,5,5,0,0,1-.44,2.66,47.2,47.2,0,0,0-2,4.9c-.33,1.15.34,1.81,1.19,2.38.69.57,1.35,1.15,1,2.18-2.79,1.14-1.18,2.69-.38,4.16a7.37,7.37,0,0,0,2.15,2.33,8.46,8.46,0,0,0,8.66-.21,5,5,0,0,1,2.63-.85c2.73,1.43,1.31,3.54.88,5.49,0,.26,0,.52-.07.78a12.55,12.55,0,0,1-4.47,1.6,9.89,9.89,0,0,1-1.33-.08c-2.15-.38-4.32.12-6.48-.1l-.64-.07-2-.25c-1.05-.56-2.6-.26-3.07-1.8l-1.78-1.24c.3-2.89-3.29-4.12-3-7A37.34,37.34,0,0,0,131.48,80Z"/><path class="cls-61" d="M114.1,97.89l0,1a3,3,0,0,1-4,.31c-1-2.24-.1-4.6-.42-6.61-.08-.93-1,.16-.42-.22.19-.14.28,0,.32.36a11.61,11.61,0,0,1-.09,4.32c-.36,1.34-1.21,1.25-2,.25-1.45-8-.56-16.12-.52-24.19a3.49,3.49,0,0,1,1.37-2.55c2.25-1.16,4.39-1.45,6.21.77a1.6,1.6,0,0,1-.65,2.06c-3.12,1.62-.43,1.65.58,2.14a2.59,2.59,0,0,1,1.21,1.66,5.14,5.14,0,0,1-.35,2.13A3.35,3.35,0,0,1,114.31,82c-1.19,2.7-.29,5.53-.57,8.29C113.93,92.85,113.34,95.4,114.1,97.89Z"/><path class="cls-62" d="M128.55,76a1.05,1.05,0,0,0-.36.84c-2.53,3.82-4.16-.13-6.18-.71,0-.64,1.44-.28.92-1.28-.71-.41-.57.77-1.15.62-1.14,0-2.25,0-3.37,0a1.58,1.58,0,0,1-1.62-1.19A2,2,0,0,1,118.24,72c3.83-2.29,7.14.15,10.62,1.13C130.6,74.24,129.34,75.08,128.55,76Z"/><path class="cls-63" d="M131.48,80a13.11,13.11,0,0,1-.06,9.85c-.84-3-.46-5.94-.37-8.93Z"/><path class="cls-64" d="M113.26,90c.06-2.62.12-5.24.21-7.85,0-.08.24-.21.38-.22a1.45,1.45,0,0,1,.46.15L114.1,90C113.82,90.42,113.54,90.45,113.26,90Z"/><path class="cls-65" d="M117.23,73.88l1,1.1a.8.8,0,0,1,.14,1.38l-3,3c-.06-.83-.11-1.66-.16-2.5-.88-1.26-.39-2.22.67-3.06A1.44,1.44,0,0,1,117.23,73.88Z"/><path class="cls-66" d="M113.26,90h.84v7.93C112.41,95.39,113.62,92.59,113.26,90Z"/><path class="cls-67" d="M118.39,76.36,118.25,75l4,0c.34-.48.67-.45,1,0,.66,1.55-.85.75-1.25,1.14Z"/><path class="cls-68" d="M153.56,92.07l2.58,0,.6.51a3.76,3.76,0,0,1-1.56,5.37h-.45l-.44.13c-1.74-1.46.49-3.57-.83-5.09-.38-.24-.48-.46-.33-.64A.6.6,0,0,1,153.56,92.07Z"/><path class="cls-69" d="M211.58,18.17c-4.64,2.81-10.24,3.91-14.14,8-1.49-.12-2.66-.64-2.85-2.34a2.68,2.68,0,0,1,.37-1.29,14.54,14.54,0,0,0,1.38-2.31l-.2-.38a3.49,3.49,0,0,1,1-.65,3.44,3.44,0,0,0,1.77-1.44A17.31,17.31,0,0,1,201,15.55c.93-.93,2.25-.94,3.36-1.43l1,.27c.78,1.14-.25,3.2,1.86,3.65Z"/><path class="cls-25" d="M231.94,8.9l15.47,0,1.81.1a47.7,47.7,0,0,1-21,.09C229.41,8.2,230.67,8.5,231.94,8.9Z"/><path class="cls-25" d="M245.19,13l-5.7.17a9.79,9.79,0,0,1-6.26-.13A16.06,16.06,0,0,1,245.19,13Z"/><path class="cls-26" d="M266.17,13.92h-7.72a8.67,8.67,0,0,0-.62-.74C260.62,13.29,263.52,12.23,266.17,13.92Z"/><path class="cls-26" d="M233.23,13l6.26.13c-2.33,1.08-4.81.78-7.26.78Z"/><path class="cls-25" d="M231.19,14l-5,.91C227.41,12,229.26,12.75,231.19,14Z"/><path class="cls-70" d="M270.17,15.2c-.1-.34-.21-.67-.32-1,1.89.23,4.33-1.34,5.36,1.66C273.59,15.19,272,14.39,270.17,15.2Z"/><path class="cls-71" d="M194.74,5.68l.6,1c-.44.08-.93.31-1.31.19s-.94-.54-1-.89C193,5.32,193.54,5.38,194.74,5.68Z"/><path class="cls-72" d="M204.34,14.12a3.5,3.5,0,0,1-3,2,2.85,2.85,0,0,1-2.57-2.81,2.71,2.71,0,0,1,1.45-2.21Z"/><path class="cls-73" d="M200.22,11.06a2.2,2.2,0,0,1-.94,2c-1.2.6-1.52-.36-1.95-1.11h0c-.75-.39-1.59-.71-1.24-1.83C197.56,10.07,199.32,8.66,200.22,11.06Z"/><path class="cls-74" d="M167.23,114l-4-.16a2.57,2.57,0,0,1-.19-2.58,129.56,129.56,0,0,0,.23-25.37,30.35,30.35,0,0,1,.82-9.9c.21-.94.61-2,1.9-1.82.88.16,1.18,1.06,1.38,1.88a20.59,20.59,0,0,1,.29,5c0,10.13.06,20.26-.24,30.39A2.61,2.61,0,0,1,167.23,114Z"/><path class="cls-75" d="M163.31,111.93l-.06,1.88-.46.1-.47,0q0-20.86,0-41.72a.87.87,0,0,1,1.49.18,5,5,0,0,1,.44,2.73C163,87.34,165.53,99.69,163.31,111.93Z"/><path class="cls-76" d="M168.19,99.94l.21,6c-.82,2.62,1,5.62-1.17,8v-2C167,107.89,165.2,103.72,168.19,99.94Z"/><path class="cls-77" d="M172.24,1.07h9c-1.06,1.4-2.61.88-4,1h-7.94C170.06.45,171.32,1.35,172.24,1.07Z"/><path class="cls-78" d="M148.3,44l-9.18-4.91c1.95-.1,3.11-1.31,4.06-2.84a34.65,34.65,0,0,1,8.36,4.62C151.05,42.5,150.65,44.25,148.3,44Z"/><path class="cls-78" d="M139.28,34.92c.16.76.69,1.82.38,2.19-.46.55-1.15-.24-1.44-.75-.73-1.28.37-1.23,1.13-1.4Z"/><path class="cls-79" d="M47.47,27.11c-1.6,1.06-3.42.92-5.2.95C43.76,26.41,45.7,27.22,47.47,27.11Z"/><path class="cls-80" d="M115.24,39.05l8.94,1.17c-2,3.82-6.2,2.26-9.09,3.89a21.23,21.23,0,0,1-4.14.34,81.58,81.58,0,0,1-9.25-.25,11.33,11.33,0,0,0-8,0c-4.32.15-8.64.74-12.92-.33a14.06,14.06,0,0,0-7.45.05c-1,.44-2.29-.05-3,1.08a4.14,4.14,0,0,1-2.82.49,1.87,1.87,0,0,1-1.17-2.38l2-.41,16.06-2.6c1.44-1.58,3.62.56,5.06-1l4.9-.06Q104.76,39,115.24,39.05Z"/><path class="cls-81" d="M57.29,46.25c0-.38,0-.75,0-1.13l4.14-.9c.64.46,1.55.14,2.14.76a.78.78,0,0,1-.35,1h0C61.32,47.31,59.36,47.81,57.29,46.25Z"/><path class="cls-82" d="M63.48,45.19l-2.06-1,4.86-1.07,1,1.71C66.12,46.29,64.81,45.82,63.48,45.19Z"/><path class="cls-83" d="M245.51,33.91l1.69.15c-2.47,1.9-5.33.56-8,1,0-.32,0-.65,0-1A9.86,9.86,0,0,1,245.51,33.91Z"/><path class="cls-42" d="M234.17,32.87l3.05,0,1,0c2.4.57,5-.28,7.3,1l-6.28.13-12.2-.1C229,31.08,231.74,32.92,234.17,32.87Z"/><path class="cls-84" d="M210.15,32l-1.92,1.12a3.39,3.39,0,0,1-3,1.09l-1,.08c-.88,1-1.55,2.4-3.26,2.27-2.09-.4-4.2-.79-5.85-2.33-.46-1.93,1.25-1.62,2.19-2.12l1.68-.27h0c7.35-5.24,15.22-9.32,24.2-10.95l3-.83c.74-.54,1.66-.75,1.94.28.36,1.35-1.17,1.25-1.79,1.81,1.36-.35,2.86-1.7,4.09.34,0,1.47-1.59,1.53-2.24,2.43-4,1.37-8.37,1.7-12,4.16C214.69,31.05,212.44,31.55,210.15,32Z"/><path class="cls-2" d="M230.22,23c-1.89-2.33-4.05,1-6.13-.41,1.13-.65,2.2-1.27,3.26-1.91,0,0-.07-.37-.17-.42a6.05,6.05,0,0,0-1-.26c.75-1,2-.64,3-1.08,1.74-.87,3.68,0,5.45-.66a49.36,49.36,0,0,1,20.53.8V21c-2.54,1.34-5.45-.36-8,1-1.07,0-2.2-.13-3,.89l-11.07,1C232.36,23.12,231,24,230.22,23Z"/><path class="cls-85" d="M230.22,23c1.07,0,2.2-.14,3,.9l-5,1A1.82,1.82,0,0,1,230.22,23Z"/><path class="cls-46" d="M255.21,19.1l-21.29-.21a.52.52,0,0,1,.42-.74l-.11,0c1.6-1.08,3.59-.28,5.24-1.1,4.34-1.23,8.48.38,12.7.87l5.76.28c.07.34.13.68.2,1C257.1,20.57,256.17,19.29,255.21,19.1Z"/><path class="cls-86" d="M247.22,22c2.46-2,5.34-.58,8-1C252.75,23,249.88,21.63,247.22,22Z"/><path class="cls-87" d="M231.34,75c-.06-.85-.29-1.77.93-2,2.09-.07,3.95-1.41,6.1-1.1,1.73-.12,3.19.28,4,2-1.35,2.9-3.7,2.9-6.3,2.16l-2.52.1C232.4,76.56,231.76,76,231.34,75Z"/><path class="cls-88" d="M243.14,74c-.57,1.32-1.15,2.64-1.72,4-2.59,1.57-3.5-1.48-5.36-1.93l6.3-2.16A5.26,5.26,0,0,1,243.14,74Z"/><path class="cls-88" d="M238.37,71.89c-2,.62-3.53,3.72-6.1,1.1L234.35,71C235.73,71.16,237.35,70.1,238.37,71.89Z"/><path class="cls-42" d="M243.51,38.87a8.7,8.7,0,0,0-.59-.74c2.09.09,4.28-.75,6.22.68l-1.93.27Z"/><path class="cls-89" d="M194.22,46.05c1.14-.48,1.54-2,3-2-.23,2.34,1,3.16,3.15,3-.36,1-1.17,1-2,1-1.31.69-2.64,1.21-4.07.31A1.66,1.66,0,0,1,194.22,46.05Z"/><path class="cls-90" d="M221.4,37.39c-1.12.79-2.11,1.41-3.55,1C218.75,36.88,219.9,36.83,221.4,37.39Z"/><path class="cls-91" d="M261.21,79a4.2,4.2,0,0,1,0,5l-1.07-1.15.15-3.86Z"/><path class="cls-92" d="M231.34,75l2.2,1.13c-2.42,1.25-4.1,3-4.3,5.89a3.92,3.92,0,0,0-.84,1.14c-1,1.87,1.67,5.2-2.32,5.9-1.92-1.85-.6-5-2.66-6.78a7.17,7.17,0,0,1-.68-2.3c.5-3-1.09-6.11.86-8.92l4.23,0a.76.76,0,0,1,.64.84c-.26,1.16-.62,2.33.41,3.33.78.18,1.57.44,2.17-.38Z"/><path class="cls-93" d="M260.39,93.93c-.1-2.64-.21-5.28-.31-7.92l1.15,0,0,7Z"/><path class="cls-94" d="M255.36,99c-1.44,1.93-3.3,1.16-5.1.81C251.78,98.38,253.63,99.12,255.36,99Z"/><path class="cls-95" d="M73.28,44c2.26-1.75,4.82-.72,7.27-.79a.54.54,0,0,1-.41.75v0Z"/><path class="cls-96" d="M99.31,93.05a7.53,7.53,0,0,0-.08.83L98.07,95c-1.13-.22-1.95-.74-1.12-1.94C97.62,92,98.54,92,99.31,93.05Z"/><path class="cls-57" d="M90.29,76.84c-9-.43-9-.43-9,8.6,0,1.82-.11,3.64-.16,5.46C79.61,86,80.15,81,80.27,76c2.87-1.48,6.12.47,9-1h0c.35-.32.38-1,1-1C91.73,74.92,90.65,75.88,90.29,76.84Z"/><path class="cls-97" d="M90.26,74l-1,1c-.63-2.91-3-1.87-4.73-2-2.41-.14-4.84,0-7.27,0,3.56-2.21,7.55-.25,11.24-1.13,1-.54,1.73-.37,1.83.93Z"/><path class="cls-98" d="M89.26,75c-2.82,1.92-6,.54-9,1C83,73.21,86.33,75.9,89.26,75Z"/><path class="cls-99" d="M98.8,78.53,97.55,80a12.92,12.92,0,0,1-.93-1.61c-.06-.16.34-.72.38-.7C97.59,77.93,98.16,78.22,98.8,78.53Z"/><path class="cls-100" d="M182.13,43.07c-2.08,0-2.58-1.92-3.76-3l2.71-5c1.25-2.16,3.26-3.54,5.12-5.09,1.79,1.77,4.22-1.38,6,.77.78,1.36-.32,2-1,2.83-1.13,1-2.22,2-3.25,3.06s-2.1,2-3,3.12c-.88.9-1.34,2.11-2.16,3Z"/><path class="cls-101" d="M192.07,31a17.32,17.32,0,0,0-3.9.31c-.8.23-.1,2.84-2,1.8-1.23-.68.27-2.11,0-3.21,1.61-1.67,3.21-3.34,4.82-5,1.77.2,2.34-2.3,4.21-1.89-.06,1.61,1.5,2.08,2.21,3.14l-.07,0c-1.77,1-3.52,2-4.29,4A2.11,2.11,0,0,1,192.07,31Z"/><path class="cls-69" d="M195.23,23c-1.12,1.26-1.6,3.95-4.21,1.89a6.87,6.87,0,0,1,3.26-2.86c.89-.24,1.25,0,.95,1Z"/><path class="cls-102" d="M195.23,23l-.95-1a3.21,3.21,0,0,1,2.06-1.83C197.08,21.61,196.63,22.51,195.23,23Z"/><path class="cls-84" d="M189.17,44.81c-5.27,5.41-10.58,10.78-15.78,16.26a2,2,0,0,1-2.09.76c-1.53-.66-2.87-1.67-4.36-2.41a42.63,42.63,0,0,1-3.28-3,7.21,7.21,0,0,0-4.57-3.2A3.44,3.44,0,0,1,157.53,52l-.32-2c.38-1.78,1.9-2.68,3-3.88,2.56.84,4,3.63,6.95,3.84a45,45,0,0,1,4.62,4.19c1.41,1.63,2.36,1,3.44-.18,1.06-1.62,1.94-3.35,3-5,.05-2.8,3.06-3.67,3.9-6l.15-.1c.85-.87,1.71-1.72,3.08-1.51C186.72,42.47,187.83,43.77,189.17,44.81Z"/><path class="cls-103" d="M160.24,46.14c.32,2.33-1.32,3.13-3,3.88l-1.92-1.18c1.23-2.33-1.25-2.78-2.18-4.57,0-.15-.25.93.35.65.16-.07.17.08.24.42a1.77,1.77,0,0,1-.48,1.74c-2.17-.19-3.31-2-4.92-3.1,1.2-.91,1.59-2.67,3.24-3.13C155,41.72,157.16,44.67,160.24,46.14Z"/><path class="cls-104" d="M178.23,49c.23,2.38-1,3.92-3,5C175,51.6,176.2,50.05,178.23,49Z"/><path class="cls-105" d="M165.18,65c-6.44-5.6-14-9.27-21.86-12.28-6.47-1.8-11.89-6.52-18.91-6.78-2.54-1.4-5.46-1.21-8.15-2a2.32,2.32,0,0,1-1-.9c2.61-2.12,6.15-1.25,8.93-2.81l2.71,0c10.15,3.69,20.58,6.69,29.92,12.35.09.06.47-.35.72-.54l1.59,0c1.73,1.46,3.77,2.5,5.4,4.09,1.21.77,2.77,1.23,2.79,3.08,1.87.61,2.91,2.15,4,3.62l-.14.42c1.26,3.79.8,4.39-2.88,3.79Z"/><path class="cls-106" d="M141.25,70.85c5.79-.48,10.81.76,14,6.21,1.44,1,1.64,2.38,1.46,3.94-1.31,1.55-.1,4.14-2.2,5.36a2.65,2.65,0,0,1-2.17,0c-1.08-.72-1.37-1.94-1.91-3-1.07-1.89-1-4.51-3.54-5.45-1.87-1-3.79-.52-5.71-.22a2.39,2.39,0,0,1-1.87-.65l1-2.08c-.05-1.28-1.32-1.32-2-2l-1.13-.07C138.2,71.65,139.82,71.45,141.25,70.85Z"/><path class="cls-107" d="M137.36,82.89l13.56-.18c1.31.8,1.33,2.1,1.34,3.41a1.28,1.28,0,0,1-1.23.08l-1.17-.58c-3.48-.6-7-.1-10.48-.47a4.55,4.55,0,0,0-1.13.65C137.27,85,136.25,84.29,137.36,82.89Z"/><path class="cls-108" d="M151.24,85v1.12c-1.68.84-3.62-.13-5.29.76l-5.79-.24-1.92-.81V85A35.67,35.67,0,0,1,151.24,85Z"/><path class="cls-109" d="M142.25,94a.52.52,0,0,0,.63.14c2.36.43,4.72.83,7-.21a1.19,1.19,0,0,1,1.32.17,7.18,7.18,0,0,1-10,0A.6.6,0,0,1,142.25,94Z"/><path class="cls-110" d="M133.26,88.65c0-1.45,0-2.89,0-4.34a7.29,7.29,0,0,1,.51-1.6A6.81,6.81,0,0,1,133.26,88.65Z"/><path class="cls-111" d="M148.21,99.85a15.81,15.81,0,0,1-7,0A6.58,6.58,0,0,1,148.21,99.85Z"/><path class="cls-112" d="M138.26,73c1.13,0,2.48-.28,3.1,1,.44.87-.52.91-1.11,1Z"/><path class="cls-113" d="M114.11,73c0,1,0,2,0,3-2.34,1-3.55-.45-3.36-2.3C111,71.24,113.07,73.81,114.11,73Z"/><path class="cls-114" d="M108.24,98.94c.07-.35.13-.69.2-1,1.67-2,.21-4.48,1.81-6.64v7.68Z"/><path class="cls-115" d="M123.26,75h-1c.19-.83-.5-2.09,1.06-2.25a1.09,1.09,0,0,1,.88.37C124.9,74.17,123.33,74.2,123.26,75Z"/><path class="cls-116" d="M155.19,87l-1-.85c.61-1.7,1.23-3.39,1.84-5.08L156.4,83c.24,1.34.76,2.69-.26,3.94A.55.55,0,0,1,155.19,87Z"/><path class="cls-69" d="M194.22,29.14l-1.95,1c.66-2.65,2.64-3.64,5.1-4Z"/><path class="cls-102" d="M196.92,19.89l2.33-1.75C200.42,21.29,198.69,20.62,196.92,19.89Z"/><path class="cls-117" d="M217.43,96.94l-.32,1.59c-2.58,2.86-5.64,2.73-8.89,1.41l-1-1a40.6,40.6,0,0,1-1.15-4.33,16.45,16.45,0,0,1-.24-2.61,24.62,24.62,0,0,0-.1-2.58c-1.8-2.32-3.53.73-5.29.08a3.56,3.56,0,0,1-2.43-1.34c-.45-1.18.59-1.63,1.14-2.33a30.15,30.15,0,0,1,3.93-1.71c3.4-1,4.69-2.88,3.14-6.26s-5.16-1-7.4-2.49c-.81-.77-1.36-1.61-.8-2.78,4.39-2.79,8.61-1.56,12.78.56,1.13,2.18,2.58,4.23,2.55,6.84a2.83,2.83,0,0,1,.16,2.1,28,28,0,0,0-.12,8.37,9.24,9.24,0,0,0,1.39,3.41,9.63,9.63,0,0,0,1.4,1L217.4,96Z"/><path class="cls-118" d="M168.19,99.94c-2,3.86-.48,8-1,12-1.57-1.49-1-3.42-1-5.17,0-10.55,0-21.1-.32-31.66a39.38,39.38,0,0,0-1.05,14.43c1,7.4,1.15,15.09-1.58,22.4q0-19,0-38c.94-2.13,2.8-2,4.65-1.85a2.89,2.89,0,0,1,1.42.57,3.5,3.5,0,0,1,.71,2.89,14.66,14.66,0,0,1-.62,2.15A13.82,13.82,0,0,1,169,79,42,42,0,0,0,169,91c.42,1.17.65,2.45,1.94,3.08a5.9,5.9,0,0,0,5.59-.34,7,7,0,0,1,4-1.16c1.64.65,3.28,1.3,2.78,3.6-1.36,1.77-2.82,3.4-5.15,3.88l0-.42c-2.11-.4-4.24-.11-6.35-.2-1.11.83-2.71-1.69-3.62.53Z"/><path class="cls-119" d="M169.25,75.86l0-3c.21-1,1.23-1.24,1.7-2-.14-1.8-2.2-2.31-2.64-3.9,3,.27,3.08-1.65,2.88-3.79,1.75,1.15,3.34-.17,5-.35,1,.44,1.12,1.33,1.24,2.24-.08.65.05,1.46-.28,1.94-3,4.22-3,4.2,1.21,5.9a3.85,3.85,0,0,1-.75.65,4.15,4.15,0,0,0,.71-.68,7.86,7.86,0,0,1,7,4c-.16,2,.19,4.25-1.89,5.65a2.79,2.79,0,0,1-1.34-.15,2.55,2.55,0,0,1-1.29-2.88c.29-.26.44-.68.86-.84-.45,0-.47.53-.88.6-1.72.17-3.09-.73-4.56-1.29C174,76.7,171.05,78.27,169.25,75.86Z"/><path class="cls-120" d="M177.41,65.07a2.5,2.5,0,0,1-1.24-2.24c4.27-7.47,10.69-12.64,18.05-16.78,0,.65,0,1.3,0,2,.54,1.52-.93,2.49-1,3.82Z"/><path class="cls-121" d="M183.23,82c1.21-1.5.34-3.83,2.06-5.12a1.41,1.41,0,0,1,1.08,1.78c2.28,4.35,1.43,8.9.9,13.43a12.43,12.43,0,0,1-3.92,4.11L180.24,93c-.1-.21-.2-.41-.31-.61-.09-1.7,1-3,1.48-4.52C182.25,85.94,181.41,83.54,183.23,82Z"/><path class="cls-122" d="M198.23,88l2,.7c.11,1.37-.68,2.47-1.09,3.68-.48,1.45-.22,2.5,1.45,2.84,2.23.44,4.28-1.17,6.52-.52.47,1.41,1.93,2.77.16,4.27l-1.06.17c-3.54,1.72-7.07,3.12-10.66.13-1.16-2.65-.92-5.45-.8-8.21C194.84,88.91,195.32,87,198.23,88Z"/><path class="cls-59" d="M198.23,88c-1.77.16-2.52.82-2.26,2.87a74.87,74.87,0,0,1,.19,8.35c-3.47-.74-4-3.28-3.86-6.25,1-3.59,2.93-6.35,6.89-7.11Z"/><path class="cls-53" d="M198.06,72.58,199.23,75c0,.69,1.31.69.9,1.63l-6.56,3c-1.15-2.67,0-4.71,1.73-6.6Z"/><path class="cls-115" d="M193.18,51.83c-3.15-2.23.61-2.57,1-3.82l4.14.06c-.38.64-.76,1.28-1.15,1.92Z"/><path class="cls-123" d="M200.13,76.6c-.11-.65-1.84-.4-.9-1.63,2.37.89,6.39-2.24,7,2.88C204.48,76.12,202.07,77.5,200.13,76.6Z"/><path class="cls-124" d="M187.27,92.06c-.15-4.49.32-9-.9-13.43C189.78,82.9,188.66,87.47,187.27,92.06Z"/><path class="cls-74" d="M163.25,72.08c1.89-.39,3.81-.92,5.39.79-1.83.08-3.67.07-5.33,1Z"/><path class="cls-75" d="M168.25,100c-.05-.9-.47-2.31-.07-2.61,1.78-1.31,1.35,2.25,3,1.59.35.19.47.39.36.59s-.22.3-.34.3l-1,.24Z"/><path class="cls-125" d="M171.24,99.83c0-.29,0-.59,0-.89,2.33.26,4.77-.61,7,.69A13.33,13.33,0,0,1,171.24,99.83Z"/><path class="cls-126" d="M115.24,39.05a47.93,47.93,0,0,1-20.95,0l1.77-.2a95.34,95.34,0,0,1,18.35,0A1.1,1.1,0,0,1,115.24,39.05Z"/><path class="cls-120" d="M153.22,47.08c.13-1.6-1.19-2.6-1.92-4.09,6,2.94,6.66,3.89,4,5.85A2.6,2.6,0,0,1,153.22,47.08Z"/><path class="cls-127" d="M111.41,43.93a6.06,6.06,0,0,0-.39-.76l4.23-.14,1,.9Z"/><path class="cls-128" d="M192.26,35.09c1.09-.21,2.44.35,3.13-1.06,2.19.18,4.34.5,6,2.23l-12.18,8.55c-1.74-.31-3.22-1-3.88-2.78a1,1,0,0,1-.41-1.11c.55-1.23,1.72-1.92,2.49-3C188.69,36.48,190,34.9,192.26,35.09Z"/><path class="cls-128" d="M199,31.82c.89.31,2.1-.09,2.6,1,.25.57-.24.91-.78.94-1.36.07-1.5-1-1.84-2l.16.19Z"/><path class="cls-129" d="M228.2,97.94l0,1a3,3,0,0,1-3.41,0c-1.91-5.59-1-11.26-.52-16.93,3.67,1.48,1.31,4.67,2,7C229,91.49,226.77,95.11,228.2,97.94Z"/><path class="cls-130" d="M224.22,82c.45,5.65-1,11.41,1,17a1.25,1.25,0,0,1-1.92,0q0-9-.08-18Z"/><path class="cls-131" d="M228.2,97.94c-1.87-2.73-.48-6.18-2-9,2.34-1.78-.57-5.41,2.47-6.94Q228.45,90,228.2,97.94Z"/><path class="cls-132" d="M227.94,72c.17,1.64.35,3.28.52,4.92C226.86,75.43,226.26,73.84,227.94,72Z"/><path class="cls-133" d="M223.28,98.94l1.92,0,3,0a1.62,1.62,0,0,1,0,1H223.3A1.74,1.74,0,0,1,223.28,98.94Z"/><path class="cls-106" d="M151.24,85h-13A17.86,17.86,0,0,1,151.24,85Z"/><path class="cls-134" d="M213.06,82q0,4.44,0,8.88A10.6,10.6,0,0,1,213.06,82Z"/><path class="cls-135" d="M168.4,81.92c-.11,3.33-.22,6.65-.32,10a24.6,24.6,0,0,1,0-13.92C169.18,79.22,168.75,80.57,168.4,81.92Z"/><path class="cls-136" d="M174.23,76.92l-5,0c-.27.63-.6.66-1,.1l1-1.14c2.64.53,5.52-.81,8,1A2,2,0,0,1,174.23,76.92Z"/><path class="cls-75" d="M176.22,94.81l1,0c-2.31,1.8-4.64,1.65-7,.09l0-.45c1.55-.06,3-1.2,4.62-.48A6.67,6.67,0,0,1,176.22,94.81Z"/><path class="cls-124" d="M182.35,88.93c0-2.32,0-4.65,0-7h.92C182.93,84.29,184.05,86.79,182.35,88.93Z"/><path class="cls-121" d="M181.07,79.2c.5-1-1-2.24.45-3a1.28,1.28,0,0,1,1.18.45c.48,1.44-.82,1.87-1.63,2.56Z"/><path class="cls-121" d="M178.3,72.88c-.21,1-.39,2-1.72,1.86-.52,0-1-.38-.76-.93.49-1.12,1.63-.72,2.52-.9Z"/><path class="cls-59" d="M198.15,92,200,96C197,95.77,196.68,94.29,198.15,92Z"/></g></g></svg>