<?xml version="1.0" encoding="utf-8"?>
<!-- Generator: Adobe Illustrator 26.0.0, SVG Export Plug-In . SVG Version: 6.00 Build 0)  -->
<svg version="1.1" id="Layer_1" xmlns="http://www.w3.org/2000/svg" xmlns:xlink="http://www.w3.org/1999/xlink" x="0px" y="0px"
	 viewBox="0 0 612 792" style="enable-background:new 0 0 612 792;" xml:space="preserve">
<style type="text/css">
	.st0{fill:#5178A2;}
	.st1{fill:#557BA4;}
	.st2{fill:#4C678D;}
	.st3{fill:#45638E;}
	.st4{fill:#46638D;}
	.st5{fill:#DDC449;}
	.st6{fill:#506788;}
	.st7{fill:#647894;}
	.st8{fill:#586D8B;}
	.st9{fill:#919DAF;}
	.st10{fill:#3F5067;}
	.st11{fill:#BEC0C3;}
	.st12{fill:#F5F5F5;}
	.st13{fill:#E8E8E8;}
	.st14{fill:#FCFCFB;}
	.st15{fill:#FCFCFC;}
</style>
<path class="st0" d="M342.17,340.03c19.96-14.59,45.11-11.25,61.33,8.26c-1.71,1.29-2.64-0.15-3.7-0.99
	c-7-5.57-14.95-9.13-23.74-10.57c-16.52-2.71-29.45,3.18-39.22,16.63c-6.58,9.06-10.62,19.33-14.69,29.61
	c-0.41,1.03-0.89,1.7-1.92,2c-0.87-1.65-0.28-4.26-3.07-4.63l0.04,0.01c0.77-0.76,0.29-1.54-0.04-2.25
	c-15.32-32.85-40-45.01-74.98-32.67c-3.94,1.39-7.39,4.11-11.87,4.01c10.29-8.81,22.6-12.46,35.85-13.43
	c13.98-1.03,26.05,3.56,36.24,13.12c0,0,0.34,0.31,0.34,0.31c7.75,8.28,13.4,17.93,18.21,29.54c4.43-13.94,9.97-25.82,18.42-36.16
	C340.6,342.18,341.57,341.29,342.17,340.03z"/>
<path class="st0" d="M319.41,385.13c0.98,2.81,1.67,1.64,2.59-0.1c2.07-3.94,4.16-7.89,6.44-11.71
	c6.02-10.08,13.4-18.91,23.67-24.96c15.93-9.38,35.07-6.7,47.77,6.65c0.65,0.68,1.55,1.29,1.12,2.52c-1.57,1.04-2.42-0.39-3.41-1.07
	c-18.4-12.8-37.78-11.44-54.28,3.84c-8.01,7.42-13.99,16.29-18.74,26.05c-1.15,2.35-2.27,4.71-3.42,7.09
	c-1.86-0.62-2.02-2.29-2.7-3.52c-4.9-8.9-10.59-17.17-18.14-24.09c-18.2-16.7-43.46-18.64-64.04-4.81
	c-4.18,2.81-8.58,5.31-12.34,8.79c1.59-4.47,5.23-7.04,8.45-10.07c21.93-20.74,53.12-14.17,70.03,2.54
	c4.38,4.32,8.19,9.1,11.63,14.19c0.64,0.94,0.77,2.72,2.66,2.34c0,0-0.04-0.01-0.04-0.01C315.99,381.58,318.11,383.18,319.41,385.13
	z"/>
<path class="st1" d="M320.46,403.82c-15.43-29.25-37.14-42.78-70.38-27.41c20.75-20,49.58-10.72,70.92,22.21
	c1.87-0.67,1.75-2.6,2.34-3.97c4.92-11.33,10.8-22,20.42-30.12c20.4-17.21,40.92-3.14,48.29,11.57l0.02,0.02
	c-2.95-2.59-5.8-5.31-8.88-7.75c-11.79-9.34-25.5-9.67-37.29-0.33c-11.97,9.48-19.63,21.93-23.28,36.8
	C321.7,404.91,320.88,404.77,320.46,403.82z"/>
<path class="st2" d="M266.41,460.69c-3.18,1.42-4.91,0.88-4.89-3.09c0.09-15.51,0.08-31.02-0.01-46.54
	c-0.01-2.44,0.44-3.61,3.16-3.1c1.44,0.27,3.09,0.43,4.42-0.02c5.24-1.76,7.4,1.31,8.4,5.45c2,8.27,2.57,16.58-1.36,24.57
	c-1.25,0.13-1.74,0.87-1.65,2.07c0,0-0.01,0-0.01,0c-9.75-0.23-7.85-0.37-8.01,7.75C266.38,452.09,266.42,456.39,266.41,460.69z
	 M267.25,425.19c1.16,1.6-1.84,6.18,1.88,6.25c4.23,0.08,4.37-4.49,4.22-8.01c-0.05-1.28-0.56-2.53-0.83-3.8
	c-0.48-2.27-2.3-1.33-3.6-1.44c-1.73-0.15-1.64,1.22-1.66,2.37C267.23,421.88,267.25,423.19,267.25,425.19z"/>
<path class="st3" d="M320.11,407.05c0.43,0.96,1.25,1.09,2.16,1.02c4.66-0.46,6.89,2,7.8,6.29c1.52,7.15,1.37,14.24-0.54,21.28
	c-0.47,1.74-1.21,3.43-2.93,4.4c-0.99-0.03-2,0.04-2.98-0.11c-4.34-0.68-5.93,1-5.56,5.46c0.39,4.77,0.09,9.6,0.1,14.4
	c-0.81,0.83-1.58,1.74-2.94,1.12c-0.04-17.66-0.07-35.31-0.1-52.97C316.51,406.17,318.45,407.4,320.11,407.05z M319.41,431.95
	c5.33-1.25,6.52-3.3,6.1-9.14c-0.31-4.28-2.57-5.25-6.26-4.57c-0.14-0.08-0.27-0.21-0.41-0.24c-0.12-0.02-0.38,0.07-0.38,0.11
	C318.53,422.74,316.78,427.5,319.41,431.95z"/>
<path class="st4" d="M348.86,436.97c-0.14,1.92,2.08,4.16,0.48,5.51c-1.45,1.23-3.91,1.37-5.61-0.87c-0.83-1.09-1.63,0.3-2.43,0.67
	c-4.11,1.87-6.79,0.64-8.13-3.72c-2.56-8.3-0.05-14.21,7.75-18.03c1.32-0.65,2.23-1.36,2.14-2.92c-0.06-1.04-0.36-1.97-1.51-2.27
	c-1.3-0.33-2.17,0.16-2.77,1.4c-0.93,1.94-2.73,1.83-4.22,1.13c-1.81-0.85-1.56-2.54-1.12-4.29c0.92-3.67,2.65-6.41,6.81-6.51
	c3.63-0.09,6.93,0.56,7.78,4.95c-0.01,2.47-0.18,4.95,0,7.41C348.43,425.27,346.89,431.21,348.86,436.97z M343.28,430.42
	c-0.85-0.5,0.87-2.85-1.69-2.35c-2.09,0.4-3.57,1.71-3.48,4.06c0.06,1.48,0.42,3.41,2.11,3.35
	C343.09,435.37,342.74,432.68,343.28,430.42z"/>
<path class="st4" d="M380.8,438.99c0.21,1.31,1.95,2.88-0.09,3.85c-1.22,0.58-3.01,0.83-4.11-0.61c-0.9-1.18-1.19-2.05-2.98-0.56
	c-3.33,2.77-6.96,1.42-8.6-2.69c-2.71-6.78-0.54-13.28,5.67-17.1c1.24-0.77,2.5-1.56,3.57-2.54c0.99-0.91,0.76-2.23,0.11-3.2
	c-0.73-1.09-2.24-1.45-2.99-0.45c-1.85,2.44-4.28,4.41-5.98,0.97c-1.42-2.88-0.05-6.55,3.13-8.47c5.36-3.26,10.48-0.54,11.79,6.07
	c-1.15,4.03-0.54,8.16-0.44,12.22C379.98,430.64,378.66,434.97,380.8,438.99z M374.9,427.38c-1.36,0.5-1.96,0.76-2.58,0.94
	c-3.08,0.91-2.58,3.33-2.3,5.57c0.12,0.92,0.81,2.15,1.73,1.85c2.27-0.74,3.16-2.67,3.15-5.01
	C374.9,429.78,374.9,428.82,374.9,427.38z"/>
<path class="st3" d="M303.31,436.98c0.39-0.42,0.5-0.54,0.61-0.65c1.54-1.56,0.71-6.19,4.91-4.26c4.13,1.89,1.78,5.05,0.72,7.59
	c-1.25,3.01-3.93,4.34-7.11,4.33c-3.25-0.01-5.18-2.53-6.08-4.94c-3.46-9.26-3.26-18.7,0.7-27.76c1.89-4.34,8.04-4.58,10.94-0.78
	c3.66,4.8,3.24,10.52,3.38,16.09c0.03,1.25-0.8,1.64-1.92,1.72c-1.3,0.1-2.62,0.17-3.88,0.47
	C298.59,430.46,298.58,430.54,303.31,436.98z M305.75,420.18c-0.62-1.77-0.64-4.72-2.54-4.7c-2.17,0.02-2.79,2.73-2.97,4.88
	c-0.14,1.73,0.51,2.66,2.5,2.63C304.78,422.97,305.78,422.23,305.75,420.18z"/>
<path class="st5" d="M342.17,340.03c-0.6,1.25-1.57,2.15-2.79,2.78c-1.45-1.81-2.92-3.6-4.34-5.43
	c-8.1-10.48-16.55-10.43-24.39,0.26c-1.65,2.26-2.87,4.83-4.34,7.22c-1.02,1.65-1.43,3.77-3.55,4.57c0,0-0.35-0.31-0.34-0.31
	c0.53-8.51,3.54-16.07,9.32-22.3c6.52-7.03,14.85-7.04,21.77-0.43C337.52,330.23,340.09,334.97,342.17,340.03z"/>
<path class="st2" d="M357.73,441.92c-4.58,2.2-5.7,1.73-5.72-2.68c-0.06-9.6,0.08-19.21-0.08-28.81c-0.04-2.48,0.61-3.17,2.98-2.65
	c0.92,0.2,1.96-0.13,2.95-0.25c6.56-0.77,7.7,0.57,5.74,6.94c-0.32,1.05-0.39,1.95-2.38,1.92c-3.39-0.04-2.68,3.49-3.4,5.68
	C356.33,428.69,356.45,435.3,357.73,441.92z"/>
<path class="st4" d="M283.3,409.04c2.78-1.93,5.98,0.85,8.92-0.82c0.74-0.42,2.07,0.85,2.1,2.22c0.05,2.35-0.18,5.44-2.23,6.11
	c-4.22,1.37-3.58,4.46-3.82,7.44c-0.51,6.36,0.69,12.79-0.76,19.11c-3.53-1-4.4-3.25-4.28-6.89
	C283.55,427.17,283.32,418.1,283.3,409.04z"/>
<path class="st6" d="M365.85,467.8c-4.82,2.47-10.05,2.08-12.01-0.9c1.67-5.09-2.47-10.09-0.21-15.18c0.18-1.51,0.51-2.93,2.44-3.73
	c1.45,1.62-0.55,6.41,4.34,5.34c0.6-0.13,0.7,1.97,0.77,3.12c0.15,2.53-0.48,5.16,1.83,7.61c0-2.76-0.02-5.53,0.01-8.29
	c0.01-1.6-0.39-3.65,2.45-2.69C366.4,457.95,365.79,462.88,365.85,467.8z"/>
<path class="st4" d="M324.97,448.13c0.85,2.22-0.57,6.04,4.06,5.76c1.52-0.09,0.98,1.8,1.02,2.84c0.09,2.51,0.03,5.02,0.6,7.55
	c2.15-2.4,1.11-5.24,1.36-7.85c0.15-1.52,0.19-3.44,1.99-3.3c1.75,0.13,0.87,2.14,0.94,3.31c0.15,2.47-0.31,5.02,0.12,7.42
	c0.75,4.11-1.41,5.33-4.66,4.74c-1.82-0.33-3.25-0.7-5.01,0.18c-1.05,0.53-2.24,0.02-2.48-1.53c-0.87-5.59-1.88-11.19-0.54-16.83
	C322.6,449.38,323.56,448.47,324.97,448.13z"/>
<path class="st6" d="M352.03,468.84c-2.89,0.19-6.45,2.04-7.2-2.97c0-2.81,0-5.61,0-8.42c-2.61,3.3-1.34,6.91-1.87,10.33
	c-0.99,0.19-2.9,2.28-2.69-0.37c0.46-5.98-2.31-11.96,0.08-17.9c0.55-1.36,0.87-3.25,2.78-2.85c1.97,0.42,1.34,2.13,1.02,3.54
	c-0.14,0.63-0.26,1.82-0.11,1.87c6.76,2.1,2.62,7.87,4,11.75c0.05,0.15,0.22,0.37,0.3,0.36c0.24-0.04,0.47-0.18,0.71-0.27
	c1.61-2.95,0.81-6.06,0.56-9.13c0.09-0.34,0.18-0.68,0.27-1.01c2.41,0.06,2.25,1.8,2.24,3.44
	C352.09,461.09,352.06,464.97,352.03,468.84z"/>
<path class="st6" d="M367.88,453.49c3.02-1.88,6.46,1.19,9.6-0.85c0.65-0.42,1.85,1.16,2.29,2.26c1.47,3.67,1.52,7.38,0.33,11.14
	c-0.66,2.09-2.34,2.66-4.15,2.85c-2.25,0.24-2.68-1.73-3.04-3.22c-0.59-2.48-0.8-5.05-1.25-8.16c-3.41,3.31-0.05,7.58-2.66,10.38
	C366.55,463.25,368.47,458.27,367.88,453.49z M376.87,456.68c-2.21,3.19-2.26,5.42-0.18,8.07
	C378.38,462.17,378.08,459.97,376.87,456.68z"/>
<path class="st7" d="M377.96,479.69c2.27-0.58,4.33,2.09,6.86,0.21c1.11-0.82,2.3,0.64,1.9,1.82c-0.69,2.06,0.37,3.99,0.01,5.96
	c-0.86,0.25-0.96-1.55-1.83-0.77c-0.33,0.3-0.09,1.23-0.11,1.87c-2.69-0.01-5.11,2.36-7.96,0.86c-0.19-2.59,0.46-5.23-0.48-7.76
	C375.73,480.23,376.67,479.86,377.96,479.69z"/>
<path class="st8" d="M328.62,477.76c-0.23,0.23-0.3,0.5-0.21,0.82c-0.62,1.37-0.15,2.2,1.28,2.54c0,0,0.08,0.03,0.09,0.03
	c0.53,0.93,1.03,1.9,2.2,2.18c-0.66,1.25-0.61,2.5,0.04,3.74c-0.88,0.27-1.58,0.71-1.72,1.72c-2.29,0.3-5.28,3.87-6.59,0.41
	c-1.06-2.81-2.87-7.58,2.24-9.52c1.54-0.58,0.22-3.3,2.56-2.76C328.43,477.22,328.47,477.5,328.62,477.76z"/>
<path class="st7" d="M345.83,482.67c2.07-4.19,8.32-4.11,11.72,0.15c-1.74,0.74-4.52-3.6-5.45,1.11c-0.13,7.44-0.52,7.8-5.97,5.59
	c-0.35-1.25-0.7-2.51-1.05-3.76C345.77,484.83,347.88,484.25,345.83,482.67z"/>
<path class="st9" d="M304.5,485.54c0.65,1.84,0.71,4.03-1.07,4.77c-1.7,0.7-3.91,0.27-5.89,0.15c-0.75-0.04-0.81-0.86-0.72-1.56
	c0.57-4.24-0.43-8.79,2.51-12.63c1.99,0.9-0.12,3.6,1.92,4.45c0.41,0.87,1.29,1.83,1.15,2.59
	C301.97,485.55,301.81,485.52,304.5,485.54z"/>
<path class="st7" d="M277.49,480.97c2.77-2.06,5.9-0.8,8.87-0.93c0.33,0.85,0.66,1.7,0.99,2.56c-0.36,0.03-0.71,0.06-1.07,0.09
	c-0.81,0.05-1.57,0.2-1.97,1.03c-3.25,1.55-2.35,3.73-0.91,5.99c-3.42,1.39-6.36,2.2-5.31-3.46c0.21-1.13-0.43-2.41-0.67-3.63
	C277.45,482.08,277.47,481.52,277.49,480.97z"/>
<path class="st9" d="M372.93,489.51c-1.26,0.12-2.53,0.23-3.79,0.35c-0.71-1.36-2.14-1.6-3.36-2.17c0,0,0.04,0.1,0.04,0.1
	c0.52-1.55-2.17-2.36-0.95-4.08c3.01-1.53,2.52-4.94,4.07-8.3c1.29,3.85,3.51,6.44,2.88,10.06c-0.22,1.26,0.33,2.27,1.92,2.1
	C373.47,488.22,373.2,488.87,372.93,489.51z"/>
<path class="st10" d="M315.11,407.95c0.03,17.66,0.07,35.31,0.1,52.97c-1.66-0.44-1.12-1.83-1.12-2.85
	c-0.04-15.7-0.03-31.4-0.01-47.11C314.09,409.88,313.67,408.57,315.11,407.95z"/>
<path class="st7" d="M317.17,489.53c-3.25,1.98-4.19,0.55-3.92-2.66c0.58,0.3,1.15,0.59,1.73,0.89c0.4-1.46-0.68-1.87-1.66-2.35
	c0-0.28-0.1-0.51-0.3-0.7c-0.05-1-0.1-2.01-0.16-3.01c0.53-1.57,1.33-2.63,3.17-1.59C318.71,482.97,320.03,486,317.17,489.53z"/>
<path class="st11" d="M345.09,485.76c0.35,1.25,0.7,2.51,1.05,3.76c-3.63-0.56-2.8,2.75-4.39,5.96c-1.18-5.84-0.54-10.32-0.62-14.8
	c2.03-0.28,2.5,1.69,3.87,2.07C345.03,483.75,345.06,484.75,345.09,485.76z"/>
<path class="st10" d="M283.3,409.04c0.01,9.06,0.25,18.13-0.07,27.18c-0.13,3.63,0.74,5.89,4.28,6.89c-3.58,1.81-5.32,1.14-5.23-3.3
	c0.18-9.07,0.03-18.15,0.09-27.23C282.38,411.37,281.74,409.88,283.3,409.04z"/>
<path class="st9" d="M261.63,478.19c1.31,0.94,2.62,1.88,3.93,2.83c-0.05,0.59-0.11,1.19-0.16,1.79c-1.96,2.07-0.06,5.08-1.71,7.48
	c-2.52-1.73,0.11-4.95-2.15-6.5c-0.77-1.26-1.73-2.44-2.26-3.8C258.16,477.08,260.27,478.05,261.63,478.19z"/>
<path class="st8" d="M372.93,489.51c0.27-0.65,0.54-1.3,0.81-1.95c0-3.37,0.1-6.71,1-10.03c0.48-1.78,1.27-0.84,2.08-0.61
	c0.27,0.27,0.54,0.54,0.81,0.8c0.11,0.65,0.22,1.3,0.33,1.95c-1.29,0.18-2.23,0.55-1.61,2.19c0.94,2.53,0.29,5.17,0.48,7.76
	C375.5,490.38,374.2,490.64,372.93,489.51z"/>
<path class="st9" d="M317.17,489.53c2.86-3.53,1.54-6.56-1.14-9.42c2.06,0.15,2.14-1.34,2.18-2.75c2.89,2.63,3.13,6.01,2.88,9.54
	C320.92,489.47,320.02,490.96,317.17,489.53z"/>
<path class="st9" d="M310.17,481.43c0.72,0.08,1.45,0.16,2.17,0.24c-0.1,0.99-0.2,1.98-0.3,2.97c-4.57-0.51-1.69,4.1-4.22,5.76
	c0-4.79,0-9.23,0-13.76c2.22,0.73,1,2.77,1.58,4.1C309.37,481.29,309.63,481.52,310.17,481.43z"/>
<path class="st7" d="M334.31,481.41c2.1-1.78,4.29-3.3,3.6,1.41c-0.24,1.67,3.38,4.09-0.83,5.05c-1.47-0.51-2.19-2.31-3.97-2.28
	c-0.03-0.96-0.06-1.91-0.08-2.87C333.46,482.28,333.88,481.84,334.31,481.41z"/>
<path class="st7" d="M364.87,483.72c-1.22,1.72,1.47,2.53,0.95,4.08c-4.67-0.47-6.81-2.56-4.88-7.42c0.34-0.86,0.09-2.16,1.39-2.22
	c1.72-0.07,1.33,1.46,1.57,2.48C364.14,481.69,363.68,482.97,364.87,483.72z"/>
<path class="st6" d="M266.41,460.69c0.01-4.3-0.03-8.6,0.05-12.9c0.16-8.12-1.74-7.98,8.01-7.75c-0.21,0.24-0.43,0.71-0.63,0.7
	c-7.63-0.3-6.55,5.03-6.64,9.89C267.14,453.98,268.2,457.47,266.41,460.69z"/>
<path class="st10" d="M318.15,459.79c0-4.8,0.3-9.63-0.1-14.4c-0.37-4.46,1.22-6.14,5.56-5.46c0.97,0.15,1.98,0.08,2.98,0.11
	c-0.22,0.23-0.45,0.67-0.66,0.67c-7.36-0.19-7.08,4.61-6.87,9.88C319.18,453.61,320.28,456.92,318.15,459.79z"/>
<path class="st8" d="M287.35,482.6c-0.33-0.85-0.66-1.71-0.99-2.56c1.31-0.84,2.38,2.16,4.13-0.02c1.01-1.26,2.01,0.54,2.45,1.75
	c-3.17,0.86-3.69,3.26-3.53,6.06c-0.05,0.79,0.03,1.72-0.95,1.98c-1.35,0.37-1.11-0.76-1.12-1.45
	C287.3,486.45,287.34,484.53,287.35,482.6z"/>
<path class="st11" d="M352.03,468.84c0.03-3.88,0.06-7.76,0.09-11.63c0.01-1.64,0.17-3.37-2.24-3.44c0.18-2.63,2.47-1.44,3.75-2.07
	c-2.26,5.09,1.88,10.1,0.21,15.18C353.24,467.54,352.63,468.19,352.03,468.84z"/>
<path class="st8" d="M261.63,478.19c-1.36-0.15-3.47-1.12-2.34,1.79c0.52,1.35,1.49,2.54,2.26,3.8c-3.12,0.84-3.1,3.56-4.1,6
	c0-3.83-0.02-7.65,0.02-11.48c0.01-0.93-0.18-2.13,1.18-2.33C260.3,475.73,261.63,476.11,261.63,478.19z"/>
<path class="st9" d="M352.11,483.93c0.93-4.72,3.71-0.37,5.45-1.11c0.12,1.96,0.29,3.92,0.33,5.89c0.04,1.92-1.5,2.23-2.74,1.86
	c-2-0.59-0.29-1.46-0.06-2.4C355.63,485.93,355.77,483.45,352.11,483.93z"/>
<path class="st12" d="M333.12,485.58c1.78-0.03,2.5,1.77,3.97,2.28c0.41,0.9,2.34,1.08,1.36,2.63c-0.8,1.26-1.78,1-2.87,0.24
	c-1.57-1.11-4.13,0.4-5.28-1.93c0.13-1.01,0.84-1.45,1.72-1.72C333.44,487.36,332.92,486.21,333.12,485.58z"/>
<path class="st9" d="M289.42,487.84c-0.16-2.8,0.36-5.2,3.53-6.06c0.13,1.62,0.4,3.25,0.35,4.87c-0.04,1.21,0.8,2.95-0.71,3.55
	C290.7,490.96,290.46,488.69,289.42,487.84z"/>
<path class="st7" d="M265.4,482.8c0.05-0.6,0.11-1.19,0.16-1.79c1.64-1.85,2.99-1.91,3.91,0.65c-0.3,1.82,1.77,3.62,0.07,5.46
	c-1.4,1.04-2.2,0.32-2.05-1.05C267.69,484.25,266.17,483.84,265.4,482.8z"/>
<path class="st8" d="M380.8,438.99c-2.14-4.03-0.82-8.35-0.93-12.53c-0.1-4.06-0.72-8.19,0.44-12.22
	C381.35,422.48,380.49,430.75,380.8,438.99z"/>
<path class="st6" d="M348.86,436.97c-1.97-5.76-0.42-11.7-0.85-17.54c-0.18-2.46-0.01-4.94,0-7.41
	C350.03,420.28,348.62,428.65,348.86,436.97z"/>
<path class="st9" d="M269.54,487.13c1.7-1.84-0.36-3.64-0.07-5.46c0.86,0.08,1.71,0.17,2.56,0.25c1.86,2.42,3.17,4.78-0.58,6.73
	C270.63,488.38,269.77,488.15,269.54,487.13z"/>
<path class="st7" d="M304.5,485.54c-2.69-0.02-2.53,0.01-2.11-2.23c0.14-0.77-0.73-1.72-1.15-2.59
	C304.47,479.88,304.8,480.37,304.5,485.54z"/>
<path class="st9" d="M277.49,480.97c-0.02,0.55-0.04,1.11-0.06,1.66c-1.74,1.13-0.88,2.88-1.01,4.37c-0.14,1.54,0.33,3.37-2.07,3.57
	c0.1-3.35,0.2-6.71,0.31-10.06C275.6,480.67,276.54,480.82,277.49,480.97z"/>
<path class="st6" d="M357.73,441.92c-1.29-6.61-1.4-13.22,0.09-19.83C357.79,428.7,357.76,435.31,357.73,441.92z"/>
<path class="st13" d="M342.96,467.79c0.54-3.41-0.74-7.03,1.87-10.33c0,2.81,0,5.61,0,8.42
	C344.2,466.52,343.58,467.15,342.96,467.79z"/>
<path class="st7" d="M274.65,480.51c-0.1,3.35-0.2,6.71-0.31,10.06c0,0-0.02,0.04-0.02,0.04c-0.97-0.3-1.92,0.99-2.9,0.05
	c0.01-0.68,0.02-1.35,0.03-2.03c3.74-1.94,2.44-4.31,0.58-6.73c-0.48-0.53-0.34-0.96,0.24-1.3c0.76-0.04,1.52-0.08,2.28-0.12
	L274.65,480.51z"/>
<path class="st8" d="M367.88,453.49c0.59,4.78-1.33,9.76,1.12,14.4c-0.8,1.48-1.56,1.14-2.31-0.05c0.09-4.97,0.19-9.93,0.28-14.9
	C367.28,453.12,367.58,453.3,367.88,453.49z"/>
<path class="st1" d="M227.25,352.97c-1.84,1.49-3.68,2.98-5.52,4.47c0.55-2.79,2.24-4.46,4.46-5.66
	C226.54,352.18,226.89,352.58,227.25,352.97z"/>
<path class="st9" d="M284.32,483.72c0.4-0.83,1.16-0.99,1.97-1.03c-0.01,2.1,0.09,4.21-0.06,6.3c-0.09,1.27-0.82,1.68-1.87,0.63
	C284.34,487.65,284.33,485.69,284.32,483.72z"/>
<path class="st12" d="M334.31,481.41c-0.43,0.43-0.85,0.87-1.28,1.3c-0.35,0.21-0.71,0.42-1.06,0.62c-1.18-0.28-1.67-1.25-2.2-2.18
	C331.27,481.35,333.12,475.56,334.31,481.41z"/>
<path class="st13" d="M366.98,452.94c-0.09,4.97-0.19,9.93-0.28,14.9c-0.28,0.01-0.56-0.01-0.84-0.04
	c-0.06-4.91,0.55-9.84-0.38-14.73C365.97,453.03,366.48,452.98,366.98,452.94z"/>
<path class="st8" d="M284.32,483.72c0.01,1.97,0.02,3.93,0.03,5.9c-0.31,0.06-0.62,0.09-0.94,0.09
	C281.97,487.45,281.07,485.27,284.32,483.72z"/>
<path class="st13" d="M384.78,488.77c0.02-0.64-0.22-1.57,0.11-1.87c0.87-0.78,0.97,1.02,1.83,0.77c1.93,2.05-0.89,2.07-1.33,3.12
	C384.44,490.35,384.88,489.48,384.78,488.77z"/>
<path class="st11" d="M349.62,454.79c0.24,3.07,1.05,6.17-0.56,9.13C349.21,460.87,348.38,457.77,349.62,454.79z"/>
<path class="st9" d="M271.43,490.67c0.98,0.94,1.93-0.35,2.9-0.05c-0.22,3.15-2.39,2.35-3.81,1.47
	C269.41,491.41,270.78,490.97,271.43,490.67z"/>
<path class="st8" d="M365.78,487.7c1.22,0.56,2.65,0.81,3.36,2.17c0,0-0.1,0.07-0.1,0.07c-0.41,0.2-0.82,0.41-1.23,0.61
	C366.33,490.16,365.84,489.08,365.78,487.7z"/>
<path class="st12" d="M329.68,481.12c-1.43-0.35-1.89-1.17-1.28-2.54C329.69,478.99,330.1,479.85,329.68,481.12z"/>
<path class="st9" d="M345.09,485.76c-0.03-1-0.06-2.01-0.09-3.01c0.27-0.07,0.55-0.09,0.83-0.07
	C347.88,484.25,345.77,484.83,345.09,485.76z"/>
<path class="st13" d="M313.33,485.42c0.98,0.48,2.06,0.89,1.66,2.35c-0.58-0.3-1.15-0.59-1.73-0.89
	C313.28,486.39,313.31,485.9,313.33,485.42z"/>
<path class="st12" d="M312.04,484.64c0.1-0.99,0.2-1.98,0.3-2.97c0.18,0.01,0.35,0.02,0.53,0.03c0.05,1,0.1,2.01,0.16,3.01
	C312.7,484.71,312.37,484.68,312.04,484.64z"/>
<path class="st6" d="M274.49,440.05c-0.09-1.2,0.39-1.94,1.65-2.07C275.89,438.91,275.46,439.69,274.49,440.05z"/>
<path class="st9" d="M274.56,480.5c-0.76,0.04-1.52,0.08-2.28,0.12C272.99,479.58,273.74,479.49,274.56,480.5z"/>
<path class="st12" d="M310.17,481.43c-0.53,0.08-0.8-0.14-0.77-0.69C309.65,480.98,309.91,481.21,310.17,481.43z"/>
<path class="st7" d="M377.63,477.74c-0.27-0.27-0.54-0.54-0.81-0.8C377.46,476.83,377.73,477.1,377.63,477.74z"/>
<polygon class="st1" points="391.7,379.33 391.84,379.45 391.72,379.35 "/>
<path class="st12" d="M328.62,477.76c-0.15-0.26-0.18-0.54-0.12-0.84c0.26,0.16,0.53,0.31,0.79,0.47
	C329.07,477.52,328.84,477.64,328.62,477.76z"/>
<path class="st9" d="M367.81,490.54c0.41-0.2,0.82-0.41,1.23-0.61C368.63,490.13,368.22,490.34,367.81,490.54z"/>
<path class="st1" d="M226.19,351.79c0.49-0.3,0.96-0.98,1.55-0.3c0.59,0.67-0.11,1.06-0.5,1.49
	C226.89,352.58,226.54,352.18,226.19,351.79z"/>
<path class="st14" d="M302.76,349.44c2.11-0.8,2.53-2.93,3.55-4.57c1.48-2.39,2.69-4.97,4.34-7.22
	c7.84-10.69,16.29-10.74,24.39-0.26c1.42,1.83,2.89,3.62,4.34,5.43c-8.45,10.34-13.99,22.22-18.42,36.17
	C316.16,367.37,310.5,357.72,302.76,349.44z"/>
<path class="st12" d="M267.25,425.19c0-2-0.02-3.32,0.01-4.63c0.02-1.15-0.07-2.52,1.66-2.37c1.3,0.11,3.12-0.83,3.6,1.44
	c0.27,1.27,0.78,2.53,0.83,3.8c0.14,3.52,0,8.09-4.22,8.01C265.41,431.38,268.41,426.79,267.25,425.19z"/>
<path class="st12" d="M319.24,418.24c3.7-0.68,5.95,0.29,6.26,4.57c0.43,5.85-0.76,7.9-6.1,9.14
	C319.36,427.38,319.3,422.81,319.24,418.24z"/>
<path class="st10" d="M319.24,418.24c0.06,4.57,0.11,9.14,0.17,13.72c-2.63-4.45-0.88-9.21-0.96-13.85c0-0.04,0.26-0.13,0.38-0.11
	C318.98,418.03,319.11,418.15,319.24,418.24z"/>
<path class="st13" d="M343.28,430.42c-0.53,2.25-0.19,4.94-3.06,5.05c-1.7,0.06-2.06-1.87-2.11-3.35c-0.09-2.35,1.39-3.66,3.48-4.06
	C344.15,427.57,342.43,429.92,343.28,430.42z"/>
<path class="st13" d="M374.9,427.38c0,1.43,0,2.39,0,3.36c0.01,2.34-0.88,4.27-3.15,5.01c-0.92,0.3-1.61-0.93-1.73-1.85
	c-0.28-2.25-0.78-4.67,2.3-5.57C372.94,428.14,373.54,427.88,374.9,427.38z"/>
<path class="st13" d="M305.75,420.18c0.02,2.05-0.98,2.79-3,2.82c-1.99,0.03-2.64-0.9-2.5-2.63c0.18-2.15,0.8-4.86,2.97-4.88
	C305.12,415.46,305.14,418.41,305.75,420.18z"/>
<path class="st13" d="M376.87,456.68c1.21,3.3,1.52,5.5-0.18,8.07C374.61,462.1,374.66,459.86,376.87,456.68z"/>
<path class="st15" d="M331.97,483.33c0.35-0.21,0.71-0.42,1.06-0.62c0.03,0.96,0.06,1.91,0.08,2.87c-0.19,0.63,0.32,1.78-1.1,1.49
	C331.37,485.83,331.31,484.59,331.97,483.33z"/>
</svg>
