<?xml version="1.0" encoding="utf-8"?>
<!-- Generator: Adobe Illustrator 26.0.0, SVG Export Plug-In . SVG Version: 6.00 Build 0)  -->
<svg version="1.1" id="Capa_1" xmlns="http://www.w3.org/2000/svg" xmlns:xlink="http://www.w3.org/1999/xlink" x="0px" y="0px"
	 viewBox="0 0 1417.3 841.9" style="enable-background:new 0 0 1417.3 841.9;" xml:space="preserve">
<path d="M812.3,638.8c0,7.5,0,14.9,0,23c-7.6,0-15,0-22.7,0c0,7.8,0,15.1,0,22.9c7.3,0,14.7,0,22.4,0c0,7.9,0,15.3,0,22.9
	c-22.8,0-45.4,0-68.5,0c0-7.4,0-14.8,0-22.5c-7.8,0-15.1,0-22.9,0c0,7.2,0,14.6,0,22.4c-38.6,0-76.7,0-115,0c0-7.3,0-14.6,0-22.4
	c15,0,30,0,45.6,0c0-7.9,0-15.3,0-23.1c7.8,0,15.1,0,22.7,0c0-7.8,0-15.1,0-23.1c-22.7,0-45.4,0-68.5,0c0-38.5,0-76.4,0-114.9
	c-23.1,0-45.8,0-68.8,0c0-7.8,0-15.1,0-22.9c14.9,0,30,0,45.8,0c0-8.1,0-15.7,0-23.3l-0.1,0.1c7.6,0,15.2,0,23.2,0
	c0,7.9,0,15.3,0,22.6c15.5,0,30.6,0,45.9,0c0-7.8,0-15.3,0-22.7l-0.1,0.1c7.6,0,15.2,0,23.2,0c0,15.6,0,30.6,0,46.1
	c7.9,0,15.2,0,22.9,0c0,8,0,15.4,0,22.9c-7.6,0-15.2,0-22.7,0c0,7.9,0,15.3,0,22.9c7.8,0,15.3,0,22.7,0c0,7.6,0,15.2,0,23.3
	c-15.8,0-30.8,0-45.7,0c0,7.9,0,15.3,0,23c15.3,0,30.2,0,45.7,0c0,15.4,0,30.4,0,45.5c15.6,0,30.6,0,45.8,0c0-7.8,0-15.3,0-22.7
	c7.6,0,15.1,0,22.7,0c0-7.9,0-15.3,0-22.6c-7.7,0-15.1,0-22.6,0c0,7.8,0,15.3,0,22.7c-7.6,0-15.2,0-22.7,0c0-15.8,0-30.9,0-46.3
	c7.7,0,14.9,0,22.3,0c0-23.1,0-45.8,0-69c-7.7,0-15.1,0-22.4,0c0-7.8,0-15.1,0-22.9c7.7,0,15.1,0,23,0c0-7.9,0-15.3,0-23.2
	c8,0,15.5,0,23,0c0,7.7,0,15.4,0,23.2c8,0,15.4,0,22.8,0c0,7.6,0,15.2,0,23c8.1,0,15.5,0,23,0c0,7.6,0,15.2,0,22.7
	c23.3,0,46,0,69.1,0c0-15.3,0-30.3,0-45.8c15.4,0,30.5,0,45.5,0c0-7.8,0-15.1,0-22.9c-7.6,0-15,0-22.9,0c0-7.9,0-15.3,0-22.7
	c-7.8,0-15.1,0-22.9,0c0,7.6,0,15,0,22.8c-23.4,0-46.2,0-69,0c0-7.6,0-15.2,0-22.7c-7.9,0-15.3,0-22.9,0c0,7.8,0,15.3,0,22.7
	c-7.7-0.1-15.3-0.1-23-0.2c-0.1-15.3-0.1-30.6-0.2-45.9c7.6,0,15.2,0,23.1,0c0-15.7,0-30.9,0-46l-0.1,0.1c7.6,0,15.2,0,23.2,0
	c0,15.6,0,30.6,0,45.6c15.5,0,30.5,0,45.9,0c0-7.8,0-15.3,0-22.7l-0.1,0.1c15.4,0,30.8,0,46.1,0l-0.1-0.1c0,7.6,0,15.2,0,23.3
	c8.1,0,15.5,0,23.4,0c0,7.9,0,15.3,0,23c7.8,0,15,0,22.8,0c0,7.7,0,15.1,0,22.5c15.6,0,30.6,0,45.8,0c0-7.8,0-15.3,0-22.7
	c7.7,0,15.4,0.1,23.1,0.1l-0.1-0.1c0,7.5,0,14.9,0,23c7.8,0,15.2,0,22.9,0c0,7.8,0,15.1,0,22.9c7.7,0,15.1,0,22.8,0
	c0,7.9,0,15.3,0,23.1c-15.1,0-30,0-45.5,0c0,15.4,0,30.5,0,46.1c-7.9,0-15.3,0-22.9,0c0,7.8,0,15.1,0,22.9c7.4,0,14.8,0,22.4,0
	c0,7.9,0,15.3,0,23.1c-15.1,0-30.1,0-45.3,0c0,7.7,0,15.1,0,22.9c7.3,0,14.6,0,22.4,0c0,7.7,0,15.1,0,22.9c7.9,0,15.3,0,23.1,0
	c0-7.3,0-14.6,0-22.4c15.4,0,30.5,0,46.3,0c0-8.1,0-15.7,0-23.3l-0.1,0.1c7.5,0,14.9,0,22.7,0c0,23,0,45.7,0,68.7
	c-7.4,0-14.7,0-22.5,0c0-7.3,0-14.7,0-22.4c-7.9,0-15.3,0-23.1,0c0,7.4,0,14.7,0,22.5c-7.7,0-15.1,0-22.9,0c0,7.8,0,15.1,0,22.8
	c-15.4,0-30.5,0-46.1,0c0-14.9,0-30,0-45.4c-7.8,0-15.1,0-22.9,0c0-15.4,0-30.5,0-46.3c-38.8,0-77.1,0-115.3,0l0.1,0.1
	c-0.1-7.7-0.1-15.4-0.2-23.1c7.6,0,15.1,0,22.7,0c0-7.9,0-15.3,0-22.6c-7.7,0-15.1,0-22.6,0c0,7.8,0,15.3,0,22.7
	c-7.6,0-15.2,0-23.3,0c0-8.1,0-15.5,0-22.7c-15.6,0-30.6,0-45.5,0c0,7.7,0,14.9,0,22.7c7.6,0,15,0,22.9,0c0,15.6,0,30.6,0,46
	c8,0,15.4,0,22.9,0L812.3,638.8z M973,592.7c0-23.1,0-45.8,0-68.4c-23.1,0-45.8,0-68.4,0c0,23,0,45.6,0,68.4
	C927.5,592.7,950.1,592.7,973,592.7z M651,569.7c0-7.8,0-15.2,0-22.4c-7.7,0-15.1,0-22.4,0c0,7.7,0,14.9,0,22.4
	C636.2,569.7,643.5,569.7,651,569.7z"/>
<path d="M536.5,271c-22.8,0-45.6,0-68.7,0c0-7.8,0-15.2,0-22.9c7.4,0,14.6,0,22.5,0c0-7.7,0-15.1,0-23.1c54.1,0,107.7,0,161.3,0
	l-0.1-0.1c0,7.7,0.1,15.4,0.1,23.1c-7.6,0-15.2,0-22.7,0c0,7.9,0,15.3,0,22.9c7.8,0,15.3,0,22.7,0c0,7.7,0,15.4,0,23.1
	c-15.2,0-30.5,0-45.7,0c0,7.9,0,15.3,0,22.9c15.5,0,30.6,0,45.7,0c0,7.6,0,15.1,0,22.7c7.9,0,15.3,0,22.6,0c0-7.7,0-15.1,0-22.6
	c-7.8,0-15.3,0-22.7,0c0-7.7,0-15.4,0-23.1c22.9,0,45.8,0,69.2,0c0,23.4,0,46.1,0,69.3c7.9,0,15.3,0,22.6,0c0,7.8,0,15.1,0,22.9
	c-7.6,0-15,0-22.4,0c0,15.6,0,30.6,0,45.9c7.8,0,15.3,0,22.7,0c0,7.6,0,15.2,0,22.7c-15.8,0-30.8,0-46.2,0c0-23,0-45.5,0-68.7
	c-7.7,0-15.1,0-23,0c0-7.9,0-15.3,0-22.5c-7.9,0-15.3,0-23,0c0,7.7,0,14.9,0,22.2c-7.8,0-15.1,0-23,0c0-15.4,0-30.4,0-45.4
	c-7.8,0-15.1,0-22.9,0c0,7.7,0,15,0,22.8c-8,0-15.5,0-22.9,0c0-7.6,0-15.2,0-23.3c-8,0-15.3,0-22.7,0c0-7.8,0-15.1,0-22.9
	c7.6,0,15,0,22.4,0c0-7.9,0-15.3,0-23c-15.5,0-30.6,0-45.7,0l0.1,0.1C536.6,286.3,536.6,278.6,536.5,271c22.9-0.1,45.8-0.1,68.7-0.1
	c0-7.9,0-15.3,0-22.6c-23,0-45.7,0-68.6,0C536.5,256,536.5,263.5,536.5,271z"/>
<path d="M743.3,63.8c7.5,0,14.9,0,22.9,0c0,15.4,0,30.5,0,46c7.9,0,15.3,0,22.9,0c0,7.8,0,15.1,0,22.8c-15,0-30.1,0-45.8,0
	c0,8.1,0,15.7,0,23.3l0.1-0.1c-7.6,0-15.2,0-22.7,0c0,15.7,0,30.8,0,46.1c7.8,0,15.3,0,22.7,0l-0.1-0.1c0,7.6,0,15.2,0,23.3
	c-8,0-15.4,0-23.1,0c0,15.5,0,30.4,0,45.5c-7.7,0-15.1,0-23,0c0-15.3,0-30.4,0-45.8c-15.7,0-30.8,0-45.9,0l0.1,0.1
	c0-15.1,0-30.3,0-46.2c-7.9,0-15.5,0-23.1,0l0.1,0.1c0-7.5,0-14.9,0-22.9c-7.8,0-15.2,0-22.8,0c0-7.8,0-15.1,0-22.9
	c15,0,30,0,45.8,0c0-8.1,0-15.7,0-23.3l-0.1,0.1c15.4-0.1,30.7-0.1,46.1-0.2c0,7.6,0,15.1,0,22.7c7.9,0,15.3,0,22.6,0
	c0-7.7,0-15.1,0-22.6c-7.8,0-15.3,0-22.7,0c0-22.8,0-45.6,0-68.7c15.4,0,30.4,0,46.2,0c0,7.5,0,15.1,0,22.7c-7.6,0-15.1,0-22.7,0
	c0,7.9,0,15.3,0,22.6c7.7,0,15.1,0,22.6,0C743.3,78.7,743.3,71.3,743.3,63.8z M697,201.7c0-15.4,0-30.5,0-45.4c-7.7,0-15.1,0-22.4,0
	c0,15.3,0,30.2,0,45.4C682.2,201.7,689.4,201.7,697,201.7z"/>
<path d="M582,201.7c-53.6,0-106.9,0-160.4,0c0-53.5,0-106.7,0-160.4c53.3,0,106.7,0,160.4,0C582,94.5,582,147.9,582,201.7z
	 M559,178.7c0-38.5,0-76.5,0-114.4c-38.4,0-76.4,0-114.4,0c0,38.3,0,76.2,0,114.4C482.9,178.7,520.8,178.7,559,178.7z"/>
<path d="M927.6,201.5c0-53.6,0-106.8,0-160.4c53.5,0,106.7,0,160.4,0c0,53.3,0,106.6,0,160.4C1034.8,201.5,981.4,201.5,927.6,201.5z
	 M950.6,178.5c38.4,0,76.5,0,114.4,0c0-38.4,0-76.4,0-114.4c-38.3,0-76.2,0-114.4,0C950.6,102.3,950.6,140.3,950.6,178.5z"/>
<path d="M835.3,270.8c0,7.5,0,14.9,0,22.9c23.1,0,45.8,0,69,0c0,31.1,0,61.6,0,92.2l0.1-0.1c-15.3,0-30.5,0-46.1,0
	c0,8.2,0,15.7,0,23.1l0.1-0.1c-7.6,0-15.2,0-22.7,0c0-15.7,0-30.7,0-46.1c15.3,0,30.3,0,45.2,0c0-15.4,0-30.5,0-45.5
	c-15.3,0-30.2,0-45.7,0c0,7.6,0,15,0,22.4c-7.9,0-15.3,0-23.1,0c0-7.6,0-14.9,0-22.3c-7.8,0-15.1,0-22.9,0c0,23.1,0,45.9,0,68.7
	l0.1-0.1c-7.6,0-15.2,0-23.3,0c0-15.7,0-30.7,0-46.1c-7.8,0-15.1,0-22.4,0c0-7.8,0-15.2,0-22.9c7.6,0,14.9,0,22.3,0
	c0-7.8,0-15.1,0-23.1c-7.7,0-15.1,0-22.4,0c0-7.8,0-15.1,0-22.9c7.6,0,15,0,22.8,0c0-23.4,0-46.2,0-69l-0.1,0.1c7.7,0,15.4,0,23.1,0
	l-0.1-0.1c0,15.3,0,30.5,0,46c8.2,0,15.7,0,23.1,0c-0.1,7.7-0.1,15.3-0.2,23c-7.6,0-15.1,0-22.5,0c0,8.2,0,15.6,0,22.8
	c7.6,0,14.9,0,22.3,0c0-7.8,0-15.4,0-23c7.8,0.1,15.6,0.2,23.3,0.3L835.3,270.8z"/>
<path d="M421.7,547.1c53.6,0,106.9,0,160.4,0c0,53.5,0,106.7,0,160.4c-53.3,0-106.7,0-160.4,0C421.7,654.2,421.7,600.9,421.7,547.1z
	 M444.6,684.5c38.5,0,76.5,0,114.4,0c0-38.4,0-76.4,0-114.4c-38.3,0-76.2,0-114.4,0C444.6,608.4,444.6,646.3,444.6,684.5z"/>
<path d="M950.3,293.8c0,15.1,0,30.3,0,45.7c38.5,0,76.5,0,114.9,0c0-15.1,0-30,0-45.3c7.8,0,15.1,0,22.8,0c0,38,0,76.1,0,114.4
	c-7.4,0-14.7,0-22.5,0c0-15.1,0-30.1,0-45.5c-7.8,0-15.1,0-22.9,0c0,14.9,0,30,0,45.6c-8.1,0-15.7,0-23.3,0l0.1,0.1
	c0-15.3,0-30.5,0-45.7c-8.1,0-15.5,0-23.2,0c0,7.7,0,14.9,0,22.7c-15.4,0-30.5,0-45.8,0c0,8,0,15.5,0,23c-15.4,0-30.8-0.1-46.1-0.1
	l0.1,0.1c0-7.7,0-15.4,0-23.1l-0.1,0.1c7.5,0,14.9,0,22.9,0c0-30.7,0-61.1,0-92c8.1,0,15.7,0,23.2,0L950.3,293.8z"/>
<path d="M444.5,385.8c-7.5,0-14.9,0-22.7,0c0-15.3,0-30.3,0-45.7c7.3,0,14.6,0,22.3,0c0-7.7,0-15.1,0-23.1c-7.2,0-14.6,0-22.3,0
	c0-15.6,0-30.6,0-45.9c7.5,0,14.7,0,22.5,0c0,7.4,0,14.8,0,22.8c31.1,0,61.7,0,92.3,0l-0.1-0.1c0,7.6,0,15.2,0,23.3
	c-23.3,0-46,0-68.5,0c0,7.9,0,15.3,0,23c23,0,45.6,0,68.3,0c0,7.7,0,15.1,0,23c-15.3,0-30.4,0-45.8,0c0,8,0,15.5,0,22.9l0.1-0.1
	c-7.7,0-15.4,0-23.1,0l0.1,0.1c0-7.6,0-15.2,0-22.7c-8.1,0-15.4,0-23.1,0c0,7.8,0,15.3,0,22.7L444.5,385.8z"/>
<path d="M444.3,408.8c0,15.1,0,30.3,0,45.9c7.8,0,15.2,0,22.9,0c0,7.8,0,15.1,0,22.7c7.7,0,15.1,0,23.1,0c0-7.3,0-14.7,0-22.3
	c7.8,0,15.1,0,22.7,0c0,14.9,0,30,0,45.6c-7.2,0-14.6,0-22.4,0c0,7.8,0,15.1,0,22.7c-23.1,0-45.8,0-68.8,0c0-37.9,0-75.9,0-114.5
	c7.5,0,15.1,0,22.7,0L444.3,408.8z"/>
<path d="M835.2,639.2c15.1,0,30.3,0,45.8,0c0,7.3,0,14.6,0,22.6c-7.2,0-14.6,0-22.3,0c0,7.8,0,15.1,0,22.7c14.9,0,30,0,45.5,0
	c0-14.9,0-30,0-45.3c7.9,0,15.3,0,23,0c0,15.1,0,30,0,45.5c7.7,0,15.1,0,22.8,0c0,7.9,0,15.3,0,22.9c-38.1,0-76,0-114.8,0
	c0-22.8,0-45.7,0-68.6C835.3,639,835.2,639.2,835.2,639.2z"/>
<path d="M881.3,132.8c0,7.5,0,14.9,0,22.9c-7.6,0-15,0-23,0c0,15.8,0,31,0,46.2l0.1-0.1c-7.6,0-15.2,0-23.3,0c0-8,0-15.4,0-22.7
	c-7.8,0-15.1,0-22.9,0c0,7.7,0,15,0,22.7c-8,0-15.5,0-23,0l0.1,0.1c0-15.1,0-30.2,0-45.9c15.2,0,30.3,0,46,0c0-8.1,0-15.7,0-23.3
	l-0.1,0.1C850.6,132.8,866,132.8,881.3,132.8L881.3,132.8z"/>
<path d="M950.5,294c0-15.1,0-30.3,0-45.9c7.6,0,15,0,22.9,0c0-7.9,0-15.3,0-22.9c7.8,0,15.1,0,22.8,0c0,22.7,0,45.4,0,68.8
	c8.1,0,15.7,0,23.3,0l-0.1-0.1c0,7.5,0,14.9,0,22.7c-15.2,0-30.2,0-45.8,0c0-7.3,0-14.7,0-22.7c-8.1,0-15.7,0-23.2,0
	C950.3,293.8,950.5,294,950.5,294z"/>
<path d="M582.5,455c0-7.5,0-14.9,0-22.9c-7.7,0-15.1,0-23,0c0-8.1,0-15.7,0-23.2l-0.1,0.1c22.9,0,45.8,0,69.2,0c0,7.9,0,15.3,0,23
	c8,0,15.5,0,22.9,0l-0.1-0.1c0,15.4,0,30.7,0,46.1l0.1-0.1c-7.6,0-15.2,0-23.3,0c0-7.9,0-15.3,0-23c-15.6,0-30.8,0-45.9,0L582.5,455
	z"/>
<path d="M1019.5,294c0-22.8,0-45.6,0-68.7c22.9,0,45.7,0,68.7,0c0,7.3,0,14.6,0,22.4c-7.3,0-14.6,0-22.6,0c0,7.9,0,15.3,0,23.1
	c-7.8,0-15.1,0-22.9,0c0,7.7,0,15.1,0,23.1c-8.1,0-15.7,0-23.3,0C1019.3,293.8,1019.5,294,1019.5,294z"/>
<path d="M559.5,408.8c-7.5,0-14.9,0-22.9,0c0,7.7,0,15.1,0,22.8c-23.2,0-45.9,0-69.1,0c0-7.6,0-15.2,0-22.8l-0.1,0.1
	c7.6,0,15.2,0,23.1,0c0-8.2,0-15.7,0-23.1l-0.1,0.1c23,0,46.1-0.1,69.1-0.1c0,7.7-0.1,15.4-0.1,23.1L559.5,408.8z"/>
<path d="M651.5,109.8c-15.1,0-30.3,0-45.7,0c0-23,0-45.7,0-68.7c15,0,29.9,0,45.3,0c0,7.3,0,14.6,0,22.6c-7.3,0-14.7,0-22.3,0
	c0,7.8,0,15.1,0,22.9c7.3,0,14.7,0,22.7,0c0,8.1,0,15.7,0,23.3C651.3,110,651.5,109.8,651.5,109.8z"/>
<path d="M835.6,86.6c-15.3,0-30.5,0-46,0c0-7.5,0-14.7,0-22.5c7.4,0,14.8,0,22.7,0c0-7.9,0-15.3,0-22.9c7.8,0,15.1,0,23.2,0
	c0,15.2,0,30.4,0,45.6C835.5,86.8,835.6,86.6,835.6,86.6z"/>
<path d="M835.5,110c0-7.8,0.1-15.6,0.2-23.3l-0.1,0.2c7.5,0,14.9,0,22.7,0c0-7.6,0-14.8,0-22.5c7.7,0,15.1,0,23.1,0
	c0,15.2,0,30.4,0,45.7l0.1-0.1C866.1,110,850.7,110,835.5,110L835.5,110z"/>
<path d="M743.3,156c7.5,0,14.9,0,23,0c0,15.5,0,30.8,0,46l0.1-0.1c-7.7,0-15.4,0-23.1,0l0.1,0.1c0-15.4,0-30.8,0-46.1L743.3,156z"/>
<path d="M881.3,201.8c0,15.1,0,30.3,0,46c-7.8,0-15.4,0-23,0l0.1,0.1c0-15.4,0-30.8,0-46.1l-0.1,0.1
	C866,201.9,873.7,201.9,881.3,201.8L881.3,201.8z"/>
<path d="M927.2,225.1c0,15.3,0,30.2,0,45.4c-7.5,0-14.9,0-22.5,0c0-15.1,0-30.1,0-45.4C912.1,225.1,919.4,225.1,927.2,225.1z"/>
<path d="M1019.3,432c15.1,0,30.3,0,46,0c0,7.8,0,15.4,0,23l0.1-0.1c-15.4,0-30.8,0-46.1,0l0.1,0.1c0-7.7,0-15.4,0-23.1L1019.3,432z"
	/>
<path d="M582.5,477.8c-15.1,0-30.2,0-45.7,0c0-7.6,0-14.9,0-22.9c15.2,0,30.5,0,45.7,0l-0.1-0.1
	C582.4,462.5,582.4,470.2,582.5,477.8L582.5,477.8z"/>
<path d="M444.5,409c0-7.7,0-15.4,0-23.2l-0.1,0.1c7.7,0,15.4,0,23.1,0l-0.1-0.1c0,7.7,0,15.4,0,23.1l0.1-0.1c-7.7,0-15.4,0-23.2,0
	L444.5,409z"/>
<path d="M1019.3,408.8c0,7.7,0,15.4,0,23.2l0.1-0.1c-7.7,0-15.4,0.1-23.1,0.1c0-7.6,0-15.2,0-23c8.2,0,15.7,0,23.1,0L1019.3,408.8z"
	/>
<path d="M835.5,132.8c-7.5,0-14.9,0-22.7,0c0-7.6,0-14.9,0-22.9c7.6,0,15.1,0,22.7,0l-0.1-0.1c0,7.7,0,15.4,0,23.1L835.5,132.8z"/>
<path d="M881.3,110c7.5,0,14.9,0,22.7,0c0,7.6,0,14.9,0,22.9c-7.6,0-15.1,0-22.7,0l0.1,0.1c0-7.7,0-15.4,0-23.1L881.3,110z"/>
<path d="M1065.3,454.9c7.5,0,14.9,0,22.7,0c0,7.5,0,14.9,0,22.6c-7.3,0-14.7,0-22.6,0c0-7.6,0-15.2,0-22.7
	C1065.5,454.8,1065.3,454.9,1065.3,454.9z"/>
<path d="M628.3,178.8c0,7.5,0,14.9,0,22.7c-7.5,0-14.9,0-22.6,0c0-7.3,0-14.7,0-22.6c7.6,0,15.2,0,22.7,0
	C628.5,178.9,628.3,178.8,628.3,178.8z"/>
<path d="M881.5,202c0-7.5,0-14.9,0-22.7c7.5,0,14.9,0,22.6,0c0,7.3,0,14.7,0,22.6c-7.6,0-15.2,0-22.8,0
	C881.3,201.8,881.5,202,881.5,202z"/>
<path d="M858.3,247.8c0,7.5,0,14.9,0,23c-7.8,0-15.4,0-23,0l0.1,0.1c0-7.7-0.1-15.4-0.1-23.1c7.7,0,15.4,0.1,23.1,0.1L858.3,247.8z"
	/>
<path d="M444.2,225.1c0,7.6,0,14.8,0,22.4c-7.4,0-14.8,0-22.5,0c0-7.4,0-14.8,0-22.4C429.1,225.1,436.4,225.1,444.2,225.1z"/>
<path d="M1065.7,593.1c0-7.6,0-15.2,0-23c7.4,0,14.7,0,22.3,0c0,7.3,0,14.6,0,22.8c-7.4,0-14.9,0-22.5,0
	C1065.5,593,1065.7,593.1,1065.7,593.1z"/>
<path d="M1065.5,615.8c-7.4,0-14.9,0-22.7,0c0-7.5,0-14.8,0-22.7c7.5,0,15.2,0,22.9,0l-0.2-0.1c-0.1,7.7-0.1,15.3-0.2,23
	C1065.3,616,1065.5,615.8,1065.5,615.8z"/>
<path d="M835.3,615.8c-0.1,7.8-0.1,15.6-0.2,23.3l0.1-0.2c-7.7-0.1-15.3-0.1-23-0.2l0.1,0.1c0-7.6,0-15.2,0-23
	C820.4,615.8,827.8,615.8,835.3,615.8C835.5,616,835.3,615.8,835.3,615.8z"/>
<path d="M651.5,432c0-7.5,0-14.9,0-22.7c7.5,0,14.9,0,22.6,0c0,7.3,0,14.7,0,22.6c-7.6,0-15.2,0-22.7,0
	C651.3,431.8,651.5,432,651.5,432z"/>
<path d="M743.3,432c0-7.5,0-14.9,0-22.7c7.7,0,15.1,0,23.1,0c0,7.6,0,15.1,0,22.7C758.8,432,751,432,743.3,432z"/>
<path d="M697.3,570c0-7.7,0-15.4,0-23.1c7.5,0,14.9,0,22.7,0c0,7.7,0,15.1,0,23.1C712.5,570,704.9,570,697.3,570z"/>
<path d="M559.3,386c0-7.5,0-14.9,0-23.1c8,0,15.5,0,23.1,0c0,7.5,0,14.9,0,23.1C574.5,386,566.9,386,559.3,386z"/>
<path d="M651.3,271c0-7.7,0-15.4,0-23.1c7.5,0,14.9,0,22.7,0c0,7.7,0,15.1,0,23.1C666.5,271,658.9,271,651.3,271z"/>
<path d="M812.3,524c0-7.7,0-15.4,0-23.1c15.1,0,30.2,0,45.7,0c0,7.7,0,15.1,0,23.1C842.8,524,827.6,524,812.3,524z"/>
<circle cx="800.9" cy="489.4" r="16.4"/>
<path d="M927.7,547c7.6,0,14.8,0,22.3,0c0,7.5,0,14.8,0,22.6c-7.3,0-14.6,0-22.3,0C927.7,562.2,927.7,554.8,927.7,547z"/>
<path d="M950.3,408.8c7.5,0,14.9,0,23.1,0c0,8,0,15.5,0,23.1c-7.5,0-14.9,0-23.1,0C950.3,424,950.3,416.4,950.3,408.8z"/>
<path d="M973.3,431.8c7.7,0,15.4,0,23.1,0c0,7.7,0,15.4,0,23.1c-7.5,0-14.9,0-23.1,0C973.3,447,973.3,439.4,973.3,431.8z"/>
<path d="M467.6,155.5c0-22.9,0-45.5,0-68.4c22.8,0,45.4,0,68.4,0c0,22.6,0,45.3,0,68.4C513.4,155.5,490.7,155.5,467.6,155.5z"/>
<path d="M1042,155.7c-22.9,0-45.5,0-68.4,0c0-22.8,0-45.4,0-68.4c22.6,0,45.3,0,68.4,0C1042,109.8,1042,132.6,1042,155.7z"/>
<path d="M835.5,248c-7.7,0-15.4,0-23.1,0c0-7.5,0-14.9,0-22.7c7.7,0,15.1,0,23.1,0C835.5,232.8,835.5,240.4,835.5,248z"/>
<path d="M467.8,593.1c22.9,0,45.5,0,68.4,0c0,22.8,0,45.4,0,68.4c-22.6,0-45.3,0-68.4,0C467.8,638.9,467.8,616.2,467.8,593.1z"/>
</svg>
