<?xml version="1.0" encoding="utf-8"?>
<!-- Generator: Adobe Illustrator 26.0.0, SVG Export Plug-In . SVG Version: 6.00 Build 0)  -->
<svg version="1.1" id="Capa_1" xmlns="http://www.w3.org/2000/svg" xmlns:xlink="http://www.w3.org/1999/xlink" x="0px" y="0px"
	 viewBox="0 0 1417.3 841.9" style="enable-background:new 0 0 1417.3 841.9;" xml:space="preserve">
<g>
	<path d="M604.9,547.8c7.5,0,15,0,23,0c0,7.3,0,14.7,0,22.6c7.9,0,15.3,0,23.1,0c0,7.8,0,15.1,0,22.7c7.7,0,15.1,0,22.8,0
		c0-22.7,0-45.4,0-68.5c-7.4,0-14.7,0-22.5,0c0-15.4,0-30.5,0-46.1c-7.9,0-15.3,0-23.1,0c0-7.8,0-15.1,0-22.9c-15.4,0-30.5,0-45.8,0
		c0-15.6,0-30.7,0-45.9c15.1,0,30.1,0,45.6,0c0,7.4,0,14.8,0,22.6c7.8,0,15.1,0,22.9,0c0,7.7,0,15.1,0,23.3c8.1,0,15.7,0,23.3,0
		l-0.1-0.1c0,15.2,0,30.5,0,46.2c15.7,0,30.7,0,46,0c0,7.9,0,15.4,0,22.8c-7.6,0-15.1,0-22.8,0c0,46.7,0,92.4,0,138.2
		c-7.6,0-15.1,0-22.8,0c0,7.9,0,15.3,0,22.6c7.7,0,15.1,0,22.6,0c0-7.8,0-15.3,0-22.7c7.6,0,15.2,0,23.2,0c0-7.9,0-15.3,0-23
		c8,0,15.4,0,22.9,0c0,15.2,0,30.5,0,45.8c7.9,0,15.3,0,22.6,0c0-15.4,0-30.4,0-45.6c-7.8,0-15.3,0-22.7,0c0-7.6,0-15.2,0-23.3
		c-8,0-15.3,0-22.7,0c0-7.8,0-15.1,0-22.9c7.6,0,15,0,22.4,0c0-15.6,0-30.6,0-46.2c-7.7,0-15.1,0-22.9,0c0-8,0-15.5,0-23
		c7.6,0,15.2,0,23.4,0c0-7.7,0-15.1,0-22.7c8,0,15.5,0,23,0l-0.1-0.1c0,15.2,0,30.5,0,45.7c23.4,0,46.1,0,69,0c0-7.8,0-15.3,0-22.7
		c7.6,0,15.2,0,22.7,0c0-7.9,0-15.3,0-22.9c-7.8,0-15.3,0-22.7,0c0-7.7,0-15.4,0-23.1c15.2,0,30.5,0,46.2,0c0,8,0,15.4,0,23
		c8,0,15.4,0,22.9,0c0,7.6,0,15.2,0,23.3c-8.1,0-15.5,0-22.8,0c0,7.8,0,15.1,0,22.5c15.3,0,30.3,0,45.4,0c0-15.3,0-30.4,0-45.6
		c-7.8,0-15.3,0-22.7,0c0-22.9,0-45.8,0-68.8c8,0,15.4,0,23.3,0c0,15.4,0,30.4,0,45.8c8,0,15.4,0,22.9,0l-0.1-0.1
		c0,7.6,0,15.2,0,23.1c8.2,0,15.7,0,23.1,0l-0.1-0.1c0,7.5,0,14.9,0,23c7.8,0,15.2,0,22.9,0c0,7.8,0,15.1,0,22.9
		c7.7,0,15.1,0,22.8,0c0,7.9,0,15.3,0,23.1c-15,0-30,0-45.4,0c0,15.4,0,30.5,0,46.1c-7.9,0-15.3,0-23,0c0,7.8,0,15.1,0,22.9
		c7.3,0,14.7,0,22.4,0c0,7.9,0,15.3,0,23.1c-30.4,0-60.6,0-91.4,0c0,7.7,0,15.1,0,23.1c-8.1,0-15.7,0-23.3,0l0.1,0.1
		c0-7.5,0-14.9,0-23c-15.6,0-30.9,0-46.1,0c0-7.6,0-15.2,0-22.8c-7.9,0-15.3,0-22.6,0c0,7.7,0,15.1,0,22.6c7.8,0,15.3,0,22.7,0
		c0,7.5,0,14.9,0,22.9c-7.7,0-15.1,0-23.2,0c0,8.1,0,15.7,0,23.2l0.1-0.1c-7.6,0-15.2,0-23.1,0c0,8.2,0,15.7,0,23.1l0.1-0.1
		c-30.4,0-60.8,0-91.8,0c0-7.4,0-14.8,0-22.8c-15.7,0-31,0-46.2,0l0.2,0.1c-0.1-20.5-0.2-40.9-0.3-61.4c0-10.1,0-20.2,0-30.7
		c-7.7,0-15,0-23.1,0c0-23.3,0-46.1,0-69C605.1,547.6,604.9,547.8,604.9,547.8z M812.2,593.5c0,7.6,0,15.2,0,22.8
		c7.9,0,15.3,0,22.6,0c0-7.7,0-15.1,0-22.6c-7.8,0-15.3,0-22.7,0c0-7.6,0-15.2,0-22.7c-15.6,0-30.6,0-45.5,0c0,15.4,0,30.4,0,45.4
		c7.7,0,14.9,0,22.7,0c0-7.7,0-15,0-22.8C797.3,593.5,804.8,593.5,812.2,593.5z M858.5,570.8c0,23.1,0,45.8,0,68.4
		c23.1,0,45.8,0,68.4,0c0-23,0-45.6,0-68.4C904.1,570.8,881.5,570.8,858.5,570.8z"/>
	<path d="M398.1,294.6c7.5,0,14.9,0,22.9,0c0,22.9,0,45.7,0,68.7c15.5,0,30.4,0,45.7,0c0-7.3,0-14.6,0-22.6c-7.2,0-14.6,0-22.3,0
		c0-23.3,0-46,0-68.9c45.8,0,91.4,0,137.8,0c0,22.8,0,45.7,0,68.7l0.1-0.2c-14,0.1-28,0.2-42,0.3c-16.5,0-33,0-49.9,0
		c0,7.5,0,14.9,0,22.9c22.6,0,45.3,0,68.3,0c0,7.8,0,15.1,0,22.9c-14.9,0-30,0-45.4,0c0,7.9,0,15.3,0,23.1c15,0,29.9,0,45.3,0
		c0,7.7,0,15.1,0,23.1c-22.8,0-45.7,0-68.7,0l0.1,0.1c0-7.5,0-14.9,0-22.9c-7.8,0-15.1,0-22.9,0c0-7.8,0-15.1,0-22.8
		c-30.7,0-61.1,0-91.8,0c0-7.9,0-15.2,0-23.2c7.2,0,14.6,0,22.7,0C398,340.4,398,317.5,398.1,294.6L398.1,294.6z M467.3,317.1
		c7.9,0,15.3,0,22.5,0c0-7.7,0-14.9,0-22.3c-7.6,0-15,0-22.5,0C467.3,302.4,467.3,309.6,467.3,317.1z M513.4,317.2
		c7.8,0,15.1,0,22.4,0c0-7.7,0-15,0-22.4c-7.7,0-15.1,0-22.4,0C513.4,302.5,513.4,309.7,513.4,317.2z"/>
	<path d="M789.2,455.6c0-15.1,0-30.3,0-46c7.6,0,15,0,22.7,0c0-23.1,0-45.7,0-68.9c7.7,0,15.1,0,23.1,0c0-7.9,0-15.3,0-23
		c7.8,0,15.1,0,22.9,0c0,7.3,0,14.7,0,22.6c15.6,0,30.6,0,46.1,0c0,7.8,0,15.1,0,22.9c7.7,0,15.1,0,23.1,0c0,7.9,0,15.3,0,23
		c30.8,0,61.1,0,91.9,0c0-15,0-30,0-45.4c7.9,0,15.3,0,23,0c0,38,0,76,0,114.3c-7.3,0-14.7,0-22.6,0c0-14.9,0-30,0-45.3
		c-7.8,0-15.1,0-22.9,0c0,14.9,0,30,0,45.7c-8.1,0-15.7,0-23.3,0l0.1,0.1c0-15.3,0-30.5,0-46.3c-31.1,0-61.5,0-92.3,0
		c0-7.8,0-15.1,0-22.4c-15.4,0-30.5,0-45.6,0c0,7.6,0,14.9,0,22.7c7.6,0,15,0,23,0c0,7.9,0,15.3,0,23.1c7.8,0,15.1,0,22.5,0
		c0,7.8,0,15.2,0,22.9c-15.5,0-30.6,0-45.7,0c0-7.6,0-15.2,0-22.7c-7.9,0-15.3,0-22.9,0c0,7.8,0,15.3,0,22.7
		C804.6,455.6,796.9,455.5,789.2,455.6L789.2,455.6z"/>
	<path d="M375.3,248.1c0-53.6,0-106.9,0-160.4c53.5,0,106.7,0,160.4,0c0,53.3,0,106.7,0,160.4C482.5,248.1,429.1,248.1,375.3,248.1z
		 M398.5,110.7c0,38.5,0,76.5,0,114.4c38.4,0,76.4,0,114.4,0c0-38.3,0-76.3,0-114.4C474.7,110.7,436.8,110.7,398.5,110.7z"/>
	<path d="M881.4,248.1c0-53.6,0-106.9,0-160.4c53.5,0,106.7,0,160.4,0c0,53.3,0,106.7,0,160.4C988.5,248.1,935.2,248.1,881.4,248.1z
		 M1019,110.8c-38.4,0-76.5,0-114.4,0c0,38.4,0,76.4,0,114.4c38.3,0,76.2,0,114.4,0C1019,186.9,1019,149.1,1019,110.8z"/>
	<path d="M375.5,593.8c53.6,0,106.9,0,160.4,0c0,53.5,0,106.7,0,160.4c-53.3,0-106.7,0-160.4,0C375.5,700.8,375.5,647.5,375.5,593.8
		z M512.9,616.8c-38.4,0-76.5,0-114.4,0c0,38.4,0,76.4,0,114.4c38.3,0,76.2,0,114.4,0C512.9,693,512.9,655.1,512.9,616.8z"/>
	<path d="M651.2,294.6c0-30.7,0-61.4,0-92.1l-0.1,0.1c7.5,0,14.9,0,22.9,0c0-7.7,0-15.1,0-23c8.1,0,15.7,0,23.2,0l-0.1-0.1
		c0,7.6,0,15.2,0,23.1c8.2,0,15.7,0,23.1,0l-0.1-0.1c0,22.8,0,45.6,0,68.9c15.3,0,30.4,0,46,0c0,8.1,0,15.7,0,23.3l0.1-0.1
		c-15.1,0-30.3,0-45.7,0c0,15.5,0,30.5,0,45.9c7.4,0,14.7,0,22.3,0c0,7.8,0,15.1,0,23.1c-7.4,0-14.8,0-22.5,0c0,7.8,0,15.1,0,22.9
		c-15.4,0-30.5,0-45.9,0c0,7.8,0,15.1,0,22.8c-7.7,0-15.1,0-22.9,0c0-14.9,0-30,0-45.4c15,0,29.9,0,45.3,0c0-23.1,0-45.8,0-69.3
		c-15.1,0-30.4,0-45.7,0L651.2,294.6z M674.5,225.7c0,15.5,0,30.5,0,45.6c7.6,0,14.9,0,22.4,0c0-15.3,0-30.3,0-45.6
		C689.3,225.7,682.1,225.7,674.5,225.7z"/>
	<path d="M697.2,179.6c0-7.5,0-14.9,0-22.9c-15.3,0-30.4,0-45.9,0c0-7.8,0-15.2,0-23.3c-8.1,0-15.7,0-23.2,0l0.1,0.1
		c0-15.1,0-30.3,0-45.7c7.6,0,15,0,22.7,0c0,7.3,0,14.6,0,22.3c7.7,0,15.1,0,23.1,0c0-7.3,0-14.7,0-22.3c23.2,0,46,0,68.9,0
		c0,15.1,0,30.1,0,45.5c-7.4,0-14.7,0-22.4,0c0,7.9,0,15.3,0,23.1c7.4,0,14.7,0,22.3,0c0,15.4,0,30.5,0,46.1c-7.5,0-15.1,0-22.7,0
		l0.1,0.1c0-7.6,0-15.2,0-23.1c-8.2,0-15.7,0-23.1,0L697.2,179.6z"/>
	<path d="M559.1,524.5c15.3-0.1,30.6-0.1,46-0.2l-0.2-0.1c0,7.8,0,15.7,0,23.5l0.1-0.2c-7.5,0-14.9,0-22.6,0c0,38.2,0,76.2,0,114.6
		c7.2,0,14.6,0,22.4,0c0,7.9,0,15.3,0,23c-15.1,0-30.1,0-45.5,0c0-38.1,0-76.1,0-114.5c-23.1,0-45.8,0-69.1,0c0-15.8,0-31,0-46.3
		l-0.1,0.1c7.7,0,15.4,0,23.1,0l-0.1-0.1c0,7.6,0,15.2,0,22.7c15.7,0,30.8,0,46.1,0c0-7.8,0-15.3,0-22.7L559.1,524.5z"/>
	<path d="M443.9,501.3c0,22.8,0,45.6,0,68.8c-22.6,0-45.3,0-68.4,0c0-30.3,0-60.6,0-91.4c7.3,0,14.6,0,22.4,0c0-7.7,0-15.1,0-22.9
		c7.9,0,15.3,0,23.1,0c0,15,0,29.9,0,45.6c7.9,0,15.5,0,23.1,0C444,501.5,443.9,501.3,443.9,501.3z"/>
	<path d="M950.1,708.6c7.5,0,14.9,0,23,0c0-7.8,0-15.2,0-22.9c7.8,0,15.1,0,22.9,0c0-7.7,0-15.1,0-22.8c7.9,0,15.3,0,23.1,0
		c0,7.4,0,14.7,0,22.5c7.7,0,15.1,0,22.8,0c0,15.6,0,30.7,0,45.9c-7.4,0-14.7,0-22.5,0c0-7.4,0-14.8,0-22.5c-7.8,0-15.1,0-22.9,0
		c0,7.2,0,14.6,0,22.6c-7.9,0-15.3,0-23.1,0c0,7.8,0,15.1,0,22.7c-15.4,0-30.5,0-46.1,0c0-7.5,0-15.1,0-22.7l-0.1,0.1
		c7.6,0,15.2,0,23.1,0c0-8.2,0-15.7,0-23.1L950.1,708.6z"/>
	<path d="M651.2,202.4c-7.5,0-14.9,0-23,0c0,23.1,0,45.8,0,68.8c-7.8,0-15.1,0-22.9,0c0-14.9,0-30,0-45.8c-8.1,0-15.7,0-23.3,0
		l0.1,0.1c0-7.5,0-14.9,0-23c-7.8,0-15.2,0-22.8,0c0-7.8,0-15.1,0-22.7c30.3,0,60.7,0,91.7,0c0,7.5,0,15.1,0,22.7
		C651.1,202.6,651.2,202.4,651.2,202.4z"/>
	<path d="M812.3,110.4c-15.8,0-30.7,0-45.9,0c0-7.6,0-14.9,0-22.5c22.7,0,45.4,0,68.6,0c0,15,0,30,0,45.5c7.8,0,15.1,0,22.7,0
		c0,15.4,0,30.5,0,45.8c-7.3,0-14.6,0-22.4,0c0-7.3,0-14.6,0-22.4c-7.7,0-15.1,0-23,0C812.3,141.2,812.3,126.1,812.3,110.4z"/>
	<path d="M490.1,432.4c0,15.1,0,30.3,0,46.2c7.9,0,15.5,0,23.1,0l-0.1-0.1c0,7.7,0,15.4,0,23.1l0.1-0.1c-7.6,0-15.2,0-23.1,0
		c0,8.2,0,15.7,0,23.1l0.1-0.1c-7.5,0-15,0-23,0c0-7.6,0-15,0-23.2c-8.2,0-15.8,0-23.4,0l0.2,0.1c0-15.1,0-30.2,0-45.7
		c7.8,0,15.1,0,22.9,0c0-7.7,0-15.1,0-23.1c8.1,0,15.7,0,23.3,0C490.2,432.6,490.1,432.4,490.1,432.4z"/>
	<path d="M927.3,731.5c-7.5,0-14.9,0-22.9,0c0,7.7,0,15.1,0,22.8c-23.2,0-45.9,0-68.9,0c0-7.4,0-14.7,0-22.5c15,0,30,0,45.6,0
		c0-7.9,0-15.3,0-23.2c7.9,0,15.3,0,23,0c0-7.8,0-15.1,0-22.7c15.4,0,30.4,0,46.1,0c0,7.5,0,15.1,0,22.7l0.1-0.1
		c-7.6,0-15.2,0-23.1,0c0,8.2,0,15.7,0,23.1L927.3,731.5z"/>
	<path d="M973.5,340.7c0-22.8,0-45.6,0-68.8c22.6,0,45.3,0,68.4,0c0,7.2,0,14.6,0,22.4c-7.3,0-14.6,0-22.4,0c0,7.7,0,15.1,0,23.1
		c-7.9,0-15.3,0-23.1,0c0,7.8,0,15.1,0,23.3c-7.9,0-15.5,0-23.1,0C973.3,340.6,973.5,340.7,973.5,340.7z"/>
	<path d="M812.2,248.4c-7.5,0-14.9,0-22.9,0c0-7.5,0-14.9,0-23c-8.1,0-15.7,0-23.2,0l0.1,0.1c0-15.1,0-30.2,0-45.7
		c15.2,0,30.3,0,45.8,0c0,22.9,0,45.8,0,68.7L812.2,248.4z"/>
	<path d="M950.2,340.4c-7.5,0-14.9,0-23,0c0-7.6,0-15,0-22.8c-7.8,0-15.1,0-22.7,0c0-7.7,0-15.1,0-23.1c7.3,0,14.7,0,22.5,0
		c0-7.8,0-15.1,0-22.7c7.7,0,15.1,0,23.1,0c0,22.9,0,45.8,0,68.7L950.2,340.4z"/>
	<path d="M674.2,455.6c0-7.5,0-14.9,0-23c7.6,0,15,0,22.8,0c0-7.8,0-15.1,0-22.7c15.4,0,30.5,0,46.1,0c0,7.5,0,15.1,0,22.7l0.1-0.1
		c-7.6,0-15.2,0-23,0c0,8.2,0,15.7,0,23.2c-15.4,0-30.8-0.1-46.1-0.1H674.2z"/>
	<path d="M559.5,87.7c7.6,0,14.9,0,22.4,0c0,22.8,0,45.4,0,68.4c-7.3,0-14.7,0-22.4,0C559.5,133.5,559.5,110.8,559.5,87.7z"/>
	<path d="M651.1,294.4c0,15.1,0,30.3,0,46c-15.5,0-30.7,0-46,0l0.1,0.1c0-7.4,0-14.9,0-22.9c7.5,0,14.9,0,22.8,0
		c0-7.9,0-15.2,0-23.1c8.1,0,15.7,0,23.2,0C651.2,294.6,651.1,294.4,651.1,294.4z"/>
	<path d="M835.5,248.7c0-15.2,0-30.5,0-46c7.4,0,14.7,0,22.3,0c0,14.9,0,30,0,45.8c-7.4,0-14.9,0-22.5,0
		C835.3,248.6,835.5,248.7,835.5,248.7z"/>
	<path d="M766.1,294.6c15.1,0,30.2,0,45.7,0c0,7.5,0,14.9,0,22.6c-15,0-30,0-45.6,0c0-7.6,0-15.2,0-22.8
		C766.2,294.4,766.1,294.6,766.1,294.6z"/>
	<path d="M605.1,340.4c0,15.1,0,30.2,0,45.7c-7.5,0-14.8,0-22.7,0c0-15.2,0-30.5,0-45.9l-0.1,0.2c7.7,0.1,15.3,0.1,23,0.2
		C605.2,340.6,605.1,340.4,605.1,340.4z"/>
	<path d="M788.8,386.3c-7.6,0-14.9,0-22.4,0c0-15.1,0-30.1,0-45.4c7.3,0,14.7,0,22.4,0C788.8,355.8,788.8,370.9,788.8,386.3z"/>
	<path d="M766.1,455.6c7.7,0,15.4,0,23.1,0l-0.1-0.1c0,15.4,0.1,30.8,0.1,46.2c-7.7,0-15.4-0.1-23.1-0.1l0.1,0.1
		C766.2,486.3,766.2,470.9,766.1,455.6L766.1,455.6z"/>
	<path d="M973.1,478.6c15.1,0,30.3,0,46,0c0,7.8,0,15.4,0,23l0.1-0.1c-15.4,0-30.8,0-46.1,0l0.1,0.1c0-7.7,0-15.4,0-23.1
		L973.1,478.6z"/>
	<path d="M443.9,409.9c0,7.6,0,14.8,0,22.4c-15.1,0-30,0-45.4,0c0-7.2,0-14.6,0-22.4C413.4,409.9,428.5,409.9,443.9,409.9z"/>
	<path d="M513.1,501.6c15.1,0,30.3,0,46,0c0,7.8,0,15.4,0,23l0.1-0.1c-15.4,0-30.8,0-46.1,0l0.1,0.1
		C513.2,516.8,513.2,509.2,513.1,501.6L513.1,501.6z"/>
	<path d="M605.1,731.5c0,7.5,0,14.9,0,22.7c-15.2,0-30.2,0-45.6,0c0-7.3,0-14.7,0-22.6c15.3,0,30.5,0,45.7,0L605.1,731.5z"/>
	<path d="M605.1,501.6c7.5,0,14.9,0,22.7,0c0,7.6,0,15,0,22.7c-7.7,0-15.3,0-23,0l0.2,0.1c0.1-7.7,0.1-15.3,0.2-23L605.1,501.6z"/>
	<path d="M973.1,455.5c0,7.7,0,15.4,0,23.2l0.1-0.1c-7.7,0-15.4,0-23.1,0l0.1,0.1c0-7.6,0-15.2,0-23c8.1,0,15.5,0,23,0L973.1,455.5z
		"/>
	<path d="M628.1,133.4c0,7.5,0,14.9,0,22.7c-7.5,0-14.9,0-22.6,0c0-7.3,0-14.7,0-22.6c7.6,0,15.2,0,22.8,0
		C628.2,133.5,628.1,133.4,628.1,133.4z"/>
	<path d="M1019.1,501.6c7.5,0,14.9,0,22.7,0c0,7.5,0,14.9,0,22.6c-7.3,0-14.7,0-22.6,0c0-7.6,0-15.2,0-22.8
		C1019.2,501.5,1019.1,501.6,1019.1,501.6z"/>
	<path d="M582.1,225.4c0,7.5,0,14.9,0,22.7c-7.5,0-14.9,0-22.6,0c0-7.3,0-14.7,0-22.6c7.6,0,15.2,0,22.8,0
		C582.2,225.4,582.1,225.4,582.1,225.4z"/>
	<path d="M513.2,478.6c0-7.5,0-14.9,0-22.7c7.5,0,14.9,0,22.6,0c0,7.3,0,14.7,0,22.6c-7.6,0-15.2,0-22.8,0
		C513.1,478.5,513.2,478.6,513.2,478.6z"/>
	<path d="M766.1,225.4c0,7.5,0,14.9,0,22.7c-7.5,0-14.9,0-22.6,0c0-7.3,0-14.7,0-22.6c7.6,0,15.2,0,22.8,0
		C766.2,225.4,766.1,225.4,766.1,225.4z"/>
	<path d="M743.1,432.6c7.5,0,14.9,0,23,0c0,7.8,0,15.4,0,23l0.1-0.1c-7.7,0-15.4,0.1-23.1,0.1c0-7.7,0.1-15.4,0.1-23.2L743.1,432.6z
		"/>
	<path d="M812.1,248.6c7.8,0.1,15.6,0.1,23.4,0.2l-0.2-0.1c0,7.4,0,14.9,0,22.6c-7.8,0-15.2,0-23.1,0c0-7.6,0-15.2,0-22.8
		C812.2,248.4,812.1,248.6,812.1,248.6z"/>
	<path d="M398.2,294.4c-7.5,0-14.9,0-22.7,0c0-7.5,0-14.9,0-22.6c7.3,0,14.7,0,22.6,0c0,7.6,0,15.2,0,22.8L398.2,294.4z"/>
	<path d="M858.4,271.7c7.6,0,14.8,0,22.4,0c0,7.4,0,14.8,0,22.5c-7.4,0-14.8,0-22.4,0C858.4,286.8,858.4,279.5,858.4,271.7z"/>
	<path d="M950.1,340.6c7.8,0.1,15.6,0.1,23.4,0.2l-0.2-0.1c0,7.4,0,14.9,0,22.6c-7.8,0-15.2,0-23.1,0c0-7.6,0-15.2,0-22.8
		C950.2,340.4,950.1,340.6,950.1,340.6z"/>
	<path d="M858.1,685.5c0,7.5,0,14.9,0,22.7c-7.5,0-14.9,0-22.6,0c0-7.3,0-14.7,0-22.6c7.6,0,15.2,0,22.8,0
		C858.3,685.5,858.1,685.5,858.1,685.5z"/>
	<path d="M996.4,616.8c7.6,0,14.8,0,22.4,0c0,7.5,0,14.9,0,22.5c-7.4,0-14.8,0-22.4,0C996.4,631.8,996.4,624.5,996.4,616.8z"/>
	<path d="M605.2,731.6c0-7.4,0-14.9,0-22.9c7.8,0,15.5,0,23.2,0l-0.2-0.1c0,7.4,0,14.9,0,22.9c-8.1,0-15.6,0-23.2,0
		C605.1,731.5,605.2,731.6,605.2,731.6z"/>
	<path d="M789.1,708.6c7.5,0,14.9,0,22.7,0c0,7.6,0,14.9,0,22.9c-7.6,0-15.1,0-22.7,0l0.1,0.1C789.2,724,789.2,716.2,789.1,708.6
		L789.1,708.6z"/>
	<path d="M605.2,501.5c-7.5,0-14.9,0-22.7,0c0-7.5,0-14.9,0-22.6c7.3,0,14.7,0,22.6,0c0,7.6,0,15.2,0,22.8
		C605.1,501.6,605.2,501.5,605.2,501.5z"/>
	<path d="M789.1,731.5c0,7.5,0,14.9,0,22.7c-7.6,0-14.9,0-22.9,0c0-7.6,0-15.1,0-22.7l-0.1,0.1C773.8,731.5,781.5,731.5,789.1,731.5
		L789.1,731.5z"/>
	<path d="M812.1,455.5c7.7,0,15.4,0,23.1,0c0,7.7,0,15.4,0,23.1c-7.5,0-14.9,0-23.1,0C812.1,470.6,812.1,463.1,812.1,455.5z"/>
	<path d="M720.1,455.5c7.7,0,15.4,0,23.1,0c0,7.5,0,14.9,0,22.7c-7.7,0-15.1,0-23.1,0C720.1,470.6,720.1,463,720.1,455.5z"/>
	<path d="M903.9,616.3c-7.6,0-14.8,0-22.4,0c0-7.4,0-14.8,0-22.5c7.4,0,14.8,0,22.4,0C903.9,601.2,903.9,608.5,903.9,616.3z"/>
	<path d="M835.2,501.5c0,7.7,0,15.4,0,23.1c-15.1,0-30.3,0-46.1,0c0-8,0-15.6,0-23.1C804.5,501.5,819.9,501.5,835.2,501.5z"/>
	<path d="M421.5,133.7c23,0,45.5,0,68.4,0c0,22.8,0,45.4,0,68.4c-22.6,0-45.3,0-68.4,0C421.5,179.4,421.5,156.8,421.5,133.7z"/>
	<path d="M927.5,133.7c23,0,45.6,0,68.4,0c0,22.8,0,45.4,0,68.4c-22.7,0-45.4,0-68.4,0C927.5,179.4,927.5,156.8,927.5,133.7z"/>
	<path d="M421.5,639.8c22.9,0,45.5,0,68.4,0c0,22.8,0,45.4,0,68.4c-22.6,0-45.3,0-68.4,0C421.5,685.5,421.5,662.8,421.5,639.8z"/>
</g>
</svg>
