<?xml version="1.0" encoding="utf-8"?>
<!-- Generator: Adobe Illustrator 26.0.0, SVG Export Plug-In . SVG Version: 6.00 Build 0)  -->
<svg version="1.1" id="Layer_1" xmlns="http://www.w3.org/2000/svg" xmlns:xlink="http://www.w3.org/1999/xlink" x="0px" y="0px"
	 viewBox="0 0 612 792" style="enable-background:new 0 0 612 792;" xml:space="preserve">
<style type="text/css">
	.st0{fill:#010101;}
	.st1{fill:#FE3604;}
	.st2{fill:#02A4FD;}
	.st3{fill:#65CA32;}
	.st4{fill:#FCCA00;}
</style>
<path class="st0" d="M294.04,443.26c3.61-8.75,7.21-17.5,10.82-26.24c22.04-0.81,43.87,0.56,65.11,7.03
	c3.64,1.11,4.19-1.06,5.18-3.44c9.41-22.69,18.91-45.35,28.26-68.07c1.79-4.36,6.34-9.64,4.36-12.97
	c-2.16-3.65-8.92-3.35-13.77-4.35c-17.69-3.65-35.64-3.9-53.6-4.05c4.54-11.05,9.24-22.03,13.52-33.18
	c1.37-3.57,3.32-4.57,6.93-4.56c63.56,0.24,118.7,21.41,164.64,65.75c4.49,4.33,8.24,9.42,13.43,13.02c0,0.67,0,1.33,0,2
	c-7.38,15.38-13.4,31.34-19.95,47.07c-30.04,72.12-59.97,144.29-89.93,216.45c-0.5,1.2-1,2.39-1.78,4.26
	c-49.31-54-107.44-86.43-183.73-76.99c5.4-13.09,10.62-25.72,15.83-38.35c21.78-1.34,43.17,1.69,64.41,5.99
	c3.64,0.74,5.15,0.13,6.58-3.39c9.95-24.47,20.05-48.88,30.38-73.19c1.67-3.93,0.63-4.9-2.98-5.97
	C336.92,443.88,315.61,442.45,294.04,443.26z M455.32,466.27c0.48-0.75,0.71-1.01,0.84-1.31c11.32-27.35,22.59-54.72,34.03-82.01
	c1.13-2.7,0.02-3.92-1.61-5.5c-14.33-13.87-30.95-24.01-49.64-30.92c-3.33-1.23-4.69-0.9-6.13,2.64
	c-10.64,26.19-21.45,52.31-32.48,78.34c-1.87,4.41-1.22,6.13,3.31,7.87c15.23,5.83,30.48,11.75,42.78,23.08
	C449.23,461.04,452.15,463.49,455.32,466.27z M388.57,458.64c-1.45-0.28-1.6,1.37-2.06,2.49c-10.9,26.2-21.74,52.43-32.69,78.62
	c-0.92,2.19-0.74,3.1,1.6,3.95c19.09,6.99,36.11,17.57,51.66,30.54c2.86,2.38,3.54,1.33,4.64-1.37
	c10.64-26.13,21.33-52.24,32.11-78.31c1.05-2.54,0.7-4.01-1.35-5.93c-14.57-13.67-31.44-23.27-50.5-29.11
	C391.02,459.21,390.04,459.01,388.57,458.64z"/>
<path class="st0" d="M165.07,217.27c-0.36,3.86-2.73,6.98-3.9,10.54c-0.46,1.39-1.44,1.66-2.66,1.69c-1.32,0.03-2.65,0.15-3.96,0.08
	c-2.75-0.13-7.16,1.48-7.88-0.28c-1.23-3.04,1.86-6.26,3.18-9.37c1.4-3.3,5.41-0.14,7.23-2.67
	C159.74,217.27,162.4,217.27,165.07,217.27z"/>
<path class="st0" d="M49.12,461.16c0.94,0.2,0.95-0.58,1.2-1.13c4.05-9.03,5.78-9.96,15.94-9.37c2.2,0.13,2.1,0.94,1.48,2.45
	c-1,2.46-2,4.92-2.93,7.4c-0.66,1.77-1.74,2.52-3.72,2.48c-3.99-0.08-7.98,0.1-11.98,0.17C49.12,462.49,49.12,461.83,49.12,461.16z"
	/>
<path class="st1" d="M340.39,331.16c17.96,0.15,35.92,0.4,53.6,4.05c4.85,1,11.61,0.71,13.77,4.35c1.98,3.33-2.57,8.61-4.36,12.97
	c-9.35,22.72-18.85,45.37-28.26,68.07c-0.99,2.38-1.54,4.55-5.18,3.44c-21.24-6.47-43.06-7.84-65.11-7.03
	c2.71-9.72,7.29-18.72,11.07-28.02c7.32-18.06,14.81-36.05,22.3-54.04C338.77,333.63,338.94,332,340.39,331.16z"/>
<path class="st2" d="M294.04,443.26c21.57-0.8,42.88,0.62,63.72,6.82c3.61,1.07,4.65,2.04,2.98,5.97
	c-10.33,24.31-20.43,48.72-30.38,73.19c-1.43,3.52-2.94,4.13-6.58,3.39c-21.24-4.3-42.63-7.33-64.41-5.99
	c2.66-9.25,6.99-17.84,10.63-26.71c7.18-17.49,14.53-34.9,21.81-52.34C292.43,446.08,292.67,444.38,294.04,443.26z"/>
<path class="st0" d="M212.99,526.2c4.49-11.01,8.8-21.39,12.93-31.84c0.74-1.87,1.78-2.51,3.65-2.62
	c12.71-0.73,25.41-1.53,38.7-2.34c-4.55,10.83-8.91,21.17-13.22,31.54c-0.6,1.45-1.62,1.91-3.06,2.03
	C239.25,524.01,226.52,525.08,212.99,526.2z"/>
<path class="st0" d="M333.05,332.58c-4.46,10.81-8.64,20.9-12.76,31.02c-0.54,1.32-1.1,2.32-2.71,2.46
	c-13.05,1.14-26.09,2.32-39.75,3.55c4.64-11.19,9.03-21.72,13.36-32.28c0.66-1.62,1.69-2.08,3.39-2.18
	C307.18,334.38,319.78,333.48,333.05,332.58z"/>
<path class="st0" d="M284.67,449.57c-4.44,10.77-8.67,20.98-12.86,31.22c-0.73,1.78-2.29,1.75-3.74,1.88
	c-12.58,1.08-25.16,2.13-38.6,3.26c3.56-8.62,7.68-16.44,9.98-24.77c2.27-8.23,7.08-10.07,14.69-10.05
	C264.06,451.12,273.99,450.15,284.67,449.57z"/>
<path class="st0" d="M261.67,408.2c4.68-11.12,9.12-21.61,13.48-32.13c0.72-1.73,1.94-1.91,3.53-2c11.44-0.63,22.87-1.27,34.3-2.05
	c3.02-0.21,3.86,0.29,2.5,3.42c-3.88,8.95-7.54,18.01-11.16,27.08c-0.71,1.77-1.55,2.59-3.54,2.73
	C288.04,406.14,275.31,407.16,261.67,408.2z"/>
<path class="st0" d="M349.49,293.66c-4.6,10.79-8.85,20.68-13,30.6c-0.66,1.59-1.56,2.36-3.25,2.52
	c-12.75,1.17-25.49,2.38-39.02,3.65c4.62-11.35,9-22.07,13.33-32.8c0.65-1.62,1.93-1.54,3.25-1.62
	C323.41,295.25,336.02,294.48,349.49,293.66z"/>
<path class="st0" d="M196.52,565.41c4.72-11.27,9.09-21.62,13.38-32c0.55-1.33,1.07-2.27,2.73-2.36c12.75-0.73,25.49-1.53,39.1-2.36
	c-4.49,10.89-8.7,21.08-12.9,31.28c-0.5,1.21-1.43,1.71-2.7,1.83C223.24,562.96,210.35,564.14,196.52,565.41z"/>
<path class="st0" d="M245.56,447.39c4.6-11.15,8.91-21.53,13.14-31.94c0.56-1.38,1.23-2.14,2.83-2.22
	c12.77-0.67,25.55-1.41,38.64-2.16c-0.5,4.1-2.62,7.29-3.98,10.74c-1.28,3.24-3.27,6.3-3.95,9.64
	c-2.18,10.87-8.98,14.08-19.38,13.86C264.11,445.14,255.33,446.58,245.56,447.39z"/>
<path class="st2" d="M171.35,517.07c4.14-10.27,7.98-19.6,11.64-29c0.78-2,2.23-2.27,3.89-2.4c10.75-0.88,21.52-1.68,32.27-2.61
	c3.29-0.28,3.13,1,2.1,3.41c-3.51,8.24-6.86,16.54-10.3,24.8c-0.56,1.34-0.99,2.71-2.95,2.86
	C196.1,515.03,184.21,516.03,171.35,517.07z"/>
<path class="st0" d="M254.53,405.45c-4.05,10.1-7.94,19.74-11.78,29.39c-0.7,1.75-2.14,1.88-3.65,1.99
	c-10.79,0.83-21.58,1.62-32.36,2.52c-2.46,0.21-3.46-0.16-2.28-2.86c3.72-8.51,7.31-17.08,10.96-25.63c0.6-1.4,1.26-2.49,3.15-2.62
	C230.33,407.41,242.08,406.43,254.53,405.45z"/>
<path class="st2" d="M238.18,444.92c-4.12,10.18-7.94,19.55-11.67,28.95c-0.63,1.59-1.48,2.29-3.24,2.43
	c-11.76,0.91-23.52,1.93-36.18,2.99c4.16-10.35,8.09-20.1,12-29.85c0.55-1.38,1.73-1.37,2.89-1.47
	C213.73,446.98,225.49,445.99,238.18,444.92z"/>
<path class="st0" d="M302.87,289.19c-4.22,10.1-8.13,19.41-12,28.74c-0.65,1.57-1.67,2.15-3.39,2.28
	c-11.61,0.86-23.21,1.84-35.59,2.85c4.23-10.25,8.28-20.09,12.37-29.92c0.63-1.51,2.15-1.42,3.44-1.51
	C279.14,290.81,290.59,290.03,302.87,289.19z"/>
<path class="st1" d="M271.06,366.11c-4.19,10.09-8.17,19.55-12.01,29.06c-0.8,1.98-2.2,2.14-3.93,2.27
	c-11.43,0.85-22.85,1.74-35.13,2.69c4.16-10.19,8.13-19.88,12.04-29.58c0.58-1.43,1.73-1.33,2.87-1.42
	C246.65,368.15,258.4,367.17,271.06,366.11z"/>
<path class="st1" d="M286.42,328.76c-4.09,10.08-7.9,19.41-11.65,28.76c-0.67,1.67-1.96,2.06-3.53,2.18
	c-10.77,0.84-21.54,1.65-32.29,2.61c-3.33,0.3-3.09-0.97-2.07-3.35c3.52-8.23,6.87-16.54,10.33-24.8c0.55-1.3,0.86-2.79,2.88-2.92
	C261.96,330.49,273.84,329.63,286.42,328.76z"/>
<path class="st0" d="M206.31,522.28c-4.2,9.97-8.13,19.25-11.99,28.56c-0.55,1.32-1.04,2.28-2.7,2.39
	c-11.87,0.84-23.74,1.75-36.36,2.69c4.26-10.19,8.29-19.77,12.27-29.37c0.66-1.59,1.94-1.5,3.26-1.6
	C182.38,524.1,193.96,523.22,206.31,522.28z"/>
<path class="st2" d="M197.72,432.53c-3.09,7.6-6.46,15.87-9.8,24.16c-0.66,1.64-1.89,2.11-3.53,2.19c-8.82,0.4-17.63,0.8-26.44,1.31
	c-2.91,0.17-3.5-0.64-2.31-3.36c3.13-7.16,6.08-14.39,9.05-21.62c0.61-1.48,1.26-2.69,3.11-2.69
	C177.72,432.53,187.65,432.53,197.72,432.53z"/>
<path class="st0" d="M171.05,420.37c3.56-8.88,6.94-17.28,10.29-25.69c0.66-1.65,1.83-2.07,3.49-2.11
	c8.97-0.19,17.93-0.42,26.89-0.75c2.62-0.1,2.7,0.79,1.79,2.9c-3.07,7.15-6.03,14.34-8.92,21.56c-0.71,1.78-1.74,2.56-3.66,2.64
	C191.16,419.35,181.38,419.86,171.05,420.37z"/>
<path class="st1" d="M230.73,353.37c-3.15,7.68-6.54,15.92-9.92,24.16c-0.57,1.4-1.58,1.92-3.08,2c-9.13,0.48-18.25,1-27.37,1.6
	c-2.76,0.18-2.55-0.99-1.75-2.93c3.04-7.35,6.03-14.73,8.96-22.12c0.68-1.71,1.51-2.75,3.57-2.74
	C210.93,353.41,220.72,353.37,230.73,353.37z"/>
<path class="st0" d="M263.01,274.76c-3.67,8.94-7.13,17.3-10.54,25.68c-0.5,1.23-1.26,1.71-2.6,1.77
	c-9.91,0.46-19.81,0.99-30.48,1.54c3.77-9.15,7.29-17.66,10.79-26.18c0.55-1.34,1.66-1.41,2.86-1.46
	C242.82,275.69,252.58,275.23,263.01,274.76z"/>
<path class="st0" d="M165.87,509.22c-3.09,7.56-6.48,15.81-9.82,24.08c-0.48,1.2-1.11,1.99-2.5,1.98
	c-10.07-0.01-20.15-0.01-30.29-0.01c3.22-7.65,6.7-15.87,10.14-24.1c0.57-1.37,1.41-2,3-1.99
	C146.2,509.25,155.99,509.22,165.87,509.22z"/>
<path class="st1" d="M246.59,314.63c-3.7,8.9-7.14,17.12-10.53,25.36c-0.53,1.3-1.5,1.69-2.73,1.76
	c-9.95,0.54-19.89,1.07-30.48,1.63c3.72-8.83,7.2-17.06,10.63-25.31c0.58-1.39,1.41-2.01,2.97-2.07
	C226.23,315.61,236,315.13,246.59,314.63z"/>
<path class="st2" d="M182.76,468.91c-3.86,9.14-7.3,17.21-10.67,25.32c-0.61,1.47-1.59,1.94-3.07,1.97
	c-9.63,0.21-19.23,1.37-29.75,0.85c3.67-8.76,7.18-17.13,10.68-25.49c0.48-1.14,1.48-1.19,2.49-1.24
	C162.23,469.86,172.01,469.41,182.76,468.91z"/>
<path class="st0" d="M128.18,496.14c-2.6,6.35-5.01,12.15-7.34,17.98c-0.63,1.58-1.55,2.26-3.32,2.31
	c-7.64,0.24-15.28,0.64-23.85,1.02c2.66-6.64,5.08-12.67,7.48-18.7c0.64-1.62,2.05-1.44,3.36-1.51
	C112.15,496.88,119.8,496.53,128.18,496.14z"/>
<path class="st1" d="M158.68,360.57c2.38-5.8,4.71-11.43,6.98-17.09c0.57-1.43,1.48-2.02,2.99-2.1c6.96-0.37,13.93-0.74,20.88-1.26
	c2.69-0.2,3.23,0.66,2.22,3.06c-2.06,4.89-4.05,9.8-5.98,14.74c-0.67,1.71-1.54,2.71-3.59,2.68
	C174.55,360.52,166.92,360.57,158.68,360.57z"/>
<path class="st2" d="M125.7,440.01c2.64-6.35,5.1-12.29,7.58-18.22c0.52-1.25,1.6-1.51,2.85-1.57c7.77-0.36,15.55-0.75,23.93-1.17
	c-2.5,6.38-4.8,12.22-7.06,18.07c-0.53,1.37-1.31,2.14-2.9,2.21C142.18,439.67,134.27,440.46,125.7,440.01z"/>
<path class="st0" d="M176.49,379.48c-2.7,6.63-5.18,12.74-7.66,18.85c-0.61,1.51-1.85,1.67-3.26,1.67
	c-7.65-0.02-15.3-0.01-23.41-0.01c2.45-5.79,4.9-11.53,7.29-17.28c0.6-1.43,1.63-1.89,3.1-1.96
	C160.32,380.37,168.08,379.93,176.49,379.48z"/>
<path class="st2" d="M110.24,477.94c2.45-6.14,4.79-11.95,7.08-17.77c0.55-1.39,1.43-1.97,2.99-2.04
	c7.77-0.33,15.53-0.77,23.97-1.22c-2.57,6.56-4.93,12.52-7.23,18.51c-0.49,1.28-1.33,1.77-2.63,1.79
	C126.51,477.34,118.64,478.5,110.24,477.94z"/>
<path class="st0" d="M191.03,283.21c2.18-5.31,4.58-11.06,6.88-16.85c0.49-1.23,1.13-1.92,2.48-1.98c7.89-0.35,15.78-0.73,24.4-1.13
	c-2.72,6.46-5.24,12.34-7.64,18.26c-0.54,1.34-1.39,1.7-2.64,1.7C206.78,283.2,199.04,283.21,191.03,283.21z"/>
<path class="st1" d="M174.54,322.87c2.2-5.43,4.5-11.06,6.76-16.7c0.55-1.37,1.35-2.04,2.94-2.11c7.77-0.34,15.53-0.82,24.12-1.29
	c-2.72,6.55-5.16,12.43-7.61,18.31c-0.49,1.16-1.31,1.8-2.67,1.8C190.34,322.85,182.6,322.87,174.54,322.87z"/>
<path class="st1" d="M135.6,332.74c-0.12-0.71-0.23-0.92-0.16-1.03c2.92-5.01,2.59-12.55,8.08-15.14
	c5.17-2.44,11.62-2.16,18.67-3.26c-2.6,5.91-4.85,11.34-7.45,16.59c-0.38,0.78-2.38,0.91-3.66,1.07
	C146.01,331.61,140.93,332.14,135.6,332.74z"/>
<path class="st1" d="M150.7,295c2.27-5.33,4.3-10.01,6.24-14.73c0.5-1.22,1.23-1.82,2.53-2.01c5.71-0.82,11.41-1.71,18.07-2.72
	c-2.3,5.62-4.38,10.57-6.34,15.55c-0.52,1.32-1.52,1.69-2.69,1.83C162.79,293.61,157.08,294.26,150.7,295z"/>
<path class="st0" d="M70.88,488.4c1.98-5.13,3.74-9.57,5.38-14.06c0.59-1.62,1.59-2.18,3.27-2.42c5.72-0.79,11.42-1.79,17.85-2.82
	c-2.23,5.5-4.27,10.45-6.21,15.43c-0.42,1.07-1.03,1.64-2.12,1.76C83.18,486.98,77.3,487.66,70.88,488.4z"/>
<path class="st2" d="M86.97,449.51c2.15-5.34,4-9.75,5.68-14.21c0.6-1.6,1.56-2.41,3.18-2.66c5.54-0.83,11.07-1.7,17.57-2.7
	c-2.31,5.75-4.35,10.82-6.38,15.89c-0.44,1.11-1.4,1.27-2.41,1.4C99.06,447.95,93.5,448.67,86.97,449.51z"/>
<path class="st0" d="M167.55,255.4c2.08-5.22,3.9-9.65,5.61-14.12c0.6-1.56,1.56-2.42,3.23-2.63c5.75-0.73,11.49-1.51,17.59-2.32
	c-1.36,3.29-3.01,6.09-3.67,9.12c-1.4,6.42-5.31,8.81-11.56,8.79C175.3,254.21,171.85,254.92,167.55,255.4z"/>
<path class="st0" d="M145.54,352.61c-0.56,1.49-0.77,2.09-1.02,2.68c-6.66,16.1-7.22,16.46-25.62,16.56
	c2.1-4.94,4.18-9.74,6.18-14.57c0.5-1.2,1.26-1.83,2.55-2.01C133.35,354.46,139.06,353.58,145.54,352.61z"/>
<path class="st2" d="M129.3,392.46c-2.25,5.38-4.25,9.9-6.03,14.5c-0.64,1.65-1.6,2.3-3.25,2.49c-5.4,0.64-10.79,1.38-17.26,2.22
	c2.28-5.62,4.25-10.39,6.13-15.2c0.65-1.67,2.12-1.38,3.33-1.57C117.6,394.09,122.98,393.36,129.3,392.46z"/>
<path class="st2" d="M84.86,412.15c-0.49,1.2-0.84,2.1-1.22,2.99c-3.73,8.78-6.26,10.19-15.69,8.79c-0.8-0.12-1.65,0.03-1.95-1.03
	c-0.84-2.95,4.82-10.59,7.97-10.72c3.31-0.14,6.62-0.28,9.93-0.41C84.04,411.77,84.2,411.89,84.86,412.15z"/>
<path class="st0" d="M98.2,345.76c2.65-11.44,3.41-11.91,18.26-11.51C114.58,345.57,111.53,347.49,98.2,345.76z"/>
<path class="st1" d="M114.36,306.86c3.3-11.86,3.3-11.86,17.8-11.93C131.1,306.27,129.05,307.67,114.36,306.86z"/>
<path class="st1" d="M148.75,257c-1.55,4.03-2.77,7.08-3.89,10.15c-0.61,1.68-1.75,2.22-3.44,2.07c-0.99-0.09-1.99,0.08-2.98,0.01
	c-2.75-0.19-7.24,1.26-7.88-0.51c-1.12-3.06,1.96-6.3,3.14-9.5c0.49-1.32,1.71-1.44,2.88-1.51
	C140.35,257.47,144.14,257.27,148.75,257z"/>
<path class="st2" d="M99.97,374.38c-3.85,11.9-5.07,12.61-18.29,10.9C86.71,372.14,83.1,374.31,99.97,374.38z"/>
<path class="st3" d="M455.32,466.27c-3.17-2.78-6.09-5.23-8.9-7.81c-12.3-11.33-27.55-17.24-42.78-23.08
	c-4.53-1.74-5.18-3.46-3.31-7.87c11.03-26.03,21.84-52.15,32.48-78.34c1.44-3.54,2.8-3.87,6.13-2.64
	c18.69,6.91,35.3,17.05,49.64,30.92c1.63,1.58,2.75,2.79,1.61,5.5c-11.45,27.3-22.71,54.67-34.03,82.01
	C456.03,465.26,455.81,465.52,455.32,466.27z"/>
<path class="st4" d="M388.57,458.64c1.46,0.37,2.44,0.58,3.4,0.87c19.06,5.83,35.93,15.44,50.5,29.11c2.05,1.92,2.4,3.39,1.35,5.93
	c-10.78,26.07-21.47,52.18-32.11,78.31c-1.1,2.69-1.78,3.75-4.64,1.37c-15.55-12.97-32.56-23.55-51.66-30.54
	c-2.33-0.85-2.51-1.76-1.6-3.95c10.95-26.18,21.79-52.41,32.69-78.62C386.98,460.01,387.13,458.35,388.57,458.64z"/>
</svg>
