<svg xmlns="http://www.w3.org/2000/svg" viewBox="0 0 58.31 58.9"><defs><style>.cls-1{fill:#00bafe;}.cls-2{fill:#0097fe;}.cls-3{fill:#e2e0e0;}.cls-4{fill:#04c5fe;}.cls-5{fill:#00b5fe;}.cls-6{fill:#016fd4;}.cls-7{fill:#009afe;}.cls-8{fill:#018afe;}.cls-9{fill:#00b0fe;}.cls-10{fill:#009efe;}.cls-11{fill:#00a8fe;}.cls-12{fill:#01adfe;}.cls-13{fill:#0093fe;}.cls-14{fill:#01a4fe;}.cls-15{fill:#009cfe;}.cls-16{fill:#00b7fe;}.cls-17{fill:#007ae8;}.cls-18{fill:#00a2fe;}.cls-19{fill:#00a7fe;}.cls-20{fill:#01b2fe;}.cls-21{fill:#045eaf;}.cls-22{fill:#00aefe;}.cls-23{fill:#008efe;}.cls-24{fill:#01aafe;}.cls-25{fill:#a7a6a5;}.cls-26{fill:#037eee;}.cls-27{fill:#10538f;}.cls-28{fill:#16548c;}.cls-29{fill:#0e5696;}.cls-30{fill:#0064bf;}.cls-31{fill:#075aa6;}.cls-32{fill:#034581;}.cls-33{fill:#0187fd;}.cls-34{fill:#0e66b5;}.cls-35{fill:#084e8d;}.cls-36{fill:#017ae8;}.cls-37{fill:#044f93;}.cls-38{fill:#0073dc;}.cls-39{fill:#125590;}.cls-40{fill:#0464bc;}.cls-41{fill:#006ed2;}.cls-42{fill:#0168c7;}.cls-43{fill:#055297;}.cls-44{fill:#fefefe;}.cls-45{fill:#fafafa;}.cls-46{fill:#09a0fe;}.cls-47{fill:#f4f3f3;}.cls-48{fill:#f1f0f1;}.cls-49{fill:#efeded;}.cls-50{fill:#e6e4e4;}.cls-51{fill:#ebe9ea;}.cls-52{fill:#094b8b;}.cls-53{fill:#eceaeb;}.cls-54{fill:#0163be;}.cls-55{fill:#0070d6;}.cls-56{fill:#0061bb;}.cls-57{fill:#0e4883;}.cls-58{fill:#0468c7;}.cls-59{fill:#0073e1;}.cls-60{fill:#e4e4e7;}.cls-61{fill:#052f60;}.cls-62{fill:#0075df;}.cls-63{fill:#f5f5f6;}.cls-64{fill:#0086fe;}.cls-65{fill:#008dfe;}.cls-66{fill:#0090fe;}.cls-67{fill:#0083fa;}.cls-68{fill:#00a1fe;}.cls-69{fill:#0192fd;}.cls-70{fill:#008dfb;}.cls-71{fill:#0077e3;}.cls-72{fill:#007ceb;}.cls-73{fill:#0080f3;}.cls-74{fill:#0079e6;}.cls-75{fill:#0075e0;}.cls-76{fill:#008bfe;}.cls-77{fill:#0081f7;}.cls-78{fill:#035caf;}.cls-79{fill:#0163bc;}.cls-80{fill:#0081f6;}.cls-81{fill:#006bcc;}.cls-82{fill:#007ff2;}.cls-83{fill:#0078e5;}.cls-84{fill:#fbfbfb;}.cls-85{fill:#e8e5e5;}.cls-86{fill:#0077e7;}.cls-87{fill:#0089f3;}.cls-88{fill:#0389eb;}.cls-89{fill:#0077e2;}.cls-90{fill:#f8f8f8;}.cls-91{fill:#2a66a7;}.cls-92{fill:#0083ec;}.cls-93{fill:#086ece;}.cls-94{fill:#f9f9f9;}.cls-95{fill:#0089f6;}.cls-96{fill:#0089fa;}.cls-97{fill:#0074dc;}.cls-98{fill:#006fd3;}.cls-99{fill:#007def;}.cls-100{fill:#007ae9;}.cls-101{fill:#0085f6;}.cls-102{fill:#0377dc;}.cls-103{fill:#0084fb;}.cls-104{fill:#007cec;}</style></defs><g id="Capa_2" data-name="Capa 2"><g id="Capa_1-2" data-name="Capa 1"><path class="cls-1" d="M7.12,4.71A8.58,8.58,0,0,1,12,2.21a60,60,0,0,1,9.41-1c7.5.1,15.09-.7,22.59.8a4.16,4.16,0,0,0,2.21.1,10.36,10.36,0,0,1,5,2.5c-.41,1.7-1.71,1.3-2.71.9-3.4-1.2-6.9-.4-10.29,0-.6.1-1.3.1-1.5.7s.59.9.9,1.3c.8.9,2.5,1.2,1.7,3a4,4,0,0,1-2.4.2c-3.6-.6-7.1,0-10.6.3-1-1.4.2-2.1.9-2.9,1.3-1.5,1.2-1.8-.7-2.5a13.08,13.08,0,0,0-4.4-.7c-4.2.1-8.4-.3-12.6.5A2.09,2.09,0,0,1,7.12,4.71Z"/><path class="cls-2" d="M1,16.71a8,8,0,0,1,.71-3.4c2,2.9,5.2,3.3,8.29,3.9,1.5.3,2.91.6,4.41,1a7.76,7.76,0,0,0,5.8,0c.59-.2,1.29-.4,1.7.4a14,14,0,0,1-.1,7c-1.6,1.4-3.6.5-5.4.9a1.2,1.2,0,0,1-.8-.2c-1.4-3.9-4.2-5.6-8.2-5.8A13.27,13.27,0,0,1,2.93,19,2.69,2.69,0,0,1,1,16.71Z"/><path class="cls-3" d="M22.72,58.61a6.12,6.12,0,0,0-1.2-.5,2.1,2.1,0,0,1-.4-1.1,4.87,4.87,0,0,1-.1-1.2,9.7,9.7,0,0,0-.1-1.7V41.81a20.85,20.85,0,0,0,0-2.5v-1.6a6.48,6.48,0,0,1,.2-2,1.16,1.16,0,0,1,.5-.7H22a1.61,1.61,0,0,1,.5.7,32.32,32.32,0,0,1,.3,5.6v4.4c.1,2.9-.09,5.9,0,8.8.2.6.5.4.91.3a13.2,13.2,0,0,1,3.2-1.1c2.7-.4,3.8-1.8,3.7-4.5a4.92,4.92,0,0,0,.2-2.4,14.82,14.82,0,0,1,.2-4.2,2.35,2.35,0,0,1,.2-.8c.6-2.1-.2-4.4.5-6.5,1.2-1.8,3.1-1.1,4.8-1.3,1.2-.1,2.6.2,2.9-1.5a15.06,15.06,0,0,0,.1-3,1.33,1.33,0,0,1,.6-1,1.09,1.09,0,0,1,1.1.2c1,1.8.09,3.5-.1,5.3-.1.3-.2.5-.3.8a2,2,0,0,1-1,.8,9.82,9.82,0,0,1-3.4.3c-2.8.1-3,.3-3.1,3v3.5a38.8,38.8,0,0,1-.2,5.9c-.6,2.4-.2,4.8-.3,7.2-.1,2.8-.3,2.9-3,3C27.42,58.51,25,58.11,22.72,58.61Z"/><path class="cls-4" d="M46.12,2.11c-.6,1-1.6.7-2.5.6-4-.5-8-1.2-12.1-.9-5.79.5-11.7-.5-17.4.8a9.33,9.33,0,0,1-2.2-.4C18-.29,24.52,0,31,0,36.12,0,41.32,0,46.12,2.11Z"/><path class="cls-5" d="M7.12,4.71a141.48,141.48,0,0,1,14.6-.5,18.15,18.15,0,0,1,6.1,1c2,.7,2.2,1.7.5,2.9a5.56,5.56,0,0,0-2.1,2.7c-.1,1.2-.7,1.5-1.7.9-.1-.2-.3-.4-.4-.6-1-3.9-1-4-4.9-4.4a47,47,0,0,0-10.6,0c-.9.1-2.2.7-2.4-1.1A1.06,1.06,0,0,1,7.12,4.71Z"/><path class="cls-6" d="M21.62,54.71v1.5a2.32,2.32,0,0,1-2.1.6,69.52,69.52,0,0,1-10.2-2.7c-2.5-1-4.2-2.9-5.8-4.8-1.59-2.2-2-4.9-2.59-7.5,1.4-.3,1.3,1,1.7,1.7.9,3.5,3.4,5.5,6.5,6.7a17.66,17.66,0,0,0,6,1.5c1.9,0,3.4,1.3,5,2A3.09,3.09,0,0,1,21.62,54.71Z"/><path class="cls-7" d="M21.62,18.21c-2.4,1.5-4.9,1.4-7.5.6a73.55,73.55,0,0,0-8.4-2c-2.2-.4-3.6-1.4-4-3.6a3.49,3.49,0,0,1,.8-2.2c.6,2.9,3,3.1,5.3,3.5,4.6.8,9.1,2,13.8,2.6A.78.78,0,0,1,21.62,18.21Z"/><path class="cls-8" d="M.22,24.21a28.51,28.51,0,0,1,.5-6.5.77.77,0,0,1,.8.7,10.8,10.8,0,0,1,.2,3.1c-.3,2.6.9,4.1,3.2,4.9a37.73,37.73,0,0,0,5.7,1.8,3.94,3.94,0,0,0,3.9-.9,1.21,1.21,0,0,1,1-.3,1.84,1.84,0,0,1,.5,1,3.18,3.18,0,0,1-.2,1.4c-.59.5-1.4.6-2,1.2a13.25,13.25,0,0,1-9,.1,5.65,5.65,0,0,1-4.4-4.9C.32,25.41.52,24.81.22,24.21Z"/><path class="cls-9" d="M6.12,5.61c.5.8,1.3.7,2,.6a41,41,0,0,1,12.6,0c3.5.6,3.8.8,3.8,4.3a8,8,0,0,0,.3,1.5c-.2.4-.5.5-1,.5-.3-.2,0,.2-.2-.1-3.8-5.3-9.6-4.3-15-4.6-1.2-.1-2.9.9-3.5-1.1A1.41,1.41,0,0,1,6.12,5.61Z"/><path class="cls-10" d="M21.62,17.21c-4.1.6-7.9-1-11.8-1.7a26.38,26.38,0,0,0-3.9-.7c-2.5-.1-3.6-1.3-3.3-3.8a.37.37,0,0,1,.1-.3c.5-.1.7.2,1,.5,1,1.3,2.5,1.1,3.9,1.3,4,.7,8,1.2,11.9,2.6a7.57,7.57,0,0,1,2.21,1A.91.91,0,0,1,21.62,17.21Z"/><path class="cls-11" d="M3.32,9.21c.3-.5.6-1,.91-1.5,3.09.5,6.2-.1,9.29.3,4,.5,7.91,1.2,9.71,5.5a1.45,1.45,0,0,1-.8.9,2,2,0,0,1-1.7-.2c-4.8-2.8-10.21-3-15.5-3.9C4.52,10.21,3.62,10.31,3.32,9.21Z"/><path class="cls-12" d="M23.12,13.61c-3.8-5.1-9.3-5.1-14.8-5-1.4,0-3,.6-4.09-.9a1.42,1.42,0,0,1,.9-1.1c.7.9,1.7.7,2.5.6,3.5-.5,7,.1,10.5.6,2,.3,3.8,1,4.8,3a2.63,2.63,0,0,0,1.5,1.6C24.42,13.21,24.32,13.91,23.12,13.61Z"/><path class="cls-13" d="M1.12,18.21a1.76,1.76,0,0,0-.4-.5c.1-.4.2-.7.3-1.1,1.9,2.5,4.9,3,7.6,3.4,5.2.9,5.9,1.2,7.1,6.2a1.85,1.85,0,0,1-.7.2c-3.3-2.6-7.2-3.9-11.2-4.9C2.12,21.21,1.62,19.71,1.12,18.21Z"/><path class="cls-2" d="M56.52,13.21a1.39,1.39,0,0,1,.1,1.9,2,2,0,0,1,.1,1.5,8.34,8.34,0,0,1-9.8,2.3,13.07,13.07,0,0,0-2.7-1.2,3.27,3.27,0,0,1-1.5-1.1c-.6-.9-1.6-1.6-1.9-2.6a1,1,0,0,1,.4-1,3,3,0,0,1,2,.8c3.2,2.5,6.7,1.9,10.2,1.2C54.82,14.91,55.22,13.41,56.52,13.21Z"/><path class="cls-14" d="M3.32,9.21c2.91.5,5.7,1.2,8.7,1.5a28.23,28.23,0,0,1,10.6,3.5c.5.6.5,1.2-.2,1.6-4.5-1.2-8.9-2.9-13.7-3.6-1.8-.2-3.9.2-5.5-1.1l-.5-.5C2.92,10.21,3.12,9.71,3.32,9.21Z"/><path class="cls-15" d="M56.52,13.21c-.79,2.2-2.7,2.7-4.7,3a11.72,11.72,0,0,1-10.7-3,.9.9,0,0,1-.1-1.1.9.9,0,0,1,.71-.1,14.66,14.66,0,0,0,14.2-.8A3.94,3.94,0,0,1,56.52,13.21Z"/><path class="cls-16" d="M39.62,10.21c-.7-1.4-2.1-2-3.3-2.9-.5-.3-1.09-.5-.9-1.3.1-.5.6-.7,1.1-.8,3.8-.6,7.6-1.6,11.5-.5,1.1.3,2.2,1,3.2-.1a2.37,2.37,0,0,1,1.3,1.1,1.92,1.92,0,0,1-2.4.7,18.44,18.44,0,0,0-6.2-.1c-2.7.3-2.9.5-2.8,3.2a3.55,3.55,0,0,1-.2,1C40.22,11.11,39.92,10.71,39.62,10.21Z"/><path class="cls-17" d="M2.12,43.71c-.5-.6-.3-1.7-1.2-2a12,12,0,0,1-.3-3.8c-.1-.7-.5-1.4.4-1.8.71.4.71,1.1.8,1.7a5.66,5.66,0,0,0,.3,1.8c.9,2.7,3.1,3.8,5.7,4.2,2.2.4,3.1-.4,3.7-2.6.41-1.8.41-3.9,2.6-4.7.4.2.4.5.4.9a5,5,0,0,1-.29,1.1c-.1.2-.21.5-.3.7a7.62,7.62,0,0,0-.1,3.4c.7,2.3-.6,3.9-2.9,4.1a11.19,11.19,0,0,1-6-.9A7.46,7.46,0,0,1,3,44.71C2.62,44.51,2.42,44,2.12,43.71Z"/><path class="cls-18" d="M55.92,11.21a2.78,2.78,0,0,1-2.6,2.2c-3.5.5-7,1.5-10.4-.2a3.25,3.25,0,0,1-1.3-1,1.91,1.91,0,0,1,1.6-.6c4.1-.2,8.2-1,12.3-1.3C55.62,10.61,55.82,10.91,55.92,11.21Z"/><path class="cls-19" d="M55.12,9.21c.2.4.2.6.4,1-1,1.5-2.5.8-3.79,1a38.06,38.06,0,0,1-10.1.9h-.4a.78.78,0,0,1-.21-1c.21-.2.41-.3.6-.5a1.85,1.85,0,0,1,.7-.2c1.3,0,2.3-.9,3.5-1.2A22.42,22.42,0,0,1,55.12,9.21Z"/><path class="cls-20" d="M40.62,10.61a10.46,10.46,0,0,0-.4-1.7c-.6-2,.5-3.1,2.3-3.2,2.5-.1,5.1-.9,7.5,0a4.84,4.84,0,0,0,2.4-.1c.2.3.5.5.7.8,0,1.5-1.2,1.2-2.1,1.3a23.18,23.18,0,0,1-3.7-.1c-2.8,0-5,.9-6.3,3.4h-.09a.37.37,0,0,1-.6,0C40.42,11,40.42,10.81,40.62,10.61Z"/><path class="cls-21" d="M3.52,49.21c4.1,4.2,9.41,5.6,14.91,6.7a17.17,17.17,0,0,0,3.2.3,3.4,3.4,0,0,0,.1,1c-2,.8-3.91-.1-5.8-.3a42.09,42.09,0,0,0-4.8-1.2C7.92,54.21,4.82,52.81,3.52,49.21Z"/><path class="cls-22" d="M41.12,11.21c.4-2.8,1.5-3.8,4.1-4a32.46,32.46,0,0,1,5.4,0c.8.1,1.9.3,2.5-.7l.9,1.2A1.69,1.69,0,0,1,52.12,9c-3.9-.8-7.2.7-10.6,2.2Z"/><path class="cls-23" d="M56.62,16.71v-1.6c1,.5.3,1.4.5,2a7,7,0,0,1,.4,2.9c-1.5,2.9-3.7,4-7.2,3.6-1.09-.7-2.4-1.3-2.2-3,1.1-.8,2.4-.3,3.6-.4C53.92,19.81,55.72,19,56.62,16.71Z"/><path class="cls-24" d="M41.62,11.21a10.81,10.81,0,0,1,9.7-2.6c1.1.2,1.8-.5,2.7-.9a2.43,2.43,0,0,1,.91,1.5c-2.3,1.2-4.6-.2-7,.3C45.82,10,43.92,11.71,41.62,11.21Z"/><path class="cls-25" d="M22.72,58.61c2.3-1.1,4.7-.4,7-.4,1.9,0,2.6-.6,2.6-2.5,0-2.5-.5-5.1.4-7.5,1.4,3,.6,6.1.6,9.2a2.18,2.18,0,0,1-.5.8c-2,1.3-4.2.3-6.2.6C25.22,58.81,23.92,58.61,22.72,58.61Z"/><path class="cls-26" d="M1.12,36.21c-.6.4-.5,1.1-.6,1.7-.79-4.5-.5-9.1-.29-13.7.5.4.4,1,.4,1.5a15.31,15.31,0,0,1,.7,4.7c-.3,1.7.3,3.4.2,5A1.08,1.08,0,0,1,1.12,36.21Z"/><path class="cls-27" d="M47.72,55.41c-2.3,1.5-5,1.8-7.6,2.2-.4-.1-.7-.3-.6-.8.71-.9,1.8-.7,2.71-1.1,1.4-.2,2.7-.9,4.09-1C46.92,54.71,47.52,54.71,47.72,55.41Z"/><path class="cls-28" d="M15.62,56.71c2-.1,4,.8,6,.5-.1.3-.1.6-.2,1-2.3-.6-4.8-.3-7.1-1.3C14.82,56.31,15.22,56.41,15.62,56.71Z"/><path class="cls-29" d="M54.32,50.21c-1.09,1.3-1.7,3.1-3.7,3.4a.92.92,0,0,1-.2-1c.9-1.2,1.7-2.4,3.3-2.7A.86.86,0,0,1,54.32,50.21Z"/><path class="cls-30" d="M57.62,39.41c.3,1-.9,1.7-.5,2.8-.4.3-.7,1.1-1.3.3-.5-1.9.41-3.5.91-5.2.09-.4.5-.9,1.09-.4A7.25,7.25,0,0,1,57.62,39.41Z"/><path class="cls-31" d="M50.62,52.71v1l-.1.1h-.2c-.59.9-1.9.9-2.59,1.7h0c-.5-.1-1.1-.1-1.6-.2a.62.62,0,0,1-.1-.7C47.32,53.31,48.62,52.11,50.62,52.71Z"/><path class="cls-32" d="M39.62,57.11c.2.1.3.3.5.4-.8.1-1.6.1-2.4.2-1.2.4-2.4-.1-3.5.3a7.57,7.57,0,0,0-1.5.1c0-.2.1-.3.1-.5C34.92,55.71,37.22,56.21,39.62,57.11Z"/><path class="cls-33" d="M57.12,20.21v-3.1c1,1.2.9,2.7.9,4.1-.29.5.21,1.3-.59,1.6a.92.92,0,0,1-.6-.4A2.42,2.42,0,0,1,57.12,20.21Z"/><path class="cls-34" d="M56.12,42.71a5.36,5.36,0,0,1,1.1-.5,8.3,8.3,0,0,1-1,4.1,1,1,0,0,1-.4-.5,3.4,3.4,0,0,1-.2-1.4,4.1,4.1,0,0,1,.1-1.1A.68.68,0,0,1,56.12,42.71Z"/><path class="cls-35" d="M15.62,56.71c-.4,0-.8.1-1.2.1a6,6,0,0,1-3.4-1.1A7.29,7.29,0,0,1,15.62,56.71Z"/><path class="cls-36" d="M57.62,22.71c0-.5-.1-1.1.4-1.5a20.41,20.41,0,0,1,.1,5c-.3.2-.5.2-.7-.1A2.1,2.1,0,0,1,57,25,2.44,2.44,0,0,1,57.62,22.71Z"/><path class="cls-37" d="M56,45.71a4.33,4.33,0,0,0,.1.5,6.56,6.56,0,0,1-1.5,3,2.09,2.09,0,0,1-.4-.6C54.32,47.31,54.42,46,56,45.71Z"/><path class="cls-38" d="M57.62,26.21h.5a10.76,10.76,0,0,1,0,4c-.3.2-.5.2-.7,0a3.51,3.51,0,0,1-.5-2A2.37,2.37,0,0,1,57.62,26.21Z"/><path class="cls-39" d="M47.72,55.41c.5-1.2,1.6-1.2,2.6-1.7C49.92,55.11,48.82,55.21,47.72,55.41Z"/><path class="cls-40" d="M57.62,39.41a24.37,24.37,0,0,0-.1-2.7,1.21,1.21,0,0,1-.2-1.4.48.48,0,0,1,.7-.1A8.64,8.64,0,0,1,57.62,39.41Z"/><path class="cls-31" d="M34.12,58c1.1-.7,2.3-.3,3.5-.3A6,6,0,0,1,34.12,58Z"/><path class="cls-41" d="M57.62,30.21h.5v2.5a.48.48,0,0,1-.7,0,.91.91,0,0,1-.3-.7A1.73,1.73,0,0,1,57.62,30.21Z"/><path class="cls-42" d="M57.62,32.71h.5v2.5h-.5A1.6,1.6,0,0,1,57.62,32.71Z"/><path class="cls-43" d="M54.62,48.71v.6c0,.4.1.8-.3,1a1.7,1.7,0,0,1-.7-.1C53.12,49.11,53.52,48.61,54.62,48.71Z"/><path class="cls-44" d="M40.62,10.61a.37.37,0,0,0,.1.3,24.84,24.84,0,0,1,.2,3.8c-.2.6-.7.6-1.2.6-6.7-.1-10.6,4-13.7,9.1-2.4,3.9-5.7,5.1-10,3.1-.3-1.2.5-1.4,1.4-1.5s1.8,0,2.7-.1c.5-.2,1-.1,1.4-.5.5-2.5.1-5,.21-7.5a3.4,3.4,0,0,0-.1-1c0-.3.1-.6.1-1,.09-.2.2-.4.5-.4a1.56,1.56,0,0,0,.4-1.6l.6-.6c.7-.2.9-.8,1.2-1.3.09-.1.3-.2.4-.4a17.41,17.41,0,0,0,1.4-1.2c4.4-1.9,9-1,13.5-.5A1.18,1.18,0,0,0,40.62,10.61Z"/><path class="cls-45" d="M20.62,26.31c-.8.7-1.7.3-2.6.4s-1.7-.2-1.9,1c.1.1.2.2.2.3s0,.2-.09.2-.41.1-.5,0c-.1-.3-.1-.7-.21-1s-.2-.7.21-.9h0c.09,0,.29,0,.29-.2A8.94,8.94,0,0,1,20.62,26.31Z"/><path class="cls-46" d="M20.62,26.31c-1.5,0-3-.1-4.5-.1,1.7-1,3.6-.2,5.3-.5C21.42,26.21,20.92,26.11,20.62,26.31Z"/><path class="cls-47" d="M40.12,28.71v1c-2,2.5-5.1,2.9-7.9,3.6-3.5.8-7.1,1.5-10.8.6-1.9-.5-3.9.3-5.9-.2a1.66,1.66,0,0,1,0-2.1c1.8-1.2,3.9-.5,5.8-.6a21.47,21.47,0,0,0,7-1.2,29.39,29.39,0,0,1,12.1-2.4C41.12,27.91,40.62,28.31,40.12,28.71Z"/><path class="cls-48" d="M15.72,33.71a14.63,14.63,0,0,1,6.9-.4c5.7.7,11-.7,16.2-3,.41-.2.91-.4,1.3-.6-.2.8.6,1.7,0,2.5-.4,1.7-1.5,2-3.1,2-1.79,0-3.79-.7-5.2,1.1-2.4,3.5-7.7,3.4-9.59-.2h0c-.5-.4-1.1.1-1.71-.1-1.29-.4-2.59-.1-3.79-.3a1.9,1.9,0,0,1-.71-.2c-.09-.1-.2-.1-.29-.2A.37.37,0,0,1,15.72,33.71Z"/><path class="cls-49" d="M22.12,35.21c3.3,2.7,6.6,2.7,9.5,0,.1.1.1.2.2.4,0,1.4.1,2.7,0,4.1a2.14,2.14,0,0,1-.5,1.1c-1.59,1.9-7.2,2.2-9.09.4C22.22,39.21,22.12,37.21,22.12,35.21Z"/><path class="cls-50" d="M31.12,49.21v2.7a1.58,1.58,0,0,1-1.4,1.8,16.25,16.25,0,0,0-7,2.7c-.5.3-.6-.3-.6-.7a3.58,3.58,0,0,0,.4-1.1c.1-4.9,2.91-6.8,8.21-5.7A1.46,1.46,0,0,1,31.12,49.21Z"/><path class="cls-51" d="M22.62,55.21c-.1.2-.3.3-.4.5v-10a3.12,3.12,0,0,1,2-1.4,60.84,60.84,0,0,0,7.4-1.6c.3,1.3-.8,2.7,0,4-.2.2-.4.3-.6.5a6.69,6.69,0,0,1-3.09.7c-3.6.3-5,1.8-5,5.4C22.82,53.91,23,54.61,22.62,55.21Z"/><path class="cls-52" d="M32.72,42.21c-.5-6.8-.5-6.8,6.1-7,.4,0,.8-.1,1.2-.1,1.1,1.8-.3,2.7-1.4,3.3a9.06,9.06,0,0,0-4,3.5C34.22,42.51,33.52,43.41,32.72,42.21Z"/><path class="cls-53" d="M31.62,42.71a6.41,6.41,0,0,1-4.7,1.9,19.69,19.69,0,0,0-4.8,1.1v-4.5c3.3.4,6.7,1.6,9.4-1.5a2.69,2.69,0,0,1,0,2.5A.75.75,0,0,1,31.62,42.71Z"/><path class="cls-54" d="M40.52,34.61a.31.31,0,0,1,.1-.4c.4-1.2,1-1.5,1.7-.3a4.55,4.55,0,0,1,.6,3,4.88,4.88,0,0,1-.3.7,21.61,21.61,0,0,1-3.8,3.6c-2.7,1.9-4,8.4-2.4,11.4.8,1.5,2.3,1.5,3.7,1.4s2.6-.8,3.9.1a.72.72,0,0,1,.1.8c-.5.9-1.4.8-2.3.9a26.11,26.11,0,0,1-5.59,0,2.27,2.27,0,0,1-1.6-1.4,16.14,16.14,0,0,1-.7-4.9A35.58,35.58,0,0,1,34,45a8.11,8.11,0,0,1,4.3-6.1c.2-.1.41-.3.6-.4,1.3-.8,2.5-1.7,1.7-3.5C40.62,34.81,40.52,34.71,40.52,34.61Z"/><path class="cls-31" d="M32.72,42.21a.35.35,0,0,1,.2.1c2.4-2.1,4.8-4.1,7.1-6.3.2-.2.1-.6.1-1,.1-.2.3-.3.4-.5l.1.2c1.1,1.9-.2,3-1.5,3.9h0a8.55,8.55,0,0,0-5,8.1c-.1,1.6-.3,3.3-.3,4.9,0,3.3,1.4,4.5,4.8,4.1,1.2-.1,2.4-.6,3.6.3-.6.9-1.9.1-2.5,1-2.3.3-4.6-.5-6.8.5-.1-3.2-.1-6.3-.2-9.5A56.07,56.07,0,0,1,32.72,42.21Z"/><path class="cls-55" d="M21.62,41.71v3.5c-.1,0-.2.1-.4.2a2.65,2.65,0,0,1-.6-.5c-.3-.5-.5-1-1.1-1.2-4.09-1.2-5.4-1.9-4.2-8.3a.88.88,0,0,1,.6-.3,2.65,2.65,0,0,1,.6.5c.7,2.2,1.5,4.4,4.2,4.8C21.42,40.51,21.22,41.31,21.62,41.71Z"/><path class="cls-56" d="M21.62,41.71c-.3-.3-.6-.8-.9-.8-3.3-.2-4.1-2.5-4.6-5.2a11.57,11.57,0,0,1,5.5,3.5Z"/><path class="cls-57" d="M21.62,39.21c-1.9-1.1-4.1-1.9-5.7-3.7v-.3a5.83,5.83,0,0,1,5.3-.1c.1.2.1.3.2.5a2,2,0,0,0,.2,2Z"/><path class="cls-49" d="M31.62,35.21c1.2-1.9,3.1-1.5,4.9-1.5,1.5,0,2.8-.1,3.6-1.5.2,1.9-.8,2.4-2.5,2.5s-3.8-.4-5.5.5c-.2.2-.3.2-.5,0Z"/><path class="cls-58" d="M42.62,37.21c-.2-1-.3-2.1-.6-3.1-.4-1.3-.9-.2-1.29,0,.2-1.8.29-3.6.5-5.5a.51.51,0,0,1,.7.2,18.77,18.77,0,0,1,1.7,5.7C43.72,35.51,44.22,36.81,42.62,37.21Z"/><path class="cls-59" d="M21.12,45.21h.5v9.5c-.5,0-1.1.1-1.5-.5s-.8-.9-.6-1.6A2.65,2.65,0,0,1,20,52c.91-1.9.21-3.9.5-5.8A1.7,1.7,0,0,1,21.12,45.21Z"/><path class="cls-60" d="M21.52,35.21H16l-.2-.1-.2.1a.47.47,0,0,1-.6-.1.84.84,0,0,1,.71-1h.4c1.4.7,3-.1,4.5.5a1.74,1.74,0,0,1,1.5.5C21.92,35.11,21.72,35.21,21.52,35.21Z"/><path class="cls-51" d="M31.62,35.21h.5c-.2,2.3.5,4.7-1.5,7l1-2.5Z"/><path class="cls-49" d="M41.52,28.51c-.09.1-.2.1-.4.2H40c.21-.3.3-.7.5-1-.2-.4-.09-.8-.2-1.2a.55.55,0,0,1,.3-.5.64.64,0,0,1,.6,0,1.44,1.44,0,0,1,.7,1.1,3.4,3.4,0,0,1-.1,1C41.92,28.21,41.72,28.41,41.52,28.51Z"/><path class="cls-50" d="M31.12,46.71h.5c-.1.8.3,1.8-.5,2.5h0A1.75,1.75,0,0,1,31.12,46.71Z"/><path class="cls-61" d="M21.62,37.71c-.4-.6-1.3-1.2-.2-2A2,2,0,0,1,21.62,37.71Z"/><path class="cls-62" d="M19.62,52.71c.2.5.3,1,.5,1.5-3.1-1.9-6.8-2.2-10.2-3-3.2-.8-7.1-4.4-7.8-7.5.3.2.7.3,1,.5a10.57,10.57,0,0,0,7.6,4.1c2.1.3,4.1.7,6.1,1.1C18.52,49.81,19.82,50.71,19.62,52.71Z"/><path class="cls-63" d="M41,26.71c.6.3,0,.7,0,1-4.7,1-9.7,1.2-14,3.7-1.29.7-2.79.3-4.2.3-2.2.1-4.5,0-6.7,0a1,1,0,0,1-.5-1,1.5,1.5,0,0,1,.4-1.1c.1-.5.1-1,.21-1.5h.4a1,1,0,0,1,.4.5,3.55,3.55,0,0,0,.4.9c3.5.6,7.3,1.6,10.1-1.4,2-2.1,4.3-4.4,4.5-7.7a4.45,4.45,0,0,1,1-2.6,3.6,3.6,0,0,1,2.2-.9c1.5-.1,3,0,4.6-.2.9-.2.7-1.3,1.4-1.7,0-1.4.1-2.8.1-4.2.1.1.3.1.4.2h0c0,.5.1,1.4.1,2v1a.1.1,0,0,0,.1.1,4.71,4.71,0,0,1,.4,1.6,8.53,8.53,0,0,1,0,1.6,2.51,2.51,0,0,1-.6,1.4c-1.3.7-2.7.4-4.1.5-3.2.1-3.7.5-3.6,3.8a3.08,3.08,0,0,0,.3,1.9,2.65,2.65,0,0,0,.5.6c1.3.5,2.7.2,4.1.3C39.42,26.11,40.32,26,41,26.71Z"/><path class="cls-64" d="M.62,30.71v-5c2.6,5,6.6,6.3,13.5,4.5-.3,2.4-2.1,3.5-4,4.3-3.8,1.5-6.3.8-9-2.4C.82,31.71,1,31.11.62,30.71Z"/><path class="cls-65" d="M15.12,27.71a2.24,2.24,0,0,1-2.2,1.4c-4-.3-7.8-1.3-11-3.9-1.2-.9-.7-2.3-.8-3.5C5.92,23.41,10.92,24.61,15.12,27.71Z"/><path class="cls-66" d="M15.62,27.71c-4.6-2.2-9.6-3.3-14-6v-3.5a6.49,6.49,0,0,0,5.5,3.6c3.4.4,6,2.4,8.7,4.3.1.5.1.7.2,1.2Z"/><path class="cls-67" d="M1.22,31.71c2,1.1,3.2,3.1,6.2,2.7,3.2-.4,5-2,6.8-4.2.3-.7.7-1,1.4-.5v1a5.36,5.36,0,0,1-.5,1.1,11,11,0,0,1-8.4,5C3.12,37,.82,34.81,1.22,31.71Z"/><path class="cls-68" d="M22.12,15.81c-.2.1-.3.3-.5.4a111.58,111.58,0,0,0-17.2-3.5A1.45,1.45,0,0,1,3,11.21C9.72,11.61,16.22,12.41,22.12,15.81Z"/><path class="cls-69" d="M56.62,16.71c-.2,3.1-2.2,4.4-6.5,4.2a13.55,13.55,0,0,1-2-.2c-2.5-.4-3.8-1.5-4-3.5a3.77,3.77,0,0,1,1.6.4C49.62,20.11,53.12,19.11,56.62,16.71Z"/><path class="cls-70" d="M44.52,17.21c.8,1.7,2.5,2.5,4,3.5.71.8,1.3,1.7,2,2.5.3.6-.09.9-.5,1.2a3.9,3.9,0,0,1-2.09-.4c-1.5-.9-1.8-2.9-3.3-3.8-1.1-1.3-2.1-2.5-3.1-3.9v-1c.9-.2,1.2.7,1.9,1A2.37,2.37,0,0,0,44.52,17.21Z"/><path class="cls-69" d="M43.52,16.21c-.79.1-1.29-.7-1.9-1v-1A5.2,5.2,0,0,1,43.52,16.21Z"/><path class="cls-71" d="M19.22,52.21c-.8-2.1-2.3-2.8-4.3-3.1a45,45,0,0,1-7.3-1.5,5.54,5.54,0,0,1-3.8-3.9c.5.3.91.7,1.41,1,2.29,1.8,5,1.8,7.7,1.7,1.4-.1,2-1,1.5-2.6-.6-1.8-1.7-3.5-.8-5.6v-.5c.7-.2.8.3.9.8a6.07,6.07,0,0,0,5.2,5.5,1.6,1.6,0,0,1,.9.7h0v1c-1.2,1.1-.7,2.6-.8,3.9-.1.9.5,1.8-.1,2.6Z"/><path class="cls-72" d="M15.72,34.21a4.05,4.05,0,0,0-.5.9.66.66,0,0,1,.1.6,1.72,1.72,0,0,1-1.2,1,5.61,5.61,0,0,0-2.1,4.7c0,2.4-1.5,3-3.3,3.2-2.9.3-6.2-2.1-7.1-4.9,1-.3,1.7.4,2.4.8,3.3,1.6,5.6.7,7.1-2.9.6-1.9,2-2.9,3.8-3.7a.6.6,0,0,1,.6.3Z"/><path class="cls-73" d="M15.62,34.21c-1.3,1.1-2.9,1.7-3.5,3.5-2.7,4.4-6.6,4.8-10,1.1-.2-.5-.3-.9-.5-1.4v-1.7c.2-.1.3-.2.5-.1,5.4,3.2,9.3.7,12.9-3.3.3-.3.5-.3.8,0A3.13,3.13,0,0,1,15.62,34.21Z"/><path class="cls-74" d="M13.62,38.71c-.4,2,.8,3.6,1.5,5.4.9,2.3.6,3.2-1.8,3.4-3.09.3-6.2.2-8.7-2.3,2.1.6,4.1,1.3,6.3,1,1.9-.2,3.2-1.9,2.3-3.4S13,40,13.62,38.71Z"/><path class="cls-75" d="M15.12,35.71v-.6a.52.52,0,0,1,.4.2V39c0,2.1,1.71,4.3,3.6,4,2.6-.5,1.7,1.1,1.9,2.3-4.59-.1-6.59-2.9-7.5-7l.5-.5C14.62,37.11,14.42,36.21,15.12,35.71Z"/><path class="cls-26" d="M1.12,38.21c2.2,1.6,4.3,3.2,7.4,2.2,1.5-.5,1.71-2.2,3.1-2.7-.8,3.6-4,5.2-7.2,3.6-1-.5-1.9-1.1-2.8-1.6C1,39.31,1.12,38.71,1.12,38.21Z"/><path class="cls-74" d="M15.62,35.71a2.61,2.61,0,0,1-1,2v-1C14.62,36,14.92,35.71,15.62,35.71Z"/><path class="cls-76" d="M49.12,24.21c.2-.3.3-.7.5-1a7.59,7.59,0,0,0,5.5-1.5c.8.5.8.5,1.5,1a.76.76,0,0,1-.1.4c-2,3-4.09,3.9-6.59,3C49.52,25.51,48.82,25.11,49.12,24.21Z"/><path class="cls-77" d="M15.12,32.21c-2.6,3-5.2,5.7-9.6,5.5-1.9-.1-2.9-1.3-4.4-2.1a17,17,0,0,1-.5-5,1,1,0,0,1,.5,1c.3,3.3,3.2,5.2,6.8,4.3,3-.7,5.1-2.8,7.2-4.8A.78.78,0,0,1,15.12,32.21Z"/><path class="cls-78" d="M41.62,56.21c-2.6-.2-5.2,1.2-7.7-.4-.7-.4-1.3-.6-1.3-1.5-.1-4.1-.1-8.1,1.7-11.9a6,6,0,0,1,4.3-3.7c-3.8,2.5-5.1,6.1-4.5,10.5a6.26,6.26,0,0,0,.5,5,1.65,1.65,0,0,0,1,1,15.15,15.15,0,0,0,6,0,3.51,3.51,0,0,0,2-.5,1.42,1.42,0,0,1,2,0v.5A9.1,9.1,0,0,1,41.62,56.21Z"/><path class="cls-79" d="M45.62,54.71h-2v-.5c2.3-1.9,5.4-2.4,7.3-4.9,1-1.3,2.3-2.4,3-3.9.3-.6.6-1.4,1.6-1.2v1.5a6.1,6.1,0,0,0-1.5,3,1.55,1.55,0,0,0-1,1.2l-2.8,2.8C48.52,52.91,47.22,54,45.62,54.71Z"/><path class="cls-55" d="M41.52,28.51c-.09-.1-.09-.2.1-.3,2.3.7,2.5,2.7,2.7,4.6a49.34,49.34,0,0,1-.09,5.3c-.21,1-1.1,1.7-1.6,2.6-.1.2-.3.4-.4.6a16.28,16.28,0,0,0-2.8,4.1c-1.1,2.7.09,4.3,2.9,4,6.7-.7,11.8-4.9,13.2-10.9a27,27,0,0,0,.9-4.8c.2-.6.1-1.4,1.1-1.4v4.5a31,31,0,0,0-1.5,6v.5c-1.2,1.1-1.5,2.8-2.5,3.9s-1.8,2.2-3.2,2.6c-2.4.9-4.6,2.1-7.2,2.4a6.15,6.15,0,0,1-1.9.2c-3.8-.1-5-1.4-4.71-5.2.1-1.1.41-2.1.6-3.2a6.45,6.45,0,0,1,2.6-3.3,13.1,13.1,0,0,0,3-3.6h0c1.2-2,0-3.9-.5-5.8A12.76,12.76,0,0,1,41.52,28.51Z"/><path class="cls-80" d="M57.22,23.21c.4,1.2.3,1.1.7,2.4a.76.76,0,0,1-1-.1,1.83,1.83,0,0,1,.3-2.3Z"/><path class="cls-81" d="M50.62,49.21a10.86,10.86,0,0,0,3.9-4.6c.3-.8.71-1.3,1.5-1.4v1a34.06,34.06,0,0,1-5.29,6.6A15.35,15.35,0,0,1,44,54.21a12.48,12.48,0,0,0-2.7.3c-4,.9-5.3.2-5.8-3.8-.4-3.3-.79-6.9,2.3-9.3,1.7-1.3,3-3,4.8-4.2.2,1.7-1.3,2.4-2.2,3.4s-1.9,2.1-2.8,3.1a17.35,17.35,0,0,0-1,5.6,2.5,2.5,0,0,0,2.2,2.8c3.41.8,6.6-.3,9.6-1.6C49.22,50.11,49.92,49.61,50.62,49.21Z"/><path class="cls-82" d="M57.12,25.21h.5v3c-.2.2-.3.6-.7.6a1,1,0,0,1-.5-.4,6.34,6.34,0,0,1,.5-3C56.92,25.31,57,25.31,57.12,25.21Z"/><path class="cls-83" d="M57.12,28.71l.5-.5v4c-.6.4-.5,1-.5,1.5-.2.2-.4.2-.7,0a1.76,1.76,0,0,1-.6-1.3C56.22,31.21,56.22,29.81,57.12,28.71Z"/><path class="cls-84" d="M35.12,17.71c-.7.2-1.3.3-2,.5-2.2,3.3-5,6.1-6.9,9.6a2.48,2.48,0,0,1-1.6,1.2c-2.7.5-5.4.9-8-.3v-1h1c4.3.6,7.1-.6,9.2-4.9a15.23,15.23,0,0,1,10.41-7.9,5.31,5.31,0,0,1,3.9.3c-.1.8.3,1.8-.5,2.5C38.72,16.21,36.92,17.11,35.12,17.71Z"/><path class="cls-26" d="M15.62,32.21l-1-1c.6-.2.8-.3.9-.5.1.3.1.7.21,1v2c-.1.2-.1.4-.21.5h.1Z"/><path class="cls-51" d="M20.62,34.61c-1.5-.2-3.1.5-4.5-.5C17.62,34.41,19.22,33.71,20.62,34.61Z"/><path class="cls-85" d="M30.62,46.71v2.5a16.68,16.68,0,0,0-3.2.2c-4.1.8-4.1.8-4.9,5.2,0,.2-.3.4-.4.6.1-1.5,0-2.9.2-4.4.4-2.7,2.1-3.6,4.4-3.6A16.66,16.66,0,0,0,30.62,46.71Z"/><path class="cls-78" d="M39.12,38.71c1-1.1,1.8-2.3,1.5-3.9C42.12,36.61,41.82,37.51,39.12,38.71Z"/><path class="cls-79" d="M35.12,54.21c-1.6-1.5-1.2-3.2-.5-5C34.32,50.91,35.22,52.51,35.12,54.21Z"/><path class="cls-79" d="M42.12,55.21a7.8,7.8,0,0,1-6,0Z"/><path class="cls-86" d="M20.12,52.71a11.74,11.74,0,0,1-.5-4.9c.1-.7-.2-2.1,1.5-1.6v4.6C21.12,51.61,21.32,52.51,20.12,52.71Z"/><path class="cls-87" d="M41.62,16.21c1.8.5,2.2,2.4,3.4,3.5a7.09,7.09,0,0,1,1.41,4.7c-.8,1.5-2.2,2.2-3.6,3h-.4c-.1-.1-.2-.1-.3-.2-.2-.3-.4-.7-.6-1-.9-.4-1.5-.9-1.2-2a3.07,3.07,0,0,1,1.4-.9c1.7-1,2.1-2.4,1-4.1a11.78,11.78,0,0,1-1.1-1.9C41.62,16.91,41.62,16.51,41.62,16.21Z"/><path class="cls-88" d="M40.12,24.21c-.1.9.7,1.3,1,2-.2,0-.3.1-.5.1a30.12,30.12,0,0,1-5.2.1c-.7-.3-.3-.6-.1-1C36.72,24.31,38,22.81,40.12,24.21Z"/><path class="cls-89" d="M41.72,27.21h.4a4.13,4.13,0,0,1,2.6,3.5,3.13,3.13,0,0,1-.4,1.9.59.59,0,0,1-.7.1c.2-1.9-.9-3.2-2-4.5A3.08,3.08,0,0,1,41.72,27.21Z"/><path class="cls-48" d="M35.12,26.11c1.8.1,3.6.1,5.5.2v.4c-2.5-.4-5.1.7-7.5-.6a1.78,1.78,0,0,1,1-.4A1.16,1.16,0,0,1,35.12,26.11Z"/><path class="cls-90" d="M32.12,20.71a3.79,3.79,0,0,1-1.4,3.7,5.67,5.67,0,0,0-1.6,2.2,6.37,6.37,0,0,1-6.2,4.1h-4.7c-.8,0-1.8.2-1.9-1a3.25,3.25,0,0,1,3-.6c3.7.7,6.7-.1,8.3-4a12.17,12.17,0,0,1,2-3.2C30.12,21.21,30.72,20,32.12,20.71Z"/><path class="cls-91" d="M33.12,25.61c-.9-1.7-.5-3.5-.3-5.3.1-1.2,1.1-1.7,2.3-1.7,2,0,4-.1,5.9-.1a.62.62,0,0,1,.21.7c-.1.2-.21.5-.41.6a3.77,3.77,0,0,1-2.8,1.8C35.32,21.71,33.62,22.91,33.12,25.61Z"/><path class="cls-45" d="M32.62,20.71c-2,.5-2.8,2.1-3.6,3.7-2.59,5-4.2,5.8-9.7,4.8-1-.2-1.7.4-2.59.4v-1c5.9,1.1,10.2-.7,12.59-6.5.7-1.8,2.91-2.4,3.91-4A13.1,13.1,0,0,0,32.62,20.71Z"/><path class="cls-92" d="M41,19.21v-.7c0-.4.1-.9.1-1.3,1,.8,2.2,1.5,2.4,2.9.3,2.1-.59,3.2-3.5,4-1.79-.4-3.09.7-4.5,1.5-.59-1.8.91-2,1.91-2.5C39.32,22.41,40.92,21.41,41,19.21Z"/><path class="cls-93" d="M33.12,25.61c0-4,0-4.1,4.1-4.4,1.6-.1,2.5-1,3.5-2,.5,2,.1,2.8-2.4,3.6-1.9.6-3.4,1.4-4.1,3.2h-.9C33.12,25.91,33.12,25.81,33.12,25.61Z"/><path class="cls-94" d="M34.62,18.21c2.3-2,4.4-2,5.5,0Z"/><path class="cls-95" d="M45.62,24.71c-.3-1.7-.7-3.3-1-5,1.7.8,1.9,2.8,3,4a2,2,0,0,1,.3,2.3C46.52,26.61,45.82,26,45.62,24.71Z"/><path class="cls-96" d="M47.62,26.21v-2.5a3.23,3.23,0,0,1,1.7.3,12.44,12.44,0,0,1,1.2,1.4c.41,1.3-.4,1.7-1.29,2.1a2.06,2.06,0,0,1-1.1-.1C47.72,27.11,47.42,26.81,47.62,26.21Z"/><path class="cls-33" d="M48.62,27.21a2.76,2.76,0,0,0,1.5-1.5c2.1,1.1,3.5-.5,4.9-1.5.6-.4.91-1.1,1.6-1.5v2.5c-.5.7-.2,1.7-.9,2.4a5.22,5.22,0,0,1-4.1,2.4C49.82,30.11,48.92,29.31,48.62,27.21Z"/><path class="cls-97" d="M56.12,38.71c-.7,4.6-7.2,11.3-12.5,11a1.7,1.7,0,0,0-.7.1c-1.4.6-2.9.7-3.9-.6a3.9,3.9,0,0,1,0-4.6c.9-1.4,1.6-2.9,3.1-3.8.9,1.1.1,2-.4,2.9s-1,1.8-.2,2.8a2.58,2.58,0,0,0,2.7.8c4.1-1,7.8-2.7,9.9-6.7C54.62,39.71,54.72,38.51,56.12,38.71Z"/><path class="cls-89" d="M56.12,38.21c-.9.4-1.1,1.3-1.5,2a14.94,14.94,0,0,1-7.8,5.7,4,4,0,0,1-4.2-.5c-1.3-1.2-.8-2.6-.1-3.8,1.5-2.6,1.41-5.5,1.6-8.4,1-.1,1,.7,1.2,1.3.1,2,0,3.9.1,5.9,0,1.8,1,2.5,2.6,2,3.2-1,6-2.7,7.1-6.2.4-1.1.4-2.4,1.6-2.9h.5A48.54,48.54,0,0,1,56.12,38.21Z"/><path class="cls-62" d="M44.12,33.21c-.1,3,.4,6.1-1.4,8.9a2,2,0,0,0,.1,2.7,3.29,3.29,0,0,0,3,.7c3.6-.7,6.2-3,8.8-5.4-2.2,4.6-6.4,6.3-11,7.2a2.47,2.47,0,0,1-3.2-2.4,3,3,0,0,1,.7-2.1,3.94,3.94,0,0,0,1-2.7h0c.5-.7,1-1.3,1.5-2v-6h.5A.78.78,0,0,1,44.12,33.21Z"/><path class="cls-98" d="M50.62,49.21c-1.7,2.8-4.8,2.8-7.6,3.5a12.12,12.12,0,0,1-1.9.3c-3.2.5-5.2-1.2-4.9-4.4a9.69,9.69,0,0,1,1.5-4.9c-.2,1.2-.4,2.4-.5,3.7-.2,3.5,2.1,5.1,5.6,4.3C45.52,51.11,47.92,49.71,50.62,49.21Z"/><path class="cls-97" d="M43.62,38.71a2.27,2.27,0,0,1-1.5,2A2.27,2.27,0,0,1,43.62,38.71Z"/><path class="cls-99" d="M44.12,31.21c-.1-1.5-1.3-2.3-2-3.5h0c1-.6,1.6.1,2.2.7a8.34,8.34,0,0,1,.8,1.2c.5,1.3.8,2.7,1.4,3.9,1.3,2.6,3.21,3.1,5.71,1.6,2.2-1.3,3.29-3.4,4.09-5.7.1-.1.2-.2.3-.2h.5a6.17,6.17,0,0,1-1,4,3.33,3.33,0,0,1-.8,2.4,12.06,12.06,0,0,1-2.4,2.1c-2.8,1.8-5.1,1.4-7.5-1.4C44.72,34.71,44.72,32.91,44.12,31.21Z"/><path class="cls-80" d="M56.12,27.21c.3-.7.7-1.3,1-2a8.51,8.51,0,0,1-.5,3.5c-.1.1-.2.1-.3.2a1,1,0,0,1-.5-.4A1.26,1.26,0,0,1,56.12,27.21Z"/><path class="cls-100" d="M54.62,34.71c.3-.7.7-1.3,1-2a1,1,0,0,1,.5,1c-.3,1-.7,2-1,3a8.43,8.43,0,0,1-3.8,4.1c-3.3,2.3-6.59.7-6.9-3.2-.1-.8.3-1.6-.3-2.4a2.54,2.54,0,0,0-.2-1.2c-.1-.4-.2-1-.3-1.4v-1.9c1.2,1.4.9,3.4,1.5,5,2.5,3.6,5.5,3.7,8.4.4A13.44,13.44,0,0,0,54.62,34.71Z"/><path class="cls-101" d="M44.12,28.21c-.7-.3-1.1-1.1-2-1a14.81,14.81,0,0,1,3.5-2.5c.7.5,1.3,1,2,1.5.2.3.3.7.5,1a2.17,2.17,0,0,1-1.5,2.3C45.52,29.61,44.92,28.71,44.12,28.21Z"/><path class="cls-102" d="M34.12,26.11c-.6-2.4,1.2-2.8,2.8-3.4s4-.6,3.7-3.4c.1,0,.3-.1.4-.1.71,1.8-.29,3.4-2.79,4.4-1.1.4-2.5.5-2.71,2.1-.2.1-.29.3-.5.4Z"/><path class="cls-103" d="M46.12,29.21l1.5-2a3.4,3.4,0,0,1,1,.1c1.5,2.7,3.3,3,5.6,1,.4-.4.9-.7,1.3-1.1v1.5a6.08,6.08,0,0,1-5.5,3.9C47.92,32.91,46.42,31.51,46.12,29.21Z"/><path class="cls-83" d="M44.62,35.21c.7.6.4,1.4.5,2.1.6,4,3.6,5.1,6.9,2.8a27.63,27.63,0,0,0,3.6-3.4c-.7,3.3-5.9,7.2-9.2,7-1.4-.1-1.9-.8-1.8-2.1Z"/><path class="cls-80" d="M46.62,29.21c2,3.6,4.6,4,7.6,1.1.6-.6,1.2-1.1,1.8-1.6h0a6.19,6.19,0,0,1-4.9,5.9c-2.7.7-4.2-.2-5.5-2.9a11.18,11.18,0,0,0-1.1-2.5c-.2-.3-.3-.7-.5-1C44.92,28.51,45.72,28.91,46.62,29.21Z"/><path class="cls-82" d="M44.62,29.71c.8.3.9,1.1,1.2,1.8,1.8,4.4,5.91,3.9,8.41,1,.79-1,2.2-1.7,1.9-3.3h.5c.4,2.8-2.8,6.5-5.9,7.4-2.41.7-3.71-.8-4.71-2.7A20.72,20.72,0,0,1,44.62,29.71Z"/><path class="cls-104" d="M55.12,34.71c-.6,2.8-2.9,3.7-5.2,4.4-2.1.6-3.3-.5-4.3-3.4C49.22,39,50.92,38.31,55.12,34.71Z"/></g></g></svg>