<svg xmlns="http://www.w3.org/2000/svg" viewBox="0 0 62.99 65.92"><defs><style>.cls-1{fill:#e54742;}.cls-2{fill:#e54745;}.cls-3{fill:#dc4756;}.cls-4{fill:#cc376c;}.cls-5{fill:#d13f61;}.cls-6{fill:#e04952;}.cls-7{fill:#db3c76;}.cls-8{fill:#e2494f;}.cls-9{fill:#ce3d66;}.cls-10{fill:#cd3b68;}.cls-11{fill:#d9416e;}.cls-12{fill:#f506e1;}.cls-13{fill:#c304bb;}.cls-14{fill:#ea553f;}.cls-15{fill:#e1662d;}.cls-16{fill:#c70496;}.cls-17{fill:#fd05d4;}.cls-18{fill:#e9800d;}.cls-19{fill:#c406c3;}.cls-20{fill:#e7701c;}.cls-21{fill:#e2318f;}.cls-22{fill:#fd02c7;}.cls-23{fill:#df484e;}.cls-24{fill:#c403a1;}.cls-25{fill:#d94264;}.cls-26{fill:#de3683;}.cls-27{fill:#ca15d7;}.cls-28{fill:#dd4958;}.cls-29{fill:#e812ed;}.cls-30{fill:#fe04cd;}.cls-31{fill:#c30e8c;}.cls-32{fill:#c63271;}.cls-33{fill:#ed08ab;}.cls-34{fill:#c80791;}.cls-35{fill:#c01485;}.cls-36{fill:#d20fe1;}.cls-37{fill:#c40fd0;}.cls-38{fill:#ed6c35;}.cls-39{fill:#fb0bdb;}.cls-40{fill:#f309b3;}.cls-41{fill:#bf287b;}.cls-42{fill:#c826b1;}.cls-43{fill:#d94165;}.cls-44{fill:#e2523c;}.cls-45{fill:#d60ce4;}.cls-46{fill:#e5129e;}.cls-47{fill:#c32d76;}.cls-48{fill:#fe03bd;}.cls-49{fill:#d54765;}.cls-50{fill:#db4a66;}.cls-51{fill:#e24d49;}.cls-52{fill:#df16ed;}.cls-53{fill:#ce28e0;}.cls-54{fill:#c616a0;}.cls-55{fill:#c212c8;}.cls-56{fill:#f07829;}.cls-57{fill:#ec5750;}.cls-58{fill:#e14641;}.cls-59{fill:#e44b40;}.cls-60{fill:#df4c3c;}.cls-61{fill:#e3484b;}.cls-62{fill:#e7494d;}.cls-63{fill:#e6494d;}.cls-64{fill:#dc4340;}.cls-65{fill:#de464a;}.cls-66{fill:#d8455b;}.cls-67{fill:#d84554;}.cls-68{fill:#ca3371;}.cls-69{fill:#bf3863;}.cls-70{fill:#d34259;}.cls-71{fill:#d6445e;}.cls-72{fill:#cb3e5d;}.cls-73{fill:#de474d;}.cls-74{fill:#da4850;}.cls-75{fill:#ec4181;}.cls-76{fill:#e94577;}.cls-77{fill:#e03980;}.cls-78{fill:#e74671;}.cls-79{fill:#d63e68;}.cls-80{fill:#e6476a;}.cls-81{fill:#e800db;}.cls-82{fill:#e202e2;}.cls-83{fill:#eb00d5;}.cls-84{fill:#f000cf;}.cls-85{fill:#c804b3;}.cls-86{fill:#c907b8;}.cls-87{fill:#c704bf;}.cls-88{fill:#c308b5;}.cls-89{fill:#de5636;}.cls-90{fill:#e56332;}.cls-91{fill:#dd5239;}.cls-92{fill:#ca039a;}.cls-93{fill:#ca0895;}.cls-94{fill:#f800cd;}.cls-95{fill:#c606c7;}.cls-96{fill:#f0398f;}.cls-97{fill:#ed3e86;}.cls-98{fill:#eb3293;}.cls-99{fill:#ec1b9e;}.cls-100{fill:#f900bf;}.cls-101{fill:#fd07c3;}.cls-102{fill:#dd4340;}.cls-103{fill:#d94554;}.cls-104{fill:#d9464f;}.cls-105{fill:#d84348;}.cls-106{fill:#c803a6;}.cls-107{fill:#ca069e;}.cls-108{fill:#cb04a3;}.cls-109{fill:#d7435a;}.cls-110{fill:#d3405d;}.cls-111{fill:#db495f;}.cls-112{fill:#c906ce;}.cls-113{fill:#ce07d3;}.cls-114{fill:#d007db;}.cls-115{fill:#df06e6;}.cls-116{fill:#c90b8f;}.cls-117{fill:#c61087;}.cls-118{fill:#c93075;}.cls-119{fill:#fd18aa;}.cls-120{fill:#c61c80;}.cls-121{fill:#c71884;}.cls-122{fill:#d704d9;}.cls-123{fill:#fc0dba;}.cls-124{fill:#fe14b1;}.cls-125{fill:#c92382;}.cls-126{fill:#c92b7a;}.cls-127{fill:#c402b0;}.cls-128{fill:#d94a3a;}.cls-129{fill:#db04de;}.cls-130{fill:#e54c54;}.cls-131{fill:#e84b51;}.cls-132{fill:#d13f3b;}.cls-133{fill:#d14145;}.cls-134{fill:#d5433b;}.cls-135{fill:#d2424e;}.cls-136{fill:#d34350;}.cls-137{fill:#d8d5d5;}.cls-138{fill:#c2415c;}.cls-139{fill:#c94055;}.cls-140{fill:#cb4249;}.cls-141{fill:#d2444f;}.cls-142{fill:#e2475e;}.cls-143{fill:#cf434a;}.cls-144{fill:#ef3d8b;}.cls-145{fill:#eb447c;}.cls-146{fill:#ead6da;}.cls-147{fill:#e8e2e3;}.cls-148{fill:#e4447b;}.cls-149{fill:#e8486d;}.cls-150{fill:#db4063;}.cls-151{fill:#de4c6f;}.cls-152{fill:#e74a63;}.cls-153{fill:#e74b60;}.cls-154{fill:#d34256;}.cls-155{fill:#e84968;}.cls-156{fill:#e400d6;}.cls-157{fill:#e201db;}.cls-158{fill:#e500d0;}.cls-159{fill:#ea00cb;}.cls-160{fill:#f000ca;}.cls-161{fill:#c908ab;}.cls-162{fill:#f1eff1;}.cls-163{fill:#cd05be;}.cls-164{fill:#d212c1;}.cls-165{fill:#cc03c6;}.cls-166{fill:#c91389;}.cls-167{fill:#f400c5;}.cls-168{fill:#fdfbfc;}.cls-169{fill:#f33298;}.cls-170{fill:#f23893;}.cls-171{fill:#f2eff0;}.cls-172{fill:#f7329b;}.cls-173{fill:#fb03b7;}.cls-174{fill:#f200be;}.cls-175{fill:#f501b9;}.cls-176{fill:#d9433d;}.cls-177{fill:#e6e4e5;}.cls-178{fill:#cf03cc;}.cls-179{fill:#d304d6;}.cls-180{fill:#d104d2;}.cls-181{fill:#dcd9db;}.cls-182{fill:#f526a0;}.cls-183{fill:#f713a7;}.cls-184{fill:#f819a3;}.cls-185{fill:#fd22a8;}.cls-186{fill:#fc29a5;}.cls-187{fill:#dd02d6;}.cls-188{fill:#d802d3;}.cls-189{fill:#fd09b1;}.cls-190{fill:#c92c81;}.cls-191{fill:#e4d9e0;}.cls-192{fill:#e74c5a;}.cls-193{fill:#c9404d;}.cls-194{fill:#e1e0e0;}.cls-195{fill:#d2bfc0;}.cls-196{fill:#eeebec;}.cls-197{fill:#e4e1e2;}.cls-198{fill:#f0edee;}.cls-199{fill:#df01cf;}.cls-200{fill:#e803c8;}.cls-201{fill:#e204cc;}.cls-202{fill:#ec00c5;}.cls-203{fill:#edeaec;}.cls-204{fill:#e7e4e6;}.cls-205{fill:#e3dfe1;}.cls-206{fill:#d23f73;}.cls-207{fill:#c8b9c0;}.cls-208{fill:#a82672;}.cls-209{fill:#d04281;}.cls-210{fill:#ba3179;}.cls-211{fill:#c7366b;}.cls-212{fill:#e6e2e3;}.cls-213{fill:#e9e4e6;}.cls-214{fill:#da4579;}.cls-215{fill:#cd427a;}.cls-216{fill:#d207c4;}.cls-217{fill:#d603c7;}.cls-218{fill:#f60aac;}.cls-219{fill:#f704b5;}.cls-220{fill:#f004c4;}.cls-221{fill:#fa19c3;}.cls-222{fill:#da06c9;}.cls-223{fill:#dacdd3;}.cls-224{fill:#faf3f4;}.cls-225{fill:#eae5e9;}.cls-226{fill:#f1e4e9;}.cls-227{fill:#d403cc;}.cls-228{fill:#dd02cb;}.cls-229{fill:#e35173;}.cls-230{fill:#9f2a6d;}.cls-231{fill:#e3e1e2;}.cls-232{fill:#e14472;}.cls-233{fill:#e04077;}.cls-234{fill:#d0417a;}.cls-235{fill:#eae3e6;}.cls-236{fill:#c50897;}.cls-237{fill:#9e247b;}.cls-238{fill:#b5237c;}.cls-239{fill:#e23293;}.cls-240{fill:#f0e6ea;}.cls-241{fill:#ccb7bb;}.cls-242{fill:#c61d8a;}.cls-243{fill:#bc3465;}.cls-244{fill:#f605b0;}.cls-245{fill:#cd1c88;}.cls-246{fill:#d8afc6;}.cls-247{fill:#d32a87;}.cls-248{fill:#db3b75;}.cls-249{fill:#dc3484;}.cls-250{fill:#e24170;}.cls-251{fill:#f6e1e5;}.cls-252{fill:#e54962;}.cls-253{fill:#e24767;}.cls-254{fill:#eb4e66;}.cls-255{fill:#e9496c;}.cls-256{fill:#ece9ea;}.cls-257{fill:#d44263;}.cls-258{fill:#b73954;}.cls-259{fill:#d13480;}.cls-260{fill:#ce3776;}.cls-261{fill:#c43b5a;}.cls-262{fill:#c0385e;}.cls-263{fill:#c73b69;}.cls-264{fill:#bc3b57;}.cls-265{fill:#b33c59;}.cls-266{fill:#f8f0f5;}.cls-267{fill:#fdfafb;}.cls-268{fill:#d3079f;}.cls-269{fill:#d4079c;}.cls-270{fill:#cf0c92;}.cls-271{fill:#c4068e;}.cls-272{fill:#c91390;}.cls-273{fill:#fcfbfb;}.cls-274{fill:#e32199;}.cls-275{fill:#d91995;}.cls-276{fill:#d4238e;}.cls-277{fill:#d31791;}.cls-278{fill:#d42f82;}.cls-279{fill:#d7357d;}.cls-280{fill:#db406d;}.cls-281{fill:#d53678;}.cls-282{fill:#d43a71;}.cls-283{fill:#e14467;}.cls-284{fill:#e14661;}.cls-285{fill:#e6427e;}.cls-286{fill:#ca2c7c;}.cls-287{fill:#e13b81;}.cls-288{fill:#ae326c;}.cls-289{fill:#dc3782;}.cls-290{fill:#dd3d7a;}.cls-291{fill:#d43282;}.cls-292{fill:#fcf8f9;}.cls-293{fill:#d82797;}.cls-294{fill:#dc1ba0;}.cls-295{fill:#fbf2f5;}.cls-296{fill:#dc4264;}.cls-297{fill:#d03f60;}.cls-298{fill:#cd396d;}.cls-299{fill:#cd3c64;}.cls-300{fill:#e014a2;}.cls-301{fill:#e721a1;}.cls-302{fill:#d9129a;}.cls-303{fill:#d8129b;}.cls-304{fill:#d61497;}.cls-305{fill:#d33e69;}.cls-306{fill:#da387f;}.cls-307{fill:#ba2973;}.cls-308{fill:#d93483;}</style></defs><g id="Capa_2" data-name="Capa 2"><g id="Capa_1-2" data-name="Capa 1"><path class="cls-1" d="M45.65,64.68a4,4,0,0,1-2.4.3,4,4,0,0,1-1.9.2,2.36,2.36,0,0,1,.1-4c3-1.9,4-5.2,6.2-7.7,1.5-1.6,3.4-2.7,4.5-4.8.2-.4.6-.5,1.1-.2.6,2.8-.7,5.2-1.5,7.7-.1.2-.2.5-.3.7a15.39,15.39,0,0,1-2.5,2.6,3.07,3.07,0,0,0-1.1,2.5C47.45,63.18,46.15,63.58,45.65,64.68Z"/><path class="cls-2" d="M53.05,48.48c-2.6,3.9-6.7,6.5-8.5,11-.1.3-.5.8-.8.8-2.5.7-2.8,2.5-2.6,4.6a1.21,1.21,0,0,1-.5.5c-.3,0-.6.1-1,.1-.1-.1-.2-.1-.3-.2-.6-2.5-.4-4.6,1.8-6.6,2.5-2.3,3.9-5.5,6.1-8.1,1.5-.6,2.3-2.2,3.7-2.9,1.4-.4,1.7-2.2,3.2-2.5a1.85,1.85,0,0,1,.7.2,2,2,0,0,1-.2,2C54.05,47.88,53.65,48.38,53.05,48.48Z"/><path class="cls-3" d="M31.55,65.88h-2c-.4-.3-1.1,0-1.2-.8.8-1.9-.2-4.5,2.3-5.8,1.7-.5,3.1-2.1,5.2-1.6a.69.69,0,0,1,.3.9C34.45,61,34.05,64.08,31.55,65.88Z"/><path class="cls-4" d="M17,64.48a2.88,2.88,0,0,1-2-.5l-.3-2.4c0-2.2,1-4.3,1.2-6.5a1.6,1.6,0,0,1,1.2-1.4,2.34,2.34,0,0,1,2.3,1.4c.1,2.9-.8,5.6-1.3,8.4C18.05,64.08,17.75,64.68,17,64.48Z"/><path class="cls-5" d="M24,65.48c-.6,0-1.3-.1-1.9-.1-.7-.2-1.6-.5-1.4-1.4.6-2.4.1-5.1,2.1-7.1a5,5,0,0,1,3.4.1c.7,1.1-.1,2-.6,2.9a3.55,3.55,0,0,0-.6,2.8,3.67,3.67,0,0,1-.3,2.9A.62.62,0,0,1,24,65.48Z"/><path class="cls-6" d="M31.55,65.88c1.6-2.6,2.6-5.5,4.5-7.9.1-.1.1-.2.2-.3a2,2,0,0,1,1.9-.5,1,1,0,0,1,.5.4v.2a39.55,39.55,0,0,0-3.7,8.1Z"/><path class="cls-7" d="M61.45,16a8.34,8.34,0,0,1,.6,3.5c-2.2-.4-4.3-1.1-6.6-.6a2.38,2.38,0,0,1-.5-1.8,3.89,3.89,0,0,1,.2-1.5c1.4-2,3.2-.7,4.9-.6A1.61,1.61,0,0,1,61.45,16Z"/><path class="cls-8" d="M35.05,65.88c-.5-3.5,1.9-5.8,3.5-8.4a1.06,1.06,0,0,1,1.3-.2,3.09,3.09,0,0,1-.7,3.3c-1.4,1.7-1.4,3.4.3,4.9l.1.1A13.5,13.5,0,0,1,35.05,65.88Z"/><path class="cls-9" d="M23.05,57c-1.5,2.1-1,4.8-1.9,7.1-.3.6.6.9.9,1.4a4.29,4.29,0,0,1-2.5-.4c-1.7-3.5-.4-6.5,1.6-9.3C22.25,55.38,23.35,55.18,23.05,57Z"/><path class="cls-10" d="M21.05,56c-.9,2.9-2.1,5.8-1.5,9a4.68,4.68,0,0,1-2.6-.5c.7-.4.6-1.1.7-1.7.5-2.6.9-5.2,1.4-7.8.6-.3,1,0,1.5.2A.89.89,0,0,1,21.05,56Z"/><path class="cls-11" d="M55.55,19c2.3-2,4.4-.7,6.5.5a6.25,6.25,0,0,1,.4,3c-.9.3-1.5-.3-2.2-.6a10.24,10.24,0,0,1-2.9-1.6c-.8.7-.5,1.6-.8,2.4-.2.5-.4,1-1.1.8a2.22,2.22,0,0,1-.5-1.1,5.79,5.79,0,0,1,.3-3.2C55.35,19.18,55.45,19.08,55.55,19Z"/><path class="cls-12" d="M21.05.88a14,14,0,0,1,5.4-.4,11.87,11.87,0,0,1,4.6,0c-.1,1.8-2,1.4-2.8,2.3a5.27,5.27,0,0,1-1.2.3,8.85,8.85,0,0,1-2.3,0c-1.6-.3-3.2-.1-4.8-.5A2.07,2.07,0,0,1,19,2C19.05.58,20.65,1.78,21.05.88Z"/><path class="cls-13" d="M.55,26.88c0-1,.1-1.9.1-2.9,1-.7,1.5-2,2.9-2.2a2.45,2.45,0,0,1,1.6.6c.7,1.1-1.2,1.5-.6,2.5a4.74,4.74,0,0,1-1.9,3.8A1.76,1.76,0,0,1,.55,28,1.08,1.08,0,0,1,.55,26.88Z"/><path class="cls-14" d="M45.65,64.68c-.2-1.5,1.2-1.9,1.9-2.7a21.41,21.41,0,0,1,3.2-2.8,23.26,23.26,0,0,1,2.6-1.7c.4-.2.9-.4,1.3,0,.4,1.6-1,2.2-1.8,3.2a15.88,15.88,0,0,1-4.4,3.3C47.65,64.68,46.65,64.48,45.65,64.68Z"/><path class="cls-15" d="M62.45,43.48a21,21,0,0,1-.8,5.6,35.43,35.43,0,0,0-2.6,4.7c-.5.8-.7,1.9-2,1.8a2.09,2.09,0,0,1-.4-.6c-.3-1.7.9-3,1.4-4.5.6-2.1,1.9-3.8,2.9-5.6C61.35,44.28,61.55,43.38,62.45,43.48Z"/><path class="cls-16" d="M1.65,50.48c-.2-1.6-.8-3.2-.6-4.9a1.7,1.7,0,0,1-.1-.7,1.12,1.12,0,0,1,.8-.7c1.2.1,2.4-.3,3.5.3a2.44,2.44,0,0,1-.2,2.2,18.29,18.29,0,0,1-1.4,2.8C3.25,50.18,2.85,51.08,1.65,50.48Z"/><path class="cls-17" d="M28.05,2.48a3.13,3.13,0,0,1,3-1.5c2.1-1.2,4.4-.7,6.7-.6.6,0,1.2.1,1.8.1.5,1.2-.5,1.4-1.2,1.5-1.6.4-3.2.5-4.8.9a12.91,12.91,0,0,1-4.8,0A1,1,0,0,1,28.05,2.48Z"/><path class="cls-18" d="M61,51c-.7,4.9-2.7,8.8-7.4,10.9a.92.92,0,0,1-.2-1,31.74,31.74,0,0,0,6.3-8.7C60,51.68,60.05,50.78,61,51Z"/><path class="cls-19" d="M3.55,22c-1.2.3-1.3,2.3-3,2v-.5c.5-1-.1-2.1.4-3.1-.1-.2-.1-.3.1-.4.6-.5.1-1.3.6-1.9,1.4-1,2.4,0,3.5.7C6,20.58,4.15,21,3.55,22Z"/><path class="cls-20" d="M61,51c-2.2,2.9-3.2,6.6-6,9.2a2,2,0,0,1-1.4.8.86.86,0,0,1-.3-.6c1.4-1.5,2.2-3.5,3.8-4.9,1.8-1.8,2.6-4.2,3.7-6.4.4-.8.7-.9.9.1C61.75,49.88,61.25,50.38,61,51Z"/><path class="cls-21" d="M59.05,9.48a6.49,6.49,0,0,1,1.5,3.5c-2.1.8-3.6-1.2-5.5-1.1l-.6-.3a1.45,1.45,0,0,1-.2-.7,2.51,2.51,0,0,1,1.6-2.1c.8-.2,1.4.4,2.1.4A3.54,3.54,0,0,0,59.05,9.48Z"/><path class="cls-22" d="M43.05,1c.7.2,1.3.3,2,.5a.48.48,0,0,1,0,.7,3.21,3.21,0,0,1-2,1c-1.6.5-3.4.4-5,.9-1.5,0-2.9.9-4.4,0-.6-1.1.3-1.4,1-1.8C37.45,1.88,40.25,1.58,43.05,1Z"/><path class="cls-23" d="M63,32.48V36a1.37,1.37,0,0,1-.5.8c-.7.3-1.2,1-2,1a1.27,1.27,0,0,1-1.1-1.1c.2-1.3.6-2.6.9-3.9a1.79,1.79,0,0,1,1.3-1.1C62.15,31.48,62.65,31.78,63,32.48Z"/><path class="cls-24" d="M1.55,44.48c-.1.2-.3.3-.4.5-.8-.9.1-2.1-.5-3,0-.8-.1-1.6-.1-2.4a1.18,1.18,0,0,1-.1-1c1-1.1,1.9-.1,2.8.3a1.85,1.85,0,0,1,.7,1.2v.7C3.75,42.38,3.45,43.88,1.55,44.48Z"/><path class="cls-25" d="M62.55,24.48a.19.19,0,0,1,0,.3,3,3,0,0,1,.2,1c-.6.8-1.4-.4-2,.2a3.11,3.11,0,0,1-3.1-.3,2.76,2.76,0,0,1-.5-2.6,1.5,1.5,0,0,1,1.5-1C60.05,22.58,61.75,22.78,62.55,24.48Z"/><path class="cls-26" d="M55.05,11.48c2.1-.5,3.5,1.5,5.5,1.5a6.2,6.2,0,0,1,.9,3c-.5-.2-.9-.3-1.4-.5-1.6-1.2-3.7-1.2-5.2-2.6A1.08,1.08,0,0,1,55.05,11.48Z"/><path class="cls-27" d="M2.55,13.48a7.54,7.54,0,0,1,1.7-4,3.74,3.74,0,0,1,2-1.2.86.86,0,0,1,.6.3,1.69,1.69,0,0,1,.3,1c-.1,1.3-1.1,2-1.7,3a2.7,2.7,0,0,1-.8.7A2.26,2.26,0,0,1,2.55,13.48Z"/><path class="cls-28" d="M63,32.48c-.5-.2-.9-.3-1.4-.5a2.43,2.43,0,0,1-1.6-2.6,2.17,2.17,0,0,1,1.5-2.2,1.39,1.39,0,0,1,1.1.2c.4,1-.1,2.1.3,3.1A12.75,12.75,0,0,1,63,32.48Z"/><path class="cls-29" d="M21.05.88c-.3,1-1.6.3-2,1.1-.8,1.5-2.4.8-3.5,1.5-.8.1-1.7.3-2.5.4-.5-.1-1-.1-.9-.9A20.79,20.79,0,0,1,21.05.88Z"/><path class="cls-30" d="M43.05,1a1.06,1.06,0,0,1-1.2,1c-2.5-.3-4.9.5-7.3.5a.67.67,0,0,1-1,0c1.4-.8,3.1-.7,4.6-1,.7-.1,1.3-.1,1.4-1A10.24,10.24,0,0,1,43.05,1Z"/><path class="cls-31" d="M3.45,55A13.76,13.76,0,0,1,2,51c.6-.5,1.1-.3,1.7.1s1.2.9,1.7,1.4c.7,1.4.7,2.5-1.2,2.9A1.61,1.61,0,0,1,3.45,55Z"/><path class="cls-32" d="M15.05,62a1.26,1.26,0,0,1-.1,2.1,5.39,5.39,0,0,1-3-1c-.2-.8-.6-1.5.1-2.2a1.7,1.7,0,0,1,1.4-.2A2.28,2.28,0,0,1,15.05,62Z"/><path class="cls-33" d="M53.55,4a6.86,6.86,0,0,1,3.5,3c-.8.7-1.7.1-2.5.1a17.23,17.23,0,0,1-2.1-.7c-.6-.3-1.1-.6-1.1-1.4C51.75,3.78,52.65,3.88,53.55,4Z"/><path class="cls-34" d="M3.55,51.48c-.5-.2-1.1-.3-1.6-.5-.3-.1-.4-.3-.3-.5,2.2-.5,1.6-2.9,2.9-4a.62.62,0,0,1,.7-.2C6.25,48.08,5.85,49.48,3.55,51.48Z"/><path class="cls-35" d="M3.45,55h.6c.7.6,1.7.1,2.4.7a3.5,3.5,0,0,1,.9,1.7c-.1.7.3,1.5-.2,2.2a.66.66,0,0,1-.6-.1A9.41,9.41,0,0,1,3.45,55Z"/><path class="cls-36" d="M6.55,8.48h-.4c-.4-.2-.8-.4-.5-1,.6-1.4,1.9-1.9,2.9-2.6.7.5.7,1.3.8,2a1.7,1.7,0,0,1-.1.7A2.37,2.37,0,0,1,6.55,8.48Z"/><path class="cls-37" d="M2.55,13.48a3.51,3.51,0,0,1,2-.5,3.62,3.62,0,0,1,0,2.3c-.3.9-.7,1.5-1.7,1.6-.9-.1-1.2-.6-.8-1.5A2.51,2.51,0,0,1,2.55,13.48Z"/><path class="cls-38" d="M53.55,60.48V62a.6.6,0,0,1-.4.1c-.5.3-1.2.3-1.5,1a4.24,4.24,0,0,1-3.1.9c1-1.5,2.7-2.3,4-3.5C52.85,60.18,53.15,60.18,53.55,60.48Z"/><path class="cls-39" d="M37.75.48a30.38,30.38,0,0,0-6.7.6c-1.5-1-3.1-.2-4.7-.5A31.21,31.21,0,0,1,37.75.48Z"/><path class="cls-40" d="M53.55,4c-.7.3-1.3.7-2,1a.71.71,0,0,1-.6.3,2,2,0,0,1-1.2-.6,2.28,2.28,0,0,1-.6-1.2,1,1,0,0,1,.4-.9C51.15,2.28,52.35,3.08,53.55,4Z"/><path class="cls-41" d="M6.45,59.48a1.27,1.27,0,0,0,.6-.1c.6-.9,1.6-.7,2.5-.9a.86.86,0,0,1,.6.3,11.8,11.8,0,0,1,.4,2c0,.5,0,.9-.5,1.2A7.4,7.4,0,0,1,6.45,59.48Z"/><path class="cls-42" d="M.65,38.48c-.1.4-.1.7-.2,1.1a45.74,45.74,0,0,1,0-12.8c.1.4.1.8.2,1.1a4,4,0,0,1,.6,2.6,50,50,0,0,1-.1,6.7A2.11,2.11,0,0,1,.65,38.48Z"/><path class="cls-43" d="M62.55,24.48c-1.1-.8-2.6-.9-3.5-2,0-1.1.5-1.4,1.5-1,.6.3,1.3.7,1.9,1C62.45,23.18,62.55,23.78,62.55,24.48Z"/><path class="cls-44" d="M62.45,43.48l-.9,1.5c-.8.2-1-.5-1.3-1a1.7,1.7,0,0,1-.1-.7c.3-1.4.6-2.8,2.5-2.8a.85.85,0,0,1,0,.7A16.41,16.41,0,0,0,62.45,43.48Z"/><path class="cls-45" d="M9.05,7c-.7-.6-.4-1.4-.5-2.1a13,13,0,0,0,1.5-1,2.84,2.84,0,0,1,1.2.4,1,1,0,0,1,.5.8,1.66,1.66,0,0,1-.5,1.2C10.55,6.78,10,7.38,9.05,7Z"/><path class="cls-46" d="M54.55,6.48c.9.2,1.7.3,2.6.5,1.1.5,1.3,1.6,2,2.5-.3.5-.7.5-1,0-.8-.2-1.4-.9-2.2-1.2a1.42,1.42,0,0,0-.6-.2C54.65,7.68,53.15,7.68,54.55,6.48Z"/><path class="cls-47" d="M10.05,62.08v-1.6a1.11,1.11,0,0,1,1.5-.7c.4.3.8.6.5,1.2s.6,1.4-.1,2A3.38,3.38,0,0,1,10.05,62.08Z"/><path class="cls-48" d="M49.55,2.58v.9c-.9.7-1.9.2-2.8,0l-.6-.3A2.58,2.58,0,0,1,45.05,2v-.5C46.65,1.38,48.05,2.08,49.55,2.58Z"/><path class="cls-49" d="M24,65.48c.2,0,.4-.1.6-.1a3.14,3.14,0,0,1,1.6-.6,2.94,2.94,0,0,1,2.4.6c.3.1.7.3,1,.4A15,15,0,0,1,24,65.48Z"/><path class="cls-50" d="M63,30.48c-.8-.9-.3-2-.4-3a1,1,0,0,1,0-1.5c0-.4.1-.7.1-1.1A20.87,20.87,0,0,1,63,30.48Z"/><path class="cls-51" d="M62.55,41.08c0-.2-.1-.4-.1-.6a3.17,3.17,0,0,1,.1-4c.1-.2.3-.3.4-.5C63,37.68,63.15,39.48,62.55,41.08Z"/><path class="cls-52" d="M11.05,4.48a1,1,0,0,1-1-.6,3.67,3.67,0,0,1,2-.9,1,1,0,0,0,1,.5C13,4.88,11.85,4.38,11.05,4.48Z"/><path class="cls-53" d="M5.55,7.48c.2.3.3.7.5,1a2.75,2.75,0,0,1-1.9,1A5.58,5.58,0,0,1,5.55,7.48Z"/><path class="cls-54" d="M.65,42c.9.9.3,2,.5,3,0,.2-.1.4-.1.6A6.32,6.32,0,0,1,.65,42Z"/><path class="cls-55" d="M2.05,15.38c0,.7.3,1.1,1,1.1.2,1.1-.5,1.2-1.3,1.2-.1-.1-.2-.2-.3-.2A3.7,3.7,0,0,1,2.05,15.38Z"/><path class="cls-55" d="M1.65,18.48c.3.7.3,1.2-.5,1.5a4.16,4.16,0,0,1,.4-2.5l.1.1A.75.75,0,0,1,1.65,18.48Z"/><path class="cls-55" d="M1.05,20.38c-.1,1,.4,2.1-.4,3.1C.65,22.38.45,21.38,1.05,20.38Z"/><path class="cls-56" d="M51.65,63c-.3-1.5.8-.9,1.5-1A1.5,1.5,0,0,1,51.65,63Z"/><path class="cls-57" d="M40.55,65.38l.5-.5a14.77,14.77,0,0,1,2.1.1A3.39,3.39,0,0,1,40.55,65.38Z"/><path class="cls-58" d="M53.05,48.48a1.65,1.65,0,0,1,1-1c1.4,1.9.3,3.8.1,5.6a15.46,15.46,0,0,1-.7,2.3c-.6.8-1.2,1.4-2.3,1.1C51.85,53.78,52.85,51.28,53.05,48.48Z"/><path class="cls-59" d="M51.05,59.48a7.33,7.33,0,0,1-3.5,2.5c-.5-2.8,2.1-3.5,3.5-5C51.85,57.78,51.35,58.58,51.05,59.48Z"/><path class="cls-60" d="M51.05,59.48c-.6-.8.2-1.7,0-2.5v-.5c.7-.3,1.3-.7,2-1,.7-.5,1.1-.2,1.6.3.4,1.1-.8,1.4-1.1,2.2C52.65,58.48,51.85,59,51.05,59.48Z"/><path class="cls-61" d="M39.45,65.38c-2.8-.8-2.4-2.8-1.3-4.5.7-1.1,1.1-2.4,1.9-3.5-.7-1.1.1-1.7.8-2.3C43,53.38,44,51,45,48.48c.3-.8.4-1.9,1.7-1.6,1,1.1.3,2.7.9,3.9-2.7,3.1-4.4,7-7.6,9.8C38.75,61.78,39.85,63.78,39.45,65.38Z"/><path class="cls-62" d="M47.55,51c-2-.9-.6-2.7-1-4,.1-.1.2-.1.3-.2h.6c1.1.3,2.4-.1,3.4.8.1.1.1.2.2.3C49.85,48.88,49.25,50.58,47.55,51Z"/><path class="cls-63" d="M54.05,45.48c-1.2.5-1.3,2.5-3,2.5h0a3,3,0,0,1,.9-3.7c1.2-.9.8-2.6,1.9-3.6.5-.3.9-.6,1.4-.1C56.05,42.58,55.05,44,54.05,45.48Z"/><path class="cls-64" d="M53.55,53.48c.1-2,.8-4,.5-6,.2-.7.3-1.3.5-2a1.36,1.36,0,0,1,1-1.8.91.91,0,0,1,.7.3c.4,1-.1,2-.2,3-.5,2.1-.2,4.5-1.7,6.3A.68.68,0,0,1,53.55,53.48Z"/><path class="cls-65" d="M55.55,44c-.3.5-.7,1-1,1.5h-.5c0-1.7,1.4-3.2,1-5-.1-1.6-1.1-3.4,1.1-4.5.9,1.2.4,2.6.6,3.9C56.65,41.38,57.15,43,55.55,44Z"/><path class="cls-66" d="M28.55,65.48h-2.5c-.7-2-.1-3.9.6-5.7,1.4-.7,2.8-1.9,4.6-1.2a1.23,1.23,0,0,1-.2,1.5,1.5,1.5,0,0,0-1.5,1.8A7,7,0,0,1,28.55,65.48Z"/><path class="cls-67" d="M31.05,60v-1.5c-1.1-.8-.5-1.4.3-1.9,1.6-.2,3.2-1.3,4.9-.2a1.35,1.35,0,0,1-.1,1.6h0C34.15,58.08,32.75,59.28,31.05,60Z"/><path class="cls-68" d="M15.05,62c-.5-.3-1-.7-1.5-1-.3-.2-.8-.5-.6-1a49.93,49.93,0,0,0,1.5-8.6,1.16,1.16,0,0,1,1,.2c.5.8,1.9,1,1.7,2.4C16.05,56.48,15.85,59.28,15.05,62Z"/><path class="cls-69" d="M17.05,54c-.3-1-1.8-1-2-2.1,2.5-.6,4.6.8,7,1.1a3.58,3.58,0,0,1,1.1.4c1.8.6,1.8.9.2,2.4-1-.1-2,.2-2.9-.3-.5-.2-1-.3-1.5-.5A11.4,11.4,0,0,0,17.05,54Z"/><path class="cls-70" d="M31.05,57a1.36,1.36,0,0,0,0,1.5L26.55,60a1.44,1.44,0,0,1-1.5-.5c.5-.8,1.2-1.4,1-2.5a2.61,2.61,0,0,1,2.1-1.1,4.5,4.5,0,0,1,2.8.4A.48.48,0,0,1,31.05,57Z"/><path class="cls-71" d="M25.05,59.48c.5,0,1.1-.1,1.5.5.5,1.9-.4,3.6-.5,5.5h-1.5C25.05,63.38,23.15,61.28,25.05,59.48Z"/><path class="cls-72" d="M28.05,56.48c-.7.2-1.3.3-2,.5-1,.8-2,.2-3,0-.2-1.3-1.2-.9-2-1l-.5-.5h3a3.38,3.38,0,0,1,2-.6C26.45,55.18,27.85,55,28.05,56.48Z"/><path class="cls-73" d="M46.55,47c-1.5.6-.8,2.2-1.4,3.2-1.3,2.2-2.2,4.6-4.5,6-.3.2-.4.8-.6,1.3h-2c.1-1.4,1.7-2,2-3.3.7-1.3,2.1-2,2.6-3.4a10.2,10.2,0,0,1,.9-2.2c.5-.9.7-1.8,1.1-2.7a21.21,21.21,0,0,0,.8-5.7c0-.9-.3-2.1,1.3-2.2a3.94,3.94,0,0,1,.6,2.1c-.3,2.3.6,4.7-.8,6.9Z"/><path class="cls-74" d="M40.55,54.48a6.65,6.65,0,0,1-2.5,3c-.7.2-1.3.3-2,.5v-1.5c.5-.7,1.4-1.1,1.9-1.8a2.23,2.23,0,0,1,1.3-.6A1.31,1.31,0,0,1,40.55,54.48Z"/><path class="cls-75" d="M55.55,15.48V17c-.4.3-.2,1-.6,1.3-3.4.5-5.9,3.1-9.2,3.8a4.87,4.87,0,0,1-1.2-.1,1.61,1.61,0,0,1-.7-.4,2,2,0,0,1-.3-1.1c.6-1.9,2.4-2.1,3.8-2.9,2.7-.4,4.8-2.3,7.4-2.8C55.15,14.78,55.35,15.18,55.55,15.48Z"/><path class="cls-76" d="M55.05,18a1,1,0,0,1,.5-1v2h0c-.2,3.9-3.2,5.1-6.1,6.3a2.8,2.8,0,0,1-3.7-1.1,1.38,1.38,0,0,1,.1-1.1C48.65,20.88,52.15,20,55.05,18Z"/><path class="cls-77" d="M55.55,15.48l-.5-.5a1.42,1.42,0,0,1,0-2,7,7,0,0,1,5,2.5C58.55,15.48,57.05,14.38,55.55,15.48Z"/><path class="cls-78" d="M46.05,24a3,3,0,0,0,4,.5c2.3-1.3,4.8-2.5,5.5-5.5v3.5c-.5.5,0,1.6-.9,1.9-2.7.9-4.9,3.1-7.9,3.3a1.66,1.66,0,0,1-1.4-1,5.91,5.91,0,0,1-.6-1.4,1.44,1.44,0,0,1,.3-1.4A.77.77,0,0,1,46.05,24Z"/><path class="cls-79" d="M60.55,21.48a1.5,1.5,0,0,0-1.5,1c-.5,0-1.1-.1-1.5.5-.1.2-.3.2-.5.2a2.29,2.29,0,0,1-1-.7c.1-.7.2-1.4.3-2.2.2-1.1.7-1.5,1.5-.4S59.75,20.78,60.55,21.48Z"/><path class="cls-25" d="M56.05,22.48a1,1,0,0,1,1,.5c-.1,1.5.3,3,.1,4.5-.3,1.3-.2,2.8-1,4a.61.61,0,0,1-.8,0,4.23,4.23,0,0,1-.6-2.5,16.13,16.13,0,0,0,0-2.2,5.82,5.82,0,0,1,.7-3.4C56,23.28,56.05,22.88,56.05,22.48Z"/><path class="cls-80" d="M55.55,23.48V27A1.68,1.68,0,0,1,54,28a1.5,1.5,0,0,1-1.1-.4c-.5-1.7.9-2.5,1.6-3.6.3-.5.7-1,1-1.5A3.4,3.4,0,0,1,55.55,23.48Z"/><path class="cls-81" d="M20.05,2c1.5.2,3,.3,4.5.5-.4,1.6-2,1.6-3.1,2.4a2.72,2.72,0,0,1-2.6-.4,1.46,1.46,0,0,1-.6-.9C18.45,2.48,19.65,2.68,20.05,2Z"/><path class="cls-82" d="M20.05,2c.1,1.1-1.2.8-1.5,1.5A3.08,3.08,0,0,1,16,5.08a3.1,3.1,0,0,1-2.3-.4c-.5-1.8,1.4-1,1.9-1.7a14,14,0,0,1,3.5-1Z"/><path class="cls-83" d="M21.55,4.48c.8-1,2.1-1.3,3-2h2.5c-.1,1.5-1.5,1.9-2.4,2.7a4.8,4.8,0,0,1-1.7.5,1.69,1.69,0,0,1-1.4-.9C21.65,4.68,21.55,4.58,21.55,4.48Z"/><path class="cls-84" d="M24.55,5c.5-1.1,1.7-1.7,2.5-2.5h1.5c.4.6,1.7-.2,1.6,1.1-1,1.1-2.5,1.1-3.7,1.8A1.68,1.68,0,0,1,24.55,5Z"/><path class="cls-85" d="M2.55,28.48c.2-1.4,1.8-2.4,1.5-4a2.08,2.08,0,0,1,3,.2c.7,2.2-.8,3.4-2.2,4.6a2.05,2.05,0,0,1-2.2-.5A.37.37,0,0,0,2.55,28.48Z"/><path class="cls-86" d="M7.05,25a5.18,5.18,0,0,0-3-.5c-.5-1.1,1-1.2,1-2a1.15,1.15,0,0,1,.1-1.7,2.4,2.4,0,0,1,2.8,0c.8.8.4,1.8.5,2.7,0,.2-.1.5-.1.7C8.05,24.58,7.85,25.18,7.05,25Z"/><path class="cls-87" d="M5.55,21c-.6.4-.5.9-.5,1.5-.5,0-1.1.1-1.5-.5-.3-1.4,1.9-1.6,1.5-3a.9.9,0,0,1,.6-1.2.55.55,0,0,1,.6.4C7,19.38,6.15,20.18,5.55,21Z"/><path class="cls-88" d="M.65,30.48V28c.6.2,1.3.3,1.9.5h0C2.65,29.88,2.45,30.88.65,30.48Z"/><path class="cls-89" d="M53.55,58c-.1-.9.7-1.3,1-2-.3-.7.3-1.1.7-1.5.8-.6.9-1.7,1.5-2.5.4-.7.7-1.7,1.9-1.5-.1,1.6-1.7,2.8-1.5,4.5-.8.9-1,2.3-2.5,2.5A2.81,2.81,0,0,0,53.55,58Z"/><path class="cls-90" d="M54.55,57.48c.8-.8,1.4-2,2.5-2.5v.5c-.5,2.1-2.2,3.4-3.5,5h-1C53,59.28,54.55,58.88,54.55,57.48Z"/><path class="cls-91" d="M58.55,50.48c-1.9.9-1.3,3.5-3,4.5-1-1.4.2-2.4.6-3.6,1.2-2,1.7-4.3,3.1-6.3.4-.5.4-1.3,1.4-1.2l1,1C60.55,46.78,59.55,48.58,58.55,50.48Z"/><path class="cls-92" d="M1.55,44.48c1.5-.9,1.3-2.7,2-4,1.5-2.5,2.1-2.7,3.7-.9-.8,1.6-1.3,3.3-2.2,4.9A4.7,4.7,0,0,1,1.55,44.48Z"/><path class="cls-93" d="M5.05,44.48a6.63,6.63,0,0,1,2-5c-.4-.8-.8-1.6.4-2,.9.8.7,1.7.6,2.7-.2.7-.7,1.4-.6,2.1.3,2.1-.8,3.2-2.4,4.2h-.5A19.45,19.45,0,0,0,5.05,44.48Z"/><path class="cls-94" d="M30.05,3.48c-.5-.3-1-.7-1.5-1h6c-.3.5-.7,1-1,1.5l-.3.3a3.11,3.11,0,0,1-3.1-.1A.48.48,0,0,1,30.05,3.48Z"/><path class="cls-95" d="M5.55,18c-.2.3-.3.7-.5,1-1.2.1-2.1-1.5-3.5-.5v-.9A1.5,1.5,0,0,0,3,16.48,1.5,1.5,0,0,0,4,15c.8-1.2,1.5-.9,2.3,0A2.23,2.23,0,0,1,5.55,18Z"/><path class="cls-96" d="M54.55,11v.5c.3.3.2.7.2,1a2,2,0,0,1-1.5,1.4c-3.1,1-6.1,1.9-8.5,4.2a1.7,1.7,0,0,1-1.4.2,1.6,1.6,0,0,1-.9-.7,1.94,1.94,0,0,1-.3-1.8,5.77,5.77,0,0,1,5-3,13.16,13.16,0,0,0,6.9-2A.78.78,0,0,1,54.55,11Z"/><path class="cls-97" d="M54.55,12.48v-1h.5V15c-2.5,1-4.7,2.7-7.5,3-.1-2,1.5-2.2,2.9-2.8C52.05,14.58,53.85,14.48,54.55,12.48Z"/><path class="cls-98" d="M54.55,11h-.5a2.15,2.15,0,0,1-.9-1.2,2,2,0,0,1,.2-1.5,1.55,1.55,0,0,1,2.1-.3h0c.3.2.8.4.5,1A5.58,5.58,0,0,0,54.55,11Z"/><path class="cls-99" d="M56.05,9c-.2-.3-.3-.7-.5-1,1.4-.4,1.8.8,2.5,1.5C57.15,10.18,56.65,9.28,56.05,9Z"/><path class="cls-48" d="M38.05,3.48c1.6-.7,3.4-.2,5-1,1.1.9,2.5-.6,3.5.5h0c0,1.2-.9,1.3-1.7,1.6-2.2-.1-4.5,1.3-6.7.1A.82.82,0,0,1,38.05,3.48Z"/><path class="cls-100" d="M38.05,3.48v1a.48.48,0,0,1,0,.7c-1.3,1.1-2.9,1-4.4,1.3a1.69,1.69,0,0,1-1.7-.8c-.2-1.3,1.1-1.2,1.7-1.8h0C35.05,3.78,36.55,3.68,38.05,3.48Z"/><path class="cls-101" d="M46.55,3c-1.1-.5-2.5,1-3.5-.5a3.51,3.51,0,0,0,2-.5A1.64,1.64,0,0,1,46.55,3Z"/><path class="cls-102" d="M62.55,36.48c0,1.3-.1,2.7-.1,4a4.09,4.09,0,0,0-1.9,3,.47.47,0,0,1-.6.1,7.06,7.06,0,0,1-1.6-2.6c.5-1.3.6-2.8,2.2-3.4C61.15,37.08,61.25,35.68,62.55,36.48Z"/><path class="cls-103" d="M60.55,29.48c-.2,1,.5,1.7,1,2.5a1.65,1.65,0,0,0-1,1,2,2,0,0,1-2.4.2,2.13,2.13,0,0,1-.7-1.5,2.66,2.66,0,0,1,.3-1.2A2.38,2.38,0,0,1,60.55,29.48Z"/><path class="cls-104" d="M58.05,33h2.5a8.78,8.78,0,0,1-1,3.5c-.6.9-1.2,1.8-2,.2C57.35,35.38,57.05,34.08,58.05,33Z"/><path class="cls-105" d="M58.05,37c.8.6.9-.5,1.5-.5a1.65,1.65,0,0,0,1,1c-1,1-.9,2.6-2,3.5a.48.48,0,0,1-.7-.1,3.54,3.54,0,0,1-.5-3.8A.48.48,0,0,1,58.05,37Z"/><path class="cls-106" d="M.65,38.48v-1c.9-2.2,1.4-4.6,3.4-6.2a2.64,2.64,0,0,1,2.7,1,.85.85,0,0,1,0,.7,28.1,28.1,0,0,0-1.9,3.9A2.74,2.74,0,0,1,3.05,39C2.15,39.58,1.65,38.08.65,38.48Z"/><path class="cls-107" d="M6.55,33v-.5c.7-.2,1,.2,1.4.7a5.8,5.8,0,0,1-.1,4.1l-.3.3c-.7.5-.4,1.3-.4,2-1.8-1.7-2.3.6-3.5,1v-.5c-.3-1,.4-1.7.9-2.4A13.91,13.91,0,0,0,6.55,33Z"/><path class="cls-108" d="M6.55,33a3,3,0,0,1-.9,3.8A12.61,12.61,0,0,0,3.55,40a1,1,0,0,1-.5-1c1.4-1.4,1.4-3.5,2.5-5.2C5.85,33.38,6.05,33,6.55,33Z"/><path class="cls-109" d="M60.55,29.48c-.8.3-1.7.7-2.5,1-.8-.8-.7-1.9-.7-2.9a2.83,2.83,0,0,1,.7-2.1,5.11,5.11,0,0,0,3,0,1.58,1.58,0,0,1,.5,2C61,28.08,60.35,28.58,60.55,29.48Z"/><path class="cls-110" d="M58.05,25.48v2a3.79,3.79,0,0,1-1.5,0c.2-1.5-.5-3.1.5-4.5h.5C57.65,23.78,57.15,24.78,58.05,25.48Z"/><path class="cls-111" d="M61.55,27.48a3.51,3.51,0,0,1-.5-2c.7-.6.9.5,1.4.5v1.5Z"/><path class="cls-112" d="M6.05,15a1.52,1.52,0,0,0-2,0,3.51,3.51,0,0,1,.5-2l.5-.5c.7-.9,1.3-1.9,2.7-1a2.94,2.94,0,0,1,.3,2.4C7.65,14.78,7.15,15.28,6.05,15Z"/><path class="cls-113" d="M7.55,11.48c-1-.2-1.7.6-2.5,1-.1-1.3,1.6-1.7,1.5-3a5,5,0,0,1,2.5-1.3.85.85,0,0,1,.7.7,4.69,4.69,0,0,1-1.6,2.7A.47.47,0,0,1,7.55,11.48Z"/><path class="cls-114" d="M9.05,8.48c-.8.4-1.4,1.2-2.5,1v-1c.6-.8,1.8-.4,2.5-1l.2.2A.63.63,0,0,1,9.05,8.48Z"/><path class="cls-115" d="M15.55,3c-.7.5-1.3,1-2,1.5-.5.9-1.1,1.1-2,.5l-.5-.5c.4-.8,1.6-.2,2-1A4.34,4.34,0,0,1,15.55,3Z"/><path class="cls-116" d="M5.05,46.48c1.6-1.7,1.8-3.9,2.5-6,1.5,2.8.4,5.7-.2,8.5a14.49,14.49,0,0,1-1.2,3.5.78.78,0,0,1-1.1,0c-.7,0-1.5,0-1.5-1C3.75,49.68,6.35,48.68,5.05,46.48Z"/><path class="cls-117" d="M5.05,52.48h1c1.3.1,1,1.1,1.1,1.9A1.71,1.71,0,0,1,6.05,56c-.6-.5-1.7.1-2-1C5.75,54.68,5.25,53.48,5.05,52.48Z"/><path class="cls-118" d="M14.55,51.48c.7,2.7-.2,5.2-1,7.8a1.8,1.8,0,0,0,0,1.6h-1.5c-.2-.3-.3-.7-.5-1a5.82,5.82,0,0,1,.4-4.1,9.94,9.94,0,0,0,.5-5.1.87.87,0,0,1,.9-.5A1.48,1.48,0,0,1,14.55,51.48Z"/><path class="cls-119" d="M51.05,5h.5l1,1a1,1,0,0,1-.5.4c-1,.3-2,.7-3.1.1.6.4,1.1.7.8,1.4-.6.5-1.2.2-1.8,0a2.65,2.65,0,0,1-.6-.5,1.42,1.42,0,0,1-.1-1.1C48.15,4.88,49.75,5.48,51.05,5Z"/><path class="cls-99" d="M52.05,6h.5a3.51,3.51,0,0,1,2,.5c-.9,1.3,1.5.4,1,1.5a3.51,3.51,0,0,0-2,.5,6,6,0,0,1-.8-.8l-.6-.6C52,6.68,51.75,6.38,52.05,6Z"/><path class="cls-120" d="M9.55,59c-.8.2-1.7.3-2.5.5,0-.7-.5-1.3,0-2-.4-1.7-.6-3.3,1.5-4.1,1.1.5,1,1.4.7,2.3A4.74,4.74,0,0,0,9.55,59Z"/><path class="cls-121" d="M8.55,53.48a5.42,5.42,0,0,0-1.5,4c-.3-.5-.7-1-1-1.5.2-.5.3-1,.5-1.5.5-.6,0-1.5.4-2.1s.6-1.8,1.9-1.2A1.83,1.83,0,0,1,8.55,53.48Z"/><path class="cls-122" d="M9.05,7c.7-.3,1.3-.7,2-1a2.42,2.42,0,0,1,3.1-.1,1.36,1.36,0,0,1-.2,1.7,1.61,1.61,0,0,1-1.3.6c-1.1-.4-2.5,0-3.6-.7h0Z"/><path class="cls-123" d="M45.05,4c.5-.3,1-.7,1.5-1,1,.2,2,.3,3,.5.2.3.3.7.5,1a3,3,0,0,1-2.8.9,7.42,7.42,0,0,1-2.1-.7A.43.43,0,0,1,45.05,4Z"/><path class="cls-124" d="M47.05,5c1-.2,2-.3,3-.5.3.2.7.3,1,.5-.8,1.3-2.5.5-3.5,1.5a.9.9,0,0,1-1.1.1A1.05,1.05,0,0,1,47.05,5Z"/><path class="cls-125" d="M8.55,53.48V51a21,21,0,0,1-.1-7.5.85.85,0,0,1,.7,0,4,4,0,0,1,.8,1.6,16.84,16.84,0,0,1,.6,2.4,6.84,6.84,0,0,0,1.2,4.4q-.75,3.6-1.8,7.2h-.5a2.48,2.48,0,0,1-1-3C8.75,55.18,9.25,54.28,8.55,53.48Z"/><path class="cls-126" d="M10.05,59c-.7-2.7.7-5.1,1.5-7.5a1.1,1.1,0,0,1,.8-1.2.37.37,0,0,1,.3.1,3.89,3.89,0,0,1,.5,3.5,62.55,62.55,0,0,0-1.6,6.2c-.5.2-1,.3-1.5.5C9.25,60,10,59.48,10.05,59Z"/><path class="cls-127" d="M4.05,31.48c-1.3,1.9-1.7,4.3-3.4,6v-7c1.3-.1,1.5-1.2,1.9-2a3.51,3.51,0,0,0,2,.5A2.15,2.15,0,0,1,4.05,31.48Z"/><path class="cls-128" d="M60.05,43.48h.5V44c-1.8,2.2-2.2,5.2-4,7.5l-.3-.3a1.93,1.93,0,0,1-.3-1,4.75,4.75,0,0,1,.6-2.4C57.85,46.38,58.15,44.28,60.05,43.48Z"/><path class="cls-129" d="M14.05,6c-1,0-2-.4-3,0,.2-.3.3-.7.5-1a3.51,3.51,0,0,0,2-.5h2.5a.9.9,0,0,1,.1,1.1A1.83,1.83,0,0,1,14.05,6Z"/><path class="cls-128" d="M56.55,51.48c-.1,1.2-1.2,2.2-1,3.5a1.65,1.65,0,0,0-1,1c-.5-.2-1-.3-1.5-.5.1-.7-.2-1.5.5-2h.5c.9-.6.9-2.3,2.5-2Z"/><path class="cls-130" d="M55.55,31.48h.5c1,1.2.7,2.5.5,3.8a1.79,1.79,0,0,1-.5.7c-1.1,1.3.1,3.2-1,4.5-.3.2-.7.3-1,.5-2.5,1-4.9,2-5.8,4.9a2.16,2.16,0,0,1-1.2,1.1h-.5V40c.5-.3.9.1,1.3.4.8.8,1.5.7,2.4,0,2.4-2.1,4.5-4.3,4.4-7.8C54.75,32,55,31.58,55.55,31.48Z"/><path class="cls-131" d="M47.05,47c.9-2.2,1.9-4.2,4.1-5.5a3.11,3.11,0,0,1,2.9-.5c-.7,1.6-.5,3.6-2.5,4.5-.5.2.2,1.7-.5,2.5C49.85,47.08,48.05,48.38,47.05,47Z"/><path class="cls-132" d="M57.05,48a3.68,3.68,0,0,0-.5,2.5c-.5.7-1.1.8-1.2-.2a6.2,6.2,0,0,1,.2-3.3,7.58,7.58,0,0,1,.5-3c.5-.6.3-2.2,1.8-1.2C58.75,44.68,57.75,46.28,57.05,48Z"/><path class="cls-133" d="M57.55,42.48,56.05,44h-.5c.8-1.3.4-2.7.5-4,.6-1.1-.1-2.4.6-3.5.2-.3.5-.7.9-.3s.2.6,0,.9a10.75,10.75,0,0,0,.5,4A1.64,1.64,0,0,1,57.55,42.48Z"/><path class="cls-134" d="M55.55,47v3c0,.9.5.7,1,.5v1c-1.1.3-1.2,1.9-2.5,2C54.55,51.28,55.05,49.08,55.55,47Z"/><path class="cls-135" d="M57.55,37c-.2-1.1-.4-.5-.7,0-.6.9.2,2.2-.8,3v-4.5c.6-1.4-.1-2.9.6-4.3.8-1.6,1.1-.3,1.4.3V37Z"/><path class="cls-136" d="M38.05,55c-.2,1.2-1.1,1.3-2,1.5-1.7.2-3.3.3-5,.5v-.5c-.1-1.1.9-1.1,1.6-1.4l4.3-.6A1.27,1.27,0,0,1,38.05,55Z"/><path class="cls-137" d="M14.55,51.48a11,11,0,0,1-1.1-1c.9-.8,1.7-.2,2.5.1,6.1,1.7,12.3,2.5,18.5.5,4.7-1.7,7.1-5.2,8-9.9a1.71,1.71,0,0,1,.7-1.3.62.62,0,0,1,.7.2c.8,1.5.1,2.9-.2,4.4a12.59,12.59,0,0,0-.4,2.7c-.6,2.7-2.7,4.1-4.9,5.4a18.62,18.62,0,0,1-5.6,1.5,13.05,13.05,0,0,0-3.4.3c-.3.1-.5.1-.8.2a4.52,4.52,0,0,1-2-.1,12.71,12.71,0,0,0-4.3-.9c-2.3-.6-4.7-1.1-7-1.7A4.35,4.35,0,0,1,14.55,51.48Z"/><path class="cls-138" d="M22.05,53.48a13.75,13.75,0,0,1,4.5.4c.4,1-.6,1.1-1,1.6h-2C25.45,53,22.15,54.48,22.05,53.48Z"/><path class="cls-139" d="M25.55,55.48c.3-.5.7-1,1-1.6h2c.6,0-.8.8.4.8s2.7-.9,3.6.7c-.5.3-1,.7-1.5,1h-3A5.38,5.38,0,0,0,25.55,55.48Z"/><path class="cls-140" d="M38.05,52.08c1.8-1.2,3.8-2.3,4.5-4.6a1.08,1.08,0,0,1,.7-.3c1.2.2,1.2.9.8,1.8-.8.4-.2,1.6-1,2a10.39,10.39,0,0,1-4,3.5c-.3.2-.7.3-1,.5h-1C36,53.48,37.45,53,38.05,52.08Z"/><path class="cls-141" d="M46.55,38c-1.1,2.4,0,5-1,7.4-.2.4-.3.7-.5,1.1-1-1-.5-2.4-.9-3.5a26.07,26.07,0,0,1,.5-4.8,11,11,0,0,0,.4-3.1,2.22,2.22,0,0,1,.5-1.1c1.2,0,1,1,1.3,1.8C46.85,36.48,47.25,37.28,46.55,38Z"/><path class="cls-142" d="M46.55,38a3.51,3.51,0,0,0-.5-2c.5-.8.2-1.5,0-2.3a2,2,0,0,1,.5-2.2.62.62,0,0,1,.7.2,8.64,8.64,0,0,1,.7,2.1,12.86,12.86,0,0,1,.3,3.9c-.2.9,0,2-.8,2.8-.3-.2-.7-.3-1-.5A13.4,13.4,0,0,0,46.55,38Z"/><path class="cls-143" d="M44.55,43c.9,1.1.3,2.3.5,3.5-.6.7-.2,1.9-1,2.5,0-.8-.1-1.5-1.1-1.5C43,45.78,43.15,44.18,44.55,43Z"/><path class="cls-136" d="M39.05,54.48c1.3-1.2,2.7-2.3,4-3.5-.1,1.7-1.9,2.1-2.5,3.5Z"/><path class="cls-144" d="M54.55,12.48c.1,2.2-1.6,2.7-3.2,3.1s-3,.8-3.8,2.4c-1.2.8-2.7,1.1-3.5,2.5a.47.47,0,0,1-.6.1,3.61,3.61,0,0,1-.6-2,.86.86,0,0,1,.3-.6c2.1.2,2.7-2,4.5-2.7C49.85,14.38,52.55,14.08,54.55,12.48Z"/><path class="cls-145" d="M55.05,18c-2.2,3.1-5.8,3.6-9,5-1.1-.2-.9-.8-.5-1.5,2.8-.4,4.7-3,7.5-3.3A13.55,13.55,0,0,0,55.05,18Z"/><path class="cls-146" d="M45,24c0,.5.1,1,.1,1.5a6.25,6.25,0,0,1,.4,3,14.61,14.61,0,0,0-.3,3.6c-.1.9.2,2-1.1,2.4a2.38,2.38,0,0,1-.7-2.1v-8.5c0-.9-.1-1.8.7-2.5.1,0,.2.1.4.1A2.32,2.32,0,0,1,45,24Z"/><path class="cls-147" d="M44.05,21.38v8c-.3.2-.5.1-.7-.2-.7-1.2-.3-2.5-.4-3.8v-2.2c.1-1-.2-2.2.8-2.9.1,0,.3.1.4.1A3.75,3.75,0,0,0,44.05,21.38Z"/><path class="cls-148" d="M45,24c-.6-.7-.4-1.6-.5-2.5h1.1c0,.5-.1,1.1.5,1.5v1Z"/><path class="cls-149" d="M54.55,24c.4,1.5-1.5,2.1-1.5,3.5-1.2,1.5-3,1.9-4.7,2.6a1.61,1.61,0,0,1-2.2-1.1,1.36,1.36,0,0,1,.3-1.5C49.35,26.68,51.55,24.48,54.55,24Z"/><path class="cls-150" d="M46.55,27.48V29c.2.8.8,1.6.5,2.5-1.2,1.3.2,3.2-1,4.5-.1-.7.2-1.5-.5-2-.9-1.6-.3-3.2-.4-4.9.4-.8,0-1.8.5-2.6A8.12,8.12,0,0,0,46.55,27.48Z"/><path class="cls-151" d="M45.55,26.48a22.6,22.6,0,0,1-.1,2.6c-.4,0-.7-.1-.4-.6v-3A1,1,0,0,1,45.55,26.48Z"/><path class="cls-152" d="M47.55,34a3.51,3.51,0,0,1-.5-2,36.36,36.36,0,0,0,7-4.5c.5-.2,1-.3,1.5-.5v2c-.4,3.2-3.4,4.3-5.4,6.1C49.15,35.88,48.15,35,47.55,34Z"/><path class="cls-153" d="M47.55,34c1.6,1.2,2.9.9,3.9-.7s3.4-2.2,4.1-4.3v2.5c-.2.3-.3.7-.5,1-1.8,2.3-3.9,4.4-7,5C47.45,36.38,47.75,35.08,47.55,34Z"/><path class="cls-154" d="M58.05,31.48c-.4,0-.5-1.2-1.1,0s.2,2.8-.9,4v-4a10.75,10.75,0,0,1,.5-4,1.36,1.36,0,0,1,1.5,0v4Z"/><path class="cls-155" d="M54.05,27.48c-1.8,2.3-3.7,4.4-7,4.5v-.5a3.68,3.68,0,0,1-.5-2.5,1.82,1.82,0,0,0,2.6.3c1.1-1.2,2.7-1.1,3.9-1.8Z"/><path class="cls-156" d="M19.05,4a3.68,3.68,0,0,0,2.5.5h0c-.1,1.5-1.4,1.5-2.4,1.9a1.7,1.7,0,0,1-1.4-.2.92.92,0,0,1-.4-.6A2.49,2.49,0,0,1,19.05,4Z"/><path class="cls-157" d="M19.05,4a2.76,2.76,0,0,1-1.5,1.5,1.09,1.09,0,0,1-1.5,0v-1c.8-.3,1.7-.7,2.5-1Z"/><path class="cls-158" d="M19.05,6a9.23,9.23,0,0,0,2.5-1.5c.5.3,1,.7,1.5,1,.3,1-.4,1.4-1,1.8a4.51,4.51,0,0,1-1.1.3,2.62,2.62,0,0,1-1.9-.5A.78.78,0,0,1,19.05,6Z"/><path class="cls-159" d="M22.05,7c.3-.5.7-1,1-1.5S24,5,24.55,5h2a.9.9,0,0,1,.1,1.1,5.6,5.6,0,0,1-2.4,1C23.55,7.18,22.75,7.58,22.05,7Z"/><path class="cls-160" d="M26.55,6V5c.7-1.5,2.4-.9,3.5-1.5V4A2.77,2.77,0,0,1,28,6.38,1.28,1.28,0,0,1,26.55,6Z"/><path class="cls-161" d="M4.05,31.48a3.68,3.68,0,0,1,.5-2.5,7.41,7.41,0,0,0,2.5-4c.3-.3.6-.7.9-1,.8.6.7,1.5.7,2.3,0,.3-.1.5-.1.8a18,18,0,0,0-.3,4,2.09,2.09,0,0,1-.8,1.9c-.3-.2-.6-.3-.9-.5C6,31.68,4.75,32.08,4.05,31.48Z"/><path class="cls-162" d="M8.05,26.48c0-.8-.1-1.7-.1-2.5,0-.2.1-.3.1-.5.5-1.6.2-3.4,1.4-4.8,4.2-4.3,9.6-5.4,15.3-5.4H30c5.3.2,9.3,2.7,12.6,6.7a2.22,2.22,0,0,1,.5,1.1,19.22,19.22,0,0,1,0,2.4c.1,1.8-.7,2.5-2.4,2.3a1.82,1.82,0,0,1-1-1.1c-.3-.6-.3-1.3-.6-2-.1-.2-.1-.4-.2-.6a4.71,4.71,0,0,0-.6-1.5,7.64,7.64,0,0,0-1.7-2.3c-.3-.3-.5-.7-.8-1-.6-.8-1.5-.7-2.3-.8a4.92,4.92,0,0,1-1.7-.6,28.71,28.71,0,0,0-7.7-.7,7.63,7.63,0,0,0-2.6.2,17,17,0,0,0-2.4.5c-1.3.5-2.6,1-3.8,1.5a3.93,3.93,0,0,0-2.1,1.5,8.37,8.37,0,0,0-1.7,3.7c-.5.9,0,2-.8,2.8C10,26,9.25,26.88,8.05,26.48Z"/><path class="cls-163" d="M5.55,21a7.58,7.58,0,0,0,.5-3,2.3,2.3,0,0,1,2.2-1.4,1.48,1.48,0,0,1,1.3,1.7c-.4,1-.5,2-1.5,2.7C7.25,21.18,6.45,20.38,5.55,21Z"/><path class="cls-164" d="M8.05,21c.3-.8.7-1.7,1-2.5.2-.2.3-.2.6-.1a.64.64,0,0,1,0,.6c-.5,1.5-1,3-1.6,4.5C7.55,22.58,8.25,21.78,8.05,21Z"/><path class="cls-165" d="M8.05,17c-.7.3-1.3.7-2,1h-.5a7.58,7.58,0,0,0,.5-3c.5-.3,1-.7,1.5-1,.8-1.1,1.6-.6,2.5-.1.3.5,0,.9-.3,1.3C9.15,15.68,8.65,16.38,8.05,17Z"/><path class="cls-166" d="M8.55,43.48c.2,2.5.6,5,0,7.5-1.2.9-1.3,2.4-2,3.5-.1-.7.2-1.5-.5-2-1.1-2.1,1.1-3.6,1.2-5.6s.3-4.3.3-6.4v-3l.1-.1C9.45,39.18,9.25,41.28,8.55,43.48Z"/><path class="cls-167" d="M28.05,6l2-2h3.5l-1.5,1.5c-1.2.8-2.3,1.7-3.9,1.2A.48.48,0,0,1,28.05,6Z"/><path class="cls-168" d="M9.65,19c0-.2-.1-.3-.1-.5-.1-1.2.7-1.9,1.3-2.8a14,14,0,0,1,3.3-2.6c1.3-.7,2.7-1,4.1-1.6a4.25,4.25,0,0,1,1.1-.2,14.87,14.87,0,0,1,3.6-.5h8.7a7.77,7.77,0,0,1,1.6.2,19.8,19.8,0,0,0,2.6.6,20,20,0,0,1,2.6,1,17.13,17.13,0,0,1,2.7,2A2,2,0,0,1,42,16c.2.5.4,1,.6,1.4.2,1,.8,2,0,3a15,15,0,0,1-1.3-1.1A14.69,14.69,0,0,0,31,14c-5.3-.3-10.6-.5-15.7,1.4C13.05,16.28,11.75,18.18,9.65,19Z"/><path class="cls-169" d="M42.05,16c-.3-.3-.6-.7-.9-1-.6-1.1,0-1.8.8-2.5a10.69,10.69,0,0,1,6.3-2.8c1.2.3,2.5.2,3.4,1.2.1,1.2-.9,1.1-1.6,1.4a10.47,10.47,0,0,0-2.9,1.2C44.75,13.08,43.65,15.08,42.05,16Z"/><path class="cls-170" d="M47.05,13.48c.9-2,3.1-1.5,4.5-2.5a3.81,3.81,0,0,1,2-1,1,1,0,0,1,.5,1C52.25,13.48,49.55,13.08,47.05,13.48Z"/><path class="cls-171" d="M42.55,20.48v-3a2.65,2.65,0,0,0,.6.5c0,.2-.1.3-.1.5a3.1,3.1,0,0,1,0,2.5Z"/><path class="cls-172" d="M53.55,10c-.2,1.3-1.2.9-2,1-1.1-.5-2.5-.2-3.5-1,.4-1.1,1.5-1.3,2.4-1.8.9-.2,1.7-.5,2.6-.7a1,1,0,0,1,.5,1Z"/><path class="cls-173" d="M45.05,4v.5c-1,1.4-2.6,1.5-4,2.1a3.27,3.27,0,0,1-3-.8c-.2-.3-.1-.5,0-.8v-.5C40.45,4.78,42.65,3.78,45.05,4Z"/><path class="cls-174" d="M28.05,6.48c1.5.2,2.5-1.5,4-1,.4.6.9.5,1.5.5-1.1,2.6-3.8,3.4-5.7,5.2a6.08,6.08,0,0,1-1.9-.1c-1-1.4,0-2.5.6-3.6C27,7,27.15,6.28,28.05,6.48Z"/><path class="cls-175" d="M28.05,10.88c1.2-2.3,3.8-3.1,5.5-4.9,1.5-.3,3-.7,4.5-1v.5c-1.4,1.9-4,2.2-5.4,4.2a3.16,3.16,0,0,1-2.4,1.5C29.55,11.08,28.65,11.58,28.05,10.88Z"/><path class="cls-176" d="M57.55,42.48c0-.5-.1-1.1.5-1.5h.5a3.67,3.67,0,0,1,1.5,2.5c-1,1.5-1.7,3.2-3,4.5A20.51,20.51,0,0,0,57.55,42.48Z"/><path class="cls-177" d="M8.55,43.48c-.3-2-.6-4-.9-6.1,0-1.5-.1-3-.1-4.5.1-.7.1-1.3.2-2,.3-.1.5-.1.6.2a2,2,0,0,1,.3,1.1c.1.9,0,1.7.1,2.6a3.28,3.28,0,0,0,1.1,2.7A5.34,5.34,0,0,0,10,35c-.1-1.7.1-3.3,0-5a4.55,4.55,0,0,1,.6-3,.63.63,0,0,1,.8.2c1,4.1.3,8.3.4,12.5-.9,2.2.3,4,1.1,5.8a5.85,5.85,0,0,0,1.7,2.1c.6.6,1.8.8,1.5,2.1a1.74,1.74,0,0,1-1.4.3c-2.6-.6-3.7-2.6-4.7-4.7-.3-.6-.3-1.4-1-1.7A.76.76,0,0,0,8.55,43.48Z"/><path class="cls-178" d="M10.05,14c-.8.2-1.7-.6-2.5,0v-2.5h.5c.8-.5,1.5-1,2.3,0a4,4,0,0,1,.3,1.5A2.07,2.07,0,0,1,10.05,14Z"/><path class="cls-179" d="M9.05,7.48c1.2,0,2.5-.6,3.5.5.3.7,0,1.2-.6,1.7A1.88,1.88,0,0,1,9.55,9l-.5-.5Z"/><path class="cls-180" d="M9.55,9c.8.2,1.7.3,2.5.5,0,.1.1.2.1.3a2.49,2.49,0,0,1-2.1,1.7c-.7-.5-1.3,0-2,0A5.79,5.79,0,0,1,9.55,9Z"/><path class="cls-181" d="M10.05,45c1.3,1.7,2.2,3.8,4.5,4.5,5.7,2.2,11.7,2,17.7,1.6,1-.1,2-.4,2.8.4-3.8,1.7-7.8,1.7-11.8,1.3a53.56,53.56,0,0,1-9.8-2.2c-.3-.1-.5-.1-.8-.2h0c-1.7-.3-2-1.8-2.5-3-.2-.8-.5-1.6-.7-2.3C9.65,44.78,9.85,44.78,10.05,45Z"/><path class="cls-182" d="M50.55,8.48a9.23,9.23,0,0,1-2.5,1.5c-1.9.9-4,1.4-5.7,2.9a3.6,3.6,0,0,0-1.3,2.1c-.9-.6-1.7-1.3-2.6-1.9,0-1.9,1.7-2.2,2.8-3a7.89,7.89,0,0,1,2.3-.9c1.5-.6,3.5.3,4.4-1.6.5.2,1,.3,1.5.5.1-.2.3-.2.5-.2A.74.74,0,0,1,50.55,8.48Z"/><path class="cls-183" d="M43.55,9.48c-1.6,1.2-3.9,1.7-5,3.6-.9-.3-1.7-.7-2.6-1,2.5-2.6,5.9-3.9,8.8-5.9.7-.4,1.3-.6,1.8.3h1v1C46.25,8.28,44.85,8.78,43.55,9.48Z"/><path class="cls-184" d="M43.55,9.48a6.17,6.17,0,0,1,4-2h.5c.8,1.3-.2,1.8-1.1,1.9A19.61,19.61,0,0,1,43.55,9.48Z"/><path class="cls-185" d="M50.05,8h-.5c-1-3,1.8-1.2,2.5-2,.2.3.3.7.5,1A3.11,3.11,0,0,1,50.05,8Z"/><path class="cls-186" d="M50.05,8a2.88,2.88,0,0,1,2.5-1l.5.5c-.5,1.2-1.5,1-2.5,1C50.35,8.28,50.15,8.18,50.05,8Z"/><path class="cls-187" d="M16.05,5.48h1.5V6a5,5,0,0,1-2.9,2.3,1.17,1.17,0,0,1-1.1-.8c.2-.5.3-1,.5-1.5A3.51,3.51,0,0,1,16.05,5.48Z"/><path class="cls-188" d="M13.55,7.48c.3.2.7.3,1,.5.3.5,0,.9-.2,1.3a1.8,1.8,0,0,1-.9.6,1.49,1.49,0,0,1-1.4-.4h0c.2-.5.3-1,.5-1.5C12.85,7.78,13.25,7.68,13.55,7.48Z"/><path class="cls-189" d="M46.55,6.48a1.36,1.36,0,0,0-1.5,0c-1.2.4-2.4.9-3.7.3-.3-.2-.3-.4-.3-.8,1.3-.5,2.7-1,4-1.5.7.1,1.5-.2,2,.5C46.85,5.48,46.75,6,46.55,6.48Z"/><path class="cls-190" d="M10.15,47.38c.8,1,1.7,2,2.5,3l-1.1,1.1C9.25,50.68,10.35,48.78,10.15,47.38Z"/><path class="cls-191" d="M10.05,45a2,2,0,0,0-.7.1,8.8,8.8,0,0,1-.5-1.5A1.21,1.21,0,0,1,10.05,45Z"/><path class="cls-192" d="M48.05,37.48c2.3-1.7,4.7-3.3,7-5,.6,4.4-2.5,6.7-5.3,9-1.1.9-2,.4-2.2-1.1C47.65,39.48,47.15,38.38,48.05,37.48Z"/><path class="cls-193" d="M38.05,52.08c-.1,1.1-1.3,1.7-1,2.9a11.57,11.57,0,0,1-4.5.5c-1.3-.8-2.7.4-4-.4s.2-.8.1-1.2a.19.19,0,0,1,.3,0c1.2-.5,2.5.1,3.6-.4C34.35,53,36.25,52.58,38.05,52.08Z"/><path class="cls-194" d="M35.05,51.48a57.21,57.21,0,0,1-12.4.4c-2.8-.1-5.8-.3-8.1-2.4h1.5c1.2-.7,2.2.2,3.3.5a28.85,28.85,0,0,0,13.7,0,10.18,10.18,0,0,0,6.1-4,6.22,6.22,0,0,0,1.4-1.9l.3-.6a6.6,6.6,0,0,0,1.1-2.6,1.45,1.45,0,0,1,.7-1c.1,0,.2.1.3.1C42.65,45.38,40.45,49.48,35.05,51.48Z"/><path class="cls-195" d="M45.05,28.48c.1.2.3.4.4.6v5.8c-.5,1,0,2.1-.3,3-.2,1.7-.4,3.3-.6,5-.5,1.5-1.1,3-1.6,4.5a.6.6,0,0,0-.4.1c-.2-2.6,1.4-4.9,1-7.5a7.51,7.51,0,0,1,.5-5.5c.9-1.1.3-2.3.5-3.5C44.65,30.08,44.25,29.18,45.05,28.48Z"/><path class="cls-194" d="M44.05,34.48a17.13,17.13,0,0,1-.5,5.5h-.5c-.4-.2-.7-.5-.6-.9.4-2.2.2-4.4,1-6.5.2-.2.4-.2.7,0A11.48,11.48,0,0,0,44.05,34.48Z"/><path class="cls-139" d="M32.55,53.48c-1.1.8-2.4.3-3.6.4C30.05,53.28,31.35,53.48,32.55,53.48Z"/><path class="cls-151" d="M45.15,38c0-1-.3-2.1.3-3C45.45,35.88,45.85,37,45.15,38Z"/><path class="cls-196" d="M43.05,21v-2.5a2.21,2.21,0,0,1,.6,1.9c0,1-.1,2.1-.1,3.1-.2.2-.3.2-.5,0Z"/><path class="cls-197" d="M44.05,32.48h-.5a1.79,1.79,0,0,1-.5-.7,2.18,2.18,0,0,1,.5-2.3h.5Z"/><path class="cls-196" d="M43.55,29.48V32c-.4,1.8-.9,3.6-1.4,5.5-.2.6.1,1.9-1.4,1.4-.6-.9-.4-1.9-.5-2.9.1-2-.2-4,.2-6,1-1.5,1.2-3.5,3-4.4C43.55,26.78,43.55,28.18,43.55,29.48Z"/><path class="cls-198" d="M43.55,25.48c-.8,1.4-.9,3.2-2.5,4a2.09,2.09,0,0,1-.4-.6,26.6,26.6,0,0,1-.3-2.8.71.71,0,0,1,.3-.6c1.3-.1,2.5-.2,2.5-2h.5A13.4,13.4,0,0,0,43.55,25.48Z"/><path class="cls-199" d="M14.05,9c.2-.3.3-.7.5-1,1-.7,2-1.3,3-2h1.5V7c.1.5-.1.7-.5.9C17.05,8.28,15.85,10,14.05,9Z"/><path class="cls-200" d="M19.05,11.88c-.3,0-.6.1-.9.1-1.4.4-1.5-.3-.9-1.2,1-1.5,2-3.1,3.7-3.8h1c.7-.2,1.3-.3,2-.5-.2,2.1-1.8,3.3-3.2,4.6A3.85,3.85,0,0,1,19.05,11.88Z"/><path class="cls-201" d="M21.05,7c-1.1,1.3-2.1,2.7-3.3,4-.6.7-.5,1,.4,1-1.3.5-2.7,1-4,1.6-.1-.1-.1-.2-.2-.3a2.37,2.37,0,0,1,1.3-2c1.5-.9,2.1-2.7,3.3-3.9l.5-.5A13.4,13.4,0,0,0,21.05,7Z"/><path class="cls-202" d="M20.55,11c1.2-1.5,2.3-3,3.5-4.5.8-.2,1.7-.3,2.5-.5h1.5v.5l-1,1C25.55,10,23.75,11.68,20.55,11Z"/><path class="cls-203" d="M8.05,32V31a8.13,8.13,0,0,1,0-4.1c-.1-.1-.1-.2,0-.4.8-.5,1.7-1,2.5-1.5a1.42,1.42,0,0,1,0,2v3c-.4.4-.2.9-.3,1.4C10.05,33.08,9.75,33.18,8.05,32Z"/><path class="cls-204" d="M8.05,26.88V31h-.4A9.43,9.43,0,0,1,8.05,26.88Z"/><path class="cls-205" d="M19.05,15.48c.7-.8,1.7-.4,2.5-.5.8-.5,1.8.1,2.5-.5a24.42,24.42,0,0,1,8.5.9,1.73,1.73,0,0,1-1.6.7c-3,.1-6.1-.1-9.1.3C21,16.18,19.85,16.28,19.05,15.48Z"/><path class="cls-206" d="M39.55,22.48c.7.5.4,1.3.5,2,.4.7.2,1.4.3,2.2a1,1,0,0,1-.4.5,9.13,9.13,0,0,0-4.3,1.4,1.8,1.8,0,0,1-.9-.6,3.5,3.5,0,0,1-.6-2.2,1.16,1.16,0,0,1,1.3-1.1C38,25.68,38,25.68,39.55,22.48Z"/><path class="cls-207" d="M19.05,15.48c.8.1,1.8-.3,2.5.3a1,1,0,0,1-.8.7c-2.5.8-5.1,1.5-6.4,4.2-.4.4-.6,1.1-1.4.8-.6-.9-.2-1.7.1-2.5a4.82,4.82,0,0,1,2-2A14.93,14.93,0,0,1,19.05,15.48Z"/><path class="cls-208" d="M31.05,15.58c.5-.1,1-.1,1.5-.2.5.3.8.7,1.5.6.3.2.8.4.6.9-.8.9-1.8.6-2.8.5a20.13,20.13,0,0,0-4.9-.2c-1-.1-2,.1-2.8-.6-.1-1.2.8-.8,1.4-.8C27.25,15.58,29.15,16,31.05,15.58Z"/><path class="cls-209" d="M37.05,18a4.58,4.58,0,0,1,1.9,2.6c-.1.3-.2.6-.5.7a1.27,1.27,0,0,1-.6-.1c-.4-.2-.8-.6-1.2-.8s-1-.4-1.4-.6c-.6-.7-2.2-.2-2-1.8C34.45,17,35.75,17.78,37.05,18Z"/><path class="cls-210" d="M37.05,18c-1.3,1.2-2.7-.5-4,.1h-.3a2,2,0,0,1-.8-.4.66.66,0,0,1,.1-.6c.8-.1,1.8.3,2.5-.5.9-.5,1.4.1,1.9.6A5.55,5.55,0,0,1,37.05,18Z"/><path class="cls-211" d="M39.55,22.48c0,1.3.2,2.8-1.4,3.3-.9.3-2.2.8-2.6-.8a1.42,1.42,0,0,1,.6-.2c1,.1,1.8-.1,1.6-1.4a2.13,2.13,0,0,1,.7-1.5.92.92,0,0,1,1,.2C39.55,22.18,39.55,22.28,39.55,22.48Z"/><path class="cls-204" d="M10.55,27V25c.4-.8-.2-1.8.5-2.5a.48.48,0,0,1,.7.1,3.62,3.62,0,0,1-.7,4.3A.75.75,0,0,1,10.55,27Z"/><path class="cls-203" d="M11.55,22.48h-.5c.5-1.4.5-3.1,2-4a.73.73,0,0,1,.2.6C12.45,20.08,13.05,21.78,11.55,22.48Z"/><path class="cls-205" d="M13.05,19v-.5c.5-.8,1-1.5,2-1.5-.5.7-1,1.3-1.5,2C13.35,19.18,13.25,19.18,13.05,19Z"/><path class="cls-212" d="M36.45,17.08c-.7-.1-1.2-.8-1.9-.6-.2-.2-.4-.3-.5-.5C35.05,16,36.15,15.78,36.45,17.08Z"/><path class="cls-213" d="M24.05,14.48c-.7.8-1.7.4-2.5.5C22.25,14.18,23.25,14.58,24.05,14.48Z"/><path class="cls-214" d="M40.05,27v-2.5a4.67,4.67,0,0,1,.5,1V26a.9.9,0,0,1,0,1A.45.45,0,0,1,40.05,27Z"/><path class="cls-215" d="M39.45,22h-.9a.64.64,0,0,1-.1-.9c.2-.2.3-.4.5-.6C39.15,21,39.65,21.38,39.45,22Z"/><path class="cls-216" d="M11.05,16c-.5.8-1.1,1.6-1.6,2.5h-.4c0-.7,0-1.5-1-1.5,0-1.1.2-1.9,1.5-2,.6,0,1.2-.5,1.7.2A.63.63,0,0,1,11.05,16Z"/><path class="cls-217" d="M11.05,15c-.5.1-1,.8-1.5,0,.2-.3.3-.7.5-1V13c.7-1.2,1.4-2.5,3.1-2.5,1.2.3,1.4,1,.8,2C13.15,13.48,12.65,14.88,11.05,15Z"/><path class="cls-218" d="M41.05,6.48h4c-3,1.9-5.9,4.1-9.1,5.6a4.94,4.94,0,0,1-2.4-.5c.3-.5.9-.6,1.4-.9a17.86,17.86,0,0,1,3.6-3.1l.6-.3a8.51,8.51,0,0,0,1.7-.6A.22.22,0,0,1,41.05,6.48Z"/><path class="cls-219" d="M35.05,11c-.4.6-1,.5-1.6.5s-1-.1-1.4-.1c-.4-.4-1.1.1-1.5-.5a17.89,17.89,0,0,1,7.5-5.5,5.18,5.18,0,0,0,3,.5v.5h0c-.5.6-1.5.4-2,1h0C37.55,8.48,35,8.18,35.05,11Z"/><path class="cls-220" d="M20.55,11c2.8-.1,4.7-1.7,6.5-3.5-.1,1.2-1.4,2-1,3.4-1.1.8-2.4,0-3.5.5-1.2.2-2.3.3-3.5.5Z"/><path class="cls-221" d="M22.55,11.38c1.1-.8,2.3-.2,3.5-.5h2a20.9,20.9,0,0,1,2.5.1c.5.1,1.1,0,1.5.5C28.85,11.38,25.75,11.38,22.55,11.38Z"/><path class="cls-222" d="M11.05,15c1.3-.4,1.4-2,2.5-2.5.4.2.2.7.5.9l.1.2c-1,.8-2,1.6-3.1,2.4Z"/><path class="cls-223" d="M13.05,19h.5c-.1.9-.7,1.7-.4,2.6.8,2.3-.5,4.3-.6,6.5a31.52,31.52,0,0,0,0,9.2c-.1,2.5,1.3,4.7,1.2,7.1-1.3.8-1.5-.4-2-1.1a4.69,4.69,0,0,1-.7-2.8V27c.1-1.5.7-3,.5-4.5C12.05,21.28,12.55,20.18,13.05,19Z"/><path class="cls-224" d="M19.05,50.48c-1-.3-2-.7-3-1-.7-.5-1.3-1-2-1.5-.4-.7-1.1-1.4-.1-2.1.8-.2,1.3.4,1.9.8a10.11,10.11,0,0,0,4,1.7,18.43,18.43,0,0,0,2.5.5,4.53,4.53,0,0,1,1.6.3c1.5.4,3,.1,4.5.2,1,.1,2-.2,2.7.9-1.2.8-2.6.7-4,.7A55.06,55.06,0,0,1,19.05,50.48Z"/><path class="cls-225" d="M8.05,32c2.6,1.6,1.6-1.5,2.5-2v5.5c-1,.8-1.8.2-2.5-.5Z"/><path class="cls-204" d="M8.05,35c.8.2,1.7.3,2.5.5v3.4C8.85,37.78,7.85,36.78,8.05,35Z"/><path class="cls-204" d="M11.05,40.48c1,1.2.5,3.3,2.4,4a.66.66,0,0,1,.1.6,1.79,1.79,0,0,1-1,.9C11.75,44.18,10.05,42.68,11.05,40.48Z"/><path class="cls-226" d="M12.55,46c0-.6.3-1,.9-1,.1,0,.2.1.3.1a.83.83,0,0,1,.3.8c-.5.7-.1,1.4,0,2.1C13.15,47.58,13,46.68,12.55,46Z"/><path class="cls-227" d="M13.05,11c-1.4,0-1.9,1.5-3,2v-1.5l2-2h1.5C14,10.18,13.45,10.58,13.05,11Z"/><path class="cls-228" d="M13.05,11c.2-.5.3-1,.5-1.5l.5-.5c1.7,0,2.8-1.5,4.5-1.5-.2,3-3.2,3.8-4.5,5.9a1,1,0,0,1-.5-.9C13.85,11.88,14.35,11.08,13.05,11Z"/><path class="cls-177" d="M19.05,50.48h9.6c.8,0,1.7.3,2.3-.4,0-.1.1-.2.1-.3a5.72,5.72,0,0,1,1.6-1.1c.2-.1.4-.1.6-.2,2.5,0,3.7-1.8,4.7-3.7a16.6,16.6,0,0,0,1.9-4.8,1.91,1.91,0,0,1,.5-1c.2-.2.4-.1.7,0,.8-2.4,1-4.9,2.5-7v.5c.4,2.5-.7,5-.5,7.5a1,1,0,0,0-.5,1c-.8.8-.7,2.1-1.5,3h0a5.38,5.38,0,0,0-1,2c-2.8,4.5-7.4,5-12,5.5A25,25,0,0,1,19.05,50.48Z"/><path class="cls-197" d="M41.05,44c.4-1.1.3-2.4,1.5-3C42.15,42.08,42.25,43.28,41.05,44Z"/><path class="cls-197" d="M40.05,46c0-.9.1-1.6,1-2A3,3,0,0,1,40.05,46Z"/><path class="cls-229" d="M41,29.08c-.1.1-.1.2,0,.4v6.4a.38.38,0,0,1-.7,0,7.1,7.1,0,0,1-.5-2.9,8.13,8.13,0,0,1,.4-3.8C40.55,28.88,40.75,28.88,41,29.08Z"/><path class="cls-147" d="M40.55,36.08c.1-.1.3-.1.4-.2,0,1,0,2.1.1,3.1h-.4A2,2,0,0,1,40.55,36.08Z"/><path class="cls-196" d="M41,29.08c-.1-.1-.3-.2-.4-.3a1.3,1.3,0,0,1-.1-1.9c0-.3.1-.7.1-1C41.35,27,41,28.08,41,29.08Z"/><path class="cls-230" d="M31.05,15.58c-1.3.9-2.8.2-4.2.4-.9.1-2-.3-2.7.5a1.79,1.79,0,0,1-.7.5c-1,0-2.3.7-2.8-.9.3-.1.7-.1,1-.2A27,27,0,0,1,31.05,15.58Z"/><path class="cls-231" d="M35.05,28c.2.2.4.3.5.5.7.3.9.9,1.1,1.6a26.69,26.69,0,0,1,0,4,2.2,2.2,0,0,1-.1.8,16.18,16.18,0,0,1-1.7,4.1,20.28,20.28,0,0,1-1.3,1.8c-1.4,1.2-2.8,2.6-4.8,2.8a24.09,24.09,0,0,1-3.8,0c-.2,0-.5-.1-.7-.1-.6-.2-1.1-.4-1.7-.6a9.8,9.8,0,0,1-2.8-2.1,9.37,9.37,0,0,1-2.5-3.9,1.21,1.21,0,0,1,.3-1,2,2,0,0,1,1.8,1c2.1,2.5,4.7,4.4,8.1,3.4,4.1-1.2,5.9-4.5,6.8-8.4.2-1,0-2,.2-3A1.8,1.8,0,0,1,35.05,28Z"/><path class="cls-232" d="M40.45,27c0,.6.1,1.3.1,1.9,0,1.4-.1,2.7-.1,4.1a4.14,4.14,0,0,1-3,1.1c-1-.7-.9-1.9-1.1-3a.85.85,0,0,1,0-.7,8.76,8.76,0,0,1,3.1-3.5H40A1.09,1.09,0,0,0,40.45,27Z"/><path class="cls-233" d="M39.55,27a10.18,10.18,0,0,1-3,3.5,1.21,1.21,0,0,1-.5-.5c-.2-.5-.3-1-.5-1.5C36.45,26.68,37.85,26.58,39.55,27Z"/><path class="cls-234" d="M36.05,25h-.4c-.7,0-1,.5-1.1,1.1a1,1,0,0,1-1.1-.6,1.17,1.17,0,0,1,0-1,1.58,1.58,0,0,1,.7-.7,2.85,2.85,0,0,1,1.6.2,2.19,2.19,0,0,1,.5.3A6.37,6.37,0,0,1,36.05,25Z"/><path class="cls-235" d="M33.55,25.38c.3.3.6.5.9.8.2.6.4,1.2.6,1.9v1a.47.47,0,0,1-.6.1,17.55,17.55,0,0,1-1.1-2.4,1.48,1.48,0,0,1-.1-.7A.91.91,0,0,1,33.55,25.38Z"/><path class="cls-236" d="M12,28c.4-2.1.8-4.3,1.1-6.4a10.47,10.47,0,0,1,.8-1.1,10.85,10.85,0,0,1,6.9-3.4,1.45,1.45,0,0,1,.7.2,1.15,1.15,0,0,1,.6.9,1.44,1.44,0,0,1-1.1.9c-4.6,1-6.8,4-7.1,8.5-.3,1-.2,2-.4,3a1.16,1.16,0,0,1-1,1.1c-1-.8-.4-1.9-.7-2.9C11.85,28.48,11.85,28.18,12,28Z"/><path class="cls-237" d="M21.05,17.48a26.15,26.15,0,0,0-7.1,3c1.2-3,3.9-3.8,6.6-4.4.9.8,2,.3,3,.5a.48.48,0,0,1,0,.7C22.75,17.88,21.85,17,21.05,17.48Z"/><path class="cls-238" d="M23.55,17v-.5h.5c2.7.3,5.4-.5,8,.5v.5c-1.8.5-3.5,0-5.3.2H26C25.05,17.58,24.15,17.68,23.55,17Z"/><path class="cls-239" d="M34.05,24.08c-.2.1-.5.3-.7.4a1.64,1.64,0,0,1-1-.1c-1-.7-2.3-1-2.9-2.2.1-.8-1.4-1.8.2-2.5,1.4-.7.4-1.1-.2-1.5a.64.64,0,0,1,.5-.5,6.5,6.5,0,0,1,3.1.4h0c.6.8,2,.2,2.5,1.4-.1.5-.5.7-.9,1a2.18,2.18,0,0,0-.8,2.5A2,2,0,0,1,34.05,24.08Z"/><path class="cls-240" d="M34.05,24.08a6.73,6.73,0,0,0-.7-1.1c1.5-.4,2.9-.8,3.3-2.6a1.21,1.21,0,0,1,.5-.5,1.44,1.44,0,0,1,.9,1.1c.4,2-.6,3.1-2.5,3.4Z"/><path class="cls-241" d="M35.55,24.38a4.62,4.62,0,0,0,2.5-3.4c.2,0,.3.1.5.1,0,.3.1.6.1.9-.1.5-.3,1-.4,1.5-.2,1.3-1,1.6-2.1,1.1A.85.85,0,0,1,35.55,24.38Z"/><path class="cls-240" d="M34.35,19.88c.4-.2.8-.3,1.2-.5.5.2,1.2,0,1.6.5l-.1.1C36.05,20.68,35.15,20.78,34.35,19.88Z"/><path class="cls-242" d="M33.05,18h-3.5c-.9.6-1.7.2-2.5-.1-.3-.2-.6-.4-.5-.9,1.8.1,3.7-.4,5.5.5A1,1,0,0,1,33.05,18Z"/><path class="cls-243" d="M36.05,24.58a2.92,2.92,0,0,0,2.1-1.1.94.94,0,0,1-.2,1.6,1.24,1.24,0,0,1-1.9-.2Z"/><path class="cls-244" d="M35.05,11c-1-.5-1.2-1.1-.3-1.9,1.2-1.1,2.6-2,4.3-1.6C37.75,8.68,36.35,9.78,35.05,11Z"/><path class="cls-244" d="M39.05,7.48c.4-.9,1.1-1,2-1C40.85,7.88,39.85,7.38,39.05,7.48Z"/><path class="cls-245" d="M13.55,45v-.5a21.42,21.42,0,0,1-1.5-7,.64.64,0,0,1,0-.6.64.64,0,0,1,.6,0c.5.3.1,1.2.8,1.4a.55.55,0,0,1,.5.3,2.84,2.84,0,0,1,.9,1.7,11.45,11.45,0,0,0,.1,3.2c.2,1.2.1,1.2-1.3,1.5C13.65,44.88,13.55,45,13.55,45Z"/><path class="cls-246" d="M12.15,37c-.1.2-.1.3-.2.5A21.75,21.75,0,0,1,12,28c.1.2.1.3.2.5C12.05,31.28,13.65,34.18,12.15,37Z"/><path class="cls-247" d="M13.65,44.88a1,1,0,0,0,.7-1.6c-.9-1.2-.1-2.2.2-3.3-.2-2.2,1.3-3.5,2.3-5.1.6.2.9.5.7,1.1v.9c.3,1.1.7,2.3,0,3.4-.9,1.8-2.4,3.4-1.4,5.7a1.08,1.08,0,0,1-.7,1.1A14.31,14.31,0,0,0,14,46,2.28,2.28,0,0,0,13.65,44.88Z"/><path class="cls-248" d="M22.05,49.38c-.8-.2-1.7-.3-2.5-.5a1,1,0,0,1-.3-1,2,2,0,0,1,.8-1.2,3.54,3.54,0,0,1,1.1-.3,3.19,3.19,0,0,1,1.4.3,1.8,1.8,0,0,1,.7,1.5C23.05,48.88,22.45,49,22.05,49.38Z"/><path class="cls-249" d="M19.55,48v.9a8.73,8.73,0,0,1-4-1.9c.2-.3.3-.7.5-1,.1-1.1.7-.5,1.2-.3C18,46.38,19.05,46.88,19.55,48Z"/><path class="cls-250" d="M22.05,49.38c0-.6.4-.9,1-.9,1.1-1,2.4-.7,3.7-.5a2.43,2.43,0,0,1,1.4,1c.1.3-.1.5-.4.7a20.77,20.77,0,0,1-4.3-.1A5.9,5.9,0,0,0,22.05,49.38Z"/><path class="cls-251" d="M23.55,49.58c1.5,0,3-.1,4.5-.1,1.1-.7,2.2-1.1,3,.4L31,50C28.55,49.68,26,50.48,23.55,49.58Z"/><path class="cls-252" d="M40.35,39.88c0,1.9-1,3.5-1.9,5.1a8.79,8.79,0,0,1-5.4,4l-.2.1h-.2a1.52,1.52,0,0,1-1.2-.7,1.31,1.31,0,0,1,.7-1.2c3.1-1,4.3-3.8,5.8-6.3.4-.6.4-1.4.9-2C40.45,37.58,40.15,39.08,40.35,39.88Z"/><path class="cls-253" d="M40.35,39.88c-.5-.3-.2-1.7-1.4-1-1.3,1.2-1.7.2-2.1-.8-.1-1.4-.5-2.9.6-4.2a4,4,0,0,1,2.9-1c0,1,.1,2.1.1,3.1v2.9A1.64,1.64,0,0,1,40.35,39.88Z"/><path class="cls-254" d="M33.05,49a41.87,41.87,0,0,0,5.4-4C37.45,47.38,36,49.08,33.05,49Z"/><path class="cls-255" d="M31.55,48.48a1,1,0,0,1,1,.6c-.4.4-.7,1-1.5.9-.9-.9-2.1-.1-3-.4v-.5C29.15,48.18,30.25,47.78,31.55,48.48Z"/><path class="cls-256" d="M17.65,36a6.07,6.07,0,0,0-.7-1,2.22,2.22,0,0,1-.5-1.1,21.64,21.64,0,0,1,0-3.6,4.85,4.85,0,0,1,.8-2.1,2.09,2.09,0,0,1,.6-.4c1.3-.1,1.9-1.2,2.8-2,3.3-3.1,7.5-2.9,10.6.3,1,1,1.7,2.5,3.3,2.9h.5c.3,4.7-1.3,8.5-5.3,11.1a7.91,7.91,0,0,1-10.5-2.2A5.07,5.07,0,0,0,17.65,36Z"/><path class="cls-257" d="M37.55,34v4.5a6.69,6.69,0,0,1-3.3,6.3,2.08,2.08,0,0,1-1.1-.1c-.7-1.6,1.3-2.1,1.3-3.4.1-.3.2-.7.3-1,.8-1.7,1.6-3.4,1.3-5.3v-.5c.5-1.1-.2-2.4.5-3.5A8.19,8.19,0,0,1,37.55,34Z"/><path class="cls-258" d="M29.05,43c1.7-.4,2.9-1.7,4.3-2.6.8-.2.9.3,1.1.9a5.93,5.93,0,0,1-3.6,3.8c-2-.1-4.4.9-5.8-1.5C26.25,42.78,27.75,43.68,29.05,43Z"/><path class="cls-259" d="M17.05,40.48a11.19,11.19,0,0,0,.5-3.6l2.4,3.6c-.3,1-.4,2-.7,3a2.71,2.71,0,0,1-1.1,1c-.5.2-.9.4-1.4,0A17.54,17.54,0,0,1,17.05,40.48Z"/><path class="cls-260" d="M19.05,43.48c.3-1-.8-2.5,1-3,.9.6,1.8,1.3,2.6,1.9a2.92,2.92,0,0,1-.2.9c-.2.6.1,1.3-.3,1.8a2.28,2.28,0,0,1-1.2.6A2.57,2.57,0,0,1,19.05,43.48Z"/><path class="cls-261" d="M36.05,35c1.1,2.1.3,3.8-1,5.5-.6-.4-.5-1-.6-1.5C35.05,37.58,35.55,36.28,36.05,35Z"/><path class="cls-262" d="M25.05,43.48c1.8,1.4,4,.9,6,1,0,1.1-.9,1.1-1.6,1.4a5.86,5.86,0,0,1-3.9-.5,4,4,0,0,1-2-1.6c-.2-.4-.4-1,.5-.8a.9.9,0,0,1,.5.1A.66.66,0,0,1,25.05,43.48Z"/><path class="cls-263" d="M24.15,42.88c-.5,1.4,1.1,1.3,1.4,2a1.38,1.38,0,0,1-1.4.3,3.68,3.68,0,0,1-2.1-2.3l.6-.6A2.53,2.53,0,0,1,24.15,42.88Z"/><path class="cls-264" d="M34.45,38.88c.6.3.6,1,.6,1.5v1a.67.67,0,0,1-1,0,1.08,1.08,0,0,0-.7-1.1A7.55,7.55,0,0,0,34.45,38.88Z"/><path class="cls-265" d="M25.05,43.48l-.5-.5c1.5,0,3,0,4.5-.1C27.85,44,26.35,43.28,25.05,43.48Z"/><path class="cls-214" d="M36.55,31c-.2,1.1.4,2.4-.5,3.5V30l.5.5Z"/><path class="cls-240" d="M32.55,24.08c.3.2.5.3.8.5a2.35,2.35,0,0,1,.2.8,1.27,1.27,0,0,1-.1.6C32.35,25.78,32.15,25.08,32.55,24.08Z"/><path class="cls-266" d="M34.55,29c-1.5,1.1-1.9-.3-2.6-1.2-2.5-3.4-5.4-4.4-8.8-3.1-1.7.6-2.6,2.2-4,3.3-.4.3-.9,1.4-1.2-.1-.6-.8-.1-1.4.2-2a3.92,3.92,0,0,1,2.3-1.7c2.1-.7,4.1-1.6,6.5-1.2a12,12,0,0,1,6.6,3.6A2.59,2.59,0,0,1,34.55,29Z"/><path class="cls-267" d="M33.55,26.48c-1.1.4-1.5-.7-2.2-1.1-3.1-2.1-6.3-2.7-9.7-.8-.5.3-.9.3-1.2-.2.4-2,2.2-2.2,3.6-2.9a7.57,7.57,0,0,1,1.5-.1,11.5,11.5,0,0,1,3.2.2,1,1,0,0,1,.6.5c1,.7,2.3,1,3.1,2.1a3,3,0,0,0,1,1.9C33.55,26.18,33.55,26.28,33.55,26.48Z"/><path class="cls-268" d="M13.55,27.48c0-5.2,2.5-8.1,7.7-9a2.18,2.18,0,0,0,.8-.5.66.66,0,0,1,.6-.1c1.2,1.4-.4,2-.8,3a10.52,10.52,0,0,1-3.4,2.9c-1.2.3-1.6,1.4-2.2,2.2S15.05,28.18,13.55,27.48Z"/><path class="cls-269" d="M13.55,27.48a3.46,3.46,0,0,0,2.7-2.5c.5-1,1.1-1.6,2.2-1.5.6,1.7-.8,2.6-1.6,3.7a6.13,6.13,0,0,0-1.7,3.4c.1,1.2-.5,1.7-1.7,1.6-.5-.4,0-1.2-.5-1.6C13.25,29.48,12.65,28.38,13.55,27.48Z"/><path class="cls-270" d="M13.05,30.48c.6.4.5.9.5,1.5a1.08,1.08,0,0,1,.7,1.1c-.4,1.8-.1,3.7-1.2,5.4-1-.2-.3-1-.5-1.5a12.75,12.75,0,0,1,0-5.5A1,1,0,0,0,13.05,30.48Z"/><path class="cls-271" d="M12.55,31.48V37h-.4a58.88,58.88,0,0,1,0-8.4C13,29.38,12.45,30.48,12.55,31.48Z"/><path class="cls-272" d="M22.55,18h-.5l-.5-.5c1.4-.7,3.1.2,4.5-.5h.5l.5.5c.1.8-.6.9-1.1,1.1A4.49,4.49,0,0,1,22.55,18Z"/><path class="cls-242" d="M26.05,17c-1.4,1-3,.3-4.5.5h-.5c.7-.8,1.7-.4,2.5-.5Z"/><path class="cls-273" d="M34.35,19.88c.9.1,1.7.1,2.6.2-.1,2.8-1.1,3.6-3.6,3C32.75,21.68,33,20.58,34.35,19.88Z"/><path class="cls-274" d="M29.45,22h-.2l-.2-.1c-.3-.3-.8-.2-1.2-.4a2.37,2.37,0,0,1-1.1-1.3,1.16,1.16,0,0,1,.2-1c.8-.6,1.4-1.4,2.6-.8h1.5c-.2,1.2-2.3,1.8-.9,3.3A1.08,1.08,0,0,1,29.45,22Z"/><path class="cls-275" d="M29.55,18.48c-.8.3-1.7.7-2.5,1a1.22,1.22,0,0,1-1.2-.6c-.1-.4-.1-.7.2-.9a1,1,0,0,0,1-.5c.8.2,1.7.3,2.5.5Z"/><path class="cls-276" d="M17,34v1c-.3,1.9-1.8,3.2-2.4,5-.3-.5-.7-1-1-1.5,0-1.9,1.2-3.5,1.2-5.5.2-.8.8-.7,1.4-.5S16.75,33.48,17,34Z"/><path class="cls-277" d="M15.05,33c.6,2.1-.8,3.7-1.5,5.5h-.5c.2-1.9.1-3.8,1-5.5A.67.67,0,0,1,15.05,33Z"/><path class="cls-278" d="M17.05,40.48c.9,1.3.3,2.7,0,4a1.09,1.09,0,0,1,0,1.5c-.3,0-.7-.6-1,0C14.65,44.38,15,42.78,17.05,40.48Z"/><path class="cls-279" d="M17.05,46v-1.5c.3-.2.7-.3,1-.5,1,.8,2.2,1.4,2,3-.2.3-.3.7-.5,1A4.52,4.52,0,0,1,17.05,46Z"/><path class="cls-280" d="M27.05,48.48h-4c-.2-.5-.3-1-.5-1.5a1.5,1.5,0,0,1,1.1-.4c1.4.4,3,0,4.3.7a.91.91,0,0,1,.3.7C28.05,48.68,27.65,48.88,27.05,48.48Z"/><path class="cls-281" d="M20.05,47c-.3-1.2-2-1.6-2-3,.3-.2.7-.3,1-.5l2,2a1.09,1.09,0,0,1,0,1.5Z"/><path class="cls-282" d="M21.05,47v-1.5a1,1,0,0,1,1-.5c.9-.3,1.3.4,1.7,1a.92.92,0,0,1-.2,1h-2.5Z"/><path class="cls-283" d="M27.05,48.48a1,1,0,0,0,1-.5c1-.9,2.2-.8,3.4-.8l.6.3c-.2.3-.3.7-.5,1a8.28,8.28,0,0,1-3.5.5A1,1,0,0,1,27.05,48.48Z"/><path class="cls-284" d="M32.05,47.48h-.5c.2-1.6,1.7-2,2.5-3,2-1.5,2.6-3.8,3.5-6,.3.8.8.9,1.5.5-.3,3.2-2.7,5.2-4.3,7.6A2.78,2.78,0,0,1,32.05,47.48Z"/><path class="cls-285" d="M31.55,34c-.2,2.4-1.6,3.9-3.4,5.3-1.6.4-3.1.9-4.2-.9a37.8,37.8,0,0,1,4.1-3.9C29.15,34,30.15,32.88,31.55,34Z"/><path class="cls-286" d="M30.05,27.58a2.87,2.87,0,0,1,1.1,1.9l-.3.3c-1,.5-1.9,0-2.9-.1-2.5-.3-4,1-4.8,3.3-.3.8-.2,1.9-1.5,2-.6-1.5-1-2.9-.2-4.5l.2.2c1.2-.5,1.6-1.9,2.7-2.6C26.25,27,28.05,26.28,30.05,27.58Z"/><path class="cls-287" d="M28.05,35c-1.3,1.2-1.9,3.1-4,3.4-.9.4-1.1-.1-1.1-.9V37c1.8-1.4,2.2-4,4.4-5a2.82,2.82,0,0,1,1.8-.2C30.85,33.58,28.85,34.08,28.05,35Z"/><path class="cls-288" d="M30.05,27.58a8.85,8.85,0,0,0-5.5.9c-1.2.4-1.5,2-3,2h-.1a5.24,5.24,0,0,1,4-4.4A3.81,3.81,0,0,1,30.05,27.58Z"/><path class="cls-289" d="M27.55,32.48a4.7,4.7,0,0,0-2.1,2.5A2.8,2.8,0,0,1,23,37a1.55,1.55,0,0,1-.8-1.1c.2-.7.1-1.4.6-1.9,1.4-.7,2.1-2.5,3.8-2.9C27.25,31.38,27.75,31.68,27.55,32.48Z"/><path class="cls-290" d="M28.05,35c.4-1,2.1-1.5,1-3-.3-1.6,1.2-1.7,1.9-2.5h.1c.7,1.4,1.5,2.9.5,4.5C30.15,33.58,29.25,34.78,28.05,35Z"/><path class="cls-291" d="M23.05,34.48l-.9,1.5c-.2-.3-.3-.7-.5-1,.4-.9.7-1.8,1.1-2.8a4.82,4.82,0,0,1,5.3-3.2c.2,1-.7,1.1-1.2,1.5C25,31.28,24.15,33,23.05,34.48Z"/><path class="cls-292" d="M23,37.48c.3.4.5.9,1.1.9,1.2,1.1,2.6,1,4.1,1-2.6,1.3-4.3,1-6.6-1.3a.67.67,0,0,1,0-1A7.37,7.37,0,0,1,23,37.48Z"/><path class="cls-293" d="M17,34c-.3-.3-.6-.7-.9-1a2.49,2.49,0,0,1-.4-2.2,1.6,1.6,0,0,1,.7-.9.59.59,0,0,1,.7.1C17.05,31.28,17,32.58,17,34Z"/><path class="cls-294" d="M17.05,30h-.5c-.6-.7-.4-1.3.1-2a1.45,1.45,0,0,1,.7-.2c.1.1.2.2.3.2C17.45,28.68,17.25,29.38,17.05,30Z"/><path class="cls-294" d="M18.75,26c-.1.7-.9,1.1-.7,1.9-.1.1-.2.1-.4.2l-.1-.1C17.05,26.68,17.15,25.88,18.75,26Z"/><path class="cls-295" d="M21.55,37v1c-.5-.4-1.1-1-.7-1.5C21.05,36.08,21.35,36.68,21.55,37Z"/><path class="cls-296" d="M34.05,44.48c-.1,1.6-1.6,2-2.5,3-1.2.2-2.3.3-3.5.5v-.5a.66.66,0,0,1,.3-.9c1.6-.5,2.9-1.8,4.7-2.1Z"/><path class="cls-297" d="M33.05,44.48a11.11,11.11,0,0,1-4.5,2.5c-.3-.2-.6-.3-.6-.7.2-.9,1.2-.3,1.6-.8.5-.3,1-.7,1.5-1a10.71,10.71,0,0,0,3-3h1C35.05,42.88,33.45,43.28,33.05,44.48Z"/><path class="cls-298" d="M23.55,46c-.5-.3-1-.7-1.5-1,.2-.7-.9-1.3,0-2a4.82,4.82,0,0,1,2,2c.4.3.8.5.5,1.1A.76.76,0,0,1,23.55,46Z"/><path class="cls-299" d="M24.55,46c-.2-.3-.3-.7-.5-1h1.5c1.3,0,2.6.7,4,.5-.5.3-1,.7-1.5,1C26.75,47.18,25.55,47.38,24.55,46Z"/><path class="cls-300" d="M18.75,26c-1.1.2-1.2,1-1.2,1.9h-.5c-.8,0-.8-.4-.5-1,.6-1.2,1.8-2.1,2-3.5l3-3a8.08,8.08,0,0,1,4.5-1.5,1,1,0,0,1,1,.5v1c-.7,1.1-2,.9-3,1.4-1.2.9-2.7,1.1-3.6,2.4A9.76,9.76,0,0,1,18.75,26Z"/><path class="cls-301" d="M24.05,21.88a6.9,6.9,0,0,1,3-1.4l1,1c-.8.6-1.7,0-2.5.4Z"/><path class="cls-239" d="M25.65,21.88c.7-.6,1.6-.2,2.5-.4.3.2.7.3,1,.5C27.85,21.88,26.75,21.88,25.65,21.88Z"/><path class="cls-302" d="M26.05,19c-1.1,1.8-3.1.5-4.5,1.5.2-.9,1.8-1.2,1-2.5h3.5Z"/><path class="cls-303" d="M16.55,27a1,1,0,0,0,.5,1,3.51,3.51,0,0,0-.5,2l-.5.5a3.79,3.79,0,0,1-1.5,0A4.16,4.16,0,0,1,16.55,27Z"/><path class="cls-304" d="M14.55,30.48a1.36,1.36,0,0,1,1.5,0V33c-.3,0-.7-.6-1,0h-1c-.2-.3-.3-.7-.5-1C14.05,31.58,15.15,31.58,14.55,30.48Z"/><path class="cls-305" d="M24.55,46c1.1.7,2.3.5,3.5.5l.5.5-.5.5c-1.5-.1-3.1.3-4.5-.5V46Z"/><path class="cls-306" d="M26.55,30c.5-.3,1-.7,1.5-1,1,.2,2,.3,2.9.5-.1,1.3-1.7,1.3-1.9,2.5-.5.2-1,.3-1.5.5a1.65,1.65,0,0,0-1-1A1.09,1.09,0,0,1,26.55,30Z"/><path class="cls-307" d="M21.65,30.48c1.1-.5,1.5-2,3-2-.8,1.3-2.2,2.1-2.6,3.7C21.25,31.58,21.65,31,21.65,30.48Z"/><path class="cls-308" d="M26.55,30v1.5c-1.3.8-2,2.4-3.5,3A5.64,5.64,0,0,1,26.55,30Z"/></g></g></svg>