<svg xmlns="http://www.w3.org/2000/svg" viewBox="0 0 62.83 65.89"><defs><style>.cls-1{fill:#0073a8;}.cls-2{fill:#0092cd;}.cls-3{fill:#0186bd;}.cls-4{fill:#0170a4;}.cls-5{fill:#009edc;}.cls-6{fill:#00a3e1;}.cls-7{fill:#00a7e8;}.cls-8{fill:#008ec7;}.cls-9{fill:#06b7fd;}.cls-10{fill:#01aff3;}.cls-11{fill:#017db3;}.cls-12{fill:#00729e;}.cls-13{fill:#117ca9;}.cls-14{fill:#007fb6;}.cls-15{fill:#0083ba;}.cls-16{fill:#0070a3;}.cls-17{fill:#0081b8;}.cls-18{fill:#0088c0;}.cls-19{fill:#006fa0;}.cls-20{fill:#0179af;}.cls-21{fill:#0477ab;}.cls-22{fill:#0177a3;}.cls-23{fill:#0175aa;}.cls-24{fill:#018bc3;}.cls-25{fill:#019bd7;}.cls-26{fill:#028dc1;}.cls-27{fill:#0195cf;}.cls-28{fill:#0192cc;}.cls-29{fill:#018fc9;}.cls-30{fill:#2d87b0;}.cls-31{fill:#018dc6;}.cls-32{fill:#0198d3;}.cls-33{fill:#0388b7;}.cls-34{fill:#019ad6;}.cls-35{fill:#1986b1;}.cls-36{fill:#086e9f;}.cls-37{fill:#02acee;}.cls-38{fill:#0074a9;}.cls-39{fill:#c7c9cb;}.cls-40{fill:#036ea0;}.cls-41{fill:#0077ac;}.cls-42{fill:#0071a5;}.cls-43{fill:#d8d8d9;}.cls-44{fill:#00699b;}.cls-45{fill:#006393;}.cls-46{fill:#0673a6;}.cls-47{fill:#025f8d;}.cls-48{fill:#126a96;}.cls-49{fill:#0094cf;}.cls-50{fill:#0097d2;}.cls-51{fill:#0090c9;}.cls-52{fill:#0196d1;}.cls-53{fill:#0090ca;}.cls-54{fill:#eff5f9;}.cls-55{fill:#bfcad4;}.cls-56{fill:#e6e8e9;}.cls-57{fill:#ced0d1;}.cls-58{fill:#e9e9ea;}.cls-59{fill:#e5e5e6;}.cls-60{fill:#dbdbdc;}.cls-61{fill:#e2e2e2;}.cls-62{fill:#dedede;}.cls-63{fill:#e0e0e0;}.cls-64{fill:#0370a3;}.cls-65{fill:#c4d6df;}.cls-66{fill:#e1e3e5;}.cls-67{fill:#f4f6f9;}.cls-68{fill:#b4bec7;}.cls-69{fill:#ced6db;}.cls-70{fill:#0784ba;}.cls-71{fill:#fbfcfc;}.cls-72{fill:#009cd9;}.cls-73{fill:#f5fafc;}.cls-74{fill:#008ac3;}.cls-75{fill:#d9dce0;}.cls-76{fill:#017bb1;}.cls-77{fill:#006798;}.cls-78{fill:#006b9e;}.cls-79{fill:#0084b3;}.cls-80{fill:#0081af;}.cls-81{fill:#0677a2;}.cls-82{fill:#077ba7;}.cls-83{fill:#007aa7;}.cls-84{fill:#e5ecf0;}.cls-85{fill:#f2f4f5;}.cls-86{fill:#0080b7;}.cls-87{fill:#0099d5;}.cls-88{fill:#0078ad;}.cls-89{fill:#a9b2ba;}.cls-90{fill:#016899;}.cls-91{fill:#e1e2e3;}.cls-92{fill:#06618d;}.cls-93{fill:#d9d9da;}.cls-94{fill:#026ea1;}.cls-95{fill:#0076ac;}.cls-96{fill:#0073a7;}.cls-97{fill:#049ad6;}.cls-98{fill:#dbdbdb;}.cls-99{fill:#d7d7d7;}.cls-100{fill:#d9d9d9;}.cls-101{fill:#016293;}.cls-102{fill:#e4e5e6;}.cls-103{fill:#0087bf;}.cls-104{fill:#c3cfd8;}.cls-105{fill:#007eab;}.cls-106{fill:#007cb2;}.cls-107{fill:#bdc6cd;}.cls-108{fill:#1082b4;}.cls-109{fill:#d4d4d5;}.cls-110{fill:#026494;}.cls-111{fill:#d9dada;}.cls-112{fill:#007ab0;}</style></defs><g id="Capa_2" data-name="Capa 2"><g id="Capa_1-2" data-name="Capa 1"><path class="cls-1" d="M2.1,51.91c-.3-1-.5-2-.8-3,1.6-.5,1.8,1,2.5,1.8,1.3,1.5,2.9,2.7,4.9,2.3a4.57,4.57,0,0,0,3.7-3.8,2.07,2.07,0,0,1,.6-1,1.21,1.21,0,0,1,1.3.7c.6,1.8,2.1,2,3.6,1.6s1.4-2,1.2-3.2c-.5-2.7-.3-5.5-.5-8.2-.8-3.1-.3-6.2-.4-9.2a4.87,4.87,0,0,1,.1-1.2c.1-.5.2-1.2.9-1.3a1.52,1.52,0,0,1,1.3,1,16.18,16.18,0,0,1,1.1,5.3v12.1a1.7,1.7,0,0,0,.1.7c-.4,1.1.4,1.1,1.1,1.3a2,2,0,0,1,.9.5,3.86,3.86,0,0,1,.8,2c.1,1.5,1,2,2.4,1.8s3.1-.7,3.3-2.7c.1-1-.2-2.2.6-3.1,1.5.2,1.1,1.7,1.9,2.5.7,2.6-.6,4.4-2.4,6.1-.9.8-2.5,1.5-2.1,2.8.5,1.5,2.3,1.4,3.7,1.5,2.7.1,3.4-.7,3.1-3.4-.2-2,0-3.9,2.3-4.6,1.1.4,1.1,1.4,1.3,2.2.3,1.3,1.1,1.9,2.4,1.4,2.3-.9,4.8-1.6,5.3-4.6a3.55,3.55,0,0,1,.4-.9.75.75,0,0,1,.9,0c2.6,1.3,2.9,1.1,4.2-1.7.5-1.1.5-2.7,2.2-2.8a3.15,3.15,0,0,1,.4,2.5,1.85,1.85,0,0,1-.2.7c-1.4,3.5-2.4,7.2-4.7,10.4,2-.6,3.9-.2,5.7-.4a1.57,1.57,0,0,1,1.9.9c-1.5,1.9-3.6,2.9-5.6,4-1.9-1.3-3.6-.6-5.3.3-3.1,1.6-6.5,1.9-9.8,2.1a16.07,16.07,0,0,0-4.4.5,31.49,31.49,0,0,1-8.1-.4c1.3-1.3,3.1-1,5-1.4a7.49,7.49,0,0,0-2.7-.8,86.25,86.25,0,0,1-15.7-4.8C7,57.11,4,55.21,2.1,51.91Z"/><path class="cls-2" d="M54,4.51c1.1.8,2.5,1.1,3.1,2.4-2.1,1.7-2.5,4.1-2.8,6.5-.9,1.4-2.5,1.6-3.9,1.9-2.8.6-5.5,1.2-8.2,2-2.9.9-3.1,1.6-1.6,4.2.7,1.2,2.2,2.3.6,3.9a.81.81,0,0,1-.9-.4A6.21,6.21,0,0,0,32,22a5,5,0,0,1-3.6.5c-1.7-.5-3.2.3-4.6,1.4a1.48,1.48,0,0,1-.7.1c-1-1.3,0-2.2.7-3.1,1-1.2.6-2-.6-2.8s-3-1.4-3.8-3a.64.64,0,0,1,.5-.5c10.7,1.4,21-.9,31.5-2.4a1.42,1.42,0,0,0,1.3-.9,9.22,9.22,0,0,0,0-3.7A2.9,2.9,0,0,1,54,4.51Z"/><path class="cls-3" d="M21.4,46.91c-.9-3.4-.2-6.9-.4-10.4a34.52,34.52,0,0,0-.5-6.4c-.2-.9-.3-1.8-1.2-2.3-.6.7-.2,1.5-.4,2.1a.48.48,0,0,1-.7-.1,5.14,5.14,0,0,1-.4-3c-.1-.7.2-1.6-1-1.7-1.5,0-3-.1-4.5,0-1,.3-.7,1.2-1,1.9a2.55,2.55,0,0,1-.8,1.2c-3.4,2-6.9,1.5-10.4.2a9.08,9.08,0,0,1,.3-4c.8-.6,1.6-.1,2.4,0,3.2.7,4.2.3,5.8-2.7.5-.9,1-1.9,1.6-2.8a.91.91,0,0,1,.7-.3c1,0,1.5.7,2,1.5A3.18,3.18,0,0,0,17,22c1.9-.4,2-1.9,1.7-3.6v-.7a2.6,2.6,0,0,1,.9-1.6c2.1.7,3,2.3,2.7,4.9a8.26,8.26,0,0,0-.2,3.1,2.2,2.2,0,0,0,.1.8v12.8c.1,1,0,2,0,3v3.1C22.2,45,22.4,46.11,21.4,46.91Z"/><path class="cls-4" d="M2.1,51.91a.75.75,0,0,1,.5.1c5.3,6.6,13.4,7.6,20.8,9.9,1.7.5,3.6.7,5.3,1.1.7.2,1.7.4,1.6,1.3s-1.1.5-1.7.5l-4.7.6a33.09,33.09,0,0,1-9.9-1.6A25.5,25.5,0,0,1,4.3,57,12.78,12.78,0,0,1,2.1,51.91Z"/><path class="cls-5" d="M3.5,10.41a4,4,0,0,1,1.1-2c2.9-2.2,6.2-2.7,9.7-2.7,8.8,0,17.6-.1,26.5,0a24.32,24.32,0,0,1,8.1.9A2,2,0,0,0,51.3,6c1.7.5,1.6,1.7,1.3,3-1.9,1-3.7-.1-5.5-.4a47,47,0,0,0-10.6-.1c-3.9.2-7.8.1-11.7.2a12.29,12.29,0,0,0-2.7.2c-1.8.3-3,1-2.6,3.1a1.8,1.8,0,0,1-.3,1.2.83.83,0,0,1-1.1.3,11.82,11.82,0,0,0-5.5-.9.35.35,0,0,1-.2-.1c-.8-.8.6-2.4-.8-2.8a7.48,7.48,0,0,0-4.9,0C5.7,9.91,4.8,10.81,3.5,10.41Z"/><path class="cls-6" d="M51.5,5.91c.2,1.7-.4,2.3-2.1,1.6a18.57,18.57,0,0,0-7.1-1.1c-8.2.2-16.4.1-24.6.1a40.14,40.14,0,0,0-13,1.9A2.78,2.78,0,0,1,6,6.91a15.37,15.37,0,0,1,9-2.5c6.6-.1,13.1-.9,19.7-.6,4.6.2,9.3.2,13.8,1.8.3.1.7.1.7-.4A3.23,3.23,0,0,0,47.8,4c-.8-.6-1.7-1.1-2.5-1.6a.71.71,0,0,1-.3-.6c.1-.4.3-.6.7-.4,1.5-.2,2.6.7,3.9,1.1C50.5,3.41,52.1,4,51.5,5.91Z"/><path class="cls-7" d="M49.5,4.41c.6.4,1.6.8,1.2,1.6s-1.4.5-2,.3c-7.2-2.5-14.7-2.2-22.1-1.8-5.6.4-11.3-.4-16.8,1.3-1.2.4-2.4,1.3-3.8,1.1a2.94,2.94,0,0,1,1.6-1.5C8.9,5,10,4,11.5,3.81c10-1.6,20.1-1.5,30.2-1,.3,0,.5.1.8.1C44.8,3.41,47,4.31,49.5,4.41Z"/><path class="cls-8" d="M54,13.41c0-2.7-.5-5.6,3.1-6.5a1.89,1.89,0,0,1,1,1.3c.2,1.9-1.5,2.4-2.5,3.4a1.49,1.49,0,0,0-.4.9c.4,3.7-1.7,5.6-4.8,6.9-2.9,1.3-5.6,2.9-6.5,6.3a2,2,0,0,1-1.9,1.4,1.45,1.45,0,0,1-.7-.2,1.42,1.42,0,0,1-.1-1.1,2.49,2.49,0,0,0,.4-2.5c-.8-2.8,0-4.2,2.6-5.4,2.4-1.1,5-1.7,7.5-2.7C52.6,14.71,53.5,14.41,54,13.41Z"/><path class="cls-9" d="M13.4,2.41C17.6.61,22.1.51,26.5.21a73.85,73.85,0,0,1,14.1.3c.7.1,1.3.2,1.6.9a2.33,2.33,0,0,1,2.7.6h0c-.2,1.3-1.3,1.1-2.1,1a122.6,122.6,0,0,0-13.6-.8c-4.2.1-8.4.5-12.6.9C15.5,3.11,14.3,3.41,13.4,2.41Z"/><path class="cls-10" d="M13.4,2.41c6.7-.1,13.3-1.3,20-.9,3.2.2,6.4.6,9.6.9.7.1,1.5.3,2.1-.4,1.2.1,2,.9,3,1.5-.2,1.2-1.1.9-1.7.7-1.3-.4-2.6-.3-3.8-.7h0c-6.6-1-13.2-.6-19.8-.4a46.25,46.25,0,0,0-11.7,1.4c-1.2.1-2.2,1.2-3.5,1A11.74,11.74,0,0,1,13.4,2.41Z"/><path class="cls-11" d="M.5,42a36.7,36.7,0,0,1-.4-8.1c.7-.1.8.5,1,.9,1.3,3,3.4,4,6.5,2.8,1-.4,1.9-1,3.1-.4a3.81,3.81,0,0,1,.9,1.3,15.33,15.33,0,0,1,.2,3.7,3.13,3.13,0,0,1-.4,1.9c-.2.3-.7.4-.8.1-.6-2.1-2.1-2-3.7-1.8a6.1,6.1,0,0,1-4.3-1.1c-.6-.4-1.1-.8-1.6.1C.8,41.71.7,41.91.5,42Z"/><path class="cls-12" d="M60.6,50.51c-.3.6.2,1.5-.5,2-1.9.6-3.1-.5-4.3-1.6-.3-1.9.7-3.5.8-5.3.5-3.5.1-7,.2-10.4a10.12,10.12,0,0,1,.2-3,3.51,3.51,0,0,1,.5-.8c1.4.2,1.2,1.4,1.2,2.3a25.29,25.29,0,0,0,1.4,9C60.9,45.11,60.7,47.81,60.6,50.51Z"/><path class="cls-13" d="M62,44.51a6.59,6.59,0,0,1-.5,3.4c-1.7-.9-.5-2.4-.8-3.6-.2-3.5-1.2-6.9-1.4-10.4-.2-3.2-.2-6.4-.1-9.6l.6-3c.3-.5.3-1.2,1.2-.8,1.3,2.5.5,5.3,1.1,7.8C62.8,33.71,62.1,39.11,62,44.51Z"/><path class="cls-14" d="M10.5,37.41a5.26,5.26,0,0,0-1.7.4c-5,2.1-7.2,1.1-8.8-3.8v-.5c.6-.5,1.1-.2,1.6.1,2.1,1.7,4.3,1.3,6.5.3.8-.4,1.7-1.1,2.7-.1A3.19,3.19,0,0,1,10.5,37.41Z"/><path class="cls-15" d="M.1,28.41c.4-.2.6-1.2,1.4-.7,2.5,2,5.1,1.3,7.8.3.4-.1.8-.1,1.2-.2a2.13,2.13,0,0,1,.3,2.4c-1.5,1.9-3.6,2.5-5.9,2.7-2.8.2-4.4-1.3-4.8-4.1Z"/><path class="cls-16" d="M57.1,58.91c-2.4-.1-4.8-.8-7.1.5-.4.3-.9.5-1.3.1a.78.78,0,0,1,0-1.1c2.6-3.1,3.4-7.1,5.2-10.5,1.1,1.8-.2,3.5-.5,5.2-.2,1.1-1.3,2.4-.3,3.2s2.2-.3,3.3-.8,2-1.8,3.5-1.6A9,9,0,0,1,57.1,58.91Z"/><path class="cls-17" d="M.1,28.91c1.1,3,3.4,4.1,6.6,3.1,1.3-.4,2.6-1.1,3.8-1.6a2.17,2.17,0,0,1,0,3c-3.5,2.1-6.9,3-10.4,0Z"/><path class="cls-18" d="M10.5,18.91c-2.4,6-3,8-10.1,5.5.1-1,.1-2,.2-3,1-.8,1.9.3,2.8.1a8.74,8.74,0,0,0,5.1-2.2C9,18.91,9.6,17.51,10.5,18.91Z"/><path class="cls-19" d="M60,53.91c-1.9,1-3.3,2.8-5.5,3.1-.6.1-1.2,1-1.9.1a2.13,2.13,0,0,1-.2-2.3c.7-2.3,1.7-4.5,1.7-6.9h0c.8-.7-.4-2.1.8-2.6,1.2,1.1.7,2.4.5,3.7-.2,1.5-.9,3-.9,4.9a5,5,0,0,0,1-2.1,1.46,1.46,0,0,1,.6-.9c1.4.5,2.8,1,4.1,1.6A5.9,5.9,0,0,0,60,53.91Z"/><path class="cls-20" d="M.5,42c0-.2.1-.4.1-.6a1.07,1.07,0,0,1,1.1.3c2,2.5,4.7,3.1,7.8,3.1a2.2,2.2,0,0,1,1.6.5,2,2,0,0,1,.3,1.8c-2.1,2.2-5.4,2.4-8.2.4-.6-.4-.9-1.2-1.7-1.3-.2.1-.4.1-.6.2A10.84,10.84,0,0,1,.5,42Z"/><path class="cls-21" d="M32,65.81c2.2-1.7,5-.8,7.4-1.3A29.66,29.66,0,0,0,49.1,61c1-.6,1.3-.4,1.4.6a1.89,1.89,0,0,0,1,1.3C45.3,65.41,38.7,65.91,32,65.81Z"/><path class="cls-22" d="M61.5,44.41c.3,1.2-.9,2.4.1,3.5h0c-.8.7.1,1.7-.6,2.4l-.1.1h-.2c-1.5-2.2-.1-4.8-1.1-7.1-1.8-3.8-1.1-8-2-11.9a3.5,3.5,0,0,1-.3-3.8c.9-.7,1.1.1,1.3.7a7.5,7.5,0,0,0,.9,2.5c.2,1.2.2,2.4.4,3.6A31.23,31.23,0,0,0,61.5,44.41Z"/><path class="cls-23" d="M13,49.41c-.3,2.5-2,3.8-4.1,4.4s-3.9-.7-5.4-2.3c-.7-.8-.9-2.2-2.2-2.5a6.9,6.9,0,0,1-.4-2.5l.1-.1c1.4.2,1.6,1.6,2.4,2.4,2.6,2.5,4.2,2.8,7.3,1.1C11.5,49.41,12.1,48.71,13,49.41Z"/><path class="cls-24" d="M10.5,18.91c-.6-.6-.9.1-1.2.4-2.4,2.8-5.4,3.3-8.7,2.1,0-.7-.4-1.4.2-2.1,1.3-.7,2.6.1,3.9-.1a10.56,10.56,0,0,0,4.8-1.9,1.85,1.85,0,0,1,.7-.2,1.27,1.27,0,0,1,.9.7,1.13,1.13,0,0,1-.2,1.1Z"/><path class="cls-25" d="M3.5,10.41a14.47,14.47,0,0,1,7.3-1.9c2,.1,2.7,1.5,1.6,3.7a.62.62,0,0,1-.7.2,7.09,7.09,0,0,0-6.6-1.1,2.8,2.8,0,0,1-2.2,0A1.8,1.8,0,0,1,3.5,10.41Z"/><path class="cls-26" d="M55,10.91c1.5-.3,2.3-1.5,3.1-2.7,1.5,1.4,1.6,3.3,2,5.1-1,1.3-2.4,1.3-3.9,1a2,2,0,0,1-1.1-1.1A6,6,0,0,1,55,10.91Z"/><path class="cls-27" d="M2,14.41a1.65,1.65,0,0,1,.5-1.5c2.4-2.3,5.7-2.3,8.5.1a1.08,1.08,0,0,1,.2.8,1.94,1.94,0,0,1-.9,1.4C7.6,15.31,4.8,14.41,2,14.41Z"/><path class="cls-28" d="M2,14.41a7.61,7.61,0,0,1,6.1.1,6.37,6.37,0,0,0,2.4.4,1.42,1.42,0,0,1,.1,2c-3-.4-6.1.3-9-1A1.6,1.6,0,0,1,2,14.41Z"/><path class="cls-29" d="M1.6,15.91c3,.2,6-.6,8.8,1,.1.1.2.2.1.3a.35.35,0,0,1-.1.2H10c-2.9,1.3-5.8,2-8.9.5C1.3,17.21,1.4,16.61,1.6,15.91Z"/><path class="cls-30" d="M62,44.51c0-5.5,0-11.1-.1-16.6a14.71,14.71,0,0,1,.1-6.6,71.36,71.36,0,0,1,.7,15.3C62.5,39.31,62.9,41.91,62,44.51Z"/><path class="cls-31" d="M1.1,17.91a53.15,53.15,0,0,0,8.9-.5c-2.6,2.8-5.8,2.9-9.2,1.9C.9,18.91,1,18.41,1.1,17.91Z"/><path class="cls-32" d="M11.2,13.51c-2.8-1.9-5.7-2.3-8.7-.6a1.72,1.72,0,0,1,.6-1.5,10.25,10.25,0,0,1,6.9-.7,3.07,3.07,0,0,1,2.1,1.9.83.83,0,0,1-.3.8A.66.66,0,0,1,11.2,13.51Z"/><path class="cls-33" d="M56,13.91a11.28,11.28,0,0,0,4.1-.5c.8.5.1,1.6.9,2.1a2.32,2.32,0,0,1,.1,2,5,5,0,0,1-4.6-.7,3.1,3.1,0,0,1-.9-1.8A1.5,1.5,0,0,1,56,13.91Z"/><path class="cls-34" d="M51.5,5.91c-.2-1.4-1.6-2.1-2-3.4,1.8-.1,3,1.2,4.5,2-.3,1-.7,2-1,3a3.85,3.85,0,0,1,.1,2.6c-1.8.9-3.4,1-4.7-.8.5-1,1.4-.5,2.1-.4s1.3.6,2,.1A5.45,5.45,0,0,0,51.5,5.91Z"/><path class="cls-35" d="M61,17.41v-1.9c1,1.8,1,3.8,1.1,5.8,0,2.2,0,4.4-.1,6.6-.8-2.4-.6-5-1-7.5A2.08,2.08,0,0,1,61,17.41Z"/><path class="cls-36" d="M4.3,56.91a65,65,0,0,0,9.7,6.8C9.9,62.71,6.5,60.71,4.3,56.91Z"/><path class="cls-37" d="M45,1.91l-2.7-.6c1.1-.9,2.2-.4,3.3,0Z"/><path class="cls-13" d="M61,50.31c.1-.8-.4-1.8.6-2.4C61.5,48.71,61.7,49.61,61,50.31Z"/><path class="cls-38" d="M37.5,51.41a3.74,3.74,0,0,0-1.8,4.5c.7,3,0,4-3.2,4a4.82,4.82,0,0,1-1.2,0c-1.5-.3-3.5-.3-4.1-1.9s1.3-2.6,2.5-3.3A6.11,6.11,0,0,0,32.5,49c.1,0,.2-.1.3-.1,1.5.3,3,1.4,4.2-.5a.84.84,0,0,1,.7.2.91.91,0,0,1,.3.7A2.13,2.13,0,0,1,37.5,51.41Z"/><path class="cls-39" d="M22.5,48.41c-.5-.1-1.4.1-.9-1a1.71,1.71,0,0,1,2.1-.9c2.3.5,3-.8,3.1-2.7.2-3.2,0-6.5.1-9.7a8.22,8.22,0,0,1,.2-2.7,4.07,4.07,0,0,1,1.2-1.7c1.7-1.1,3.4-1.9,5.3-.4a.88.88,0,0,1,.1.7c-2.3.9-4.4,2-3.9,5,0,4.1.3,8.3-.2,12.4a1.79,1.79,0,0,1-.5.7C26.8,49.21,24.6,48.11,22.5,48.41Z"/><path class="cls-40" d="M29,47.81c.1-4.5.1-8.9.2-13.4,1.5.2,1.9-1.4,3-1.9a12.64,12.64,0,0,1,2.6-1.3,1.34,1.34,0,0,1,.7.8,2.41,2.41,0,0,1-.3,2c-.1.1-.2.3-.3.3-3.7.7-3.7,3.4-3.7,6.4,0,1.9.6,3.7-.1,5.6,0,4.7-.5,5.6-3.4,6.4-2.1.6-3.1-.1-3.6-2.4.6-.3,1.1,0,1.7.1,3.5.7,4.6-.4,4-4.1C29.9,47.11,30.2,47.91,29,47.81Z"/><path class="cls-41" d="M13,49.41c-.3.1-.7.1-.9.3-3.9,3.8-8.5,1.7-11-3.3,0-.9.3-2,1.2-.8,2.5,3.3,5.4,3.1,8.7,1.8a2.39,2.39,0,0,1,2,.4.64.64,0,0,1,0,.6Z"/><path class="cls-42" d="M37.5,51.41v-2.5c1.1-.1,1,.9,1.5,1.4.6,1.7,1.7,2.1,3.4,1.7s2.6-1.1,2.5-3a4.31,4.31,0,0,1,.5-3.1c2,0,.9,2,1.8,2.7a.62.62,0,0,1-.2.7,6.91,6.91,0,0,1-6.6,6.4,2.1,2.1,0,0,1-2.4-2A4.56,4.56,0,0,0,37.5,51.41Z"/><path class="cls-43" d="M27.5,30.91v12c0,4.4-.2,4.5-4.5,4.1a10.26,10.26,0,0,0-1.4.4c-.1-.2-.1-.3-.2-.5,0-1,.1-2,.1-3a2.75,2.75,0,0,1,1.9-1c2.9-.3,2.9-.4,2.9-3.3v-4.8a9.82,9.82,0,0,1,.3-3.4C26.8,31.11,27,30.81,27.5,30.91Z"/><path class="cls-38" d="M47,49.41v-.5a2.19,2.19,0,0,1-.3-2.2c.7-.8,1.2-.1,1.6.3,1.4,1.3,2.5.7,3.2-.7.9-2,2-4,1.9-6.4.2-1.6,1-3.1,1-4.8,0-.6.2-1.3,1.1-1.3a2.38,2.38,0,0,1,.6,1.1c.2,2.9-.5,5.6-1,8.4a1.63,1.63,0,0,1-1.1,1.5c-.5,1-1.1,2-1.5,3C51.2,51.61,50,51.91,47,49.41Z"/><path class="cls-44" d="M29,47.81c.9-.4.3-1.4.8-2.1a4.13,4.13,0,0,1,.3,4.5c-.9,1.5-2.7,1.3-4.3.9a7.1,7.1,0,0,1-1.8-.8c-.2-.7-.3-1.3-.5-2,1.8-.7,3.7.4,5.5-.5Z"/><path class="cls-45" d="M19.5,39.41a52.56,52.56,0,0,0,.5,8.9c.2,1.7-.3,3-2.3,3.1-1.8.1-3.7.1-3.7-2.5.7-.3,1.2.1,1.9.3a1.57,1.57,0,0,0,2.1-1.6,2.35,2.35,0,0,1,.2-.8c.3-1.7,0-3.4.2-5.1C18.4,40.81,18.1,39.61,19.5,39.41Z"/><path class="cls-38" d="M31,46.41c-.9-2.9-.5-5.9-.4-8.8s2.4-3.1,4.5-3.6a1.35,1.35,0,0,1,.1,1.6c-3.7,2.5-4.2,3.9-3.2,8.7.3,1.5,1.5,3,.5,4.7h0C31.2,48.51,31.9,47,31,46.41Z"/><path class="cls-46" d="M19.5,39.41c-1,1.6-.3,3.3-.5,5-.1,1,.3,2.1-.4,3a2.65,2.65,0,0,1-.8-2.2c0-4.3-.1-8.6,0-12.9,0-.9-.1-1.9.9-2.4h.2C19.2,33,18.5,36.31,19.5,39.41Z"/><path class="cls-16" d="M54,44.91a37.84,37.84,0,0,0,1.5-10,.48.48,0,0,1,.7.1,5.82,5.82,0,0,1,.4,3.2,5,5,0,0,1-.2,1.2c-.5,1.3-.2,2.6-.3,3.9-.1.8-.2,1.7-1.1,2-1,.6,0,1.9-1,2.5Z"/><path class="cls-47" d="M18.4,47.71c-.3,2.6-1.7,2.9-4.4,1.2-.3-.2-.7-.3-1-.5V48A5.49,5.49,0,0,1,18.4,47.71Z"/><path class="cls-48" d="M29,47.81c-1.7,1.2-3.7.3-5.5.6h-1C24.6,47.41,26.9,48.41,29,47.81Z"/><path class="cls-49" d="M53.5,11.41a1.45,1.45,0,0,1-1.4,1.5c-6.7.5-13.2,2.5-19.9,2.5-4.2,0-8.5,1.3-12.6-.5-.1-.1-.1-.2-.2-.4.1-.3.3-.4.6-.6a5.27,5.27,0,0,1,1.2-.3,26.23,26.23,0,0,1,10.7-1.5c6.3.2,12.5-1.3,18.8-1A8.61,8.61,0,0,1,53.5,11.41Z"/><path class="cls-50" d="M53.5,11.41c-1.1.7-2.2.4-3.4.5l-25.3,1.5c-1.5.1-2.7,1.4-4.3,1-.6-1,.1-1.5.7-2.1a6.82,6.82,0,0,1,5.1-1.6,117.31,117.31,0,0,0,17.8-.9,15.17,15.17,0,0,1,5.2.2,5.88,5.88,0,0,0,3.7-.1V7.41C54,8.61,53.3,10.11,53.5,11.41Z"/><path class="cls-51" d="M54,13.41c.2,1.2-.6,1.6-1.5,2-2.3,1.2-4.8,1.7-7.2,2.6-3.3,1.2-3.7,2.1-3,5.4.2,1.1.3,2-.9,2.5a.45.45,0,0,1-.5,0c-.1-.2-.1-.4.1-.5,1.1-1.8-.6-2.8-1.3-3.9-1.7-2.8-1.5-3.7,1.7-4.6s6.4-1.7,9.6-2.4A12.13,12.13,0,0,0,54,13.41Z"/><path class="cls-52" d="M23.5,23.91c1-2.2,2.9-2.5,4.9-2a3,3,0,0,0,2.9-.4c2.3-1.4,6.5-.7,8.3,1.2a2.62,2.62,0,0,1,.9,2.2c-1.2.3-1.9-.7-2.8-1.2-1.9-1.7-3.8-1.4-5.7-.1-.3.2-.5.4-.8.6a4.2,4.2,0,0,1-1.9.9,3.26,3.26,0,0,1-1.4-.4C26.5,24.21,24.8,25.11,23.5,23.91Z"/><path class="cls-53" d="M21.5,24.41a8.08,8.08,0,0,1,0-3.1c.3-1.9.3-3.9-1.9-4.9a.57.57,0,0,1,0-1,50.6,50.6,0,0,1,4.6,2.7c1.1.8,1.4,1.7.2,2.9a3.84,3.84,0,0,0-1.5,3,1.45,1.45,0,0,1-1,.7C21.8,24.61,21.6,24.61,21.5,24.41Z"/><path class="cls-54" d="M31,23.81c.2-.2.4-.3.5-.5,2.2-1,4.3-1.4,6.5,0,.8.5,1.7,1.1,2.5,1.6l.5.5v.5a1.9,1.9,0,0,1-.7,2.1c-1.2-.3-1.6-1.8-2.8-2.2l-.6-.3a7.23,7.23,0,0,0-4.3-.8C31.9,24.81,30.9,25.11,31,23.81Z"/><path class="cls-55" d="M19.6,15.41v1l-.6,1.5c-.5.4-.9.8-1.6.6-.9-1.3.9-1.9.7-3a1.15,1.15,0,0,1,.6-1.1.66.66,0,0,1,.6.1c0,.2,0,.3.1.4A.55.55,0,0,1,19.6,15.41Z"/><path class="cls-56" d="M22,24.41c.3-.2.7-.3,1-.5h.5c1.7.4,3.5-.4,5.1.4A6.75,6.75,0,0,1,22,24.41Z"/><path class="cls-56" d="M40,27.91c.3-.7.7-1.3,1-2a.6.6,0,0,1,.4.1c.1.3.1.5.2.8a3,3,0,0,1-.4,2.6,17,17,0,0,0-5,.9,2.23,2.23,0,0,1-2.7-.8c-1.8-.8-3.4-.3-5,.5-2.5,1-4.7-.4-7-1V27a3,3,0,0,1,3-.3c3.5.9,7,1,10.3-.8a3.87,3.87,0,0,1,2.6-.3h0A6.4,6.4,0,0,1,40,27.91Z"/><path class="cls-57" d="M18.4,47.71c-1.8.1-3.6.1-5.4.2-.6-.3-1.5.1-2-.5a13.4,13.4,0,0,0-.1-2,.76.76,0,0,1,0-1c.1-.7.1-1.3.2-2,.3-.1.5-.1.7.2s.2.5.3.7c.1.4.1.8.2,1.2.3,1.4,1.5,1.5,2.5,1.4,1.2,0,1.5-1,1.5-1.9.1-2.1.1-4.3,0-6.4a43.49,43.49,0,0,1,.2-5.1c.5-1.2.2-2.5.5-3.7.3-.9,0-2.3,1.5-2.5.1,1.2.1,2.3.2,3.5-.4,5.8-.1,11.7-.1,17.5A.76.76,0,0,0,18.4,47.71Z"/><path class="cls-58" d="M37.5,25.41c-5.1,3.3-10.5,2.6-16,1.5v-2c2.2,0,4.6-1.2,6.6.8.4.4.9-.5,1.3-.8s1-.7,1.5-1c.9,1.2,1.8-.1,2.7.1A5.52,5.52,0,0,1,37.5,25.41Z"/><path class="cls-59" d="M21.5,28.91c2.5-.6,4.6,1.2,7,1l-1,1-.5.5c-1.1,2.1-2.5,2.3-5.5,1Z"/><path class="cls-60" d="M27,39.91c0,3.6,0,3.6-3.6,3.6a16.25,16.25,0,0,0-1.9.4v-3C23.1,39.11,25.1,39.61,27,39.91Z"/><path class="cls-61" d="M21.5,32.41c1.8-.4,4,1.2,5.5-1v3.5c-1.5,2.1-3.6,1-5.5,1Z"/><path class="cls-62" d="M27,39.91c-1.7,1.1-3.8-.1-5.5,1v-3c1.7-1.1,3.6-.9,5.5-.5Z"/><path class="cls-63" d="M27,37.41c-1.8.9-3.6.3-5.5.5v-2c1.7-1.2,3.8.4,5.5-1Z"/><path class="cls-64" d="M19.1,18.41c.9,2,.3,3.5-1.8,4.3a4,4,0,0,1-4.9-2.3,1.42,1.42,0,0,1,.6-.2c.5.1,1.1.3,1.6.4,1,.4,2,1,2.6-.5C17.6,19.31,18.1,18.51,19.1,18.41Z"/><path class="cls-65" d="M11.5,42.41h-.4c-.1-1.3-.1-2.7-.2-4a73.58,73.58,0,0,1,0-11.5c.3-.8-.4-1.8.6-2.4a1.79,1.79,0,0,1,.5.7,13,13,0,0,1,.2,3.4,54.19,54.19,0,0,1,0,5.7c0,2,.1,3.9,0,5.9A2.58,2.58,0,0,1,11.5,42.41Z"/><path class="cls-66" d="M13,20.41h-.5A19.2,19.2,0,0,0,11,19a2.92,2.92,0,0,1-.2-.9c.7-.6,1.2,0,1.7.3a2.55,2.55,0,0,0,3.1-.1,8.07,8.07,0,0,0,1.7-2.4c.4-.3.7-.6,1.2-.3,1.4,1.6-1.5,1.7-1,3C16.7,20.51,15,20.91,13,20.41Z"/><path class="cls-67" d="M29.5,24.91c.2,1.5-1.2,1.6-1.8,2.4-1.1-.6.5-2-.8-2.3a9.66,9.66,0,0,0-2.4-.1H21.6v-.5h7.2A6.82,6.82,0,0,0,29.5,24.91Z"/><path class="cls-68" d="M13,20.41a6.46,6.46,0,0,0,4.5-2c.5-.2,1-.3,1.6-.5,0,.2.1.3.1.5l-1.7,2c-.8,1.1-1.8,1-3,.6C14,20.71,13.4,21,13,20.41Z"/><path class="cls-69" d="M18.5,26.41c-1.5,1.8-.4,4.1-1.5,6a1.79,1.79,0,0,1-.5-.7,8.83,8.83,0,0,1-.2-2.8A13.36,13.36,0,0,1,17,25a2.65,2.65,0,0,1,.5-.6C19.2,24.41,18.5,25.61,18.5,26.41Z"/><path class="cls-70" d="M10.9,26.91v11.5c-.1-.3-.3-.7-.4-1v-9.5A4.18,4.18,0,0,0,10.9,26.91Z"/><path class="cls-71" d="M17.5,24.41v.5a5.48,5.48,0,0,1-5.9,0v-.3A14.62,14.62,0,0,1,17.5,24.41Z"/><path class="cls-72" d="M19.4,14.51c-.1,0-.3-.1-.4-.1a.52.52,0,0,1-.1-.8,1.7,1.7,0,0,1,.1-.7c.4-1.2-1.2-2.6.2-3.7s3.1-1.1,4.7-1.2c4-.2,7.9.1,11.9-.2A49.48,49.48,0,0,1,52.5,9c-1.3,1.3-2.7-.5-4,0a3.22,3.22,0,0,1-2.5.7c-7.1-.2-14.3.1-21.4.5-1.7.1-3.1.5-3.9,2.2a7.19,7.19,0,0,1-1.2,2.1Z"/><path class="cls-73" d="M18.9,13.51c0,.3.1.6.1.8a4.67,4.67,0,0,0-.5,1c-.3.2-.7.3-1,.5-.7.3-1.1-.1-1.5-.5a3.24,3.24,0,0,0-3.6-1c-.6.2-1.5.2-.9-.9a4.05,4.05,0,0,0,.5-.9c.1-.1.3-.2.4-.3C14.9,11.51,17.1,11.51,18.9,13.51Z"/><path class="cls-37" d="M42.5,3.41c1.8-.6,3.7,1.3,5.5,0,.5.3,1,.7,1.5,1C47,5.51,44.8,3.91,42.5,3.41Z"/><path class="cls-37" d="M11,4.41c1.9-1.3,4.1-1.2,6.2-1.3,8.2-.7,16.5-1.2,24.7-.1.2,0,.4.3.6.4C32,3.11,21.5,3,11,4.41Z"/><path class="cls-74" d="M55,10.91a3.51,3.51,0,0,1,.5,2c-.3,1.3.3,2.5-.1,3.8a13.53,13.53,0,0,1-4.4,5.9,59.94,59.94,0,0,0-4.7,4.1A4.21,4.21,0,0,1,41.8,28a.76.76,0,0,1,.1-1c.4-.6,1.4-.4,1.5-1.4.5-3.1,2.8-4.7,5.4-6,.7-.4,1.5-.7,2.2-1.1,2.3-1.1,3.8-2.6,3.4-5.4C54.4,12.31,54.3,11.51,55,10.91Z"/><path class="cls-75" d="M42,26.91c0,.3.1.7.1,1a1,1,0,0,1,.5,1.1,3.11,3.11,0,0,1-1.2,1.6,1.42,1.42,0,0,1-.6-.2.76.76,0,0,1,.2-.9,4.17,4.17,0,0,1,.6-2.7A.6.6,0,0,1,42,26.91Z"/><path class="cls-76" d="M10.9,44.41v1c-4.1.4-7.8-.4-10.3-4,0-.6-.4-1.4.4-1.8.5-.2.9.3,1.2.7a4.67,4.67,0,0,0,5,1.5C9.7,41.21,10.7,42,10.9,44.41Z"/><path class="cls-45" d="M56,50.91v1c-2.1.3-1.3-1.3-1.2-2,.5-2,.6-4.1.9-6.1a6.15,6.15,0,0,1,.1-1.3c.2-1.4.3-2.8.5-4.2.1-.4.3-.5.6-.4a23.91,23.91,0,0,1,.1,8C57.2,47.71,56.3,49.21,56,50.91Z"/><path class="cls-77" d="M57,45.91c-.3-2.7.6-5.4-.5-8a34.08,34.08,0,0,1-.5-4.6c-.1-.8.1-1.9,1.5-1.4v11.7A2.82,2.82,0,0,1,57,45.91Z"/><path class="cls-78" d="M57.5,31.91c-1.5.3-.9,1.5-1,2.4-.1,1.2,0,2.4,0,3.6v.5c-.2.2-.3.2-.5,0v-3.5c-1.2-2.8.1-5.7,0-8.6,0-.8.6-1.4,1.5-.6a1.24,1.24,0,0,1-.1,1.7v4A.9.9,0,0,1,57.5,31.91Z"/><path class="cls-79" d="M61,17.41v3a1,1,0,0,0-.5,1c-1.5-.4-2.6-1.5-3.9-2.2a1.82,1.82,0,0,1-.6-1.4,1.74,1.74,0,0,1,.5-1.4C58,16.71,59.5,17.11,61,17.41Z"/><path class="cls-80" d="M57,18.91a7.33,7.33,0,0,1,3.5,2.5,3.68,3.68,0,0,1-.5,2.5.59.59,0,0,1-.7.1c-1.7-.6-2.4-2-2.7-3.7A1.49,1.49,0,0,1,57,18.91Z"/><path class="cls-81" d="M61.5,44.41a19.15,19.15,0,0,1-2-10c.2-.2.3-.2.5,0C60.5,37.71,61,41,61.5,44.41Z"/><path class="cls-82" d="M60,34.41h-.5a8.28,8.28,0,0,1-.5-3.5,4.17,4.17,0,0,1-.4-2.9c.5-1.3-.2-2.9.9-4.1H60Z"/><path class="cls-77" d="M56,43.41a20.87,20.87,0,0,1-.8,6.1c-.2.9-.8,2,.8,2.4-.5,1.1-.2,3.3-1.8,2.9-1.4-.3-.3-2.2-.1-3.3a18.06,18.06,0,0,0,.9-6.1,3.51,3.51,0,0,0,.5-2C55.6,43.21,55.8,43.21,56,43.41Z"/><path class="cls-83" d="M59,27.91v3c-1.7-.6-.4-2.6-1.5-3.5v-1.5c-.3-.5-.5-1-.1-1.5C59.3,24.91,59.3,26.31,59,27.91Z"/><path class="cls-84" d="M16,18.41c-2,2.5-3.5.2-5.2-.4a2.09,2.09,0,0,0-.4-.6v-.5c0-.7.1-1.3.1-2A4.05,4.05,0,0,0,11,14C11.4,16.91,13.9,17.51,16,18.41Z"/><path class="cls-15" d="M55,16.91c.2-1.3-.5-2.8.5-4,.2.3.3.7.5,1v1a29.46,29.46,0,0,0,.1,4.2,3.75,3.75,0,0,1-.1,1.1,29.25,29.25,0,0,1-3.4,8.9c-2.3,3.7-4,4.2-7.8,2a.82.82,0,0,0-.7-.1,1.49,1.49,0,0,1-.9.4,1,1,0,0,1-.5-.4,2.56,2.56,0,0,1,0-2.1c.4-1.2,1.3-.9,2.1-.6,1.5.6,2.7.1,3.9-1A21.87,21.87,0,0,0,55,16.91Z"/><path class="cls-85" d="M16,18.41c-4.2-.1-5-.8-5-4.4.1-.2.1-.4.2-.5h.3c0,.2.1.3.1.5,2.7-1.5,4.2.6,5.9,2A3.16,3.16,0,0,1,16,18.41Z"/><path class="cls-86" d="M55.5,19.41c.2-1.5-.5-3.1.5-4.5.2.5.3,1,.5,1.5v1.5c-.5.4,0,1.1-.4,1.6A.47.47,0,0,1,55.5,19.41Z"/><path class="cls-87" d="M46,8.91h2.5c1.2,1.5,2.9.9,4.5,1-.6.8-1.5.5-2.3.5-8.6-.1-17.1,1.5-25.7,1.1a4.29,4.29,0,0,0-4.4,2.9h-1c.2-.7.3-1.3.5-2,1.9-3.3,5.2-2.7,8.2-2.8C34.1,9.31,40.1,9.51,46,8.91Z"/><path class="cls-88" d="M32.5,48.91c-.5-3-1.8-5.8-1.5-9,.2-3,.9-4,4.1-4.5,1.2,1.8.4,3.8.6,5.7s-.2,4,.2,6c.2.6.9.8,1.1,1.4-.2,1.9-1.3,2-2.8,1.4C33.6,49.61,33.1,49.21,32.5,48.91Z"/><path class="cls-89" d="M37,48.51c-.6-.1-1.3-.1-1.7-.7a1.61,1.61,0,0,1,.7-.4c1-.2,2.1-.1,3.2-.2a1.86,1.86,0,0,0,2-1.4c.5-2.7.1-5.5.2-8.2a12.47,12.47,0,0,1,1.8-6.3c.1.1.3.1.4.2l.3.3a2.93,2.93,0,0,1,.4,1.6c0,.8.1,1.7.1,2.5,0,3,.1,5.9.1,8.9-.2,1.3.2,2.8-1,3.9a3,3,0,0,1-1.3.5c-1.5,0-3,.2-4.4-.6A3.22,3.22,0,0,0,37,48.51Z"/><path class="cls-90" d="M43,48.31c.7-1.1.3-2.3.5-3.4,2,.1,1.7,1.7,1.7,3s.4,3.2-1.4,3.8c-1.3.5-2.8,1.2-4.2,0a6.89,6.89,0,0,1-1.1-1.3c-.3-.5-.7-1-1-1.5v-.4H42c-.1,1.1-1.1.7-1.7,1.1C41.8,50,41.8,50,43,48.31Z"/><path class="cls-91" d="M41,29.41v1a.76.76,0,0,1,.2.4V31c-1.6,1.8-3.1,3.7-5.8,3.7-.2-.9.2-2-.3-2.9-.2-.2-.3-.4-.5-.6a1.64,1.64,0,0,1-1-1.5v-.4a4.21,4.21,0,0,0,4.2-.4A2.47,2.47,0,0,1,41,29.41Z"/><path class="cls-92" d="M33.5,29.81c.4.4,1,.8,1,1.5-1,1.9-3.5,2.1-4.5,4.1-.3.6-.3-.9-.9-.9C28.9,31.21,30.1,29.91,33.5,29.81Z"/><path class="cls-93" d="M35.1,31.91c.8.9.3,2,.5,3,1,1.5.5,3.1.6,4.7a3.29,3.29,0,0,1-.4,1.7c-.2.3-.4.3-.7,0V34A7.38,7.38,0,0,1,35.1,31.91Z"/><path class="cls-94" d="M38.5,50.41c1.1.6,2.1,1.8,3.5,1.4,1.2-.3,2.6-.5,2.9-2,.2-1.8.5-3.7-1.4-4.9v-9.5c1.4-.1,1.4,1,1.7,1.9.5,2.1.4,4.4,1,6.5a2.63,2.63,0,0,1-.6,2.1,24.32,24.32,0,0,0,0,2.7c.4,2.6-.9,3.7-3.3,4.2C40.1,53.11,38.8,52.61,38.5,50.41Z"/><path class="cls-1" d="M45.5,45.91v-2c1.4.1,1.1,1.4,1.5,2.2v2.8C45.4,48.41,46.5,46.61,45.5,45.91Z"/><path class="cls-41" d="M55.5,33.91c-.5,2.2-1,4.3-1.5,6.5a15.16,15.16,0,0,1-2,4.7c-1.4,2-3.1,2.2-4.6.2a7.09,7.09,0,0,1-1.5-5.8c1.1-.6,1.4.5,1.9,1,1.5,1.8,2.6,1.8,3.8-.2a23.88,23.88,0,0,0,2.9-10.4,15,15,0,0,0,.4-3.7c.1-.7-.2-1.9,1.3-1.7A32.9,32.9,0,0,1,55.5,33.91Z"/><path class="cls-95" d="M46,39.41c.5,2,.6,4.2,2.1,5.9,1.2,1.4,2.3,1.1,3.2-.2a43.09,43.09,0,0,0,2.6-4.7c.1,2.5-1.1,4.6-2.2,6.7-1.2,2.3-2.7,2-4.8-.7-.8-2.1-1.8-4.2-1.7-6.5a.55.55,0,0,1,.4-.6A.6.6,0,0,1,46,39.41Z"/><path class="cls-96" d="M55.5,33.91c0-3.2.8-6.3.5-9.5a1.13,1.13,0,0,1-.3-1.1c.3-.7,0-2,1.5-1.9-.1,1,1.3,1.8.4,3v1.5c-.5-.1-1.1-.3-1,.5.3,2.9-.6,5.7-.5,8.5h-.5A3.4,3.4,0,0,1,55.5,33.91Z"/><path class="cls-77" d="M56,38.41h.5c-.2,1.3.5,2.8-.5,4a3.9,3.9,0,0,1,0-3Z"/><path class="cls-78" d="M56,39.41v4h-.5C55.7,42.11,55,40.61,56,39.41Z"/><path class="cls-97" d="M38,23.31a14.27,14.27,0,0,0-6.5,0C34,21.41,35.8,21.41,38,23.31Z"/><path class="cls-58" d="M40,27.91a7.47,7.47,0,0,1-2.5-2.5A3,3,0,0,1,40,27.91Z"/><path class="cls-98" d="M17,31.91v6c-.7,1,.2,2.2-.6,3.2a4.61,4.61,0,0,1-4.9-.7v-6c.1-.1.1-.2.2-.1C13.9,34.51,15.9,34.21,17,31.91Z"/><path class="cls-99" d="M16.5,40.91c.2-1-.4-2.1.5-3v5.9c0,1.4.2,3-1.9,3-2.8,0-3.5-.6-3.6-3v-1a1.41,1.41,0,0,1,1.4-.1C14.9,43.61,15.9,42.61,16.5,40.91Z"/><path class="cls-100" d="M16.5,40.91c0,3.5-.3,3.6-5,2v-2.5C13.2,40.31,14.8,41.21,16.5,40.91Z"/><path class="cls-101" d="M14.5,20.91l3-.6C16.8,22.31,16.7,22.31,14.5,20.91Z"/><path class="cls-61" d="M17,31.91c-1.2,3.2-1.2,3.2-5.5,2.5v-6c1.9-.6,3.6.5,5.5.5Z"/><path class="cls-102" d="M17,28.91c-2,1.3-3.7-.2-5.5-.5,0-1.2,0-2.4.1-3.5h5.9C17.3,26.21,17.2,27.61,17,28.91Z"/><path class="cls-34" d="M46,8.91c-2.8.9-5.7.7-8.5.9-3.8.3-7.6.1-11.5.1a8.39,8.39,0,0,0-6,2.5c.4-2.4,2.2-2.8,4.2-3C31.5,8.91,38.7,8.81,46,8.91Z"/><path class="cls-103" d="M55,16.91c-.3,5.4-3.5,9-7.5,12.1a2.44,2.44,0,0,1-2.6,0c-.6-.2-1.2-1.1-1.9-.1a.37.37,0,0,0-.3.1l-.2-.2c-.1-.3-.3-.7-.4-1C47.7,25.81,51.5,21.61,55,16.91Z"/><path class="cls-93" d="M41,30.91v-.5h.5a1.79,1.79,0,0,1,.5.7,3.33,3.33,0,0,1-.4,2.9.63.63,0,0,1-.8-.2A2.57,2.57,0,0,1,41,30.91Z"/><path class="cls-104" d="M41.5,30.91v-.5a1.64,1.64,0,0,1,1-1.5h0C42.8,29.81,43,30.81,41.5,30.91Z"/><path class="cls-41" d="M57,21.41c-.8.4-.2,1.6-1,2-.9-1.3-.4-2.7,0-4,0-.5-.1-1.1.5-1.5a1,1,0,0,0,.5,1v1.5A.67.67,0,0,1,57,21.41Z"/><path class="cls-105" d="M57,21.41v-1a8.06,8.06,0,0,0,2.5,3.5c-.2,1.3.5,2.8-.5,4,0-1.4-.9-2.4-1.5-3.5C57.3,23.41,57.1,22.41,57,21.41Z"/><path class="cls-86" d="M43.5,30.41c.1-1.3.7-.5,1.1-.2,3.7,2.9,5.1,2.4,7.6-1.5,1.7-2.6,2.1-5.6,3.3-8.3.8,2.6-.5,4.9-.6,7.4a20,20,0,0,1-.5,2.6,18.75,18.75,0,0,1-2.4,3.8c-1.8,2.4-4,2.4-6.1.2C44.9,33.21,44.4,31.71,43.5,30.41Z"/><path class="cls-106" d="M43.5,30.41A5.43,5.43,0,0,1,45.6,33a3.91,3.91,0,0,0,3.4,2.6c1.6.1,2.4-1.2,3.1-2.5.5-.9.9-1.8,1.9-2.2l.3.3a8.89,8.89,0,0,1-1.8,6.5c-1.8,2.8-4.3,2.7-6.2-.1a13.07,13.07,0,0,1-1.2-2.7c-.6-1.1-.8-2.4-1.7-3.5h0A3.4,3.4,0,0,0,43.5,30.41Z"/><path class="cls-107" d="M41.5,30.91c.9-.4,1-1.2,1-2.1.1.1.3.1.4.2,0,.8.1,1.5.1,2.3-1.2,4.6-1.1,9.3-1.1,14,0,.4-.3.7-.5,1.1a2.41,2.41,0,0,1-.7-1.8v-8.9a2.41,2.41,0,0,1,.7-1.8C41.5,32.91,41.5,31.91,41.5,30.91Z"/><path class="cls-106" d="M54,30.91c-.3-2.6,1-4.8,1.3-7.3.1-1.1.1-2.1.2-3.2v-1H56v5c-1.1,1.9,0,4.1-1,6-.3.3-.4.8-1,.5Z"/><path class="cls-108" d="M35.1,41.21a1.38,1.38,0,0,0,.4.3c.8.6.7,1.5.8,2.3a28.1,28.1,0,0,1-.1,2.9,1.61,1.61,0,0,1-.5,1.1c-.1-.1-.2-.1-.4-.1C34.6,45.61,35,43.41,35.1,41.21Z"/><path class="cls-109" d="M35.6,47.91c-.1-.3-.1-.7-.2-1,.5-.6.7-1.6,1.6-1.8,3-.7,3.5-2.9,3.2-5.5v-4.1a2.13,2.13,0,0,1,.7-1.5h.5v12.5c.1,1.2-.6,1.6-1.7,1.5A27.73,27.73,0,0,0,35.6,47.91Z"/><path class="cls-38" d="M45.5,39.41c-.1,2.5,1.3,4.6,1.5,7-1-.6-.7-1.8-1.5-2.5-.3-2.2-.7-4.3-1-6.5-.1-.8-.1-1.6-1-2v-2.5c1.9.5,1.7,2.2,2.3,3.5a1.85,1.85,0,0,1,.2.7A2.68,2.68,0,0,1,45.5,39.41Z"/><path class="cls-110" d="M43,48.31c0,1,.3,2.1-1,2.4s-2.3-.4-3.2-1.5c1-.8,2.3.1,3.2-.8A3.75,3.75,0,0,0,43,48.31Z"/><path class="cls-41" d="M45.5,36.41c-.7-1.1-.8-2.6-2-3.5v-1.5c1.5.5,1.5,1.9,2.1,3A2.77,2.77,0,0,1,45.5,36.41Z"/><path class="cls-63" d="M41,33.91v1.5c-.6,3-2.9,3.8-5.4,4.4v-5c1.8-1.3,3.6-2.6,5.4-4Z"/><path class="cls-111" d="M35.6,39.81c1.8-1.5,4.4-2,5.4-4.4v4.5c-.7,2.6-2.3,3.7-5.6,4v-2.4C35.5,41,35.5,40.41,35.6,39.81Z"/><path class="cls-112" d="M45.5,36.41v-2c.8,1.1.7,2.7,1.9,3.7,1.7,1.5,3,1.5,4.4-.3a10.12,10.12,0,0,0,2.3-6.9c.3-.2.7-.3,1-.5a23.81,23.81,0,0,1-2.7,10.2,3.4,3.4,0,0,1-2.8,2.2c-1.4,0-1.8-1.2-2.4-2.2-.3-.5-.5-1-1.1-1.2h0c-.6-.7.1-1.8-.5-2.5A.9.9,0,0,1,45.5,36.41Z"/><path class="cls-41" d="M45.5,36.91c.8.7.4,1.7.5,2.5h-.4A21.75,21.75,0,0,1,45.5,36.91Z"/><path class="cls-93" d="M35.4,43.91a29.62,29.62,0,0,1,3.1-1.5,4.7,4.7,0,0,0,2.5-2.5c.1,2.8-.1,5.3-3.8,5.7-.6.1-1.2.8-1.8,1.3Z"/></g></g></svg>