<svg xmlns="http://www.w3.org/2000/svg" viewBox="0 0 58.19 58.39"><defs><style>.cls-1{fill:#00edf4;}.cls-2{fill:#00e7ef;}.cls-3{fill:#00f0f7;}.cls-4{fill:#00eaf1;}.cls-5{fill:#02f8fe;}.cls-6{fill:#00f4fc;}.cls-7{fill:#00f2fa;}.cls-8{fill:#00aab2;}.cls-9{fill:#00ebf3;}.cls-10{fill:#01b5bc;}.cls-11{fill:#00d1d8;}.cls-12{fill:#00c2c9;}.cls-13{fill:#01e4eb;}.cls-14{fill:#00dfe6;}.cls-15{fill:#03d9e0;}.cls-16{fill:#00dae1;}.cls-17{fill:#02d7de;}.cls-18{fill:#00e9f0;}.cls-19{fill:#00e5ec;}.cls-20{fill:#028088;}.cls-21{fill:#02e2e9;}.cls-22{fill:#0d969d;}.cls-23{fill:#00848c;}.cls-24{fill:#069fa7;}.cls-25{fill:#059ea5;}.cls-26{fill:#00aeb6;}.cls-27{fill:#02ccd4;}.cls-28{fill:#01c7ce;}.cls-29{fill:#01b1b9;}.cls-30{fill:#03c5cc;}.cls-31{fill:#04d6dd;}.cls-32{fill:#01bbc3;}.cls-33{fill:#01bcc3;}.cls-34{fill:#0caeb6;}.cls-35{fill:#018b91;}.cls-36{fill:#02d4db;}.cls-37{fill:#01c1c9;}.cls-38{fill:#fdfefe;}.cls-39{fill:#eaf2f2;}.cls-40{fill:#00e4ec;}.cls-41{fill:#f9fdfd;}.cls-42{fill:#00b2b9;}.cls-43{fill:#00b1b8;}.cls-44{fill:#00abb3;}.cls-45{fill:#d2d3d3;}.cls-46{fill:#00cfd6;}.cls-47{fill:#00c7cf;}.cls-48{fill:#00bfc7;}.cls-49{fill:#03cbd2;}.cls-50{fill:#f8f8f8;}.cls-51{fill:#01c0c8;}.cls-52{fill:#01c7cf;}.cls-53{fill:#f7f8f8;}.cls-54{fill:#00d2da;}.cls-55{fill:#f5f5f5;}.cls-56{fill:#00cfd7;}.cls-57{fill:#00ccd4;}.cls-58{fill:#00bac2;}.cls-59{fill:#00bdc5;}.cls-60{fill:#02cad2;}.cls-61{fill:#fbfbfb;}.cls-62{fill:#f6f6f6;}.cls-63{fill:#00b6be;}.cls-64{fill:#00b4bc;}.cls-65{fill:#03a3ab;}.cls-66{fill:#009fa7;}.cls-67{fill:#a9afaf;}.cls-68{fill:#d3d3d3;}.cls-69{fill:#dfdfdf;}.cls-70{fill:#f0f1f1;}.cls-71{fill:#03c2c9;}.cls-72{fill:#d9dddd;}.cls-73{fill:#ecf3f3;}.cls-74{fill:#00c4cb;}.cls-75{fill:#ddd;}.cls-76{fill:#00c7ce;}.cls-77{fill:#07b1b9;}.cls-78{fill:#cbcece;}.cls-79{fill:#eaeaea;}.cls-80{fill:#f2f2f2;}.cls-81{fill:#f1f4f4;}.cls-82{fill:#01a8b0;}.cls-83{fill:#bdbebe;}.cls-84{fill:#03939a;}.cls-85{fill:#0298a0;}.cls-86{fill:#01959d;}.cls-87{fill:#ececec;}.cls-88{fill:#e6ebeb;}.cls-89{fill:#e6e6e6;}.cls-90{fill:#e3e3e3;}.cls-91{fill:#f0f0f0;}.cls-92{fill:#f2f1f1;}</style></defs><g id="Capa_2" data-name="Capa 2"><g id="Capa_1-2" data-name="Capa 1"><path class="cls-1" d="M52.14,5.51a1.65,1.65,0,0,1,1,1c.5,1.9-1.1,1.5-1.9,1.6a31.46,31.46,0,0,0-8.1.9c-.8.2-1.9.2-1.9,1.3,0,.9,1,1.2,1.8,1.5,1.8.8,3.8.3,5.5,1.4a1.61,1.61,0,0,1,.4.7c-.2.9-1,1.2-1.7,1.6a2.35,2.35,0,0,1-.8.2,8,8,0,0,1-5.4-1.1c-2-1.2-4.1-.9-6.2-.4-.9.2-1.8,1-2.7.2,0-.3-.1.1-.1-.2-.1-4.1,0-4.3-4.3-4.6-6.5-.4-13-1.6-19.6-1.3-1.1,0-2.8.5-2.7-1.6a10,10,0,0,1,1-1.1c9.2-1.2,18.4.5,27.6.4,3.6-.1,7.1.2,10.7-.5C47,4.91,49.54,5.91,52.14,5.51Z"/><path class="cls-2" d="M3.64,8.91a.87.87,0,0,1,.5-.9c5.9.1,11.6,1.6,17.4,1.8a31.28,31.28,0,0,1,4.4.4c3.4.7,4.5,2,5,5.5a1.33,1.33,0,0,1-.6,1c-1.3.6-2.3-.1-3.1-.9-2.1-2-4.7-1.8-7.3-1.6-1.4.1-1.4.9-.7,1.9a15.12,15.12,0,0,0,4.7,3.6c1.1.6,2.6,1.1,2.1,2.9-.9.7-1.7.3-2.6,0a26.65,26.65,0,0,1-11.8-7.4c-.5-3.2-2.8-3.9-5.6-4.1C4.84,11,3.14,11.21,3.64,8.91Z"/><path class="cls-3" d="M52.14,5.51c-.1,1.1-.9,1.1-1.7.9-5.1-1.2-10.1.6-15.1.2-3.8-.3-7.6.2-11.4-.4a41,41,0,0,0-5-.2c-3.9,0-7.7-1-11.6.3-.7.2-1.1-.3-1.3-.8a1.93,1.93,0,0,1,1.4-1.1,364.56,364.56,0,0,1,43.1,0A2.16,2.16,0,0,1,52.14,5.51Z"/><path class="cls-4" d="M30.64,16c-1.3-5.4-2.5-5.3-6.9-5.4-6.1-.1-12-2.2-18.2-1.7a1.1,1.1,0,0,1-1.4-1.1,2.07,2.07,0,0,1,1-1.4c.3,1.5,1.6,1,2.4.9,7.3-.2,14.4.8,21.6,1.5,3.9.4,4.1.8,3,4.5-.1.3,0,.7-.1,1C32.24,15.61,31.74,16.11,30.64,16Z"/><path class="cls-5" d="M12.64,2c2.9-1.3,6.1-1.5,9.2-1.7,7.6-.5,15.2-.6,22.7,1.2a4.59,4.59,0,0,1,2.5,1c-.7,1.1-1.6.9-2.7.8-7.8-.7-15.6-.5-23.4-.5a29.66,29.66,0,0,0-4.2.3C15.24,3.31,13.74,3.51,12.64,2Z"/><path class="cls-6" d="M12.64,2c1.7.5,3.4.2,5.1.2,7-.2,14-.2,20.9,0,2.8.1,5.5.6,8.3.3.9.4,1.8.7,2.6,1.1-.1,1.2-1,1.2-1.8,1-6.6-1.4-13.2-.5-19.8-.6-4.9-.1-9.8-.3-14.7-.1-1.2.1-2.2.8-3.4.4a.81.81,0,0,1-.7-.9C10.24,2.91,11.24,2,12.64,2Z"/><path class="cls-7" d="M9.14,3.51c1.8,1.2,3.6.1,5.2-.2,2.6-.5,5.1-.1,7.5-.1,6,.1,12,.3,18-.1a16.72,16.72,0,0,1,7.3.9c.9.4,1.7.6,2.3-.5.4.2.7.5,1.1.7-.8,1.1-2,.7-3,.6-5.8-.6-11.5-.4-17.3-.5H16.14a24.57,24.57,0,0,0-5.4.4c-1,.2-2.3.6-3.2-.6C8,3.91,8.44,3.41,9.14,3.51Z"/><path class="cls-8" d="M8.14,54.41A2.32,2.32,0,0,1,6.64,53c-.3-.6.2-.7.6-.9a1.27,1.27,0,0,1,.6.1,18.94,18.94,0,0,0,2.1.9c.6.2,1.2.3,1.8.5,5.5,1.4,11.2,1,16.8,1.5a41.56,41.56,0,0,0,16.4-1.9,16.46,16.46,0,0,0,7-4.3c.6-.6,1.2-1.4,2.3-1.2.4.2.7.4.4.9.1.1,0,.2-.1.3-2.3,2.6-4.7,5-8.1,6.2a34.6,34.6,0,0,1-11.9,2c-5.5-.1-11.1.2-16.6-.2-.3,0-.5-.1-.8-.1-1.5-.3-2.9-.7-4.4-.9a6.75,6.75,0,0,1-1.4-.2C10.34,55.31,9.44,54.31,8.14,54.41Z"/><path class="cls-9" d="M48.64,13.51c-2.3-.6-4.8-.3-7-1.5-.8-.5-2-1-1.8-2.2.2-1,1.3-1.1,2.2-1.3a29,29,0,0,1,8.8-1c.8,0,1.9.4,2.2-.9.2.2.4.5.6.7.4,1.1-.1,1.5-1.1,1.7-.6.1-1.3.1-2,.2-2.8.5-3.1,1-2,3.5A.8.8,0,0,1,48.64,13.51Z"/><path class="cls-10" d="M3.74,50a9,9,0,0,1-1.6-3.9c-.3-.5,0-.6.5-.6,1.4,1.6,2.6,3.3,4.7,4.2s3.5.3,3.7-2.1c.1-1-.2-2.2.5-3.1a.62.62,0,0,1,.7-.1,8.42,8.42,0,0,1,1.1,2.1c.4,1.1,1.2,2,1.7,3.1,1.1,2.3.2,3.9-2.4,4.1a12.41,12.41,0,0,1-2.7-.3c-.7-.4-1.5-.4-2.2-.8h0C6.14,52,5.14,50.71,3.74,50Z"/><path class="cls-11" d="M.64,19.81c0-.9.1-1.9.1-2.8,1.8.8.8,2.4,1.1,3.6.1,1.1-.5,2.4,1,3a3.84,3.84,0,0,0,3.7-.7,13.89,13.89,0,0,0,2.1-2.1c.4-.5.9-1.3,1.8-.7.4,3.3-2.5,7.6-5.6,8.3-2.4.5-3.6-.3-4.3-3.1a14.72,14.72,0,0,1,0-2.1A9.72,9.72,0,0,1,.64,19.81Z"/><path class="cls-12" d="M.94,42a7.89,7.89,0,0,1-.3-3.4,2.57,2.57,0,0,1-.1-1.5c1.2-.5,1.2.6,1.5,1.3a4.17,4.17,0,0,0,3.4,3.1,15.83,15.83,0,0,0,3.8.3,4.06,4.06,0,0,1,1.9.4,1.61,1.61,0,0,1,.4.7c-1,3.7-4.8,4.9-8,2.3a4.41,4.41,0,0,1-1.8-2.4C1.44,42.51,1.34,42.11.94,42Z"/><path class="cls-13" d="M3.64,8.91c.1,1.2.9,1.6,2,1.6a26.42,26.42,0,0,1,2.9.2c2.3.4,3.7,1.6,3.6,4.1a1.89,1.89,0,0,1-1,1.3,1.7,1.7,0,0,1-.7.1c-2.3-.9-4.3-2.5-6.8-3-.8-.2-1.1-1-1.4-1.7A5.1,5.1,0,0,1,3.64,8.91Z"/><path class="cls-14" d="M2.24,11.51c2.5,2.1,6,2.1,8.4,4.5a.78.78,0,0,1-.1,1.1c-2.6,1.6-5.1.5-7.6-.4-1.7-.7-1.1-2.3-1.3-3.7A4.71,4.71,0,0,0,2.24,11.51Z"/><path class="cls-15" d="M47.14,14.91l1.5-.9a.62.62,0,0,1,.7.1,6,6,0,0,0,2.5,1.6c2.4.6,3.2.2,3.8-2.2a1.33,1.33,0,0,1,.6-1,1.84,1.84,0,0,1,.5,1.6c.4,1.1.1,2.3.4,3.5a1.45,1.45,0,0,1-.2.7c-1.3,1.9-3,.8-4.6.5a5.09,5.09,0,0,1-1.7-.7A1.27,1.27,0,0,0,50,18l-1.2.3a5.44,5.44,0,0,1-1.8,0C44.94,16.81,46.54,15.91,47.14,14.91Z"/><path class="cls-16" d="M1.74,13a5.83,5.83,0,0,0,7.1,4.1,9.7,9.7,0,0,1,1.7-.1c.1.1.1.2.2.3a1.45,1.45,0,0,1-.2.7,2.36,2.36,0,0,1-.9.8,7.7,7.7,0,0,1-5.1,1.3c-2.4-.2-3.2-1-3.2-3.4a7,7,0,0,1,.2-2.9A1.88,1.88,0,0,0,1.74,13Z"/><path class="cls-17" d="M1.64,13.91v.5c.1,5.4,2.2,6.7,7.2,4.3a8.26,8.26,0,0,0,1.3-.7,5.07,5.07,0,0,1-3.9,4.3c-1.9.5-3.8.9-5-1.3-.2-1.3.4-2.7-.4-4C1,16,1.34,14.91,1.64,13.91Z"/><path class="cls-18" d="M49.14,14h-.5v-.5c-.4-1.2-2.5-1.7-1.7-3.2s2.7-1.6,4.3-1.8c1-.1,2.3.4,2.5-1.2a2.47,2.47,0,0,1,1,1.6c.5,1.4-.4,2.1-1.6,2.2-1.9.1-2.9,1.2-3.7,2.8A.37.37,0,0,0,49.14,14Z"/><path class="cls-14" d="M56.24,12.31a1.7,1.7,0,0,1-.1.7c-.3,1.2.7,3-1.5,3.4a4.74,4.74,0,0,1-5.5-2.5h0a.73.73,0,0,1,.6-.2c2.6.6,4.5-.6,6.3-2.2A1.88,1.88,0,0,0,56.24,12.31Z"/><path class="cls-19" d="M49.64,14h-.5c.2-2.2,1-3.7,3.5-3.5,1.2.1,1.9-.4,2-1.6a1,1,0,0,1,.5,1,2.11,2.11,0,0,1-1.4,3C52.44,13.31,51.24,14.41,49.64,14Z"/><path class="cls-20" d="M23.64,58c-.6,0-1.3-.1-1.9-.1a.67.67,0,0,1,.3-.8c6.3-.5,12.6.1,18.9-.5a.63.63,0,0,1,.3.8,22.78,22.78,0,0,1-6.9.6A63.71,63.71,0,0,1,23.64,58Z"/><path class="cls-21" d="M49.64,14c1.5-.7,2.9-1.3,4.4-2,1-.4,1.1-1.3,1.2-2.2a2.72,2.72,0,0,1,.8,1.7C54.64,14.21,52.54,15.11,49.64,14Z"/><path class="cls-22" d="M21.64,57.51V58a20.56,20.56,0,0,1-8.5-1.4c-.1-.6.3-.9.7-.7,1.1.6,2.3.2,3.4.7h0c1.1.5,2.2.1,3.3.3C20.94,56.81,21.74,56.51,21.64,57.51Z"/><path class="cls-23" d="M41.14,57.41V57c-.1-1.1.8-.9,1.3-1a18,18,0,0,0,5.1-1.7c1.1-.2,1.8-1.6,3.1-.9A15.93,15.93,0,0,1,41.14,57.41Z"/><path class="cls-24" d="M50.74,53.51c-1,.3-2.1.7-3.1,1-.2.2-.3.2-.5,0,2.9-1.2,4.7-4.1,7.5-5.5.1.4.2.9-.4,1-1,1.2-2.2,2.2-3.1,3.4l-.2.1Z"/><path class="cls-24" d="M54.64,48.61a4.35,4.35,0,0,1-.6-.7c.1-2.6,1.7-4.6,2.4-7a.85.85,0,0,1,.7,0,1.66,1.66,0,0,1,0,1.2C56.44,44.31,56.84,47,54.64,48.61Z"/><path class="cls-25" d="M23.64,58h10.7A38.35,38.35,0,0,1,23.64,58Z"/><path class="cls-26" d="M3.74,50c2-.2,2.7,1.6,3.9,2.5a1,1,0,0,0-1,.6C5.54,52.11,4.34,51.31,3.74,50Z"/><path class="cls-27" d="M57.54,18a17.26,17.26,0,0,1,.5,4.5c-.4.5.2,1.3-.6,1.6a.92.92,0,0,1-.6-.4,5.87,5.87,0,0,1-.4-2.3,6.91,6.91,0,0,1,.4-3.2C57,17.91,57.24,17.81,57.54,18Z"/><path class="cls-28" d="M.64,23.51v2c.4.8.3,1.7.6,2.4,0,1.3.3,2.6-.4,3.8a.91.91,0,0,1-.7.3,48.27,48.27,0,0,1,.1-8.5A.21.21,0,0,1,.64,23.51Z"/><path class="cls-29" d="M57.14,41h-.5a1.12,1.12,0,0,1-.8-.7,2.08,2.08,0,0,1,.1-1.1c.7-1.2.4-2.7,1-4,.3-.3.7-.5.9.1-.1,1.3.2,2.6-.2,3.8a.19.19,0,0,1,0,.3C57.14,39.81,57.64,40.61,57.14,41Z"/><path class="cls-30" d="M.14,32h.5l.3.3a6.47,6.47,0,0,1,.4,2c0,.9.1,2-.6,2.7,0,.5-.1,1.1-.1,1.6C-.06,36.51.14,34.21.14,32Z"/><path class="cls-20" d="M51.14,53.41a6.11,6.11,0,0,1,3.1-3.4C53.84,51.71,52.34,52.41,51.14,53.41Z"/><path class="cls-31" d="M57.54,18h-.4c-.2.2-.3.2-.5,0v-4.1A11.62,11.62,0,0,1,57.54,18Z"/><path class="cls-32" d="M58,25.51A25.28,25.28,0,0,1,58,31c-.1.1-.2.1-.4.2a1.21,1.21,0,0,1-.5-.5,12.41,12.41,0,0,1-.3-2.7,4.49,4.49,0,0,1,.4-2.3C57.64,25.41,57.84,25.31,58,25.51Z"/><path class="cls-25" d="M17.14,56.51c-1.3.4-2.7-.7-4,0h-.2l-.2-.1a.56.56,0,0,1,0-.9A8.61,8.61,0,0,1,17.14,56.51Z"/><path class="cls-33" d="M.94,42c.2.1.5.3.7.4.2,1,1,1.7,1.1,2.7,0,.1-.1.2-.1.3L2,46A13.16,13.16,0,0,1,.94,42Z"/><path class="cls-34" d="M57.64,39.11c0-1.4,0-2.8-.1-4.1-.1-.1-.2-.2-.1-.3s0-.2.1-.2a.45.45,0,0,1,.5,0A10.32,10.32,0,0,1,57.64,39.11Z"/><path class="cls-35" d="M8.14,54.41c1.4-.7,2.1.5,3,1a.59.59,0,0,1-.7.1A4.13,4.13,0,0,1,8.14,54.41Z"/><path class="cls-29" d="M58,34.51h-.5a2.61,2.61,0,0,1,0-3.5H58C58.14,32.11,58,33.31,58,34.51Z"/><path class="cls-36" d="M.64,23.51H.24a6.76,6.76,0,0,1,.4-3.7Z"/><path class="cls-37" d="M58,25.51h-.5a1.09,1.09,0,0,1,0-1.5c0-.5-.1-1.1.4-1.5C58,23.51,58,24.51,58,25.51Z"/><path class="cls-22" d="M10.54,55.51c.2,0,.4-.1.7-.1h1.5v.9A2.54,2.54,0,0,1,10.54,55.51Z"/><path class="cls-34" d="M57.14,41c0-.5-.1-1.1.5-1.5a5.11,5.11,0,0,1-.4,2.7A5.28,5.28,0,0,1,57.14,41Z"/><path class="cls-38" d="M30.64,16l1.5-1.5c3.4-2,6.8-2.5,10.1,0,1.4,1,2.9.2,4.3.5.2.8-.6,1-.9,1.5a2.07,2.07,0,0,1-1,.6,5.19,5.19,0,0,1-2.4.5,36.69,36.69,0,0,0-9.3.9c-1,.3-2.7,1.1-3.3-.9,0-.5.1-.9.6-1.1A1,1,0,0,0,30.64,16Z"/><path class="cls-39" d="M45.64,16a9.43,9.43,0,0,0,1-1c.2,0,.3-.1.5-.1a1.83,1.83,0,0,1-.6,1.7c-.7.8,0,.9.6,1-.1.8-.8.8-1.3.5C44.94,17.61,45.24,16.81,45.64,16Z"/><path class="cls-40" d="M30.34,16.61c-.1.3-.1.6-.2.9-.5.5,0,1.2-.2,1.7-.3,1.2-.3,2.5-1.1,3.5a1.6,1.6,0,0,1-2.7-.3c-.3-1.6-1.7-1.8-2.8-2.4a13.53,13.53,0,0,1-4.9-4c-1.1-1.5-.4-2.4,1.2-2.4,3.1-.1,6.4-.7,8.7,2.3C28.74,16.51,29.54,16.51,30.34,16.61Z"/><path class="cls-41" d="M26.14,22.41a2.76,2.76,0,0,0,2.5.1.48.48,0,0,1,.7.1,1.07,1.07,0,0,1-.1,1.1c-2,2.3-4.1.8-6.2.3-3-1.2-6.2-2.3-8.7-4.5a12.56,12.56,0,0,1-3.3-3.6,1,1,0,0,1,1.1-1.1C16.14,18.61,20.64,21.51,26.14,22.41Z"/><path class="cls-26" d="M45.64,53.51c-1.6,1.5-3.8,1.6-5.8,1.8a90.9,90.9,0,0,1-28.5-1.1c-.1,0-.1-.1-.2-.2a10.35,10.35,0,0,1,5.5-.4c1.1.1,2.3.5,3.3-.4-.3-1.7-3-1.3-2.7-3.4a2.67,2.67,0,0,1,2.6,0c5.3,1.6,10.1.2,14.6-2.6.8-.5,1.6-1.3,2.7-.8.3,1.3-.7,1.7-1.4,2.3-2.4,2.1-5.5,3-8.5,4.8a27.45,27.45,0,0,0,10.6.6,50.3,50.3,0,0,0,5.6-.9C44.24,53.11,45,52.81,45.64,53.51Z"/><path class="cls-42" d="M45.64,53.51c-4.4.8-8.7,1.8-13.2,1.5-1.9-.1-3.8-.3-5.7-.5-.4,0-.9-.1-1-.6-.1-.7.4-.7.9-1,3.1-1.5,6.4-2.8,9.1-5a18.48,18.48,0,0,0,1.4-1.4c0-1.4,1.4-1.7,2-2.5a12.45,12.45,0,0,0,1.6-2.2,2.48,2.48,0,0,1,1.6-1.4c1.2.7.7,1.6.2,2.3-1.7,2.3-3.3,4.6-5.7,6.3-1.4.9-3.7,1.9-3.3,3.5s2.9.9,4.4.8a18,18,0,0,0,7.9-1.6,8,8,0,0,1,2.5-1.1c.7-.2,1.5-.3,1.9-1,.7-1,1.8-1.8,2.5-3a1,1,0,0,1,.4-.5,5.67,5.67,0,0,0,1.2-1.8l.3-.6a3.72,3.72,0,0,0,.7-2c.1-.6.3-1.1,1-1.2l.5.5c0,2.6-1.4,4.8-2.5,7-2,1.6-3.6,3.6-6,4.7A10.22,10.22,0,0,1,45.64,53.51Z"/><path class="cls-43" d="M17.14,50c.9.6,1.9,1.3,2.9,1.9.6.4,1.4.6,1.3,1.3-.1.9-1.2.8-1.8,1-1.9.7-3.7-.6-5.6-.3a24.32,24.32,0,0,1-2.7,0c-.5,0-1.1.1-1.5-.5-.1-.1-.2-.2-.1-.3a.35.35,0,0,1,.1-.2c1.8-.3,4.1,1,5.1-1.1.8-1.7-1.2-2.9-1.9-4.4l-.3-.9C14.84,46.81,15.84,48.51,17.14,50Z"/><path class="cls-25" d="M47.14,54.51h.5c-1.8,1.7-4.4,1.4-6.5,2.5-6.5.7-13,.5-19.5.5-1.3-1.2-3.2.2-4.5-1,4.9,0,9.8-.1,14.6,0C37,56.71,42,55.71,47.14,54.51Z"/><path class="cls-26" d="M9.64,53v.5a2.61,2.61,0,0,1-2-1C8.34,52.51,9.14,52.21,9.64,53Z"/><path class="cls-44" d="M17.14,50c-1.9-.6-2.9-2.5-4.5-3.5a3.51,3.51,0,0,1-.5-2,.84.84,0,0,1,.7-.2,3.6,3.6,0,0,1,1.8,1.2c3.4,3.7,10.7,4.8,16.2,2.4a28.69,28.69,0,0,0,8.3-5.3c.6-.3,1.2-1,2-.6-.6,2.1-2.6,3.1-4,4.5-1.8.4-3.1,1.7-4.7,2.6a17,17,0,0,1-13.6,1.1A3.21,3.21,0,0,0,17.14,50Z"/><path class="cls-33" d="M11.74,44.31c0,1.3,0,2.7-.1,4a2.62,2.62,0,0,1-4.1,2.2c-2.2-1.1-4.4-2.2-4.9-5.1h0c.6-.3.9.1,1.3.4,3.8,2.6,4.8,2.4,7-1.8C11.34,43.71,11.54,43.91,11.74,44.31Z"/><path class="cls-45" d="M11.74,44.31l-.5-.5c-.2-.3-.2-.5.1-.6a3.39,3.39,0,0,1,3.1,0c.3.2.3.4.3.7-.5.8-1.4.6-2.1.6a.9.9,0,0,0-.5.1A.54.54,0,0,0,11.74,44.31Z"/><path class="cls-46" d="M.64,28v-2.5c1.8,3.2,4.4,3.4,6.9.4a10,10,0,0,0,2.6-5.9.59.59,0,0,1,.7.1,3.44,3.44,0,0,1,.4,2c-.4,3.6-1.3,6.9-5.1,8.6C2.74,32.11,1.34,31.51.64,28Z"/><path class="cls-36" d="M10.64,20h-.4c-1,1.1-2,2.2-3,3.2a4.32,4.32,0,0,1-2.6,1.3c-2.7.3-3.4-.4-3.4-3.5,3.4,2.1,7.3.8,9-3,.1-.2.3-.3.4-.5.3.1.4.3.5.6A1.9,1.9,0,0,1,10.64,20Z"/><path class="cls-47" d="M.74,37V34a.35.35,0,0,0,.2-.1c4.5,2.5,5.2,2.2,7.4-2.6l.9-2.1c.3-.7.6-1.4,1.5-1.5a1,1,0,0,1,.8.7,15.34,15.34,0,0,0,4.6,10.4,2.29,2.29,0,0,1,.7,2.7,2,2,0,0,1-2,.7c-1.3-1.4-2.5-1.1-3.6.3h-2c-1.3-.7-2.7.2-4-.5C1.74,42,1.74,39,.74,37Z"/><path class="cls-48" d="M11.34,43.41c0,.1-.1.3-.1.4a4.44,4.44,0,0,1-3.1,4.3c-1.8.6-3.1-.6-4.3-1.8a5.38,5.38,0,0,0-1.2-.9c-.4-1-1.1-1.8-1-3,.7.7,1.3,1.6,2,2.2,2.7,2.3,5.8,1.6,7.5-1.7l.2.2Z"/><path class="cls-49" d="M11.14,42.51c-.1-1.3.4-2,1.8-2,1.1,0,1.8.3,1.7,1.5-.3.9-1,1-1.7,1a4.85,4.85,0,0,1-1.7,0l-.1-.1Z"/><path class="cls-30" d="M5.14,42c1.3.2,2.8-.5,4,.5C7.84,42.31,6.34,43,5.14,42Z"/><path class="cls-50" d="M11,15.91c2.4,1.6,4.3,3.9,7,5.3,1.7.9,3.6,1,5.2,2.2-2.4,1.4-4.3-.2-6.3-1a11,11,0,0,1-6.1-5.5l-.2.1c0-.3.1-.7.1-1A1,1,0,0,1,11,15.91Z"/><path class="cls-51" d="M49.14,17.51c.3-.2.7-.3,1-.5,1.1,1.9.8,3.8.1,5.7a21.16,21.16,0,0,0-1.2,2c-1.3,3.8-.9,7.7-.4,11.6.3,2.2,2.1,2.6,4,1.5a5.32,5.32,0,0,0,2-2.2c.5-.7.8-1.7,2-1.7.5.4.3,1,.3,1.5,0,.3-.1.5-.1.8a10.49,10.49,0,0,1-4.1,6.3c-3.4,2.4-6.3,1-6.7-3.1-.2-2.1.2-4.1.1-6.2-.2-1.7.6-3.5-.9-4.9a4.18,4.18,0,0,1-.4-1,1.7,1.7,0,0,1,.1-.7c.2-.7.3-1.4.5-2.1.9-2.1,3-3.6,3.3-6A1,1,0,0,1,49.14,17.51Z"/><path class="cls-52" d="M49.64,23c.7-1.9.5-4,.5-6h.5c.4.5.3,1.2.6,1.7.1.5.2.9.3,1.4a32.7,32.7,0,0,1-.4,4.4c-.1,1.7.2,3.3,2.1,3.6,1.7.3,2.7-.9,3.2-2.5a3.36,3.36,0,0,1,.5-1.4c.1-.1.2-.2.3-.2h.5v4a4.59,4.59,0,0,0-.7,1.6,2.51,2.51,0,0,1-.4.7,7.28,7.28,0,0,1-1.7,1.8c-2.1,1.5-4.1,1.1-5.4-1.1C47.84,28.31,48.34,25.61,49.64,23Z"/><path class="cls-53" d="M49.14,17.51v.9a2.65,2.65,0,0,1-.6.5,9,9,0,0,1-2.2.6,78.47,78.47,0,0,0-9.7,1.6c-2.5.4-5,.8-7.5,1.4h-.5c.5-1.1.2-2.5.9-3.6,3.2.4,6.3-.5,9.5-.9,2.1-.3,4.4.3,6.1-1.5l.5-.5c.1.9-.5,2.4,1.5,1.6C47.74,17.61,48.44,17.51,49.14,17.51Z"/><path class="cls-54" d="M50.64,19V17c.5.3.7,1.1,1.5,1,1.5.8,3,2.2,4.5,0h.5v3.5c-1.5,1.8-2.6,1.9-4.2.4C52,21,51.64,19.71,50.64,19Z"/><path class="cls-31" d="M56.64,18c-.8,2.2-2.6,2.2-4.5,0C53.64,17.91,55.14,19.41,56.64,18Z"/><path class="cls-55" d="M10.74,17c2.1,1.1,3.2,3.4,5.5,4.5s4.4,2.1,7,2.1c2,.5,4,1.7,6,0a2.65,2.65,0,0,1,1.7-1.4c4.9-.7,9.8-1.7,14.6-2.8.3.2.4.4.3.7-.8,1.7-2.3,2.3-3.9,2.8-4,1.2-7.9,2.5-12.1,2.9a30.51,30.51,0,0,1-12-1.1,5.71,5.71,0,0,1-2.1-1.3,7.87,7.87,0,0,0-4-2.4c-1.2-.6-.6-1.9-1.1-2.8-.1-.2-.1-.3-.2-.5C10.64,17.31,10.64,17.11,10.74,17Z"/><path class="cls-56" d="M50.64,19c1.2.1,1.6,1,2.2,1.8,1.2,1.8,2.6,2.2,4.3.7V24h0c-.7,1.2-1.6,2.2-3.1,1.8s-2.2-1.6-2.6-3c-.3-.9.3-2-.3-2.9C50.74,19.81,50.64,19.41,50.64,19Z"/><path class="cls-57" d="M10.74,28c-.6.3-.8,1-1.1,1.5-1,1.3-1.6,2.9-2.9,3.9-2.5,2-5.2,1.4-6.1-1.4h0V28c.7,1.2.9,3.2,2.8,2.9,2.3-.4,4.6-1.1,5.7-3.4.8-1.7,1.8-3.5,1.6-5.6a.66.66,0,0,1,.6.1c.4.6.7,1.3,1.1,2,.2.8-.2,1.2-.8,1.6-.8.2-.1.7-.2,1A1.91,1.91,0,0,1,10.74,28Z"/><path class="cls-58" d="M56.14,40.51c-.2.5-.3,1-.5,1.5a18.65,18.65,0,0,1-1,2,9.23,9.23,0,0,1-1.5,2.5h0c-2.5,3.3-6,4.6-9.9,5-3.4.4-5.4-2.2-3.5-4.9a45.64,45.64,0,0,0,4.9-9.9,1.08,1.08,0,0,1,.9-.8c.8,1.2.4,2.5.1,3.8a18.51,18.51,0,0,0-.8,4.7c0,1.5.8,2.1,2.2,1.9a8.76,8.76,0,0,0,5.9-3.4c.9-1.2,1.6-2.6,2.8-3.4a.76.76,0,0,1,.4.1Z"/><path class="cls-59" d="M56.64,35.51V34a2.74,2.74,0,0,1,.4-3.1.47.47,0,0,1,.6.1h0v4l-.5.5C56.94,35.71,56.74,35.71,56.64,35.51Z"/><path class="cls-58" d="M56.64,35.51h.5c-.1,1.4.3,2.9-1,4h0c-.9-1.3.6-2.3.5-3.5Z"/><path class="cls-60" d="M.64,32c1.6,2.5,3.8,2.7,6.1.7,1.1-1,1.5-2.6,2.9-3.2-.6,1.4-1,3-1.7,4.3-1.5,3.1-4.9,3.1-7.2.2A14.08,14.08,0,0,1,.64,32Z"/><path class="cls-51" d="M57.64,31h-.5c-.8-.5,0-1.4-.5-2a1.65,1.65,0,0,1,1-1Z"/><path class="cls-61" d="M45.14,16.51c-.5,1.6-1.9,1.9-3.1,2a84.56,84.56,0,0,0-11.4,1.6c-1.3.3-.8-.7-1-1.1,0-.5,0-1.1.5-1.4.1.7.4,1,1.2.7C35.74,16.71,40.54,17.41,45.14,16.51Z"/><path class="cls-62" d="M45.64,19.51c-5.3,2.2-11.1,2-16.5,4v-1c1-1.2,2.4-1.2,3.8-1.5,3.8-.7,7.6-.9,11.3-2.2a6.7,6.7,0,0,1,2.4.2C46.64,19.81,46.24,19.81,45.64,19.51Z"/><path class="cls-63" d="M45.64,36a58,58,0,0,1-5.1,10.3c-.7,1.1-1.5,2.4-.5,3.7s2.6,1.1,4.1.8c3.5-.5,6.2-2.4,9-4.3-.1,1.7-1.9,2.1-2.5,3.5a18.65,18.65,0,0,1-2,1c-.8.3-1.7.7-2.5,1a23.65,23.65,0,0,1-7,1.5c-1.4.1-3,.4-3.7-1.2s.2-2.7,1.3-3.7a41.41,41.41,0,0,0,5.5-6.3c.4-.6.7-1.2,0-1.7,0-.1-.1-.2-.1-.4a3.33,3.33,0,0,1,.3-.6c1.8-2.2,1.4-4.7,1.1-7.2.2-1.1.1-2.4,1.5-2.9,1.9,1.7.9,3.9,1,6C45.94,35.61,45.84,35.81,45.64,36Z"/><path class="cls-64" d="M36.64,48.51c-1.4,4.4-1.3,4.7,3.5,4.5a41.73,41.73,0,0,0,6-1c-2,2-4.8,1.3-7.2,1.9-1.6.4-3.5.1-5.2.1s-2.1-1.2-1.1-2.3C33.84,50.41,34.84,48.91,36.64,48.51Z"/><path class="cls-65" d="M41.14,42c-.5.3-1,.7-1.5,1-.9-1.6.4-3,.4-4.5a3.58,3.58,0,0,1,.4-1.1c.4-.4.8-.8,1.4-.3.8,1.1.2,2.3.3,3.4h0C41.84,41,41.44,41.51,41.14,42Z"/><path class="cls-63" d="M53.14,46.51a4.07,4.07,0,0,1,1.5-2.5A2.5,2.5,0,0,1,53.14,46.51Z"/><path class="cls-63" d="M54.64,44a2.61,2.61,0,0,1,1-2A1.88,1.88,0,0,1,54.64,44Z"/><path class="cls-64" d="M48.64,51a3,3,0,0,1,2-1A1.88,1.88,0,0,1,48.64,51Z"/><path class="cls-66" d="M40.54,38.31c.1,1.6-.7,3.1-.9,4.7-3.7,3.5-8,6.1-13.2,6.8a16.8,16.8,0,0,1-11.1-2.5,2,2,0,0,1-1.2-1.8.94.94,0,0,1,1.3,0,9.41,9.41,0,0,0,2.2,1.2,18.48,18.48,0,0,0,13.1,0,16.59,16.59,0,0,1,3.1-1.2c2.4-.9,4.1-2.4,4.4-5.1C38.64,39.31,39.24,38.41,40.54,38.31Z"/><path class="cls-67" d="M15.14,45.81c-.2-.4-.7-.3-1-.3-.5-.4-1-.7-1.5-1.1.6-.7,1.4-.3,2-.4H15a7,7,0,0,1,1.4.3,24.21,24.21,0,0,0,12.8-.6c1.3-.4,2.4-1.1,3.6-1.5a7.34,7.34,0,0,0,2.6-1.4,5.72,5.72,0,0,1,1.6-1.1,5.2,5.2,0,0,0,2.4-2,.86.86,0,0,1,.6-.3c.4,0,.7,0,.9.3a2.35,2.35,0,0,0-.2.8l-2,2c-.5,1.2-1.6,1.7-2.6,2.4-5.5,3.6-11.6,4.5-18.1,3.9C17,46.51,15.94,46.61,15.14,45.81Z"/><path class="cls-68" d="M33.14,42.51a15.4,15.4,0,0,1-3.5,1.5c-.9.4-1.8.2-2.7.5-4.1.3-8.2.6-12.3-.5h0v-.5c.6-.7,1.5-.6,2.3-.7,8.2,0,15.7-2,22.2-7.1.5-.4,1-.9,1.7-.8,1.1,1.7-.5,1.9-1.3,2.6V38c-.9.6-1.6,1.5-2.5,2-.5.3-1,.7-1.5,1C34.84,41.61,33.94,41.91,33.14,42.51Z"/><path class="cls-69" d="M17.14,43.51h-5.9a.6.6,0,0,1-.1-.4c.5-.2.9-.7,1.5-.4,1.4.5,2.9-.7,4.4.2C17.24,43,17.34,43.21,17.14,43.51Z"/><path class="cls-70" d="M11.14,22.11a.76.76,0,0,0-.4-.2c0-.6-.1-1.3-.1-1.9s.1-1.3.1-2a26,26,0,0,0,1,2.5c3.2.9,4,2,3.1,4.4-1.1,1-2.2,1.6-3.6.6.4-.4,1.5-.5,1-1.5C11.64,23.51,11.64,22.71,11.14,22.11Z"/><path class="cls-71" d="M16.64,41.41c.1-2.1-1.8-2.9-2.8-4.2a12.34,12.34,0,0,1-2.7-8.8c1.8,1.4,3.8,2.6,4.7,4.9-.2.6-.8.6-1.2.9a.82.82,0,0,0,.1.7,9,9,0,0,0,4.7,3.4c.6.2,1.3.3,1.3,1.2C19.74,41,18.54,41.91,16.64,41.41Z"/><path class="cls-72" d="M15.54,33.41c.4-1.2-.7-1.2-1.2-1.5a12.82,12.82,0,0,1-3.1-3.5c-.2-.1-.3-.3-.5-.4-.2-.6.3-1,.5-1.5a.81.81,0,0,1,.9.4,8.09,8.09,0,0,0,2.7,2.5,3.54,3.54,0,0,1,2.2,3.1,1.08,1.08,0,0,1-.3.7C16.44,33.51,16,33.81,15.54,33.41Z"/><path class="cls-73" d="M16.64,41.41a7.62,7.62,0,0,0,3.8-1.9,1.09,1.09,0,0,1,1.1-.2c1,2-1,2.1-1.8,2.9a6.63,6.63,0,0,1-1.9.9.47.47,0,0,1-.6-.1c-1.5-.2-3,.4-4.5-.4l2-.6C15.34,41.81,15.94,41.61,16.64,41.41Z"/><path class="cls-59" d="M45.64,36v-.5c.8-.6-.6-2.2,1-2.5.3,2.1-.4,4.2,0,6.4.2,1.3-.3,2.8,1.3,3.4a5,5,0,0,0,4.8-1.1c1.9-1.5,2.6-3.7,3.9-5.6-.2,1.2-.3,2.3-.5,3.5-.8,1.1-1.6,2.1-2.3,3.2a6.07,6.07,0,0,1-.7,1c-1.9,2.3-6.7,4.3-8.1,3-2.2-2.1-.5-4.8-.1-7.2C45.14,38.41,45.74,37.21,45.64,36Z"/><path class="cls-74" d="M56.64,29c.7.5.4,1.3.5,2-.2,1-.3,2-.5,3-1.5,1.3-1.8,3.5-3.7,4.5-2.4,1.3-4.6.7-4.9-1.9-.5-4-1.4-8.2.6-12.1.7,1.9-.1,3.9.5,5.8.5,1.6.6,3.4,2.7,3.7s3-1.4,4-2.7c.4-.5.4-1.3.8-1.8Z"/><path class="cls-75" d="M17.14,43h.5a17.68,17.68,0,0,1,3.1-.8,1.85,1.85,0,0,1,.7-.2c5.2-1.9,10.5-3.4,15.3-6.2a11,11,0,0,0,2.8-2,15.46,15.46,0,0,0,2.8-3.9,6.74,6.74,0,0,0,1.2-3.6c.1-.8.4-1.6,1.3-1.8.9.6.5,1.4.3,2.2.1.1,0,.3,0,.4a31.47,31.47,0,0,1-2.4,6.7c-.4.6-.6,1.4-1.6,1.3-6.9,6-15,8.5-24,8.5Z"/><path class="cls-76" d="M56.64,29.51a3.52,3.52,0,0,1-.7,2.8c-1.2,1.4-2.3,3.1-4.4,2.5s-3-2.4-2.9-4.6c.1-1.9,0-3.8,0-5.7a1.5,1.5,0,0,1,1-1.5c-.2,1.5-.4,2.9-.5,4.4-.1,2.1.5,4.1,2.7,4.8,2,.7,3.1-.9,4.2-2.3C56.14,29.71,56.44,29.61,56.64,29.51Z"/><path class="cls-77" d="M48.64,18.51a.6.6,0,0,0,.4-.1c0,2.6-2.2,4.1-3.4,6a1,1,0,0,1-.5-.6C44.94,21.21,46.54,19.71,48.64,18.51Z"/><path class="cls-58" d="M46.64,33c-1,.6,0,1.9-1,2.5,0-2.1.3-4.2-.6-6.2a.87.87,0,0,1,.2-1.3c1.5.2,1.4,1.3,1.4,2.4Z"/><path class="cls-78" d="M45.24,28c-.1.4-.1.9-.2,1.3-.3,1-.6,2-1,3-.3.5-.1,1.3-.9,1.5a1,1,0,0,1-1-.3c1-2.2,2-4.3,3-6.5C45.14,27.31,45.24,27.61,45.24,28Z"/><path class="cls-78" d="M45.54,24c.1.2.1.3.2.5-.2.7,0,1.5-.6,2.1-.2-.7.2-1.5-.5-2.1-.1-.1-.1-.2-.2-.2a.55.55,0,0,1,.3-.5A.63.63,0,0,1,45.54,24Z"/><path class="cls-27" d="M51.14,20c.7.5.6,1.4.7,2,1.2,4.4,2.9,3.9,5.3,2a4.72,4.72,0,0,1-.6,3.1c-1,1.4-2.3,2.3-4,1.7a3.32,3.32,0,0,1-2.2-3.7C50.54,23.41,50.84,21.71,51.14,20Z"/><path class="cls-79" d="M45.54,24h-.9c-.4-.7-.1-1.4-.1-2.1a6.92,6.92,0,0,1,1-1.9v-.5a1,1,0,0,0,1-.5,3,3,0,0,1,2.1-.5C47,20,45.64,21.61,45.54,24Z"/><path class="cls-80" d="M45.64,20c-.2.7-.3,1.3-.5,2a2.91,2.91,0,0,1-1.1,1.1c-4.4,2.6-9.2,3.8-14.1,4.7-3.4.6-6.9-.7-10.3-1.3a30.67,30.67,0,0,1-4.2-.7,1.22,1.22,0,0,1-.7-1.4c.6-2.6-1.6-2.9-3-4a3.89,3.89,0,0,1,3.7,1.5,7.85,7.85,0,0,0,5.4,2.7,37.51,37.51,0,0,0,17.9-1.7C41.14,22.21,43.64,21.81,45.64,20Z"/><path class="cls-81" d="M14.64,24.51a1,1,0,0,1,.5,1c-.2.7-.8,1-1.4,1.3a4.19,4.19,0,0,1-1.5.4,1.42,1.42,0,0,1-.6-.2c-.1-.2-.3-.3-.4-.5.1-.3-1-.6-.1-1A4.43,4.43,0,0,0,14.64,24.51Z"/><path class="cls-60" d="M11.14,22.11a2.06,2.06,0,0,1,1,1.9C11.34,23.71,11.14,23,11.14,22.11Z"/><path class="cls-44" d="M43.14,33.51l.9-1.2c.5,2.7.8,5.4-1.5,7.6a34.69,34.69,0,0,1-.6-4.5A3.87,3.87,0,0,1,43.14,33.51Z"/><path class="cls-82" d="M42.64,35.41c0,1.5.8,3,0,4.6l-.5.5c-1-1.1-.3-2.4-.5-3.6C41.44,36.11,41.64,35.51,42.64,35.41Z"/><path class="cls-83" d="M42.64,35.41c-.3.5-.7,1-1,1.5-.3.2-.5.4-.8.6h-1.1c.3-.9,1.5-1.3,1.5-2.5.3-.5.7-1,1-1.5h1A7,7,0,0,0,42.64,35.41Z"/><path class="cls-84" d="M15.14,45.81c7.4.9,14.5.1,21-3.8,1,2.2-.9,2.8-2,3.9-1,.3-2,.7-3,1-4.7,1.9-9.3,1.6-14,0C16.34,46.81,15.54,46.71,15.14,45.81Z"/><path class="cls-85" d="M34.14,46c.7-1.3,2.1-2.3,2-3.9l2.4-1.8C38.84,43.61,36.74,44.91,34.14,46Z"/><path class="cls-86" d="M17.14,47c4.7,1.1,9.3,1.5,14,0-.6,1.4-2,1.1-3,1.2C24.34,48.61,20.64,49,17.14,47Z"/><path class="cls-45" d="M14.64,44h12.5c-2,2-4.6,1.2-6.9,1.2a18.32,18.32,0,0,1-4.6-.7C15.24,44.41,14.84,44.41,14.64,44Z"/><path class="cls-83" d="M15.64,44.51c3.6-.2,7.1,1.3,10.7,0a3.51,3.51,0,0,0,.8-.5h2.5A19.34,19.34,0,0,1,15.64,44.51Z"/><path class="cls-83" d="M37.14,40a3.88,3.88,0,0,1,2.5-2C39,38.91,38.44,39.91,37.14,40Z"/><path class="cls-83" d="M33.14,42.51a3.34,3.34,0,0,1,2.5-1.5A3.18,3.18,0,0,1,33.14,42.51Z"/><path class="cls-69" d="M40.14,34c-2.4,2.5-5.6,3.7-8.7,5a59.47,59.47,0,0,1-10.3,3.5c-.3-.7.1-1.1.5-1.5a.89.89,0,0,0-.1-1.5,4.87,4.87,0,0,1-1.2-.1c-2.5-1.2-5.3-2-6.5-4.9a1.27,1.27,0,0,1,1.1-.5,58.33,58.33,0,0,1,9.2,2.1c4.7,1.5,8.8.2,12.9-1.7C38.14,34,38.94,33.11,40.14,34Z"/><path class="cls-79" d="M15.14,34.51a4.87,4.87,0,0,0-1.2.1c-.1-.2-.1-.4-.2-.6.7-.5,1.5-.1,2.3-.3.5-.2,1.3-.3.6-1.2a3.46,3.46,0,0,0-2.2-2.7c-1.5-.5-2-1.7-2.8-2.8h.5c.5-.2,1,.1,1.5.3,1.7.8,3.5,1.4,4.4,3.3.4.8,1.5.9,2.4,1.1a25.55,25.55,0,0,0,21.2-4.5c.6-.4,1.1-1,2-.7-.5,3.8-3.6,5.1-6.4,6.5-4.8,2.5-10.1,2.3-15.3,1.9a33.89,33.89,0,0,0-4.5-.2C16.74,34.61,15.94,34.91,15.14,34.51Z"/><path class="cls-61" d="M16.64,34h-2.9c.4-.9,1.2-.4,1.8-.6.4-.1.8-.3,1.1-.4A.67.67,0,0,1,16.64,34Z"/><path class="cls-87" d="M16.64,34v-1.5C18.24,33,17.44,33.51,16.64,34Z"/><path class="cls-88" d="M21.64,39.51c.9,0,1.9-.1.9,1.3a21,21,0,0,1-1.4,1.7h0c-.8.2-1.6.8-2-.5C19.84,41,21.44,40.91,21.64,39.51Z"/><path class="cls-69" d="M19.14,42c.5.7,1.3.4,2,.5-1.1,1-2.3.3-3.5.5A13,13,0,0,1,19.14,42Z"/><path class="cls-87" d="M43.64,26.51c-5.2,4.2-11,6.9-17.9,6.5a59.28,59.28,0,0,1-5.9-.7c-1.4-.2-2.7-.5-3-2.3-.1-.9-1-1.3-1.9-1.4s-1.5-.2-1.8-1.1a3.48,3.48,0,0,1,3.8.4c3.7,3,8,2.6,12.2,2.4a20.27,20.27,0,0,0,13.4-5.2c.6-.5,1.2-1.3,2.1-.6h0a2.88,2.88,0,0,0-.5,2C43.94,26.71,43.84,26.71,43.64,26.51Z"/><path class="cls-89" d="M43.64,26.51h.5c-.2,1.3-.2,2.7-1.5,3.5-2.5,4-6.7,5.4-10.9,6.4-4.8,1.1-9.6.1-14.1-1.9,1.1-.9,2.3-.4,3.5-.3a33.53,33.53,0,0,0,11.4-.3c4-.8,7.9-2.5,10.4-6.1A4.15,4.15,0,0,0,43.64,26.51Z"/><path class="cls-90" d="M17.64,34.51a31,31,0,0,0,11.7,1.6A22.45,22.45,0,0,0,42.64,30c-.1,1.8-1.7,2.6-2.5,4-2.2.1-3.6,1.8-5.6,2.4-3.7,1.1-7.1,1.5-10.9.3-2.8-.9-5.8-1.2-8.5-2.2Z"/><path class="cls-91" d="M44.64,24.51c-.6,0-1,.4-1.5.8-4.6,4.4-10.2,6-16.5,5.7a27.35,27.35,0,0,1-5.7-.4,7.18,7.18,0,0,1-3.9-1.9c-1.1-1.1-2.7-.6-3.9-1.2-.3-.2-.7-.3-1-.5.4-.6,1-.5,1.5-.5,2.8-1.2,5.5,0,8,.6,7.1,1.9,13.6-.1,20-2.9a10.39,10.39,0,0,0,2.4-1.7c.3-.2.7-.3,1-.5a3.51,3.51,0,0,1-.5,2A.9.9,0,0,1,44.64,24.51Z"/><path class="cls-92" d="M44.14,22.51c-2.2,3.1-5.8,3.7-9.1,4.9-6.1,2.3-12.2.6-18.2-.6-1.1-.2-2.1-.2-3.2-.3.5-.3,1-.7,1.5-1,3.3-.1,6.6.8,9.8,1.5,3.9.8,7.5-.2,11.1-1.3A56.83,56.83,0,0,0,44.14,22.51Z"/></g></g></svg>