<svg xmlns="http://www.w3.org/2000/svg" viewBox="0 0 58 58.91"><defs><style>.cls-1{fill:#5cc639;}.cls-2{fill:#7cec51;}.cls-3{fill:#83f05a;}.cls-4{fill:#347f1f;}.cls-5{fill:#91f76a;}.cls-6{fill:#69d942;}.cls-7{fill:#62d23c;}.cls-8{fill:#54c031;}.cls-9{fill:#6fe046;}.cls-10{fill:#77e84d;}.cls-11{fill:#74e54b;}.cls-12{fill:#4eb52e;}.cls-13{fill:#3f9c24;}.cls-14{fill:#43a427;}.cls-15{fill:#48ae2a;}.cls-16{fill:#6bd447;}.cls-17{fill:#3d8b27;}.cls-18{fill:#3e7d2d;}.cls-19{fill:#e4e4e2;}.cls-20{fill:#ebeae9;}.cls-21{fill:#f4f7f3;}.cls-22{fill:#f2f2f1;}.cls-23{fill:#efeeee;}.cls-24{fill:#e6e6e4;}.cls-25{fill:#b1b0af;}.cls-26{fill:#e1dfdf;}.cls-27{fill:#d6d5d5;}.cls-28{fill:#dbdada;}.cls-29{fill:#c4c3c2;}</style></defs><g id="Capa_2" data-name="Capa 2"><g id="Capa_1-2" data-name="Capa 1"><path class="cls-1" d="M.1,37.74c0-5,0-10-.1-15,1.2,0,1.1,1,1.3,1.7a4.29,4.29,0,0,0,1.8,3c2.1.8,3.7-2.4,5.8-.6.7,1.3.4,2.8.5,4.2a7.72,7.72,0,0,0,.2,1.5c.1.5.2,1,.3,1.4.1.2.1.5.2.7s.1.5.2.8c.7,3.1,1.2,6.1-.7,9-2.7,1.1-6.5-.2-8.2-2.8-.3-.5-.3-1.1-.9-1.5l-.3-1.5A1,1,0,0,0,.1,37.74Z"/><path class="cls-2" d="M5.5,6.14l.8-.8c4.2-1.3,8.6-1.5,12.9-2.1a53,53,0,0,1,6.9,0c5.1,0,10.1.2,15.2.2a21.36,21.36,0,0,1,6.6,1.2c.9.3,1.8.6,1.8,1.8-1.4,1.4-3.1.5-4.6.4a30.57,30.57,0,0,0-7.4.2,6.41,6.41,0,0,0-4.1,2c-2.8.6-5.6.2-8.5.1-.7-.4-1.1-1.2-2-1.4-5.3-1.5-10.5-2.1-15.6.5a2.48,2.48,0,0,1-1.7,0A1.47,1.47,0,0,1,5.5,6.14Z"/><path class="cls-3" d="M49.5,6.74c-2.7-.8-5.3-2.4-8-2.4-11.4.3-22.9-2-34.1,1.7-.3.1-.8-.5-1.1-.7,1.2-.7,2.4-1.5,3.6-2.2a79.88,79.88,0,0,1,20.7-1.9c5.6.1,11.1.4,16.4,2.1a3.89,3.89,0,0,0,1.5.2c1.3,1,2.7,2,4,3-.1.1-.1.2-.2.3a1.5,1.5,0,0,1-1.1.4A1.62,1.62,0,0,1,49.5,6.74Z"/><path class="cls-4" d="M48,55.84h-.1c-.4-.1-.6.1-.9.4-1.3.4-2.7.9-4,1.3l-.2-.1-.1.2c-12.3,1.2-24.8,3.4-36.2-3.9.1-.1.2-.2.2-.3a1.69,1.69,0,0,1,1.4-.1,11.08,11.08,0,0,0,1.9.9l1.8.6a88.2,88.2,0,0,0,17,1.6c6.1.1,12.2-.1,17.9-2.5a11.43,11.43,0,0,0,2.9-1.5c.2-.2.4-.3.5-.5a5,5,0,0,0,2.2-2.1c1-.8,1.3-2.4,2.6-3a.76.76,0,0,1,.9.3l-5.7,7.5c-.3.3-.8.2-1,.6h0C48.8,55.54,48.3,55.44,48,55.84Z"/><path class="cls-5" d="M48.6,3.54c-5.2-.5-10.3-1.3-15.5-1.3-7.7,0-15.4.6-23.2.9C22.9-1,35.8-1.26,48.6,3.54Z"/><path class="cls-6" d="M.5,18.24c.5-2,1-4,1.4-6,2.4.8,5,.4,7.3,1.6a6.74,6.74,0,0,1,3.1,2.7,4.87,4.87,0,0,1,.1,1.2c-.7,1.6-1.3,3.3-3,4.1C5.8,22.14,2.7,21.44.5,18.24Z"/><path class="cls-7" d="M56,12.74c.4,1.5.7,3,1.1,4.5a1.78,1.78,0,0,1-.4,1,6.81,6.81,0,0,0-1.2,1.2c-2,2.5-4.5,2.6-7.3,1.4a4.88,4.88,0,0,0-.7-.3c-.6-.4-.9-1.1-1.4-1.6a5.39,5.39,0,0,1-.7-1.3,2.48,2.48,0,0,1-.1-1.9C48.2,12.74,52.9,11.44,56,12.74Z"/><path class="cls-7" d="M.5,18.24c3.1,1,6.2,2,9.3,3.1a6.27,6.27,0,0,1-.7,5,1.61,1.61,0,0,1-.7.4c-1.7.7-3.4,1.4-6,2.5-.9-2.3-1.7-4.4-2.4-6.5a7.57,7.57,0,0,1,.1-1.5c.3-.7,0-1.6.4-2.3Z"/><path class="cls-8" d="M56.5,17.74l.5-.5c.2,1,.3,2,.5,3a1.81,1.81,0,0,1,.1,1.6v.6a1.1,1.1,0,0,1,0,.8,19.67,19.67,0,0,0-.1,4.2,8.59,8.59,0,0,1-.5,3.2c-.5,1.2-1.1,2.3-2.6,2.4s-2.1-1.1-2.6-2.3a10,10,0,0,0-2.1-3.6,7.88,7.88,0,0,1-1.6-4.4,1.85,1.85,0,0,1,.2-.7c1.8-1.2,2.9,1.2,4.9.9C55.4,22.14,55.2,19.44,56.5,17.74Z"/><path class="cls-9" d="M12.1,16.94c-2.2-4.1-7.4-1.9-10.2-4.8.2-.6.5-1.3.7-1.9a21.23,21.23,0,0,1,7.5-1.4c2.8.1,4.8,1.2,5.7,3.9A4.57,4.57,0,0,1,12.1,16.94Z"/><path class="cls-10" d="M49.5,6.74h2c.3.4.6.4,1,.1l.1-.2,1.5,2.1c-.5,1.3-1.6,1-2.5.8-1.2-.2-2.4-.7-3.6-.8-3-.2-5.8,0-7.7,2.8a8.82,8.82,0,0,1-6.7-2.7C38.3,3.54,44.1,6.14,49.5,6.74Z"/><path class="cls-11" d="M15.5,13.24c-3-6.5-8.6-2.1-12.9-3,.4-.7.9-1.4,1.3-2.1.7-.3,1.4.1,2.1-.4H7.5c3.2-1.7,6.5-1.5,9.8-.9a3.61,3.61,0,0,1,3.1,2.8C19.7,12,17.9,13,15.5,13.24Z"/><path class="cls-12" d="M49.7,26.64c1.5,2,3.1,4,4.7,6,3.9-2.2,1.9-6.4,3.1-9.5.8,1.1,0,2.3.5,3.4v1.6c-.3.7,0,1.5-.3,2.3a37.26,37.26,0,0,0-.1,4.7,3.15,3.15,0,0,1-.5,2.3c-1.3,1.1-1.9,3.6-4.4,2.9-1.8-2-.8-4.7-1.8-6.8a4.51,4.51,0,0,1-.3-1.1,5.63,5.63,0,0,0-1-4A1.92,1.92,0,0,1,49.7,26.64Z"/><path class="cls-9" d="M40,11.34c3.5-7.4,9.4-1.8,14.1-2.7.3.5.6,1,.9,1.6a1.58,1.58,0,0,1-2,1.1A10.26,10.26,0,0,0,43.4,14C41.7,13.84,40.4,13.14,40,11.34Z"/><path class="cls-6" d="M43.1,13.64c2.9-4.8,7.8-2.8,11.9-3.5.3.8.7,1.7,1,2.5-3.8.4-7.5.8-10.5,3.5a1.42,1.42,0,0,1-.6.2,4.41,4.41,0,0,1-1.8-1.5C43,14.44,42.6,14,43.1,13.64Z"/><path class="cls-8" d="M.4,40.24c2.7,1.8,4.7,5,8.7,4,1.1.9.6,2.3.9,3.4a2.66,2.66,0,0,1-.3,1.2c-2.6,1.5-5.4.7-7.4-2.2-.3-.5-.4-1.1-.9-1.4l-.1-.1V45a.64.64,0,0,0,0-.6c-.1-.4.1-.9-.3-1.2Z"/><path class="cls-12" d="M1.4,45.24c2.6,1.6,4.3,5.2,8.3,3.4a.85.85,0,0,1,.7,0,2,2,0,0,1,1.4,1.9,1.08,1.08,0,0,1-.3.7c-1.4,1.7-3.2,1.9-5.2,1.3-.7,0-1.2-.6-1.9-.7a3,3,0,0,1-.5-.7,1.42,1.42,0,0,0-.2-.6,3.6,3.6,0,0,0-1.3-2.1A24.15,24.15,0,0,0,1.4,45.24Z"/><path class="cls-13" d="M57.5,30.24c.1-.7.3-1.3.4-2-.6,5.8-1.1,11.7-1.7,17.5a.61.61,0,0,1-.8,0c-1.4-1.9.3-3.5.3-5.3a5.87,5.87,0,0,1,.8-3.2c.2-.7.3-1.3.5-2C57.8,33.64,56.8,31.84,57.5,30.24Z"/><path class="cls-10" d="M6,7.74c-.7.1-1.4.3-2.1.4.5-.6,1-1.3,1.6-1.9C5.7,6.64,5.8,7.24,6,7.74Z"/><path class="cls-14" d="M4.5,51.74H6c.6.4,1,.8.6,1.6-.2.2-.5.1-.7,0C5.4,52.74,5,52.24,4.5,51.74Z"/><path class="cls-15" d="M2.5,48.24c.5.7,1,1.3,1.6,2a.37.37,0,0,1-.6,0A18.65,18.65,0,0,1,2.5,48.24Z"/><path class="cls-16" d="M58,26.64c-.2-1.1-.3-2.3-.5-3.4.1-.2.1-.5.2-.7C57.8,23.84,57.9,25.24,58,26.64Z"/><path class="cls-17" d="M55.5,45.64c.2,0,.5.1.7.1-.2.5-.3,1-.5,1.5H55C54.6,46.54,54.5,45.84,55.5,45.64Z"/><path class="cls-1" d="M.5,18.94c-.1.8-.3,1.5-.4,2.3A15.72,15.72,0,0,1,.5,18.94Z"/><path class="cls-16" d="M57.6,21.84c0-.5-.1-1.1-.1-1.6A8.6,8.6,0,0,1,57.6,21.84Z"/><path class="cls-8" d="M.1,37.74v0Z"/><path class="cls-12" d="M.9,43.24a5.36,5.36,0,0,1,.5,1.1c-.2.1-.3.1-.4-.1A3.08,3.08,0,0,0,.9,43.24Z"/><path class="cls-18" d="M49.1,55.24c.3-.2.7-.4,1-.6C49.7,54.94,49.4,55,49.1,55.24Z"/><path class="cls-18" d="M48,55.84a5.36,5.36,0,0,1,1.1-.5A5.36,5.36,0,0,0,48,55.84Z"/><path class="cls-16" d="M1.1,44.24a.6.6,0,0,1,.4.1c-.1.2-.1.5-.2.7A3.09,3.09,0,0,1,1.1,44.24Z"/><path class="cls-14" d="M3.5,50.24h.6A2.2,2.2,0,0,1,4,51,3.51,3.51,0,0,1,3.5,50.24Z"/><path class="cls-4" d="M5.9,53.24a1.27,1.27,0,0,0,.6-.1.37.37,0,0,1,.1.3.35.35,0,0,1-.1.2h0A2.09,2.09,0,0,1,5.9,53.24Z"/><path class="cls-18" d="M47,56.24c.3-.1.6-.3.9-.4C47.6,55.94,47.3,56.14,47,56.24Z"/><polygon class="cls-16" points="42.7 57.64 42.9 57.44 43 57.54 42.9 57.64 42.7 57.64"/><path class="cls-19" d="M9.3,47.84,9,44.24l.3-9.3c.6-1.1,1.9-.3,2.7-1,1.5-1.5,1.6-3.6,2.2-5.5a18,18,0,0,1,1.4-4.3c.4-.8.9-1.7,2-1.6a3.69,3.69,0,0,1,1,3c0,.3-.1.5-.1.8-1.3,2.1-.2,4.2.2,6.2a58.48,58.48,0,0,1,1.2,7.1c.1,3.4-.8,4.8-4.1,6-1.8.7-3.8.8-5.2,2.2A1.22,1.22,0,0,1,9.3,47.84Z"/><path class="cls-20" d="M17.3,22.74c-1.5,4.1-3,8.3-4.5,12.5-1.3-.1-2.4-.2-3.4-.3v-.1c-.1-.2-.1-.4-.3-.6-.1-.4-.1-.9-.2-1.3l-.3-1.2c-.1-1.7-.1-3.3-.2-5,.1-.2.1-.3.2-.5,2.1-1.3,4-3,6-4.5,1-.7,2-1.7,3.2-.3C17.9,21.94,18,22.54,17.3,22.74Z"/><path class="cls-19" d="M8.6,31.74l.3,1.2Z"/><path class="cls-19" d="M9.1,34.24l.3.6Z"/><path class="cls-21" d="M43.1,13.64a8.79,8.79,0,0,1,.6,1c-.7.8-1.5.5-2.3.2a13.36,13.36,0,0,0-1.8-.7c-5.4-1.5-19.9.4-24.8,3.4-1.8,1.1-1.8,1.1-2.9,0,.1-.2.1-.5.2-.7l3.4-3.7,4.5-3c1.3-1.6,2.8-2.6,5-1.6h8.5c2.2.9,4.3,1.8,6.5,2.6A22.65,22.65,0,0,0,43.1,13.64Z"/><path class="cls-10" d="M25,8.64c-1.7.5-3.3,1.1-5,1.6-3.3-5.3-8.2-2.5-12.5-2.6C13.5,4.94,19.4,3.64,25,8.64Z"/><path class="cls-2" d="M52.5,6.74a8,8,0,0,1-.5,1.1c-.3-.6-.4-.9-.5-1.1Z"/><path class="cls-14" d="M55.5,45.64c-.2.5-.3,1-.5,1.5-.8,1-1.7,2-2.5,3l-2,2h0a23.9,23.9,0,0,1-12.7,3.8,32.77,32.77,0,0,0-8.8,1.2c-6-.7-12-1.3-18-2-.3-1.4.3-2.7.3-4a4.35,4.35,0,0,1,1.5-.8,2,2,0,0,1,.7.1A2.81,2.81,0,0,0,15,51a3.55,3.55,0,0,1,1,.2c5.5-1.3,10.7.8,15.9,1.9a7.09,7.09,0,0,0,4.1-.2c3.7-1.5,7.2-3.3,9.3-7a4.05,4.05,0,0,1,.5-.9c.4-.4.9-.7.9-1.3a4.46,4.46,0,0,1,1.3-2.3,2.8,2.8,0,0,0,.9-1.3c.4-.7.6-1.6,1.6-1.7,1.5.8.7,2,.6,3.1-.3,2-1.4,3.9-1.6,6.1,1.5,0,2.1-1,2.8-1.9a21.59,21.59,0,0,0,2.2-3.9c.4-.7.6-1.9,1.9-1.2A40.14,40.14,0,0,1,55.5,45.64Z"/><path class="cls-13" d="M29,57.24c7.2-1.7,14.3-3.3,21.5-5C44.2,57.54,36.5,57,29,57.24Z"/><path class="cls-15" d="M11.5,51.24c.3.7.5,1.3.8,2-.4.7-.9,1.3-1.3,2-.5-.2-1-.3-1.5-.5-.4-.5-1-.6-1.5-1H6.5v-.5c-.2-.5-.3-1-.5-1.5a28.86,28.86,0,0,1,2.9.4c.8-.5,1.7-.9,2.5-1.4.1.1.2.2.2.3S11.6,51.24,11.5,51.24Z"/><path class="cls-13" d="M50.5,52.24l2-2C51.9,50.94,51.2,51.54,50.5,52.24Z"/><path class="cls-14" d="M8,53.74a13,13,0,0,1,1.5,1A13,13,0,0,0,8,53.74Z"/><path class="cls-22" d="M12,17.64a48.25,48.25,0,0,1,27.5-4.4,21.62,21.62,0,0,1,4.3,1.4c.4.5.9,1,1.3,1.5a2.82,2.82,0,0,1,.4,1.5,1.18,1.18,0,0,1-1.5,1c-3.4-.5-6,1.3-8.5,3-3.3,2.1-6.1,2.3-9.1-.3a1.59,1.59,0,0,0-1.2-.4,5.41,5.41,0,0,1-2.2-1.5c-2-1.8-2.9-1.7-4.4.5-.4.5-.5,1.3-1.3,1.3-2.9,1.7-5.8,3.3-8.7,5,.4-1.6.8-3.3,1.2-4.9C10.5,20,11.2,18.84,12,17.64Z"/><path class="cls-23" d="M24.5,20.44c7.7,5.7,13.4-3.7,20.5-2.7a1.06,1.06,0,0,1,1.2-.1c.1.2.3.5.4.7a2.74,2.74,0,0,0,1,1.8H48c.6.5,1.2,1.1.7,2,0,.1-.1.3-.1.4.2,1.2-.8,1.1-1.4,1.1a9.06,9.06,0,0,0-5,1.9,38.73,38.73,0,0,1-6.4,3.3c-3.3,1.2-5.3.5-7.2-2.4-1.2-1.8-2.4-3.6-3.7-5.3A2.51,2.51,0,0,1,24.5,20.44Z"/><path class="cls-1" d="M48.7,22.24c-.2-.7-.5-1.3-.7-2,3.6,1.7,6.1-.3,8.6-2.5-.7,2.3-1.5,4.5-2.3,7.1Z"/><path class="cls-21" d="M46.2,17.64a4.87,4.87,0,0,0-1.2.1v-1.6a.75.75,0,0,0,.5.1A9.14,9.14,0,0,1,46.2,17.64Z"/><path class="cls-22" d="M47.6,20.14c-.3-.6-.7-1.2-1-1.8C46.9,18.94,47.3,19.54,47.6,20.14Z"/><path class="cls-24" d="M24.6,20.74c7,13.9,15.8,3.3,24,1.8.4,1.4.7,2.7,1.1,4.1.1.7.1,1.3.2,2,.7.3.4.8.1,1.2-.2.1-.4.3-.6.3-1.1.1-1.5,1-2.1,1.6-1.9,1.8-3.8,3.5-6.6,3.9H40a3.1,3.1,0,0,1-1.3-.6c-2.2-1.6-4.3-2.9-7-1A1.72,1.72,0,0,1,30,34c-2.6-1.8-5.3-3.4-6.3-6.7.2-1.3,1-2.4,1.1-3.7C24.6,22.64,24.2,21.74,24.6,20.74Z"/><path class="cls-15" d="M56.5,40.74c-2.7,2.6-2.7,7.6-7.9,8.5.7-3.7,1.3-7.1,1.9-10.5a2.32,2.32,0,0,1-.6-2c.5-1.1-.1-2.6,1.1-3.5.7,2.2,1.3,4.5,2.9,9.6,1.3-2.7,2-4.1,2.6-5.6Z"/><path class="cls-13" d="M51,33.24c-.2,1.2-.3,2.3-.5,3.5-1.1.2-1.5-.6-1.9-1.4a4.1,4.1,0,0,1-.1-1.1c.2-.6.3-1.2.5-1.8a1.21,1.21,0,0,1,.5-.5,1.1,1.1,0,0,1,1.4.3A3.08,3.08,0,0,1,51,33.24Z"/><path class="cls-15" d="M51,32.24H49.6c-.9-.8-.7-1.6,0-2.5.1-.3.2-.7.3-1C51.6,29.44,51.9,30.64,51,32.24Z"/><path class="cls-14" d="M57.5,30.24c-.2,1.7-.3,3.3-.5,5C57.2,33.54,57.4,31.84,57.5,30.24Z"/><path class="cls-25" d="M9.3,47.84c.4,0,.8-.1,1.2-.1,1.4-1,2.7-1.2,4.1,0,.2,1.7-1,1.8-2.2,1.7a5.53,5.53,0,0,1-2.5-.7c-.1-.1-.1-.1-.2-.1A2,2,0,0,0,9.3,47.84Z"/><path class="cls-18" d="M10,48.64c1.6-.2,3.2-.5,4.8-.7-.1-.1-.2-.2-.2-.3.2-.2.4-.2.6-.3a7.49,7.49,0,0,0,2.1-.2,7,7,0,0,1,2.5,0c.5.1.9.3,1.4.4a3,3,0,0,1,1,.2,12,12,0,0,0,2.7.8,5.9,5.9,0,0,1,1.4.2,11,11,0,0,0,5.4,0,3.55,3.55,0,0,1,1-.2,10.33,10.33,0,0,0,5.3-1.9,3.51,3.51,0,0,1,.8-.5l.6-.3.6-.3a3.6,3.6,0,0,0,1.2-.8c.2-.2.5-.4.7-.6a4.14,4.14,0,0,0,1.8-1.9,1.66,1.66,0,0,1,1.5-.8.92.92,0,0,1,.6.4c.8,1.5-.1,2.7-.4,4a6.66,6.66,0,0,1-3.1,3.1c-.6.3-1,.8-1.5,1.1a5.84,5.84,0,0,1-2.2.8,19.31,19.31,0,0,1-13.8.2c-3.5-1.3-6.9-.2-10.3,0a2.45,2.45,0,0,1-1.2-.4h-.5a1.65,1.65,0,0,1-1.5-.5C11,49.74,10.5,49.24,10,48.64Z"/><path class="cls-13" d="M11.5,50.24c.5.2,1,.3,1.5.5-.5.2-1,.3-1.5.5v-1Z"/><path class="cls-16" d="M24.6,20.74c.3,1,.6,1.9.8,2.9a6,6,0,0,0-1.8,3.3c2.2,2.4,4.4,4.8,6.8,7.4,3.5-3.3,6.1-1.9,8.7.3-3,.2-6-.1-8.9.7-1,.3-2-1-2.9-1.7a58,58,0,0,1-9.1-8c-.3-1-.5-2-.8-3v-1.5c1.1-1.3,2.1-3.5,3.2-3.7s2.6,1.8,4,2.9C24.5,20.54,24.6,20.64,24.6,20.74Z"/><path class="cls-26" d="M15.5,47.94a1.7,1.7,0,0,0-.7.1l-4.3-.3c13.9-3.2,5.3-14.3,7.5-21.5.7-.1.9.4,1.1.9.6,5,2.7,9.5,4.8,14,.8,1.8,1.9,3.6.9,5.4-1,1.1-2.2.7-3.2,1a4.29,4.29,0,0,1-1.6,0H17C16.5,47.74,16,47.74,15.5,47.94Z"/><path class="cls-1" d="M18.5,27.24c-.2-.3-.3-.7-.5-1a.9.9,0,0,1,.1-.5l12.6,9.6c1.3-.8,2.3-1.4,3.4-2,1.7.5,3.3.9,5,1.4a4.35,4.35,0,0,1,.6.7c1,.3.4,1,.3,1.5a16.54,16.54,0,0,1-3.7,3.3,6.1,6.1,0,0,1-3,.1c-2-1-4.1-1.9-6-3.1-.7-.4-1-1.2-1.8-1.4l-.6-.3c-.2-.1-.3-.2-.5-.3s-.2-.1-.2-.2a6,6,0,0,1-.8-.8l-.4-.4-.2-.2-.4-.4-.2-.2-.4-.4-.2-.2c-.1-.1-.2-.3-.3-.4l-.2-.2c-.1-.1-.2-.3-.3-.4l-.4-.4-.2-.2c-.2-.1-.3-.3-.4-.4C19,29.34,19,28.14,18.5,27.24Z"/><path class="cls-13" d="M39,50.24c.7-.2,1.3-.3,2-.5l1-1c1-.8,2-1.7,3-2.5.3-.3.4-.8,1-.5-3.8,6.6-9.2,9.6-17,7.7-4.4-1.1-9-1.2-13.5-1.7-.1-.7.4-.8.9-.9a18.17,18.17,0,0,1,9.8.4C30.5,52.54,34.9,52.84,39,50.24Z"/><path class="cls-17" d="M46,45.74c-.3.2-.7.3-1,.5.2-1.5.3-3,.5-4.5l-.2-.2v-.3a.76.76,0,0,1,.2-.5.35.35,0,0,1,.1-.2c.1-.2.2-.3.3-.5s.2-.3.3-.5a2.51,2.51,0,0,1,.4-.7c.1-.2.1-.3.2-.5s.2-.5.3-.8.3-.7.4-1.1a1.42,1.42,0,0,0,.2-.6c.3-.4.6-.9,1.2-.8.5.5,1,1.1,1.5,1.6v2c-.3.7-.7,1.3-1,2l-1,1c-.3.8-.7,1.7-1,2.5l-1,1C46.4,45.34,46.2,45.54,46,45.74Z"/><path class="cls-17" d="M39,50.24c-4.2,4-8.9,2-13.7,1.3-3.2-.5-6.6.1-9.9.2h-1a.67.67,0,0,1,0-1C22.6,47.54,30.9,54.34,39,50.24Z"/><path class="cls-13" d="M14.5,50.74v1c-.2.1-.5.2-.9.4-.1-.6-.1-.9-.2-1.3A4.48,4.48,0,0,1,14.5,50.74Z"/><path class="cls-13" d="M48.5,41.74l1-1Z"/><path class="cls-13" d="M46.5,45.24l1-1Z"/><path class="cls-27" d="M46.5,39.64a2.19,2.19,0,0,1-.3.5c.1.2,0,.3-.2.3l-.1.2a.66.66,0,0,1-.4.5v.1a2.18,2.18,0,0,1-.4.5c-.3.3-.6.7-.9,1a19.85,19.85,0,0,0-2.1,2c-.2.1-.4.3-.6.4-.4.5-1.1.5-1.5,1h0a.55.55,0,0,1-.5.3,2.51,2.51,0,0,0-.7.4,31,31,0,0,1-5.8,2.1c-.3,0-.6.1-1,.1a1.15,1.15,0,0,1-.9-.6,5.93,5.93,0,0,0-1.7-2.7,43.1,43.1,0,0,1-5.9-8.1c-.6-1-1.1-2.1-.1-3.2a.76.76,0,0,1,1,.1h0a2.09,2.09,0,0,1,.4.6c3.3,3.7,6.7,7.2,12.1,7.1,2.8,0,3.8-1.9,2.6-4.3a.86.86,0,0,1-.3-.6,1.28,1.28,0,0,1,.4-1c0-.4.1-.8.1-1.3.3,0,.5-.1.8-.1,2.1,1.3,4.1,2.6,6.6,2.9a.47.47,0,0,1-.1.6.52.52,0,0,1-.2.4C46.8,39.44,46.7,39.54,46.5,39.64Z"/><path class="cls-19" d="M46.9,38.14c-3,1-4.8-.7-6.3-3,2.8-1.8,5.7-3.7,8.5-5.5.7,1-.2,2.1.2,3.1,0,.4.1.7-.1,1-.8.6-.6,1.7-1,2.5,0,.2,0,.3-.2.4a3,3,0,0,0-.6,1.1A.51.51,0,0,1,46.9,38.14Z"/><path class="cls-12" d="M23.6,27c-1.4-2.2.5-2.6,1.8-3.3C24.9,24.74,24.2,25.94,23.6,27Z"/><path class="cls-27" d="M49.2,32.84c-.1-1-.1-2.1-.2-3.1h.5v2.5a1.27,1.27,0,0,1-.1.6C49.4,32.74,49.3,32.84,49.2,32.84Z"/><path class="cls-27" d="M48.1,36.34c.3-.9.6-1.8.9-2.6.3.1.3.2.2.5s-.1.6-.2.9A12.49,12.49,0,0,0,48.1,36.34Z"/><path class="cls-12" d="M49.1,34.14c-.1-.2-.1-.3-.2-.5l.3-.9a.37.37,0,0,0,.3-.1A6.58,6.58,0,0,1,49.1,34.14Z"/><path class="cls-28" d="M23.8,34.44c.3,5.6,4.7,8.6,8,12.8a5.82,5.82,0,0,1-.3,1.4c-1.8,1-3.7.3-5.5.5-.5-.1-.9-.1-1.4-.2-.8-.5-1.8-.4-2.6-.7a2.92,2.92,0,0,0-.9-.2c-.4-.2-.4-.4-.2-.7,1-.3,2.1-.5,3.5-.9-2-6.3-3.9-12.7-5.9-19.1.7,1,1.3,2,2,3,.2.2.4.3.5.5h-.1c.1.1.2.3.3.4a.75.75,0,0,0,.1.5h.3c.1.2.3.3.4.5h0l.5.5h0a1.21,1.21,0,0,1,.5.5h0c.1.1.2.3.3.4s.1.3.2.5Z"/><path class="cls-25" d="M26,49.14c1.8-.2,3.7-.3,5.5-.5l.5.5Z"/><path class="cls-25" d="M33,49c1.9-.7,3.9-1.4,5.8-2.1C36.9,47.64,34.9,48.34,33,49Z"/><path class="cls-25" d="M42,44.74c.7-.7,1.4-1.3,2.1-2C43.4,43.44,42.7,44,42,44.74Z"/><path class="cls-25" d="M22,48.24c.9.2,1.8.5,2.6.7C23.7,48.74,22.8,48.44,22,48.24Z"/><path class="cls-25" d="M15.5,47.94c.5-.1,1-.2,1.6-.3C16.5,47.74,16,47.84,15.5,47.94Z"/><path class="cls-25" d="M40,46.14c.5-.3,1-.7,1.5-1A13,13,0,0,1,40,46.14Z"/><path class="cls-25" d="M20.9,47.24c.1.2.1.5.2.7a4.87,4.87,0,0,1-1.1-.4A1.61,1.61,0,0,0,20.9,47.24Z"/><path class="cls-17" d="M42,48.74l-1,1Z"/><path class="cls-25" d="M45,41.74a2.18,2.18,0,0,1,.4-.5.9.9,0,0,0,.1.5H45Z"/><path class="cls-25" d="M39.5,46.54c.2-.1.3-.2.5-.3C39.8,46.34,39.7,46.44,39.5,46.54Z"/><path class="cls-14" d="M27,36.74c2,1,4,1.9,6.1,2.9a1.21,1.21,0,0,1-.5.5,2.08,2.08,0,0,1-1.1.1c-1.7-.7-3.8-1.1-4.6-3.2C26.9,36.94,27,36.84,27,36.74Z"/><path class="cls-14" d="M39.6,36.64a3.4,3.4,0,0,0,.1,1c0,1.8-1,2.4-2.6,2.5-.3-.1-.5-.2-.6-.5C37.5,38.64,38.6,37.64,39.6,36.64Z"/><path class="cls-18" d="M36.5,39.64c.2.1.5.1.7.2-1.6,1.7-3.2,1.8-4.8,0,.2,0,.5-.1.7-.1C34.2,39.64,35.3,39.64,36.5,39.64Z"/><path class="cls-14" d="M25.5,35.24l1.5,1.5v.1c-1,.5-1.4,0-1.7-.9A.62.62,0,0,1,25.5,35.24Z"/><path class="cls-12" d="M24.5,34.74c-.2-.1-.5-.2-.7-.3h-.1c-.3,0-.4-.2-.4-.5.1-.1.1-.2.2-.3A11,11,0,0,0,24.5,34.74Z"/><path class="cls-12" d="M22.5,32.74l-.5-.5Z"/><path class="cls-12" d="M23,33.24l-.5-.5Z"/><path class="cls-12" d="M23,33.74v-.5c.2.2.4.3.5.5v.1A.75.75,0,0,1,23,33.74Z"/><path class="cls-27" d="M21.3,31.74a1.38,1.38,0,0,1-.3-.4.52.52,0,0,1,.4-.2c0,.1.1.3.1.4S21.4,31.64,21.3,31.74Z"/><path class="cls-12" d="M24.5,35.14v-.4c.2.2.4.3.6.5-.1.1-.2.1-.3.2Z"/><path class="cls-12" d="M25.5,35.24v.4c-.5.2-.6.1-.5-.4h.5Z"/><path class="cls-12" d="M21,30.74c-.2-.2-.3-.4-.5-.5Z"/><path class="cls-12" d="M21.5,31.44c-.2-.1-.3-.1-.5-.2v-.6A2.18,2.18,0,0,0,21.5,31.44Z"/><path class="cls-12" d="M22,32.24c-.1-.2-.3-.3-.4-.5A2.18,2.18,0,0,1,22,32.24Z"/><path class="cls-27" d="M47,37.64c.3-.3.6-.7.9-1-.1.3-.2.7-.3,1l-.3.3C47.2,37.94,47.1,37.74,47,37.64Z"/><path class="cls-25" d="M47,37.64h.6c-.2.3-.4.7-.6,1-.1-.2-.1-.4-.2-.6C46.9,38,47,37.84,47,37.64Z"/><path class="cls-25" d="M46.5,39.64c.1-.2.2-.3.3-.5C46.7,39.34,46.6,39.44,46.5,39.64Z"/><path class="cls-25" d="M46,40.54c0-.2.1-.3.2-.3C46.1,40.24,46,40.44,46,40.54Z"/><path class="cls-25" d="M45.5,41.14a1.76,1.76,0,0,1,.4-.5A1.76,1.76,0,0,0,45.5,41.14Z"/><path class="cls-29" d="M25,35.24c.2.1.3.3.5.4.5.4,1,.8,1.4,1.1l4.5,3c1.3,1.1,2.8,1.2,4.4,1.4,2.7.4,3.3-1.8,4.3-3.6.2,1.1,1,2.9.6,3.1-1.4,1.1-3.3,2.4-4.8,2.2-5-.7-9.1-3.2-11.4-7.9A.91.91,0,0,0,25,35.24Z"/><path class="cls-25" d="M40.1,37.64c-.1,1.8.1,3.7-2.4,4.2a5.91,5.91,0,0,1-6.3-2.1h5.7c.8-.7,1.7-1.4,2.5-2.1Z"/><path class="cls-27" d="M23,33.74a.9.9,0,0,1,.5.1,1.85,1.85,0,0,1,.2.7c-.4,0-.9.1-2,.1A5.9,5.9,0,0,1,23,33.74Z"/></g></g></svg>